<svg width="25" height="24" viewBox="0 0 25 24" fill="none" xmlns="http://www.w3.org/2000/svg">
<path d="M7.50739 12.0001C7.50739 11.5858 7.84317 11.2501 8.25739 11.2501H11.75V7.75742C11.75 7.3432 12.0858 7.00742 12.5 7.00742C12.9142 7.00742 13.25 7.3432 13.25 7.75742V11.2501H16.7427C17.1569 11.2501 17.4927 11.5858 17.4927 12.0001C17.4927 12.4143 17.1569 12.7501 16.7427 12.7501H13.25V16.2427C13.25 16.6569 12.9142 16.9927 12.5 16.9927C12.0858 16.9927 11.75 16.6569 11.75 16.2427V12.7501H8.25739C7.84317 12.7501 7.50739 12.4143 7.50739 12.0001Z" fill="white"/>
<path fill-rule="evenodd" clip-rule="evenodd" d="M7.81673 3.76882C10.9043 3.42374 14.0957 3.42374 17.1832 3.76882C19.0096 3.97294 20.4845 5.41159 20.6994 7.24855C21.0686 10.4055 21.0686 13.5947 20.6994 16.7516C20.4845 18.5885 19.0096 20.0272 17.1832 20.2313C14.0957 20.5764 10.9043 20.5764 7.81673 20.2313C5.99035 20.0272 4.51545 18.5885 4.3006 16.7516C3.93137 13.5947 3.93137 10.4055 4.3006 7.24855C4.51545 5.41159 5.99035 3.97294 7.81673 3.76882ZM17.0166 5.25954C14.0398 4.92683 10.9602 4.92683 7.98334 5.25954C6.83891 5.38744 5.92286 6.29069 5.79045 7.4228C5.43476 10.4639 5.43476 13.5362 5.79045 16.5773C5.92286 17.7094 6.83891 18.6127 7.98334 18.7406C10.9602 19.0733 14.0398 19.0733 17.0166 18.7406C18.1611 18.6127 19.0771 17.7094 19.2095 16.5773C19.5652 13.5362 19.5652 10.4639 19.2095 7.4228C19.0771 6.29069 18.1611 5.38744 17.0166 5.25954Z" fill="white"/>
</svg>
