<svg width="118" height="48" viewBox="0 0 118 48" fill="none" xmlns="http://www.w3.org/2000/svg">
<path fillRule="evenodd" clip-rule="evenodd" d="M15.3652 15.0242C15.1191 15.0331 15.0875 15.0418 15.0875 15.1005C15.0875 15.137 15.0607 15.187 15.0282 15.2118C14.9953 15.2366 14.9202 15.3516 14.8615 15.4675C14.8025 15.5834 14.6794 15.7436 14.5875 15.8234C14.4959 15.9034 14.351 16.0724 14.2658 16.1992C14.1807 16.3259 14.0264 16.4982 13.9234 16.5821C13.8204 16.6658 13.6843 16.8117 13.6202 16.9061C13.5565 17.0005 13.4217 17.143 13.3207 17.223C13.2198 17.3028 13.0729 17.4573 12.9944 17.5663C12.9156 17.6751 12.7801 17.8136 12.6929 17.8738C12.6057 17.9341 12.4759 18.069 12.4041 18.1736C12.3323 18.2782 12.1884 18.431 12.0841 18.513C11.9798 18.595 11.8447 18.7333 11.7836 18.8205C11.7226 18.9076 11.5757 19.0572 11.457 19.1529C11.3386 19.2485 11.1937 19.4014 11.1353 19.4924C11.077 19.5835 10.9314 19.7369 10.812 19.8334C10.693 19.9299 10.5608 20.0668 10.5186 20.1377C10.4763 20.2087 10.3556 20.3338 10.2499 20.4158C10.1443 20.4978 9.98562 20.6622 9.89775 20.781C9.80954 20.8998 9.66566 21.048 9.57779 21.1102C9.48992 21.1726 9.35342 21.3126 9.27426 21.4215C9.19545 21.5304 9.06096 21.6683 8.97543 21.7278C8.89024 21.7875 8.76078 21.923 8.68801 22.029C8.61523 22.1351 8.46833 22.2897 8.36167 22.3727C8.25468 22.4556 8.13294 22.5815 8.09068 22.6524C8.04876 22.7234 7.90253 22.8764 7.76602 22.9927C7.62952 23.1089 7.46753 23.2752 7.40615 23.3623C7.34478 23.4494 7.21364 23.5861 7.1147 23.666C7.01543 23.7458 6.86953 23.9003 6.79038 24.0093C6.71123 24.1181 6.57909 24.2549 6.49625 24.3129C6.41341 24.371 6.28059 24.5076 6.20043 24.6166C6.12061 24.7256 5.97237 24.8799 5.87108 24.9599C5.76946 25.0397 5.63765 25.1765 5.57762 25.2635C5.51759 25.3506 5.37035 25.4938 5.25062 25.5816C5.13088 25.6694 4.99874 25.7964 4.95648 25.8639C4.91456 25.9314 4.75089 26.0676 4.59326 26.1664C4.43562 26.2653 4.30617 26.3603 4.30617 26.3777C4.30583 26.395 4.15859 26.477 3.97883 26.56C3.79906 26.643 3.65216 26.7204 3.65216 26.7321C3.65216 26.7437 3.5123 26.7855 3.34159 26.8248C3.17088 26.8641 2.97266 26.9169 2.90055 26.942C2.74795 26.9955 2.27204 27.0359 1.50132 27.0609C0.863073 27.0815 0.7041 27.125 0.578665 27.3131C0.435119 27.5288 0.31136 27.6268 0.182907 27.6268C0.0101822 27.6268 -0.0149709 27.6946 0.00649391 28.0998L0.0256107 28.454L0.450211 28.5079C1.08946 28.5892 12.6791 28.5952 13.0816 28.5144C13.3754 28.4554 13.5427 28.337 13.687 28.0859C13.7423 27.9891 13.8624 27.8506 13.9533 27.7779C14.5962 27.2652 14.1327 27.0744 12.174 27.0461C11.4882 27.0361 10.8851 27.018 10.8345 27.006C10.423 26.9083 9.99837 26.7207 9.95242 26.6162C9.83034 26.3401 9.95611 25.9281 10.2526 25.6332C10.3549 25.5316 10.5011 25.3533 10.5772 25.2372C10.6534 25.1209 10.7862 24.9709 10.8727 24.9035C10.9589 24.8362 11.0917 24.683 11.1675 24.5631C11.2433 24.4431 11.3882 24.2783 11.4895 24.1969C11.5908 24.1156 11.7367 23.956 11.8135 23.8426C11.89 23.7293 12.0254 23.5785 12.1143 23.5076C12.2032 23.4367 12.338 23.2859 12.4138 23.1724C12.7197 22.7143 12.4028 22.7418 17.3779 22.7418H21.4217L21.6568 22.8252C21.9435 22.927 22.1639 23.0971 22.338 23.3512C22.4104 23.4566 22.5399 23.5973 22.6257 23.6638C22.7119 23.7304 22.8461 23.8799 22.9245 23.996C23.0027 24.1123 23.1546 24.2805 23.2619 24.37C23.3693 24.4593 23.5155 24.6178 23.5869 24.7221C23.6584 24.8264 23.7942 24.9731 23.8885 25.048C23.983 25.1229 24.1252 25.2796 24.2051 25.396C24.2845 25.5126 24.4301 25.6701 24.5287 25.7461C24.7625 25.9268 24.963 26.3844 24.8835 26.5562C24.7132 26.9251 24.0008 27.046 21.9992 27.046C20.3494 27.046 20.2364 27.0824 19.8239 27.7491C19.5526 28.1875 19.5539 28.1754 19.7635 28.3427C20.0627 28.5812 19.5244 28.5643 26.7875 28.5643C34.211 28.5643 33.3578 28.6087 33.7613 28.2008C34.5568 27.3966 34.4488 27.1083 33.3296 27.0453C32.4828 26.9976 31.9233 26.8671 31.6201 26.6464C31.5303 26.5811 31.3901 26.4938 31.3086 26.4525C31.2271 26.4113 31.113 26.311 31.055 26.2298C30.9973 26.1486 30.8665 26.015 30.7646 25.933C30.6626 25.8509 30.5298 25.7023 30.4691 25.6029C30.4084 25.5034 30.2652 25.3448 30.1505 25.2503C30.0361 25.156 29.8899 25.0015 29.8262 24.9071C29.7621 24.8127 29.6259 24.6681 29.523 24.5857C29.4203 24.5033 29.2775 24.35 29.2054 24.2449C29.1332 24.1398 28.989 23.9875 28.8847 23.9062C28.7808 23.8249 28.6322 23.6648 28.5547 23.5504C28.4776 23.436 28.3441 23.2935 28.2586 23.2335C28.173 23.1736 28.0385 23.0355 27.9597 22.9266C27.8809 22.8177 27.731 22.6567 27.6267 22.5688C27.5224 22.481 27.3765 22.3205 27.3027 22.2123C27.2289 22.1042 27.1005 21.9681 27.0173 21.91C26.9341 21.852 26.7855 21.6975 26.6876 21.5667C26.5897 21.436 26.4418 21.2815 26.3589 21.2234C26.2764 21.1654 26.1456 21.0228 26.0681 20.9065C25.9907 20.7904 25.8662 20.6538 25.7911 20.6029C25.716 20.5521 25.5711 20.3994 25.4691 20.2636C25.3675 20.1276 25.2266 19.979 25.1562 19.933C25.0861 19.8871 24.954 19.7453 24.8624 19.6181C24.7712 19.4907 24.624 19.3364 24.5354 19.2752C24.4469 19.2139 24.3104 19.0688 24.2322 18.9525C24.1537 18.8363 24.0072 18.676 23.9066 18.596C23.8056 18.5162 23.659 18.3617 23.5802 18.2527C23.5017 18.1439 23.3689 18.0072 23.2851 17.9492C23.2016 17.891 23.0688 17.7484 22.9906 17.6323C22.9121 17.516 22.7656 17.3557 22.665 17.2757C22.564 17.1959 22.4181 17.0414 22.3403 16.9324C22.2625 16.8236 22.1314 16.6869 22.0488 16.6289C21.9667 16.5707 21.8349 16.4281 21.7567 16.312C21.6786 16.1958 21.5441 16.0497 21.4582 15.9874C21.372 15.9252 21.2258 15.7733 21.1326 15.6498C20.9937 15.4659 20.9048 15.3993 20.6392 15.2809C20.4611 15.2013 20.3152 15.1145 20.3152 15.0876C20.3152 15.014 16.8604 14.9698 15.3652 15.0242ZM49.4433 15.0246C48.4214 15.0321 48.3486 15.0359 48.3486 15.0823C48.3486 15.1233 48.2691 15.1375 47.8992 15.1627C47.3448 15.2005 47.219 15.2492 46.8732 15.5594C46.3383 16.0392 46.7035 16.378 47.7556 16.378C48.1038 16.378 48.6485 16.4373 49.0452 16.5187C49.7284 16.6585 49.7287 16.6589 49.7066 18.1535C49.6841 19.6614 49.7576 19.5771 48.6102 19.4144C46.9916 19.1848 42.3844 19.1804 41.1613 19.4072C41.0362 19.4305 40.6924 19.4763 40.3976 19.5091C40.1031 19.5419 39.6765 19.6099 39.4494 19.6605C39.2227 19.711 38.9635 19.7609 38.8736 19.7712C38.7267 19.7883 38.0629 19.9493 37.5679 20.0879C36.6238 20.3526 35.0186 21.0009 34.7235 21.2367C34.6598 21.2875 34.5337 21.3647 34.4431 21.4083C34.3529 21.4519 34.2073 21.5529 34.1201 21.6327C34.0329 21.7126 33.9031 21.8035 33.8317 21.8345C33.7603 21.8657 33.6187 21.9905 33.5171 22.1118C33.4155 22.2332 33.2568 22.398 33.1646 22.4781C32.3194 23.2124 32.3318 25.1415 33.1861 25.8091C33.2914 25.8914 33.4249 26.0243 33.4826 26.1046C33.5402 26.1849 33.6606 26.294 33.7499 26.3472C33.8391 26.4004 34.0115 26.5236 34.1329 26.6211C34.2543 26.7184 34.4022 26.8145 34.4615 26.8343C34.5209 26.8542 34.6158 26.9068 34.6725 26.9512C34.8982 27.1274 36.2327 27.6934 36.7499 27.8322C36.8934 27.8708 37.1215 27.9414 37.2563 27.9891C37.3915 28.0368 37.5384 28.0758 37.5833 28.0758C37.6279 28.0758 37.8349 28.1226 38.0425 28.1796C38.2504 28.2367 38.5737 28.3038 38.7612 28.3287C38.9487 28.3537 39.2492 28.4069 39.429 28.447C39.6087 28.487 39.9763 28.5396 40.246 28.5637C40.5153 28.5877 41.0445 28.6373 41.4222 28.6736C44.5228 28.9728 47.3565 28.6909 47.8291 28.0361C47.9026 27.9345 48.0233 27.7919 48.0977 27.7193C48.8084 27.0252 48.6672 26.7139 47.7332 26.9161C46.8156 27.1149 43.1719 27.1145 42.5001 26.9156C42.4642 26.905 42.1996 26.8635 41.9122 26.8236C41.6248 26.7837 41.2864 26.7182 41.1606 26.6783C41.0348 26.6383 40.8584 26.5902 40.7685 26.5713C40.5133 26.5177 39.9086 26.2808 39.6725 26.142C39.5544 26.0727 39.4333 26.0161 39.4028 26.0161C39.3723 26.0161 39.2596 25.9418 39.1523 25.8511C39.045 25.7603 38.8826 25.6416 38.7911 25.5873C38.6998 25.5329 38.563 25.4021 38.4869 25.2967C38.4107 25.1914 38.2927 25.0564 38.2246 24.9969C37.8835 24.6987 37.7718 23.4549 38.0468 23.019C38.2253 22.7359 38.6854 22.2289 38.8374 22.1477C38.9188 22.1041 39.0453 22.0185 39.1181 21.9577C39.3408 21.7711 40.2255 21.3745 40.7048 21.2463C40.8477 21.2081 40.9647 21.1678 40.9647 21.1568C40.9647 21.0967 42.595 20.8144 43.2403 20.7627C45.5424 20.579 48.6548 20.7355 49.5654 21.0811L49.721 21.1402V24.0605C49.721 26.5099 49.7043 27.0573 49.6174 27.4557C49.4869 28.0525 49.5077 28.1943 49.7458 28.3398C50.1191 28.5677 50.0554 28.5643 53.9147 28.5643C57.8954 28.5643 57.5292 28.5964 57.8542 28.2198C58.091 27.9453 58.2194 27.858 58.4488 27.8158C58.6943 27.7706 58.7121 27.7736 59.0901 27.9239C59.5257 28.0971 60.1509 28.2764 60.4866 28.3243C60.6272 28.3443 60.9018 28.3969 61.0964 28.4411C61.2912 28.4853 61.6417 28.5392 61.8755 28.561C62.1089 28.5827 62.619 28.6314 63.0088 28.669C65.8163 28.9405 69.0498 28.7176 69.6189 28.2134C69.6796 28.1595 69.7983 28.0605 69.8825 27.9936C69.9667 27.9266 70.0995 27.7602 70.1777 27.6238C70.2558 27.4875 70.3802 27.3318 70.4544 27.2776C70.565 27.1964 70.5758 27.1677 70.5144 27.1133C70.3789 26.9931 70.2142 26.9931 68.5732 27.1124C65.4745 27.3376 63.1194 27.0472 62.2521 26.3329C61.9161 26.0561 62.0368 25.3598 62.458 25.1448C62.5577 25.0939 62.6875 25.0147 62.7465 24.9686C62.8055 24.9225 62.9497 24.8583 63.0668 24.8257C63.1842 24.7932 63.3686 24.7337 63.4763 24.6936C64.2872 24.391 65.8552 24.2733 69.0769 24.2733C71.1241 24.2733 71.3012 24.2838 71.5172 24.4168C71.648 24.4976 71.6249 25.8549 71.4713 27.112C71.3233 28.3222 71.3391 28.3606 72.0488 28.5017L72.3634 28.5643H80.8584C90.9382 28.5643 89.8042 28.6217 90.1637 28.0924C90.2406 27.9788 90.3496 27.8502 90.4056 27.8064C90.5404 27.7011 90.4921 27.6393 90.154 27.4845L89.872 27.3554L89.1227 27.3327C87.8928 27.2956 87.4843 27.1754 87.2519 26.7819C87.1449 26.6003 87.1255 22.8787 87.2298 22.5419C87.5122 21.6317 88.3211 21.2425 90.5065 20.9652C93.3174 20.6085 95.2553 20.8953 95.7131 21.7358C95.8616 22.0085 95.8814 26.6891 95.7349 26.8875C95.5353 27.1574 94.8944 27.31 93.96 27.31C93.359 27.31 93.2614 27.3396 92.9337 27.621C92.4685 28.0207 92.4165 28.2535 92.756 28.4166C93.0692 28.567 92.9679 28.5643 98.4133 28.5643C104.12 28.5643 103.564 28.5895 103.835 28.3179C103.917 28.2356 104.042 28.1284 104.112 28.0798C104.194 28.0228 104.251 27.9236 104.27 27.8004C104.321 27.4809 103.94 27.3559 102.817 27.3243C102.113 27.3045 102.036 27.2938 101.629 27.1598C101.155 27.0037 101.181 27.1504 101.181 24.6298C101.181 22.1096 101.186 22.0751 101.57 21.8493C101.687 21.7804 101.803 21.6992 101.827 21.6689C101.877 21.6045 102.629 21.3161 103.086 21.1859C103.961 20.9361 106.298 20.7634 107.291 20.8752C108.251 20.9832 109.138 21.2112 109.309 21.3935C109.344 21.4308 109.455 21.5443 109.557 21.646L109.741 21.8308V24.2997C109.741 26.763 109.741 26.7689 109.602 26.8875C109.267 27.1743 108.76 27.3092 108.014 27.3106C107.272 27.312 107.026 27.4264 106.746 27.9014L106.577 28.1891L106.711 28.3154C106.995 28.5824 106.879 28.577 112.388 28.5772C117.251 28.5772 117.244 28.5774 117.533 28.4311C117.632 28.3809 117.764 28.3398 117.827 28.3398C117.991 28.3398 118.014 28.2672 117.994 27.8128L117.975 27.4046L117.583 27.3716C117.367 27.3535 117.061 27.3382 116.902 27.3376C116.011 27.334 115.426 27.2112 115.035 26.9458C114.992 26.9165 114.955 25.8869 114.929 23.996C114.903 22.1377 114.864 21.0438 114.82 20.9594C114.688 20.705 114.196 20.14 114.026 20.0484C113.931 19.9975 113.799 19.9203 113.732 19.8768C112.848 19.3053 109.634 18.9086 107.487 19.1059C105.486 19.2898 105.059 19.3362 104.71 19.4073C104.494 19.4512 104.153 19.5062 103.952 19.5296C103.751 19.553 103.511 19.5961 103.419 19.6255C103.327 19.6548 103.05 19.7152 102.805 19.7597C102.559 19.8043 102.27 19.868 102.161 19.9012C102.053 19.9344 101.833 19.9886 101.671 20.0218C101.509 20.0549 101.294 20.1102 101.192 20.1445C100.842 20.2628 100.351 20.2128 100.065 20.0295C99.8397 19.8849 99.1726 19.6013 98.8939 19.5313C98.7859 19.5044 98.59 19.448 98.4586 19.4062C98.2235 19.3317 97.1868 19.1859 96.3453 19.109C95.4813 19.0301 93.8527 19.0654 92.49 19.1926C92.0946 19.2295 91.5824 19.2773 91.3524 19.2989C91.122 19.3204 90.8131 19.3664 90.6662 19.4011C90.5193 19.4356 90.2224 19.49 90.0068 19.5218C89.7911 19.5537 89.5188 19.6087 89.4014 19.6441C89.284 19.6795 89.0204 19.7383 88.8148 19.775C88.6096 19.8117 88.3268 19.8837 88.1863 19.9349C87.9509 20.0209 87.9079 20.0269 87.6359 20.0119C87.1828 19.9868 87.164 19.973 87.164 19.6647C87.164 19.2304 87.1751 19.2323 85.0645 19.2951C83.7243 19.3349 82.8855 19.3718 82.31 19.4163C82.1225 19.4308 81.4755 19.4603 80.8722 19.4819C79.6074 19.527 79.5913 19.5298 79.2784 19.7579C78.4322 20.3751 78.7971 20.7164 80.3567 20.7656C81.1921 20.7919 81.5171 20.8699 81.878 21.1311C82.0937 21.287 82.0236 26.8467 81.8042 26.9819C81.3716 27.2486 80.8447 27.3159 79.1593 27.3203C77.85 27.3235 77.7846 27.3169 77.3415 27.1378C76.933 26.9729 76.9512 27.1018 76.9082 24.0225L76.869 21.1971L76.5749 20.867C76.1362 20.375 75.2467 19.9403 74.2681 19.74C74.0866 19.7029 73.8632 19.6503 73.7713 19.6233C73.6798 19.5962 73.3256 19.5393 72.9842 19.4969C72.6428 19.4543 72.2309 19.3996 72.0693 19.3751C70.8709 19.194 64.8413 19.2035 63.3572 19.3887C63.1184 19.4186 62.6532 19.4661 62.3229 19.4947C61.6407 19.5537 61.5357 19.582 61.4224 19.7385C61.3778 19.8001 61.2708 19.9019 61.1849 19.9647C61.0991 20.0278 60.9418 20.214 60.8351 20.3788C60.7284 20.5434 60.5826 20.7248 60.5108 20.7816C60.4393 20.8384 60.3183 20.9834 60.2421 21.104C60.166 21.2245 60.0466 21.3839 59.9765 21.4581C59.6425 21.8135 60.2086 21.976 61.7812 21.976H62.453L62.8125 21.8432C63.0963 21.7384 63.2083 21.6723 63.3428 21.5301C63.4364 21.431 63.5876 21.3217 63.6785 21.2871C63.7697 21.2525 63.8885 21.1865 63.9425 21.1404C64.0491 21.0498 64.6793 20.8016 65.1619 20.6604C65.5221 20.5551 66.8312 20.3971 67.5278 20.375C68.7536 20.3362 70.4037 20.5986 70.9283 20.9157C71.0158 20.9687 71.1345 21.0381 71.1915 21.0698C71.3562 21.1613 71.4706 21.3817 71.5437 21.7488C71.7446 22.7531 71.5756 22.9861 70.6898 22.9279C68.978 22.8157 64.0357 22.9752 62.5613 23.1903C62.2739 23.2323 61.8768 23.286 61.6793 23.3097C61.4817 23.3336 61.2171 23.3799 61.0913 23.4129C60.9652 23.4458 60.6791 23.5058 60.4551 23.5463C60.2307 23.5869 60.0117 23.6376 59.9678 23.659C59.9239 23.6802 59.7397 23.7373 59.5583 23.7858C58.8671 23.9704 57.9548 24.4061 57.7187 24.6642C57.6563 24.7324 57.5359 24.8374 57.451 24.8976C56.8856 25.2989 56.9174 26.6136 57.5027 27.0327C57.8428 27.2761 57.5627 27.3631 56.5619 27.3251C55.8402 27.2978 55.5729 27.2472 55.3394 27.0939C54.9631 26.8467 54.9812 27.161 54.9812 20.8628V15.036L54.7525 15.0208C54.5328 15.006 51.727 15.0081 49.4433 15.0246ZM17.4319 18.1236C17.6781 18.2232 18.0282 18.5525 18.0282 18.6848C18.0282 18.7031 18.1282 18.8006 18.2502 18.9014C18.3723 19.0021 18.5373 19.1796 18.6172 19.2958C18.697 19.4121 18.8452 19.5733 18.9462 19.6544C19.0471 19.7354 19.1779 19.8771 19.2373 19.9692C19.2963 20.0612 19.4285 20.2038 19.5311 20.2861C19.6337 20.3682 19.7665 20.5113 19.8259 20.6039C19.8853 20.6965 19.9721 20.8024 20.0187 20.8394C20.0657 20.8763 20.1247 20.9682 20.1499 21.0434L20.1955 21.1802L19.945 21.2082C19.6082 21.246 14.6696 21.247 14.4952 21.2093C14.2742 21.1615 14.3198 20.9126 14.5878 20.7059C14.7086 20.613 14.8575 20.4537 14.9188 20.3521C14.9802 20.2504 15.1003 20.119 15.1855 20.06C15.2707 20.0009 15.4179 19.8406 15.5125 19.7034C15.6074 19.5664 15.7523 19.4068 15.8348 19.3486C15.917 19.2905 16.0635 19.1302 16.1604 18.9922C16.257 18.8542 16.3939 18.7018 16.4643 18.6534C16.5347 18.605 16.6538 18.4682 16.7286 18.3497C16.957 17.9877 17.0341 17.9629 17.4319 18.1236ZM28.4994 29.3441C28.1355 29.3741 27.4664 29.6068 27.3637 29.739C27.2554 29.8792 27.2132 30.707 27.3037 30.9172C27.406 31.1545 27.5073 31.225 27.8772 31.3156C28.6667 31.5093 28.6516 31.5085 31.6876 31.5085H34.4226L34.6001 31.5702C34.9583 31.6947 34.8972 32.0818 34.5058 32.1665C34.3294 32.2046 29.5723 32.2063 29.3962 32.1682C29.3278 32.1535 29.1956 32.0888 29.1024 32.0246C28.8059 31.8199 28.0456 31.7701 27.3336 31.9083C26.429 32.0841 26.8841 32.7432 28.0261 32.9105C28.5255 32.9837 34.5954 33.0255 35.3295 32.9608C36.7117 32.839 36.9458 32.6763 36.9458 31.8386C36.9458 31.1061 36.7687 30.9131 35.9983 30.8074C35.1826 30.6953 35.0263 30.6899 32.5629 30.6899C29.4552 30.6899 29.2677 30.6715 29.2677 30.3642C29.2677 30.0636 29.419 30.0484 32.2953 30.0605L34.4411 30.0695L34.6152 30.1528C34.7111 30.1986 34.8452 30.2687 34.9137 30.3083C35.0364 30.3797 35.0438 30.3802 35.5898 30.3646C36.5175 30.3382 36.7278 30.2774 36.7932 30.0166C36.8566 29.763 36.4913 29.5237 35.8024 29.3671C35.6123 29.3239 28.9994 29.3032 28.4994 29.3441ZM38.9692 29.3419C38.6727 29.3906 38.6469 29.4409 38.8662 29.542C38.9782 29.5935 39.0698 29.6457 39.0698 29.6579C39.0698 29.6702 39.3562 29.798 39.7067 29.9421C40.0572 30.086 40.6381 30.3313 40.9972 30.4872C41.3568 30.6431 41.8833 30.8684 42.1674 30.9878C42.9851 31.3312 42.9931 31.3426 42.9851 32.1101C42.976 32.9435 43.0367 32.9874 44.1992 32.9868C45.3667 32.9863 45.3617 32.99 45.3476 32.1158C45.3345 31.3372 45.3157 31.3633 46.1518 31.0066C46.4436 30.8821 46.9765 30.6522 47.3357 30.4956C47.6953 30.339 48.254 30.1002 48.5773 29.965C50.0306 29.3575 50.0202 29.3169 48.4093 29.3169C47.327 29.3169 47.2405 29.3303 46.6901 29.5832C45.1091 30.3099 44.4752 30.5675 44.3173 30.5473C44.173 30.5288 43.5985 30.3104 43.1082 30.0875C42.9391 30.0108 42.6671 29.89 42.5035 29.8191C42.3401 29.7483 42.2063 29.6802 42.2063 29.6677C42.2063 29.6554 41.9984 29.5714 41.7445 29.4811L41.2827 29.3169L40.1923 29.3185C39.593 29.3194 39.0426 29.33 38.9692 29.3419ZM52.8941 29.3563C51.9772 29.4882 51.6482 29.7998 51.6981 30.4878L51.731 30.9408L51.9745 31.121C52.2069 31.293 52.2405 31.3056 52.7174 31.3979L53.2171 31.4947L56.027 31.5082C59.4546 31.5248 59.4536 31.5246 59.4567 31.8602C59.458 31.9961 59.3755 32.0493 59.0421 32.1283L58.7601 32.1951L56.4784 32.1936C53.6984 32.1917 53.7262 32.1932 53.5109 32.0334C53.2205 31.8176 53.2164 31.8165 52.6614 31.8339C51.622 31.8663 51.4483 31.9319 51.459 32.2875C51.4707 32.6715 51.7484 32.8102 52.758 32.9361C53.1675 32.9874 53.3241 32.9891 56.5338 32.9805C60.5993 32.9695 60.6171 32.9681 61.193 32.6303L61.4505 32.4791V31.8386V31.1981L61.1906 31.0457C60.6402 30.7227 60.2465 30.6902 56.8681 30.6891C54.1112 30.6883 54.2105 30.6933 53.958 30.5385C53.8265 30.458 53.7977 30.2677 53.905 30.1868C54.068 30.0636 54.2169 30.0562 56.518 30.0562C58.8976 30.0562 58.81 30.0506 59.2413 30.2303C59.6552 30.4026 60.1855 30.4187 60.9874 30.2833C61.7879 30.1482 61.1903 29.4806 60.1576 29.3567C59.684 29.2998 53.2885 29.2995 52.8941 29.3563ZM63.3056 29.391C63.1144 29.4601 63.0996 29.4777 63.0939 29.6485C63.0805 30.0448 63.158 30.0642 64.737 30.0581C66.265 30.0521 66.758 30.0728 66.9522 30.1513L67.1032 30.2123V31.4967C67.1032 33.0719 67.0368 32.9867 68.2616 32.9871C69.4941 32.9875 69.464 33.0241 69.4576 31.5401C69.4502 29.8994 69.2057 30.0747 71.5249 30.0562C73.5131 30.0403 73.3981 30.0613 73.4319 29.7098C73.4544 29.4783 73.449 29.4683 73.2726 29.3937L73.0905 29.3169H68.3008H63.5112L63.3056 29.391ZM75.6958 29.3535C75.3091 29.4216 75.3279 29.3315 75.3249 31.1258L75.3225 32.7797L75.4765 32.8464C75.8132 32.9921 75.6539 32.9872 80.1353 32.9872H84.2871L84.4638 32.8792C84.7962 32.6763 84.7442 32.407 84.3431 32.2558C84.1895 32.1978 84.1791 32.1975 81.1516 32.1897C79.4807 32.1852 78.061 32.1714 77.9966 32.1588C77.6494 32.0907 77.5314 31.8031 77.7618 31.5867C77.9349 31.4241 77.9023 31.4268 79.751 31.4208C81.5242 31.415 81.8059 31.367 81.8059 31.0703C81.8059 30.7609 81.4792 30.7054 79.6517 30.704C77.7601 30.7025 77.5431 30.6575 77.6635 30.2909C77.7443 30.0445 77.576 30.0562 81.06 30.0562C84.6376 30.0562 84.4065 30.0754 84.5752 29.7642C84.6399 29.6448 84.5141 29.4168 84.3548 29.3646C84.164 29.3021 76.0466 29.2917 75.6958 29.3535ZM88.1769 29.3535C87.7637 29.4262 87.7869 29.3276 87.7664 31.1201L87.7476 32.7568L88.0451 32.872C88.5435 33.0649 89.3105 33.0359 89.6543 32.8111C89.7918 32.7212 89.7938 32.7022 89.77 31.817L89.7452 30.9145L90.0393 30.9234C90.3885 30.9341 90.4636 30.9558 90.6407 31.0974C90.7148 31.1565 90.8889 31.2551 91.028 31.3165C91.1672 31.378 91.2809 31.4399 91.2809 31.4543C91.2809 31.4686 91.406 31.5395 91.5586 31.6118C91.7116 31.6841 92.0127 31.8461 92.2284 31.9717C92.8747 32.3482 93.3744 32.5481 93.6159 32.5267C93.8819 32.5031 94.3262 32.3455 94.4882 32.2174C94.5603 32.1601 94.6606 32.107 94.7106 32.0991C94.7609 32.0914 94.9209 32.0117 95.0664 31.9223C95.3368 31.756 95.6343 31.594 95.972 31.4293C96.0763 31.3785 96.2427 31.2804 96.3413 31.2114C96.4402 31.1424 96.5452 31.0861 96.5747 31.0861C96.6042 31.0861 96.7397 31.0385 96.8759 30.9805C97.3971 30.7582 97.4236 30.801 97.4236 31.8651C97.4236 32.7833 97.4296 32.8059 97.7043 32.9279C97.8257 32.9817 97.8981 32.9872 98.469 32.9872C99.0398 32.9872 99.1126 32.9817 99.2336 32.9279C99.517 32.8021 99.5147 32.8181 99.5147 31.1163V29.4794L99.3453 29.398C99.1575 29.3079 98.094 29.2758 97.7787 29.3507C97.6124 29.3903 96.9745 29.6763 96.8188 29.7811C96.7555 29.8235 96.5267 29.9473 96.3104 30.0562C96.0941 30.1651 95.8385 30.3018 95.7429 30.3599C95.647 30.418 95.4877 30.5011 95.3888 30.5448C95.1842 30.6346 94.8055 30.8399 94.4145 31.0726C94.1186 31.249 94.0905 31.2578 93.7584 31.2781C93.473 31.2957 93.4194 31.2832 93.1916 31.1469C92.9247 30.987 92.4098 30.7121 92.2364 30.6372C92.1526 30.6009 92.0295 30.5355 91.9634 30.4919C91.897 30.4484 91.7384 30.3634 91.611 30.3031C91.1548 30.0875 90.91 29.9618 90.6927 29.8317C90.2751 29.5821 89.7693 29.3712 89.5211 29.3433C89.1928 29.3064 88.4103 29.3124 88.1769 29.3535ZM104.495 29.3556C104.038 29.4134 103.79 29.5096 103.522 29.7335L103.278 29.9375L103.275 30.4127L103.272 30.888L103.526 31.0921C103.752 31.2734 103.814 31.3024 104.082 31.3516C104.247 31.382 104.471 31.4269 104.579 31.4512C104.751 31.4899 105.12 31.497 107.585 31.5085C111.01 31.5246 111.015 31.5252 111.015 31.8442C111.015 32.1802 110.835 32.1998 107.847 32.1899L105.406 32.1819L105.239 32.1184C105.147 32.0833 105.053 32.0299 105.03 31.9995C104.904 31.8312 104.647 31.8 103.827 31.8537C103.161 31.8973 102.928 32.039 103.014 32.3482C103.179 32.9376 103.633 32.9936 108.14 32.981C112.206 32.9696 112.291 32.9626 112.835 32.5912L113.008 32.4724V31.8386V31.2049L112.835 31.0861C112.311 30.728 111.892 30.69 108.459 30.69C105.999 30.6899 105.932 30.6885 105.763 30.6349C105.514 30.556 105.39 30.4457 105.433 30.342C105.556 30.0444 105.448 30.0562 108.072 30.0562C110.44 30.0562 110.415 30.0548 110.787 30.2157C111.207 30.3976 112.085 30.419 112.711 30.2626C113.351 30.1027 112.669 29.4646 111.746 29.3598C111.233 29.3017 104.952 29.298 104.495 29.3556Z" fill="#EBEBEB"/>
</svg>
