<svg width="139" height="48" viewBox="0 0 139 48" fill="none" xmlns="http://www.w3.org/2000/svg">
<path d="M6.3 11.4H6.18C6.04667 11.8267 5.88667 12.3 5.7 12.82C5.52667 13.34 5.34667 13.8867 5.16 14.46C4.97333 15.02 4.79333 15.58 4.62 16.14L4.26 17.94C4.18 18.1933 4.1 18.46 4.02 18.74C3.95333 19.02 3.88 19.2933 3.8 19.56C3.72 19.8267 3.64667 20.08 3.58 20.32C3.51333 20.56 3.44667 20.7867 3.38 21C3.23333 21.04 3.06667 21.08 2.88 21.12C2.69333 21.1733 2.47333 21.2 2.22 21.2C1.66 21.2 1.23333 21.1 0.94 20.9C0.646667 20.7 0.5 20.4067 0.5 20.02C0.5 19.86 0.52 19.6933 0.56 19.52C0.613333 19.3467 0.673333 19.1467 0.74 18.92C0.86 18.48 1.02667 17.9267 1.24 17.26C1.46667 16.5933 1.70667 15.8733 1.96 15.1C2.22667 14.3133 2.49333 13.54 2.76 12.78C3.04 12.02 3.29333 11.32 3.52 10.68C3.76 10.04 3.95333 9.54 4.1 9.18C4.28667 9.06 4.58 8.95333 4.98 8.86C5.39333 8.75333 5.8 8.7 6.2 8.7C6.77333 8.7 7.28667 8.78667 7.74 8.96C8.19333 9.12 8.48 9.38 8.6 9.74C8.85333 10.4467 9.12667 11.2667 9.42 12.2C9.72667 13.12 10.0333 14.0867 10.34 15.1C10.6467 16.1133 10.94 17.1 11.22 18.06C11.5133 19.0067 11.7667 19.86 11.98 20.62C11.8333 20.78 11.62 20.9133 11.34 21.02C11.06 21.14 10.7267 21.2 10.34 21.2C9.79333 21.2 9.40667 21.1 9.18 20.9C8.95333 20.7 8.78 20.4 8.66 20L8.02 17.76L7.68 16.06C7.52 15.46 7.35333 14.88 7.18 14.32C7.00667 13.76 6.84667 13.2333 6.7 12.74C6.55333 12.2333 6.42 11.7867 6.3 11.4ZM2.92 18.3L4.1 15.94H8.78L9.18 18.3H2.92ZM19.6456 18.62V12.6H22.6056V19C22.6056 19.32 22.539 19.5933 22.4056 19.82C22.2723 20.0333 22.059 20.2267 21.7656 20.4C21.4056 20.64 20.9323 20.8467 20.3456 21.02C19.7723 21.2067 19.1056 21.3 18.3456 21.3C17.239 21.3 16.279 21.1133 15.4656 20.74C14.6656 20.3667 14.0456 19.8067 13.6056 19.06C13.179 18.3 12.9656 17.36 12.9656 16.24C12.9656 15.0667 13.1856 14.1067 13.6256 13.36C14.079 12.6 14.6856 12.0333 15.4456 11.66C16.2056 11.2867 17.0456 11.1 17.9656 11.1C18.4456 11.1 18.8723 11.1533 19.2456 11.26C19.619 11.3667 19.9256 11.4933 20.1656 11.64V14.08C19.979 13.92 19.7323 13.7733 19.4256 13.64C19.119 13.5067 18.7656 13.44 18.3656 13.44C17.899 13.44 17.4856 13.54 17.1256 13.74C16.7656 13.94 16.4856 14.2467 16.2856 14.66C16.0856 15.0733 15.9856 15.6 15.9856 16.24C15.9856 17.1733 16.1923 17.86 16.6056 18.3C17.0323 18.74 17.6056 18.96 18.3256 18.96C18.619 18.96 18.879 18.9267 19.1056 18.86C19.3323 18.78 19.5123 18.7 19.6456 18.62ZM22.6056 13.18L19.6456 13.2V7.98C19.7656 7.94 19.9456 7.9 20.1856 7.86C20.4256 7.82 20.6856 7.8 20.9656 7.8C21.5523 7.8 21.9723 7.9 22.2256 8.1C22.479 8.3 22.6056 8.66667 22.6056 9.2V13.18ZM28.9086 19.1C29.2153 19.1 29.5153 19.0733 29.8086 19.02C30.1153 18.9533 30.3353 18.88 30.4686 18.8V16.88L28.7886 17.04C28.3353 17.0667 27.9753 17.16 27.7086 17.32C27.4419 17.48 27.3086 17.72 27.3086 18.04C27.3086 18.36 27.4353 18.62 27.6886 18.82C27.9419 19.0067 28.3486 19.1 28.9086 19.1ZM28.7886 11.1C30.1753 11.1 31.2819 11.3933 32.1086 11.98C32.9353 12.5533 33.3486 13.4467 33.3486 14.66V19.2C33.3486 19.5333 33.2619 19.8067 33.0886 20.02C32.9153 20.22 32.6953 20.3933 32.4286 20.54C32.0286 20.78 31.5286 20.9667 30.9286 21.1C30.3419 21.2467 29.6686 21.32 28.9086 21.32C27.5486 21.32 26.4619 21.0533 25.6486 20.52C24.8486 19.9867 24.4486 19.1933 24.4486 18.14C24.4486 17.2333 24.7286 16.54 25.2886 16.06C25.8486 15.5667 26.6819 15.2667 27.7886 15.16L30.4486 14.88V14.64C30.4486 14.1867 30.2686 13.86 29.9086 13.66C29.5619 13.46 29.0619 13.36 28.4086 13.36C27.9019 13.36 27.4019 13.42 26.9086 13.54C26.4286 13.66 25.9953 13.8 25.6086 13.96C25.4486 13.8533 25.3086 13.6933 25.1886 13.48C25.0819 13.2533 25.0286 13.02 25.0286 12.78C25.0286 12.22 25.3353 11.8133 25.9486 11.56C26.3353 11.4 26.7819 11.2867 27.2886 11.22C27.8086 11.14 28.3086 11.1 28.7886 11.1ZM44.3527 14.38V16.66H41.3727V14.76C41.3727 14.3067 41.2393 13.9733 40.9727 13.76C40.706 13.5467 40.3727 13.44 39.9727 13.44C39.6793 13.44 39.4127 13.4867 39.1727 13.58C38.946 13.66 38.7527 13.7467 38.5927 13.84V16.66H35.6327V13.54C35.6327 13.2067 35.6993 12.9333 35.8327 12.72C35.9793 12.4933 36.186 12.2933 36.4527 12.12C36.8927 11.8133 37.4327 11.5667 38.0727 11.38C38.7127 11.1933 39.3793 11.1 40.0727 11.1C40.7127 11.1 41.3127 11.2 41.8727 11.4C42.4327 11.6 42.9193 11.9067 43.3327 12.32C43.4393 12.4 43.5393 12.4867 43.6327 12.58C43.7393 12.66 43.8193 12.7533 43.8727 12.86C44.006 13.0733 44.1193 13.3133 44.2127 13.58C44.306 13.8467 44.3527 14.1133 44.3527 14.38ZM50.0927 14.68V16.66H47.1327V14.76C47.1327 14.3067 47.006 13.9733 46.7527 13.76C46.4993 13.5467 46.166 13.44 45.7527 13.44C45.446 13.44 45.1527 13.5067 44.8727 13.64C44.606 13.76 44.3727 13.9067 44.1727 14.08L42.6127 12.36C43.0527 12.0133 43.5527 11.72 44.1127 11.48C44.6727 11.2267 45.3593 11.1 46.1727 11.1C46.866 11.1 47.5127 11.22 48.1127 11.46C48.7127 11.7 49.1927 12.08 49.5527 12.6C49.9127 13.12 50.0927 13.8133 50.0927 14.68ZM35.6327 15.74H38.5927V20.98C38.4593 21.02 38.2727 21.0533 38.0327 21.08C37.7927 21.12 37.5327 21.14 37.2527 21.14C36.6927 21.14 36.2793 21.04 36.0127 20.84C35.7593 20.64 35.6327 20.28 35.6327 19.76V15.74ZM41.3727 15.74H44.3527V20.98C44.2193 21.02 44.0327 21.0533 43.7927 21.08C43.5527 21.12 43.2927 21.14 43.0127 21.14C42.4393 21.14 42.0193 21.04 41.7527 20.84C41.4993 20.64 41.3727 20.28 41.3727 19.76V15.74ZM47.1327 15.74H50.0927V20.98C49.9727 21.02 49.7927 21.0533 49.5527 21.08C49.3127 21.12 49.0527 21.14 48.7727 21.14C48.1993 21.14 47.7793 21.04 47.5127 20.84C47.2593 20.64 47.1327 20.28 47.1327 19.76V15.74ZM60.3134 18.86C61.0334 18.86 61.5468 18.7333 61.8534 18.48C62.1734 18.2133 62.3334 17.9 62.3334 17.54C62.3334 17.2067 62.2068 16.94 61.9534 16.74C61.7134 16.5267 61.3534 16.3467 60.8734 16.2L59.8134 15.86C59.0934 15.62 58.4534 15.3533 57.8934 15.06C57.3468 14.7667 56.9201 14.3867 56.6134 13.92C56.3201 13.4533 56.1734 12.86 56.1734 12.14C56.1734 11.0333 56.5934 10.1533 57.4334 9.5C58.2734 8.84667 59.4401 8.52 60.9334 8.52C61.6934 8.52 62.3668 8.59333 62.9534 8.74C63.5534 8.88667 64.0201 9.10667 64.3534 9.4C64.7001 9.68 64.8734 10.0267 64.8734 10.44C64.8734 10.7467 64.8001 11.0133 64.6534 11.24C64.5201 11.4533 64.3468 11.64 64.1334 11.8C63.8268 11.5867 63.4201 11.4067 62.9134 11.26C62.4068 11.1 61.8468 11.02 61.2334 11.02C60.5934 11.02 60.1134 11.1267 59.7934 11.34C59.4734 11.54 59.3134 11.8067 59.3134 12.14C59.3134 12.4067 59.4201 12.6267 59.6334 12.8C59.8468 12.96 60.1668 13.1067 60.5934 13.24L61.6934 13.58C62.9068 13.9533 63.8401 14.4533 64.4934 15.08C65.1468 15.6933 65.4734 16.52 65.4734 17.56C65.4734 18.68 65.0401 19.5933 64.1734 20.3C63.3068 20.9933 62.0534 21.34 60.4134 21.34C59.6001 21.34 58.8734 21.2533 58.2334 21.08C57.5934 20.9067 57.0801 20.6533 56.6934 20.32C56.3201 19.9867 56.1334 19.6 56.1334 19.16C56.1334 18.8133 56.2334 18.52 56.4334 18.28C56.6468 18.0267 56.8801 17.84 57.1334 17.72C57.4934 18.0133 57.9401 18.28 58.4734 18.52C59.0201 18.7467 59.6334 18.86 60.3134 18.86ZM68.5217 18.62C68.3084 18.18 68.0751 17.6467 67.8217 17.02C67.5817 16.3933 67.3284 15.6533 67.0617 14.8C66.7951 13.9467 66.5084 12.96 66.2017 11.84C66.3751 11.6667 66.5951 11.52 66.8617 11.4C67.1417 11.2667 67.4417 11.2 67.7617 11.2C68.1751 11.2 68.5151 11.2867 68.7817 11.46C69.0484 11.6333 69.2484 11.96 69.3817 12.44C69.6884 13.4133 69.9951 14.38 70.3017 15.34C70.6084 16.3 70.9217 17.2667 71.2417 18.24H71.3217C71.5484 17.64 71.7751 16.96 72.0017 16.2C72.2417 15.44 72.4617 14.66 72.6617 13.86C72.8617 13.0467 73.0351 12.2667 73.1817 11.52C73.3684 11.4267 73.5684 11.3533 73.7817 11.3C73.9951 11.2333 74.2151 11.2 74.4417 11.2C74.8551 11.2 75.2084 11.2933 75.5017 11.48C75.8084 11.6533 75.9617 11.9533 75.9617 12.38C75.9617 12.7533 75.9017 13.2133 75.7817 13.76C75.6751 14.3067 75.5284 14.9 75.3417 15.54C75.1551 16.1667 74.9351 16.8133 74.6817 17.48C74.4284 18.1333 74.1617 18.7667 73.8817 19.38C73.6151 19.9933 73.3417 20.5467 73.0617 21.04C72.3417 22.2933 71.6751 23.2267 71.0617 23.84C70.4617 24.4667 69.8617 24.78 69.2617 24.78C68.7817 24.78 68.3817 24.6333 68.0617 24.34C67.7551 24.0467 67.5684 23.6733 67.5017 23.22C67.7951 22.98 68.0951 22.7 68.4017 22.38C68.7084 22.0733 69.0017 21.74 69.2817 21.38C69.5617 21.0333 69.8084 20.6867 70.0217 20.34C69.7951 20.2733 69.5617 20.1267 69.3217 19.9C69.0817 19.6733 68.8151 19.2467 68.5217 18.62ZM85.4244 18.2C85.4244 19.1733 85.0577 19.94 84.3244 20.5C83.591 21.0467 82.5244 21.32 81.1244 21.32C80.031 21.32 79.131 21.16 78.4244 20.84C77.7177 20.52 77.3644 20.0467 77.3644 19.42C77.3644 19.14 77.4244 18.9 77.5444 18.7C77.6644 18.4867 77.8177 18.32 78.0044 18.2C78.3777 18.4133 78.811 18.6133 79.3044 18.8C79.811 18.9733 80.3844 19.06 81.0244 19.06C81.9977 19.06 82.4844 18.78 82.4844 18.22C82.4844 17.98 82.3977 17.7933 82.2244 17.66C82.051 17.5133 81.7644 17.4067 81.3644 17.34L80.5244 17.14C79.4577 16.9133 78.6577 16.5667 78.1244 16.1C77.6044 15.62 77.3444 14.9667 77.3444 14.14C77.3444 13.2067 77.7177 12.4667 78.4644 11.92C79.2244 11.36 80.2444 11.08 81.5244 11.08C82.1644 11.08 82.7444 11.1467 83.2644 11.28C83.7977 11.4 84.2177 11.5933 84.5244 11.86C84.831 12.1133 84.9844 12.4333 84.9844 12.82C84.9844 13.0867 84.931 13.32 84.8244 13.52C84.7177 13.72 84.5777 13.8867 84.4044 14.02C84.2577 13.9267 84.031 13.8267 83.7244 13.72C83.431 13.6133 83.1044 13.5267 82.7444 13.46C82.3977 13.3933 82.071 13.36 81.7644 13.36C81.2844 13.36 80.911 13.4267 80.6444 13.56C80.3777 13.68 80.2444 13.8733 80.2444 14.14C80.2444 14.3133 80.3177 14.4667 80.4644 14.6C80.6244 14.72 80.8977 14.82 81.2844 14.9L82.0844 15.1C83.271 15.3667 84.1244 15.7533 84.6444 16.26C85.1644 16.7533 85.4244 17.4 85.4244 18.2ZM87.2933 15.72H90.2333V17.86C90.2333 18.2333 90.3533 18.5067 90.5933 18.68C90.8333 18.8533 91.1733 18.94 91.6133 18.94C91.8133 18.94 92.0266 18.92 92.2533 18.88C92.4933 18.8267 92.6933 18.7667 92.8533 18.7C92.9599 18.82 93.0533 18.9667 93.1333 19.14C93.2266 19.3133 93.2733 19.5133 93.2733 19.74C93.2733 20.1933 93.0866 20.5667 92.7133 20.86C92.3399 21.1533 91.7133 21.3 90.8333 21.3C89.7133 21.3 88.8399 21.0467 88.2133 20.54C87.5999 20.0333 87.2933 19.2067 87.2933 18.06V15.72ZM89.1733 13.9V11.62H93.0133C93.0799 11.7267 93.1466 11.88 93.2133 12.08C93.2799 12.28 93.3133 12.5 93.3133 12.74C93.3133 13.14 93.2199 13.4333 93.0333 13.62C92.8599 13.8067 92.6199 13.9 92.3133 13.9H89.1733ZM90.2333 16.22H87.2933V9.04C87.4266 9 87.6133 8.96 87.8533 8.92C88.0933 8.86667 88.3466 8.84 88.6133 8.84C89.1866 8.84 89.5999 8.94 89.8533 9.14C90.1066 9.34 90.2333 9.70667 90.2333 10.24V16.22ZM96.3486 17.6L96.2286 15.6L101.189 14.82C101.162 14.4467 101.002 14.1 100.709 13.78C100.415 13.46 99.9819 13.3 99.4086 13.3C98.8086 13.3 98.3086 13.5067 97.9086 13.92C97.5086 14.32 97.2953 14.8933 97.2686 15.64L97.3686 17.02C97.4886 17.7533 97.8019 18.28 98.3086 18.6C98.8153 18.9067 99.4153 19.06 100.109 19.06C100.669 19.06 101.195 18.98 101.689 18.82C102.182 18.66 102.582 18.4933 102.889 18.32C103.089 18.44 103.249 18.6067 103.369 18.82C103.502 19.0333 103.569 19.26 103.569 19.5C103.569 19.9 103.409 20.2333 103.089 20.5C102.782 20.7667 102.349 20.9667 101.789 21.1C101.242 21.2333 100.615 21.3 99.9086 21.3C98.8819 21.3 97.9553 21.1067 97.1286 20.72C96.3153 20.3333 95.6753 19.7533 95.2086 18.98C94.7419 18.2067 94.5086 17.24 94.5086 16.08C94.5086 15.2267 94.6419 14.4867 94.9086 13.86C95.1886 13.2333 95.5553 12.72 96.0086 12.32C96.4753 11.9067 96.9953 11.6 97.5686 11.4C98.1553 11.2 98.7619 11.1 99.3886 11.1C100.309 11.1 101.109 11.2867 101.789 11.66C102.482 12.02 103.022 12.5133 103.409 13.14C103.795 13.7667 103.989 14.4933 103.989 15.32C103.989 15.7333 103.875 16.0467 103.649 16.26C103.422 16.4733 103.109 16.6067 102.709 16.66L96.3486 17.6ZM114.528 14.38V16.66H111.548V14.76C111.548 14.3067 111.415 13.9733 111.148 13.76C110.882 13.5467 110.548 13.44 110.148 13.44C109.855 13.44 109.588 13.4867 109.348 13.58C109.122 13.66 108.928 13.7467 108.768 13.84V16.66H105.808V13.54C105.808 13.2067 105.875 12.9333 106.008 12.72C106.155 12.4933 106.362 12.2933 106.628 12.12C107.068 11.8133 107.608 11.5667 108.248 11.38C108.888 11.1933 109.555 11.1 110.248 11.1C110.888 11.1 111.488 11.2 112.048 11.4C112.608 11.6 113.095 11.9067 113.508 12.32C113.615 12.4 113.715 12.4867 113.808 12.58C113.915 12.66 113.995 12.7533 114.048 12.86C114.182 13.0733 114.295 13.3133 114.388 13.58C114.482 13.8467 114.528 14.1133 114.528 14.38ZM120.268 14.68V16.66H117.308V14.76C117.308 14.3067 117.182 13.9733 116.928 13.76C116.675 13.5467 116.342 13.44 115.928 13.44C115.622 13.44 115.328 13.5067 115.048 13.64C114.782 13.76 114.548 13.9067 114.348 14.08L112.788 12.36C113.228 12.0133 113.728 11.72 114.288 11.48C114.848 11.2267 115.535 11.1 116.348 11.1C117.042 11.1 117.688 11.22 118.288 11.46C118.888 11.7 119.368 12.08 119.728 12.6C120.088 13.12 120.268 13.8133 120.268 14.68ZM105.808 15.74H108.768V20.98C108.635 21.02 108.448 21.0533 108.208 21.08C107.968 21.12 107.708 21.14 107.428 21.14C106.868 21.14 106.455 21.04 106.188 20.84C105.935 20.64 105.808 20.28 105.808 19.76V15.74ZM111.548 15.74H114.528V20.98C114.395 21.02 114.208 21.0533 113.968 21.08C113.728 21.12 113.468 21.14 113.188 21.14C112.615 21.14 112.195 21.04 111.928 20.84C111.675 20.64 111.548 20.28 111.548 19.76V15.74ZM117.308 15.74H120.268V20.98C120.148 21.02 119.968 21.0533 119.728 21.08C119.488 21.12 119.228 21.14 118.948 21.14C118.375 21.14 117.955 21.04 117.688 20.84C117.435 20.64 117.308 20.28 117.308 19.76V15.74ZM130.385 18.2C130.385 19.1733 130.019 19.94 129.285 20.5C128.552 21.0467 127.485 21.32 126.085 21.32C124.992 21.32 124.092 21.16 123.385 20.84C122.679 20.52 122.325 20.0467 122.325 19.42C122.325 19.14 122.385 18.9 122.505 18.7C122.625 18.4867 122.779 18.32 122.965 18.2C123.339 18.4133 123.772 18.6133 124.265 18.8C124.772 18.9733 125.345 19.06 125.985 19.06C126.959 19.06 127.445 18.78 127.445 18.22C127.445 17.98 127.359 17.7933 127.185 17.66C127.012 17.5133 126.725 17.4067 126.325 17.34L125.485 17.14C124.419 16.9133 123.619 16.5667 123.085 16.1C122.565 15.62 122.305 14.9667 122.305 14.14C122.305 13.2067 122.679 12.4667 123.425 11.92C124.185 11.36 125.205 11.08 126.485 11.08C127.125 11.08 127.705 11.1467 128.225 11.28C128.759 11.4 129.179 11.5933 129.485 11.86C129.792 12.1133 129.945 12.4333 129.945 12.82C129.945 13.0867 129.892 13.32 129.785 13.52C129.679 13.72 129.539 13.8867 129.365 14.02C129.219 13.9267 128.992 13.8267 128.685 13.72C128.392 13.6133 128.065 13.5267 127.705 13.46C127.359 13.3933 127.032 13.36 126.725 13.36C126.245 13.36 125.872 13.4267 125.605 13.56C125.339 13.68 125.205 13.8733 125.205 14.14C125.205 14.3133 125.279 14.4667 125.425 14.6C125.585 14.72 125.859 14.82 126.245 14.9L127.045 15.1C128.232 15.3667 129.085 15.7533 129.605 16.26C130.125 16.7533 130.385 17.4 130.385 18.2Z" fill="#F0F2F5"/>
<path opacity="0.6" d="M1.05 34.324C1.086 34.324 1.192 34.324 1.368 34.324C1.544 34.324 1.752 34.324 1.992 34.324C2.236 34.324 2.482 34.326 2.73 34.33C2.982 34.33 3.2 34.332 3.384 34.336C4.44 34.356 5.298 34.538 5.958 34.882C6.622 35.222 7.108 35.708 7.416 36.34C7.728 36.968 7.884 37.726 7.884 38.614C7.884 39.542 7.718 40.332 7.386 40.984C7.058 41.636 6.554 42.136 5.874 42.484C5.198 42.828 4.338 43 3.294 43H1.05V34.324ZM2.532 35.53V41.794H3.318C3.914 41.794 4.44 41.692 4.896 41.488C5.352 41.28 5.708 40.944 5.964 40.48C6.224 40.016 6.354 39.396 6.354 38.62C6.354 37.868 6.234 37.266 5.994 36.814C5.754 36.362 5.41 36.036 4.962 35.836C4.514 35.632 3.978 35.53 3.354 35.53H2.532ZM11.5461 43V34.324H13.6341L15.9081 40.954L18.2061 34.324H20.2821V43H18.8001V36.196L16.5141 43H15.2961L13.0281 36.238V43H11.5461ZM27.5059 43.12C27.0859 43.12 26.6759 43.068 26.2759 42.964C25.8759 42.856 25.5119 42.698 25.1839 42.49C24.8599 42.278 24.5899 42.016 24.3739 41.704C24.1579 41.388 24.0259 41.02 23.9779 40.6H25.4899C25.5539 40.892 25.6799 41.138 25.8679 41.338C26.0559 41.538 26.2899 41.69 26.5699 41.794C26.8539 41.898 27.1639 41.95 27.4999 41.95C27.8599 41.95 28.1839 41.902 28.4719 41.806C28.7639 41.71 28.9939 41.57 29.1619 41.386C29.3339 41.202 29.4199 40.976 29.4199 40.708C29.4199 40.472 29.3579 40.272 29.2339 40.108C29.1099 39.944 28.9359 39.81 28.7119 39.706C28.4919 39.598 28.2339 39.512 27.9379 39.448L26.3419 39.1C25.6979 38.968 25.1879 38.712 24.8119 38.332C24.4359 37.952 24.2439 37.446 24.2359 36.814C24.2319 36.29 24.3699 35.834 24.6499 35.446C24.9339 35.054 25.3199 34.752 25.8079 34.54C26.2959 34.324 26.8479 34.216 27.4639 34.216C28.1839 34.216 28.7899 34.334 29.2819 34.57C29.7779 34.802 30.1519 35.114 30.4039 35.506C30.6599 35.898 30.7899 36.328 30.7939 36.796H29.3179C29.2819 36.452 29.1779 36.178 29.0059 35.974C28.8379 35.77 28.6219 35.624 28.3579 35.536C28.0939 35.448 27.8019 35.404 27.4819 35.404C27.2419 35.404 27.0179 35.432 26.8099 35.488C26.6019 35.544 26.4199 35.626 26.2639 35.734C26.1079 35.842 25.9859 35.974 25.8979 36.13C25.8139 36.282 25.7719 36.456 25.7719 36.652C25.7719 36.932 25.8639 37.16 26.0479 37.336C26.2359 37.508 26.5859 37.654 27.0979 37.774L28.6579 38.122C29.1419 38.218 29.5319 38.362 29.8279 38.554C30.1239 38.746 30.3499 38.966 30.5059 39.214C30.6619 39.458 30.7659 39.708 30.8179 39.964C30.8699 40.22 30.8959 40.464 30.8959 40.696C30.8959 41.148 30.7559 41.558 30.4759 41.926C30.1999 42.294 29.8079 42.586 29.2999 42.802C28.7959 43.014 28.1979 43.12 27.5059 43.12Z" fill="#E5E8EF"/>
</svg>
