<svg width="25" height="24" viewBox="0 0 25 24" fill="none" xmlns="http://www.w3.org/2000/svg">
<path d="M7.50739 12C7.50739 11.5858 7.84317 11.25 8.25739 11.25H11.75V7.75735C11.75 7.34314 12.0858 7.00735 12.5 7.00735C12.9142 7.00735 13.25 7.34314 13.25 7.75735V11.25H16.7427C17.1569 11.25 17.4927 11.5858 17.4927 12C17.4927 12.4142 17.1569 12.75 16.7427 12.75H13.25V16.2426C13.25 16.6569 12.9142 16.9926 12.5 16.9926C12.0858 16.9926 11.75 16.6569 11.75 16.2426V12.75H8.25739C7.84317 12.75 7.50739 12.4142 7.50739 12Z" fill="white"/>
<path fillRule="evenodd" clipRule="evenodd" d="M7.81673 3.76876C10.9043 3.42368 14.0957 3.42368 17.1832 3.76876C19.0096 3.97288 20.4845 5.41153 20.6994 7.24849C21.0686 10.4054 21.0686 13.5946 20.6994 16.7515C20.4845 18.5885 19.0096 20.0271 17.1832 20.2313C14.0957 20.5763 10.9043 20.5763 7.81673 20.2313C5.99035 20.0271 4.51545 18.5885 4.3006 16.7515C3.93137 13.5946 3.93137 10.4054 4.3006 7.24849C4.51545 5.41153 5.99035 3.97288 7.81673 3.76876ZM17.0166 5.25948C14.0398 4.92677 10.9602 4.92677 7.98334 5.25948C6.83891 5.38738 5.92286 6.29063 5.79045 7.42274C5.43476 10.4639 5.43476 13.5361 5.79045 16.5773C5.92286 17.7094 6.83891 18.6126 7.98334 18.7405C10.9602 19.0732 14.0398 19.0732 17.0166 18.7405C18.1611 18.6126 19.0771 17.7094 19.2095 16.5773C19.5652 13.5361 19.5652 10.4639 19.2095 7.42274C19.0771 6.29063 18.1611 5.38738 17.0166 5.25948Z" fill="white"/>
</svg>
