<svg width="24" height="25" viewBox="0 0 24 25" fill="none" xmlns="http://www.w3.org/2000/svg">
<path d="M12.0003 8.75C10.0156 8.75 8.40658 10.4289 8.40658 12.5C8.40658 14.5711 10.0156 16.25 12.0003 16.25C13.9851 16.25 15.5941 14.5711 15.5941 12.5C15.5941 10.4289 13.9851 8.75 12.0003 8.75Z" fill="#E5E8EF"/>
<path fill-rule="evenodd" clip-rule="evenodd" d="M12.0003 1.75C12.3973 1.75 12.7191 2.08579 12.7191 2.5V3.78169C16.7768 4.14113 20.0109 7.51581 20.3554 11.75H21.5837C21.9806 11.75 22.3024 12.0858 22.3024 12.5C22.3024 12.9142 21.9806 13.25 21.5837 13.25H20.3554C20.0109 17.4842 16.7768 20.8589 12.7191 21.2183V22.5C12.7191 22.9142 12.3973 23.25 12.0003 23.25C11.6034 23.25 11.2816 22.9142 11.2816 22.5V21.2183C7.22381 20.8589 3.98974 17.4842 3.64528 13.25H2.41699C2.02004 13.25 1.69824 12.9142 1.69824 12.5C1.69824 12.0858 2.02004 11.75 2.41699 11.75H3.64528C3.98974 7.51581 7.22381 4.14113 11.2816 3.78169V2.5C11.2816 2.08579 11.6034 1.75 12.0003 1.75ZM5.05241 12.5C5.05241 16.5041 8.1631 19.75 12.0003 19.75C15.8376 19.75 18.9482 16.5041 18.9482 12.5C18.9482 8.49594 15.8376 5.25 12.0003 5.25C8.1631 5.25 5.05241 8.49594 5.05241 12.5Z" fill="#E5E8EF"/>
</svg>
