<svg width="118" height="48" viewBox="0 0 118 48" fill="none" xmlns="http://www.w3.org/2000/svg">
<path d="M11.1499 15.5288C7.43151 20.4143 3.7391 25.2645 0.0103196 30.1633C-0.0182634 29.6981 0.0194142 29.2927 0.0402019 28.8883C0.216897 25.544 0.68332 22.2351 1.70971 18.9946C1.98774 18.1185 2.31645 17.2556 2.72311 16.4149C2.78677 16.2823 2.88031 16.2182 3.04532 16.1906C4.51864 15.9497 6.00366 15.7851 7.49907 15.6802C8.6333 15.6006 9.76882 15.5388 10.9082 15.5288C10.9745 15.5288 11.0408 15.5288 11.1499 15.5288Z" fill="white"/>
<path d="M13.8828 15.5244C14.6649 15.5587 15.4094 15.583 16.1539 15.6238C17.101 15.6758 18.0468 15.7476 18.9901 15.836C19.9177 15.9233 20.8428 16.0315 21.7652 16.1497C21.9094 16.1685 21.9172 16.2425 21.9237 16.3387C21.9848 17.1949 21.9757 18.0533 21.9536 18.9096C21.9159 20.3613 21.7873 21.8086 21.6002 23.2515C21.3573 25.1397 21 27.0101 20.4595 28.8541C20.3348 29.2783 20.1932 29.6982 20.0152 30.118C17.9767 25.2667 15.9369 20.4132 13.8828 15.5244Z" fill="white"/>
<path d="M10.9764 24.9584C11.335 25.8102 11.6806 26.6278 12.0236 27.4442C12.7525 29.1755 13.48 30.9078 14.2076 32.6391C14.2946 32.8446 14.2933 32.8391 14.0205 32.8578C12.4342 32.9672 10.8439 33.0125 9.25234 32.9971C7.90374 32.9849 6.55514 32.933 5.20914 32.8512C4.98438 32.838 4.98048 32.8313 5.1182 32.6524C6.68507 30.5941 8.25323 28.5358 9.8201 26.4775C10.1956 25.9837 10.5711 25.4898 10.9751 24.9573L10.9764 24.9584Z" fill="white"/>
<path d="M48.4745 30.7168C47.9509 31.1135 47.4416 31.4184 46.8699 31.6427C45.5473 32.162 44.2 32.2061 42.8644 31.7156C41.5483 31.2328 40.8844 30.3213 40.6973 29.1403C40.5661 28.3139 40.7441 27.5085 40.9481 26.7052C41.4197 24.848 41.8965 22.9919 42.3642 21.1336C42.3993 20.9933 42.4552 20.9469 42.6267 20.9491C43.5933 20.9569 44.5586 20.9558 45.5252 20.9491C45.6954 20.9491 45.7435 20.9734 45.7058 21.1314C45.2303 23.077 44.7613 25.0237 44.2988 26.9726C44.1961 27.4057 44.1377 27.8443 44.1403 28.2873C44.1455 29.3038 44.9822 29.9357 46.1775 29.844C47.3896 29.7512 48.177 29.1712 48.7252 28.3006C49.1891 27.5626 49.406 26.7583 49.6061 25.9484C50.0037 24.3453 50.4077 22.7434 50.8001 21.1392C50.8365 20.9911 50.9014 20.9469 51.0794 20.948C52.0383 20.9558 52.9971 20.9558 53.9546 20.948C54.1378 20.9469 54.1833 20.9801 54.1417 21.1392C53.5571 23.4195 52.9763 25.7021 52.4008 27.9846C52.0954 29.1977 51.755 30.4042 51.5368 31.6316C51.5134 31.7653 51.4536 31.7929 51.3068 31.7918C50.3558 31.7863 49.4047 31.7863 48.4537 31.7918C48.2913 31.7918 48.2471 31.7642 48.2848 31.6195C48.3576 31.34 48.4043 31.056 48.4732 30.7157L48.4745 30.7168Z" fill="white"/>
<path d="M61.7775 17.745C61.6541 18.2355 61.5333 18.7161 61.4124 19.1956C61.276 19.7337 61.1461 20.2728 61.0006 20.8087C60.9642 20.9412 61.0136 20.9567 61.15 20.9556C62.0023 20.9512 62.8559 20.9567 63.7082 20.9501C63.8888 20.949 63.9394 20.9733 63.8927 21.1401C63.7354 21.7069 63.599 22.277 63.4626 22.8482C63.4327 22.973 63.3795 23.026 63.2119 23.0249C62.3518 23.0161 61.4917 23.0238 60.6316 23.0183C60.4913 23.0183 60.4328 23.0548 60.4029 23.1697C59.9872 24.8147 59.5649 26.4587 59.1531 28.1049C59.0816 28.3922 59.0504 28.6894 59.0998 28.9832C59.1869 29.5047 59.6481 29.8395 60.2899 29.8505C60.7992 29.8583 61.2968 29.7898 61.7788 29.6483C61.9165 29.6075 61.9555 29.6163 61.9204 29.7478C61.7502 30.3842 61.5878 31.0227 61.4202 31.6591C61.4033 31.7254 61.3955 31.7928 61.2864 31.8171C60.2223 32.0546 59.1557 32.1419 58.0734 31.9022C56.6118 31.5785 55.7972 30.7034 55.7569 29.4185C55.7283 28.5137 55.9258 27.6354 56.1519 26.7592C56.4559 25.5782 56.7573 24.396 57.0678 23.2161C57.112 23.0481 57.0639 23.0139 56.8703 23.0172C56.2441 23.0271 55.6179 23.0205 54.9916 23.0216C54.8054 23.0216 54.7314 22.9476 54.7695 22.7996C54.9085 22.2494 55.0553 21.6992 55.18 21.1467C55.2164 20.9832 55.2957 20.9468 55.4776 20.9501C56.1116 20.96 56.7456 20.9479 57.3783 20.9567C57.5641 20.9589 57.6512 20.928 57.6901 20.7523C57.8305 20.1303 58.0007 19.5138 58.1579 18.894C58.1826 18.799 58.202 18.7183 58.3411 18.6797C59.4584 18.3759 60.5731 18.0632 61.6879 17.7538C61.7074 17.7483 61.7294 17.7494 61.7775 17.7439V17.745Z" fill="white"/>
<path d="M39.7247 31.6415C39.6766 31.4747 39.6507 31.3023 39.6143 31.1333C39.2609 29.4816 38.9088 27.8288 38.5541 26.1771C38.1825 24.4436 37.8097 22.709 37.4381 20.9756C37.1756 19.7503 36.9119 18.5251 36.6572 17.2987C36.6248 17.1385 36.5494 17.101 36.3662 17.1021C35.2346 17.1098 34.103 17.1087 32.9713 17.1032C32.818 17.1032 32.731 17.1396 32.6491 17.2545C29.5336 21.6307 26.4128 26.0047 23.2934 30.3787C22.966 30.8372 22.6399 31.2957 22.2969 31.7763C22.3592 31.7851 22.3813 31.7907 22.4034 31.7907C23.5961 31.7907 24.7875 31.7885 25.9802 31.794C26.1218 31.794 26.1764 31.7365 26.2348 31.6481C26.9 30.6295 27.5678 29.6131 28.2304 28.5933C28.3032 28.4817 28.3747 28.4276 28.5397 28.4287C30.8484 28.4342 33.1571 28.4342 35.4658 28.4287C35.6334 28.4287 35.6958 28.4641 35.7205 28.6121C35.8907 29.6252 36.0765 30.635 36.2506 31.647C36.2675 31.7465 36.2948 31.7929 36.426 31.7918C37.4822 31.7885 38.5385 31.7885 39.5948 31.7918C39.739 31.7918 39.7546 31.7487 39.7247 31.6404V31.6415ZM35.0059 26.1108C34.1913 26.1053 33.3754 26.1075 32.5608 26.1075C31.7462 26.1075 30.9302 26.1075 30.1156 26.1075C29.8805 26.1075 29.8805 26.1064 29.9974 25.9274C31.3122 23.9067 32.6283 21.8848 33.9445 19.8641C33.9782 19.8111 33.9912 19.7205 34.0848 19.7349C34.164 19.7481 34.1367 19.8321 34.1458 19.8851C34.3693 21.1822 34.5915 22.4792 34.8123 23.7763C34.9358 24.4977 35.0527 25.2203 35.1839 25.9406C35.2099 26.0843 35.1644 26.1108 35.0059 26.1097V26.1108Z" fill="white"/>
<path d="M76.2093 24.6083C76.0067 23.2858 75.2752 22.2131 73.9279 21.4828C72.8651 20.9072 71.6828 20.6984 70.4369 20.7138C70.2563 20.7138 70.0744 20.7083 69.8938 20.716C69.7132 20.7238 69.5326 20.7403 69.3546 20.7602C67.4343 20.9823 65.822 21.7015 64.5929 22.9743C63.0741 24.5464 62.5921 26.3683 63.0209 28.3448C63.4093 30.1379 64.6475 31.3367 66.7444 31.8383C67.8735 32.1078 69.022 32.1134 70.1731 31.9377C72.4377 31.5919 74.1747 30.5964 75.2947 28.8807C76.1639 27.5505 76.4393 26.1087 76.2093 24.6094V24.6083ZM71.5152 28.7403C70.6655 29.6673 69.3247 30.0584 68.0762 29.7524C67.2343 29.5458 66.6938 29.0607 66.5262 28.3592C66.0935 26.5418 66.5418 24.9022 68.1502 23.5897C68.9596 22.929 69.9886 22.7577 71.0787 22.9765C72.0271 23.1676 72.4922 23.751 72.6936 24.5188C72.7755 24.8326 72.8002 25.1508 72.8041 25.4723C72.7638 26.6721 72.3961 27.7792 71.5139 28.7403H71.5152Z" fill="white"/>
<path d="M103.814 22.2018C103.36 22.2018 102.908 22.2074 102.455 22.1985C102.301 22.1952 102.247 22.2427 102.217 22.3632C101.708 24.3938 101.193 26.4245 100.68 28.454C100.415 29.5036 100.149 30.5532 99.89 31.6039C99.8549 31.7486 99.7912 31.8016 99.6106 31.795C99.2118 31.7817 98.8103 31.7851 98.4114 31.7939C98.2464 31.7972 98.188 31.7751 98.2282 31.6182C98.6024 30.1654 98.9688 28.7103 99.3378 27.2564C99.7509 25.6279 100.163 23.9983 100.579 22.3709C100.614 22.235 100.575 22.1985 100.407 22.1996C99.6379 22.2074 98.8675 22.1996 98.097 22.2052C97.9385 22.2052 97.8839 22.1853 97.9385 22.0339C98.0321 21.7721 98.1074 21.5036 98.1633 21.234C98.1945 21.0805 98.2802 21.0573 98.4387 21.0584C99.1858 21.0639 99.9328 21.0573 100.68 21.0639C100.847 21.065 100.923 21.0396 100.964 20.8783C101.201 19.9491 101.392 19.0089 101.804 18.1184C102.125 17.4246 102.544 16.7871 103.259 16.3231C103.81 15.9662 104.439 15.7895 105.126 15.7652C105.731 15.7442 106.332 15.7696 106.916 15.9243C107.059 15.9618 107.129 15.9994 107.068 16.1496C106.956 16.4269 106.873 16.7131 106.786 16.997C106.756 17.0943 106.716 17.1097 106.602 17.0722C106.091 16.902 105.56 16.8578 105.024 16.9451C104.245 17.0722 103.799 17.5384 103.486 18.1118C103.08 18.8553 102.915 19.6574 102.713 20.4507C102.675 20.601 102.653 20.7545 102.6 20.9004C102.549 21.0385 102.604 21.065 102.755 21.0639C103.653 21.0595 104.552 21.0617 105.449 21.0617C105.623 21.0617 105.688 21.1335 105.647 21.2771C105.575 21.5257 105.488 21.771 105.436 22.0218C105.404 22.1775 105.319 22.2118 105.149 22.2074C104.704 22.1974 104.259 22.2041 103.814 22.2041V22.2018Z" fill="white"/>
<path d="M78.6756 32.0469C77.8129 32.0403 76.6774 31.8823 75.5834 31.5188C75.447 31.4735 75.395 31.436 75.4483 31.3023C75.5847 30.9576 75.7043 30.6073 75.8186 30.2571C75.8589 30.1334 75.8991 30.1289 76.0278 30.193C76.7449 30.5455 77.5076 30.8029 78.3378 30.8725C79.2914 30.9531 80.2165 30.8559 81.0948 30.5068C82.6136 29.9025 82.9319 28.2585 81.5664 27.3194C80.9882 26.9217 80.3334 26.63 79.6981 26.3107C79.1576 26.04 78.6301 25.755 78.1923 25.3672C77.0321 24.3386 77.2997 22.6825 78.5301 21.8141C79.372 21.2208 80.3594 20.939 81.4287 20.8396C82.7188 20.7203 83.9661 20.8827 85.1821 21.2572C85.3406 21.3058 85.3952 21.3534 85.325 21.5025C85.1834 21.7986 85.06 22.1013 84.9444 22.4051C84.8911 22.5455 84.843 22.5775 84.6702 22.5013C83.6023 22.0306 82.4667 21.8549 81.2727 22.0008C80.6361 22.0781 80.0411 22.2461 79.5799 22.6604C78.9432 23.2327 78.9458 24.1242 79.5967 24.6855C79.9761 25.0125 80.4399 25.2434 80.8986 25.4765C81.4741 25.7693 82.0497 26.0599 82.6045 26.3825C85.1263 27.853 84.3389 30.6803 81.9496 31.5553C81.0857 31.8724 80.1359 32.0469 78.673 32.0469H78.6756Z" fill="white"/>
<path d="M111.499 30.6051C111.448 30.9884 111.402 31.3376 111.357 31.6856C111.35 31.7475 111.303 31.7718 111.244 31.7916C110.117 32.1684 109.005 32.1828 107.952 31.6226C107.343 31.2989 107.044 30.7907 107.015 30.1863C106.979 29.3876 107.164 28.6076 107.357 27.832C107.812 26.0013 108.281 24.1739 108.752 22.3465C108.788 22.2084 108.736 22.1985 108.603 22.1996C107.894 22.2029 107.184 22.1963 106.475 22.204C106.289 22.2062 106.262 22.1653 106.315 22.0184C106.411 21.7566 106.488 21.4892 106.555 21.2207C106.589 21.0881 106.659 21.0528 106.817 21.0539C107.496 21.0616 108.174 21.0517 108.854 21.0616C109.029 21.0638 109.101 21.0241 109.136 20.8738C109.294 20.191 109.472 19.5105 109.633 18.8277C109.665 18.6973 109.732 18.6365 109.88 18.5957C110.395 18.4531 110.903 18.2952 111.412 18.1438C111.482 18.1979 111.443 18.2543 111.429 18.3062C111.204 19.1669 110.983 20.0275 110.748 20.886C110.708 21.0318 110.742 21.0605 110.908 21.0594C111.867 21.055 112.824 21.0605 113.783 21.0539C113.964 21.0528 114.001 21.0859 113.951 21.2362C113.858 21.5058 113.783 21.7798 113.719 22.056C113.691 22.1808 113.622 22.204 113.488 22.2029C112.545 22.1985 111.602 22.2029 110.658 22.1985C110.504 22.1985 110.425 22.2173 110.386 22.3708C109.875 24.4468 109.345 26.5194 108.84 28.5965C108.729 29.0517 108.662 29.5201 108.772 29.9875C108.904 30.5487 109.37 30.8735 110.04 30.8956C110.542 30.9122 111.012 30.8238 111.498 30.604L111.499 30.6051Z" fill="white"/>
<path d="M97.2307 24.2712C97.0644 23.4768 96.7292 22.7443 96.099 22.1278C95.2506 21.297 94.1489 20.9026 92.8809 20.8275C90.4721 20.685 88.444 21.3556 86.9564 22.9907C85.4441 24.6513 84.9958 26.5626 85.4324 28.6087C85.6753 29.75 86.3522 30.699 87.5137 31.3597C88.5908 31.9718 89.79 32.1232 91.0567 32.0171C92.8614 31.8668 94.3594 31.2172 95.5118 30.0306C96.8006 28.7059 97.3151 27.1504 97.3372 25.4578C97.345 25.0589 97.3125 24.6645 97.2307 24.2723V24.2712ZM95.6157 25.4324C95.5884 26.9349 95.1051 28.3093 93.9631 29.4782C93.0822 30.3798 91.9584 30.8957 90.5474 30.8957C88.9091 30.8957 87.6398 30.077 87.1863 28.738C86.9317 27.9823 86.9655 27.2189 87.0928 26.4543C87.2669 25.4147 87.645 24.4347 88.3881 23.5807C89.4262 22.3853 90.8307 21.8483 92.5716 21.9699C94.0203 22.0704 95.0194 22.8106 95.4182 24.0469C95.4741 24.2193 95.5196 24.3949 95.5508 24.5706C95.6014 24.8556 95.6248 25.1429 95.6157 25.4335V25.4324Z" fill="white"/>
<path fill-rule="evenodd" clip-rule="evenodd" d="M116.208 16.7865L116.805 17.6216H116.497L115.96 16.7768H115.583V17.6216H115.283V15.7865H116.054C116.335 15.7865 116.535 15.8229 116.664 15.9028C116.788 15.9795 116.858 16.1044 116.858 16.3108C116.858 16.4716 116.797 16.5787 116.705 16.6498C116.61 16.7224 116.475 16.7633 116.315 16.7771L116.208 16.7865ZM116.054 15.9612H115.616V16.5729H116.087C116.204 16.5729 116.329 16.5664 116.426 16.5224C116.476 16.4994 116.519 16.4662 116.549 16.4196C116.578 16.3735 116.592 16.3178 116.592 16.2525C116.592 16.1898 116.571 16.137 116.533 16.0946C116.495 16.0529 116.444 16.0248 116.39 16.0058C116.285 15.9683 116.156 15.9612 116.054 15.9612Z" fill="white"/>
<path fill-rule="evenodd" clip-rule="evenodd" d="M116.02 18.3789C114.98 18.3789 114.041 17.7316 114.041 16.6895C114.041 15.6777 114.978 15.0287 116.021 15C117.061 15.0005 117.999 15.6762 117.999 16.6895C117.999 17.7031 117.06 18.3789 116.02 18.3789ZM117.599 16.6895C117.599 17.5051 116.901 18.1161 116.022 18.1168C115.139 18.1467 114.442 17.5327 114.442 16.6895C114.442 15.8734 115.14 15.2622 116.02 15.2622C116.9 15.2622 117.599 15.8734 117.599 16.6895Z" fill="white"/>
</svg>
