<svg width="118" height="48" viewBox="0 0 118 48" fill="none" xmlns="http://www.w3.org/2000/svg">
<path fill-rule="evenodd" clip-rule="evenodd" d="M12.3761 15.0551C12.3395 15.0929 12.1525 15.1178 11.6391 15.1528C11.2604 15.1787 10.818 15.2279 10.6558 15.2621C10.4936 15.2961 10.2615 15.3337 10.1397 15.3453C9.85977 15.3724 9.18556 15.5101 8.95995 15.5863C8.86527 15.6184 8.71073 15.6556 8.61606 15.6688C8.38248 15.7017 7.45258 15.9905 6.97656 16.178C6.87246 16.2188 6.69167 16.2889 6.57458 16.3334C5.0504 16.9142 3.45779 17.9046 2.45622 18.8944C2.4111 18.939 2.29342 19.0557 2.19521 19.1537C2.09671 19.2517 1.97638 19.3702 1.92772 19.4168C1.87935 19.4635 1.80444 19.5511 1.76138 19.6114C1.71861 19.6716 1.65284 19.7576 1.61509 19.8022C1.38092 20.0801 1.05119 20.5487 1.0217 20.6449C1.00283 20.7074 0.953278 20.7937 0.911693 20.8369C0.825869 20.9264 0.505579 21.5951 0.505579 21.6853C0.505579 21.718 0.46193 21.8174 0.408843 21.9063C0.355756 21.9952 0.285564 22.2317 0.252532 22.432C0.207998 22.7032 0.169658 22.8113 0.103299 22.8553C-0.0350215 22.9463 -0.0341367 25.0543 0.104184 25.1455C0.172017 25.1902 0.207998 25.2933 0.249583 25.5621C0.27996 25.7588 0.346614 25.9908 0.397931 26.0781C0.449543 26.1655 0.505284 26.2952 0.52239 26.3666C0.550408 26.4839 0.715567 26.825 0.989259 27.3309C1.045 27.4334 1.15973 27.6085 1.24437 27.7199C1.32931 27.8314 1.43047 27.9664 1.46969 28.0199C1.50892 28.0733 1.57292 28.1535 1.61185 28.198C1.65078 28.2428 1.72451 28.3377 1.77553 28.4093C1.82656 28.4808 1.90471 28.5592 1.94895 28.5833C1.99319 28.6076 2.02946 28.6438 2.02976 28.664C2.03035 28.7031 2.54382 29.2071 2.85113 29.4701C3.36725 29.9118 4.08274 30.384 4.95396 30.858C5.75409 31.2933 5.78447 31.3085 6.22362 31.4907C6.43537 31.5787 6.67869 31.6817 6.76422 31.7199C7.04676 31.8457 8.38897 32.2723 8.788 32.3631C9.69756 32.57 9.90843 32.6128 10.2379 32.6568C10.4408 32.684 10.7083 32.728 10.8324 32.7546C10.9566 32.7813 11.3217 32.8237 11.6435 32.8486C12.2558 32.896 12.4009 32.9188 12.4009 32.9668C12.4009 33.023 14.7166 33.0024 14.8125 32.9454C14.8694 32.9114 15.1115 32.8795 15.5536 32.8476C15.9149 32.8217 16.2898 32.7797 16.3865 32.7546C16.4835 32.7293 16.7047 32.6922 16.8781 32.6718C17.3282 32.619 18.4601 32.3748 18.963 32.2221C19.0981 32.1808 19.3192 32.1137 19.4546 32.0727C19.5897 32.0317 19.7333 31.9893 19.774 31.9784C19.8144 31.9677 19.9584 31.9157 20.0934 31.8632C20.2288 31.8107 20.4388 31.731 20.5606 31.686C20.6821 31.6411 20.9366 31.5306 21.1257 31.4406C21.315 31.3505 21.5333 31.2515 21.6108 31.2206C22.2594 30.9613 24.2852 29.657 24.5427 29.3327C24.5781 29.2882 24.668 29.2005 24.7424 29.1382C25.1464 28.7994 26.1963 27.5001 26.3143 27.1932C26.345 27.1129 26.3931 27.0289 26.4211 27.0065C26.4733 26.9645 26.598 26.69 26.7346 26.318C26.7771 26.202 26.8561 25.9978 26.9101 25.864C26.9643 25.7304 27.0493 25.3583 27.0994 25.0374C27.1493 24.7164 27.205 24.3591 27.2233 24.2432C27.2427 24.1176 27.225 23.8363 27.179 23.5463C27.1366 23.2789 27.0764 22.8926 27.0454 22.688C27.0142 22.4836 26.9667 22.2793 26.9393 22.2342C26.9121 22.1891 26.8393 22.0064 26.7776 21.8281C26.6234 21.3815 26.5155 21.1382 26.4116 21.003C26.3633 20.9398 26.3069 20.8371 26.2869 20.7747C26.235 20.6136 25.562 19.6757 25.4033 19.5427C25.3711 19.516 25.2809 19.4211 25.2021 19.332C25.0205 19.1257 24.9886 19.0928 24.8249 18.9395C24.5135 18.6486 24.2531 18.4192 24.1242 18.3228C24.0971 18.3025 23.9534 18.1938 23.8048 18.0812C23.4863 17.84 22.9846 17.5039 22.6737 17.3236C22.1249 17.0048 21.8524 16.858 21.7155 16.8076C21.6344 16.7777 21.4466 16.6946 21.2979 16.623C21.149 16.5516 20.8172 16.4108 20.5606 16.3105C20.3037 16.2101 20.0574 16.1078 20.0132 16.0833C19.9693 16.0588 19.8475 16.023 19.7431 16.0041C19.6384 15.9851 19.4941 15.9421 19.4225 15.9084C19.3505 15.8748 19.2729 15.8472 19.2499 15.8472C19.2269 15.8472 19.1087 15.8129 18.9872 15.7707C18.8656 15.7287 18.6999 15.684 18.6188 15.6713C18.5377 15.6587 18.3829 15.6211 18.2749 15.5883C18.0056 15.5062 17.299 15.3663 16.9713 15.3306C16.8233 15.3142 16.6245 15.2796 16.5298 15.2535C16.4352 15.2275 16.0925 15.1894 15.768 15.1689C15.1425 15.1294 14.8325 15.0876 14.7842 15.0359C14.729 14.9772 12.4336 14.9954 12.3761 15.0551ZM13.7593 18.2708C13.8298 18.301 14.1005 18.6935 14.1471 18.833C14.2129 19.0312 15.0407 19.6724 15.2304 19.6724C15.2504 19.6724 15.3893 19.7105 15.5389 19.7572C16.1054 19.934 17.1424 19.9317 17.6529 19.7524C17.7783 19.7084 17.8992 19.6724 17.9213 19.6724C17.9437 19.6724 18.0342 19.6361 18.123 19.5913C18.2115 19.5468 18.3006 19.5104 18.3209 19.5104C18.341 19.5104 18.4138 19.4812 18.4825 19.4454C18.7374 19.3134 18.9105 19.3772 19.7171 19.9014C20.5246 20.4261 20.6025 20.5187 20.3957 20.7097C20.3282 20.7721 20.1554 20.9762 20.0111 21.1631L19.7495 21.5031V21.9411C19.7495 22.4013 19.7534 22.412 20.0465 22.752C20.0849 22.7967 20.1489 22.8784 20.1887 22.934C20.3536 23.1633 21.3823 23.6198 21.8639 23.6772C22.3535 23.7358 22.3912 23.8056 22.303 24.4863C22.2172 25.1478 22.2004 25.2074 22.0594 25.3499L21.9426 25.4678L21.4359 25.4906C21.0608 25.5073 20.8605 25.5335 20.6653 25.5913C20.5199 25.6343 20.3783 25.6695 20.3506 25.6695C20.2615 25.6695 19.7879 25.8924 19.5688 26.0375C18.8465 26.5158 18.6288 27.433 19.0927 28.0428C19.2561 28.2579 19.2187 28.4285 18.9836 28.5403C18.873 28.5929 18.6825 28.6843 18.5598 28.7438C18.4371 28.8033 18.1959 28.9031 18.0233 28.9655C17.8508 29.028 17.6977 29.0923 17.6827 29.1083C17.6677 29.1242 17.5338 29.1606 17.3851 29.1892C17.0669 29.2501 17.0681 29.2505 16.5888 28.9474C15.2684 28.1124 13.1744 28.2239 12.3976 29.1705C12.0599 29.5819 11.8544 29.6863 11.532 29.6099C11.4016 29.5792 11.151 29.5271 10.9755 29.494C10.5281 29.4104 10.0585 29.2892 9.77925 29.1855L9.54184 29.0972L9.58077 28.7854C9.64093 28.3052 9.61527 28.0842 9.47135 27.8436C9.13838 27.287 8.87619 27.0952 8.00143 26.7684L7.70651 26.6583L6.8465 26.6543C6.37344 26.6521 5.96084 26.6484 5.92957 26.6463C5.8116 26.6375 5.41581 26.0731 5.34355 25.8095C5.32468 25.7415 5.26776 25.6312 5.21703 25.5647C4.95986 25.2272 5.09523 24.9421 5.55826 24.845C5.61961 24.8322 5.72991 24.7847 5.80335 24.7398C5.87708 24.6947 6.00331 24.6184 6.08441 24.5706C6.97244 24.0454 7.11312 23.0303 6.39497 22.3307C6.2944 22.2325 6.07822 22.066 5.91483 21.9603C5.56416 21.7338 5.56652 21.7448 5.80187 21.4484C6.17112 20.9832 6.35191 20.7914 6.69284 20.5039L6.91758 20.3143L7.15028 20.3347C7.27827 20.346 7.52808 20.3911 7.70562 20.4351C8.66472 20.6733 10.1382 20.3765 10.6077 19.8508C10.6555 19.7973 10.7327 19.7244 10.7796 19.6886C10.9572 19.5532 11.1212 19.2015 11.1595 18.8746L11.1967 18.557L11.3931 18.4671C11.5662 18.3879 11.6724 18.3712 12.2779 18.328C13.4363 18.2456 13.6779 18.2362 13.7593 18.2708ZM78.6449 20.0241C78.7605 20.047 79.0313 20.2544 79.0814 20.3584C79.0985 20.3938 79.1233 20.4158 79.1366 20.4071C79.2144 20.3555 78.7762 19.9955 78.6405 19.9998C78.5405 20.0031 78.5405 20.0035 78.6449 20.0241ZM86.5684 20.1233C86.3623 20.2812 86.1396 20.5138 86.2552 20.4506C86.2997 20.4261 86.3779 20.3522 86.4289 20.2865C86.4796 20.2207 86.5905 20.1285 86.6749 20.0817C86.7592 20.035 86.807 19.9967 86.7811 19.9967C86.7551 19.9967 86.6592 20.0536 86.5684 20.1233ZM88.4548 24.0016C88.4471 26.5488 88.4256 27.9395 88.3937 27.9648C88.366 27.987 88.3766 27.9856 88.4185 27.9619C88.4834 27.9249 88.4907 27.4515 88.4795 23.9987L88.4669 20.0776L88.4548 24.0016ZM76.817 24.0001C76.817 26.104 76.8229 26.9598 76.8299 25.9021C76.8373 24.8442 76.8373 23.1229 76.8299 22.0769C76.8229 21.0308 76.817 21.8962 76.817 24.0001ZM116.645 20.3112C116.706 20.3189 116.805 20.3189 116.866 20.3112C116.927 20.3036 116.877 20.2972 116.756 20.2972C116.634 20.2972 116.584 20.3036 116.645 20.3112ZM75.6747 20.5259C75.5234 20.7546 75.5352 20.8009 75.6892 20.5829C75.7573 20.4864 75.8068 20.3964 75.7992 20.3827C75.7918 20.3691 75.7355 20.4335 75.6747 20.5259ZM115.91 20.4872L115.699 20.6212L115.907 20.5171C116.106 20.4178 116.201 20.3532 116.146 20.3532C116.132 20.3532 116.026 20.4135 115.91 20.4872ZM117.386 20.41C117.634 20.566 117.745 20.615 117.569 20.4905C117.462 20.415 117.357 20.3532 117.336 20.3532C117.314 20.3532 117.337 20.3787 117.386 20.41ZM56.3594 20.4421C56.5702 20.4483 56.902 20.4481 57.0967 20.4421C57.2916 20.4358 57.1191 20.431 56.7136 20.431C56.3081 20.431 56.1488 20.436 56.3594 20.4421ZM103.214 20.4417C103.894 20.45 103.958 20.4561 104.037 20.5191C104.084 20.5566 104.123 20.5734 104.123 20.5562C104.123 20.4427 103.951 20.4179 103.21 20.4251L102.476 20.4323L103.214 20.4417ZM55.8194 20.4909C55.7975 20.5133 55.7686 20.8354 55.7551 21.2068C55.7324 21.8335 55.7235 21.8857 55.6321 21.9318C55.5749 21.9607 55.5645 21.9755 55.6076 21.9672C55.7707 21.9353 55.8029 21.8067 55.8034 21.1823C55.804 20.6576 55.8158 20.5605 55.8854 20.5098C55.9303 20.4771 55.9426 20.4504 55.9132 20.4504C55.8834 20.4504 55.8412 20.4687 55.8194 20.4909ZM102.29 20.5076C102.225 20.5551 102.209 20.6759 102.197 21.2234C102.182 21.8374 102.175 21.8855 102.083 21.9318C102.026 21.9607 102.015 21.9755 102.059 21.9672C102.222 21.9353 102.254 21.8069 102.254 21.1736C102.255 20.5675 102.258 20.55 102.364 20.5008C102.425 20.4732 102.45 20.4504 102.421 20.4504C102.392 20.4504 102.333 20.4761 102.29 20.5076ZM36.2929 20.5868C36.2548 20.6455 36.215 20.7081 36.2041 20.726C36.1932 20.7437 36.2321 20.7113 36.2905 20.6535C36.3492 20.5959 36.389 20.5333 36.3796 20.5144C36.3701 20.4956 36.3312 20.528 36.2929 20.5868ZM116.35 20.5502C116.23 20.5963 116.243 20.6449 116.375 20.6443C116.462 20.644 116.47 20.6375 116.413 20.6138C116.349 20.5872 116.349 20.5817 116.413 20.5683C116.624 20.5234 116.631 20.5205 116.534 20.5189C116.48 20.5179 116.398 20.5321 116.35 20.5502ZM116.998 20.5438C117.172 20.5759 117.185 20.6443 117.018 20.6482C116.88 20.6514 116.88 20.6515 117.001 20.6739C117.069 20.6862 117.151 20.7323 117.185 20.776C117.244 20.8529 117.246 20.8532 117.247 20.7846C117.248 20.6897 117.32 20.6652 117.415 20.728C117.458 20.7562 117.493 20.7642 117.493 20.7457C117.493 20.7272 117.443 20.6949 117.382 20.6741C117.322 20.6533 117.232 20.6089 117.184 20.5757C117.135 20.5424 117.047 20.5168 116.987 20.5185C116.884 20.5216 116.884 20.5228 116.998 20.5438ZM57.6332 21.214C57.6225 21.8849 57.6541 22.0092 57.824 21.9648C57.875 21.9516 57.8706 21.9461 57.8072 21.9442C57.6924 21.9407 57.7051 22.007 57.6727 21.2446L57.6435 20.5638L57.6332 21.214ZM79.3495 20.663C79.3498 20.6959 79.5902 20.9001 79.5931 20.87C79.5943 20.8601 79.5397 20.8027 79.4722 20.7422C79.4046 20.6817 79.3492 20.6461 79.3495 20.663ZM115.601 20.7422C115.559 20.7957 115.536 20.8394 115.549 20.8394C115.562 20.8394 115.608 20.7957 115.65 20.7422C115.692 20.6887 115.715 20.6449 115.702 20.6449C115.688 20.6449 115.643 20.6887 115.601 20.7422ZM117.74 20.6642C117.739 20.7015 117.895 20.807 117.952 20.807C117.97 20.807 117.985 20.7924 117.985 20.7747C117.985 20.7568 117.952 20.7422 117.913 20.7422C117.874 20.7422 117.819 20.7167 117.792 20.6854C117.764 20.6543 117.741 20.6447 117.74 20.6642ZM116.002 20.699C115.984 20.7109 115.97 20.7363 115.97 20.7556C115.971 20.7795 115.982 20.7789 116.007 20.754C116.027 20.7338 116.087 20.7099 116.141 20.7011C116.236 20.6854 116.236 20.6848 116.137 20.6811C116.081 20.679 116.02 20.6871 116.002 20.699ZM75.4574 20.9058C75.4119 20.9762 75.3839 21.0339 75.3945 21.0339C75.4308 21.0339 75.5706 20.8355 75.555 20.8064C75.5467 20.7906 75.5028 20.8354 75.4574 20.9058ZM116.225 21.1069C116.216 21.4262 116.207 21.4554 116.121 21.4554C116.069 21.4554 116.015 21.4404 116.002 21.4222C115.988 21.4039 115.982 21.4076 115.989 21.4301C116.007 21.4883 116.21 21.5019 116.242 21.4473C116.256 21.4224 116.261 21.2572 116.252 21.0802L116.236 20.7583L116.225 21.1069ZM115.847 20.9357C115.766 21.054 115.855 21.412 115.949 21.3496C115.96 21.3428 115.932 21.2757 115.887 21.2004C115.811 21.0728 115.811 21.0563 115.889 20.9476C115.936 20.8838 115.965 20.8258 115.955 20.8188C115.944 20.812 115.896 20.8645 115.847 20.9357ZM116.534 20.9042C116.491 20.9507 116.551 21.0016 116.648 21.0005C116.721 20.9997 116.72 20.9952 116.639 20.9643C116.565 20.9359 116.56 20.9237 116.615 20.9009C116.659 20.8824 116.662 20.8727 116.624 20.8723C116.591 20.8721 116.551 20.8865 116.534 20.9042ZM117.605 20.9925C117.651 21.1069 117.646 21.1495 117.576 21.2518L117.491 21.3743L117.59 21.2979C117.708 21.2074 117.723 21.0112 117.62 20.9186C117.558 20.863 117.556 20.8715 117.605 20.9925ZM39.4362 21.0028C39.4362 21.0289 39.4804 21.0938 39.5341 21.1473C39.6595 21.272 39.6595 21.2446 39.5341 21.0826C39.4801 21.0125 39.4359 20.9768 39.4362 21.0028ZM117.111 21.0785C117.051 21.1364 117.002 21.209 117.002 21.2395C117.002 21.3292 116.86 21.3407 116.732 21.2615C116.608 21.1847 116.507 21.1965 116.514 21.2872C116.516 21.3208 116.527 21.3263 116.542 21.3014C116.582 21.2368 116.637 21.2524 116.875 21.3955C117.103 21.5321 117.15 21.5988 117.038 21.6283C116.991 21.641 116.991 21.6453 117.037 21.6474C117.07 21.6488 117.134 21.6134 117.178 21.5688C117.222 21.5243 117.306 21.4863 117.363 21.4846L117.468 21.4813L117.362 21.4603C117.303 21.4486 117.205 21.3969 117.143 21.3451L117.032 21.251L117.14 21.1211C117.273 20.9602 117.258 20.9373 117.111 21.0785ZM73.3988 21.0905C73.2879 21.2366 73.2893 21.251 73.4041 21.138C73.4633 21.0793 73.502 21.0244 73.4893 21.0162C73.4769 21.0081 73.4362 21.0413 73.3988 21.0905ZM35.9802 21.129C35.9342 21.1804 35.8968 21.2347 35.8968 21.2496C35.8971 21.2648 35.9425 21.228 35.9979 21.1681C36.0534 21.108 36.0908 21.0538 36.0811 21.0476C36.0714 21.0411 36.026 21.0779 35.9802 21.129ZM85.5318 21.1555C85.4902 21.1866 85.4176 21.2633 85.3707 21.3257C85.3235 21.3881 85.251 21.4648 85.2094 21.4961C85.1678 21.5274 85.1442 21.5599 85.1569 21.5684C85.1696 21.5768 85.2342 21.5247 85.2999 21.4527C85.366 21.3805 85.4689 21.2714 85.5288 21.2102C85.6482 21.0884 85.6491 21.067 85.5318 21.1555ZM115.481 21.2654C115.479 21.2946 115.516 21.3463 115.564 21.3803C115.611 21.4144 115.634 21.4261 115.615 21.4066C115.596 21.387 115.559 21.3352 115.532 21.2915C115.502 21.2415 115.483 21.2317 115.481 21.2654ZM116.461 21.3907C116.461 21.4146 116.425 21.4601 116.381 21.4922C116.286 21.561 116.324 21.6501 116.447 21.6493C116.517 21.649 116.521 21.6431 116.465 21.62C116.407 21.5957 116.406 21.5747 116.46 21.4897C116.495 21.434 116.509 21.3792 116.492 21.3679C116.475 21.3566 116.461 21.3667 116.461 21.3907ZM117.142 21.4408C117.158 21.4937 117.15 21.4961 117.081 21.4585C116.987 21.407 116.975 21.3469 117.063 21.3661C117.097 21.3735 117.133 21.4072 117.142 21.4408ZM73.1401 21.5054C73.0245 21.6651 73.0407 21.6923 73.1613 21.5414C73.2162 21.4729 73.2525 21.4111 73.2419 21.4041C73.2312 21.3971 73.1852 21.4428 73.1401 21.5054ZM35.7334 21.5379C35.688 21.6007 35.6514 21.6698 35.652 21.6915C35.6526 21.7131 35.6971 21.6667 35.7511 21.5883C35.8682 21.4185 35.8522 21.3735 35.7334 21.5379ZM39.7329 21.4924C39.7317 21.5039 39.7745 21.5768 39.8279 21.6544C39.8815 21.7322 39.9249 21.7738 39.9243 21.7472C39.9231 21.6995 39.7367 21.4513 39.7329 21.4924ZM80.1375 21.5058C80.1393 21.5383 80.3809 21.7435 80.3811 21.7129C80.3814 21.703 80.3263 21.6455 80.2585 21.585C80.1909 21.5247 80.1364 21.4889 80.1375 21.5058ZM37.5944 21.6412C37.5257 21.7077 37.4696 21.7769 37.4699 21.7952C37.4699 21.8133 37.5168 21.7771 37.5743 21.7147C37.6923 21.5865 37.7631 21.5482 37.8312 21.576C37.8569 21.5865 37.8622 21.5782 37.843 21.5575C37.784 21.4947 37.7244 21.5147 37.5944 21.6412ZM115.723 21.5624C115.723 21.5933 116.215 21.8444 116.275 21.8444C116.304 21.8444 116.241 21.8063 116.136 21.7598C116.031 21.7135 115.895 21.6453 115.834 21.6083C115.773 21.5715 115.723 21.5507 115.723 21.5624ZM13.2364 21.6377C12.9279 21.6598 12.4758 21.7201 12.4253 21.746C12.3985 21.7598 12.2879 21.7894 12.1797 21.8117C12.0714 21.8343 11.9499 21.8709 11.9092 21.8932C11.8688 21.9158 11.747 21.9635 11.6391 21.9992C11.4075 22.0759 10.7207 22.5242 10.5847 22.6872C10.3187 23.0064 10.147 23.281 10.1158 23.4372C10.0963 23.5329 10.0491 23.7027 10.0105 23.8147C9.95827 23.9661 9.95326 24.0501 9.99042 24.1415C10.0181 24.2092 10.0721 24.3833 10.1105 24.5282C10.257 25.0815 10.9752 25.7804 11.6164 25.9935C11.737 26.0336 11.8656 26.0822 11.9021 26.1017C12.3961 26.3635 14.1707 26.4666 14.8275 26.2717C15.5462 26.0583 15.7002 25.9972 16.0217 25.7973C16.5284 25.4822 16.6861 25.3311 17.0513 24.8106C17.5385 24.1156 17.1362 22.9556 16.1918 22.3328C15.7695 22.0543 15.6751 22.0111 15.064 21.816C14.6447 21.682 13.7852 21.598 13.2364 21.6377ZM85.0192 21.7065C84.9006 21.8127 84.7933 21.9417 84.8233 21.9417C84.8351 21.9417 84.8965 21.8868 84.9593 21.8201C85.0224 21.7532 85.092 21.6803 85.1141 21.6579C85.1905 21.5809 85.1183 21.6178 85.0192 21.7065ZM116.645 21.6727C116.706 21.6805 116.805 21.6805 116.866 21.6727C116.927 21.6651 116.877 21.6587 116.756 21.6587C116.634 21.6587 116.584 21.6651 116.645 21.6727ZM117.351 21.7478C117.232 21.8009 117.153 21.8444 117.176 21.8444C117.22 21.8444 117.591 21.6812 117.591 21.6616C117.591 21.6416 117.573 21.648 117.351 21.7478ZM74.9097 21.8296C74.7941 21.9893 74.8103 22.0166 74.9309 21.8656C74.9858 21.7972 75.022 21.7353 75.0114 21.7283C75.0008 21.7213 74.9548 21.7668 74.9097 21.8296ZM111.237 21.8353C111.324 21.8425 111.479 21.8427 111.581 21.8357C111.683 21.8287 111.612 21.8226 111.422 21.8226C111.233 21.8224 111.15 21.8281 111.237 21.8353ZM35.5007 21.9333C35.3898 22.0796 35.3913 22.094 35.506 21.9808C35.5653 21.922 35.6039 21.8674 35.5912 21.859C35.5788 21.8508 35.5381 21.8843 35.5007 21.9333ZM64.8485 21.8781C65.2137 21.8903 65.5894 21.917 65.6841 21.9372C65.7785 21.9574 65.889 21.9728 65.9297 21.971C66.2996 21.9565 65.2234 21.8466 64.7503 21.8506L64.185 21.8555L64.8485 21.8781ZM116.546 21.8678C116.633 21.875 116.788 21.875 116.89 21.868C116.992 21.861 116.92 21.8551 116.731 21.8549C116.542 21.8549 116.458 21.8606 116.546 21.8678ZM63.7673 21.9253C63.6455 21.9487 63.5792 21.9689 63.6199 21.9703C63.6603 21.9716 63.8042 21.9526 63.9393 21.9277C64.0744 21.9028 64.1407 21.8827 64.0868 21.8829C64.0328 21.8829 63.8889 21.9022 63.7673 21.9253ZM93.26 21.9253C93.0305 21.9837 93.1296 21.9849 93.4075 21.9271C93.529 21.9018 93.5844 21.8812 93.5302 21.8814C93.4762 21.8816 93.3544 21.9014 93.26 21.9253ZM95.2195 21.9267C95.3103 21.9528 95.41 21.9734 95.4407 21.9728C95.4714 21.972 95.4221 21.9502 95.331 21.9242C95.2401 21.8981 95.1405 21.8773 95.1098 21.8781C95.0791 21.8787 95.1284 21.9006 95.2195 21.9267ZM110.218 21.9253C110.124 21.9495 110.079 21.9691 110.12 21.9691C110.16 21.9691 110.271 21.9495 110.366 21.9253C110.46 21.9014 110.504 21.8818 110.464 21.8818C110.424 21.8818 110.313 21.9014 110.218 21.9253ZM112.381 21.9253C112.605 21.9823 112.694 21.9815 112.504 21.9242C112.423 21.8997 112.323 21.8802 112.283 21.8808C112.242 21.8812 112.286 21.9014 112.381 21.9253ZM72.8346 22.0086C72.7915 22.0634 72.7635 22.121 72.7718 22.1368C72.7803 22.1525 72.8242 22.1078 72.8694 22.0374C72.967 21.8855 72.9452 21.8674 72.8346 22.0086ZM80.6121 22.009C80.661 22.0638 80.7324 22.1259 80.7708 22.1467C80.8091 22.1677 80.7784 22.1228 80.7029 22.0469C80.5436 21.8878 80.4808 21.8615 80.6121 22.009ZM45.0764 21.9981C45.2722 22.0043 45.5931 22.0043 45.7889 21.9981C45.985 21.9919 45.8246 21.987 45.4326 21.987C45.0407 21.987 44.8802 21.9919 45.0764 21.9981ZM50.5546 22.0129C50.5098 22.0424 50.4983 22.4865 50.5071 23.8527L50.5189 25.6534L50.544 23.8381L50.5694 22.0226L51.2819 22.0051L51.9948 21.9876L51.304 21.9808C50.8204 21.9761 50.5959 21.9856 50.5546 22.0129ZM53.8808 22.0308C53.8215 22.0807 53.8227 22.0829 53.8905 22.0479C53.9416 22.0216 54.2244 22.0049 54.7264 21.9983L55.4846 21.9884L54.7166 21.9812C54.0354 21.9749 53.9407 21.9804 53.8808 22.0308ZM58.3257 21.9981C58.5365 22.0043 58.8683 22.0041 59.063 21.9981C59.2576 21.9919 59.0854 21.987 58.6799 21.987C58.2743 21.987 58.1148 21.9921 58.3257 21.9981ZM97.1309 22.009C97.0634 22.035 97.0448 22.086 97.0448 22.2472C97.0448 22.5553 96.9832 22.5682 96.5523 22.3486C96.3579 22.2496 96.1866 22.1685 96.1712 22.1685C96.1364 22.1685 96.1217 22.1601 96.5287 22.375C97.0085 22.6285 97.094 22.6073 97.094 22.2362C97.094 22.0487 97.1 22.0393 97.2291 22.0204C97.4456 21.9889 97.4707 21.9792 97.3397 21.9777C97.2722 21.9767 97.1781 21.9909 97.1309 22.009ZM97.8682 21.9981C98.0641 22.0043 98.3849 22.0043 98.5808 21.9981C98.7769 21.9919 98.6165 21.987 98.2245 21.987C97.8326 21.987 97.6721 21.9919 97.8682 21.9981ZM100.793 21.9981C101.002 22.0041 101.345 22.0041 101.555 21.9981C101.764 21.9921 101.593 21.987 101.174 21.987C100.755 21.987 100.583 21.9921 100.793 21.9981ZM105.25 21.9983C105.742 22.0043 106.083 22.022 106.123 22.0436C106.213 22.093 106.216 23.0746 106.126 23.1412C106.074 23.1797 106.078 23.1801 106.151 23.1437C106.226 23.106 106.237 23.0385 106.237 22.5909C106.237 21.9283 106.307 21.9718 105.25 21.9814L104.442 21.9886L105.25 21.9983ZM40.0656 22.0551C40.0903 22.0907 40.1231 22.1418 40.1381 22.1685C40.1617 22.2105 40.1658 22.2103 40.1694 22.1667C40.1714 22.1389 40.1387 22.0877 40.0965 22.0531C40.0213 21.9913 40.021 21.9913 40.0656 22.0551ZM44.3612 22.0453C44.2978 22.0872 44.2824 25.8809 44.3447 26.0733C44.3618 26.126 44.3694 25.2531 44.3615 24.1333C44.3508 22.6191 44.3618 22.0858 44.4042 22.052C44.4741 21.9963 44.4426 21.9915 44.3612 22.0453ZM59.6752 22.0387C59.7186 22.071 59.7366 22.2313 59.7366 22.59C59.7366 22.9486 59.7186 23.1089 59.6752 23.1412C59.6227 23.1797 59.6266 23.1801 59.6997 23.1437C59.7752 23.106 59.7858 23.0385 59.7858 22.59C59.7858 22.1414 59.7752 22.0739 59.6997 22.0362C59.6266 21.9998 59.6227 22.0002 59.6752 22.0387ZM66.468 22.0422C66.5343 22.0597 66.6128 22.0842 66.6426 22.0969C66.6721 22.1095 66.6544 22.0944 66.6028 22.0632C66.5512 22.0319 66.4727 22.0074 66.4285 22.0086C66.3774 22.0098 66.3922 22.0222 66.468 22.0422ZM99.0111 24.9498L99.0356 27.8901L99.0482 24.9743C99.055 23.3707 99.0438 22.0477 99.0235 22.0343C99.0031 22.0206 98.9975 23.3328 99.0111 24.9498ZM52.3516 24.9609C52.3605 26.975 52.3484 27.8991 52.3121 27.9483C52.2617 28.0173 52.2626 28.0175 52.336 27.9568C52.4186 27.889 52.4575 22.0934 52.3758 22.0601C52.3555 22.0518 52.3445 23.3573 52.3516 24.9609ZM92.3997 22.1058C92.3186 22.1401 92.2773 22.1683 92.3083 22.1683C92.339 22.1685 92.4165 22.1399 92.4802 22.1049C92.6265 22.0245 92.5914 22.0249 92.3997 22.1058ZM46.2422 23.9028C46.2422 24.9191 46.2484 25.3301 46.2561 24.8162C46.2635 24.3025 46.2635 23.471 46.2561 22.9685C46.2484 22.4661 46.2422 22.8866 46.2422 23.9028ZM37.2608 22.2424C37.1425 22.4314 37.154 22.4773 37.2753 22.3007C37.3295 22.222 37.3679 22.1457 37.3602 22.1311C37.3528 22.1167 37.308 22.1667 37.2608 22.2424ZM84.5213 22.2266L84.4095 22.3468L84.5337 22.2558C84.6021 22.2058 84.6579 22.1512 84.6579 22.1342C84.6579 22.0866 84.6414 22.0979 84.5213 22.2266ZM74.6646 22.2638C74.6189 22.3149 74.5814 22.3692 74.5814 22.3842C74.5814 22.3993 74.6268 22.3626 74.6823 22.3027C74.7377 22.2428 74.7752 22.1885 74.7657 22.1821C74.756 22.1757 74.7106 22.2124 74.6646 22.2638ZM91.9818 22.2496C91.8904 22.2941 91.8296 22.3307 91.8473 22.3307C91.8647 22.3307 91.9606 22.2941 92.0602 22.2496C92.1599 22.205 92.2204 22.1685 92.195 22.1685C92.1694 22.1685 92.0735 22.205 91.9818 22.2496ZM62.2063 22.3332C62.0373 22.406 61.8993 22.4723 61.8993 22.4806C61.8993 22.489 61.927 22.4843 61.9609 22.4699C61.9945 22.4557 62.1385 22.3954 62.2803 22.3359C62.5018 22.2432 62.5785 22.2009 62.5257 22.2009C62.5186 22.2009 62.375 22.2605 62.2063 22.3332ZM72.6632 22.3202C72.5526 22.5094 72.5529 22.5193 72.665 22.3851C72.7219 22.3169 72.7611 22.2467 72.752 22.2288C72.7428 22.2109 72.703 22.2521 72.6632 22.3202ZM80.8241 22.2188C80.8241 22.2358 80.8905 22.3151 80.9713 22.3954C81.163 22.5855 81.163 22.5407 80.9713 22.3416C80.8902 22.2574 80.8238 22.2021 80.8241 22.2188ZM108.842 22.2963C108.72 22.348 108.554 22.4293 108.473 22.4769L108.326 22.5635L108.473 22.4941C108.554 22.4559 108.726 22.3805 108.854 22.3262C108.983 22.2721 109.088 22.2218 109.088 22.2144C109.088 22.193 109.075 22.1973 108.842 22.2963ZM35.242 22.3807C35.1264 22.5404 35.1427 22.5676 35.2633 22.4166C35.3181 22.3482 35.3544 22.2863 35.3438 22.2793C35.3332 22.2723 35.2872 22.318 35.242 22.3807ZM38.209 22.4324C38.2078 22.4439 38.2506 22.5168 38.3043 22.5944C38.3576 22.6722 38.401 22.7138 38.4004 22.6872C38.3995 22.6395 38.2131 22.3916 38.209 22.4324ZM67.9447 22.6744C68.1429 22.7973 68.3679 22.9548 68.4446 23.0243C68.5216 23.0939 68.5844 23.1355 68.5844 23.1171C68.5844 23.0533 67.8671 22.5586 67.6604 22.4799C67.6185 22.4637 67.7462 22.5512 67.9447 22.6744ZM86.3118 22.589C86.2133 22.6609 86.1334 22.738 86.1343 22.7601C86.1352 22.7825 86.1629 22.7691 86.1956 22.7304C86.2809 22.6302 86.5147 22.5168 86.5808 22.5437C86.6144 22.5575 86.628 22.5493 86.615 22.5236C86.5734 22.441 86.4897 22.4591 86.3118 22.589ZM91.1377 22.7133C90.8404 22.921 90.4455 23.2674 90.5579 23.2215C90.5862 23.2098 90.6641 23.1435 90.7304 23.0741C90.7971 23.0044 90.9979 22.8453 91.1769 22.7201C91.356 22.595 91.4913 22.4927 91.4778 22.4927C91.4642 22.4927 91.3111 22.5919 91.1377 22.7133ZM114.382 22.7033C114.541 22.8282 114.734 22.9924 114.811 23.068C114.888 23.1439 114.96 23.2059 114.971 23.2059C115.034 23.2059 114.66 22.8718 114.372 22.6711L114.093 22.4766L114.382 22.7033ZM78.7428 22.5468C78.7248 22.5586 78.7122 22.6207 78.7145 22.6845L78.7189 22.8006L78.7664 22.6919C78.8068 22.5995 78.8322 22.5853 78.9345 22.5983C79.0319 22.6106 79.0445 22.6049 78.9994 22.5693C78.941 22.5227 78.7983 22.5102 78.7428 22.5468ZM74.418 22.6724C74.3024 22.8321 74.3186 22.8593 74.4396 22.7084C74.4944 22.6399 74.5304 22.5781 74.5198 22.5711C74.5092 22.5641 74.4634 22.6098 74.418 22.6724ZM81.1191 22.5594C81.1188 22.5693 81.1742 22.6267 81.2417 22.6872C81.3093 22.7477 81.3638 22.7833 81.3627 22.7664C81.3609 22.7339 81.1194 22.5287 81.1191 22.5594ZM108.078 22.6954L107.883 22.8331L108.092 22.7049C108.287 22.5857 108.324 22.5575 108.287 22.5575C108.279 22.5575 108.184 22.6195 108.078 22.6954ZM61.5306 22.6738L61.3832 22.7574L61.543 22.6876C61.6309 22.6493 61.7029 22.6117 61.7029 22.604C61.7029 22.5796 61.6819 22.5882 61.5306 22.6738ZM72.3816 22.7848C72.2306 22.992 72.2415 23.0311 72.3969 22.8387C72.4659 22.7529 72.5158 22.6716 72.5075 22.658C72.4989 22.6444 72.4423 22.7014 72.3816 22.7848ZM35.0111 22.7741C34.9005 22.9634 34.9008 22.9733 35.0129 22.8389C35.0695 22.7708 35.1087 22.7004 35.0996 22.6827C35.0907 22.6648 35.0506 22.7059 35.0111 22.7741ZM36.9859 22.7697C36.9547 22.8152 36.9299 22.8698 36.9308 22.8914C36.932 22.9128 36.9653 22.8807 37.0054 22.82C37.0895 22.6925 37.0715 22.646 36.9859 22.7697ZM84.0326 22.7277C83.9365 22.8097 83.9038 22.8599 83.9619 22.8362C84.02 22.8125 84.1364 22.6872 84.1005 22.6872C84.0893 22.6872 84.0586 22.7055 84.0326 22.7277ZM40.4711 22.752C40.4723 22.7996 40.6587 23.0478 40.6625 23.0068C40.6637 22.9953 40.6209 22.9224 40.5675 22.8447C40.5139 22.7669 40.4705 22.7253 40.4711 22.752ZM79.1035 22.743C79.1035 22.7619 79.1489 22.8117 79.2047 22.8539L79.3058 22.9303L79.2194 22.8331C79.1059 22.7051 79.1035 22.7032 79.1035 22.743ZM61.1148 22.9807C60.9785 23.0885 60.867 23.1863 60.867 23.1978C60.867 23.2094 60.8847 23.205 60.9063 23.188C61.2678 22.9041 61.4106 22.7845 61.3888 22.7845C61.3743 22.7845 61.2507 22.8728 61.1148 22.9807ZM86.5891 22.9303C86.5894 23.0194 86.5988 23.0521 86.6103 23.0029C86.6215 22.9535 86.6212 22.8805 86.6094 22.8407C86.5979 22.8008 86.5885 22.8412 86.5891 22.9303ZM86.0101 22.8899C85.8063 23.0813 85.6816 23.226 85.799 23.1349C85.9246 23.0375 86.139 22.8169 86.108 22.8169C86.0968 22.8169 86.0529 22.8496 86.0101 22.8899ZM38.4562 22.8891C38.4505 22.9276 38.6107 23.1773 38.6319 23.1633C38.6425 23.1563 38.6083 23.0863 38.5555 23.0079C38.5028 22.9296 38.4582 22.8761 38.4562 22.8891ZM78.7759 23.141C78.7759 23.2748 78.7844 23.3294 78.795 23.2625C78.8056 23.1958 78.8056 23.0863 78.795 23.0194C78.7844 22.9527 78.7759 23.0074 78.7759 23.141ZM64.7141 23.0023C64.789 23.0097 64.8996 23.0095 64.96 23.0017C65.0205 22.9941 64.9591 22.9879 64.8241 22.9883C64.689 22.9885 64.6394 22.9947 64.7141 23.0023ZM111.312 23.0013C111.359 23.0095 111.437 23.0095 111.484 23.0013C111.531 22.9932 111.493 22.9865 111.398 22.9865C111.303 22.9865 111.265 22.9932 111.312 23.0013ZM79.394 23.0708C79.4206 23.1034 79.4813 23.1509 79.5288 23.1762C79.5905 23.2087 79.5831 23.1915 79.5037 23.1167C79.3822 23.0025 79.3162 22.9749 79.394 23.0708ZM94.256 23.0346C94.3306 23.0422 94.4412 23.042 94.5016 23.0342C94.5621 23.0264 94.5011 23.0204 94.366 23.0206C94.2306 23.021 94.1814 23.0272 94.256 23.0346ZM63.8163 23.1087C63.7216 23.1427 63.6665 23.1707 63.6936 23.1707C63.7205 23.1707 63.8201 23.1427 63.9148 23.1087C64.0092 23.0745 64.0646 23.0464 64.0375 23.0464C64.0107 23.0464 63.911 23.0745 63.8163 23.1087ZM65.6351 23.0923C65.7027 23.1178 65.7802 23.1388 65.8071 23.1388C65.8342 23.1388 65.8012 23.1178 65.7333 23.0923C65.6658 23.0669 65.5885 23.0461 65.5614 23.0461C65.5342 23.0461 65.5676 23.0669 65.6351 23.0923ZM93.7024 23.0923C93.5452 23.1517 93.5788 23.1519 93.8251 23.0933C93.9333 23.0676 93.9776 23.0464 93.9236 23.0464C93.8693 23.0463 93.7699 23.0669 93.7024 23.0923ZM94.8821 23.0622C95.1012 23.1188 95.2452 23.1406 95.1989 23.11C95.1717 23.0922 95.0726 23.0698 94.9788 23.0603C94.885 23.0509 94.8414 23.0517 94.8821 23.0622ZM83.5758 23.1978C83.5203 23.2647 83.41 23.3849 83.331 23.4652C83.1228 23.6764 83.0623 23.7552 83.1927 23.6455C83.3832 23.4856 83.7489 23.0762 83.7014 23.0762C83.6879 23.0762 83.6312 23.1309 83.5758 23.1978ZM34.7183 23.2526C34.659 23.3335 34.6215 23.4183 34.6351 23.4407C34.6522 23.4685 34.6613 23.466 34.664 23.4323C34.666 23.4053 34.7132 23.3271 34.769 23.2586C34.8247 23.1902 34.8604 23.1276 34.8483 23.1196C34.8365 23.1118 34.7778 23.1715 34.7183 23.2526ZM86.5392 23.2382C86.5392 23.3186 86.5487 23.3514 86.5604 23.3112C86.5722 23.2711 86.5722 23.2055 86.5604 23.1653C86.5487 23.1252 86.5392 23.1581 86.5392 23.2382ZM107.466 23.1896C107.402 23.2339 107.36 23.276 107.371 23.2826C107.383 23.2892 107.443 23.2528 107.506 23.2017C107.647 23.0871 107.622 23.0797 107.466 23.1896ZM40.7179 23.1896C40.7179 23.2075 40.7604 23.273 40.812 23.3355C40.8639 23.3979 40.9064 23.4345 40.9064 23.4166C40.9064 23.3987 40.8639 23.3331 40.812 23.2707C40.7604 23.2083 40.7179 23.1719 40.7179 23.1896ZM54.3666 23.1976C54.5895 23.2036 54.9543 23.2036 55.1776 23.1976C55.4006 23.1915 55.218 23.1867 54.7721 23.1867C54.3259 23.1867 54.1433 23.1915 54.3666 23.1976ZM58.2496 23.1976C58.4997 23.2034 58.909 23.2034 59.1591 23.1976C59.4092 23.1917 59.2045 23.1869 58.7043 23.1869C58.2041 23.1869 57.9995 23.1917 58.2496 23.1976ZM95.6011 23.2201C95.6858 23.2444 95.7701 23.2802 95.7884 23.2999C95.8067 23.3195 95.8468 23.3355 95.8775 23.3355C95.9081 23.3355 95.8583 23.2991 95.7669 23.2546C95.6752 23.21 95.5657 23.174 95.5239 23.1748C95.4817 23.1754 95.5165 23.1958 95.6011 23.2201ZM101.281 23.2044C101.731 23.2141 102.118 23.2341 102.141 23.2491C102.163 23.2639 102.187 24.3204 102.195 25.5968C102.208 27.9119 102.215 28.0055 102.372 28.0025C102.402 28.002 102.389 27.9868 102.341 27.9685C102.261 27.9376 102.255 27.7911 102.255 25.6193C102.255 22.8399 102.39 23.1707 101.26 23.1801L100.461 23.1865L101.281 23.2044ZM104.701 23.1976C104.951 23.2034 105.36 23.2034 105.61 23.1976C105.86 23.1917 105.655 23.1869 105.155 23.1869C104.655 23.1869 104.45 23.1917 104.701 23.1976ZM109.702 23.2847C109.567 23.3452 109.39 23.4434 109.309 23.5029L109.162 23.6111L109.358 23.495C109.466 23.431 109.664 23.3326 109.797 23.2762C109.93 23.2197 110.018 23.1737 109.993 23.174C109.968 23.1744 109.837 23.2242 109.702 23.2847ZM57.6473 23.2789C57.6326 23.3189 57.6267 24.3801 57.6343 25.6372L57.6482 27.9226L57.66 25.6032C57.6691 23.8513 57.6865 23.2742 57.7311 23.2448C57.7759 23.2153 57.7762 23.2059 57.732 23.2059C57.7001 23.2059 57.6618 23.2386 57.6473 23.2789ZM93.0388 23.2909C92.9503 23.3405 92.9323 23.3604 92.9937 23.3401C93.0836 23.3106 93.2526 23.204 93.2046 23.2071C93.1945 23.2077 93.1199 23.2454 93.0388 23.2909ZM60.7308 23.3475C60.6706 23.4055 60.6214 23.465 60.6214 23.4798C60.6214 23.4946 60.6777 23.4518 60.7467 23.3849C60.8157 23.318 60.865 23.2585 60.8561 23.2526C60.8476 23.247 60.7909 23.2896 60.7308 23.3475ZM79.5966 23.2563C79.5987 23.2888 79.84 23.494 79.8405 23.4635C79.8405 23.4535 79.7854 23.396 79.7179 23.3355C79.6503 23.2752 79.5958 23.2394 79.5966 23.2563ZM85.4916 23.4022C85.4326 23.4568 85.3925 23.5068 85.4026 23.5134C85.4126 23.5201 85.4707 23.4753 85.5315 23.4142C85.6683 23.2763 85.6373 23.267 85.4916 23.4022ZM55.7672 25.6252C55.756 27.7878 55.7604 27.9335 55.8412 27.9753C55.9173 28.0146 55.9202 28.0138 55.866 27.9681C55.8188 27.9282 55.802 27.3901 55.7919 25.618L55.779 23.3193L55.7672 25.6252ZM66.6688 23.5193C66.8166 23.6294 66.9882 23.7607 67.0496 23.811C67.1112 23.8616 67.0965 23.8373 67.0166 23.757C66.9366 23.6766 66.7653 23.5455 66.6355 23.4652L66.3999 23.3193L66.6688 23.5193ZM81.8564 23.3545C81.8564 23.3709 81.9136 23.4279 81.9832 23.4814L82.11 23.5786L81.9988 23.4652C81.8567 23.3197 81.8561 23.3193 81.8564 23.3545ZM95.9633 23.3429C95.9633 23.3499 96.0907 23.4269 96.2461 23.514C96.4016 23.6014 96.4844 23.6389 96.4305 23.5979C96.3278 23.5195 95.9633 23.3207 95.9633 23.3429ZM113.023 23.4469C113.093 23.5016 113.209 23.5947 113.281 23.6541C113.354 23.7134 113.413 23.75 113.413 23.7352C113.413 23.7204 113.297 23.6272 113.155 23.528C113.013 23.4286 112.954 23.3923 113.023 23.4469ZM62.8646 23.5286C62.7392 23.6171 62.6366 23.6998 62.6366 23.7124C62.6366 23.7251 62.6437 23.7293 62.6522 23.7218C62.6611 23.7144 62.7746 23.6317 62.905 23.5381C63.035 23.4446 63.1306 23.368 63.117 23.368C63.1035 23.368 62.9899 23.4403 62.8646 23.5286ZM92.6648 23.4895C92.356 23.7068 92.1785 23.8556 92.18 23.8958C92.1809 23.9176 92.2059 23.9061 92.236 23.8704C92.2661 23.8348 92.4221 23.7072 92.5826 23.5868C92.8961 23.3516 92.948 23.2904 92.6648 23.4895ZM86.4885 25.6549C86.4764 27.9481 86.4802 28.0035 86.6433 28.0035C86.6702 28.0035 86.6545 27.9854 86.6088 27.9631C86.5324 27.9257 86.5248 27.7407 86.5133 25.6534L86.5006 23.3841L86.4885 25.6549ZM34.4826 23.6566C34.3307 23.8597 34.3428 23.9013 34.4976 23.7089C34.5664 23.6237 34.6162 23.5436 34.6082 23.531C34.6006 23.5181 34.5439 23.5747 34.4826 23.6566ZM73.8774 23.6126C73.7618 23.7723 73.778 23.7996 73.8987 23.6486C73.9535 23.58 73.9898 23.5181 73.9792 23.5111C73.9686 23.5041 73.9226 23.5498 73.8774 23.6126ZM40.9633 23.5967C40.9613 23.6245 40.994 23.6757 41.0362 23.7103C41.1114 23.7721 41.1117 23.7721 41.0671 23.7083C41.0424 23.6727 41.0096 23.6216 40.9946 23.5949C40.971 23.5529 40.9669 23.5531 40.9633 23.5967ZM85.2383 23.684C85.1516 23.7505 85.0867 23.8217 85.1127 23.8217C85.1227 23.8217 85.1799 23.778 85.2401 23.7245C85.3583 23.6189 85.3574 23.5926 85.2383 23.684ZM69.1164 23.7879C69.1618 23.8583 69.2058 23.903 69.2141 23.8873C69.2297 23.8581 69.0899 23.6597 69.0536 23.6597C69.043 23.6597 69.071 23.7175 69.1164 23.7879ZM96.6071 23.7894C96.7493 23.9349 96.7499 23.9353 96.7496 23.9001C96.7496 23.8838 96.6924 23.8266 96.6228 23.7731L96.4959 23.6759L96.6071 23.7894ZM108.993 23.7776C108.937 23.8245 108.892 23.8793 108.893 23.8991C108.893 23.919 108.919 23.9061 108.949 23.8704C108.978 23.8348 109.037 23.7801 109.078 23.7488C109.119 23.7177 109.139 23.6922 109.124 23.6922C109.108 23.6922 109.049 23.7305 108.993 23.7776ZM80.0868 23.7768C80.0865 23.7966 80.1529 23.868 80.234 23.9353C80.3151 24.0026 80.3814 24.0419 80.3814 24.0227C80.3814 24.0034 80.3576 23.9779 80.3284 23.9661C80.2992 23.9542 80.2328 23.8986 80.1809 23.8425C80.1293 23.7865 80.0868 23.757 80.0868 23.7768ZM82.9989 23.7974C82.9718 23.8198 82.9134 23.8853 82.8686 23.9433C82.7583 24.0866 82.3967 24.038 82.3967 23.8799C82.3967 23.8599 82.384 23.8519 82.3681 23.8622C82.3182 23.8951 82.4321 23.9981 82.5825 24.0561C82.7494 24.1205 82.7789 24.1071 82.9765 23.8785C83.0815 23.7572 83.0915 23.721 82.9989 23.7974ZM78.8316 25.864C78.8316 26.9962 78.8378 27.4593 78.8455 26.8933C78.8528 26.3273 78.8528 25.4009 78.8455 24.8349C78.8378 24.2687 78.8316 24.7318 78.8316 25.864ZM90.1037 23.8713C90.0884 23.9065 90.0609 23.9645 90.0426 24.0001C90.0244 24.0357 90.0453 24.024 90.0895 23.9738C90.1335 23.9236 90.1609 23.8657 90.1503 23.8451C90.14 23.8243 90.1187 23.8361 90.1037 23.8713ZM84.9935 23.911C84.9534 23.9421 84.8723 24.026 84.8133 24.0973C84.6983 24.2366 84.7829 24.174 84.9779 23.9758C85.1056 23.8458 85.1121 23.8186 84.9935 23.911ZM113.491 23.9353C113.583 24.1026 113.572 24.202 113.456 24.2555C113.329 24.314 113.368 24.3265 113.515 24.2745C113.632 24.2333 113.64 24.0686 113.531 23.9515C113.483 23.8995 113.468 23.8937 113.491 23.9353ZM60.2636 24.103C60.1477 24.3163 60.1604 24.3634 60.2795 24.1621C60.3323 24.073 60.3695 23.988 60.3621 23.9732C60.3547 23.9587 60.3102 24.017 60.2636 24.103ZM71.6171 24.0791C71.5711 24.1302 71.5337 24.1845 71.5339 24.1996C71.5339 24.2146 71.5794 24.1779 71.6348 24.118C71.6903 24.0581 71.7277 24.0038 71.718 23.9974C71.7085 23.9911 71.6631 24.0277 71.6171 24.0791ZM41.2055 24.0287C41.2055 24.0635 41.3517 24.2432 41.3801 24.2432C41.3933 24.2432 41.368 24.1958 41.3231 24.1378C41.232 24.0195 41.2055 23.9948 41.2055 24.0287ZM96.8033 24.0326C96.8033 24.0503 96.8454 24.116 96.8973 24.1784C96.9492 24.2407 96.9914 24.2773 96.9914 24.2594C96.9914 24.2417 96.9492 24.1759 96.8973 24.1135C96.8454 24.051 96.8033 24.0147 96.8033 24.0326ZM108.787 24.1539C108.758 24.2413 108.856 24.3422 108.925 24.2965C108.942 24.285 108.932 24.2757 108.902 24.2757C108.873 24.2757 108.841 24.2282 108.832 24.1703C108.817 24.0652 108.816 24.0651 108.787 24.1539ZM67.2855 24.1784C67.3035 24.223 67.3386 24.2813 67.3637 24.308C67.3955 24.3418 67.3994 24.3319 67.3764 24.2757C67.3584 24.2312 67.3233 24.1726 67.2982 24.146C67.2664 24.1121 67.2625 24.122 67.2855 24.1784ZM69.2775 24.1666C69.2748 24.2047 69.307 24.2848 69.3488 24.3449C69.4246 24.4527 69.4205 24.4294 69.3229 24.1946C69.2925 24.1213 69.2813 24.1143 69.2775 24.1666ZM91.8697 24.3805C91.8231 24.4774 91.7866 24.5776 91.788 24.6027C91.7895 24.6277 91.8332 24.5608 91.8854 24.4539C91.9376 24.3469 91.9744 24.2469 91.967 24.2317C91.96 24.2166 91.916 24.2835 91.8697 24.3805ZM106.838 24.3405C106.838 24.4029 106.848 24.4284 106.861 24.3973C106.873 24.3659 106.873 24.315 106.861 24.2837C106.848 24.2526 106.838 24.278 106.838 24.3405ZM80.6077 24.308C80.6283 24.3348 80.6826 24.3932 80.728 24.4377C80.7737 24.4823 80.8802 24.5906 80.9648 24.6783C81.0495 24.766 81.1188 24.8226 81.1188 24.8042C81.1188 24.7857 81.0778 24.7359 81.0273 24.6933C80.9772 24.6509 80.9005 24.5723 80.8569 24.5188C80.8135 24.4653 80.7309 24.385 80.6737 24.3405C80.6165 24.2959 80.5867 24.2813 80.6077 24.308ZM84.5502 24.3648C84.4635 24.4313 84.3986 24.5025 84.4246 24.5025C84.4346 24.5025 84.4918 24.4587 84.5517 24.4052C84.6703 24.2996 84.6691 24.2734 84.5502 24.3648ZM89.9309 24.4702C89.9309 24.5503 89.9403 24.5832 89.9521 24.5431C89.9639 24.5029 89.9639 24.4373 89.9521 24.3973C89.9403 24.357 89.9309 24.3899 89.9309 24.4702ZM36.0165 24.5182C35.8351 24.7406 35.8614 24.7443 37.687 24.755C39.351 24.7649 39.4359 24.7585 39.4359 24.6227C39.4359 24.6021 39.4014 24.6178 39.3592 24.6575C39.2489 24.7614 36.2817 24.7717 36.0891 24.6688C35.9779 24.6095 35.9773 24.6062 36.0628 24.5202C36.1109 24.4718 36.141 24.426 36.1298 24.4185C36.1183 24.4111 36.0675 24.456 36.0165 24.5182ZM33.9638 24.5527C33.9184 24.6155 33.8818 24.6845 33.8824 24.7063C33.883 24.7279 33.9276 24.6814 33.9815 24.603C34.0986 24.4332 34.0827 24.3883 33.9638 24.5527ZM106.777 24.5062C106.777 24.514 106.754 24.6418 106.726 24.7898C106.679 25.0389 106.742 25.6065 106.812 25.5604C106.824 25.5522 106.81 25.4367 106.779 25.3038C106.739 25.1307 106.738 24.9862 106.775 24.7931C106.803 24.6449 106.815 24.5165 106.802 24.5077C106.788 24.499 106.777 24.4982 106.777 24.5062ZM115.545 24.8267C115.545 24.9961 115.553 25.0654 115.563 24.9808C115.573 24.896 115.573 24.7575 115.563 24.6727C115.553 24.5881 115.545 24.6573 115.545 24.8267ZM62.1149 24.9887C62.1149 25.2116 62.1228 25.3029 62.1323 25.1914C62.142 25.08 62.142 24.8977 62.1323 24.7863C62.1228 24.6748 62.1149 24.766 62.1149 24.9887ZM67.4725 24.9726C67.4728 25.1866 67.4808 25.2698 67.4902 25.1578C67.4999 25.0455 67.4999 24.8705 67.4902 24.7688C67.4805 24.6668 67.4725 24.7586 67.4725 24.9726ZM89.8852 24.9401C89.8852 25.0829 89.894 25.1371 89.9043 25.0609C89.9146 24.9847 89.9146 24.868 89.904 24.8016C89.8934 24.7351 89.8849 24.7975 89.8852 24.9401ZM91.7538 24.9887C91.7538 25.1582 91.7621 25.2274 91.7724 25.1428C91.7824 25.0582 91.7824 24.9195 91.7724 24.8349C91.7621 24.7501 91.7538 24.8193 91.7538 24.9887ZM97.1112 24.9887C97.1112 25.1403 97.1197 25.2023 97.13 25.1266C97.1404 25.0508 97.1404 24.9269 97.13 24.851C97.1197 24.7752 97.1112 24.8372 97.1112 24.9887ZM83.9934 24.9321C83.9179 25.0078 83.8111 25.1136 83.756 25.1671C83.6743 25.2467 83.6716 25.256 83.7427 25.2179C83.7905 25.1924 83.8722 25.1194 83.9244 25.0558C83.9763 24.9922 84.0551 24.9074 84.0987 24.8672C84.1426 24.8271 84.1677 24.7942 84.1544 24.7942C84.1412 24.7942 84.0689 24.8563 83.9934 24.9321ZM69.4824 24.9565C69.4824 25.0366 69.4922 25.0695 69.504 25.0294C69.5155 24.9891 69.5155 24.9236 69.504 24.8835C69.4922 24.8433 69.4824 24.8761 69.4824 24.9565ZM60.0955 25.0212C60.0955 25.1193 60.1046 25.1593 60.1159 25.1103C60.1271 25.0613 60.1271 24.9812 60.1159 24.9321C60.1046 24.8831 60.0955 24.9232 60.0955 25.0212ZM81.2757 25.0214C81.3597 25.1105 81.46 25.2007 81.4986 25.2219C81.5373 25.243 81.4777 25.17 81.3668 25.0597C81.125 24.8195 81.0595 24.7921 81.2757 25.0214ZM41.7496 24.9401C41.7496 24.958 41.7812 25.0092 41.8198 25.0537C41.8584 25.0982 41.89 25.12 41.89 25.1023C41.89 25.0844 41.8584 25.0335 41.8198 24.9887C41.7812 24.9442 41.7496 24.9224 41.7496 24.9401ZM72.8941 25.2982C72.7788 25.4579 72.7951 25.4851 72.9157 25.3342C72.9705 25.2657 73.0068 25.2039 72.9962 25.1969C72.9856 25.1899 72.9396 25.2356 72.8941 25.2982ZM33.4855 25.3696C33.3743 25.5156 33.376 25.53 33.4905 25.417C33.55 25.3583 33.5884 25.3034 33.576 25.2953C33.5633 25.2871 33.5226 25.3204 33.4855 25.3696ZM83.5383 25.4034L83.4266 25.5236L83.5507 25.4328C83.6189 25.3828 83.6749 25.328 83.6749 25.3112C83.6749 25.2636 83.6581 25.2747 83.5383 25.4034ZM91.7919 25.3616C91.7913 25.4293 91.9694 25.8072 91.975 25.7506C91.9771 25.7327 91.9367 25.6234 91.8854 25.5075C91.834 25.3916 91.7922 25.326 91.7919 25.3616ZM110.427 25.3373C111.34 25.3422 112.833 25.3422 113.745 25.3373C114.658 25.3324 113.911 25.3283 112.086 25.3283C110.261 25.3283 109.515 25.3324 110.427 25.3373ZM41.9917 25.3927C41.9917 25.4056 42.036 25.4532 42.0902 25.4987C42.1442 25.544 42.1884 25.5705 42.1884 25.5575C42.1884 25.5444 42.1442 25.4968 42.0902 25.4515C42.036 25.4061 41.9917 25.3797 41.9917 25.3927ZM89.9297 25.4913C89.9303 25.5625 89.9403 25.588 89.9521 25.5475C89.9639 25.5073 89.9636 25.4489 89.9512 25.418C89.9388 25.3869 89.9294 25.42 89.9297 25.4913ZM60.1412 25.54C60.1412 25.6022 60.1512 25.6279 60.1636 25.5966C60.176 25.5654 60.176 25.5143 60.1636 25.4832C60.1512 25.452 60.1412 25.4775 60.1412 25.54ZM67.4103 25.512C67.4073 25.5413 67.361 25.6288 67.3074 25.7065C67.254 25.7843 67.2103 25.8696 67.2103 25.8965C67.2103 25.9231 67.2655 25.8576 67.3324 25.7506C67.3997 25.6436 67.446 25.5341 67.4353 25.5075C67.4197 25.4684 67.415 25.4694 67.4103 25.512ZM69.3273 25.6078C69.2972 25.665 69.2739 25.735 69.2757 25.7636C69.2778 25.792 69.3099 25.7504 69.3474 25.6709C69.4261 25.5044 69.4096 25.4524 69.3273 25.6078ZM108.696 25.5722C108.697 25.5991 108.73 25.6493 108.77 25.6839C108.863 25.7648 108.862 25.7349 108.768 25.6166C108.728 25.5654 108.696 25.5456 108.696 25.5722ZM72.6231 25.752C72.5405 25.8712 72.5565 25.8967 72.6455 25.7883C72.6871 25.7376 72.7119 25.6901 72.7007 25.6827C72.6895 25.6753 72.6544 25.7065 72.6231 25.752ZM60.1831 25.7506C60.1831 25.7862 60.2276 25.8665 60.2825 25.929C60.3804 26.041 60.3751 26.021 60.2483 25.7992C60.2079 25.7286 60.1834 25.7101 60.1831 25.7506ZM82.3598 25.7259C82.4884 25.7325 82.6984 25.7325 82.827 25.7259C82.9553 25.7191 82.8503 25.7136 82.5934 25.7136C82.3365 25.7136 82.2315 25.7191 82.3598 25.7259ZM96.9097 25.8074C96.8566 25.9025 96.8581 25.9066 96.9233 25.8498C96.9858 25.7953 97.0227 25.702 96.982 25.702C96.9743 25.702 96.9419 25.7494 96.9097 25.8074ZM33.2011 25.8492C33.1189 25.9684 33.1345 25.9939 33.2236 25.8856C33.2651 25.8348 33.2899 25.7874 33.2787 25.78C33.2675 25.7726 33.2327 25.8037 33.2011 25.8492ZM50.4514 25.864C50.447 25.9087 50.4107 25.9735 50.3712 26.0081C50.3314 26.0426 50.2989 26.0931 50.2989 26.1202C50.2989 26.1474 50.3438 26.1118 50.3986 26.0412C50.4535 25.9704 50.4897 25.8834 50.4791 25.8479C50.4638 25.7961 50.4582 25.7994 50.4514 25.864ZM91.985 25.8362C91.9833 25.8654 92.0207 25.9171 92.0679 25.9511C92.1151 25.9852 92.1381 25.9968 92.1189 25.9774C92.0998 25.9577 92.0626 25.906 92.0361 25.8622C92.0057 25.8123 91.9871 25.8025 91.985 25.8362ZM46.2714 25.929C46.2723 25.9764 46.4587 26.2246 46.4628 26.1838C46.464 26.1723 46.4212 26.0993 46.3676 26.0215C46.3142 25.9439 46.2708 25.9021 46.2714 25.929ZM90.0176 25.901C90.0164 25.9122 90.048 25.9706 90.0875 26.0305C90.127 26.0906 90.1594 26.1176 90.1594 26.091C90.1597 26.0443 90.0211 25.8587 90.0176 25.901ZM36.4742 26.018C37.157 26.0231 38.2739 26.0231 38.9566 26.018C39.6391 26.013 39.0805 26.0087 37.7153 26.0087C36.3501 26.0087 35.7915 26.013 36.4742 26.018ZM72.4028 26.1087C72.2872 26.2684 72.3034 26.2956 72.424 26.1447C72.4789 26.0762 72.5152 26.0143 72.5045 26.0073C72.4939 26.0003 72.4479 26.0459 72.4028 26.1087ZM96.7095 26.0665C96.6785 26.1067 96.6169 26.1725 96.5726 26.2125C96.5284 26.2526 96.5027 26.2855 96.516 26.2855C96.5573 26.2855 96.8148 26.0258 96.7897 26.0093C96.7767 26.0005 96.7404 26.0264 96.7095 26.0665ZM40.2924 26.0772C40.3348 26.1052 40.3696 26.1441 40.3696 26.1635C40.3696 26.183 40.3826 26.1906 40.3982 26.1803C40.4381 26.154 40.3283 26.0262 40.2661 26.0262C40.2381 26.0262 40.2499 26.0492 40.2924 26.0772ZM92.1803 26.082C92.1785 26.1239 92.6858 26.5263 92.8453 26.6097C92.8967 26.6364 92.7955 26.5521 92.6209 26.4222C92.4463 26.2925 92.2758 26.1538 92.2425 26.1143C92.2092 26.0746 92.1812 26.0603 92.1803 26.082ZM69.0601 26.2384C68.9448 26.3981 68.961 26.4253 69.0816 26.2744C69.1365 26.2057 69.1728 26.1439 69.1621 26.1369C69.1515 26.1299 69.1055 26.1756 69.0601 26.2384ZM35.009 26.2448C34.8982 26.3909 34.8996 26.4053 35.0144 26.2923C35.0739 26.2336 35.1123 26.1787 35.0999 26.1705C35.0872 26.1624 35.0465 26.1956 35.009 26.2448ZM50.1877 26.3261L50.101 26.4314L50.1998 26.3549C50.2842 26.2898 50.3293 26.2201 50.2865 26.2209C50.2798 26.2209 50.2352 26.2684 50.1877 26.3261ZM66.6759 26.4096C66.532 26.5045 66.4544 26.5677 66.504 26.5498C66.6107 26.5113 66.9897 26.2581 66.959 26.2456C66.9472 26.2407 66.8198 26.3145 66.6759 26.4096ZM109.488 26.4216C109.645 26.5234 109.824 26.6226 109.885 26.6422C109.959 26.6659 109.947 26.6529 109.85 26.6041C109.769 26.5634 109.59 26.464 109.452 26.3835C109.236 26.2565 109.24 26.2616 109.488 26.4216ZM42.6238 26.4304C42.6665 26.5092 42.7102 26.5681 42.7205 26.5615C42.7473 26.5436 42.6308 26.3217 42.5845 26.3028C42.563 26.294 42.5807 26.3514 42.6238 26.4304ZM90.2122 26.2979C90.2122 26.3327 90.3585 26.5125 90.3868 26.5125C90.4004 26.5125 90.375 26.465 90.3302 26.407C90.2391 26.2888 90.2122 26.2641 90.2122 26.2979ZM96.232 26.4862C96.0176 26.6338 96.012 26.6412 96.1845 26.5455C96.3609 26.4479 96.5369 26.318 96.4927 26.318C96.4836 26.318 96.3662 26.3936 96.232 26.4862ZM107.122 26.3627C107.122 26.3975 107.268 26.5772 107.296 26.5772C107.309 26.5772 107.284 26.5298 107.239 26.4718C107.148 26.3536 107.122 26.3289 107.122 26.3627ZM68.8663 26.5206L68.7796 26.6259L68.8787 26.5494C68.9628 26.4843 69.0079 26.4146 68.9654 26.4154C68.9586 26.4154 68.9141 26.4629 68.8663 26.5206ZM49.9548 26.5529C49.8822 26.6181 49.8704 26.6408 49.9235 26.6122C50.0043 26.5691 50.1261 26.4475 50.0886 26.4475C50.0792 26.4475 50.019 26.495 49.9548 26.5529ZM60.6228 26.5025C60.622 26.5238 60.6712 26.5755 60.732 26.6175C60.7927 26.6595 60.8181 26.6712 60.788 26.6438C60.7579 26.6161 60.709 26.5642 60.6789 26.5286C60.6488 26.493 60.6237 26.4812 60.6228 26.5025ZM113.629 26.5504C113.429 26.6494 113.372 26.6885 113.487 26.6469C113.615 26.6008 113.84 26.4815 113.801 26.4808C113.784 26.4804 113.707 26.5117 113.629 26.5504ZM114.49 26.5393C114.517 26.572 114.577 26.6194 114.624 26.6447C114.677 26.6731 114.665 26.6506 114.593 26.5854C114.464 26.4691 114.416 26.4475 114.49 26.5393ZM72.0967 26.6451C72.0533 26.7002 72.0268 26.7511 72.0374 26.7581C72.048 26.7651 72.0934 26.72 72.1385 26.658C72.2397 26.5181 72.2046 26.5074 72.0967 26.6451ZM42.7332 26.6259C42.7332 26.6438 42.7757 26.7093 42.8276 26.7717C42.8792 26.8342 42.9216 26.8705 42.9216 26.8528C42.9216 26.835 42.8792 26.7692 42.8276 26.707C42.7757 26.6445 42.7332 26.608 42.7332 26.6259ZM44.5019 26.642C44.5027 26.6897 44.6891 26.9378 44.6933 26.8968C44.6944 26.8853 44.6517 26.8124 44.598 26.7348C44.5446 26.657 44.5013 26.6154 44.5019 26.642ZM49.5861 26.7393C49.484 26.7927 49.4203 26.8359 49.4442 26.8353C49.4923 26.8338 49.8453 26.642 49.7999 26.642C49.7846 26.642 49.6881 26.6858 49.5861 26.7393ZM92.9651 26.6502C92.9651 26.6733 93.332 26.8365 93.3842 26.8365C93.4089 26.8365 93.3856 26.8169 93.3323 26.7929C93.0981 26.6875 92.9651 26.6358 92.9651 26.6502ZM63.5214 26.7556C63.6131 26.8001 63.7225 26.8359 63.7644 26.8353C63.8066 26.8346 63.7718 26.8141 63.6871 26.7898C63.6025 26.7655 63.5181 26.7297 63.4998 26.7101C63.4816 26.6904 63.4414 26.6745 63.4108 26.6745C63.3801 26.6745 63.4299 26.7111 63.5214 26.7556ZM110.071 26.7085C110.252 26.7894 110.343 26.8087 110.225 26.7412C110.161 26.7044 110.084 26.6747 110.053 26.6751C110.022 26.6753 110.03 26.6902 110.071 26.7085ZM113.118 26.7556C113.027 26.8001 112.968 26.8365 112.989 26.8365C113.009 26.8365 113.107 26.8001 113.206 26.7556C113.306 26.7111 113.364 26.6745 113.336 26.6745C113.308 26.6745 113.21 26.7111 113.118 26.7556ZM65.9545 26.7739C65.8734 26.8081 65.8324 26.8363 65.8631 26.8363C65.8941 26.8365 65.9713 26.8079 66.0353 26.7729C66.1813 26.6926 66.1462 26.693 65.9545 26.7739ZM68.5885 26.8165L68.4699 26.9176L68.6106 26.8295C68.6879 26.7809 68.7413 26.7356 68.7292 26.7284C68.7171 26.7212 68.654 26.7608 68.5885 26.8165ZM107.416 26.7465C107.416 26.7548 107.474 26.804 107.544 26.8558C107.629 26.9188 107.654 26.9275 107.62 26.8826C107.572 26.8182 107.416 26.7148 107.416 26.7465ZM40.7141 26.8114C40.7138 26.8244 40.758 26.8828 40.812 26.9412C40.866 26.9995 40.9099 27.0328 40.9099 27.0149C40.9099 26.997 40.8657 26.9386 40.812 26.8851C40.7583 26.8316 40.7144 26.7986 40.7141 26.8114ZM47.3741 26.9168C47.4824 26.9606 47.6018 26.9972 47.6396 26.9976C47.6773 26.9981 47.6045 26.9622 47.4774 26.9176C47.181 26.8138 47.1193 26.8132 47.3741 26.9168ZM114.909 26.9421C115.109 27.118 115.091 27.2123 114.833 27.363L114.617 27.4883L114.824 27.3975C115.161 27.2494 115.18 27.0547 114.874 26.8795C114.803 26.8386 114.814 26.8579 114.909 26.9421ZM61.1003 26.9824C61.1841 27.0538 61.3587 27.1777 61.4887 27.258C61.6698 27.3698 61.6512 27.3508 61.41 27.1769C60.9776 26.8655 60.924 26.8318 61.1003 26.9824ZM65.242 26.9176C65.0125 26.976 65.1116 26.9769 65.3894 26.9194C65.511 26.8941 65.5664 26.8735 65.5121 26.8737C65.4582 26.8739 65.3364 26.8935 65.242 26.9176ZM93.7514 26.9176C93.846 26.9417 93.9678 26.9614 94.0218 26.9616C94.0758 26.9618 94.0206 26.9412 93.8988 26.9159C93.621 26.8583 93.5219 26.8593 93.7514 26.9176ZM94.9803 26.9196C94.8856 26.9433 94.8444 26.9633 94.8886 26.9645C94.9328 26.9655 95.0434 26.9448 95.1346 26.919C95.3392 26.8602 95.2157 26.8608 94.9803 26.9196ZM110.931 26.9188C111.012 26.9433 111.134 26.9629 111.201 26.9625C111.276 26.9622 111.227 26.9441 111.078 26.9168C110.775 26.8612 110.741 26.8616 110.931 26.9188ZM112.568 26.8861C112.554 26.8956 112.445 26.9159 112.326 26.9312C112.159 26.9528 112.144 26.9594 112.258 26.9602C112.411 26.9614 112.81 26.8758 112.672 26.8715C112.629 26.8702 112.582 26.8768 112.568 26.8861ZM64.3324 26.933C64.4265 26.9604 64.7397 26.9789 64.697 26.9546C64.6857 26.9482 64.5769 26.9341 64.4554 26.9236C64.3076 26.9106 64.2669 26.9137 64.3324 26.933ZM90.7039 26.9229C90.7039 26.9404 90.7646 26.9904 90.839 27.0335L90.9743 27.1121L90.8513 27.0149C90.7838 26.9614 90.723 26.9116 90.7163 26.9042C90.7095 26.8966 90.7039 26.9052 90.7039 26.9229ZM71.8507 27.0664C71.8076 27.1216 71.7808 27.1726 71.7917 27.1796C71.8023 27.1866 71.8477 27.1415 71.8926 27.0792C71.9937 26.9394 71.9586 26.9289 71.8507 27.0664ZM94.2799 26.9898C94.3678 26.997 94.5114 26.997 94.5993 26.9898C94.6872 26.9826 94.6152 26.9766 94.4397 26.9766C94.2639 26.9766 94.192 26.9826 94.2799 26.9898ZM111.73 26.9892C111.791 26.997 111.88 26.9966 111.927 26.9886C111.974 26.9804 111.924 26.974 111.816 26.9744C111.708 26.9748 111.669 26.9814 111.73 26.9892ZM48.0256 27.0225C48.1404 27.0293 48.3285 27.0293 48.4432 27.0225C48.5583 27.0156 48.4642 27.01 48.2344 27.01C48.0047 27.01 47.9106 27.0156 48.0256 27.0225ZM69.8596 27.0876C69.7488 27.2339 69.7502 27.2483 69.865 27.1351C69.9242 27.0763 69.9629 27.0217 69.9502 27.0133C69.9378 27.0051 69.8971 27.0386 69.8596 27.0876ZM32.4411 27.1263C32.3951 27.1775 32.3577 27.2317 32.3577 27.2467C32.358 27.2619 32.4034 27.2251 32.4588 27.1652C32.5143 27.1053 32.5517 27.051 32.542 27.0446C32.5323 27.0382 32.4868 27.075 32.4411 27.1263ZM67.9453 27.2971C67.7223 27.4364 67.6739 27.4753 67.8226 27.3957C68.0582 27.2695 68.3803 27.0617 68.3355 27.065C68.3237 27.0658 68.1482 27.1703 67.9453 27.2971ZM91.22 27.3228C91.3804 27.4297 91.5229 27.5173 91.5365 27.5173C91.55 27.5173 91.4297 27.4297 91.2692 27.3228C91.1085 27.2158 90.9664 27.1283 90.9528 27.1283C90.9392 27.1283 91.0596 27.2158 91.22 27.3228ZM107.859 27.1372C107.859 27.1434 107.931 27.1833 108.018 27.2257C108.118 27.2734 108.152 27.2811 108.109 27.2461C108.043 27.193 107.859 27.1127 107.859 27.1372ZM50.0993 27.4393C49.7872 27.6132 49.6209 27.7217 49.7828 27.6462C49.8368 27.6209 49.9745 27.5451 50.0889 27.4778C50.2806 27.3648 50.3547 27.3399 50.4623 27.3521C50.4847 27.3549 50.4889 27.3418 50.4718 27.3235C50.4213 27.2701 50.3809 27.2825 50.0993 27.4393ZM96.5995 27.441C96.4523 27.5239 96.2509 27.6252 96.1518 27.6666C96.0527 27.7079 95.9577 27.7567 95.9406 27.775C95.8952 27.823 96.4703 27.5671 96.5508 27.5031C96.7024 27.3825 96.897 27.3148 96.9728 27.3562C97.015 27.3794 97.0448 27.3821 97.0448 27.3626C97.0448 27.3368 96.938 27.2905 96.8782 27.2905C96.872 27.2905 96.7466 27.3582 96.5995 27.441ZM45.1377 27.4364C45.2294 27.4986 45.3156 27.5497 45.3291 27.5497C45.3427 27.5497 45.2787 27.4986 45.187 27.4364C45.0952 27.3739 45.0091 27.3228 44.9956 27.3228C44.982 27.3228 45.046 27.3739 45.1377 27.4364ZM50.5057 27.6511C50.4971 27.8841 50.5098 27.9382 50.5815 27.9753C50.6573 28.0144 50.6605 28.0136 50.6083 27.9695C50.5756 27.9419 50.5414 27.796 50.5322 27.6454L50.5157 27.3714L50.5057 27.6511ZM69.601 27.5027C69.4854 27.6624 69.5016 27.6896 69.6222 27.5387C69.6771 27.47 69.7134 27.4081 69.7027 27.4011C69.6921 27.3941 69.6461 27.4399 69.601 27.5027ZM97.0545 27.6363C97.0442 27.8804 97.0713 27.9712 97.1545 27.9712C97.1867 27.9712 97.1858 27.9563 97.1516 27.9292C97.1224 27.9061 97.0908 27.7785 97.0814 27.6456L97.0643 27.4039L97.0545 27.6363ZM108.616 27.5628C108.695 27.6091 108.769 27.647 108.782 27.647C108.83 27.647 108.673 27.5447 108.576 27.5124C108.507 27.49 108.521 27.5068 108.616 27.5628ZM62.1332 27.6065C62.1969 27.6466 62.2753 27.6789 62.3078 27.6785C62.3399 27.6779 62.3222 27.6612 62.2679 27.6416C62.214 27.6217 62.1355 27.5892 62.0936 27.5696C62.0518 27.5497 62.0695 27.5663 62.1332 27.6065ZM67.4778 27.5503C67.4607 27.5686 67.3395 27.6194 67.208 27.6631C67.0767 27.7071 66.9567 27.7565 66.9413 27.7728C66.8989 27.8182 67.4342 27.6207 67.5038 27.5655C67.5368 27.539 67.5518 27.5173 67.5365 27.5173C67.5212 27.5173 67.4949 27.5322 67.4778 27.5503ZM91.6978 27.5993C91.7712 27.6505 91.8402 27.6857 91.8511 27.6777C91.8618 27.6698 91.8016 27.6279 91.7172 27.585L91.5642 27.5068L91.6978 27.5993ZM43.2699 27.5698C43.2699 27.5877 43.3024 27.6305 43.3419 27.6651C43.3817 27.6997 43.4142 27.7135 43.4142 27.6956C43.4142 27.6777 43.3817 27.6349 43.3419 27.6003C43.3024 27.5657 43.2699 27.5519 43.2699 27.5698ZM45.3675 27.6172C45.4285 27.6659 45.7276 27.79 45.7276 27.7666C45.7276 27.759 45.6335 27.712 45.5188 27.662C45.4037 27.612 45.3356 27.5918 45.3675 27.6172ZM108.989 27.7133C109.16 27.7898 109.257 27.8119 109.137 27.7472C109.069 27.7106 108.992 27.6808 108.965 27.6806C108.938 27.6805 108.949 27.6952 108.989 27.7133ZM113.831 27.7614C113.723 27.8053 113.657 27.8407 113.684 27.8403C113.711 27.8399 113.821 27.8036 113.929 27.7596C114.038 27.7157 114.104 27.6801 114.077 27.6806C114.05 27.681 113.939 27.7174 113.831 27.7614ZM71.4354 27.8012C71.4354 27.8207 71.3753 27.8851 71.3018 27.9444C71.1921 28.0331 71.1886 28.0407 71.2818 27.9878C71.4142 27.9125 71.5047 27.8115 71.4641 27.7847C71.4481 27.7744 71.4354 27.7818 71.4354 27.8012ZM49.0254 27.9249C48.9063 27.9681 48.8399 28.0031 48.878 28.0025C48.916 28.002 49.0358 27.9656 49.1437 27.9216C49.3956 27.8193 49.3097 27.8219 49.0254 27.9249ZM92.5227 27.9063C92.6171 27.9405 92.7168 27.9685 92.7439 27.9685C92.7707 27.9685 92.7156 27.9405 92.6209 27.9063C92.5262 27.8722 92.4268 27.8442 92.3997 27.8442C92.3726 27.8442 92.428 27.8722 92.5227 27.9063ZM63.1282 27.9226C63.1958 27.9481 63.2733 27.9689 63.3002 27.9689C63.3273 27.9689 63.2943 27.9481 63.2264 27.9226C63.1589 27.8971 63.0816 27.8761 63.0545 27.8761C63.0274 27.8761 63.0607 27.8971 63.1282 27.9226ZM69.3739 27.9127C69.3665 28.0424 69.5452 28.0689 70.3772 28.0613L71.165 28.0541L70.4277 28.0453C69.5635 28.035 69.4795 28.0253 69.4211 27.9296C69.3886 27.8767 69.3763 27.8722 69.3739 27.9127ZM109.677 27.9226C109.745 27.9481 109.822 27.9689 109.85 27.9689C109.876 27.9689 109.843 27.9481 109.776 27.9226C109.708 27.8971 109.631 27.8761 109.604 27.8761C109.577 27.8761 109.61 27.8971 109.677 27.9226ZM97.6494 27.9954C97.8871 28.0012 98.2631 28.0012 98.4849 27.9954C98.7067 27.9893 98.5121 27.9845 98.0526 27.9845C97.5928 27.9845 97.4114 27.9893 97.6494 27.9954ZM46.7041 28.086C46.7949 28.1119 46.9055 28.1327 46.9497 28.1319C46.994 28.1311 46.9418 28.1093 46.8335 28.0837C46.5787 28.0232 46.4902 28.0247 46.7041 28.086ZM48.2344 28.0866C48.1398 28.1103 48.0985 28.1303 48.1427 28.1315C48.187 28.1325 48.2976 28.1119 48.3887 28.086C48.5934 28.0272 48.4698 28.0278 48.2344 28.0866ZM93.4216 28.0677C93.6608 28.1169 94.161 28.1369 94.3905 28.1064C94.5913 28.0798 94.5757 28.0774 94.2185 28.0809C94.002 28.0829 93.7036 28.0745 93.5549 28.0621C93.3765 28.0471 93.3311 28.049 93.4216 28.0677ZM110.661 28.0817C110.755 28.1074 110.954 28.1274 111.103 28.1262L111.373 28.1241L111.054 28.099C110.878 28.0852 110.679 28.0652 110.611 28.0545C110.544 28.0438 110.566 28.056 110.661 28.0817ZM64.4589 28.1093C64.6368 28.1239 64.9243 28.1239 65.0981 28.1091C65.3741 28.0856 65.3334 28.0823 64.7748 28.0825C64.2106 28.0825 64.1738 28.0856 64.4589 28.1093ZM112.037 28.1008C111.87 28.1239 111.869 28.1247 112.012 28.1257C112.093 28.1263 112.215 28.1152 112.283 28.1008C112.444 28.0667 112.282 28.0667 112.037 28.1008ZM47.2883 28.1572C47.4302 28.1638 47.6623 28.1638 47.8044 28.1572C47.9463 28.1506 47.8301 28.1453 47.5464 28.1453C47.2624 28.1453 47.1462 28.1506 47.2883 28.1572ZM111.484 28.1562C111.546 28.164 111.634 28.1636 111.681 28.1556C111.728 28.1475 111.678 28.141 111.57 28.1414C111.462 28.1418 111.423 28.1484 111.484 28.1562Z" fill="white"/>
<path fill-rule="evenodd" clip-rule="evenodd" d="M36.7477 20.0219C36.6825 20.0493 36.3882 20.4451 36.3879 20.5054C36.3879 20.5268 36.3328 20.6128 36.2652 20.6966C36.1977 20.7804 36.1422 20.8783 36.1422 20.9139C36.1422 20.9496 36.0891 21.0531 36.024 21.1441C35.9591 21.235 35.8452 21.4188 35.7715 21.5526C35.6975 21.6862 35.5884 21.8687 35.5288 21.9577C35.4692 22.0468 35.3816 22.1927 35.3344 22.282C35.2869 22.3711 35.1926 22.5387 35.1244 22.6546C35.056 22.7706 34.9566 22.9456 34.9032 23.0436C34.8499 23.1417 34.7879 23.2366 34.7661 23.2545C34.744 23.2722 34.6894 23.3704 34.6443 23.4727C34.5995 23.5748 34.5426 23.6668 34.5175 23.6769C34.4927 23.6871 34.4358 23.7785 34.391 23.88C34.3464 23.9817 34.2689 24.1157 34.2184 24.1778C34.168 24.24 34.127 24.3093 34.127 24.3316C34.127 24.3542 34.0359 24.5149 33.9247 24.6887C33.8135 24.8626 33.6908 25.0706 33.6519 25.1509C33.6129 25.231 33.538 25.3506 33.4852 25.4166C33.4327 25.4825 33.3891 25.5554 33.3885 25.5786C33.3879 25.6019 33.2865 25.7813 33.1635 25.9775C33.0405 26.1736 32.9081 26.3988 32.8694 26.478C32.8305 26.5571 32.7695 26.6519 32.7335 26.6886C32.6978 26.7254 32.6412 26.8283 32.6075 26.9172C32.5742 27.006 32.5244 27.0965 32.4972 27.1179C32.4465 27.1585 32.2592 27.4808 32.1283 27.7537C32.0109 27.9986 32.028 28.0036 32.9901 28.0031C33.963 28.0025 34.0214 27.9898 34.1184 27.7599C34.1559 27.671 34.2161 27.5761 34.2523 27.5491C34.2883 27.5221 34.3417 27.4301 34.3709 27.3445C34.3998 27.2589 34.4547 27.1572 34.4924 27.1181C34.5305 27.0792 34.5871 26.9815 34.6183 26.9014C34.6499 26.8211 34.7036 26.7263 34.7378 26.6906C34.772 26.655 34.828 26.5674 34.862 26.4961C34.9619 26.287 35.161 26.0326 35.2409 26.0123C35.3675 25.9802 40.1087 25.9915 40.2391 26.0242C40.3323 26.0475 40.3803 26.0989 40.4434 26.243C40.4892 26.3465 40.544 26.4459 40.5658 26.4638C40.5874 26.4815 40.639 26.569 40.6803 26.6583C40.7213 26.7474 40.8012 26.8781 40.8572 26.9487C40.9133 27.0193 40.9593 27.0947 40.9593 27.1165C40.9593 27.1585 41.1955 27.5623 41.3698 27.8183C41.5011 28.0114 41.4775 28.0077 42.5569 27.9964C43.5806 27.9859 43.5729 27.9891 43.3508 27.6734C43.2842 27.5787 43.214 27.4513 43.1948 27.3904C43.1756 27.3293 43.1184 27.2346 43.0674 27.1795C43.0167 27.1247 42.9751 27.0601 42.9748 27.0364C42.9748 27.0127 42.912 26.8959 42.8356 26.7771C42.7589 26.6583 42.6347 26.4515 42.5598 26.3179C42.4846 26.1841 42.3832 26.0164 42.3339 25.945C42.285 25.8736 42.2295 25.7604 42.2109 25.6935C42.1924 25.6264 42.1384 25.5389 42.0912 25.499C42.044 25.459 41.9709 25.3534 41.929 25.2643C41.8871 25.1752 41.7827 24.9856 41.6966 24.8428C41.6108 24.7002 41.5061 24.5106 41.4639 24.4215C41.422 24.3322 41.3574 24.2289 41.3209 24.192C41.284 24.1548 41.2185 24.0455 41.1755 23.9489C41.1321 23.8522 41.079 23.7584 41.0572 23.7407C41.0354 23.7228 40.9734 23.6279 40.9195 23.5299C40.8658 23.4319 40.7617 23.2496 40.6885 23.1248C40.6157 22.9999 40.5234 22.8322 40.4838 22.7519C40.4446 22.6718 40.3697 22.5477 40.3178 22.4765C40.2659 22.4051 40.1447 22.2081 40.0482 22.0389C39.9521 21.8694 39.8303 21.6625 39.7775 21.5789C39.7247 21.4954 39.6814 21.4073 39.6814 21.3832C39.6814 21.3591 39.635 21.2815 39.5784 21.2109C39.5218 21.1403 39.446 21.0167 39.41 20.9366C39.2525 20.5859 38.8747 20.0433 38.7691 20.0164C38.6559 19.9878 36.8173 19.9927 36.7477 20.0219ZM74.1497 20.0172C74.0878 20.0347 73.7946 20.4173 73.7946 20.4805C73.7946 20.4986 73.741 20.5906 73.6755 20.6849C73.61 20.7793 73.541 20.9 73.5221 20.9533C73.5032 21.0066 73.4584 21.0813 73.4224 21.1194C73.3865 21.1576 73.3139 21.2671 73.2611 21.3626C73.172 21.5238 73.0786 21.6852 72.7851 22.1847C72.7223 22.2917 72.6179 22.474 72.553 22.5899C72.4884 22.7058 72.4097 22.8297 72.3784 22.8655C72.3471 22.9011 72.2752 23.0178 72.2188 23.1248C72.0206 23.5001 71.9363 23.6443 71.8584 23.7407C71.8151 23.7942 71.7794 23.8598 71.7791 23.8866C71.7788 23.9133 71.7425 23.979 71.6989 24.0325C71.6549 24.086 71.5688 24.2173 71.5075 24.3242C71.4464 24.4312 71.3367 24.6209 71.2639 24.7455C71.1913 24.8704 71.0896 25.0529 71.0382 25.1509C70.9869 25.2489 70.9114 25.3677 70.8704 25.4152C70.8297 25.4625 70.7961 25.5212 70.7961 25.5457C70.7961 25.57 70.7303 25.6772 70.6501 25.7838C70.5699 25.8904 70.5035 26.0057 70.5027 26.0401C70.5018 26.0746 70.4581 26.1621 70.4056 26.2346C70.3074 26.3704 70.216 26.5264 70.0532 26.8364C70.0016 26.9345 69.9181 27.0731 69.8674 27.1445C69.2421 28.0239 69.2492 28.0359 70.3791 28.0359C71.3866 28.0359 71.2883 28.0921 71.7349 27.2597C71.7871 27.1626 71.8596 27.0529 71.8962 27.0162C71.9331 26.9792 71.9794 26.8981 71.9994 26.836C72.0192 26.7738 72.0779 26.6719 72.1295 26.6096C72.1808 26.5472 72.2536 26.4231 72.2908 26.334C72.328 26.245 72.4291 26.0625 72.5152 25.9289C72.6999 25.643 72.8818 25.3347 73.0131 25.0859C73.0647 24.9879 73.1375 24.864 73.1747 24.8105C73.2941 24.6391 73.4558 24.3614 73.533 24.1945C73.5743 24.1054 73.628 24.0164 73.6522 23.9965C73.6938 23.9629 73.7643 23.8405 73.968 23.449C74.0144 23.3597 74.0928 23.2284 74.1423 23.1572C74.1916 23.0859 74.2792 22.94 74.3364 22.833C74.5968 22.3473 74.6328 22.2865 74.6829 22.2468C74.7121 22.2234 74.7655 22.1344 74.8015 22.0488C74.864 21.8998 75.0083 21.6477 75.1498 21.439C75.1861 21.3855 75.2589 21.2616 75.3114 21.1636C75.3639 21.0654 75.4672 20.8831 75.5409 20.7583C75.8261 20.2745 75.9116 20.0829 75.8576 20.0473C75.8031 20.0114 74.2662 19.9841 74.1497 20.0172ZM77.0141 20.0189C76.9601 20.0285 76.8996 20.053 76.8799 20.0732C76.7819 20.1728 76.8386 27.9352 76.9371 27.97C77.0828 28.0213 78.6205 28.0139 78.7296 27.9612C78.8087 27.9231 78.8234 23.5457 78.7473 22.6871C78.7255 22.4399 78.9205 22.4775 79.1747 22.7694C79.2841 22.895 79.4625 23.0847 79.5717 23.1909C79.6805 23.2971 79.8772 23.5042 80.0084 23.6513C80.14 23.7983 80.2774 23.9349 80.3143 23.9551C80.3512 23.9753 80.3812 24.0058 80.3812 24.023C80.3812 24.0403 80.4957 24.1661 80.6352 24.3027C80.9498 24.6104 81.1023 24.7683 81.1253 24.8105C81.1351 24.8282 81.2519 24.9523 81.3846 25.0859C81.5176 25.2197 81.6883 25.3948 81.7644 25.4749C81.9871 25.7103 81.9585 25.7019 82.5427 25.7019C83.2972 25.7019 83.2458 25.7247 83.7685 25.1589C83.8384 25.083 83.9876 24.9356 84.1 24.8313C84.2123 24.7269 84.3504 24.5822 84.4064 24.5094C84.4627 24.4367 84.5306 24.3682 84.5574 24.3573C84.5842 24.3464 84.6851 24.247 84.7818 24.1364C84.8783 24.0257 85.0337 23.8695 85.1272 23.7894C85.2204 23.709 85.3239 23.6069 85.3572 23.5624C85.4254 23.4712 85.8819 23.0059 86.0249 22.8816C86.0766 22.8371 86.1329 22.7706 86.1503 22.7338C86.168 22.697 86.2594 22.6175 86.3541 22.5572C86.5962 22.4022 86.6381 22.4465 86.6015 22.8207C86.5154 23.7046 86.5192 27.9202 86.6059 27.9622C86.7236 28.0188 88.2979 28.0209 88.3835 27.9645C88.5009 27.8873 88.4652 20.0717 88.3475 20.03C88.2944 20.0114 87.9343 19.9966 87.5305 19.9966H86.8089L86.6304 20.1185C86.5322 20.1856 86.4075 20.2903 86.3535 20.3512C86.165 20.563 86.1055 20.6256 85.7636 20.9724C85.5743 21.1642 85.3643 21.383 85.2968 21.4585C85.2292 21.5339 85.0576 21.7117 84.9157 21.8539C84.7739 21.9959 84.6577 22.1229 84.6577 22.1359C84.6577 22.1489 84.5913 22.2147 84.5102 22.282C84.4291 22.3493 84.3627 22.4181 84.3627 22.4352C84.3627 22.4522 84.317 22.5049 84.261 22.5523C84.161 22.6371 83.7679 23.0409 83.5272 23.3058C83.3877 23.4593 82.93 23.9302 82.8126 24.0412C82.7173 24.1309 82.4758 24.063 82.3776 23.9189C82.321 23.8359 82.234 23.7409 82.006 23.5138C81.9346 23.4424 81.8491 23.3477 81.816 23.3031C81.783 23.2586 81.6907 23.1563 81.6111 23.0761C81.5312 22.9958 81.4208 22.8791 81.3654 22.8169C81.3102 22.7544 81.1666 22.6012 81.0466 22.4765C80.9263 22.3516 80.8269 22.2394 80.8257 22.2273C80.8245 22.2151 80.7239 22.1091 80.6024 21.992C80.4806 21.8747 80.3812 21.7695 80.3812 21.7578C80.3812 21.7463 80.3302 21.6919 80.2677 21.6366C80.2052 21.5814 80.1258 21.49 80.091 21.4334C80.0565 21.3766 79.986 21.3052 79.9344 21.2743C79.8828 21.2435 79.8406 21.2056 79.8406 21.1899C79.8406 21.1743 79.7359 21.0566 79.6079 20.9286C79.4799 20.8005 79.3416 20.6563 79.3006 20.6083C79.2596 20.5602 79.1658 20.4504 79.0918 20.364C79.0181 20.2778 78.9025 20.1635 78.8346 20.11L78.7114 20.0127L77.9118 20.0071C77.4724 20.004 77.0683 20.0092 77.0141 20.0189ZM116.291 20.3444C115.953 20.401 115.478 20.8361 115.478 21.0889C115.478 21.8208 117.253 22.1445 117.751 21.5036C117.8 21.4413 117.872 21.3904 117.912 21.3904C118.056 21.3904 118.012 20.8467 117.861 20.7688C117.794 20.7337 117.739 20.6873 117.739 20.6655C117.739 20.4437 116.86 20.2489 116.291 20.3444ZM55.8885 20.5075C55.8233 20.555 55.8074 20.6754 55.7947 21.2196C55.7752 22.0546 55.8634 21.9867 54.7825 22.0011C53.7588 22.0147 53.8378 21.9655 53.8378 22.5899C53.8378 23.2166 53.7553 23.1664 54.8073 23.1792C55.4172 23.1868 55.6696 23.2014 55.7156 23.2317C55.7664 23.2654 55.782 23.7454 55.7926 25.5955C55.802 27.2282 55.8221 27.9301 55.8601 27.9605C55.9339 28.019 57.4758 28.0227 57.5636 27.9645C57.6085 27.9352 57.6229 27.3664 57.6235 25.6062C57.6238 24.204 57.6427 23.2675 57.6707 23.2381C57.709 23.1983 57.8878 23.1878 58.664 23.1794C59.8337 23.167 59.7364 23.2204 59.7364 22.5899C59.7364 21.9564 59.8304 22.0093 58.6835 21.9986C57.5203 21.9879 57.6226 22.0639 57.6226 21.2111C57.6226 20.3877 57.6981 20.4504 56.7048 20.4504C56.0625 20.4504 55.9566 20.4577 55.8885 20.5075ZM102.36 20.5071C102.264 20.5606 102.257 20.6009 102.244 21.2192C102.227 22.0548 102.315 21.9867 101.233 22.0011C100.253 22.0143 100.34 21.9575 100.339 22.5914C100.338 23.2212 100.262 23.1734 101.257 23.1734C102.39 23.1734 102.255 22.8412 102.255 25.6196C102.255 27.877 102.257 27.9373 102.35 27.97C102.542 28.0377 104.014 28.0128 104.072 27.9408C104.106 27.8992 104.123 27.0957 104.123 25.5593C104.123 23.3 104.125 23.2397 104.218 23.207C104.273 23.1874 104.68 23.1734 105.191 23.1734C106.275 23.1734 106.187 23.2249 106.187 22.5873C106.187 21.964 106.276 22.0151 105.175 22.0013C104.02 21.9867 104.123 22.0604 104.123 21.2478C104.123 20.3877 104.194 20.4504 103.216 20.4504C102.57 20.4504 102.448 20.4585 102.36 20.5071ZM117.218 20.5962C117.291 20.6408 117.368 20.6773 117.39 20.6773C117.461 20.6773 117.689 21.0045 117.689 21.1056C117.689 21.2249 117.45 21.4849 117.339 21.4865C117.295 21.4872 117.223 21.5228 117.181 21.566C117.087 21.6604 116.872 21.6961 116.576 21.667C116.331 21.6427 116.261 21.5798 116.38 21.4925C116.424 21.4608 116.473 21.388 116.491 21.3309C116.533 21.192 116.592 21.1749 116.732 21.2614C116.86 21.3408 117.001 21.3291 117.001 21.2393C117.001 21.2083 117.059 21.1286 117.129 21.0619C117.386 20.8174 117.226 20.6754 116.673 20.6563C116.249 20.6417 116.198 20.6274 116.335 20.5612C116.507 20.478 117.06 20.5 117.218 20.5962ZM116.24 20.7826C116.378 21.278 116.15 21.6769 115.922 21.3375C115.761 21.0973 115.759 21.0611 115.896 20.8631C116.049 20.6435 116.192 20.61 116.24 20.7826ZM116.928 20.9366C116.928 20.9938 116.622 21.0239 116.547 20.9741C116.461 20.9172 116.563 20.868 116.748 20.8781C116.868 20.8847 116.928 20.9041 116.928 20.9366ZM117.001 21.3838C117.001 21.4009 117.037 21.4345 117.081 21.4585C117.149 21.496 117.158 21.4937 117.142 21.4408C117.123 21.3777 117.001 21.3283 117.001 21.3838ZM37.8543 21.5769C37.8785 21.608 37.9136 21.6993 37.9321 21.7794C37.9507 21.8597 37.9982 21.9577 38.0374 21.9974C38.0767 22.0369 38.1336 22.1464 38.1637 22.2405C38.194 22.3345 38.251 22.4535 38.2908 22.5047C38.3303 22.5558 38.3919 22.6651 38.4273 22.7478C38.5093 22.9386 38.7302 23.3545 38.8169 23.4813C38.8535 23.5348 38.9083 23.6308 38.9393 23.6946C38.9703 23.7586 39.039 23.8674 39.0927 23.9366C39.1461 24.0058 39.1906 24.0848 39.1915 24.1122C39.1921 24.1397 39.2472 24.235 39.3139 24.3242C39.6371 24.7578 39.6047 24.7663 37.6868 24.7549C35.8402 24.7442 35.8234 24.7416 36.0316 24.503C36.0924 24.4332 36.1422 24.3546 36.1422 24.3283C36.1422 24.2752 36.3882 23.8469 36.5377 23.6398C36.5905 23.5667 36.6342 23.4863 36.6348 23.4616C36.6354 23.4367 36.6825 23.351 36.7395 23.2706C36.7967 23.1903 36.8728 23.0518 36.909 22.9627C36.9958 22.7486 37.163 22.4152 37.2762 22.2302C37.3264 22.1484 37.3912 22.0097 37.4207 21.9223C37.5139 21.6454 37.7567 21.4517 37.8543 21.5769ZM93.7196 21.8759C93.6075 21.8916 93.399 21.9274 93.256 21.9554C93.1129 21.9834 92.9392 22.0066 92.8699 22.0068C92.8003 22.0071 92.6882 22.0283 92.6207 22.054C92.5531 22.0797 92.3871 22.1382 92.252 22.1843C92.117 22.2302 91.9438 22.2905 91.8677 22.3182C91.6698 22.3903 90.8898 22.9042 90.7222 23.0728C90.6444 23.1514 90.565 23.2315 90.5456 23.2512C90.414 23.3848 90.1327 23.8586 90.0044 24.162C89.9091 24.3877 89.9324 25.6883 90.0351 25.8639C90.082 25.9443 90.1495 26.0755 90.1852 26.1557C90.4217 26.688 91.2864 27.4509 91.9093 27.6765C92.0167 27.7154 92.16 27.7673 92.2275 27.792C93.279 28.1736 94.9695 28.1695 95.8944 27.7831C96.1554 27.674 96.3727 27.5685 96.5992 27.4409C96.8906 27.2768 96.8886 27.2776 96.995 27.3219C97.0475 27.3439 97.0732 27.4281 97.0862 27.6212C97.0959 27.7691 97.1266 27.9083 97.154 27.9305C97.2236 27.9869 98.8666 27.9883 98.9519 27.9323C99.0218 27.8862 99.0392 22.0542 98.9693 22.0258C98.9059 22 97.2773 21.9976 97.1797 22.0231C97.1112 22.0412 97.0938 22.0851 97.0938 22.2388C97.0938 22.5868 96.9956 22.6257 96.6258 22.4238C96.2126 22.198 95.8442 22.0462 95.616 22.0075C95.4959 21.9873 95.3095 21.9478 95.2013 21.9198C94.971 21.8603 94.0287 21.8323 93.7196 21.8759ZM110.537 21.8932C110.402 21.9194 110.146 21.9622 109.968 21.9883C109.414 22.0694 108.466 22.4411 108.05 22.7408C107.676 23.0094 107.121 23.5877 107.121 23.7081C107.121 23.719 107.078 23.7903 107.025 23.8666C106.973 23.9428 106.907 24.1243 106.878 24.27C106.85 24.4157 106.803 24.6518 106.776 24.7947C106.718 25.0896 106.858 25.9009 107.005 26.1199C107.562 26.9512 108.007 27.3044 108.983 27.6876C109.234 27.7862 109.231 27.7852 109.661 27.8957C110.715 28.166 112.503 28.1709 113.293 27.9054C113.397 27.8702 113.511 27.8414 113.545 27.8414C113.65 27.8414 114.213 27.6522 114.524 27.5121C115.18 27.2175 115.186 27.1511 114.602 26.6419C114.551 26.5974 114.481 26.5245 114.445 26.4799C114.31 26.3078 114.185 26.3095 113.819 26.4891C112.903 26.938 111.712 27.1169 110.929 26.923C110.822 26.8963 110.661 26.8662 110.571 26.8559C110.17 26.81 109.341 26.4085 109.131 26.1588C109.078 26.0948 109.003 26.0059 108.965 25.9612C108.373 25.2635 108.133 25.3129 112.115 25.3129H115.431L115.479 25.2297C115.599 25.0208 115.496 24.0039 115.333 23.7935C115.282 23.7271 115.224 23.6186 115.206 23.5525C115.187 23.4863 115.13 23.3973 115.079 23.3545C115.028 23.3117 114.986 23.2677 114.986 23.257C114.986 23.1374 114.116 22.4928 113.708 22.3106C112.829 21.9177 111.39 21.7282 110.537 21.8932ZM64.1558 21.8904C64.1443 21.898 63.9111 21.9338 63.6374 21.97C62.9587 22.0599 62.1032 22.3473 61.6086 22.6521C61.3806 22.7925 60.8668 23.2119 60.8668 23.2576C60.8668 23.2782 60.8382 23.3109 60.8031 23.3301C60.7244 23.3731 60.4831 23.745 60.295 24.1134C60.1372 24.4223 60.0847 25.4788 60.2144 25.7344C60.4409 26.1798 60.6356 26.4737 60.9022 26.7717C61.065 26.9539 61.8578 27.4736 62.1382 27.5822C62.2536 27.6267 62.4214 27.6946 62.5116 27.7329C62.6019 27.7712 62.7275 27.8119 62.7912 27.8235C62.8549 27.835 63.0505 27.879 63.2262 27.9212C64.2691 28.1711 66.361 28.0803 66.9621 27.7588C67.0025 27.737 67.1243 27.6899 67.2325 27.6539C68.0403 27.3849 69.0507 26.4999 69.2206 25.9125C69.2516 25.8056 69.3144 25.6525 69.3607 25.5722C69.4686 25.3841 69.4804 24.5804 69.3778 24.4052C69.3412 24.3427 69.2817 24.1932 69.2451 24.0728C69.1793 23.8549 68.7691 23.2644 68.5898 23.1286C68.063 22.7303 67.5693 22.4331 67.2325 22.3113C66.5704 22.0723 66.4126 22.0289 66.0528 21.9873C65.8363 21.9624 65.5821 21.9272 65.4877 21.9093C65.3229 21.878 64.1989 21.862 64.1558 21.8904ZM44.5668 22.0017C44.3459 22.0293 44.3509 21.9815 44.3509 23.9792C44.3509 26.3377 44.3955 26.5947 44.9051 27.1863C45.1817 27.5077 46.0863 28.0031 46.3968 28.0034C46.4272 28.0034 46.5903 28.0326 46.7596 28.0684C47.1344 28.1474 47.9222 28.1575 48.2448 28.0875C48.3607 28.0624 48.5327 28.0318 48.6274 28.0198C48.9308 27.9807 49.4284 27.8031 49.8006 27.6006C50.4364 27.2548 50.3993 27.2692 50.4771 27.3394C50.5211 27.3789 50.5444 27.4917 50.5444 27.6629C50.5444 28.0157 50.5117 28.0034 51.4619 28.0034C52.2022 28.0034 52.2653 27.9988 52.3122 27.9408C52.3791 27.8585 52.3818 22.1085 52.3151 22.0389C52.2668 21.9883 50.6627 21.9832 50.5845 22.0334C50.5659 22.0453 50.5429 22.9229 50.5332 23.9839C50.5155 25.9009 50.5146 25.9133 50.407 26.0411C50.3474 26.1117 50.2987 26.1899 50.2987 26.2148C50.2987 26.391 49.7743 26.723 49.1927 26.9152C48.7471 27.0624 47.7488 27.0648 47.3739 26.9195C46.9333 26.7487 46.4647 26.4093 46.4647 26.2609C46.4647 26.2374 46.4148 26.1566 46.3541 26.0816L46.2435 25.945L46.2284 23.9901C46.2169 22.5129 46.1989 22.032 46.1547 22.0221C46.0774 22.0046 44.6866 21.9867 44.5668 22.0017ZM65.8163 23.1148C66.277 23.2308 66.7456 23.4822 67.032 23.7676C67.6436 24.3768 67.6672 25.5004 67.0806 26.0983C67.0154 26.1648 66.9621 26.2327 66.9621 26.249C66.9621 26.2907 66.4678 26.5844 66.1879 26.7088C65.4792 27.0243 64.1603 27.034 63.4474 26.7289C63.0277 26.5492 62.7774 26.4041 62.6877 26.2883C62.6364 26.2218 62.5597 26.1485 62.5172 26.1253C62.4748 26.102 62.44 26.068 62.44 26.0495C62.44 26.0312 62.386 25.9409 62.3202 25.8491C62.0949 25.5352 62.0185 24.6588 62.1875 24.3242C62.7408 23.2273 64.2558 22.7223 65.8163 23.1148ZM112.135 23.0744C112.23 23.1055 112.392 23.1495 112.496 23.1718C113.092 23.3008 113.874 24.1476 113.514 24.2745C113.378 24.3227 108.88 24.3206 108.807 24.2721C108.767 24.2459 108.776 24.1815 108.838 24.0323C108.92 23.8376 108.982 23.7678 109.303 23.5114C109.485 23.3661 109.898 23.1868 110.12 23.1574C110.214 23.1448 110.343 23.1135 110.404 23.0874C110.669 22.9767 111.812 22.9682 112.135 23.0744ZM95.211 23.1117C95.3243 23.1458 95.4555 23.1734 95.5021 23.1734C95.6366 23.1734 96.2444 23.4605 96.4568 23.6242C97.5707 24.4835 97.241 26.2263 95.8773 26.6871C95.7894 26.7166 95.7174 26.7538 95.7174 26.7695C95.7174 26.9463 94.2198 27.034 93.6196 26.8926C93.0985 26.7699 92.1783 26.2533 92.1783 26.0835C92.1783 26.0637 92.145 26.0232 92.1046 25.9937C91.6589 25.669 91.6634 24.3213 92.1111 23.9813C92.1479 23.9531 92.1783 23.9138 92.1783 23.894C92.1783 23.8296 92.708 23.4441 92.9613 23.3239C93.5742 23.0335 94.6188 22.9351 95.211 23.1117Z" fill="white"/>
</svg>
