<svg width="159" height="24" viewBox="0 0 159 24" fill="none" xmlns="http://www.w3.org/2000/svg">
<g clip-path="url(#clip0_2126_120311)">
<path d="M15.7005 0.705078C10.7427 7.2191 5.81946 13.686 0.847744 20.2177C0.809633 19.5975 0.85987 19.0569 0.887587 18.5177C1.12318 14.0587 1.74508 9.64676 3.1136 5.32618C3.48431 4.15801 3.92258 3.00752 4.46479 1.8865C4.54968 1.70973 4.6744 1.62429 4.89441 1.58746C6.85884 1.26633 8.83886 1.04684 10.8327 0.906892C12.345 0.800829 13.8591 0.718336 15.3783 0.705078C15.4667 0.705078 15.555 0.705078 15.7005 0.705078Z" fill="white"/>
<path d="M19.3457 0.699219C20.3886 0.744885 21.3812 0.777293 22.3738 0.831797C23.6366 0.901033 24.8977 0.996784 26.1554 1.11463C27.3923 1.23101 28.6257 1.37537 29.8556 1.53299C30.0479 1.55803 30.0583 1.65673 30.0669 1.78489C30.1484 2.92654 30.1362 4.07113 30.1068 5.21278C30.0565 7.14843 29.885 9.07818 29.6356 11.002C29.3116 13.5196 28.8353 16.0135 28.1146 18.4721C27.9483 19.0378 27.7595 19.5975 27.5222 20.1573C24.8042 13.689 22.0845 7.21766 19.3457 0.699219Z" fill="white"/>
<path d="M15.4699 13.2781C15.948 14.4138 16.4088 15.5039 16.8661 16.5925C17.8379 18.9009 18.808 21.2107 19.7781 23.519C19.8942 23.793 19.8924 23.7857 19.5286 23.8107C17.4135 23.9565 15.2932 24.0169 13.1711 23.9963C11.373 23.9801 9.57483 23.9109 7.78016 23.8019C7.48047 23.7842 7.47528 23.7754 7.6589 23.5367C9.74806 20.7923 11.8389 18.048 13.9281 15.3036C14.4287 14.6451 14.9294 13.9866 15.4681 13.2766L15.4699 13.2781Z" fill="white"/>
<path d="M65.4666 20.9558C64.7685 21.4846 64.0895 21.8912 63.3272 22.1903C61.5638 22.8826 59.7674 22.9415 57.9865 22.2875C56.2317 21.6437 55.3465 20.4284 55.0971 18.8537C54.9221 17.7518 55.1594 16.6779 55.4314 15.607C56.0602 13.1307 56.696 10.6559 57.3196 8.17818C57.3664 7.9911 57.4409 7.92923 57.6695 7.93217C58.9584 7.94248 60.2455 7.94101 61.5343 7.93217C61.7612 7.93217 61.8253 7.96458 61.7751 8.17523C61.1411 10.7694 60.5157 13.3649 59.899 15.9635C59.7622 16.5409 59.6842 17.1258 59.6877 17.7165C59.6946 19.0717 60.8102 19.9143 62.4039 19.7921C64.0202 19.6683 65.0699 18.8949 65.801 17.7341C66.4194 16.7501 66.7087 15.6777 66.9755 14.5979C67.5056 12.4605 68.0443 10.3245 68.5675 8.18554C68.616 7.98815 68.7026 7.92923 68.9399 7.9307C70.2183 7.94101 71.4968 7.94101 72.7735 7.9307C73.0177 7.92923 73.0784 7.97342 73.0229 8.18554C72.2434 11.226 71.4691 14.2694 70.7017 17.3128C70.2946 18.9303 69.8407 20.5389 69.5497 22.1755C69.5185 22.3538 69.4388 22.3906 69.2431 22.3891C67.975 22.3818 66.707 22.3818 65.4389 22.3891C65.2224 22.3891 65.1635 22.3523 65.2137 22.1593C65.3107 21.7866 65.3731 21.408 65.4649 20.9543L65.4666 20.9558Z" fill="white"/>
<path d="M83.2047 3.66016C83.0401 4.31422 82.879 4.95501 82.7179 5.59434C82.536 6.31173 82.3628 7.0306 82.1687 7.74506C82.1202 7.92183 82.1861 7.94245 82.368 7.94098C83.5043 7.93508 84.6425 7.94245 85.7789 7.93361C86.0196 7.93214 86.0872 7.96455 86.0248 8.18698C85.8152 8.94268 85.6333 9.7028 85.4514 10.4644C85.4116 10.6308 85.3406 10.7016 85.1171 10.7001C83.9703 10.6883 82.8235 10.6986 81.6768 10.6912C81.4897 10.6912 81.4117 10.7399 81.3719 10.8931C80.8175 13.0865 80.2545 15.2785 79.7054 17.4734C79.6101 17.8564 79.5685 18.2526 79.6344 18.6445C79.7504 19.3398 80.3654 19.7861 81.2212 19.8009C81.9002 19.8112 82.5637 19.7198 83.2064 19.5313C83.39 19.4768 83.442 19.4886 83.3952 19.6639C83.1683 20.5124 82.9517 21.3638 82.7283 22.2123C82.7057 22.3007 82.6954 22.3906 82.5498 22.423C81.1311 22.7397 79.7089 22.8561 78.2659 22.5364C76.317 22.1048 75.2309 20.9381 75.1772 19.2249C75.139 18.0184 75.4024 16.8473 75.7038 15.6791C76.1091 14.1044 76.511 12.5282 76.9251 10.9549C76.9839 10.731 76.9199 10.6854 76.6617 10.6898C75.8268 10.703 74.9918 10.6942 74.1568 10.6957C73.9085 10.6957 73.8098 10.597 73.8606 10.3996C74.046 9.66597 74.2417 8.93237 74.408 8.19582C74.4565 7.9778 74.5622 7.92919 74.8047 7.93361C75.6501 7.94687 76.4954 7.93067 77.3391 7.94245C77.5868 7.9454 77.7029 7.90415 77.7548 7.66993C77.9419 6.84058 78.1688 6.01859 78.3785 5.19218C78.4114 5.0655 78.4374 4.95796 78.6227 4.9064C80.1125 4.5013 81.5988 4.08442 83.0851 3.67195C83.1111 3.66458 83.1406 3.66606 83.2047 3.65869V3.66016Z" fill="white"/>
<path d="M53.7996 22.1887C53.7355 21.9663 53.7009 21.7364 53.6524 21.5111C53.1812 19.3088 52.7117 17.105 52.2388 14.9028C51.7434 12.5915 51.2462 10.2787 50.7508 7.96743C50.4008 6.33377 50.0492 4.70011 49.7097 3.06498C49.6663 2.85138 49.5659 2.80129 49.3216 2.80277C47.8128 2.81308 46.3039 2.8116 44.7951 2.80424C44.5907 2.80424 44.4746 2.85285 44.3655 3.00605C40.2114 8.84098 36.0504 14.673 31.8912 20.5049C31.4546 21.1163 31.0198 21.7276 30.5625 22.3684C30.6457 22.3802 30.6751 22.3876 30.7045 22.3876C32.2948 22.3876 33.8833 22.3846 35.4736 22.392C35.6624 22.392 35.7352 22.3154 35.8131 22.1975C36.7001 20.8393 37.5905 19.4841 38.4739 18.1244C38.5709 17.9756 38.6662 17.9035 38.8862 17.9049C41.9645 17.9123 45.0428 17.9123 48.1211 17.9049C48.3446 17.9049 48.4277 17.9521 48.4607 18.1495C48.6876 19.5003 48.9353 20.8467 49.1674 22.1961C49.19 22.3286 49.2263 22.3905 49.4013 22.389C50.8097 22.3846 52.218 22.3846 53.6264 22.389C53.8187 22.389 53.8395 22.3316 53.7996 22.1872V22.1887ZM47.5079 14.8144C46.4217 14.807 45.3339 14.81 44.2477 14.81C43.1615 14.81 42.0737 14.81 40.9875 14.81C40.674 14.81 40.674 14.8085 40.8299 14.5698C42.583 11.8756 44.3378 9.17979 46.0926 6.4855C46.1376 6.41479 46.155 6.294 46.2797 6.31315C46.3854 6.33083 46.349 6.44278 46.3611 6.51349C46.6591 8.2429 46.9553 9.97232 47.2498 11.7017C47.4144 12.6637 47.5703 13.6271 47.7452 14.5875C47.7799 14.779 47.7192 14.8144 47.5079 14.8129V14.8144Z" fill="white"/>
<path d="M102.446 12.8109C102.176 11.0476 101.201 9.61726 99.4045 8.64354C97.9875 7.87606 96.4111 7.59765 94.7498 7.61827C94.509 7.61827 94.2665 7.61091 94.0257 7.62122C93.7849 7.63153 93.5441 7.65363 93.3068 7.68014C90.7464 7.97623 88.5967 8.93522 86.9579 10.6322C84.9328 12.7284 84.2901 15.1576 84.8618 17.7929C85.3798 20.1838 87.0306 21.7821 89.8266 22.4509C91.332 22.8103 92.8633 22.8177 94.3981 22.5834C97.4175 22.1224 99.7336 20.7951 101.227 18.5074C102.386 16.7338 102.753 14.8114 102.446 12.8124V12.8109ZM96.1876 18.3203C95.0547 19.5562 93.2669 20.0777 91.6022 19.6697C90.4797 19.3942 89.759 18.7475 89.5356 17.8121C88.9587 15.3888 89.5563 13.2028 91.7009 11.4527C92.7802 10.5718 94.1522 10.3435 95.6056 10.6352C96.8701 10.89 97.4903 11.6678 97.7588 12.6916C97.8679 13.11 97.9009 13.5342 97.9061 13.9629C97.8523 15.5627 97.3621 17.0387 96.1859 18.3203H96.1876Z" fill="white"/>
<path d="M139.251 9.60246C138.647 9.60246 138.044 9.60983 137.44 9.59805C137.235 9.59363 137.162 9.65697 137.122 9.81754C136.443 12.5251 135.757 15.2326 135.073 17.9387C134.72 19.3381 134.365 20.7376 134.02 22.1385C133.973 22.3315 133.888 22.4022 133.647 22.3933C133.116 22.3757 132.58 22.3801 132.049 22.3919C131.829 22.3963 131.751 22.3668 131.804 22.1576C132.303 20.2205 132.792 18.2805 133.284 16.3419C133.835 14.1705 134.384 11.9977 134.938 9.82785C134.985 9.64666 134.933 9.59804 134.709 9.59952C133.684 9.60983 132.657 9.59952 131.629 9.60688C131.418 9.60688 131.345 9.58037 131.418 9.37855C131.543 9.02943 131.643 8.67147 131.718 8.31203C131.759 8.10727 131.874 8.07634 132.085 8.07781C133.081 8.08518 134.077 8.07634 135.073 8.08518C135.297 8.08665 135.397 8.05277 135.453 7.8377C135.768 6.59882 136.022 5.34522 136.572 4.15791C137 3.2328 137.559 2.38283 138.512 1.76413C139.246 1.28832 140.085 1.05262 141.001 1.02022C141.808 0.992227 142.609 1.02611 143.388 1.23234C143.579 1.28243 143.672 1.33251 143.591 1.53285C143.442 1.9026 143.331 2.28413 143.215 2.66272C143.175 2.79235 143.121 2.81297 142.969 2.76289C142.288 2.53603 141.58 2.47711 140.866 2.59348C139.827 2.76289 139.232 3.38453 138.815 4.14907C138.273 5.14046 138.053 6.20993 137.784 7.26761C137.734 7.46795 137.705 7.67271 137.634 7.86716C137.566 8.0513 137.639 8.08665 137.84 8.08518C139.037 8.07928 140.235 8.08223 141.432 8.08223C141.663 8.08223 141.751 8.17798 141.696 8.36948C141.601 8.70093 141.484 9.02796 141.415 9.36235C141.372 9.57006 141.259 9.61572 141.032 9.60983C140.438 9.59657 139.846 9.60541 139.251 9.60541V9.60246Z" fill="white"/>
<path d="M105.735 22.7291C104.585 22.7203 103.07 22.5097 101.612 22.025C101.43 21.9646 101.361 21.9145 101.432 21.7363C101.614 21.2767 101.773 20.8097 101.925 20.3427C101.979 20.1777 102.033 20.1719 102.204 20.2573C103.161 20.7272 104.177 21.0704 105.284 21.1632C106.556 21.2708 107.789 21.1411 108.96 20.6756C110.985 19.8699 111.41 17.6779 109.589 16.4258C108.818 15.8955 107.945 15.5066 107.098 15.0808C106.377 14.7199 105.674 14.3399 105.09 13.8228C103.543 12.4514 103.9 10.2432 105.541 9.08534C106.663 8.29429 107.98 7.91865 109.406 7.78607C111.126 7.62698 112.789 7.84352 114.41 8.3429C114.621 8.40772 114.694 8.47106 114.601 8.66993C114.412 9.06472 114.247 9.46835 114.093 9.87345C114.022 10.0605 113.958 10.1033 113.728 10.0016C112.304 9.37407 110.79 9.13985 109.198 9.33429C108.349 9.43741 107.555 9.66132 106.94 10.2137C106.092 10.9768 106.095 12.1656 106.963 12.9139C107.469 13.3499 108.087 13.6578 108.699 13.9686C109.466 14.359 110.234 14.7464 110.973 15.1766C114.336 17.1373 113.286 20.9069 110.1 22.0736C108.948 22.4964 107.682 22.7291 105.731 22.7291H105.735Z" fill="white"/>
<path d="M149.499 20.8067C149.431 21.3178 149.369 21.7833 149.31 22.2474C149.3 22.3299 149.237 22.3623 149.159 22.3888C147.656 22.8911 146.173 22.9103 144.77 22.1634C143.957 21.7318 143.559 21.0542 143.521 20.2484C143.472 19.1833 143.718 18.1433 143.976 17.1092C144.582 14.6683 145.208 12.2318 145.837 9.7953C145.883 9.61116 145.814 9.59791 145.637 9.59938C144.692 9.6038 143.746 9.59496 142.8 9.60527C142.552 9.60822 142.516 9.55371 142.587 9.35779C142.715 9.00867 142.817 8.65218 142.907 8.29422C142.952 8.11745 143.046 8.07031 143.256 8.07178C144.162 8.08209 145.066 8.06883 145.972 8.08209C146.206 8.08504 146.301 8.03201 146.348 7.83167C146.559 6.92129 146.796 6.01387 147.011 5.1035C147.053 4.92967 147.143 4.84865 147.34 4.79415C148.026 4.60412 148.704 4.39346 149.383 4.19165C149.476 4.26383 149.424 4.33896 149.405 4.4082C149.105 5.55574 148.811 6.70328 148.497 7.84787C148.444 8.04232 148.489 8.08062 148.711 8.07915C149.989 8.07325 151.266 8.08062 152.544 8.07178C152.785 8.07031 152.835 8.1145 152.768 8.31484C152.645 8.67428 152.544 9.0396 152.459 9.40788C152.421 9.57434 152.329 9.60527 152.151 9.6038C150.893 9.59791 149.636 9.6038 148.378 9.59791C148.172 9.59791 148.066 9.62295 148.014 9.82771C147.333 12.5957 146.627 15.3592 145.953 18.1286C145.805 18.7355 145.715 19.3601 145.863 19.9832C146.039 20.7316 146.659 21.1646 147.553 21.1941C148.222 21.2162 148.849 21.0984 149.497 20.8052L149.499 20.8067Z" fill="white"/>
<path d="M130.474 12.3616C130.252 11.3024 129.806 10.3258 128.965 9.5038C127.834 8.39603 126.365 7.87013 124.674 7.76996C121.463 7.57993 118.759 8.4741 116.775 10.6543C114.759 12.8683 114.161 15.4168 114.743 18.145C115.067 19.6667 115.97 20.9321 117.518 21.813C118.954 22.6291 120.553 22.8309 122.242 22.6895C124.648 22.4891 126.646 21.6229 128.182 20.0408C129.901 18.2746 130.587 16.2005 130.616 13.9437C130.627 13.4119 130.583 12.886 130.474 12.3631V12.3616ZM128.321 13.9098C128.285 15.9132 127.64 17.7458 126.117 19.3043C124.943 20.5063 123.445 21.1943 121.563 21.1943C119.379 21.1943 117.686 20.1027 117.082 18.3173C116.742 17.3097 116.787 16.2918 116.957 15.2724C117.189 13.8863 117.693 12.5796 118.684 11.4409C120.068 9.84703 121.941 9.1311 124.262 9.29314C126.194 9.42719 127.526 10.4142 128.058 12.0626C128.132 12.2924 128.193 12.5266 128.234 12.7608C128.302 13.1409 128.333 13.5239 128.321 13.9113V13.9098Z" fill="white"/>
<path fill-rule="evenodd" clip-rule="evenodd" d="M155.777 2.382L156.574 3.49543H156.163L155.447 2.36913H154.944V3.49543H154.545V1.04862H155.572C155.948 1.04862 156.214 1.09723 156.386 1.20371C156.551 1.30596 156.645 1.47248 156.645 1.74771C156.645 1.96219 156.564 2.10496 156.44 2.19971C156.314 2.29653 156.134 2.35108 155.921 2.36952L155.777 2.382ZM155.572 1.28165H154.989V2.09726H155.617C155.773 2.09726 155.94 2.0885 156.068 2.02981C156.135 1.99923 156.192 1.95497 156.232 1.89276C156.271 1.83129 156.29 1.75708 156.29 1.67004C156.29 1.58646 156.262 1.51603 156.211 1.45942C156.161 1.40382 156.093 1.3664 156.021 1.34101C155.881 1.29109 155.709 1.28165 155.572 1.28165Z" fill="white"/>
<path fill-rule="evenodd" clip-rule="evenodd" d="M155.528 4.50522C154.14 4.50522 152.889 3.64208 152.889 2.25261C152.889 0.903603 154.138 0.0382919 155.529 0C156.915 0.00062553 158.166 0.901597 158.166 2.25261C158.166 3.60409 156.914 4.50522 155.528 4.50522ZM157.632 2.25261C157.632 3.3401 156.702 4.15482 155.529 4.15567C154.352 4.19564 153.423 3.37695 153.423 2.25261C153.423 1.16455 154.355 0.349538 155.528 0.349538C156.701 0.349538 157.632 1.16455 157.632 2.25261Z" fill="white"/>
</g>
<defs>
<clipPath id="clip0_2126_120311">
<rect width="157.333" height="24" fill="white" transform="translate(0.833984)"/>
</clipPath>
</defs>
</svg>
