<svg width="139" height="48" viewBox="0 0 139 48" fill="none" xmlns="http://www.w3.org/2000/svg">
<path d="M6.3 11.4H6.18C6.04667 11.8267 5.88667 12.3 5.7 12.82C5.52667 13.34 5.34667 13.8867 5.16 14.46C4.97333 15.02 4.79333 15.58 4.62 16.14L4.26 17.94C4.18 18.1933 4.1 18.46 4.02 18.74C3.95333 19.02 3.88 19.2933 3.8 19.56C3.72 19.8267 3.64667 20.08 3.58 20.32C3.51333 20.56 3.44667 20.7867 3.38 21C3.23333 21.04 3.06667 21.08 2.88 21.12C2.69333 21.1733 2.47333 21.2 2.22 21.2C1.66 21.2 1.23333 21.1 0.94 20.9C0.646667 20.7 0.5 20.4067 0.5 20.02C0.5 19.86 0.52 19.6933 0.56 19.52C0.613333 19.3467 0.673333 19.1467 0.74 18.92C0.86 18.48 1.02667 17.9267 1.24 17.26C1.46667 16.5933 1.70667 15.8733 1.96 15.1C2.22667 14.3133 2.49333 13.54 2.76 12.78C3.04 12.02 3.29333 11.32 3.52 10.68C3.76 10.04 3.95333 9.54 4.1 9.18C4.28667 9.06 4.58 8.95333 4.98 8.86C5.39333 8.75333 5.8 8.7 6.2 8.7C6.77333 8.7 7.28667 8.78667 7.74 8.96C8.19333 9.12 8.48 9.38 8.6 9.74C8.85333 10.4467 9.12667 11.2667 9.42 12.2C9.72667 13.12 10.0333 14.0867 10.34 15.1C10.6467 16.1133 10.94 17.1 11.22 18.06C11.5133 19.0067 11.7667 19.86 11.98 20.62C11.8333 20.78 11.62 20.9133 11.34 21.02C11.06 21.14 10.7267 21.2 10.34 21.2C9.79333 21.2 9.40667 21.1 9.18 20.9C8.95333 20.7 8.78 20.4 8.66 20L8.02 17.76L7.68 16.06C7.52 15.46 7.35333 14.88 7.18 14.32C7.00667 13.76 6.84667 13.2333 6.7 12.74C6.55333 12.2333 6.42 11.7867 6.3 11.4ZM2.92 18.3L4.1 15.94H8.78L9.18 18.3H2.92ZM13.4061 17.26V15.82H16.3661V17.24C16.3661 17.8533 16.5194 18.2933 16.8261 18.56C17.1461 18.8267 17.5928 18.96 18.1661 18.96C18.5261 18.96 18.8261 18.9267 19.0661 18.86C19.3061 18.7933 19.4861 18.7267 19.6061 18.66V15.82H22.5861V19.02C22.5861 19.34 22.5194 19.6133 22.3861 19.84C22.2661 20.0667 22.0661 20.2667 21.7861 20.44C21.3594 20.7067 20.8328 20.9133 20.2061 21.06C19.5928 21.22 18.9061 21.3 18.1461 21.3C17.1994 21.3 16.3661 21.16 15.6461 20.88C14.9394 20.6 14.3861 20.1667 13.9861 19.58C13.5994 18.98 13.4061 18.2067 13.4061 17.26ZM22.5861 16.72H19.6061V11.44C19.7394 11.4 19.9261 11.36 20.1661 11.32C20.4061 11.28 20.6661 11.26 20.9461 11.26C21.5194 11.26 21.9328 11.36 22.1861 11.56C22.4528 11.7467 22.5861 12.1133 22.5861 12.66V16.72ZM16.3661 16.72H13.4061V11.44C13.5261 11.4 13.7061 11.36 13.9461 11.32C14.1861 11.28 14.4461 11.26 14.7261 11.26C15.2994 11.26 15.7128 11.36 15.9661 11.56C16.2328 11.7467 16.3661 12.1133 16.3661 12.66V16.72ZM24.9105 15.72H27.8505V17.86C27.8505 18.2333 27.9705 18.5067 28.2105 18.68C28.4505 18.8533 28.7905 18.94 29.2305 18.94C29.4305 18.94 29.6438 18.92 29.8705 18.88C30.1105 18.8267 30.3105 18.7667 30.4705 18.7C30.5771 18.82 30.6705 18.9667 30.7505 19.14C30.8438 19.3133 30.8905 19.5133 30.8905 19.74C30.8905 20.1933 30.7038 20.5667 30.3305 20.86C29.9571 21.1533 29.3305 21.3 28.4505 21.3C27.3305 21.3 26.4571 21.0467 25.8305 20.54C25.2171 20.0333 24.9105 19.2067 24.9105 18.06V15.72ZM26.7905 13.9V11.62H30.6305C30.6971 11.7267 30.7638 11.88 30.8305 12.08C30.8971 12.28 30.9305 12.5 30.9305 12.74C30.9305 13.14 30.8371 13.4333 30.6505 13.62C30.4771 13.8067 30.2371 13.9 29.9305 13.9H26.7905ZM27.8505 16.22H24.9105V9.04C25.0438 9 25.2305 8.96 25.4705 8.92C25.7105 8.86667 25.9638 8.84 26.2305 8.84C26.8038 8.84 27.2171 8.94 27.4705 9.14C27.7238 9.34 27.8505 9.70667 27.8505 10.24V16.22ZM42.2858 16.2C42.2858 17.24 42.0724 18.1467 41.6458 18.92C41.2324 19.68 40.6458 20.2667 39.8858 20.68C39.1258 21.0933 38.2324 21.3 37.2058 21.3C36.1924 21.3 35.2991 21.1 34.5258 20.7C33.7658 20.2867 33.1724 19.7 32.7458 18.94C32.3324 18.1667 32.1258 17.2533 32.1258 16.2C32.1258 15.1467 32.3391 14.2467 32.7658 13.5C33.1924 12.74 33.7858 12.1533 34.5458 11.74C35.3191 11.3133 36.2058 11.1 37.2058 11.1C38.2191 11.1 39.1058 11.3133 39.8658 11.74C40.6258 12.1533 41.2191 12.7467 41.6458 13.52C42.0724 14.28 42.2858 15.1733 42.2858 16.2ZM37.2058 13.44C36.5791 13.44 36.0791 13.68 35.7058 14.16C35.3458 14.64 35.1658 15.32 35.1658 16.2C35.1658 17.0933 35.3458 17.78 35.7058 18.26C36.0658 18.7267 36.5658 18.96 37.2058 18.96C37.8458 18.96 38.3458 18.72 38.7058 18.24C39.0658 17.76 39.2458 17.08 39.2458 16.2C39.2458 15.3333 39.0658 14.66 38.7058 14.18C38.3458 13.6867 37.8458 13.44 37.2058 13.44ZM49.1283 9.98L45.5683 23.12C45.3949 23.1467 45.2349 23.16 45.0883 23.16C44.9416 23.1733 44.8016 23.18 44.6683 23.18C44.1883 23.18 43.8149 23.0733 43.5483 22.86C43.2816 22.6467 43.1483 22.3067 43.1483 21.84C43.1483 21.5333 43.1949 21.22 43.2883 20.9C43.3816 20.5667 43.4616 20.28 43.5283 20.04L47.0883 6.9C47.2616 6.87333 47.4283 6.86 47.5883 6.86C47.7483 6.84667 47.8883 6.84 48.0083 6.84C48.4616 6.84 48.8216 6.94 49.0883 7.14C49.3683 7.34 49.5083 7.66667 49.5083 8.12C49.5083 8.44 49.4616 8.75333 49.3683 9.06C49.2883 9.36667 49.2083 9.67333 49.1283 9.98ZM59.108 17.98C58.9613 18.1 58.7613 18.2 58.508 18.28C58.268 18.36 57.988 18.4 57.668 18.4C57.2546 18.4 56.908 18.3467 56.628 18.24C56.348 18.1333 56.168 17.9533 56.088 17.7C55.6346 16.4333 55.248 15.38 54.928 14.54C54.6213 13.7 54.3813 12.9733 54.208 12.36H54.108C54.068 13.2 54.0346 13.9667 54.008 14.66C53.9813 15.3533 53.9613 16.0333 53.948 16.7C53.9346 17.3533 53.9146 18.02 53.888 18.7C53.8613 19.38 53.8213 20.1267 53.768 20.94C53.6213 20.98 53.4213 21.0267 53.168 21.08C52.928 21.1333 52.688 21.16 52.448 21.16C51.9413 21.16 51.5413 21.0733 51.248 20.9C50.968 20.7267 50.828 20.4267 50.828 20C50.828 19.7067 50.8413 19.2733 50.868 18.7C50.908 18.1133 50.948 17.4467 50.988 16.7C51.0413 15.94 51.088 15.14 51.128 14.3C51.1813 13.46 51.2346 12.6333 51.288 11.82C51.3546 10.9933 51.4146 10.2333 51.468 9.54C51.5746 9.38 51.788 9.22 52.108 9.06C52.428 8.88667 52.868 8.8 53.428 8.8C54.028 8.8 54.508 8.9 54.868 9.1C55.2413 9.28667 55.508 9.6 55.668 10.04C55.868 10.52 56.0813 11.08 56.308 11.72C56.5346 12.3467 56.7546 12.9867 56.968 13.64C57.1946 14.28 57.4013 14.86 57.588 15.38H57.688C58.0613 14.2067 58.4413 13.06 58.828 11.94C59.228 10.82 59.568 9.88667 59.848 9.14C60.0346 9.03333 60.268 8.95333 60.548 8.9C60.8413 8.83333 61.148 8.8 61.468 8.8C62.0413 8.8 62.5013 8.88667 62.848 9.06C63.208 9.22 63.4213 9.46667 63.488 9.8C63.5413 10.0533 63.5946 10.4533 63.648 11C63.7146 11.5467 63.7813 12.18 63.848 12.9C63.9146 13.6067 63.9813 14.3533 64.048 15.14C64.1146 15.9133 64.1746 16.6733 64.228 17.42C64.2946 18.1533 64.348 18.8133 64.388 19.4C64.428 19.9867 64.4546 20.4533 64.468 20.8C64.268 20.92 64.0546 21.0067 63.828 21.06C63.6146 21.1267 63.3413 21.16 63.008 21.16C62.5813 21.16 62.2146 21.08 61.908 20.92C61.6146 20.76 61.4546 20.4533 61.428 20C61.3613 18.96 61.308 17.9733 61.268 17.04C61.228 16.0933 61.1946 15.2333 61.168 14.46C61.1546 13.6733 61.1346 13 61.108 12.44H61.008C60.8346 13.0133 60.588 13.74 60.268 14.62C59.9613 15.4867 59.5746 16.6067 59.108 17.98ZM70.6273 19.1C70.934 19.1 71.234 19.0733 71.5273 19.02C71.834 18.9533 72.054 18.88 72.1873 18.8V16.88L70.5073 17.04C70.054 17.0667 69.694 17.16 69.4273 17.32C69.1607 17.48 69.0273 17.72 69.0273 18.04C69.0273 18.36 69.154 18.62 69.4073 18.82C69.6607 19.0067 70.0673 19.1 70.6273 19.1ZM70.5073 11.1C71.894 11.1 73.0007 11.3933 73.8273 11.98C74.654 12.5533 75.0673 13.4467 75.0673 14.66V19.2C75.0673 19.5333 74.9807 19.8067 74.8073 20.02C74.634 20.22 74.414 20.3933 74.1473 20.54C73.7473 20.78 73.2473 20.9667 72.6473 21.1C72.0607 21.2467 71.3873 21.32 70.6273 21.32C69.2673 21.32 68.1807 21.0533 67.3673 20.52C66.5673 19.9867 66.1673 19.1933 66.1673 18.14C66.1673 17.2333 66.4473 16.54 67.0073 16.06C67.5673 15.5667 68.4007 15.2667 69.5073 15.16L72.1673 14.88V14.64C72.1673 14.1867 71.9873 13.86 71.6273 13.66C71.2807 13.46 70.7807 13.36 70.1273 13.36C69.6207 13.36 69.1207 13.42 68.6273 13.54C68.1473 13.66 67.714 13.8 67.3273 13.96C67.1673 13.8533 67.0273 13.6933 66.9073 13.48C66.8007 13.2533 66.7473 13.02 66.7473 12.78C66.7473 12.22 67.054 11.8133 67.6673 11.56C68.054 11.4 68.5007 11.2867 69.0073 11.22C69.5273 11.14 70.0273 11.1 70.5073 11.1ZM77.3714 15.72H80.3114V17.86C80.3114 18.2333 80.4314 18.5067 80.6714 18.68C80.9114 18.8533 81.2514 18.94 81.6914 18.94C81.8914 18.94 82.1047 18.92 82.3314 18.88C82.5714 18.8267 82.7714 18.7667 82.9314 18.7C83.0381 18.82 83.1314 18.9667 83.2114 19.14C83.3047 19.3133 83.3514 19.5133 83.3514 19.74C83.3514 20.1933 83.1647 20.5667 82.7914 20.86C82.4181 21.1533 81.7914 21.3 80.9114 21.3C79.7914 21.3 78.9181 21.0467 78.2914 20.54C77.6781 20.0333 77.3714 19.2067 77.3714 18.06V15.72ZM79.2514 13.9V11.62H83.0914C83.1581 11.7267 83.2247 11.88 83.2914 12.08C83.3581 12.28 83.3914 12.5 83.3914 12.74C83.3914 13.14 83.2981 13.4333 83.1114 13.62C82.9381 13.8067 82.6981 13.9 82.3914 13.9H79.2514ZM80.3114 16.22H77.3714V9.04C77.5047 9 77.6914 8.96 77.9314 8.92C78.1714 8.86667 78.4247 8.84 78.6914 8.84C79.2647 8.84 79.6781 8.94 79.9314 9.14C80.1847 9.34 80.3114 9.70667 80.3114 10.24V16.22ZM86.4267 17.6L86.3067 15.6L91.2667 14.82C91.2401 14.4467 91.0801 14.1 90.7867 13.78C90.4934 13.46 90.0601 13.3 89.4867 13.3C88.8867 13.3 88.3867 13.5067 87.9867 13.92C87.5867 14.32 87.3734 14.8933 87.3467 15.64L87.4467 17.02C87.5667 17.7533 87.8801 18.28 88.3867 18.6C88.8934 18.9067 89.4934 19.06 90.1867 19.06C90.7467 19.06 91.2734 18.98 91.7667 18.82C92.2601 18.66 92.6601 18.4933 92.9667 18.32C93.1667 18.44 93.3267 18.6067 93.4467 18.82C93.5801 19.0333 93.6467 19.26 93.6467 19.5C93.6467 19.9 93.4867 20.2333 93.1667 20.5C92.8601 20.7667 92.4267 20.9667 91.8667 21.1C91.3201 21.2333 90.6934 21.3 89.9867 21.3C88.9601 21.3 88.0334 21.1067 87.2067 20.72C86.3934 20.3333 85.7534 19.7533 85.2867 18.98C84.8201 18.2067 84.5867 17.24 84.5867 16.08C84.5867 15.2267 84.7201 14.4867 84.9867 13.86C85.2667 13.2333 85.6334 12.72 86.0867 12.32C86.5534 11.9067 87.0734 11.6 87.6467 11.4C88.2334 11.2 88.8401 11.1 89.4667 11.1C90.3867 11.1 91.1867 11.2867 91.8667 11.66C92.5601 12.02 93.1001 12.5133 93.4867 13.14C93.8734 13.7667 94.0667 14.4933 94.0667 15.32C94.0667 15.7333 93.9534 16.0467 93.7267 16.26C93.5001 16.4733 93.1867 16.6067 92.7867 16.66L86.4267 17.6Z" fill="#F0F2F5"/>
<path opacity="0.6" d="M1.05 34.324C1.086 34.324 1.192 34.324 1.368 34.324C1.544 34.324 1.752 34.324 1.992 34.324C2.236 34.324 2.482 34.326 2.73 34.33C2.982 34.33 3.2 34.332 3.384 34.336C4.44 34.356 5.298 34.538 5.958 34.882C6.622 35.222 7.108 35.708 7.416 36.34C7.728 36.968 7.884 37.726 7.884 38.614C7.884 39.542 7.718 40.332 7.386 40.984C7.058 41.636 6.554 42.136 5.874 42.484C5.198 42.828 4.338 43 3.294 43H1.05V34.324ZM2.532 35.53V41.794H3.318C3.914 41.794 4.44 41.692 4.896 41.488C5.352 41.28 5.708 40.944 5.964 40.48C6.224 40.016 6.354 39.396 6.354 38.62C6.354 37.868 6.234 37.266 5.994 36.814C5.754 36.362 5.41 36.036 4.962 35.836C4.514 35.632 3.978 35.53 3.354 35.53H2.532ZM11.5461 43V34.324H13.6341L15.9081 40.954L18.2061 34.324H20.2821V43H18.8001V36.196L16.5141 43H15.2961L13.0281 36.238V43H11.5461ZM27.5059 43.12C27.0859 43.12 26.6759 43.068 26.2759 42.964C25.8759 42.856 25.5119 42.698 25.1839 42.49C24.8599 42.278 24.5899 42.016 24.3739 41.704C24.1579 41.388 24.0259 41.02 23.9779 40.6H25.4899C25.5539 40.892 25.6799 41.138 25.8679 41.338C26.0559 41.538 26.2899 41.69 26.5699 41.794C26.8539 41.898 27.1639 41.95 27.4999 41.95C27.8599 41.95 28.1839 41.902 28.4719 41.806C28.7639 41.71 28.9939 41.57 29.1619 41.386C29.3339 41.202 29.4199 40.976 29.4199 40.708C29.4199 40.472 29.3579 40.272 29.2339 40.108C29.1099 39.944 28.9359 39.81 28.7119 39.706C28.4919 39.598 28.2339 39.512 27.9379 39.448L26.3419 39.1C25.6979 38.968 25.1879 38.712 24.8119 38.332C24.4359 37.952 24.2439 37.446 24.2359 36.814C24.2319 36.29 24.3699 35.834 24.6499 35.446C24.9339 35.054 25.3199 34.752 25.8079 34.54C26.2959 34.324 26.8479 34.216 27.4639 34.216C28.1839 34.216 28.7899 34.334 29.2819 34.57C29.7779 34.802 30.1519 35.114 30.4039 35.506C30.6599 35.898 30.7899 36.328 30.7939 36.796H29.3179C29.2819 36.452 29.1779 36.178 29.0059 35.974C28.8379 35.77 28.6219 35.624 28.3579 35.536C28.0939 35.448 27.8019 35.404 27.4819 35.404C27.2419 35.404 27.0179 35.432 26.8099 35.488C26.6019 35.544 26.4199 35.626 26.2639 35.734C26.1079 35.842 25.9859 35.974 25.8979 36.13C25.8139 36.282 25.7719 36.456 25.7719 36.652C25.7719 36.932 25.8639 37.16 26.0479 37.336C26.2359 37.508 26.5859 37.654 27.0979 37.774L28.6579 38.122C29.1419 38.218 29.5319 38.362 29.8279 38.554C30.1239 38.746 30.3499 38.966 30.5059 39.214C30.6619 39.458 30.7659 39.708 30.8179 39.964C30.8699 40.22 30.8959 40.464 30.8959 40.696C30.8959 41.148 30.7559 41.558 30.4759 41.926C30.1999 42.294 29.8079 42.586 29.2999 42.802C28.7959 43.014 28.1979 43.12 27.5059 43.12Z" fill="#E5E8EF"/>
</svg>
