<svg width="139" height="48" viewBox="0 0 139 48" fill="none" xmlns="http://www.w3.org/2000/svg">
<path d="M6.3 11.4H6.18C6.04667 11.8267 5.88667 12.3 5.7 12.82C5.52667 13.34 5.34667 13.8867 5.16 14.46C4.97333 15.02 4.79333 15.58 4.62 16.14L4.26 17.94C4.18 18.1933 4.1 18.46 4.02 18.74C3.95333 19.02 3.88 19.2933 3.8 19.56C3.72 19.8267 3.64667 20.08 3.58 20.32C3.51333 20.56 3.44667 20.7867 3.38 21C3.23333 21.04 3.06667 21.08 2.88 21.12C2.69333 21.1733 2.47333 21.2 2.22 21.2C1.66 21.2 1.23333 21.1 0.94 20.9C0.646667 20.7 0.5 20.4067 0.5 20.02C0.5 19.86 0.52 19.6933 0.56 19.52C0.613333 19.3467 0.673333 19.1467 0.74 18.92C0.86 18.48 1.02667 17.9267 1.24 17.26C1.46667 16.5933 1.70667 15.8733 1.96 15.1C2.22667 14.3133 2.49333 13.54 2.76 12.78C3.04 12.02 3.29333 11.32 3.52 10.68C3.76 10.04 3.95333 9.54 4.1 9.18C4.28667 9.06 4.58 8.95333 4.98 8.86C5.39333 8.75333 5.8 8.7 6.2 8.7C6.77333 8.7 7.28667 8.78667 7.74 8.96C8.19333 9.12 8.48 9.38 8.6 9.74C8.85333 10.4467 9.12667 11.2667 9.42 12.2C9.72667 13.12 10.0333 14.0867 10.34 15.1C10.6467 16.1133 10.94 17.1 11.22 18.06C11.5133 19.0067 11.7667 19.86 11.98 20.62C11.8333 20.78 11.62 20.9133 11.34 21.02C11.06 21.14 10.7267 21.2 10.34 21.2C9.79333 21.2 9.40667 21.1 9.18 20.9C8.95333 20.7 8.78 20.4 8.66 20L8.02 17.76L7.68 16.06C7.52 15.46 7.35333 14.88 7.18 14.32C7.00667 13.76 6.84667 13.2333 6.7 12.74C6.55333 12.2333 6.42 11.7867 6.3 11.4ZM2.92 18.3L4.1 15.94H8.78L9.18 18.3H2.92ZM13.4061 17.26V15.82H16.3661V17.24C16.3661 17.8533 16.5194 18.2933 16.8261 18.56C17.1461 18.8267 17.5928 18.96 18.1661 18.96C18.5261 18.96 18.8261 18.9267 19.0661 18.86C19.3061 18.7933 19.4861 18.7267 19.6061 18.66V15.82H22.5861V19.02C22.5861 19.34 22.5194 19.6133 22.3861 19.84C22.2661 20.0667 22.0661 20.2667 21.7861 20.44C21.3594 20.7067 20.8328 20.9133 20.2061 21.06C19.5928 21.22 18.9061 21.3 18.1461 21.3C17.1994 21.3 16.3661 21.16 15.6461 20.88C14.9394 20.6 14.3861 20.1667 13.9861 19.58C13.5994 18.98 13.4061 18.2067 13.4061 17.26ZM22.5861 16.72H19.6061V11.44C19.7394 11.4 19.9261 11.36 20.1661 11.32C20.4061 11.28 20.6661 11.26 20.9461 11.26C21.5194 11.26 21.9328 11.36 22.1861 11.56C22.4528 11.7467 22.5861 12.1133 22.5861 12.66V16.72ZM16.3661 16.72H13.4061V11.44C13.5261 11.4 13.7061 11.36 13.9461 11.32C14.1861 11.28 14.4461 11.26 14.7261 11.26C15.2994 11.26 15.7128 11.36 15.9661 11.56C16.2328 11.7467 16.3661 12.1133 16.3661 12.66V16.72ZM24.9105 15.72H27.8505V17.86C27.8505 18.2333 27.9705 18.5067 28.2105 18.68C28.4505 18.8533 28.7905 18.94 29.2305 18.94C29.4305 18.94 29.6438 18.92 29.8705 18.88C30.1105 18.8267 30.3105 18.7667 30.4705 18.7C30.5771 18.82 30.6705 18.9667 30.7505 19.14C30.8438 19.3133 30.8905 19.5133 30.8905 19.74C30.8905 20.1933 30.7038 20.5667 30.3305 20.86C29.9571 21.1533 29.3305 21.3 28.4505 21.3C27.3305 21.3 26.4571 21.0467 25.8305 20.54C25.2171 20.0333 24.9105 19.2067 24.9105 18.06V15.72ZM26.7905 13.9V11.62H30.6305C30.6971 11.7267 30.7638 11.88 30.8305 12.08C30.8971 12.28 30.9305 12.5 30.9305 12.74C30.9305 13.14 30.8371 13.4333 30.6505 13.62C30.4771 13.8067 30.2371 13.9 29.9305 13.9H26.7905ZM27.8505 16.22H24.9105V9.04C25.0438 9 25.2305 8.96 25.4705 8.92C25.7105 8.86667 25.9638 8.84 26.2305 8.84C26.8038 8.84 27.2171 8.94 27.4705 9.14C27.7238 9.34 27.8505 9.70667 27.8505 10.24V16.22ZM42.2858 16.2C42.2858 17.24 42.0724 18.1467 41.6458 18.92C41.2324 19.68 40.6458 20.2667 39.8858 20.68C39.1258 21.0933 38.2324 21.3 37.2058 21.3C36.1924 21.3 35.2991 21.1 34.5258 20.7C33.7658 20.2867 33.1724 19.7 32.7458 18.94C32.3324 18.1667 32.1258 17.2533 32.1258 16.2C32.1258 15.1467 32.3391 14.2467 32.7658 13.5C33.1924 12.74 33.7858 12.1533 34.5458 11.74C35.3191 11.3133 36.2058 11.1 37.2058 11.1C38.2191 11.1 39.1058 11.3133 39.8658 11.74C40.6258 12.1533 41.2191 12.7467 41.6458 13.52C42.0724 14.28 42.2858 15.1733 42.2858 16.2ZM37.2058 13.44C36.5791 13.44 36.0791 13.68 35.7058 14.16C35.3458 14.64 35.1658 15.32 35.1658 16.2C35.1658 17.0933 35.3458 17.78 35.7058 18.26C36.0658 18.7267 36.5658 18.96 37.2058 18.96C37.8458 18.96 38.3458 18.72 38.7058 18.24C39.0658 17.76 39.2458 17.08 39.2458 16.2C39.2458 15.3333 39.0658 14.66 38.7058 14.18C38.3458 13.6867 37.8458 13.44 37.2058 13.44ZM47.6377 18.86C48.3577 18.86 48.871 18.7333 49.1777 18.48C49.4977 18.2133 49.6577 17.9 49.6577 17.54C49.6577 17.2067 49.531 16.94 49.2777 16.74C49.0377 16.5267 48.6777 16.3467 48.1977 16.2L47.1377 15.86C46.4177 15.62 45.7777 15.3533 45.2177 15.06C44.671 14.7667 44.2443 14.3867 43.9377 13.92C43.6443 13.4533 43.4977 12.86 43.4977 12.14C43.4977 11.0333 43.9177 10.1533 44.7577 9.5C45.5977 8.84667 46.7643 8.52 48.2577 8.52C49.0177 8.52 49.691 8.59333 50.2777 8.74C50.8777 8.88667 51.3443 9.10667 51.6777 9.4C52.0243 9.68 52.1977 10.0267 52.1977 10.44C52.1977 10.7467 52.1243 11.0133 51.9777 11.24C51.8443 11.4533 51.671 11.64 51.4577 11.8C51.151 11.5867 50.7443 11.4067 50.2377 11.26C49.731 11.1 49.171 11.02 48.5577 11.02C47.9177 11.02 47.4377 11.1267 47.1177 11.34C46.7977 11.54 46.6377 11.8067 46.6377 12.14C46.6377 12.4067 46.7443 12.6267 46.9577 12.8C47.171 12.96 47.491 13.1067 47.9177 13.24L49.0177 13.58C50.231 13.9533 51.1643 14.4533 51.8177 15.08C52.471 15.6933 52.7977 16.52 52.7977 17.56C52.7977 18.68 52.3643 19.5933 51.4977 20.3C50.631 20.9933 49.3777 21.34 47.7377 21.34C46.9243 21.34 46.1977 21.2533 45.5577 21.08C44.9177 20.9067 44.4043 20.6533 44.0177 20.32C43.6443 19.9867 43.4577 19.6 43.4577 19.16C43.4577 18.8133 43.5577 18.52 43.7577 18.28C43.971 18.0267 44.2043 17.84 44.4577 17.72C44.8177 18.0133 45.2643 18.28 45.7977 18.52C46.3443 18.7467 46.9577 18.86 47.6377 18.86ZM64.3756 16.2C64.3756 17.24 64.1623 18.1467 63.7356 18.92C63.3223 19.68 62.7356 20.2667 61.9756 20.68C61.2156 21.0933 60.3223 21.3 59.2956 21.3C58.2823 21.3 57.389 21.1 56.6156 20.7C55.8556 20.2867 55.2623 19.7 54.8356 18.94C54.4223 18.1667 54.2156 17.2533 54.2156 16.2C54.2156 15.1467 54.429 14.2467 54.8556 13.5C55.2823 12.74 55.8756 12.1533 56.6356 11.74C57.409 11.3133 58.2956 11.1 59.2956 11.1C60.309 11.1 61.1956 11.3133 61.9556 11.74C62.7156 12.1533 63.309 12.7467 63.7356 13.52C64.1623 14.28 64.3756 15.1733 64.3756 16.2ZM59.2956 13.44C58.669 13.44 58.169 13.68 57.7956 14.16C57.4356 14.64 57.2556 15.32 57.2556 16.2C57.2556 17.0933 57.4356 17.78 57.7956 18.26C58.1556 18.7267 58.6556 18.96 59.2956 18.96C59.9356 18.96 60.4356 18.72 60.7956 18.24C61.1556 17.76 61.3356 17.08 61.3356 16.2C61.3356 15.3333 61.1556 14.66 60.7956 14.18C60.4356 13.6867 59.9356 13.44 59.2956 13.44ZM68.6381 14.38V12.1H72.5381C72.6048 12.2067 72.6715 12.36 72.7381 12.56C72.8048 12.76 72.8381 12.98 72.8381 13.22C72.8381 13.6333 72.7448 13.9333 72.5581 14.12C72.3848 14.2933 72.1381 14.38 71.8181 14.38H68.6381ZM69.0981 11.3V14.02H66.2781V11.2C66.2781 10.32 66.4581 9.60667 66.8181 9.06C67.1915 8.51333 67.6981 8.11333 68.3381 7.86C68.9915 7.59333 69.7115 7.46 70.4981 7.46C71.4315 7.46 72.1248 7.58667 72.5781 7.84C73.0448 8.08 73.2781 8.47333 73.2781 9.02C73.2781 9.26 73.2248 9.47333 73.1181 9.66C73.0248 9.84667 72.9181 9.99333 72.7981 10.1C72.5448 10.02 72.2715 9.95333 71.9781 9.9C71.6848 9.84667 71.3581 9.82 70.9981 9.82C70.3715 9.82 69.8981 9.93333 69.5781 10.16C69.2581 10.3867 69.0981 10.7667 69.0981 11.3ZM66.2781 13.44H69.2381V20.98C69.1048 21.02 68.9181 21.0533 68.6781 21.08C68.4381 21.12 68.1781 21.14 67.8981 21.14C67.3381 21.14 66.9248 21.04 66.6581 20.84C66.4048 20.64 66.2781 20.28 66.2781 19.76V13.44ZM74.5784 15.72H77.5184V17.86C77.5184 18.2333 77.6384 18.5067 77.8784 18.68C78.1184 18.8533 78.4584 18.94 78.8984 18.94C79.0984 18.94 79.3118 18.92 79.5384 18.88C79.7784 18.8267 79.9784 18.7667 80.1384 18.7C80.2451 18.82 80.3384 18.9667 80.4184 19.14C80.5118 19.3133 80.5584 19.5133 80.5584 19.74C80.5584 20.1933 80.3718 20.5667 79.9984 20.86C79.6251 21.1533 78.9984 21.3 78.1184 21.3C76.9984 21.3 76.1251 21.0467 75.4984 20.54C74.8851 20.0333 74.5784 19.2067 74.5784 18.06V15.72ZM76.4584 13.9V11.62H80.2984C80.3651 11.7267 80.4318 11.88 80.4984 12.08C80.5651 12.28 80.5984 12.5 80.5984 12.74C80.5984 13.14 80.5051 13.4333 80.3184 13.62C80.1451 13.8067 79.9051 13.9 79.5984 13.9H76.4584ZM77.5184 16.22H74.5784V9.04C74.7118 9 74.8984 8.96 75.1384 8.92C75.3784 8.86667 75.6318 8.84 75.8984 8.84C76.4718 8.84 76.8851 8.94 77.1384 9.14C77.3918 9.34 77.5184 9.70667 77.5184 10.24V16.22Z" fill="#F0F2F5"/>
<path opacity="0.6" d="M1.05 34.324C1.086 34.324 1.192 34.324 1.368 34.324C1.544 34.324 1.752 34.324 1.992 34.324C2.236 34.324 2.482 34.326 2.73 34.33C2.982 34.33 3.2 34.332 3.384 34.336C4.44 34.356 5.298 34.538 5.958 34.882C6.622 35.222 7.108 35.708 7.416 36.34C7.728 36.968 7.884 37.726 7.884 38.614C7.884 39.542 7.718 40.332 7.386 40.984C7.058 41.636 6.554 42.136 5.874 42.484C5.198 42.828 4.338 43 3.294 43H1.05V34.324ZM2.532 35.53V41.794H3.318C3.914 41.794 4.44 41.692 4.896 41.488C5.352 41.28 5.708 40.944 5.964 40.48C6.224 40.016 6.354 39.396 6.354 38.62C6.354 37.868 6.234 37.266 5.994 36.814C5.754 36.362 5.41 36.036 4.962 35.836C4.514 35.632 3.978 35.53 3.354 35.53H2.532ZM11.5461 43V34.324H13.6341L15.9081 40.954L18.2061 34.324H20.2821V43H18.8001V36.196L16.5141 43H15.2961L13.0281 36.238V43H11.5461ZM27.5059 43.12C27.0859 43.12 26.6759 43.068 26.2759 42.964C25.8759 42.856 25.5119 42.698 25.1839 42.49C24.8599 42.278 24.5899 42.016 24.3739 41.704C24.1579 41.388 24.0259 41.02 23.9779 40.6H25.4899C25.5539 40.892 25.6799 41.138 25.8679 41.338C26.0559 41.538 26.2899 41.69 26.5699 41.794C26.8539 41.898 27.1639 41.95 27.4999 41.95C27.8599 41.95 28.1839 41.902 28.4719 41.806C28.7639 41.71 28.9939 41.57 29.1619 41.386C29.3339 41.202 29.4199 40.976 29.4199 40.708C29.4199 40.472 29.3579 40.272 29.2339 40.108C29.1099 39.944 28.9359 39.81 28.7119 39.706C28.4919 39.598 28.2339 39.512 27.9379 39.448L26.3419 39.1C25.6979 38.968 25.1879 38.712 24.8119 38.332C24.4359 37.952 24.2439 37.446 24.2359 36.814C24.2319 36.29 24.3699 35.834 24.6499 35.446C24.9339 35.054 25.3199 34.752 25.8079 34.54C26.2959 34.324 26.8479 34.216 27.4639 34.216C28.1839 34.216 28.7899 34.334 29.2819 34.57C29.7779 34.802 30.1519 35.114 30.4039 35.506C30.6599 35.898 30.7899 36.328 30.7939 36.796H29.3179C29.2819 36.452 29.1779 36.178 29.0059 35.974C28.8379 35.77 28.6219 35.624 28.3579 35.536C28.0939 35.448 27.8019 35.404 27.4819 35.404C27.2419 35.404 27.0179 35.432 26.8099 35.488C26.6019 35.544 26.4199 35.626 26.2639 35.734C26.1079 35.842 25.9859 35.974 25.8979 36.13C25.8139 36.282 25.7719 36.456 25.7719 36.652C25.7719 36.932 25.8639 37.16 26.0479 37.336C26.2359 37.508 26.5859 37.654 27.0979 37.774L28.6579 38.122C29.1419 38.218 29.5319 38.362 29.8279 38.554C30.1239 38.746 30.3499 38.966 30.5059 39.214C30.6619 39.458 30.7659 39.708 30.8179 39.964C30.8699 40.22 30.8959 40.464 30.8959 40.696C30.8959 41.148 30.7559 41.558 30.4759 41.926C30.1999 42.294 29.8079 42.586 29.2999 42.802C28.7959 43.014 28.1979 43.12 27.5059 43.12Z" fill="#E5E8EF"/>
</svg>
