<svg width="22" height="23" viewBox="0 0 22 23" fill="none" xmlns="http://www.w3.org/2000/svg">
<path d="M17.0145 16.1941L21.5044 20.7092L20.0211 22.2013L15.5322 17.6851C13.862 19.0318 11.7845 19.7643 9.64382 19.7613C4.43579 19.7613 0.208984 15.5097 0.208984 10.2713C0.208984 5.03277 4.43579 0.78125 9.64382 0.78125C14.8518 0.78125 19.0787 5.03277 19.0787 10.2713C19.0817 12.4244 18.3534 14.5141 17.0145 16.1941ZM14.9116 15.4117C16.242 14.0355 16.985 12.1908 16.982 10.2713C16.982 6.19266 13.6977 2.89014 9.64382 2.89014C5.58894 2.89014 2.30561 6.19266 2.30561 10.2713C2.30561 14.3488 5.58894 17.6524 9.64382 17.6524C11.5522 17.6554 13.3862 16.9081 14.7544 15.5698L14.9116 15.4117Z" fill="#8B93A9"/>
</svg>
