<svg width="10" height="12" viewBox="0 0 10 12" fill="none" xmlns="http://www.w3.org/2000/svg">
<path d="M7.06561 3.36368C7.23294 3.53799 7.22729 3.81494 7.05298 3.98227L5.23007 5.73227C5.06077 5.8948 4.7934 5.8948 4.6241 5.73227L3.53035 4.68227C3.35605 4.51494 3.35039 4.23799 3.51773 4.06368C3.68506 3.88938 3.96201 3.88373 4.13632 4.05106L4.92708 4.8102L6.44702 3.35106C6.62132 3.18373 6.89827 3.18938 7.06561 3.36368Z" fill="#00C0E2"/>
<path fill-rule="evenodd" clip-rule="evenodd" d="M0.1875 3.66667C0.1875 2.13638 1.42804 0.895832 2.95833 0.895832H8.79167C9.35546 0.895832 9.8125 1.35287 9.8125 1.91667V10.6667C9.8125 11.2305 9.35546 11.6875 8.79167 11.6875H2.375C1.16688 11.6875 0.1875 10.7081 0.1875 9.5V3.66667ZM1.0625 7.74984C1.4281 7.47522 1.88255 7.3125 2.375 7.3125H8.9375V1.91667C8.9375 1.83612 8.87221 1.77083 8.79167 1.77083H2.95833C1.91129 1.77083 1.0625 2.61963 1.0625 3.66667V7.74984ZM1.0625 9.5C1.0625 10.2249 1.65013 10.8125 2.375 10.8125H8.79167C8.87221 10.8125 8.9375 10.7472 8.9375 10.6667V8.1875H2.375C1.65013 8.1875 1.0625 8.77513 1.0625 9.5Z" fill="#00C0E2"/>
</svg>
