<svg width="14" height="15" viewBox="0 0 14 15" fill="none" xmlns="http://www.w3.org/2000/svg">
<path fillRule="evenodd" clipRule="evenodd" d="M2.1875 4.67147C2.1875 3.14118 3.42804 1.90063 4.95833 1.90063H10.7917C11.3555 1.90063 11.8125 2.35768 11.8125 2.92147V11.6715C11.8125 12.2353 11.3555 12.6923 10.7917 12.6923H4.375C3.16688 12.6923 2.1875 11.7129 2.1875 10.5048V4.67147ZM10.9375 2.92147V8.3173H4.375C3.88255 8.3173 3.4281 8.48003 3.0625 8.75464V4.67147C3.0625 3.62443 3.91129 2.77563 4.95833 2.77563H6.82961C6.67602 3.93153 6.68982 5.10447 6.87134 6.25814L6.90773 6.48947C6.9338 6.65515 7.05229 6.79134 7.21278 6.84009C7.37326 6.88882 7.54748 6.84153 7.66129 6.71833L8.45834 5.85547L9.25539 6.71833C9.36919 6.84153 9.54341 6.88882 9.7039 6.84009C9.86438 6.79134 9.98287 6.65515 10.0089 6.48947L10.0453 6.25814C10.2269 5.10447 10.2407 3.93153 10.0871 2.77563H10.7917C10.8722 2.77563 10.9375 2.84093 10.9375 2.92147ZM9.20377 2.77563H7.71291C7.58624 3.65891 7.56513 4.55375 7.64976 5.44128L8.02984 5.02982C8.2608 4.77979 8.65587 4.77979 8.88683 5.02981L9.26692 5.44128C9.35155 4.55375 9.33044 3.65891 9.20377 2.77563ZM4.375 9.1923H10.9375V11.6715C10.9375 11.752 10.8722 11.8173 10.7917 11.8173H4.375C3.65013 11.8173 3.0625 11.2297 3.0625 10.5048C3.0625 9.77993 3.65013 9.1923 4.375 9.1923Z" fill="white"/>
</svg>
