<svg width="55" height="34" viewBox="0 0 55 34" fill="none" xmlns="http://www.w3.org/2000/svg">
<path d="M21.6319 33.9688H33.6797V31.9986H21.6319V33.9688Z" fill="#AB9EC7"/>
<path d="M20.2414 32.6533H34.9941V29.7792H20.2414V32.6533Z" fill="#DECFF6"/>
<path d="M41.3062 1.17348L10.7653 3.27938C9.69434 3.35322 8.88615 4.28293 8.96014 5.35593L10.6235 29.4796C10.6975 30.5526 11.6257 31.3626 12.6966 31.2887L43.2375 29.1828C44.3084 29.109 45.1166 28.1793 45.0426 27.1063L43.3792 2.98262C43.3052 1.90961 42.3771 1.09963 41.3062 1.17348Z" fill="url(#paint0_linear_4430_369438)"/>
<path d="M13.1985 8.54229L8.66027 8.85521C7.59447 8.92871 6.78452 9.77223 6.85121 10.7393L7.84849 25.2025C7.91517 26.1695 8.83323 26.8939 9.89903 26.8204L14.4373 26.5075C15.5031 26.434 16.313 25.5904 16.2464 24.6234L15.2491 10.1602C15.1824 9.19316 14.2643 8.4688 13.1985 8.54229Z" fill="#DECFF6"/>
<path d="M8.93722 11.5771L6.06573 11.7751C5.78996 11.7942 5.58185 12.0336 5.6009 12.3099L6.4143 24.1062C6.43335 24.3825 6.67235 24.591 6.94811 24.572L9.8196 24.374C10.0954 24.355 10.3035 24.1156 10.2844 23.8393L9.47103 12.043C9.45198 11.7667 9.21298 11.5581 8.93722 11.5771Z" fill="#AB9EC7"/>
<path d="M7.72159 13.4885L0.685547 13.9736L0.732588 14.6559L7.76863 14.1707L7.72159 13.4885Z" fill="white"/>
<path d="M44.0618 6.41338L39.5236 6.72631C38.4578 6.7998 37.6478 7.64332 37.7145 8.61037L38.7118 23.0735C38.7785 24.0406 39.6965 24.765 40.7623 24.6915L45.3006 24.3785C46.3664 24.3051 47.1763 23.4615 47.1096 22.4945L46.1123 8.0313C46.0457 7.06426 45.1276 6.33989 44.0618 6.41338Z" fill="#DECFF6"/>
<path d="M47.2321 8.93554L44.3606 9.13354C44.0849 9.15255 43.8768 9.39195 43.8958 9.66825L44.7092 21.4646C44.7283 21.7409 44.9673 21.9494 45.243 21.9304L48.1145 21.7324C48.3903 21.7134 48.5984 21.474 48.5794 21.1977L47.766 9.40139C47.7469 9.12509 47.5079 8.91652 47.2321 8.93554Z" fill="#AB9EC7"/>
<path d="M51.7559 10.4535L46.3086 10.8291L46.3556 11.5113L51.8029 11.1357L51.7559 10.4535Z" fill="white"/>
<path d="M39.8503 1.2743L13.3493 3.10164C12.2783 3.17549 11.4701 4.10519 11.5441 5.1782L13.2075 29.3019C13.2815 30.3749 14.2097 31.1849 15.2806 31.111L41.7817 29.2837C42.8526 29.2098 43.6608 28.2801 43.5868 27.2071L41.9234 3.08344C41.8494 2.01044 40.9213 1.20046 39.8503 1.2743Z" fill="url(#paint1_linear_4430_369438)"/>
<path d="M36.1077 8.20136L18.0094 9.4493C16.9385 9.52314 16.1303 10.4528 16.2043 11.5259L16.9523 22.3734C17.0262 23.4464 17.9544 24.2564 19.0253 24.1825L37.1236 22.9346C38.1946 22.8608 39.0028 21.9311 38.9288 20.8581L38.1808 10.0105C38.1068 8.93749 37.1787 8.12751 36.1077 8.20136Z" fill="url(#paint2_linear_4430_369438)"/>
<path d="M36.1077 8.20136L18.0094 9.4493C16.9385 9.52314 16.1303 10.4528 16.2043 11.5259L16.9523 22.3734C17.0262 23.4464 17.9544 24.2564 19.0253 24.1825L37.1236 22.9346C38.1946 22.8608 39.0028 21.9311 38.9288 20.8581L38.1808 10.0105C38.1068 8.93749 37.1787 8.12751 36.1077 8.20136Z" fill="url(#paint3_linear_4430_369438)"/>
<path d="M35.697 16.3668C35.5983 14.9356 34.3264 13.3492 32.898 13.4477C31.4695 13.5462 30.4274 15.2921 30.5261 16.7234C30.6248 18.1546 31.7905 18.2016 33.219 18.1031C34.6475 18.0046 35.7957 17.798 35.697 16.3668Z" fill="url(#paint4_linear_4430_369438)"/>
<path d="M25.5178 17.0683C25.4191 15.637 24.1487 14.0719 22.7202 14.1704C21.2918 14.2689 20.2482 15.9936 20.3469 17.4248C20.4456 18.856 21.6191 19.0165 23.0476 18.918C24.4761 18.8195 25.6165 18.4995 25.5178 17.0683Z" fill="url(#paint5_linear_4430_369438)"/>
<path style="mix-blend-mode:screen" d="M36.8489 22.9475L18.9122 24.1843C18.9122 24.1843 17.773 24.145 17.0865 23.6077L0.35832 9.45364L53.4227 4.7001L38.8774 21.755C38.8774 21.755 38.6345 22.9422 36.8489 22.9475Z" fill="url(#paint6_linear_4430_369438)"/>
<defs>
<linearGradient id="paint0_linear_4430_369438" x1="9.79184" y1="17.4178" x2="44.2109" y2="15.0445" gradientUnits="userSpaceOnUse">
<stop stop-color="#F2EBFF"/>
<stop offset="0.04" stop-color="#F5F0FF"/>
<stop offset="0.14" stop-color="#FCFBFF"/>
<stop offset="0.25" stop-color="white"/>
</linearGradient>
<linearGradient id="paint1_linear_4430_369438" x1="12.3758" y1="17.24" x2="42.7551" y2="15.1453" gradientUnits="userSpaceOnUse">
<stop stop-color="#EAE1FC"/>
<stop offset="1" stop-color="#E6E5FD"/>
</linearGradient>
<linearGradient id="paint2_linear_4430_369438" x1="16.5783" y1="16.9496" x2="38.5548" y2="15.4343" gradientUnits="userSpaceOnUse">
<stop stop-color="#2A5DE6"/>
<stop offset="1" stop-color="#3A2AE6"/>
</linearGradient>
<linearGradient id="paint3_linear_4430_369438" x1="38.5568" y1="15.4349" x2="16.5803" y2="16.9503" gradientUnits="userSpaceOnUse">
<stop stop-color="#23AA92"/>
<stop offset="1" stop-color="#7A4BD8"/>
</linearGradient>
<linearGradient id="paint4_linear_4430_369438" x1="30.5428" y1="16.9662" x2="35.7138" y2="16.6097" gradientUnits="userSpaceOnUse">
<stop stop-color="#F2EBFF"/>
<stop offset="1" stop-color="#F7F5FF"/>
</linearGradient>
<linearGradient id="paint5_linear_4430_369438" x1="20.3301" y1="17.182" x2="25.5011" y2="16.8254" gradientUnits="userSpaceOnUse">
<stop stop-color="#F2EBFF"/>
<stop offset="1" stop-color="#F7F5FF"/>
</linearGradient>
<linearGradient id="paint6_linear_4430_369438" x1="26.878" y1="7.10411" x2="28.227" y2="23.4803" gradientUnits="userSpaceOnUse">
<stop/>
<stop offset="1" stop-color="#6BCAFF"/>
</linearGradient>
</defs>
</svg>
