<svg width="61" height="44" viewBox="0 0 61 44" fill="none" xmlns="http://www.w3.org/2000/svg">
<path d="M17.5367 40.3872L28.8125 39.012L28.587 37.1631L17.3112 38.5383L17.5367 40.3872Z" fill="#AB9EC7"/>
<path d="M16.0812 39.3143L29.8887 37.6302L29.5597 34.933L15.7522 36.6171L16.0812 39.3143Z" fill="#DECFF6"/>
<path d="M8.09186 38.4403L36.6711 34.9545C37.6758 34.832 38.3904 33.9144 38.2673 32.9051L35.4998 10.2141C35.3767 9.20476 34.4624 8.48586 33.4577 8.60841L4.87849 12.0941C3.87379 12.2167 3.15912 13.1342 3.28223 14.1436L6.04978 36.8346C6.17289 37.8439 7.08715 38.5628 8.09186 38.4403Z" fill="url(#paint0_linear_8912_94496)"/>
<path d="M26.3741 13.3961C26.4277 13.8351 26.1895 14.2267 25.8432 14.2689C25.5949 14.2992 25.3576 14.1421 25.2234 13.8882C25.2226 13.8864 25.2216 13.8847 25.2208 13.8833C25.2174 13.8767 25.2138 13.8693 25.2106 13.8623C25.2099 13.8609 25.2091 13.8592 25.2086 13.8577C25.2008 13.8391 25.1951 13.819 25.1925 13.7974C25.19 13.7773 25.19 13.7581 25.1925 13.7396C25.1948 13.7208 25.1997 13.7031 25.2065 13.6867L25.4465 13.6575C25.4517 13.6643 25.4561 13.6719 25.4605 13.6795C25.4625 13.6837 25.4644 13.6875 25.4667 13.6917C25.467 13.692 25.4671 13.6924 25.4671 13.6928C25.5383 13.8283 25.6653 13.9129 25.7975 13.8968C25.9822 13.8742 26.1088 13.6657 26.0803 13.4319C26.0518 13.1981 25.8785 13.0261 25.6941 13.0486L25.6552 12.7301C25.653 12.7119 25.6494 12.6941 25.6444 12.6769L25.6487 12.6764C25.995 12.6342 26.3203 12.957 26.3739 13.3961L26.3741 13.3961Z" fill="url(#paint1_linear_8912_94496)"/>
<path d="M25.6953 13.048C25.349 13.0903 25.0237 12.7674 24.9702 12.3284C24.9166 11.8893 25.1548 11.4977 25.5011 11.4555C25.8474 11.4133 26.1727 11.7361 26.2262 12.1752C26.2798 12.6142 26.0416 13.0058 25.6953 13.048ZM25.5464 11.8273C25.3621 11.8498 25.2352 12.0584 25.2637 12.2926C25.2923 12.5267 25.4655 12.6983 25.6499 12.6758C25.8343 12.6534 25.9615 12.4447 25.933 12.2109C25.9044 11.9772 25.7311 11.8048 25.5464 11.8273Z" fill="url(#paint2_linear_8912_94496)"/>
<path opacity="0.52" d="M25.6732 12.6721C25.6732 12.6721 25.9211 12.6389 26.0748 12.8133C26.0748 12.8133 26.2356 12.559 26.2307 12.3672L25.9375 12.2555C25.9375 12.2555 25.9613 12.5969 25.6732 12.6721Z" fill="url(#paint3_linear_8912_94496)"/>
<path d="M25.15 13.5279C25.2331 13.5178 25.29 13.4242 25.2771 13.3189C25.2643 13.2136 25.1866 13.1364 25.1035 13.1466C25.0205 13.1567 24.9635 13.2503 24.9764 13.3556C24.9892 13.4609 25.067 13.538 25.15 13.5279Z" fill="#1BE2C5"/>
<path d="M25.4869 13.7616C25.4994 13.8642 25.4436 13.9559 25.3624 13.9658C25.3082 13.9725 25.2564 13.941 25.2237 13.8882C25.2229 13.8865 25.2218 13.8848 25.221 13.8834C25.2176 13.8767 25.2141 13.8694 25.2109 13.8624C25.2101 13.861 25.2093 13.8592 25.2089 13.8578C25.201 13.8391 25.1954 13.819 25.1927 13.7975C25.1903 13.7774 25.1903 13.7581 25.1927 13.7397C25.195 13.7205 25.1999 13.7028 25.2066 13.6861C25.2276 13.635 25.2676 13.5986 25.3168 13.5926C25.3661 13.5865 25.414 13.6122 25.4466 13.6568C25.4466 13.6572 25.4469 13.6571 25.447 13.6575C25.4522 13.6643 25.4566 13.6719 25.4611 13.6795C25.4633 13.6833 25.4652 13.6871 25.4672 13.6917C25.4676 13.6921 25.4676 13.6924 25.4677 13.6928C25.4772 13.7135 25.4841 13.7364 25.4872 13.7616L25.4869 13.7616Z" fill="#1BE2C5"/>
<path d="M26.1138 11.1582C26.1858 11.1494 26.235 11.0684 26.2239 10.9772C26.2128 10.886 26.1455 10.8192 26.0736 10.828C26.0017 10.8368 25.9524 10.9178 25.9635 11.009C25.9746 11.1002 26.0419 11.167 26.1138 11.1582Z" fill="#6043DD"/>
<path d="M25.3557 11.4964C25.3557 11.4964 25.6389 11.4189 25.7827 11.2097C25.8212 11.1539 25.8857 11.1386 25.9406 11.1738C26.0256 11.2286 26.0447 11.3701 25.9784 11.4479C25.9027 11.5368 25.7945 11.6349 25.6633 11.6758L25.356 11.496L25.3557 11.4964Z" fill="#6043DD"/>
<path d="M3.91057 12.2138L15.1606 10.8417C14.6922 10.8988 14.3557 11.3309 14.4131 11.8015L17.4174 36.4343C17.4748 36.9049 17.9054 37.2435 18.3738 37.1863L7.12375 38.5585C6.65531 38.6156 6.22477 38.2771 6.16738 37.8065L3.16299 13.1737C3.10559 12.7031 3.44214 12.271 3.91057 12.2138Z" fill="url(#paint4_linear_8912_94496)"/>
<path d="M20.7011 31.191L33.9386 29.5765C34.9433 29.454 35.658 28.5364 35.5349 27.527L34.2136 16.694C34.0905 15.6847 33.1763 14.9658 32.1716 15.0883L18.934 16.7029C17.9293 16.8254 17.2147 17.743 17.3378 18.7523L18.659 29.5853C18.7822 30.5947 19.6964 31.3136 20.7011 31.191Z" fill="url(#paint5_linear_8912_94496)"/>
<path d="M20.7011 31.191L33.9386 29.5765C34.9433 29.454 35.658 28.5364 35.5349 27.527L34.2136 16.694C34.0905 15.6847 33.1763 14.9658 32.1716 15.0883L18.934 16.7029C17.9293 16.8254 17.2147 17.743 17.3378 18.7523L18.659 29.5853C18.7822 30.5947 19.6964 31.3136 20.7011 31.191Z" fill="url(#paint6_linear_8912_94496)"/>
<path d="M31.8362 25.5037C32.7262 25.3951 33.292 24.0307 33.1 22.4561C32.9079 20.8815 32.0308 19.6931 31.1408 19.8016C30.2508 19.9102 29.685 21.2746 29.877 22.8492C30.0691 24.4238 30.9462 25.6122 31.8362 25.5037Z" fill="#EAE4F7"/>
<path d="M22.6813 26.8552C23.6433 26.7379 24.2548 25.2626 24.0472 23.5602C23.8395 21.8578 22.8914 20.5728 21.9294 20.6901C20.9674 20.8075 20.3558 22.2827 20.5635 23.9851C20.7711 25.6875 21.7193 26.9725 22.6813 26.8552Z" fill="#EAE4F7"/>
<path d="M11.0289 14.8541L6.75081 15.3759C5.74611 15.4984 5.03144 16.416 5.15455 17.4254L6.99574 32.5212C7.11885 33.5305 8.03312 34.2494 9.03782 34.1269L13.3159 33.6051C14.3206 33.4826 15.0353 32.565 14.9122 31.5557L13.071 16.4598C12.9479 15.4505 12.0336 14.7316 11.0289 14.8541Z" fill="#DECFF6"/>
<path d="M9.89836 15.9333L9.65428 15.963C8.71907 16.0771 8.05383 16.9312 8.16842 17.8707L9.22165 26.5061C9.33624 27.4456 10.1873 28.1148 11.1225 28.0007L11.3666 27.9709C12.3018 27.8569 12.967 27.0028 12.8524 26.0632L11.7992 17.4279C11.6846 16.4884 10.8336 15.8192 9.89836 15.9333Z" fill="#AB9EC7"/>
<path d="M10.6187 18.6461L1.74414 19.7285L1.82141 20.3621L10.6959 19.2797L10.6187 18.6461Z" fill="white"/>
<path style="mix-blend-mode:screen" d="M18.6606 29.7862L17.2812 18.4765C17.2812 18.4765 17.4488 16.949 18.7606 16.7427L53.7478 0.731568L60.6376 36.7471L20.4066 31.1343C20.4066 31.1343 19.3596 31.4428 18.6591 29.7863L18.6606 29.7862Z" fill="url(#paint7_linear_8912_94496)"/>
<defs>
<linearGradient id="paint0_linear_8912_94496" x1="4.66458" y1="25.49" x2="36.8836" y2="21.5604" gradientUnits="userSpaceOnUse">
<stop stop-color="#F2EBFF"/>
<stop offset="1" stop-color="white"/>
</linearGradient>
<linearGradient id="paint1_linear_8912_94496" x1="25.4733" y1="12.4921" x2="25.8373" y2="13.4319" gradientUnits="userSpaceOnUse">
<stop stop-color="#6043DD"/>
<stop offset="1" stop-color="#1BE2C5"/>
</linearGradient>
<linearGradient id="paint2_linear_8912_94496" x1="25.6427" y1="12.4083" x2="26.0106" y2="13.357" gradientUnits="userSpaceOnUse">
<stop stop-color="#6043DD"/>
<stop offset="1" stop-color="#1BE2C5"/>
</linearGradient>
<linearGradient id="paint3_linear_8912_94496" x1="26.0114" y1="12.3313" x2="25.7827" y2="12.8008" gradientUnits="userSpaceOnUse">
<stop stop-opacity="0"/>
<stop offset="1"/>
</linearGradient>
<linearGradient id="paint4_linear_8912_94496" x1="2.47763" y1="25.7569" x2="16.7672" y2="24.014" gradientUnits="userSpaceOnUse">
<stop stop-color="#F2EBFF"/>
<stop offset="1" stop-color="white"/>
</linearGradient>
<linearGradient id="paint5_linear_8912_94496" x1="34.8743" y1="22.1105" x2="17.9984" y2="24.1688" gradientUnits="userSpaceOnUse">
<stop stop-color="#2A5DE6"/>
<stop offset="1" stop-color="#3A2AE6"/>
</linearGradient>
<linearGradient id="paint6_linear_8912_94496" x1="17.9968" y1="24.1683" x2="34.8727" y2="22.11" gradientUnits="userSpaceOnUse">
<stop stop-color="#23AA92"/>
<stop offset="1" stop-color="#7A4BD8"/>
</linearGradient>
<linearGradient id="paint7_linear_8912_94496" x1="50.9047" y1="19.5809" x2="25.2392" y2="23.0328" gradientUnits="userSpaceOnUse">
<stop/>
<stop offset="1" stop-color="#6BAFFF"/>
</linearGradient>
</defs>
</svg>
