<svg
    width="21"
    height="17"
    viewBox="0 0 21 17"
    fill="none"
    xmlns="http://www.w3.org/2000/svg">
    <path
        d="M17.7006 3.00005H20.4006V4.80005H19.5006V14.7H20.4006V16.5H0.600586V14.7H1.50059V4.80005H0.600586V3.00005H3.30059V1.20005C3.30059 0.961354 3.39541 0.732435 3.56419 0.563653C3.73297 0.39487 3.96189 0.300049 4.20059 0.300049H16.8006C17.0393 0.300049 17.2682 0.39487 17.437 0.563653C17.6058 0.732435 17.7006 0.961354 17.7006 1.20005V3.00005ZM17.7006 4.80005H3.30059V14.7H6.00059V8.40005H7.80059V14.7H9.60059V8.40005H11.4006V14.7H13.2006V8.40005H15.0006V14.7H17.7006V4.80005ZM5.10059 2.10005V3.00005H15.9006V2.10005H5.10059Z"
        fill="white" />
</svg>