<svg width="19" height="17" viewBox="0 0 19 17" fill="none" xmlns="http://www.w3.org/2000/svg">
<path d="M18.2002 16.5002H0.200195V14.7002H1.1002V1.20017C1.1002 0.961476 1.19502 0.732558 1.3638 0.563775C1.53258 0.394992 1.7615 0.300171 2.0002 0.300171H14.6002C14.8389 0.300171 15.0678 0.394992 15.2366 0.563775C15.4054 0.732558 15.5002 0.961476 15.5002 1.20017V5.70017H17.3002V14.7002H18.2002V16.5002ZM13.7002 14.7002H15.5002V7.50017H10.1002V14.7002H11.9002V9.30017H13.7002V14.7002ZM13.7002 5.70017V2.10017H2.9002V14.7002H8.30019V5.70017H13.7002ZM4.7002 7.50017H6.5002V9.30017H4.7002V7.50017ZM4.7002 11.1002H6.5002V12.9002H4.7002V11.1002ZM4.7002 3.90017H6.5002V5.70017H4.7002V3.90017Z" fill="white"/>
</svg>
