<svg width="19" height="17" viewBox="0 0 19 17" fill="none" xmlns="http://www.w3.org/2000/svg">
<path d="M17.2006 16.5H1.00059C0.761891 16.5 0.532973 16.4052 0.36419 16.2364C0.195407 16.0676 0.100586 15.8387 0.100586 15.6V8.83829C0.100572 8.70969 0.128118 8.58258 0.181368 8.46552C0.234618 8.34846 0.312336 8.24418 0.409286 8.15969L3.70059 5.28959V1.19999C3.70059 0.961293 3.79541 0.732374 3.96419 0.563592C4.13297 0.394809 4.36189 0.299988 4.60059 0.299988H17.2006C17.4393 0.299988 17.6682 0.394809 17.837 0.563592C18.0058 0.732374 18.1006 0.961293 18.1006 1.19999V15.6C18.1006 15.8387 18.0058 16.0676 17.837 16.2364C17.6682 16.4052 17.4393 16.5 17.2006 16.5ZM6.40059 14.7H9.10059V9.24779L5.50059 6.10859L1.90059 9.24779V14.7H4.60059V11.1H6.40059V14.7ZM10.9006 14.7H16.3006V2.09999H5.50059V4.01429C5.71119 4.01429 5.92269 4.08809 6.09189 4.23659L10.5919 8.15969C10.6888 8.24418 10.7666 8.34846 10.8198 8.46552C10.8731 8.58258 10.9006 8.70969 10.9006 8.83829V14.7ZM12.7006 7.49999H14.5006V9.29999H12.7006V7.49999ZM12.7006 11.1H14.5006V12.9H12.7006V11.1ZM12.7006 3.89999H14.5006V5.69999H12.7006V3.89999ZM9.10059 3.89999H10.9006V5.69999H9.10059V3.89999Z" fill="white"/>
</svg>
