<svg width="21" height="19" viewBox="0 0 21 19" fill="none" xmlns="http://www.w3.org/2000/svg">
<path d="M18.8008 16.6H20.6008V18.4H0.800781V16.6H2.60078V1.30002C2.60078 1.06133 2.6956 0.832411 2.86439 0.663628C3.03317 0.494846 3.26209 0.400024 3.50078 0.400024H17.9008C18.1395 0.400024 18.3684 0.494846 18.5372 0.663628C18.706 0.832411 18.8008 1.06133 18.8008 1.30002V16.6ZM17.0008 16.6V2.20002H4.40078V16.6H17.0008ZM7.10078 8.50002H9.80078V10.3H7.10078V8.50002ZM7.10078 4.90002H9.80078V6.70002H7.10078V4.90002ZM7.10078 12.1H9.80078V13.9H7.10078V12.1ZM11.6008 12.1H14.3008V13.9H11.6008V12.1ZM11.6008 8.50002H14.3008V10.3H11.6008V8.50002ZM11.6008 4.90002H14.3008V6.70002H11.6008V4.90002Z" fill="white"/>
</svg>
