<svg width="16" height="15" viewBox="0 0 16 15" fill="none" xmlns="http://www.w3.org/2000/svg">
<path fill-rule="evenodd" clip-rule="evenodd" d="M11.1233 7.83341C11.1233 6.10752 9.72423 4.70841 7.99834 4.70841C6.27245 4.70841 4.87334 6.10752 4.87334 7.83341C4.87334 9.5593 6.27245 10.9584 7.99834 10.9584C9.72423 10.9584 11.1233 9.5593 11.1233 7.83341ZM7.99834 5.95841C9.03388 5.95841 9.87334 6.79788 9.87334 7.83341C9.87334 8.86895 9.03388 9.70841 7.99834 9.70841C6.96281 9.70841 6.12334 8.86895 6.12334 7.83341C6.12334 6.79788 6.96281 5.95841 7.99834 5.95841Z" fill="white"/>
<path fill-rule="evenodd" clip-rule="evenodd" d="M9.15157 1.79175C10.0225 1.79175 10.7286 2.49781 10.7286 3.36879C10.7286 3.92376 11.1546 4.38578 11.7078 4.4307L13.5658 4.58159C13.9306 4.61122 14.2306 4.88099 14.2987 5.24061C14.6726 7.21562 14.7005 9.24058 14.3811 11.2251L14.3001 11.7286C14.2235 12.2041 13.8322 12.5659 13.3521 12.6049L11.7335 12.7363C9.24749 12.9382 6.7492 12.9382 4.26318 12.7363L2.64457 12.6049C2.16453 12.5659 1.77316 12.2041 1.69663 11.7286L1.61558 11.2251C1.29615 9.24058 1.32404 7.21562 1.69799 5.24061C1.76608 4.88099 2.06611 4.61122 2.43091 4.58159L4.28891 4.4307C4.84206 4.38578 5.26808 3.92376 5.26808 3.36879C5.26808 2.49781 5.97415 1.79175 6.84512 1.79175H9.15157ZM11.9735 3.19817C11.8853 1.71628 10.6556 0.541748 9.15157 0.541748H6.84512C5.34108 0.541748 4.11136 1.71628 4.02314 3.19817L2.32973 3.3357C1.40397 3.41088 0.642607 4.09547 0.469813 5.00806C0.0689173 7.12537 0.0390244 9.29624 0.381468 11.4238L0.462511 11.9273C0.63052 12.9711 1.48962 13.7652 2.54339 13.8508L4.16199 13.9822C6.71536 14.1896 9.28133 14.1896 11.8347 13.9822L13.4533 13.8508C14.5071 13.7652 15.3662 12.9711 15.5342 11.9273L15.6152 11.4238C15.9577 9.29624 15.9278 7.12537 15.5269 5.00806C15.3541 4.09547 14.5927 3.41088 13.667 3.3357L11.9735 3.19817Z" fill="white"/>
</svg>
