<svg width="259" height="137" viewBox="0 0 259 137" fill="none" xmlns="http://www.w3.org/2000/svg">
<g filter="url(#filter0_d_2342_139200)">
<rect x="0.140625" width="258.57" height="136.144" rx="9.78814" fill="#161A3E"/>
<path d="M26.391 42.8245C26.2605 42.9332 26.0538 43.0311 25.7711 43.1181C25.4883 43.2051 25.1784 43.2486 24.8412 43.2486C24.4606 43.2486 24.1234 43.1888 23.8298 43.0692C23.5361 42.9495 23.3404 42.7864 23.2425 42.5798C23.0793 42.2644 22.889 41.8511 22.6715 41.3399C22.4649 40.8179 22.2365 40.2361 21.9863 39.5944C21.7471 38.9418 21.5024 38.273 21.2522 37.5878C21.013 36.8918 20.79 36.2066 20.5834 35.5323C20.3767 34.858 20.1973 34.2435 20.045 33.6889C20.1755 33.5584 20.3659 33.4387 20.616 33.33C20.8661 33.2104 21.138 33.1505 21.4317 33.1505C21.7906 33.1505 22.0788 33.2267 22.2963 33.3789C22.5138 33.5312 22.6715 33.8031 22.7694 34.1946C23.1065 35.3474 23.4437 36.4568 23.7808 37.5226C24.118 38.5775 24.4769 39.6651 24.8575 40.7853H24.9391C25.1675 40.0784 25.3959 39.3171 25.6243 38.5014C25.8635 37.6857 26.0974 36.8483 26.3257 35.9891C26.565 35.119 26.788 34.2653 26.9946 33.4279C27.1577 33.3517 27.3372 33.2865 27.5329 33.2321C27.7287 33.1777 27.9408 33.1505 28.1692 33.1505C28.5281 33.1505 28.8272 33.2321 29.0664 33.3952C29.3166 33.5475 29.4416 33.8031 29.4416 34.162C29.4416 34.3795 29.3818 34.7166 29.2622 35.1734C29.1534 35.6193 29.0012 36.1414 28.8054 36.7395C28.6205 37.3268 28.4139 37.9358 28.1855 38.5666C27.968 39.1866 27.745 39.7847 27.5166 40.3611C27.2882 40.9375 27.0707 41.4433 26.8641 41.8783C26.6683 42.3133 26.5106 42.6287 26.391 42.8245ZM30.5404 33.02C30.5404 32.6503 30.6654 32.3403 30.9156 32.0902C31.1766 31.84 31.5029 31.7149 31.8944 31.7149C32.2968 31.7149 32.6231 31.84 32.8732 32.0902C33.1234 32.3403 33.2484 32.6503 33.2484 33.02C33.2484 33.3789 33.1234 33.6889 32.8732 33.9499C32.6231 34.2109 32.2968 34.3414 31.8944 34.3414C31.5029 34.3414 31.1766 34.2109 30.9156 33.9499C30.6654 33.6889 30.5404 33.3789 30.5404 33.02ZM30.6872 38.795H33.1016V43.0855C33.0037 43.1181 32.8569 43.1453 32.6611 43.1671C32.4654 43.1997 32.2533 43.216 32.0249 43.216C31.5573 43.216 31.2147 43.1344 30.9972 42.9713C30.7905 42.8082 30.6872 42.5145 30.6872 42.0904V38.795ZM33.1016 40.0512H30.6872V35.3692C30.7851 35.3366 30.9319 35.3039 31.1277 35.2713C31.3343 35.2387 31.5518 35.2224 31.7802 35.2224C32.2479 35.2224 32.585 35.3039 32.7916 35.4671C32.9983 35.6193 33.1016 35.9184 33.1016 36.3643V40.0512ZM42.5547 38.0283V39.5618H40.124V38.1099C40.124 37.7075 40.0043 37.4138 39.7651 37.2289C39.5367 37.0332 39.2321 36.9353 38.8515 36.9353C38.5796 36.9353 38.3295 36.9733 38.1011 37.0495C37.8727 37.1147 37.666 37.1963 37.4812 37.2942V39.5618H35.0667V37.0168C35.0667 36.745 35.1211 36.522 35.2299 36.348C35.3495 36.1631 35.5181 36 35.7356 35.8586C36.0836 35.6193 36.5295 35.4236 37.0733 35.2713C37.6171 35.1082 38.2153 35.0266 38.8678 35.0266C40.0424 35.0266 40.9505 35.2876 41.5922 35.8096C42.2338 36.3208 42.5547 37.0604 42.5547 38.0283ZM35.0667 38.8113H37.4812V43.0855C37.3724 43.1181 37.2201 43.1453 37.0244 43.1671C36.8286 43.1997 36.6165 43.216 36.3881 43.216C35.9314 43.216 35.5942 43.1344 35.3767 42.9713C35.1701 42.8082 35.0667 42.5145 35.0667 42.0904V38.8113ZM40.124 38.8113H42.5547V43.0855C42.4459 43.1181 42.2937 43.1453 42.0979 43.1671C41.9021 43.1997 41.6901 43.216 41.4617 43.216C41.0049 43.216 40.6677 43.1344 40.4502 42.9713C40.2327 42.8082 40.124 42.5145 40.124 42.0904V38.8113ZM47.5354 41.3563C48.1227 41.3563 48.5414 41.2529 48.7916 41.0463C49.0526 40.8288 49.1831 40.5732 49.1831 40.2796C49.1831 40.0077 49.0798 39.7902 48.8731 39.627C48.6774 39.453 48.3837 39.3062 47.9922 39.1866L47.1276 38.9092C46.5403 38.7135 46.0182 38.4959 45.5615 38.2567C45.1156 38.0174 44.7675 37.7075 44.5174 37.3268C44.2781 36.9462 44.1585 36.4622 44.1585 35.8749C44.1585 34.9722 44.5011 34.2544 45.1863 33.7215C45.8714 33.1886 46.823 32.9221 48.0411 32.9221C48.661 32.9221 49.2103 32.982 49.6888 33.1016C50.1782 33.2212 50.5589 33.4007 50.8307 33.6399C51.1135 33.8683 51.2549 34.1511 51.2549 34.4882C51.2549 34.7384 51.1951 34.9559 51.0754 35.1408C50.9667 35.3148 50.8253 35.4671 50.6513 35.5976C50.4012 35.4236 50.0694 35.2767 49.6562 35.1571C49.2429 35.0266 48.7861 34.9613 48.2858 34.9613C47.7638 34.9613 47.3723 35.0483 47.1113 35.2224C46.8502 35.3855 46.7197 35.603 46.7197 35.8749C46.7197 36.0924 46.8067 36.2719 46.9807 36.4132C47.1548 36.5438 47.4158 36.6634 47.7638 36.7721L48.661 37.0495C49.6507 37.354 50.412 37.7618 50.9449 38.273C51.4778 38.7733 51.7443 39.4476 51.7443 40.2959C51.7443 41.2094 51.3908 41.9544 50.6839 42.5308C49.977 43.0964 48.9547 43.3791 47.617 43.3791C46.9536 43.3791 46.3608 43.3084 45.8388 43.1671C45.3168 43.0257 44.898 42.819 44.5827 42.5471C44.2781 42.2753 44.1259 41.9599 44.1259 41.601C44.1259 41.3182 44.2074 41.0789 44.3706 40.8832C44.5446 40.6765 44.7349 40.5243 44.9415 40.4264C45.2352 40.6656 45.5995 40.8832 46.0346 41.0789C46.4805 41.2638 46.9807 41.3563 47.5354 41.3563ZM61.1882 39.1866C61.1882 40.0349 61.0142 40.7744 60.6662 41.4052C60.329 42.0251 59.8505 42.5036 59.2306 42.8408C58.6107 43.1779 57.882 43.3465 57.0446 43.3465C56.218 43.3465 55.4893 43.1834 54.8585 42.8571C54.2386 42.52 53.7547 42.0414 53.4066 41.4215C53.0695 40.7907 52.9009 40.0457 52.9009 39.1866C52.9009 38.3274 53.0749 37.5933 53.4229 36.9842C53.771 36.3643 54.2549 35.8858 54.8749 35.5486C55.5056 35.2006 56.2289 35.0266 57.0446 35.0266C57.8711 35.0266 58.5943 35.2006 59.2143 35.5486C59.8342 35.8858 60.3181 36.3697 60.6662 37.0005C61.0142 37.6205 61.1882 38.3491 61.1882 39.1866ZM57.0446 36.9353C56.5334 36.9353 56.1256 37.131 55.821 37.5226C55.5274 37.9141 55.3806 38.4688 55.3806 39.1866C55.3806 39.9152 55.5274 40.4753 55.821 40.8668C56.1147 41.2475 56.5225 41.4378 57.0446 41.4378C57.5666 41.4378 57.9744 41.2421 58.2681 40.8505C58.5617 40.459 58.7085 39.9043 58.7085 39.1866C58.7085 38.4796 58.5617 37.9304 58.2681 37.5389C57.9744 37.1365 57.5666 36.9353 57.0446 36.9353ZM62.789 38.795L65.2197 38.844V43.0855C65.1109 43.1181 64.9587 43.1453 64.7629 43.1671C64.5671 43.1997 64.3551 43.216 64.1267 43.216C63.6699 43.216 63.3328 43.1344 63.1152 42.9713C62.8977 42.8082 62.789 42.5145 62.789 42.0904V38.795ZM65.2197 40.1001L62.789 40.0512V32.4817C62.8977 32.4491 63.05 32.4164 63.2457 32.3838C63.4415 32.3512 63.6536 32.3349 63.882 32.3349C64.3496 32.3349 64.6868 32.4164 64.8934 32.5796C65.1109 32.7427 65.2197 33.0418 65.2197 33.4768V40.1001ZM67.2 40.0512V38.8766H69.6144V40.0349C69.6144 40.5351 69.7395 40.894 69.9896 41.1116C70.2506 41.3291 70.615 41.4378 71.0826 41.4378C71.3763 41.4378 71.621 41.4106 71.8167 41.3563C72.0125 41.3019 72.1593 41.2475 72.2572 41.1931V38.8766H74.6879V41.4868C74.6879 41.7478 74.6335 41.9707 74.5248 42.1556C74.4269 42.3405 74.2638 42.5036 74.0354 42.645C73.6874 42.8625 73.2578 43.0311 72.7466 43.1507C72.2463 43.2813 71.6862 43.3465 71.0663 43.3465C70.2941 43.3465 69.6144 43.2323 69.0271 43.0039C68.4507 42.7755 67.9994 42.4221 67.6731 41.9435C67.3577 41.4541 67.2 40.8233 67.2 40.0512ZM74.6879 39.6107H72.2572V35.3039C72.366 35.2713 72.5182 35.2387 72.714 35.206C72.9097 35.1734 73.1218 35.1571 73.3502 35.1571C73.8179 35.1571 74.155 35.2387 74.3617 35.4018C74.5792 35.5541 74.6879 35.8531 74.6879 36.2991V39.6107ZM69.6144 39.6107H67.2V35.3039C67.2979 35.2713 67.4447 35.2387 67.6405 35.206C67.8362 35.1734 68.0483 35.1571 68.2767 35.1571C68.7444 35.1571 69.0815 35.2387 69.2881 35.4018C69.5057 35.5541 69.6144 35.8531 69.6144 36.2991V39.6107ZM76.5839 38.795H78.982V40.5406C78.982 40.8451 79.0798 41.068 79.2756 41.2094C79.4714 41.3508 79.7487 41.4215 80.1076 41.4215C80.2707 41.4215 80.4447 41.4052 80.6296 41.3726C80.8254 41.3291 80.9885 41.2801 81.119 41.2257C81.206 41.3236 81.2822 41.4433 81.3474 41.5846C81.4236 41.726 81.4616 41.8892 81.4616 42.0741C81.4616 42.4438 81.3094 42.7483 81.0048 42.9876C80.7003 43.2269 80.1892 43.3465 79.4714 43.3465C78.5578 43.3465 77.8454 43.1399 77.3343 42.7266C76.834 42.3133 76.5839 41.639 76.5839 40.7037V38.795ZM78.1173 37.3105V35.4507H81.2495C81.3039 35.5378 81.3583 35.6628 81.4127 35.826C81.4671 35.9891 81.4942 36.1685 81.4942 36.3643C81.4942 36.6906 81.4181 36.9298 81.2659 37.0821C81.1245 37.2344 80.9287 37.3105 80.6786 37.3105H78.1173ZM78.982 39.2029H76.5839V33.3463C76.6926 33.3137 76.8449 33.281 77.0406 33.2484C77.2364 33.2049 77.443 33.1832 77.6606 33.1832C78.1282 33.1832 78.4654 33.2647 78.672 33.4279C78.8786 33.591 78.982 33.8901 78.982 34.3251V39.2029ZM82.8585 33.02C82.8585 32.6503 82.9835 32.3403 83.2337 32.0902C83.4947 31.84 83.821 31.7149 84.2125 31.7149C84.6149 31.7149 84.9412 31.84 85.1913 32.0902C85.4414 32.3403 85.5665 32.6503 85.5665 33.02C85.5665 33.3789 85.4414 33.6889 85.1913 33.9499C84.9412 34.2109 84.6149 34.3414 84.2125 34.3414C83.821 34.3414 83.4947 34.2109 83.2337 33.9499C82.9835 33.6889 82.8585 33.3789 82.8585 33.02ZM83.0053 38.795H85.4197V43.0855C85.3218 43.1181 85.175 43.1453 84.9792 43.1671C84.7835 43.1997 84.5714 43.216 84.343 43.216C83.8753 43.216 83.5328 43.1344 83.3152 42.9713C83.1086 42.8082 83.0053 42.5145 83.0053 42.0904V38.795ZM85.4197 40.0512H83.0053V35.3692C83.1032 35.3366 83.25 35.3039 83.4458 35.2713C83.6524 35.2387 83.8699 35.2224 84.0983 35.2224C84.566 35.2224 84.9031 35.3039 85.1097 35.4671C85.3164 35.6193 85.4197 35.9184 85.4197 36.3643V40.0512ZM95.2969 39.1866C95.2969 40.0349 95.1229 40.7744 94.7749 41.4052C94.4377 42.0251 93.9592 42.5036 93.3393 42.8408C92.7194 43.1779 91.9907 43.3465 91.1533 43.3465C90.3267 43.3465 89.598 43.1834 88.9673 42.8571C88.3473 42.52 87.8634 42.0414 87.5153 41.4215C87.1782 40.7907 87.0096 40.0457 87.0096 39.1866C87.0096 38.3274 87.1836 37.5933 87.5317 36.9842C87.8797 36.3643 88.3637 35.8858 88.9836 35.5486C89.6144 35.2006 90.3376 35.0266 91.1533 35.0266C91.9798 35.0266 92.7031 35.2006 93.323 35.5486C93.9429 35.8858 94.4269 36.3697 94.7749 37.0005C95.1229 37.6205 95.2969 38.3491 95.2969 39.1866ZM91.1533 36.9353C90.6421 36.9353 90.2343 37.131 89.9298 37.5226C89.6361 37.9141 89.4893 38.4688 89.4893 39.1866C89.4893 39.9152 89.6361 40.4753 89.9298 40.8668C90.2234 41.2475 90.6312 41.4378 91.1533 41.4378C91.6753 41.4378 92.0831 41.2421 92.3768 40.8505C92.6704 40.459 92.8173 39.9043 92.8173 39.1866C92.8173 38.4796 92.6704 37.9304 92.3768 37.5389C92.0831 37.1365 91.6753 36.9353 91.1533 36.9353ZM104.304 38.0283V39.5618H101.873V38.1099C101.873 37.7075 101.754 37.4138 101.514 37.2289C101.286 37.0332 100.982 36.9353 100.601 36.9353C100.329 36.9353 100.079 36.9733 99.8504 37.0495C99.6221 37.1147 99.4154 37.1963 99.2305 37.2942V39.5618H96.8161V37.0168C96.8161 36.745 96.8705 36.522 96.9793 36.348C97.0989 36.1631 97.2675 36 97.485 35.8586C97.833 35.6193 98.2789 35.4236 98.8227 35.2713C99.3665 35.1082 99.9646 35.0266 100.617 35.0266C101.792 35.0266 102.7 35.2876 103.342 35.8096C103.983 36.3208 104.304 37.0604 104.304 38.0283ZM96.8161 38.8113H99.2305V43.0855C99.1218 43.1181 98.9695 43.1453 98.7737 43.1671C98.578 43.1997 98.3659 43.216 98.1375 43.216C97.6807 43.216 97.3436 43.1344 97.1261 42.9713C96.9194 42.8082 96.8161 42.5145 96.8161 42.0904V38.8113ZM101.873 38.8113H104.304V43.0855C104.195 43.1181 104.043 43.1453 103.847 43.1671C103.652 43.1997 103.439 43.216 103.211 43.216C102.754 43.216 102.417 43.1344 102.2 42.9713C101.982 42.8082 101.873 42.5145 101.873 42.0904V38.8113ZM112.546 40.8179C112.546 41.6118 112.246 42.2372 111.648 42.694C111.05 43.1399 110.18 43.3628 109.038 43.3628C108.146 43.3628 107.412 43.2323 106.836 42.9713C106.259 42.7103 105.971 42.3242 105.971 41.813C105.971 41.5846 106.02 41.3889 106.118 41.2257C106.216 41.0517 106.341 40.9158 106.493 40.8179C106.798 40.9919 107.151 41.1551 107.554 41.3073C107.967 41.4487 108.435 41.5194 108.957 41.5194C109.751 41.5194 110.147 41.291 110.147 40.8342C110.147 40.6385 110.077 40.4862 109.935 40.3774C109.794 40.2578 109.56 40.1708 109.234 40.1164L108.549 39.9533C107.679 39.7684 107.026 39.4856 106.591 39.105C106.167 38.7135 105.955 38.1805 105.955 37.5063C105.955 36.745 106.259 36.1414 106.868 35.6955C107.488 35.2387 108.32 35.0103 109.364 35.0103C109.886 35.0103 110.36 35.0647 110.784 35.1734C111.219 35.2713 111.561 35.429 111.811 35.6465C112.062 35.8531 112.187 36.1142 112.187 36.4296C112.187 36.6471 112.143 36.8374 112.056 37.0005C111.969 37.1637 111.855 37.2996 111.714 37.4084C111.594 37.3322 111.409 37.2507 111.159 37.1637C110.92 37.0767 110.653 37.006 110.36 36.9516C110.077 36.8972 109.81 36.87 109.56 36.87C109.169 36.87 108.864 36.9244 108.647 37.0332C108.429 37.131 108.32 37.2887 108.32 37.5063C108.32 37.6476 108.38 37.7727 108.5 37.8815C108.63 37.9793 108.853 38.0609 109.169 38.1262L109.821 38.2893C110.789 38.5068 111.485 38.8222 111.909 39.2355C112.333 39.6379 112.546 40.1654 112.546 40.8179Z" fill="#F0F2F5"/>
<path opacity="0.6" d="M23.3306 54.3973C23.8493 54.3973 24.3094 54.5034 24.7107 54.7154C25.112 54.9242 25.435 55.2081 25.6797 55.567C25.9277 55.9259 26.0745 56.3256 26.1202 56.766H24.8624C24.8135 56.505 24.7221 56.2717 24.5883 56.0662C24.4578 55.8606 24.2849 55.6975 24.0696 55.5768C23.8542 55.4561 23.5965 55.3957 23.2963 55.3957C22.9211 55.3957 22.6014 55.4854 22.3371 55.6649C22.0761 55.8411 21.8754 56.1217 21.7351 56.5067C21.5981 56.8917 21.5296 57.3909 21.5296 58.0042C21.5296 58.9341 21.6829 59.6111 21.9896 60.0353C22.2963 60.4594 22.7319 60.6715 23.2963 60.6715C23.5965 60.6715 23.8542 60.6063 24.0696 60.4758C24.2849 60.342 24.4578 60.1658 24.5883 59.9472C24.7221 59.7253 24.8135 59.4839 24.8624 59.2229H26.1202C26.081 59.5426 25.9995 59.8493 25.8755 60.143C25.7548 60.4366 25.5835 60.6992 25.3616 60.9309C25.1397 61.1593 24.8608 61.3404 24.5247 61.4741C24.1919 61.6046 23.7939 61.6699 23.3306 61.6699C22.6813 61.6699 22.1234 61.5214 21.6568 61.2245C21.1935 60.9244 20.8362 60.5002 20.585 59.9521C20.337 59.4007 20.2131 58.7465 20.2131 57.9896C20.2131 57.2359 20.337 56.5915 20.585 56.0564C20.833 55.5213 21.1886 55.1119 21.6519 54.828C22.1185 54.5409 22.678 54.3973 23.3306 54.3973ZM34.3938 61.572H33.1507L31.9321 58.6992H30.2877V61.572H29.0984V54.4952H31.9712C32.5128 54.4952 32.9582 54.58 33.3073 54.7497C33.6597 54.9161 33.9207 55.1526 34.0904 55.4593C34.26 55.7628 34.3449 56.1184 34.3449 56.5262C34.3449 56.9047 34.2829 57.2228 34.1589 57.4806C34.0349 57.7351 33.8734 57.9439 33.6744 58.107C33.4786 58.2669 33.2682 58.3974 33.043 58.4985L34.3938 61.572ZM31.7021 57.7546C32.1523 57.7546 32.503 57.6502 32.7543 57.4414C33.0088 57.2326 33.136 56.9422 33.136 56.5703C33.136 56.2049 33.0186 55.9226 32.7836 55.7236C32.5487 55.5246 32.2388 55.4251 31.8538 55.4251H30.2877V57.7546H31.7021ZM37.4496 61.572V54.4952H39.1527L41.0075 59.9031L42.882 54.4952H44.5753V61.572H43.3665V56.0221L41.5018 61.572H40.5083L38.6584 56.0564V61.572H37.4496Z" fill="#E5E8EF"/>
<g clipPath="url(#clip0_2342_139200)">
<path d="M157.67 38.6421C157.326 38.6447 156.997 38.7913 156.754 39.0503C156.511 39.3093 156.373 39.6599 156.371 40.0261C156.371 40.7612 156.94 41.4242 157.67 41.4242C158.016 41.4207 158.347 41.2719 158.59 41.01C158.833 40.7481 158.969 40.3945 158.969 40.0261C158.97 39.844 158.937 39.6635 158.872 39.4951C158.807 39.3266 158.712 39.1736 158.591 39.0449C158.47 38.9161 158.326 38.8142 158.168 38.7451C158.01 38.676 157.841 38.641 157.67 38.6421Z" fill="#5BB8DC"/>
<path d="M159.005 42.5356H156.305C155.912 42.5356 155.668 42.8182 155.668 43.2735C155.668 44.077 156.781 50.2451 157.364 52.4489C157.471 52.8556 157.603 52.9163 157.672 52.9163H157.679H157.685C157.749 52.9075 157.87 52.8376 157.962 52.4681C158.499 50.302 159.526 44.1142 159.526 43.2735C159.526 42.8139 159.331 42.5356 159.005 42.5356Z" fill="#5BB8DC"/>
<path d="M185.756 42.4114C182.953 42.4114 180.758 44.7502 180.758 47.7356C180.758 50.7871 182.953 53.1773 185.756 53.1773C188.558 53.1773 190.752 50.7871 190.752 47.7356C190.752 44.7502 188.558 42.4114 185.756 42.4114ZM185.756 51.8672C183.674 51.8672 182.043 50.0525 182.043 47.7356C182.043 45.4848 183.674 43.7215 185.756 43.7215C187.837 43.7215 189.469 45.4848 189.469 47.7356C189.469 50.0525 187.838 51.8672 185.756 51.8672Z" fill="white"/>
<path d="M217.491 42.4114C214.688 42.4114 212.492 44.7502 212.492 47.7356C212.492 50.7871 214.688 53.1773 217.491 53.1773C220.294 53.1773 222.488 50.7871 222.488 47.7356C222.488 44.7502 220.293 42.4114 217.491 42.4114ZM221.203 47.7356C221.203 50.052 219.572 51.8672 217.491 51.8672C215.409 51.8672 213.777 50.0525 213.777 47.7356C213.777 45.4848 215.409 43.7215 217.491 43.7215C219.573 43.7215 221.203 45.4848 221.203 47.7356Z" fill="white"/>
<path d="M176.26 44.9302C174.753 44.2092 173.451 43.5867 173.451 42.0776C173.451 40.9926 174.302 39.8251 176.171 39.8251C177.406 39.8251 178.45 40.4264 178.45 41.1369V41.5195C178.45 41.525 178.45 41.5305 178.45 41.5359C178.45 41.5414 178.45 41.5469 178.45 41.5523V41.5906H178.453C178.464 41.7627 178.535 41.9241 178.653 42.0422C178.771 42.1602 178.927 42.2258 179.089 42.2258C179.251 42.2258 179.406 42.1602 179.524 42.0422C179.642 41.9241 179.714 41.7627 179.724 41.5906L179.731 41.4211V40.9423C179.732 39.1474 177.587 38.4958 176.154 38.4958C174.212 38.4958 172.148 39.7579 172.148 42.0973C172.148 44.4514 174.014 45.3565 175.661 46.1551C177.19 46.8968 178.636 47.598 178.636 49.3023C178.636 50.7534 177.508 51.8482 176.007 51.8482C174.413 51.8482 173.292 50.8354 172.904 50.4271L172.901 50.4304C172.841 50.3585 172.768 50.3008 172.686 50.2612C172.604 50.2217 172.516 50.2011 172.426 50.2008C172.297 50.2012 172.171 50.2428 172.065 50.32C171.959 50.3973 171.877 50.5068 171.83 50.6343C171.783 50.7618 171.773 50.9014 171.801 51.0351C171.829 51.1688 171.894 51.2904 171.988 51.3842C172.505 51.9532 173.124 52.4054 173.809 52.7136C174.493 53.0218 175.229 53.1798 175.973 53.178C178.272 53.178 179.942 51.5317 179.942 49.2634C179.939 46.6896 177.984 45.755 176.26 44.9302Z" fill="white"/>
<path d="M154.274 40.2546C154.338 40.0693 154.433 40.0081 154.633 39.9895C154.798 39.9796 154.954 39.9013 155.066 39.7715C155.178 39.6416 155.239 39.4702 155.235 39.2937C155.23 39.1172 155.162 38.9494 155.043 38.8259C154.925 38.7023 154.766 38.6327 154.6 38.6318C154.59 38.6318 154.581 38.6318 154.571 38.6351C153.633 38.6898 153.296 39.0177 152.96 39.9928V39.9972L149.352 50.1308C149.252 50.4232 149.143 50.7795 149.051 51.0922C148.958 50.779 148.849 50.4215 148.748 50.128L145.16 39.9972C144.823 39.0221 144.487 38.6925 143.551 38.6395C143.541 38.6395 143.532 38.6362 143.521 38.6362C143.356 38.6371 143.197 38.7067 143.078 38.8302C142.96 38.9538 142.891 39.1216 142.887 39.2981C142.883 39.4746 142.943 39.646 143.055 39.7758C143.168 39.9057 143.323 39.9839 143.488 39.9939C143.689 40.0119 143.784 40.0732 143.848 40.259L148.367 52.5614C148.38 52.5964 148.399 52.6281 148.424 52.6543C148.595 52.8243 148.819 52.9208 149.052 52.9254C149.286 52.9201 149.512 52.8283 149.689 52.6658C149.718 52.6382 149.74 52.604 149.754 52.5658L154.274 40.2585V40.2546Z" fill="white"/>
<path d="M211.488 51.9815V50.0728H211.485V43.9817C211.485 43.034 211.075 42.5907 210.183 42.5907H206.454V40.3945C206.454 40.2173 206.388 40.0472 206.27 39.9219C206.153 39.7965 205.993 39.7261 205.826 39.7261C205.66 39.7261 205.5 39.7965 205.383 39.9219C205.265 40.0472 205.199 40.2173 205.199 40.3945C205.199 40.4148 205.202 40.7192 205.205 40.74V42.5912H204.436C204.426 42.5912 204.417 42.588 204.407 42.588C204.397 42.588 204.385 42.5912 204.375 42.5912H204.33V42.5978C204.188 42.6169 204.058 42.6905 203.963 42.8048C203.869 42.9191 203.816 43.0663 203.816 43.2187C203.816 43.3711 203.869 43.5183 203.963 43.6326C204.058 43.7469 204.188 43.8205 204.33 43.8396V43.8429H204.368C204.381 43.8429 204.394 43.8462 204.406 43.8462C204.419 43.8462 204.428 43.8429 204.441 43.8429H205.207V49.1447C205.207 52.6428 207.413 53.0194 208.367 53.0194L208.612 53.0161C208.77 53.0134 208.921 52.9444 209.031 52.8241C209.142 52.7037 209.204 52.5418 209.203 52.3734C209.203 52.2902 209.188 52.2079 209.158 52.131C209.128 52.0542 209.085 51.9844 209.029 51.9257C208.974 51.8669 208.909 51.8203 208.836 51.7886C208.764 51.757 208.687 51.7407 208.609 51.741L208.399 51.7513C207.672 51.7513 206.449 51.4026 206.449 49.0879V43.8407H210.069C210.205 43.8407 210.234 43.8746 210.234 44.0167V51.3409L210.237 51.4693V52.3132C210.237 52.3198 210.234 52.3198 210.234 52.3269C210.235 52.4371 210.261 52.5455 210.31 52.6424C210.359 52.7394 210.43 52.8221 210.516 52.8832C210.602 52.9444 210.701 52.9821 210.803 52.993C210.906 53.004 211.01 52.9879 211.106 52.9462C211.219 52.8933 211.315 52.8066 211.383 52.6967C211.45 52.5868 211.487 52.4583 211.487 52.3269C211.492 52.3028 211.488 52.0017 211.488 51.9815Z" fill="white"/>
<path d="M193.291 40.3876C193.291 40.3649 193.29 40.3423 193.288 40.3198C193.272 40.1589 193.203 40.0093 193.092 39.8988C192.981 39.7883 192.836 39.7245 192.684 39.7191C192.533 39.7138 192.384 39.7673 192.267 39.8697C192.149 39.9722 192.071 40.1166 192.045 40.2761C192.039 40.3122 192.036 40.3487 192.036 40.3854C192.036 40.4056 192.039 40.7101 192.042 40.7308L192.035 52.2724C192.035 52.3604 192.051 52.4476 192.083 52.5289C192.114 52.6102 192.161 52.6841 192.219 52.7464C192.278 52.8086 192.347 52.858 192.423 52.8916C192.5 52.9253 192.582 52.9426 192.664 52.9425C192.743 52.9424 192.82 52.9263 192.893 52.8949H192.896C193.013 52.8454 193.113 52.7595 193.183 52.6484C193.254 52.5374 193.291 52.4063 193.29 52.2724C193.29 52.2522 193.287 51.9477 193.284 51.9275L193.291 40.3876Z" fill="white"/>
<path d="M236.088 47.0612C234.883 46.5736 233.845 46.1511 233.845 45.1525C233.845 43.9681 235.004 43.721 235.976 43.721C236.516 43.721 237.52 43.9818 237.52 44.6043V44.8716H237.526C237.524 44.9603 237.538 45.0486 237.568 45.1313C237.599 45.214 237.644 45.2894 237.702 45.353C237.76 45.4167 237.83 45.4673 237.906 45.5018C237.983 45.5364 238.066 45.5542 238.149 45.5542C238.232 45.5542 238.315 45.5364 238.391 45.5018C238.468 45.4673 238.538 45.4167 238.596 45.353C238.654 45.2894 238.699 45.214 238.729 45.1313C238.76 45.0486 238.774 44.9603 238.771 44.8716C238.77 44.8671 238.769 44.8626 238.768 44.8579V44.3299C238.768 42.9323 237.034 42.4109 235.941 42.4109C233.854 42.4109 232.558 43.4838 232.558 45.2094C232.558 47.0574 234.175 47.7138 235.601 48.2959C236.808 48.7878 237.854 49.2131 237.854 50.1942C237.854 50.9047 237.148 51.6054 236.897 51.6054H231.759C231.625 51.6054 231.594 51.5715 231.594 51.4294V46.4824C231.594 44.5874 231.222 42.4114 228.322 42.4114C227.618 42.4049 226.923 42.5767 226.294 42.9128C225.665 43.2488 225.119 43.7395 224.703 44.3441V43.9779L224.7 43.9271V43.2067C224.7 43.1187 224.684 43.0315 224.653 42.9502C224.621 42.8689 224.575 42.795 224.516 42.7327C224.458 42.6705 224.388 42.6211 224.312 42.5875C224.236 42.5538 224.154 42.5365 224.071 42.5366C223.991 42.5358 223.912 42.5531 223.839 42.5874C223.722 42.6356 223.622 42.7207 223.551 42.8314C223.481 42.942 223.444 43.073 223.445 43.2067C223.445 43.2269 223.448 43.5314 223.452 43.5521V52.3368H223.455C223.461 52.5107 223.531 52.6751 223.648 52.7957C223.766 52.9162 223.923 52.9835 224.087 52.9835C224.25 52.9835 224.407 52.9162 224.525 52.7957C224.643 52.6751 224.712 52.5107 224.719 52.3368L224.716 52.1881L224.713 47.88C224.713 47.3755 224.748 46.9967 224.84 46.648C225.275 44.9257 226.708 43.7205 228.322 43.7205C230.015 43.7205 230.345 44.8404 230.345 46.7764V51.4666C230.345 52.4444 230.783 52.9385 231.651 52.9385H236.901C237.543 52.9385 238.101 52.5767 238.499 52.052C238.896 51.5273 239.137 50.8408 239.137 50.1925C239.137 48.303 237.517 47.6433 236.088 47.0612Z" fill="white"/>
<path d="M203.016 51.9274V43.2674L203.01 43.1286C202.996 42.9574 202.919 42.7989 202.798 42.6861C202.676 42.5733 202.518 42.5149 202.357 42.5232C202.196 42.5316 202.044 42.6059 201.933 42.7307C201.822 42.8556 201.761 43.0212 201.762 43.1931C201.762 43.2204 201.765 43.5757 201.768 43.6025V47.6783C201.768 49.7395 200.45 51.8679 198.238 51.8679C196.548 51.8679 196.218 50.7479 196.218 48.8152V43.2068C196.218 43.1188 196.202 43.0316 196.17 42.9503C196.139 42.8689 196.092 42.795 196.034 42.7328C195.975 42.6705 195.906 42.6212 195.83 42.5875C195.753 42.5539 195.672 42.5366 195.589 42.5367C195.478 42.5364 195.37 42.568 195.274 42.6279C195.179 42.6864 195.1 42.7708 195.045 42.8724C194.99 42.9741 194.961 43.0894 194.961 43.2068C194.961 43.227 194.964 43.5314 194.967 43.5522V49.1049C194.967 51.9203 195.974 53.1758 198.236 53.1758C198.926 53.1783 199.606 53.0048 200.22 52.6698C200.834 52.3348 201.364 51.848 201.765 51.2502V52.2723C201.765 52.3603 201.782 52.4475 201.813 52.5288C201.845 52.6102 201.891 52.6841 201.949 52.7463C202.008 52.8086 202.077 52.8579 202.154 52.8916C202.23 52.9252 202.312 52.9425 202.394 52.9424C202.471 52.942 202.548 52.9272 202.62 52.8987H202.623C202.741 52.8486 202.841 52.7622 202.912 52.6506C202.983 52.5391 203.02 52.4075 203.02 52.2729C203.022 52.2521 203.016 51.9477 203.016 51.9274Z" fill="white"/>
<path d="M169.733 51.9963V46.5125C169.733 44.6175 169.362 42.4416 166.461 42.4416C165.757 42.435 165.062 42.6068 164.433 42.9427C163.804 43.2787 163.259 43.7692 162.843 44.3737V44.0081L162.84 43.9573V43.2374C162.84 43.1494 162.824 43.0622 162.792 42.9809C162.761 42.8996 162.714 42.8257 162.656 42.7634C162.597 42.7012 162.528 42.6518 162.452 42.6182C162.375 42.5845 162.293 42.5672 162.211 42.5673C162.132 42.5665 162.053 42.5837 161.98 42.6176C161.863 42.6657 161.763 42.7508 161.692 42.8615C161.622 42.9722 161.585 43.1032 161.586 43.2369C161.586 43.2571 161.59 43.5615 161.593 43.5823V45.4877V50.0899H161.586V52.3407C161.586 52.4287 161.602 52.5159 161.634 52.5972C161.665 52.6785 161.712 52.7524 161.77 52.8147C161.828 52.8769 161.898 52.9263 161.974 52.9599C162.051 52.9936 162.132 53.0108 162.215 53.0108C162.264 53.0102 162.313 53.003 162.36 52.9895C162.496 52.9591 162.619 52.8815 162.71 52.7689C162.8 52.6563 162.853 52.5149 162.86 52.3669L162.857 52.2182L162.854 47.9101C162.854 47.4056 162.889 47.0268 162.981 46.6781C163.416 44.9558 164.849 43.7506 166.463 43.7506C168.156 43.7506 168.486 44.8706 168.486 46.8066V52.3396C168.486 52.4276 168.502 52.5148 168.534 52.5961C168.566 52.6774 168.612 52.7513 168.67 52.8136C168.729 52.8758 168.798 52.9252 168.875 52.9588C168.951 52.9925 169.033 53.0098 169.115 53.0097C169.195 53.0105 169.274 52.9932 169.347 52.9588C169.369 52.9485 169.392 52.9386 169.411 52.9282C169.511 52.8715 169.595 52.7867 169.653 52.6829C169.711 52.5792 169.742 52.4605 169.741 52.3396C169.74 52.3194 169.737 52.0149 169.733 51.9963Z" fill="white"/>
</g>
<path d="M232.54 19.4885C231.864 19.4885 231.316 20.0363 231.316 20.712C231.316 21.3878 231.864 21.9356 232.54 21.9356C233.216 21.9356 233.763 21.3878 233.763 20.712C233.763 20.0363 233.216 19.4885 232.54 19.4885Z" fill="white"/>
<path d="M236.21 20.712C236.21 20.0363 236.758 19.4885 237.434 19.4885C238.11 19.4885 238.658 20.0363 238.658 20.712C238.658 21.3878 238.11 21.9356 237.434 21.9356C236.758 21.9356 236.21 21.3878 236.21 20.712Z" fill="white"/>
<path d="M241.105 20.712C241.105 20.0363 241.652 19.4885 242.328 19.4885C243.004 19.4885 243.552 20.0363 243.552 20.712C243.552 21.3878 243.004 21.9356 242.328 21.9356C241.652 21.9356 241.105 21.3878 241.105 20.712Z" fill="white"/>
<rect x="20.5352" y="72.9131" width="167.214" height="36.3136" rx="4.07839" fill="#6043DD"/>
<path d="M71.3549 88.0175C71.3549 88.1621 71.3131 88.2916 71.2293 88.4058C71.1532 88.5123 71.0618 88.5961 70.9552 88.657C70.7649 88.5276 70.5441 88.4096 70.2929 88.303C70.0417 88.1964 69.7334 88.1431 69.3679 88.1431C68.9416 88.1431 68.5648 88.2383 68.2374 88.4286C67.9177 88.6113 67.6664 88.8892 67.4837 89.2622C67.3086 89.6276 67.2211 90.0768 67.2211 90.6097C67.2211 91.4167 67.4228 92.0295 67.8263 92.4483C68.2298 92.8594 68.7665 93.0649 69.4364 93.0649C69.7943 93.0649 70.1026 93.0154 70.3614 92.9165C70.6203 92.8175 70.8449 92.7033 71.0352 92.5739C71.1341 92.6348 71.2179 92.7261 71.2864 92.8479C71.3625 92.9621 71.4006 93.0916 71.4006 93.2362C71.4006 93.3656 71.3663 93.4836 71.2978 93.5902C71.2369 93.6968 71.1265 93.7919 70.9667 93.8757C70.8068 93.967 70.586 94.0508 70.3043 94.1269C70.0303 94.2031 69.6839 94.2411 69.2652 94.2411C68.6104 94.2411 68.0128 94.1117 67.4723 93.8529C66.9394 93.5864 66.5169 93.1867 66.2047 92.6538C65.8926 92.1133 65.7365 91.4319 65.7365 90.6097C65.7365 89.8104 65.8926 89.1404 66.2047 88.5999C66.5169 88.0594 66.9356 87.6521 67.4609 87.378C67.9862 87.0963 68.561 86.9555 69.1852 86.9555C69.6268 86.9555 70.0074 87.005 70.3272 87.1039C70.6545 87.2029 70.9058 87.3323 71.0809 87.4922C71.2636 87.6521 71.3549 87.8272 71.3549 88.0175ZM77.6533 91.3634C77.6533 91.9496 77.5391 92.4597 77.3107 92.8936C77.0823 93.3199 76.7588 93.6511 76.3401 93.8871C75.929 94.1155 75.4417 94.2297 74.8784 94.2297C74.315 94.2297 73.824 94.1155 73.4053 93.8871C72.9865 93.6511 72.6592 93.3199 72.4232 92.8936C72.1948 92.4673 72.0806 91.9572 72.0806 91.3634C72.0806 90.7772 72.1986 90.2709 72.4346 89.8446C72.6706 89.4183 72.998 89.0909 73.4167 88.8625C73.8354 88.6265 74.3226 88.5085 74.8784 88.5085C75.4341 88.5085 75.9175 88.6265 76.3286 88.8625C76.7474 89.0909 77.0709 89.4221 77.2993 89.856C77.5353 90.2824 77.6533 90.7848 77.6533 91.3634ZM74.8784 89.6276C74.4597 89.6276 74.1285 89.7799 73.8849 90.0844C73.6489 90.3889 73.5309 90.8153 73.5309 91.3634C73.5309 91.9268 73.6489 92.3607 73.8849 92.6652C74.1209 92.9621 74.452 93.1106 74.8784 93.1106C75.2971 93.1106 75.6244 92.9583 75.8604 92.6538C76.0965 92.3493 76.2145 91.9192 76.2145 91.3634C76.2145 90.8229 76.0965 90.4004 75.8604 90.0958C75.6244 89.7837 75.2971 89.6276 74.8784 89.6276ZM83.8465 90.5412V91.6489H82.4419V90.5983C82.4419 90.2633 82.3467 90.0197 82.1564 89.8675C81.9661 89.7076 81.7111 89.6276 81.3913 89.6276C81.1553 89.6276 80.9422 89.6581 80.7518 89.719C80.5691 89.7723 80.4054 89.837 80.2608 89.9131V91.6489H78.8562V89.8218C78.8562 89.6391 78.8943 89.4906 78.9704 89.3764C79.0465 89.2546 79.1607 89.1442 79.313 89.0452C79.5414 88.893 79.8345 88.7674 80.1923 88.6684C80.5577 88.5618 80.9612 88.5085 81.4027 88.5085C82.1716 88.5085 82.7693 88.6798 83.1956 89.0224C83.6295 89.365 83.8465 89.8713 83.8465 90.5412ZM78.8562 91.0893H80.2608V94.047C80.1999 94.0698 80.1123 94.0889 79.9981 94.1041C79.8839 94.1269 79.7583 94.1383 79.6213 94.1383C79.3625 94.1383 79.1683 94.0927 79.0389 94.0013C78.9171 93.9023 78.8562 93.731 78.8562 93.4874V91.0893ZM82.4419 91.0893H83.8465V94.047C83.7932 94.0698 83.7057 94.0889 83.5839 94.1041C83.4697 94.1269 83.3479 94.1383 83.2184 94.1383C82.952 94.1383 82.754 94.0927 82.6246 94.0013C82.5028 93.9023 82.4419 93.731 82.4419 93.4874V91.0893ZM90.3146 90.5412V91.6489H88.91V90.5983C88.91 90.2633 88.8148 90.0197 88.6245 89.8675C88.4342 89.7076 88.1791 89.6276 87.8594 89.6276C87.6234 89.6276 87.4102 89.6581 87.2199 89.719C87.0372 89.7723 86.8735 89.837 86.7289 89.9131V91.6489H85.3243V89.8218C85.3243 89.6391 85.3623 89.4906 85.4385 89.3764C85.5146 89.2546 85.6288 89.1442 85.781 89.0452C86.0094 88.893 86.3025 88.7674 86.6603 88.6684C87.0258 88.5618 87.4293 88.5085 87.8708 88.5085C88.6397 88.5085 89.2373 88.6798 89.6637 89.0224C90.0976 89.365 90.3146 89.8713 90.3146 90.5412ZM85.3243 91.0893H86.7289V94.047C86.668 94.0698 86.5804 94.0889 86.4662 94.1041C86.352 94.1269 86.2264 94.1383 86.0894 94.1383C85.8305 94.1383 85.6364 94.0927 85.507 94.0013C85.3852 93.9023 85.3243 93.731 85.3243 93.4874V91.0893ZM88.91 91.0893H90.3146V94.047C90.2613 94.0698 90.1737 94.0889 90.0519 94.1041C89.9377 94.1269 89.8159 94.1383 89.6865 94.1383C89.4201 94.1383 89.2221 94.0927 89.0927 94.0013C88.9709 93.9023 88.91 93.731 88.91 93.4874V91.0893ZM92.409 92.0828L92.3519 91.1008L95.4123 90.644C95.3895 90.3547 95.2791 90.1035 95.0811 89.8903C94.8832 89.6771 94.5939 89.5705 94.2133 89.5705C93.825 89.5705 93.5014 89.7076 93.2426 89.9816C92.9838 90.2481 92.8505 90.6326 92.8429 91.135L92.8772 91.7288C92.9457 92.2161 93.1322 92.5739 93.4367 92.8023C93.7489 93.0307 94.1409 93.1448 94.6129 93.1448C94.9327 93.1448 95.2296 93.0992 95.5037 93.0078C95.7777 92.9088 95.9947 92.8023 96.1546 92.6881C96.2612 92.7566 96.3449 92.8441 96.4058 92.9507C96.4743 93.0497 96.5086 93.1601 96.5086 93.2819C96.5086 93.4798 96.421 93.6511 96.2459 93.7958C96.0708 93.9328 95.8348 94.0394 95.5379 94.1155C95.241 94.1916 94.9022 94.2297 94.5216 94.2297C93.9354 94.2297 93.4139 94.1231 92.9571 93.91C92.508 93.6892 92.1539 93.3618 91.8951 92.9279C91.6439 92.4939 91.5183 91.9534 91.5183 91.3063C91.5183 90.8419 91.5906 90.4346 91.7352 90.0844C91.8799 89.7342 92.074 89.4449 92.3176 89.2165C92.5689 88.9805 92.8582 88.8054 93.1855 88.6912C93.5129 88.5694 93.8555 88.5085 94.2133 88.5085C94.7157 88.5085 95.1535 88.6113 95.5265 88.8169C95.9072 89.0148 96.2041 89.2927 96.4172 89.6505C96.638 90.0083 96.7484 90.4194 96.7484 90.8838C96.7484 91.0969 96.6913 91.2568 96.5771 91.3634C96.4705 91.4624 96.3183 91.5233 96.1203 91.5461L92.409 92.0828ZM100.656 89.6391C100.199 89.6391 99.8149 89.7875 99.5028 90.0844C99.1983 90.3813 99.046 90.8153 99.046 91.3862C99.046 91.9496 99.1945 92.3759 99.4914 92.6652C99.7883 92.9545 100.173 93.0992 100.645 93.0992C100.926 93.0992 101.162 93.0649 101.353 92.9964C101.551 92.9203 101.722 92.8403 101.867 92.7566C101.981 92.8251 102.068 92.9088 102.129 93.0078C102.198 93.0992 102.232 93.2134 102.232 93.3504C102.232 93.6092 102.076 93.8224 101.764 93.9899C101.452 94.1498 101.041 94.2297 100.531 94.2297C99.952 94.2297 99.4419 94.1269 99.0004 93.9214C98.5664 93.7082 98.2238 93.3885 97.9726 92.9621C97.729 92.5358 97.6072 92.0105 97.6072 91.3862C97.6072 90.7391 97.7366 90.2024 97.9954 89.7761C98.2619 89.3498 98.6121 89.0338 99.046 88.8283C99.4876 88.6151 99.971 88.5085 100.496 88.5085C100.999 88.5085 101.402 88.5961 101.707 88.7712C102.011 88.9463 102.164 89.1632 102.164 89.4221C102.164 89.5363 102.133 89.6429 102.072 89.7418C102.011 89.8408 101.939 89.9207 101.855 89.9816C101.703 89.8903 101.532 89.8104 101.341 89.7418C101.151 89.6733 100.923 89.6391 100.656 89.6391ZM103.413 91.0551H104.817V92.4026C104.817 92.6538 104.89 92.8327 105.034 92.9393C105.187 93.0459 105.4 93.0992 105.674 93.0992C105.796 93.0992 105.925 93.0839 106.062 93.0535C106.207 93.023 106.329 92.985 106.428 92.9393C106.481 93.0002 106.53 93.0725 106.576 93.1563C106.622 93.24 106.645 93.3428 106.645 93.4646C106.645 93.6854 106.538 93.8681 106.325 94.0127C106.119 94.1574 105.796 94.2297 105.354 94.2297C104.753 94.2297 104.277 94.0965 103.927 93.83C103.584 93.5559 103.413 93.1144 103.413 92.5054V91.0551ZM104.269 89.8903V88.7826H106.508C106.538 88.8359 106.568 88.912 106.599 89.011C106.637 89.11 106.656 89.2127 106.656 89.3193C106.656 89.5096 106.61 89.6543 106.519 89.7533C106.428 89.8446 106.31 89.8903 106.165 89.8903H104.269ZM104.817 91.3634H103.413V87.2524C103.474 87.2295 103.561 87.2067 103.675 87.1839C103.797 87.161 103.923 87.1496 104.052 87.1496C104.319 87.1496 104.513 87.1991 104.635 87.2981C104.757 87.3894 104.817 87.5569 104.817 87.8005V91.3634ZM108.289 92.0828L108.232 91.1008L111.293 90.644C111.27 90.3547 111.159 90.1035 110.961 89.8903C110.763 89.6771 110.474 89.5705 110.093 89.5705C109.705 89.5705 109.382 89.7076 109.123 89.9816C108.864 90.2481 108.731 90.6326 108.723 91.135L108.757 91.7288C108.826 92.2161 109.012 92.5739 109.317 92.8023C109.629 93.0307 110.021 93.1448 110.493 93.1448C110.813 93.1448 111.11 93.0992 111.384 93.0078C111.658 92.9088 111.875 92.8023 112.035 92.6881C112.141 92.7566 112.225 92.8441 112.286 92.9507C112.355 93.0497 112.389 93.1601 112.389 93.2819C112.389 93.4798 112.301 93.6511 112.126 93.7958C111.951 93.9328 111.715 94.0394 111.418 94.1155C111.121 94.1916 110.782 94.2297 110.402 94.2297C109.816 94.2297 109.294 94.1231 108.837 93.91C108.388 93.6892 108.034 93.3618 107.775 92.9279C107.524 92.4939 107.398 91.9534 107.398 91.3063C107.398 90.8419 107.471 90.4346 107.615 90.0844C107.76 89.7342 107.954 89.4449 108.198 89.2165C108.449 88.9805 108.738 88.8054 109.066 88.6912C109.393 88.5694 109.736 88.5085 110.093 88.5085C110.596 88.5085 111.034 88.6113 111.407 88.8169C111.787 89.0148 112.084 89.2927 112.297 89.6505C112.518 90.0083 112.629 90.4194 112.629 90.8838C112.629 91.0969 112.572 91.2568 112.457 91.3634C112.351 91.4624 112.198 91.5233 112.001 91.5461L108.289 92.0828ZM117.336 92.8822V89.2965H118.74V93.0307C118.74 93.1981 118.702 93.339 118.626 93.4532C118.558 93.5598 118.443 93.6625 118.284 93.7615C118.101 93.8833 117.85 93.9899 117.53 94.0812C117.218 94.1802 116.86 94.2297 116.456 94.2297C115.855 94.2297 115.33 94.1307 114.881 93.9328C114.439 93.7272 114.096 93.4151 113.853 92.9964C113.609 92.5701 113.487 92.0333 113.487 91.3862C113.487 90.7239 113.609 90.1796 113.853 89.7533C114.104 89.3269 114.439 89.0148 114.858 88.8169C115.276 88.6113 115.741 88.5085 116.251 88.5085C116.533 88.5085 116.788 88.5428 117.016 88.6113C117.252 88.6798 117.442 88.7598 117.587 88.8511V90.0502C117.465 89.936 117.305 89.837 117.107 89.7533C116.909 89.6695 116.681 89.6276 116.422 89.6276C116.141 89.6276 115.885 89.6885 115.657 89.8104C115.429 89.9245 115.25 90.1149 115.12 90.3813C114.991 90.6402 114.926 90.9789 114.926 91.3977C114.926 91.9915 115.063 92.4254 115.337 92.6995C115.611 92.9736 115.981 93.1106 116.445 93.1106C116.651 93.1106 116.826 93.0877 116.97 93.0421C117.115 92.9964 117.237 92.9431 117.336 92.8822ZM118.74 89.582L117.336 89.5934V86.6472C117.389 86.6319 117.473 86.6129 117.587 86.5901C117.709 86.5672 117.834 86.5558 117.964 86.5558C118.238 86.5558 118.436 86.6053 118.558 86.7043C118.679 86.7956 118.74 86.9631 118.74 87.2067V89.582Z" fill="white"/>
<path fillRule="evenodd" clipRule="evenodd" d="M138.193 87.7822C138.431 88.0211 138.431 88.4085 138.193 88.6474L132.483 94.3571C132.244 94.596 131.857 94.596 131.618 94.3571L128.355 91.0944C128.116 90.8555 128.116 90.4681 128.355 90.2292C128.594 89.9903 128.981 89.9903 129.22 90.2292L132.05 93.0594L137.327 87.7822C137.566 87.5433 137.954 87.5433 138.193 87.7822Z" fill="white"/>
<path fillRule="evenodd" clipRule="evenodd" d="M218.771 87.5703C219.01 87.8092 219.01 88.1965 218.771 88.4355L213.061 94.1452C212.822 94.3841 212.435 94.3841 212.196 94.1452L208.933 90.8825C208.694 90.6436 208.694 90.2562 208.933 90.0173C209.172 89.7784 209.559 89.7784 209.798 90.0173L212.628 92.8475L217.906 87.5703C218.144 87.3314 218.532 87.3314 218.771 87.5703Z" fill="#6043DD"/>
<rect x="196.314" y="73.3209" width="35.0742" height="35.0742" rx="17.5371" stroke="#6043DD" strokeWidth="0.815678"/>
</g>
<defs>
<filter id="filter0_d_2342_139200" x="-8.85938" y="0" width="276.57" height="178.144" filterUnits="userSpaceOnUse" color-interpolation-filters="sRGB">
<feFlood flood-opacity="0" result="BackgroundImageFix"/>
<feColorMatrix in="SourceAlpha" type="matrix" values="0 0 0 0 0 0 0 0 0 0 0 0 0 0 0 0 0 0 127 0" result="hardAlpha"/>
<feMorphology radius="22" operator="erode" in="SourceAlpha" result="effect1_dropShadow_2342_139200"/>
<feOffset dy="33"/>
<feGaussianBlur stdDeviation="15.5"/>
<feComposite in2="hardAlpha" operator="out"/>
<feColorMatrix type="matrix" values="0 0 0 0 0.376471 0 0 0 0 0.262745 0 0 0 0 0.866667 0 0 0 0.25 0"/>
<feBlend mode="normal" in2="BackgroundImageFix" result="effect1_dropShadow_2342_139200"/>
<feBlend mode="normal" in="SourceGraphic" in2="effect1_dropShadow_2342_139200" result="shape"/>
</filter>
<clipPath id="clip0_2342_139200">
<rect width="96.25" height="39.4703" fill="white" transform="translate(142.887 26.1018)"/>
</clipPath>
</defs>
</svg>
