<svg width="259" height="137" viewBox="0 0 259 137" fill="none" xmlns="http://www.w3.org/2000/svg">
<g filter="url(#filter0_d_2342_139198)">
<rect width="258.57" height="136.144" rx="9.78814" fill="#161A3E"/>
<path d="M28.3711 34.5535C28.3711 34.8036 28.3059 35.0212 28.1754 35.206C28.0449 35.3909 27.898 35.5378 27.7349 35.6465C27.463 35.4616 27.1531 35.2985 26.805 35.1571C26.4679 35.0157 26.0655 34.945 25.5978 34.945C25.0214 34.945 24.5211 35.0701 24.097 35.3202C23.6728 35.5704 23.3466 35.9347 23.1182 36.4132C22.9007 36.8918 22.7919 37.4736 22.7919 38.1588C22.7919 39.2029 23.0529 39.9968 23.5749 40.5406C24.097 41.0844 24.8148 41.3563 25.7283 41.3563C26.196 41.3563 26.5984 41.291 26.9355 41.1605C27.2727 41.03 27.5826 40.8832 27.8654 40.72C28.0285 40.8397 28.1591 40.9974 28.2569 41.1931C28.3657 41.378 28.4201 41.5955 28.4201 41.8457C28.4201 42.0632 28.3603 42.2644 28.2406 42.4493C28.1319 42.6342 27.9415 42.7918 27.6697 42.9224C27.463 43.0311 27.1694 43.1344 26.7887 43.2323C26.4081 43.3302 25.9459 43.3791 25.4021 43.3791C24.445 43.3791 23.5695 43.1943 22.7756 42.8245C21.9925 42.4438 21.3726 41.8729 20.9158 41.1116C20.4591 40.3394 20.2307 39.3551 20.2307 38.1588C20.2307 37.0277 20.4536 36.0761 20.8995 35.3039C21.3563 34.5209 21.9653 33.9281 22.7266 33.5257C23.4879 33.1233 24.3308 32.9221 25.2552 32.9221C25.8969 32.9221 26.4516 32.9983 26.9192 33.1505C27.3869 33.2919 27.7458 33.4877 27.9959 33.7378C28.2461 33.9771 28.3711 34.249 28.3711 34.5535ZM36.5637 38.1588C36.5637 39.2029 36.3027 39.9914 35.7807 40.5243C35.2695 41.0572 34.5843 41.3236 33.7252 41.3236C33.5403 41.3236 33.3445 41.3182 33.1379 41.3073C32.9312 41.2856 32.7464 41.2584 32.5832 41.2257V35.0429C32.7681 35.0212 32.9476 35.0048 33.1216 34.994C33.3065 34.9722 33.4968 34.9613 33.6925 34.9613C34.2581 34.9613 34.7529 35.081 35.1771 35.3202C35.6121 35.5486 35.9492 35.8967 36.1885 36.3643C36.4387 36.832 36.5637 37.4301 36.5637 38.1588ZM39.125 38.1099C39.125 36.9462 38.8911 35.9837 38.4235 35.2224C37.9558 34.4611 37.3033 33.8955 36.4658 33.5257C35.6393 33.1451 34.6659 32.9548 33.5457 32.9548C33.1324 32.9548 32.6757 32.9765 32.1754 33.02C31.6751 33.0635 31.2074 33.156 30.7724 33.2974C30.5766 33.3735 30.419 33.4714 30.2993 33.591C30.1797 33.6998 30.1199 33.8629 30.1199 34.0804V41.8783C30.1199 42.4003 30.4026 42.7647 30.9682 42.9713C31.3923 43.1236 31.8654 43.2214 32.3875 43.2649C32.9095 43.3193 33.35 43.3465 33.7089 43.3465C34.7964 43.3465 35.7426 43.1562 36.5474 42.7755C37.3631 42.384 37.9939 41.8022 38.4398 41.03C38.8966 40.2578 39.125 39.2844 39.125 38.1099ZM42.2912 37.8488L45.0645 37.5226C45.9781 38.4905 46.7937 39.3551 47.5115 40.1164C48.2293 40.8777 48.8112 41.4868 49.2571 41.9435C49.2571 42.3568 49.1211 42.6831 48.8492 42.9224C48.5773 43.1507 48.2619 43.2649 47.9031 43.2649C47.5115 43.2649 47.1907 43.1671 46.9406 42.9713C46.6904 42.7755 46.4511 42.5471 46.2228 42.2861L42.2912 37.8488ZM45.1297 38.7135L41.9649 38.8603L47.0874 33.1179C47.7073 33.1179 48.1586 33.243 48.4414 33.4931C48.7242 33.7324 48.8656 34.0152 48.8656 34.3414C48.8656 34.5916 48.8003 34.8308 48.6698 35.0592C48.5502 35.2767 48.349 35.516 48.0662 35.777L45.1297 38.7135ZM40.9372 36.1849H43.4168V43.0855C43.3189 43.1181 43.1612 43.1507 42.9437 43.1834C42.7262 43.216 42.5033 43.2323 42.2749 43.2323C41.7855 43.2323 41.4374 43.1453 41.2308 42.9713C41.035 42.7864 40.9372 42.4819 40.9372 42.0577V36.1849ZM43.4168 39.3171H40.9372V33.1832C41.0459 33.1614 41.2091 33.1342 41.4266 33.1016C41.655 33.069 41.8725 33.0527 42.0791 33.0527C42.5576 33.0527 42.9002 33.1342 43.1069 33.2974C43.3135 33.4605 43.4168 33.7705 43.4168 34.2272V39.3171ZM62.7114 38.2241V41.6173C62.7114 41.9218 62.6516 42.1556 62.532 42.3188C62.4232 42.471 62.2383 42.6178 61.9773 42.7592C61.6837 42.9224 61.2595 43.0637 60.7049 43.1834C60.1502 43.3139 59.5955 43.3791 59.0409 43.3791C57.9968 43.3791 57.0561 43.1997 56.2186 42.8408C55.3921 42.471 54.7341 41.9055 54.2447 41.1442C53.7662 40.372 53.5269 39.3823 53.5269 38.1751C53.5269 37.0223 53.7716 36.0598 54.261 35.2876C54.7504 34.5046 55.4084 33.9173 56.2349 33.5257C57.0724 33.1233 57.9968 32.9221 59.0082 32.9221C59.6825 32.9221 60.2644 32.9928 60.7538 33.1342C61.2541 33.2756 61.6347 33.4714 61.8957 33.7215C62.1676 33.9717 62.3036 34.2599 62.3036 34.5861C62.3036 34.8254 62.2383 35.0429 62.1078 35.2387C61.9882 35.4236 61.8414 35.5649 61.6674 35.6628C61.3955 35.4888 61.0529 35.3257 60.6396 35.1734C60.2263 35.0212 59.7424 34.945 59.1877 34.945C58.5895 34.945 58.0512 35.0755 57.5727 35.3366C57.105 35.5867 56.7407 35.9565 56.4796 36.4459C56.2186 36.9244 56.0881 37.4954 56.0881 38.1588C56.0881 38.8766 56.2132 39.4748 56.4633 39.9533C56.7244 40.4318 57.0778 40.7907 57.5237 41.03C57.9805 41.2584 58.4971 41.3726 59.0735 41.3726C59.3454 41.3726 59.5901 41.3454 59.8076 41.291C60.036 41.2366 60.21 41.1822 60.3296 41.1279V39.2192H58.421C58.3557 39.1104 58.2959 38.9745 58.2415 38.8113C58.1871 38.6373 58.1599 38.4524 58.1599 38.2567C58.1599 37.9195 58.2361 37.6748 58.3883 37.5226C58.5515 37.3594 58.7635 37.2779 59.0246 37.2779H61.7652C62.0589 37.2779 62.2873 37.3594 62.4504 37.5226C62.6244 37.6857 62.7114 37.9195 62.7114 38.2241ZM64.6397 38.795L67.0705 38.844V43.0855C66.9617 43.1181 66.8094 43.1453 66.6137 43.1671C66.4179 43.1997 66.2058 43.216 65.9775 43.216C65.5207 43.216 65.1835 43.1344 64.966 42.9713C64.7485 42.8082 64.6397 42.5145 64.6397 42.0904V38.795ZM67.0705 40.1001L64.6397 40.0512V32.4817C64.7485 32.4491 64.9008 32.4164 65.0965 32.3838C65.2923 32.3512 65.5044 32.3349 65.7328 32.3349C66.2004 32.3349 66.5376 32.4164 66.7442 32.5796C66.9617 32.7427 67.0705 33.0418 67.0705 33.4768V40.1001ZM76.9629 39.1866C76.9629 40.0349 76.7888 40.7744 76.4408 41.4052C76.1037 42.0251 75.6251 42.5036 75.0052 42.8408C74.3853 43.1779 73.6566 43.3465 72.8192 43.3465C71.9927 43.3465 71.264 43.1834 70.6332 42.8571C70.0133 42.52 69.5293 42.0414 69.1813 41.4215C68.8441 40.7907 68.6756 40.0457 68.6756 39.1866C68.6756 38.3274 68.8496 37.5933 69.1976 36.9842C69.5456 36.3643 70.0296 35.8858 70.6495 35.5486C71.2803 35.2006 72.0035 35.0266 72.8192 35.0266C73.6458 35.0266 74.369 35.2006 74.9889 35.5486C75.6088 35.8858 76.0928 36.3697 76.4408 37.0005C76.7888 37.6205 76.9629 38.3491 76.9629 39.1866ZM72.8192 36.9353C72.308 36.9353 71.9002 37.131 71.5957 37.5226C71.302 37.9141 71.1552 38.4688 71.1552 39.1866C71.1552 39.9152 71.302 40.4753 71.5957 40.8668C71.8893 41.2475 72.2972 41.4378 72.8192 41.4378C73.3412 41.4378 73.7491 41.2421 74.0427 40.8505C74.3364 40.459 74.4832 39.9043 74.4832 39.1866C74.4832 38.4796 74.3364 37.9304 74.0427 37.5389C73.7491 37.1365 73.3412 36.9353 72.8192 36.9353ZM82.6257 35.0266C83.3326 35.0266 83.9743 35.1843 84.5507 35.4997C85.1271 35.8042 85.5839 36.2664 85.921 36.8863C86.2582 37.4954 86.4268 38.2512 86.4268 39.1539C86.4268 40.0675 86.2473 40.8342 85.8884 41.4541C85.5404 42.0741 85.0455 42.5471 84.4039 42.8734C83.7622 43.1888 83.0118 43.3465 82.1526 43.3465C81.4783 43.3465 80.8965 43.2649 80.4071 43.1018C79.9285 42.9387 79.5261 42.7483 79.1998 42.5308C78.9715 42.3677 78.7974 42.1882 78.6778 41.9925C78.5691 41.7967 78.5147 41.5683 78.5147 41.3073V36.1359H80.9128V41.1279C81.0433 41.204 81.2119 41.2747 81.4185 41.3399C81.6251 41.4052 81.859 41.4378 82.12 41.4378C82.6746 41.4378 83.1151 41.2475 83.4414 40.8668C83.7785 40.4862 83.9471 39.9152 83.9471 39.1539C83.9471 38.3818 83.784 37.8217 83.4577 37.4736C83.1423 37.1147 82.7181 36.9353 82.1852 36.9353C81.8372 36.9353 81.5273 37.0005 81.2554 37.131C80.9835 37.2616 80.7496 37.4084 80.5539 37.5715L80.4886 35.6139C80.7388 35.4725 81.0433 35.342 81.4022 35.2224C81.772 35.0918 82.1798 35.0266 82.6257 35.0266ZM80.9291 36.7069H78.5147V32.4817C78.6126 32.4491 78.7594 32.4164 78.9551 32.3838C79.1509 32.3512 79.363 32.3349 79.5914 32.3349C80.059 32.3349 80.3962 32.4164 80.6028 32.5796C80.8203 32.7427 80.9291 33.0418 80.9291 33.4768V36.7069ZM91.1908 41.552C91.441 41.552 91.6857 41.5303 91.9249 41.4868C92.1751 41.4324 92.3545 41.3726 92.4633 41.3073V39.7412L91.0929 39.8717C90.7232 39.8935 90.4295 39.9696 90.212 40.1001C89.9945 40.2306 89.8857 40.4264 89.8857 40.6874C89.8857 40.9484 89.9891 41.1605 90.1957 41.3236C90.4023 41.4759 90.734 41.552 91.1908 41.552ZM91.0929 35.0266C92.224 35.0266 93.1267 35.2659 93.801 35.7444C94.4753 36.212 94.8124 36.9407 94.8124 37.9304V41.6336C94.8124 41.9055 94.7417 42.1284 94.6004 42.3024C94.459 42.4656 94.2795 42.607 94.062 42.7266C93.7357 42.9224 93.3279 43.0746 92.8385 43.1834C92.36 43.303 91.8107 43.3628 91.1908 43.3628C90.0815 43.3628 89.1951 43.1453 88.5317 42.7103C87.8792 42.2753 87.5529 41.6281 87.5529 40.769C87.5529 40.0294 87.7813 39.4639 88.2381 39.0724C88.6949 38.67 89.3746 38.4253 90.2773 38.3382L92.447 38.1099V37.9141C92.447 37.5443 92.3001 37.2779 92.0065 37.1147C91.7237 36.9516 91.3159 36.87 90.783 36.87C90.3697 36.87 89.9619 36.919 89.5595 37.0168C89.1679 37.1147 88.8145 37.2289 88.4991 37.3594C88.3686 37.2724 88.2544 37.1419 88.1565 36.9679C88.0695 36.783 88.026 36.5927 88.026 36.3969C88.026 35.9402 88.2761 35.6084 88.7764 35.4018C89.0918 35.2713 89.4562 35.1789 89.8694 35.1245C90.2936 35.0592 90.7014 35.0266 91.0929 35.0266ZM96.7571 38.795L99.1878 38.844V43.0855C99.079 43.1181 98.9268 43.1453 98.731 43.1671C98.5352 43.1997 98.3232 43.216 98.0948 43.216C97.638 43.216 97.3008 43.1344 97.0833 42.9713C96.8658 42.8082 96.7571 42.5145 96.7571 42.0904V38.795ZM99.1878 40.1001L96.7571 40.0512V32.4817C96.8658 32.4491 97.0181 32.4164 97.2138 32.3838C97.4096 32.3512 97.6217 32.3349 97.8501 32.3349C98.3177 32.3349 98.6549 32.4164 98.8615 32.5796C99.079 32.7427 99.1878 33.0418 99.1878 33.4768V40.1001ZM107.694 41.9272C107.694 41.5248 107.819 41.1877 108.069 40.9158C108.33 40.633 108.678 40.4916 109.113 40.4916C109.537 40.4916 109.88 40.633 110.141 40.9158C110.402 41.1877 110.532 41.5248 110.532 41.9272C110.532 42.3296 110.402 42.6722 110.141 42.955C109.88 43.2269 109.537 43.3628 109.113 43.3628C108.678 43.3628 108.33 43.2269 108.069 42.955C107.819 42.6722 107.694 42.3296 107.694 41.9272ZM104.121 41.9272C104.121 41.5248 104.246 41.1877 104.496 40.9158C104.757 40.633 105.105 40.4916 105.54 40.4916C105.975 40.4916 106.318 40.633 106.568 40.9158C106.829 41.1877 106.959 41.5248 106.959 41.9272C106.959 42.3296 106.829 42.6722 106.568 42.955C106.318 43.2269 105.975 43.3628 105.54 43.3628C105.105 43.3628 104.757 43.2269 104.496 42.955C104.246 42.6722 104.121 42.3296 104.121 41.9272ZM100.564 41.9272C100.564 41.5248 100.69 41.1877 100.94 40.9158C101.201 40.633 101.543 40.4916 101.967 40.4916C102.402 40.4916 102.745 40.633 102.995 40.9158C103.256 41.1877 103.387 41.5248 103.387 41.9272C103.387 42.3296 103.256 42.6722 102.995 42.955C102.745 43.2269 102.402 43.3628 101.967 43.3628C101.543 43.3628 101.201 43.2269 100.94 42.955C100.69 42.6722 100.564 42.3296 100.564 41.9272Z" fill="#F0F2F5"/>
<path opacity="0.6" d="M20.4346 54.4952C20.464 54.4952 20.5504 54.4952 20.694 54.4952C20.8375 54.4952 21.0072 54.4952 21.203 54.4952C21.402 54.4952 21.6026 54.4968 21.8049 54.5001C22.0105 54.5001 22.1883 54.5017 22.3384 54.505C23.1997 54.5213 23.8996 54.6698 24.4379 54.9503C24.9795 55.2277 25.376 55.6241 25.6272 56.1396C25.8817 56.6519 26.0089 57.2701 26.0089 57.9945C26.0089 58.7514 25.8735 59.3958 25.6027 59.9276C25.3352 60.4594 24.9241 60.8673 24.3694 61.1511C23.818 61.4317 23.1165 61.572 22.265 61.572H20.4346V54.4952ZM21.6434 55.4789V60.5883H22.2845C22.7707 60.5883 23.1997 60.5051 23.5717 60.3387C23.9436 60.1691 24.234 59.895 24.4428 59.5165C24.6549 59.138 24.7609 58.6323 24.7609 57.9994C24.7609 57.386 24.6631 56.8949 24.4673 56.5262C24.2715 56.1576 23.9909 55.8916 23.6255 55.7285C23.2601 55.5621 22.8229 55.4789 22.3139 55.4789H21.6434ZM28.996 61.572V54.4952H30.6992L32.554 59.9031L34.4284 54.4952H36.1218V61.572H34.9129V56.0221L33.0483 61.572H32.0548L30.2049 56.0564V61.572H28.996ZM42.0141 61.6699C41.6715 61.6699 41.3371 61.6275 41.0108 61.5427C40.6846 61.4546 40.3877 61.3257 40.1201 61.156C39.8558 60.9831 39.6356 60.7694 39.4594 60.5149C39.2832 60.2571 39.1756 59.957 39.1364 59.6144H40.3697C40.4219 59.8526 40.5247 60.0532 40.678 60.2164C40.8314 60.3795 41.0222 60.5035 41.2506 60.5883C41.4823 60.6731 41.7352 60.7156 42.0092 60.7156C42.3029 60.7156 42.5671 60.6764 42.8021 60.5981C43.0402 60.5198 43.2278 60.4056 43.3649 60.2555C43.5052 60.1054 43.5753 59.9211 43.5753 59.7025C43.5753 59.51 43.5247 59.3469 43.4236 59.2131C43.3225 59.0793 43.1805 58.97 42.9978 58.8852C42.8184 58.7971 42.6079 58.7269 42.3665 58.6747L41.0647 58.3909C40.5394 58.2832 40.1234 58.0744 39.8167 57.7644C39.51 57.4545 39.3534 57.0417 39.3468 56.5262C39.3436 56.0988 39.4561 55.7269 39.6845 55.4104C39.9162 55.0906 40.231 54.8443 40.6291 54.6714C41.0271 54.4952 41.4774 54.4071 41.9799 54.4071C42.5671 54.4071 43.0614 54.5034 43.4628 54.6959C43.8673 54.8851 44.1724 55.1396 44.3779 55.4593C44.5868 55.7791 44.6928 56.1298 44.6961 56.5116H43.4921C43.4628 56.231 43.3779 56.0075 43.2376 55.8411C43.1006 55.6747 42.9244 55.5556 42.7091 55.4838C42.4937 55.412 42.2556 55.3761 41.9945 55.3761C41.7988 55.3761 41.6161 55.399 41.4464 55.4446C41.2767 55.4903 41.1283 55.5572 41.001 55.6453C40.8738 55.7334 40.7743 55.8411 40.7025 55.9683C40.634 56.0923 40.5997 56.2342 40.5997 56.3941C40.5997 56.6225 40.6748 56.8085 40.8249 56.952C40.9782 57.0923 41.2637 57.2114 41.6813 57.3093L42.9538 57.5931C43.3486 57.6714 43.6667 57.7889 43.9081 57.9455C44.1496 58.1021 44.3339 58.2816 44.4611 58.4839C44.5884 58.6829 44.6732 58.8868 44.7156 59.0956C44.7581 59.3044 44.7793 59.5035 44.7793 59.6927C44.7793 60.0614 44.6651 60.3958 44.4367 60.696C44.2115 60.9962 43.8918 61.2343 43.4774 61.4105C43.0663 61.5834 42.5786 61.6699 42.0141 61.6699Z" fill="#E5E8EF"/>
<g clipPath="url(#clip0_2342_139198)">
<path d="M237.857 49.4992H238.034C238.13 49.4992 238.258 49.5159 238.258 49.6324C238.258 49.7656 238.162 49.7822 238.05 49.7822H237.857V49.4992ZM237.633 50.4481H237.841V49.9653H237.969L238.226 50.4481H238.451L238.162 49.9653C238.322 49.9487 238.451 49.8654 238.451 49.6657C238.451 49.416 238.306 49.3328 238.034 49.3328H237.633V50.4481ZM237.296 49.8821C237.296 49.4326 237.617 49.0997 238.018 49.0997C238.419 49.0997 238.739 49.4326 238.739 49.8821C238.739 50.3315 238.419 50.6645 238.018 50.6645C237.617 50.6811 237.296 50.3482 237.296 49.8821ZM237.039 49.8821C237.039 50.498 237.504 50.8809 238.018 50.8809C238.531 50.8809 238.996 50.4814 238.996 49.8821C238.996 49.2828 238.531 48.8833 238.018 48.8833C237.504 48.8999 237.039 49.2828 237.039 49.8821Z" fill="white"/>
<path d="M236.287 40.8428H235.773V50.8473H236.287V40.8428Z" fill="white"/>
<path d="M233.671 49.4157H233.639C233.559 49.6321 233.447 49.8319 233.286 50.015C233.126 50.2148 232.949 50.3812 232.725 50.5311C232.5 50.6809 232.26 50.7974 231.971 50.8806C231.682 50.9639 231.377 51.0138 231.057 51.0138C230.319 51.0138 229.741 50.8473 229.34 50.5144C228.939 50.1815 228.73 49.6654 228.73 48.9829C228.73 48.5668 228.811 48.2172 228.971 47.9509C229.132 47.6845 229.34 47.4681 229.581 47.3183C229.837 47.1685 230.11 47.0519 230.399 46.9854C230.704 46.9188 230.992 46.8688 231.265 46.8522L232.067 46.7856C232.436 46.7523 232.725 46.719 232.933 46.6524C233.142 46.5858 233.302 46.5026 233.415 46.4027C233.527 46.3028 233.591 46.153 233.607 45.9866C233.639 45.8201 233.655 45.6037 233.655 45.354C233.655 45.1542 233.623 44.9711 233.543 44.8047C233.463 44.6382 233.35 44.4884 233.206 44.3552C233.046 44.222 232.853 44.1222 232.613 44.0389C232.372 43.9723 232.067 43.9224 231.714 43.9224C231.089 43.9224 230.591 44.0889 230.206 44.4052C229.821 44.7214 229.613 45.2042 229.581 45.8534H229.067C229.099 45.0544 229.34 44.4551 229.805 44.0556C230.254 43.6561 230.912 43.4563 231.746 43.4563C232.58 43.4563 233.19 43.6228 233.575 43.9723C233.96 44.3053 234.153 44.7547 234.153 45.3041V49.499C234.153 49.5988 234.153 49.6987 234.153 49.8153C234.169 49.9151 234.169 50.015 234.201 50.0982C234.233 50.1815 234.265 50.2481 234.329 50.298C234.393 50.3479 234.473 50.3812 234.602 50.3812C234.698 50.3812 234.826 50.3646 234.987 50.3313V50.7808C234.858 50.814 234.714 50.8307 234.57 50.8307C234.361 50.8307 234.201 50.7974 234.072 50.7475C233.944 50.6975 233.864 50.6143 233.8 50.5311C233.735 50.4312 233.687 50.3313 233.671 50.1981C233.639 50.0816 233.639 49.9318 233.639 49.782L233.671 49.4157ZM233.671 46.7523C233.543 46.9021 233.35 47.0186 233.094 47.0686C232.837 47.1185 232.548 47.1685 232.228 47.2018L231.361 47.285C231.105 47.3183 230.864 47.3516 230.607 47.4015C230.351 47.4515 230.126 47.5347 229.934 47.6679C229.725 47.7844 229.565 47.9508 229.436 48.1673C229.308 48.3837 229.244 48.65 229.244 48.9829C229.244 49.5156 229.404 49.9151 229.725 50.1648C230.046 50.4312 230.495 50.5477 231.057 50.5477C231.65 50.5477 232.099 50.4312 232.452 50.2148C232.789 49.9984 233.062 49.7487 233.238 49.4657C233.415 49.1827 233.527 48.8997 233.575 48.6334C233.623 48.367 233.655 48.1839 233.655 48.1007L233.671 46.7523Z" fill="white"/>
<path d="M222.024 40.8428H222.522V45.1709H222.554C222.65 44.8879 222.794 44.6382 222.971 44.4384C223.147 44.222 223.356 44.0555 223.596 43.9057C223.837 43.7559 224.078 43.656 224.35 43.5894C224.623 43.5229 224.896 43.4896 225.184 43.4896C225.698 43.4896 226.147 43.5894 226.516 43.7726C226.885 43.9557 227.206 44.222 227.462 44.5383C227.719 44.8712 227.896 45.2541 228.024 45.6869C228.152 46.1197 228.2 46.5858 228.2 47.1019C228.2 47.9508 228.088 48.65 227.863 49.166C227.639 49.6821 227.366 50.0816 227.045 50.3646C226.724 50.6309 226.404 50.814 226.051 50.9139C225.714 51.0138 225.409 51.0471 225.168 51.0471C224.703 51.0471 224.318 50.9638 223.997 50.8307C223.677 50.6808 223.42 50.5144 223.211 50.3146C223.003 50.1149 222.842 49.9151 222.73 49.7154C222.618 49.5156 222.554 49.3824 222.522 49.2825H222.489V50.8973H221.992L222.024 40.8428ZM225.184 50.5477C225.65 50.5477 226.035 50.4478 226.356 50.2314C226.676 50.0316 226.917 49.7486 227.126 49.4324C227.318 49.0994 227.462 48.7332 227.559 48.317C227.655 47.9009 227.687 47.4847 227.687 47.0852C227.687 46.6857 227.639 46.3028 227.527 45.92C227.414 45.5371 227.27 45.2042 227.045 44.9212C226.837 44.6215 226.58 44.3885 226.259 44.222C225.954 44.0389 225.586 43.9557 225.168 43.9557C224.719 43.9557 224.318 44.0389 223.997 44.1887C223.661 44.3552 223.388 44.5716 223.179 44.8546C222.955 45.1376 222.794 45.4705 222.682 45.8534C222.57 46.2362 222.522 46.6524 222.522 47.1019C222.522 47.5347 222.57 47.9675 222.666 48.3836C222.762 48.7998 222.923 49.1827 223.131 49.4989C223.34 49.8152 223.612 50.0816 223.949 50.2813C224.302 50.4644 224.703 50.5477 225.184 50.5477Z" fill="white"/>
<path d="M214.902 47.2518C214.902 46.7358 214.967 46.2531 215.111 45.8036C215.255 45.3542 215.464 44.9546 215.72 44.6051C215.993 44.2555 216.33 43.9891 216.715 43.7894C217.116 43.5896 217.565 43.4897 218.079 43.4897C218.592 43.4897 219.041 43.5896 219.442 43.7894C219.843 43.9891 220.18 44.2555 220.437 44.6051C220.709 44.9546 220.902 45.3542 221.046 45.8036C221.191 46.2531 221.255 46.7358 221.255 47.2518C221.255 47.7679 221.191 48.2506 221.046 48.7001C220.902 49.1662 220.709 49.5657 220.437 49.8986C220.164 50.2482 219.827 50.5146 219.442 50.7143C219.041 50.9141 218.592 51.014 218.079 51.014C217.565 51.014 217.1 50.9141 216.715 50.7143C216.314 50.5146 215.993 50.2482 215.72 49.8986C215.448 49.5657 215.239 49.1495 215.111 48.7001C214.983 48.2506 214.902 47.7679 214.902 47.2518ZM215.416 47.2518C215.416 47.6847 215.48 48.1008 215.592 48.5003C215.704 48.8999 215.881 49.2494 216.105 49.5491C216.33 49.8487 216.603 50.0984 216.94 50.2815C217.277 50.4646 217.645 50.5479 218.079 50.5479C218.512 50.5479 218.897 50.448 219.218 50.2815C219.554 50.0984 219.827 49.8487 220.052 49.5491C220.276 49.2328 220.453 48.8832 220.565 48.5003C220.677 48.1008 220.742 47.6847 220.742 47.2518C220.742 46.819 220.677 46.4195 220.565 46.02C220.453 45.6205 220.276 45.2709 220.052 44.9546C219.827 44.6384 219.538 44.4053 219.218 44.2222C218.881 44.0391 218.496 43.9558 218.079 43.9558C217.645 43.9558 217.26 44.0391 216.94 44.2222C216.603 44.4053 216.33 44.655 216.105 44.9546C215.881 45.2709 215.704 45.6205 215.592 46.02C215.48 46.4029 215.416 46.819 215.416 47.2518Z" fill="white"/>
<path d="M214.15 40.8428H213.637V50.8473H214.15V40.8428Z" fill="white"/>
<path d="M203.785 45.9034C203.785 45.1876 203.881 44.5218 204.09 43.8726C204.282 43.24 204.587 42.674 204.972 42.1913C205.357 41.7085 205.822 41.3257 206.4 41.0427C206.961 40.7597 207.603 40.6099 208.341 40.6099C208.838 40.6099 209.303 40.6765 209.753 40.8263C210.202 40.9761 210.603 41.1925 210.956 41.4921C211.309 41.7751 211.613 42.1247 211.854 42.5409C212.095 42.957 212.255 43.4231 212.335 43.9392H211.758C211.533 43.0569 211.132 42.3744 210.539 41.875C209.945 41.3756 209.207 41.1259 208.325 41.1259C207.683 41.1259 207.106 41.2591 206.608 41.5088C206.111 41.7751 205.694 42.1247 205.373 42.5575C205.036 42.9903 204.796 43.5064 204.619 44.0723C204.443 44.6383 204.363 45.2542 204.363 45.8702C204.363 46.5027 204.443 47.102 204.603 47.668C204.764 48.234 205.02 48.7334 205.341 49.1495C205.678 49.5657 206.079 49.8986 206.576 50.1483C207.074 50.398 207.651 50.5145 208.325 50.5145C208.902 50.5145 209.416 50.4146 209.881 50.2149C210.346 50.0151 210.731 49.7488 211.052 49.3826C211.373 49.033 211.613 48.6002 211.774 48.1008C211.934 47.6014 211.998 47.0521 211.982 46.4361H208.437V45.9534H212.496V50.8641H211.982V48.7334H211.95C211.822 49.0996 211.662 49.4325 211.421 49.7155C211.18 50.0151 210.908 50.2482 210.587 50.4646C210.266 50.6643 209.913 50.8142 209.528 50.9307C209.143 51.0472 208.726 51.0971 208.309 51.0971C207.587 51.0971 206.929 50.964 206.368 50.6976C205.806 50.4313 205.325 50.0651 204.94 49.599C204.555 49.1329 204.266 48.5835 204.058 47.951C203.881 47.3018 203.785 46.6192 203.785 45.9034Z" fill="white"/>
<path d="M197.565 40.8428V45.8367L202.457 40.8428H204.126L200.051 44.8879L204.286 50.864H202.666L199.169 45.8034L197.565 47.3516V50.864H196.281V40.8428H197.565Z" fill="white"/>
<path d="M190.695 40.8428C192.187 40.8428 193.326 41.2423 194.128 42.0247C194.93 42.8071 195.331 44.0056 195.331 45.6203C195.331 46.4693 195.235 47.2017 195.059 47.8509C194.882 48.5002 194.593 49.0495 194.224 49.4989C193.839 49.9318 193.358 50.2813 192.781 50.5144C192.203 50.7474 191.497 50.864 190.695 50.864H187.391V40.8428H190.695ZM190.807 49.7486C190.952 49.7486 191.128 49.7486 191.353 49.7154C191.561 49.6987 191.802 49.6321 192.043 49.5489C192.283 49.4657 192.524 49.3325 192.765 49.166C193.005 48.9996 193.214 48.7665 193.406 48.4835C193.599 48.2005 193.759 47.8343 193.871 47.4015C193.984 46.9687 194.048 46.436 194.048 45.8201C194.048 45.2208 193.984 44.6881 193.871 44.2054C193.759 43.7393 193.567 43.3397 193.31 43.0068C193.053 42.6739 192.716 42.4242 192.315 42.2411C191.914 42.0746 191.401 41.9914 190.824 41.9914H188.658V49.7653H190.807V49.7486Z" fill="white"/>
<path d="M184.167 42.258C183.67 41.9084 183.092 41.7253 182.419 41.7253C181.841 41.7253 181.344 41.8418 180.943 42.0582C180.542 42.2746 180.205 42.5909 179.932 42.9571C179.66 43.34 179.467 43.7728 179.339 44.2555C179.21 44.7383 179.146 45.2543 179.146 45.7704C179.146 46.3363 179.21 46.8857 179.339 47.3851C179.467 47.9011 179.66 48.3339 179.932 48.7168C180.205 49.0997 180.542 49.3993 180.959 49.6157C181.376 49.8321 181.873 49.9486 182.451 49.9486C182.868 49.9486 183.253 49.8654 183.574 49.7322C183.911 49.5824 184.183 49.3826 184.424 49.133C184.665 48.8666 184.841 48.567 184.985 48.2174C185.114 47.8512 185.194 47.4683 185.226 47.0688H186.509C186.381 48.3339 185.964 49.3161 185.258 50.0152C184.552 50.7144 183.574 51.0639 182.338 51.0639C181.585 51.0639 180.943 50.9308 180.381 50.6644C179.82 50.3981 179.355 50.0319 178.986 49.5658C178.617 49.0997 178.344 48.5503 178.152 47.9178C177.975 47.2852 177.879 46.6027 177.879 45.8702C177.879 45.1378 177.975 44.4553 178.184 43.8061C178.376 43.1735 178.665 42.6075 179.05 42.1248C179.435 41.642 179.916 41.2758 180.478 40.9928C181.055 40.7265 181.713 40.5767 182.451 40.5767C182.948 40.5767 183.429 40.6432 183.878 40.7931C184.328 40.9429 184.729 41.1426 185.082 41.409C185.435 41.6753 185.723 42.0249 185.964 42.4244C186.205 42.8239 186.349 43.3067 186.429 43.8394H185.146C184.969 43.1569 184.665 42.6242 184.167 42.258Z" fill="white"/>
<path d="M170.285 40.6931C167.469 40.6931 165.188 42.9751 165.188 45.7911C165.188 48.6071 167.469 50.8891 170.285 50.8891C173.102 50.8891 175.383 48.6071 175.383 45.7911C175.383 42.9751 173.102 40.6931 170.285 40.6931Z" fill="#82C600"/>
<path d="M159.075 40.6099C161.891 40.6099 164.173 42.8918 164.173 45.7079C164.173 48.5239 161.891 50.8058 159.075 50.8058C156.259 50.8058 153.977 48.5239 153.977 45.7079C153.977 42.8918 156.259 40.6099 159.075 40.6099Z" fill="white"/>
<path d="M147.844 40.6099C150.66 40.6099 152.942 42.8918 152.942 45.7079C152.942 48.5239 150.66 50.8058 147.844 50.8058C145.028 50.8058 142.746 48.5239 142.746 45.7079C142.762 42.8918 145.044 40.6099 147.844 40.6099Z" fill="white"/>
</g>
<path d="M232.399 19.4885C231.724 19.4885 231.176 20.0363 231.176 20.712C231.176 21.3878 231.724 21.9356 232.399 21.9356C233.075 21.9356 233.623 21.3878 233.623 20.712C233.623 20.0363 233.075 19.4885 232.399 19.4885Z" fill="white"/>
<path d="M236.07 20.712C236.07 20.0363 236.618 19.4885 237.293 19.4885C237.969 19.4885 238.517 20.0363 238.517 20.712C238.517 21.3878 237.969 21.9356 237.293 21.9356C236.618 21.9356 236.07 21.3878 236.07 20.712Z" fill="white"/>
<path d="M240.964 20.712C240.964 20.0363 241.512 19.4885 242.187 19.4885C242.863 19.4885 243.411 20.0363 243.411 20.712C243.411 21.3878 242.863 21.9356 242.187 21.9356C241.512 21.9356 240.964 21.3878 240.964 20.712Z" fill="white"/>
<rect x="20.3945" y="72.9131" width="167.214" height="36.3136" rx="4.07839" fill="#6043DD"/>
<path d="M68.7143 88.0175C68.7143 88.1621 68.6724 88.2916 68.5887 88.4058C68.5126 88.5123 68.4212 88.5961 68.3146 88.657C68.1243 88.5276 67.9035 88.4096 67.6523 88.303C67.4011 88.1964 67.0927 88.1431 66.7273 88.1431C66.301 88.1431 65.9241 88.2383 65.5968 88.4286C65.277 88.6113 65.0258 88.8892 64.8431 89.2622C64.668 89.6276 64.5804 90.0768 64.5804 90.6097C64.5804 91.4167 64.7822 92.0295 65.1857 92.4483C65.5892 92.8594 66.1259 93.0649 66.7958 93.0649C67.1536 93.0649 67.462 93.0154 67.7208 92.9165C67.9796 92.8175 68.2042 92.7033 68.3946 92.5739C68.4935 92.6348 68.5773 92.7261 68.6458 92.8479C68.7219 92.9621 68.76 93.0916 68.76 93.2362C68.76 93.3656 68.7257 93.4836 68.6572 93.5902C68.5963 93.6968 68.4859 93.7919 68.326 93.8757C68.1662 93.967 67.9454 94.0508 67.6637 94.1269C67.3896 94.2031 67.0432 94.2411 66.6245 94.2411C65.9698 94.2411 65.3722 94.1117 64.8317 93.8529C64.2988 93.5864 63.8762 93.1867 63.5641 92.6538C63.252 92.1133 63.0959 91.4319 63.0959 90.6097C63.0959 89.8104 63.252 89.1404 63.5641 88.5999C63.8762 88.0594 64.295 87.6521 64.8203 87.378C65.3455 87.0963 65.9203 86.9555 66.5446 86.9555C66.9861 86.9555 67.3668 87.005 67.6865 87.1039C68.0139 87.2029 68.2651 87.3323 68.4402 87.4922C68.6229 87.6521 68.7143 87.8272 68.7143 88.0175ZM75.0127 91.3634C75.0127 91.9496 74.8985 92.4597 74.6701 92.8936C74.4417 93.3199 74.1182 93.6511 73.6994 93.8871C73.2883 94.1155 72.8011 94.2297 72.2377 94.2297C71.6744 94.2297 71.1833 94.1155 70.7646 93.8871C70.3459 93.6511 70.0186 93.3199 69.7826 92.8936C69.5542 92.4673 69.44 91.9572 69.44 91.3634C69.44 90.7772 69.558 90.2709 69.794 89.8446C70.03 89.4183 70.3573 89.0909 70.7761 88.8625C71.1948 88.6265 71.682 88.5085 72.2377 88.5085C72.7935 88.5085 73.2769 88.6265 73.688 88.8625C74.1067 89.0909 74.4303 89.4221 74.6587 89.856C74.8947 90.2824 75.0127 90.7848 75.0127 91.3634ZM72.2377 89.6276C71.819 89.6276 71.4879 89.7799 71.2443 90.0844C71.0082 90.3889 70.8902 90.8153 70.8902 91.3634C70.8902 91.9268 71.0082 92.3607 71.2443 92.6652C71.4803 92.9621 71.8114 93.1106 72.2377 93.1106C72.6565 93.1106 72.9838 92.9583 73.2198 92.6538C73.4558 92.3493 73.5738 91.9192 73.5738 91.3634C73.5738 90.8229 73.4558 90.4004 73.2198 90.0958C72.9838 89.7837 72.6565 89.6276 72.2377 89.6276ZM81.2059 90.5412V91.6489H79.8013V90.5983C79.8013 90.2633 79.7061 90.0197 79.5158 89.8675C79.3255 89.7076 79.0704 89.6276 78.7507 89.6276C78.5147 89.6276 78.3015 89.6581 78.1112 89.719C77.9285 89.7723 77.7648 89.837 77.6202 89.9131V91.6489H76.2156V89.8218C76.2156 89.6391 76.2536 89.4906 76.3298 89.3764C76.4059 89.2546 76.5201 89.1442 76.6723 89.0452C76.9007 88.893 77.1938 88.7674 77.5516 88.6684C77.9171 88.5618 78.3206 88.5085 78.7621 88.5085C79.531 88.5085 80.1286 88.6798 80.555 89.0224C80.9889 89.365 81.2059 89.8713 81.2059 90.5412ZM76.2156 91.0893H77.6202V94.047C77.5593 94.0698 77.4717 94.0889 77.3575 94.1041C77.2433 94.1269 77.1177 94.1383 76.9807 94.1383C76.7218 94.1383 76.5277 94.0927 76.3983 94.0013C76.2765 93.9023 76.2156 93.731 76.2156 93.4874V91.0893ZM79.8013 91.0893H81.2059V94.047C81.1526 94.0698 81.065 94.0889 80.9432 94.1041C80.829 94.1269 80.7072 94.1383 80.5778 94.1383C80.3114 94.1383 80.1134 94.0927 79.984 94.0013C79.8622 93.9023 79.8013 93.731 79.8013 93.4874V91.0893ZM87.674 90.5412V91.6489H86.2694V90.5983C86.2694 90.2633 86.1742 90.0197 85.9839 89.8675C85.7935 89.7076 85.5385 89.6276 85.2188 89.6276C84.9828 89.6276 84.7696 89.6581 84.5793 89.719C84.3966 89.7723 84.2329 89.837 84.0882 89.9131V91.6489H82.6836V89.8218C82.6836 89.6391 82.7217 89.4906 82.7978 89.3764C82.874 89.2546 82.9882 89.1442 83.1404 89.0452C83.3688 88.893 83.6619 88.7674 84.0197 88.6684C84.3851 88.5618 84.7886 88.5085 85.2302 88.5085C85.9991 88.5085 86.5967 88.6798 87.023 89.0224C87.457 89.365 87.674 89.8713 87.674 90.5412ZM82.6836 91.0893H84.0882V94.047C84.0273 94.0698 83.9398 94.0889 83.8256 94.1041C83.7114 94.1269 83.5858 94.1383 83.4487 94.1383C83.1899 94.1383 82.9958 94.0927 82.8663 94.0013C82.7445 93.9023 82.6836 93.731 82.6836 93.4874V91.0893ZM86.2694 91.0893H87.674V94.047C87.6207 94.0698 87.5331 94.0889 87.4113 94.1041C87.2971 94.1269 87.1753 94.1383 87.0459 94.1383C86.7794 94.1383 86.5815 94.0927 86.4521 94.0013C86.3303 93.9023 86.2694 93.731 86.2694 93.4874V91.0893ZM91.9266 89.6391C91.4699 89.6391 91.0854 89.7875 90.7733 90.0844C90.4688 90.3813 90.3165 90.8153 90.3165 91.3862C90.3165 91.9496 90.4649 92.3759 90.7619 92.6652C91.0588 92.9545 91.4432 93.0992 91.9152 93.0992C92.1969 93.0992 92.4329 93.0649 92.6232 92.9964C92.8212 92.9203 92.9925 92.8403 93.1371 92.7566C93.2513 92.8251 93.3389 92.9088 93.3998 93.0078C93.4683 93.0992 93.5025 93.2134 93.5025 93.3504C93.5025 93.6092 93.3465 93.8224 93.0343 93.9899C92.7222 94.1498 92.3111 94.2297 91.801 94.2297C91.2224 94.2297 90.7124 94.1269 90.2708 93.9214C89.8369 93.7082 89.4943 93.3885 89.2431 92.9621C88.9994 92.5358 88.8776 92.0105 88.8776 91.3862C88.8776 90.7391 89.0071 90.2024 89.2659 89.7761C89.5324 89.3498 89.8826 89.0338 90.3165 88.8283C90.758 88.6151 91.2415 88.5085 91.7668 88.5085C92.2692 88.5085 92.6727 88.5961 92.9772 88.7712C93.2818 88.9463 93.434 89.1632 93.434 89.4221C93.434 89.5363 93.4036 89.6429 93.3427 89.7418C93.2818 89.8408 93.2094 89.9207 93.1257 89.9816C92.9734 89.8903 92.8021 89.8104 92.6118 89.7418C92.4215 89.6733 92.1931 89.6391 91.9266 89.6391ZM95.1435 92.0828L95.0865 91.1008L98.1469 90.644C98.124 90.3547 98.0136 90.1035 97.8157 89.8903C97.6178 89.6771 97.3285 89.5705 96.9478 89.5705C96.5596 89.5705 96.236 89.7076 95.9772 89.9816C95.7183 90.2481 95.5851 90.6326 95.5775 91.135L95.6117 91.7288C95.6803 92.2161 95.8668 92.5739 96.1713 92.8023C96.4834 93.0307 96.8755 93.1448 97.3475 93.1448C97.6673 93.1448 97.9642 93.0992 98.2382 93.0078C98.5123 92.9088 98.7293 92.8023 98.8891 92.6881C98.9957 92.7566 99.0795 92.8441 99.1404 92.9507C99.2089 93.0497 99.2431 93.1601 99.2431 93.2819C99.2431 93.4798 99.1556 93.6511 98.9805 93.7958C98.8054 93.9328 98.5694 94.0394 98.2725 94.1155C97.9756 94.1916 97.6368 94.2297 97.2562 94.2297C96.67 94.2297 96.1485 94.1231 95.6917 93.91C95.2425 93.6892 94.8885 93.3618 94.6297 92.9279C94.3784 92.4939 94.2528 91.9534 94.2528 91.3063C94.2528 90.8419 94.3252 90.4346 94.4698 90.0844C94.6144 89.7342 94.8086 89.4449 95.0522 89.2165C95.3034 88.9805 95.5927 88.8054 95.9201 88.6912C96.2474 88.5694 96.59 88.5085 96.9478 88.5085C97.4503 88.5085 97.888 88.6113 98.2611 88.8169C98.6417 89.0148 98.9386 89.2927 99.1518 89.6505C99.3726 90.0083 99.483 90.4194 99.483 90.8838C99.483 91.0969 99.4259 91.2568 99.3117 91.3634C99.2051 91.4624 99.0528 91.5233 98.8549 91.5461L95.1435 92.0828ZM103.391 89.6391C102.934 89.6391 102.55 89.7875 102.237 90.0844C101.933 90.3813 101.781 90.8153 101.781 91.3862C101.781 91.9496 101.929 92.3759 102.226 92.6652C102.523 92.9545 102.907 93.0992 103.379 93.0992C103.661 93.0992 103.897 93.0649 104.087 92.9964C104.285 92.9203 104.457 92.8403 104.601 92.7566C104.715 92.8251 104.803 92.9088 104.864 93.0078C104.932 93.0992 104.967 93.2134 104.967 93.3504C104.967 93.6092 104.811 93.8224 104.498 93.9899C104.186 94.1498 103.775 94.2297 103.265 94.2297C102.687 94.2297 102.176 94.1269 101.735 93.9214C101.301 93.7082 100.958 93.3885 100.707 92.9621C100.464 92.5358 100.342 92.0105 100.342 91.3862C100.342 90.7391 100.471 90.2024 100.73 89.7761C100.996 89.3498 101.347 89.0338 101.781 88.8283C102.222 88.6151 102.706 88.5085 103.231 88.5085C103.733 88.5085 104.137 88.5961 104.441 88.7712C104.746 88.9463 104.898 89.1632 104.898 89.4221C104.898 89.5363 104.868 89.6429 104.807 89.7418C104.746 89.8408 104.674 89.9207 104.59 89.9816C104.438 89.8903 104.266 89.8104 104.076 89.7418C103.886 89.6733 103.657 89.6391 103.391 89.6391ZM106.147 91.0551H107.552V92.4026C107.552 92.6538 107.624 92.8327 107.769 92.9393C107.921 93.0459 108.134 93.0992 108.408 93.0992C108.53 93.0992 108.66 93.0839 108.797 93.0535C108.941 93.023 109.063 92.985 109.162 92.9393C109.215 93.0002 109.265 93.0725 109.311 93.1563C109.356 93.24 109.379 93.3428 109.379 93.4646C109.379 93.6854 109.273 93.8681 109.059 94.0127C108.854 94.1574 108.53 94.2297 108.089 94.2297C107.487 94.2297 107.011 94.0965 106.661 93.83C106.319 93.5559 106.147 93.1144 106.147 92.5054V91.0551ZM107.004 89.8903V88.7826H109.242C109.273 88.8359 109.303 88.912 109.333 89.011C109.371 89.11 109.391 89.2127 109.391 89.3193C109.391 89.5096 109.345 89.6543 109.253 89.7533C109.162 89.8446 109.044 89.8903 108.899 89.8903H107.004ZM107.552 91.3634H106.147V87.2524C106.208 87.2295 106.296 87.2067 106.41 87.1839C106.532 87.161 106.657 87.1496 106.787 87.1496C107.053 87.1496 107.247 87.1991 107.369 87.2981C107.491 87.3894 107.552 87.5569 107.552 87.8005V91.3634ZM111.024 92.0828L110.967 91.1008L114.027 90.644C114.004 90.3547 113.894 90.1035 113.696 89.8903C113.498 89.6771 113.209 89.5705 112.828 89.5705C112.44 89.5705 112.116 89.7076 111.857 89.9816C111.599 90.2481 111.465 90.6326 111.458 91.135L111.492 91.7288C111.56 92.2161 111.747 92.5739 112.052 92.8023C112.364 93.0307 112.756 93.1448 113.228 93.1448C113.547 93.1448 113.844 93.0992 114.118 93.0078C114.393 92.9088 114.609 92.8023 114.769 92.6881C114.876 92.7566 114.96 92.8441 115.021 92.9507C115.089 93.0497 115.123 93.1601 115.123 93.2819C115.123 93.4798 115.036 93.6511 114.861 93.7958C114.686 93.9328 114.45 94.0394 114.153 94.1155C113.856 94.1916 113.517 94.2297 113.136 94.2297C112.55 94.2297 112.029 94.1231 111.572 93.91C111.123 93.6892 110.769 93.3618 110.51 92.9279C110.259 92.4939 110.133 91.9534 110.133 91.3063C110.133 90.8419 110.205 90.4346 110.35 90.0844C110.495 89.7342 110.689 89.4449 110.932 89.2165C111.184 88.9805 111.473 88.8054 111.8 88.6912C112.128 88.5694 112.47 88.5085 112.828 88.5085C113.331 88.5085 113.768 88.6113 114.141 88.8169C114.522 89.0148 114.819 89.2927 115.032 89.6505C115.253 90.0083 115.363 90.4194 115.363 90.8838C115.363 91.0969 115.306 91.2568 115.192 91.3634C115.085 91.4624 114.933 91.5233 114.735 91.5461L111.024 92.0828ZM120.07 92.8822V89.2965H121.475V93.0307C121.475 93.1981 121.437 93.339 121.361 93.4532C121.292 93.5598 121.178 93.6625 121.018 93.7615C120.835 93.8833 120.584 93.9899 120.264 94.0812C119.952 94.1802 119.595 94.2297 119.191 94.2297C118.59 94.2297 118.064 94.1307 117.615 93.9328C117.174 93.7272 116.831 93.4151 116.587 92.9964C116.344 92.5701 116.222 92.0333 116.222 91.3862C116.222 90.7239 116.344 90.1796 116.587 89.7533C116.839 89.3269 117.174 89.0148 117.592 88.8169C118.011 88.6113 118.475 88.5085 118.985 88.5085C119.267 88.5085 119.522 88.5428 119.751 88.6113C119.987 88.6798 120.177 88.7598 120.322 88.8511V90.0502C120.2 89.936 120.04 89.837 119.842 89.7533C119.644 89.6695 119.416 89.6276 119.157 89.6276C118.875 89.6276 118.62 89.6885 118.392 89.8104C118.163 89.9245 117.984 90.1149 117.855 90.3813C117.726 90.6402 117.661 90.9789 117.661 91.3977C117.661 91.9915 117.798 92.4254 118.072 92.6995C118.346 92.9736 118.715 93.1106 119.18 93.1106C119.385 93.1106 119.56 93.0877 119.705 93.0421C119.85 92.9964 119.971 92.9431 120.07 92.8822ZM121.475 89.582L120.07 89.5934V86.6472C120.124 86.6319 120.207 86.6129 120.322 86.5901C120.443 86.5672 120.569 86.5558 120.698 86.5558C120.972 86.5558 121.17 86.6053 121.292 86.7043C121.414 86.7956 121.475 86.9631 121.475 87.2067V89.582Z" fill="white"/>
<path fill-rule="evenodd" clip-rule="evenodd" d="M140.552 87.7822C140.791 88.0211 140.791 88.4085 140.552 88.6474L134.842 94.3571C134.603 94.596 134.216 94.596 133.977 94.3571L130.714 91.0944C130.475 90.8555 130.475 90.4681 130.714 90.2292C130.953 89.9903 131.341 89.9903 131.579 90.2292L134.41 93.0594L139.687 87.7822C139.926 87.5433 140.313 87.5433 140.552 87.7822Z" fill="white"/>
<path fill-rule="evenodd" clip-rule="evenodd" d="M218.63 87.5703C218.869 87.8092 218.869 88.1965 218.63 88.4355L212.92 94.1452C212.681 94.3841 212.294 94.3841 212.055 94.1452L208.792 90.8825C208.554 90.6436 208.554 90.2562 208.792 90.0173C209.031 89.7784 209.419 89.7784 209.658 90.0173L212.488 92.8475L217.765 87.5703C218.004 87.3314 218.391 87.3314 218.63 87.5703Z" fill="#6043DD"/>
<rect x="196.173" y="73.3209" width="35.0742" height="35.0742" rx="17.5371" stroke="#6043DD" strokeWidth="0.815678"/>
</g>
<defs>
<filter id="filter0_d_2342_139198" x="-9" y="0" width="276.57" height="178.144" filterUnits="userSpaceOnUse" color-interpolation-filters="sRGB">
<feFlood flood-opacity="0" result="BackgroundImageFix"/>
<feColorMatrix in="SourceAlpha" type="matrix" values="0 0 0 0 0 0 0 0 0 0 0 0 0 0 0 0 0 0 127 0" result="hardAlpha"/>
<feMorphology radius="22" operator="erode" in="SourceAlpha" result="effect1_dropShadow_2342_139198"/>
<feOffset dy="33"/>
<feGaussianBlur stdDeviation="15.5"/>
<feComposite in2="hardAlpha" operator="out"/>
<feColorMatrix type="matrix" values="0 0 0 0 0.376471 0 0 0 0 0.262745 0 0 0 0 0.866667 0 0 0 0.25 0"/>
<feBlend mode="normal" in2="BackgroundImageFix" result="effect1_dropShadow_2342_139198"/>
<feBlend mode="normal" in="SourceGraphic" in2="effect1_dropShadow_2342_139198" result="shape"/>
</filter>
<clipPath id="clip0_2342_139198">
<rect width="96.2512" height="39.4703" fill="white" transform="translate(142.746 26.1018)"/>
</clipPath>
</defs>
</svg>
