<svg width="260" height="137" viewBox="0 0 260 137" fill="none" xmlns="http://www.w3.org/2000/svg">
<g filter="url(#filter0_d_2342_139199)">
<rect x="0.570312" width="258.57" height="136.144" rx="9.78814" fill="#161A3E"/>
<path d="M23.77 37.8488H24.8304C25.3742 37.8488 25.8092 37.7292 26.1355 37.4899C26.4727 37.2398 26.6412 36.8755 26.6412 36.3969C26.6412 35.9293 26.4835 35.5758 26.1681 35.3366C25.8527 35.0864 25.3688 34.9613 24.7162 34.9613C24.5313 34.9613 24.3628 34.9668 24.2105 34.9777C24.0583 34.9885 23.9114 35.0103 23.77 35.0429V37.8488ZM25.0588 39.7738H21.3067V34.0804C21.3067 33.8738 21.3665 33.7106 21.4861 33.591C21.6058 33.4714 21.7635 33.3789 21.9592 33.3137C22.3181 33.1832 22.7369 33.0907 23.2154 33.0363C23.7048 32.982 24.2105 32.9548 24.7325 32.9548C26.2008 32.9548 27.3047 33.2647 28.0442 33.8846C28.7837 34.4937 29.1535 35.3257 29.1535 36.3806C29.1535 37.0332 28.9741 37.6205 28.6152 38.1425C28.2672 38.6536 27.7832 39.056 27.1633 39.3497C26.5542 39.6325 25.8527 39.7738 25.0588 39.7738ZM24.602 39.1866L26.8207 38.6645C27.0708 39.0125 27.3264 39.3551 27.5874 39.6923C27.8593 40.0294 28.1149 40.3557 28.3542 40.6711C28.6043 40.9865 28.8273 41.2801 29.023 41.552C29.2188 41.813 29.3765 42.036 29.4961 42.2209C29.3982 42.5471 29.2242 42.8027 28.9741 42.9876C28.7239 43.1616 28.4412 43.2486 28.1258 43.2486C27.7234 43.2486 27.4134 43.1616 27.1959 42.9876C26.9893 42.8027 26.7935 42.5635 26.6086 42.2698L24.602 39.1866ZM21.3067 38.844H23.7864V43.0855C23.6885 43.1181 23.5308 43.1453 23.3133 43.1671C23.0958 43.1997 22.8728 43.216 22.6444 43.216C22.155 43.216 21.807 43.129 21.6003 42.955C21.4046 42.781 21.3067 42.4765 21.3067 42.0414V38.844ZM31.8427 40.3285L31.7448 38.6971L35.7906 38.0609C35.7688 37.7564 35.6383 37.4736 35.3991 37.2126C35.1598 36.9516 34.8063 36.8211 34.3387 36.8211C33.8493 36.8211 33.4414 36.9897 33.1152 37.3268C32.7889 37.6531 32.6149 38.1207 32.5931 38.7298L32.6747 39.8554C32.7726 40.4536 33.0282 40.8832 33.4414 41.1442C33.8547 41.3943 34.3441 41.5194 34.9097 41.5194C35.3664 41.5194 35.796 41.4541 36.1984 41.3236C36.6008 41.1931 36.9271 41.0572 37.1772 40.9158C37.3404 41.0137 37.4709 41.1496 37.5688 41.3236C37.6775 41.4976 37.7319 41.6825 37.7319 41.8783C37.7319 42.2046 37.6014 42.4765 37.3404 42.694C37.0902 42.9115 36.7368 43.0746 36.28 43.1834C35.8341 43.2921 35.3229 43.3465 34.7465 43.3465C33.9091 43.3465 33.1532 43.1888 32.4789 42.8734C31.8155 42.558 31.2935 42.0849 30.9128 41.4541C30.5322 40.8233 30.3419 40.0349 30.3419 39.0887C30.3419 38.3926 30.4506 37.789 30.6681 37.2779C30.8965 36.7667 31.1956 36.348 31.5654 36.0217C31.946 35.6846 32.3702 35.4344 32.8378 35.2713C33.3164 35.1082 33.8112 35.0266 34.3224 35.0266C35.0728 35.0266 35.7253 35.1789 36.28 35.4834C36.8455 35.777 37.286 36.1794 37.6014 36.6906C37.9168 37.2017 38.0745 37.7945 38.0745 38.4688C38.0745 38.8059 37.982 39.0615 37.7972 39.2355C37.6123 39.4095 37.3567 39.5183 37.0304 39.5618L31.8427 40.3285ZM40.8003 41.1605C40.6262 40.8016 40.4359 40.3666 40.2293 39.8554C40.0335 39.3443 39.8269 38.7406 39.6094 38.0446C39.3919 37.3486 39.158 36.5438 38.9079 35.6302C39.0493 35.4888 39.2287 35.3692 39.4462 35.2713C39.6746 35.1625 39.9193 35.1082 40.1803 35.1082C40.5175 35.1082 40.7948 35.1789 41.0123 35.3202C41.2298 35.4616 41.393 35.7281 41.5017 36.1196C41.7519 36.9135 42.002 37.702 42.2522 38.4851C42.5023 39.2681 42.7579 40.0566 43.0189 40.8505H43.0842C43.269 40.3611 43.4539 39.8065 43.6388 39.1866C43.8346 38.5666 44.014 37.9304 44.1772 37.2779C44.3403 36.6144 44.4817 35.9782 44.6013 35.3692C44.7536 35.293 44.9167 35.2332 45.0907 35.1897C45.2647 35.1354 45.4442 35.1082 45.6291 35.1082C45.9662 35.1082 46.2544 35.1843 46.4937 35.3366C46.7438 35.4779 46.8689 35.7226 46.8689 36.0707C46.8689 36.3752 46.82 36.7504 46.7221 37.1963C46.6351 37.6422 46.5154 38.1262 46.3632 38.6482C46.2109 39.1594 46.0315 39.6868 45.8248 40.2306C45.6182 40.7635 45.4007 41.2801 45.1723 41.7804C44.9548 42.2807 44.7318 42.732 44.5034 43.1344C43.9161 44.1568 43.3724 44.918 42.8721 45.4183C42.3827 45.9295 41.8933 46.1851 41.4039 46.1851C41.0123 46.1851 40.6861 46.0654 40.425 45.8262C40.1749 45.5869 40.0226 45.2824 39.9683 44.9126C40.2075 44.7168 40.4522 44.4885 40.7024 44.2274C40.9525 43.9773 41.1918 43.7054 41.4202 43.4118C41.6486 43.129 41.8498 42.8462 42.0238 42.5635C41.8389 42.5091 41.6486 42.3894 41.4528 42.2046C41.257 42.0197 41.0395 41.6717 40.8003 41.1605ZM55.6178 38.0283V39.5618H53.1871V38.1099C53.1871 37.7075 53.0675 37.4138 52.8282 37.2289C52.5998 37.0332 52.2953 36.9353 51.9146 36.9353C51.6427 36.9353 51.3926 36.9733 51.1642 37.0495C50.9358 37.1147 50.7292 37.1963 50.5443 37.2942V39.5618H48.1299V37.0168C48.1299 36.745 48.1843 36.522 48.293 36.348C48.4127 36.1631 48.5812 36 48.7987 35.8586C49.1468 35.6193 49.5927 35.4236 50.1365 35.2713C50.6802 35.1082 51.2784 35.0266 51.9309 35.0266C53.1055 35.0266 54.0136 35.2876 54.6553 35.8096C55.297 36.3208 55.6178 37.0604 55.6178 38.0283ZM48.1299 38.8113H50.5443V43.0855C50.4355 43.1181 50.2833 43.1453 50.0875 43.1671C49.8918 43.1997 49.6797 43.216 49.4513 43.216C48.9945 43.216 48.6574 43.1344 48.4398 42.9713C48.2332 42.8082 48.1299 42.5145 48.1299 42.0904V38.8113ZM53.1871 38.8113H55.6178V43.0855C55.5091 43.1181 55.3568 43.1453 55.161 43.1671C54.9653 43.1997 54.7532 43.216 54.5248 43.216C54.068 43.216 53.7309 43.1344 53.5134 42.9713C53.2958 42.8082 53.1871 42.5145 53.1871 42.0904V38.8113ZM65.4254 39.1866C65.4254 40.0349 65.2514 40.7744 64.9034 41.4052C64.5663 42.0251 64.0877 42.5036 63.4678 42.8408C62.8479 43.1779 62.1192 43.3465 61.2818 43.3465C60.4552 43.3465 59.7266 43.1834 59.0958 42.8571C58.4759 42.52 57.9919 42.0414 57.6439 41.4215C57.3067 40.7907 57.1382 40.0457 57.1382 39.1866C57.1382 38.3274 57.3122 37.5933 57.6602 36.9842C58.0082 36.3643 58.4922 35.8858 59.1121 35.5486C59.7429 35.2006 60.4661 35.0266 61.2818 35.0266C62.1084 35.0266 62.8316 35.2006 63.4515 35.5486C64.0714 35.8858 64.5554 36.3697 64.9034 37.0005C65.2514 37.6205 65.4254 38.3491 65.4254 39.1866ZM61.2818 36.9353C60.7706 36.9353 60.3628 37.131 60.0583 37.5226C59.7646 37.9141 59.6178 38.4688 59.6178 39.1866C59.6178 39.9152 59.7646 40.4753 60.0583 40.8668C60.3519 41.2475 60.7598 41.4378 61.2818 41.4378C61.8038 41.4378 62.2117 41.2421 62.5053 40.8505C62.799 40.459 62.9458 39.9043 62.9458 39.1866C62.9458 38.4796 62.799 37.9304 62.5053 37.5389C62.2117 37.1365 61.8038 36.9353 61.2818 36.9353ZM67.0262 38.795L69.4569 38.844V43.0855C69.3482 43.1181 69.1959 43.1453 69.0002 43.1671C68.8044 43.1997 68.5923 43.216 68.3639 43.216C67.9071 43.216 67.57 43.1344 67.3525 42.9713C67.135 42.8082 67.0262 42.5145 67.0262 42.0904V38.795ZM69.4569 40.1001L67.0262 40.0512V32.4817C67.135 32.4491 67.2872 32.4164 67.483 32.3838C67.6788 32.3512 67.8908 32.3349 68.1192 32.3349C68.5869 32.3349 68.924 32.4164 69.1307 32.5796C69.3482 32.7427 69.4569 33.0418 69.4569 33.4768V40.1001ZM76.5108 41.1605V36.2501H78.9252V41.4705C78.9252 41.7315 78.8708 41.9544 78.762 42.1393C78.6533 42.3133 78.4793 42.471 78.24 42.6124C77.9464 42.8082 77.5603 42.9767 77.0817 43.1181C76.6141 43.2704 76.0703 43.3465 75.4504 43.3465C74.5477 43.3465 73.7646 43.1943 73.1012 42.8897C72.4487 42.5852 71.943 42.1284 71.5841 41.5194C71.236 40.8995 71.062 40.1327 71.062 39.2192C71.062 38.2621 71.2415 37.4791 71.6004 36.87C71.9702 36.2501 72.465 35.7879 73.0849 35.4834C73.7048 35.1789 74.39 35.0266 75.1404 35.0266C75.5319 35.0266 75.88 35.0701 76.1845 35.1571C76.489 35.2441 76.7392 35.3474 76.9349 35.4671V37.4573C76.7827 37.3268 76.5815 37.2072 76.3313 37.0984C76.0812 36.9897 75.793 36.9353 75.4667 36.9353C75.086 36.9353 74.7489 37.0168 74.4553 37.18C74.1616 37.3431 73.9332 37.5933 73.7701 37.9304C73.6069 38.2676 73.5254 38.6971 73.5254 39.2192C73.5254 39.9805 73.694 40.5406 74.0311 40.8995C74.3791 41.2584 74.8468 41.4378 75.4341 41.4378C75.6733 41.4378 75.8854 41.4106 76.0703 41.3563C76.2552 41.291 76.402 41.2257 76.5108 41.1605ZM78.9252 36.7232L76.5108 36.7395V32.4817C76.6086 32.4491 76.7555 32.4164 76.9512 32.3838C77.147 32.3512 77.3591 32.3349 77.5875 32.3349C78.066 32.3349 78.4086 32.4164 78.6152 32.5796C78.8218 32.7427 78.9252 33.0418 78.9252 33.4768V36.7232ZM87.1986 40.8179C87.1986 41.6118 86.8995 42.2372 86.3013 42.694C85.7032 43.1399 84.8331 43.3628 83.6912 43.3628C82.7993 43.3628 82.0652 43.2323 81.4888 42.9713C80.9124 42.7103 80.6242 42.3242 80.6242 41.813C80.6242 41.5846 80.6731 41.3889 80.771 41.2257C80.8689 41.0517 80.994 40.9158 81.1462 40.8179C81.4508 40.9919 81.8042 41.1551 82.2066 41.3073C82.6199 41.4487 83.0876 41.5194 83.6096 41.5194C84.4035 41.5194 84.8005 41.291 84.8005 40.8342C84.8005 40.6385 84.7298 40.4862 84.5884 40.3774C84.447 40.2578 84.2132 40.1708 83.8869 40.1164L83.2017 39.9533C82.3317 39.7684 81.6791 39.4856 81.2441 39.105C80.82 38.7135 80.6079 38.1805 80.6079 37.5063C80.6079 36.745 80.9124 36.1414 81.5214 35.6955C82.1414 35.2387 82.9734 35.0103 84.0174 35.0103C84.5395 35.0103 85.0126 35.0647 85.4367 35.1734C85.8717 35.2713 86.2143 35.429 86.4645 35.6465C86.7146 35.8531 86.8397 36.1142 86.8397 36.4296C86.8397 36.6471 86.7962 36.8374 86.7092 37.0005C86.6222 37.1637 86.508 37.2996 86.3666 37.4084C86.2469 37.3322 86.0621 37.2507 85.8119 37.1637C85.5726 37.0767 85.3062 37.006 85.0126 36.9516C84.7298 36.8972 84.4633 36.87 84.2132 36.87C83.8217 36.87 83.5171 36.9244 83.2996 37.0332C83.0821 37.131 82.9734 37.2887 82.9734 37.5063C82.9734 37.6476 83.0332 37.7727 83.1528 37.8815C83.2833 37.9793 83.5063 38.0609 83.8217 38.1262L84.4742 38.2893C85.4421 38.5068 86.1382 38.8222 86.5623 39.2355C86.9865 39.6379 87.1986 40.1654 87.1986 40.8179ZM99.8847 41.2584L98.9711 42.0904C98.5361 42.5363 98.014 42.8625 97.405 43.0692C96.796 43.2649 96.1869 43.3628 95.5779 43.3628C94.7513 43.3628 94.0444 43.2214 93.4571 42.9387C92.8807 42.645 92.4348 42.2535 92.1194 41.7641C91.8149 41.2638 91.6626 40.7037 91.6626 40.0838C91.6626 39.5291 91.7714 39.0506 91.9889 38.6482C92.2173 38.2458 92.5055 37.9087 92.8535 37.6368C93.2124 37.3649 93.5985 37.1582 94.0118 37.0168L95.1211 38.4851C94.9145 38.5503 94.7187 38.6536 94.5338 38.795C94.3598 38.9255 94.2184 39.0887 94.1097 39.2844C94.0118 39.4693 93.9628 39.6868 93.9628 39.937C93.9628 40.3829 94.1097 40.7527 94.4033 41.0463C94.7078 41.3399 95.1428 41.4868 95.7084 41.4868C95.9368 41.4868 96.2359 41.4378 96.6056 41.3399C96.9754 41.2312 97.3289 41.0028 97.666 40.6548L98.4001 39.5455C98.5415 39.1866 98.6339 38.7787 98.6774 38.3219C98.721 37.8652 98.7427 37.4356 98.7427 37.0332C98.9276 36.957 99.1016 36.9027 99.2647 36.87C99.4279 36.8265 99.591 36.8048 99.7541 36.8048C100.189 36.8048 100.483 36.9298 100.635 37.18C100.787 37.4193 100.863 37.7401 100.863 38.1425C100.863 38.6319 100.782 39.1539 100.619 39.7086C100.467 40.2524 100.222 40.769 99.8847 41.2584ZM100.26 43.3302C99.8792 43.3302 99.504 43.1453 99.1342 42.7755L94.4522 38.0283L94.0118 37.3921C93.6202 36.957 93.3647 36.5818 93.245 36.2664C93.1363 35.951 93.0819 35.6519 93.0819 35.3692C93.0819 34.9233 93.1961 34.5154 93.4245 34.1457C93.6529 33.7759 93.9846 33.4822 94.4196 33.2647C94.8655 33.0472 95.3984 32.9385 96.0183 32.9385C96.6818 32.9385 97.1549 33.0527 97.4376 33.281C97.7313 33.5094 97.8781 33.7976 97.8781 34.1457C97.8781 34.3088 97.84 34.4719 97.7639 34.6351C97.6986 34.7982 97.6008 34.9396 97.4702 35.0592C97.3397 34.994 97.182 34.9396 96.9972 34.8961C96.8231 34.8526 96.6437 34.8308 96.4588 34.8308C96.1434 34.8308 95.8824 34.907 95.6758 35.0592C95.48 35.2006 95.3821 35.4072 95.3821 35.6791C95.3821 35.8858 95.4474 36.0815 95.5779 36.2664C95.7193 36.4404 95.9259 36.658 96.1978 36.919L101.451 42.0904C101.429 42.4493 101.304 42.7483 101.076 42.9876C100.847 43.216 100.575 43.3302 100.26 43.3302ZM109.331 41.9272C109.331 41.5248 109.456 41.1877 109.706 40.9158C109.967 40.633 110.315 40.4916 110.751 40.4916C111.175 40.4916 111.517 40.633 111.778 40.9158C112.039 41.1877 112.17 41.5248 112.17 41.9272C112.17 42.3296 112.039 42.6722 111.778 42.955C111.517 43.2269 111.175 43.3628 110.751 43.3628C110.315 43.3628 109.967 43.2269 109.706 42.955C109.456 42.6722 109.331 42.3296 109.331 41.9272ZM105.759 41.9272C105.759 41.5248 105.884 41.1877 106.134 40.9158C106.395 40.633 106.743 40.4916 107.178 40.4916C107.613 40.4916 107.955 40.633 108.206 40.9158C108.467 41.1877 108.597 41.5248 108.597 41.9272C108.597 42.3296 108.467 42.6722 108.206 42.955C107.955 43.2269 107.613 43.3628 107.178 43.3628C106.743 43.3628 106.395 43.2269 106.134 42.955C105.884 42.6722 105.759 42.3296 105.759 41.9272ZM102.202 41.9272C102.202 41.5248 102.327 41.1877 102.577 40.9158C102.838 40.633 103.181 40.4916 103.605 40.4916C104.04 40.4916 104.383 40.633 104.633 40.9158C104.894 41.1877 105.024 41.5248 105.024 41.9272C105.024 42.3296 104.894 42.6722 104.633 42.955C104.383 43.2269 104.04 43.3628 103.605 43.3628C103.181 43.3628 102.838 43.2269 102.577 42.955C102.327 42.6722 102.202 42.3296 102.202 41.9272Z" fill="#F0F2F5"/>
<path opacity="0.6" d="M21.0049 54.4952C21.0343 54.4952 21.1207 54.4952 21.2643 54.4952C21.4078 54.4952 21.5775 54.4952 21.7733 54.4952C21.9723 54.4952 22.173 54.4968 22.3752 54.5001C22.5808 54.5001 22.7586 54.5017 22.9087 54.505C23.77 54.5213 24.4699 54.6698 25.0082 54.9503C25.5499 55.2277 25.9463 55.6241 26.1975 56.1396C26.452 56.6519 26.5792 57.2701 26.5792 57.9945C26.5792 58.7514 26.4438 59.3958 26.173 59.9276C25.9055 60.4594 25.4944 60.8673 24.9397 61.1511C24.3883 61.4317 23.6868 61.572 22.8353 61.572H21.0049V54.4952ZM22.2137 55.4789V60.5883H22.8549C23.341 60.5883 23.77 60.5051 24.142 60.3387C24.5139 60.1691 24.8043 59.895 25.0131 59.5165C25.2252 59.138 25.3313 58.6323 25.3313 57.9994C25.3313 57.386 25.2334 56.8949 25.0376 56.5262C24.8418 56.1576 24.5613 55.8916 24.1958 55.7285C23.8304 55.5621 23.3932 55.4789 22.8842 55.4789H22.2137ZM29.5663 61.572V54.4952H31.2695L33.1243 59.9031L34.9987 54.4952H36.6921V61.572H35.4833V56.0221L33.6186 61.572H32.6251L30.7752 56.0564V61.572H29.5663ZM42.5844 61.6699C42.2418 61.6699 41.9074 61.6275 41.5811 61.5427C41.2549 61.4546 40.958 61.3257 40.6904 61.156C40.4261 60.9831 40.2059 60.7694 40.0297 60.5149C39.8535 60.2571 39.7459 59.957 39.7067 59.6144H40.94C40.9922 59.8526 41.095 60.0532 41.2483 60.2164C41.4017 60.3795 41.5926 60.5035 41.821 60.5883C42.0526 60.6731 42.3055 60.7156 42.5795 60.7156C42.8732 60.7156 43.1375 60.6764 43.3724 60.5981C43.6105 60.5198 43.7982 60.4056 43.9352 60.2555C44.0755 60.1054 44.1456 59.9211 44.1456 59.7025C44.1456 59.51 44.0951 59.3469 43.9939 59.2131C43.8928 59.0793 43.7508 58.97 43.5681 58.8852C43.3887 58.7971 43.1782 58.7269 42.9368 58.6747L41.635 58.3909C41.1097 58.2832 40.6937 58.0744 40.387 57.7644C40.0803 57.4545 39.9237 57.0417 39.9172 56.5262C39.9139 56.0988 40.0265 55.7269 40.2548 55.4104C40.4865 55.0906 40.8014 54.8443 41.1994 54.6714C41.5975 54.4952 42.0477 54.4071 42.5502 54.4071C43.1375 54.4071 43.6318 54.5034 44.0331 54.6959C44.4376 54.8851 44.7427 55.1396 44.9483 55.4593C45.1571 55.7791 45.2631 56.1298 45.2664 56.5116H44.0624C44.0331 56.231 43.9482 56.0075 43.8079 55.8411C43.6709 55.6747 43.4947 55.5556 43.2794 55.4838C43.064 55.412 42.8259 55.3761 42.5648 55.3761C42.3691 55.3761 42.1864 55.399 42.0167 55.4446C41.8471 55.4903 41.6986 55.5572 41.5714 55.6453C41.4441 55.7334 41.3446 55.8411 41.2728 55.9683C41.2043 56.0923 41.17 56.2342 41.17 56.3941C41.17 56.6225 41.2451 56.8085 41.3952 56.952C41.5485 57.0923 41.834 57.2114 42.2516 57.3093L43.5241 57.5931C43.9189 57.6714 44.237 57.7889 44.4784 57.9455C44.7199 58.1021 44.9042 58.2816 45.0315 58.4839C45.1587 58.6829 45.2435 58.8868 45.286 59.0956C45.3284 59.3044 45.3496 59.5035 45.3496 59.6927C45.3496 60.0614 45.2354 60.3958 45.007 60.696C44.7819 60.9962 44.4621 61.2343 44.0478 61.4105C43.6367 61.5834 43.1489 61.6699 42.5844 61.6699Z" fill="#E5E8EF"/>
<g clipPath="url(#clip0_2342_139199)">
<g clipPath="url(#clip1_2342_139199)">
<path d="M166.805 48.7574V48.534H167.109V42.6292H166.805V42.4058H169.195C171.024 42.4058 171.312 43.3633 171.312 43.7942C171.312 45.039 170.222 45.2784 169.323 45.3582V45.3741C170.414 45.6454 171.168 46.0444 171.072 47.5445C171.04 48.0073 171.104 48.4223 171.312 48.518C171.489 48.6457 171.842 48.5819 172.163 48.4701V48.7095C171.842 48.8212 171.553 48.8851 171.312 48.8851C170.639 48.901 170.254 48.534 170.125 48.0871C170.077 47.9116 170.013 47.1456 169.949 46.571C169.901 46.1401 169.821 45.422 168.617 45.422H168.04V48.518H168.794V48.7415L166.805 48.7574ZM168.04 45.2145H168.553C169.596 45.2145 170.27 45.1347 170.27 43.8261C170.27 42.9005 169.869 42.6132 168.954 42.6132H168.056L168.04 45.2145Z" fill="white"/>
<path d="M175.562 47.5767C175.37 48.4544 174.728 48.8694 173.878 48.8694C172.899 48.8694 171.969 48.0874 171.969 47.0341C171.969 45.917 172.707 44.8796 173.846 44.8796C174.824 44.8796 175.562 45.534 175.562 46.5713H172.867V46.9543C172.867 47.8959 172.995 48.6619 174.038 48.6619C174.584 48.6619 175.225 48.1831 175.354 47.5607H175.562V47.5767ZM174.696 46.3159V45.9968C174.696 45.3105 174.295 45.1031 173.814 45.1031C173.236 45.1031 172.979 45.6297 172.963 45.7095C172.899 45.8851 172.883 46.0925 172.867 46.3319L174.696 46.3159Z" fill="white"/>
<path d="M178.847 45.2146L177.323 49.3959C176.987 50.3055 176.714 50.912 176.104 50.912C175.896 50.912 175.639 50.7205 175.639 50.497C175.639 50.2417 175.816 50.0821 176.024 50.0821C176.409 50.0821 176.409 50.4332 176.521 50.4332C176.666 50.4332 176.762 50.1938 176.89 49.8587C176.971 49.6831 177.083 49.4278 177.307 48.7575L175.848 45.2146H175.398V44.9912H177.227V45.2146H176.618L177.676 47.7681L178.575 45.2146H177.965V44.9912H179.313V45.2146H178.847Z" fill="white"/>
<path d="M180.244 45.2147H179.715V44.9913H179.923C180.1 44.9913 180.292 44.9913 180.453 44.9753C180.629 44.9593 180.822 44.9434 180.982 44.8955V45.9009H180.998C181.271 45.2945 181.64 44.8955 182.33 44.8955C182.667 44.8955 183.469 44.9753 183.469 45.8371V48.5182H183.982V48.7416H182.249V48.5182H182.747V45.9648C182.747 45.2626 182.522 45.1668 182.137 45.1668C181.479 45.1668 180.998 46.0446 180.998 46.7627V48.5341H181.512V48.7576H179.731V48.5341H180.26L180.244 45.2147Z" fill="white"/>
<path d="M187.69 46.8744C187.69 48.0235 186.855 48.8693 185.845 48.8693C184.85 48.8693 184 48.0235 184 46.8744C184 45.7254 184.834 44.8955 185.845 44.8955C186.855 44.8955 187.69 45.7254 187.69 46.8744ZM184.866 46.8744C184.866 47.6724 184.882 48.6778 185.845 48.6778C186.807 48.6778 186.823 47.6724 186.823 46.8744C186.823 46.0924 186.807 45.087 185.845 45.087C184.882 45.087 184.866 46.0924 184.866 46.8744Z" fill="white"/>
<path d="M187.527 48.7575V48.534H188.265V42.4377H187.527V42.2143H187.944C188.297 42.2143 188.666 42.1984 189.019 42.1345V48.55H189.757V48.7734H187.527V48.7575Z" fill="white"/>
<path d="M193.863 48.5341V48.7576C193.446 48.7576 193.029 48.7735 192.612 48.8374V48.199H192.596C192.323 48.6618 191.89 48.8852 191.345 48.8852C190.382 48.8852 189.66 47.9596 189.66 46.8744C189.66 45.8052 190.302 44.8955 191.441 44.8955C191.746 44.8955 192.291 45.0391 192.58 45.6137H192.596V42.4219H191.954V42.1984H192.275C192.628 42.1984 192.997 42.1825 193.35 42.1187V48.5341H193.863ZM191.441 45.087C190.558 45.087 190.526 46.0605 190.526 46.7308C190.526 48.199 190.703 48.6778 191.489 48.6778C191.73 48.6778 192.018 48.5182 192.147 48.4224C192.516 48.1032 192.628 47.9117 192.628 46.9223C192.628 46.7148 192.612 46.268 192.564 46.0924C192.516 45.9488 192.307 45.087 191.441 45.087Z" fill="white"/>
<path d="M196.784 44.9912V46.0604H196.575C196.431 45.5019 196.11 45.1188 195.532 45.0869C194.746 45.071 194.634 45.6614 194.634 45.7891C194.634 46.0604 194.714 46.204 196.174 46.5073C196.912 46.6669 197.169 46.986 197.169 47.5925C197.169 48.4064 196.543 48.8851 195.789 48.8851C195.388 48.8851 194.971 48.7256 194.698 48.4223L194.49 48.7575H194.281V47.5127H194.506C194.682 48.1989 195.164 48.6936 195.853 48.6936C196.286 48.6936 196.784 48.3745 196.784 47.8797C196.784 47.5127 196.254 47.3371 195.468 47.1456C194.843 46.986 194.281 46.9062 194.281 46.0764C194.281 45.6774 194.522 44.9114 195.565 44.9114C195.853 44.9114 196.158 45.0231 196.447 45.2625L196.623 45.0071L196.784 44.9912Z" fill="white"/>
<path d="M205.43 48.7574V48.534H206.168V42.6292H205.43V42.4058H208.237C210.066 42.4058 210.354 43.3633 210.354 43.7942C210.354 45.039 209.264 45.2784 208.365 45.3582V45.3741C209.456 45.6454 210.21 46.0444 210.114 47.5445C210.082 48.0073 210.146 48.4223 210.354 48.518C210.531 48.6457 210.884 48.5819 211.205 48.4701V48.7095C210.884 48.8212 210.595 48.8851 210.354 48.8851C209.681 48.901 209.296 48.534 209.167 48.0871C209.119 47.9116 209.055 47.1456 208.991 46.571C208.943 46.1401 208.863 45.422 207.659 45.422H207.082V48.518H207.836V48.7415L205.43 48.7574ZM207.082 45.2305H207.595C208.638 45.2305 209.312 45.1507 209.312 43.8421C209.312 42.9164 208.911 42.6292 207.996 42.6292H207.098L207.082 45.2305Z" fill="white"/>
<path d="M214.609 47.5767C214.416 48.4544 213.775 48.8694 212.925 48.8694C211.946 48.8694 211.016 48.0874 211.016 47.0341C211.016 45.917 211.754 44.8796 212.893 44.8796C213.871 44.8796 214.609 45.534 214.609 46.5713H211.914V46.9543C211.914 47.8959 212.042 48.6619 213.085 48.6619C213.63 48.6619 214.272 48.1831 214.4 47.5607H214.609V47.5767ZM213.743 46.3159V45.9968C213.743 45.3105 213.342 45.1031 212.86 45.1031C212.283 45.1031 212.026 45.6297 212.01 45.7095C211.946 45.8851 211.93 46.0925 211.914 46.3319L213.743 46.3159Z" fill="white"/>
<path d="M217.894 45.2146L216.37 49.3959C216.033 50.3055 215.761 50.912 215.151 50.912C214.943 50.912 214.686 50.7205 214.686 50.497C214.686 50.2417 214.862 50.0821 215.071 50.0821C215.456 50.0821 215.456 50.4332 215.568 50.4332C215.713 50.4332 215.809 50.1938 215.937 49.8587C216.017 49.6831 216.13 49.4278 216.354 48.7575L214.894 45.2146H214.445V44.9912H216.274V45.2146H215.664L216.723 47.7681L217.622 45.2146H217.012V44.9912H218.359V45.2146H217.894Z" fill="white"/>
<path d="M219.291 45.2147H218.762V44.9913H218.97C219.147 44.9913 219.339 44.9913 219.5 44.9753C219.676 44.9593 219.869 44.9434 220.029 44.8955V45.9009H220.045C220.318 45.2945 220.687 44.8955 221.377 44.8955C221.713 44.8955 222.515 44.9753 222.515 45.8371V48.5182H223.029V48.7416H221.28V48.5182H221.778V45.9488C221.778 45.2466 221.553 45.1509 221.168 45.1509C220.51 45.1509 220.029 46.0286 220.029 46.7467V48.5182H220.542V48.7416H218.762V48.5182H219.291V45.2147Z" fill="white"/>
<path d="M226.736 46.8903C226.736 48.0393 225.902 48.8851 224.892 48.8851C223.881 48.8851 223.047 48.0393 223.047 46.8903C223.047 45.7412 223.881 44.9114 224.892 44.9114C225.886 44.9114 226.736 45.7412 226.736 46.8903ZM223.913 46.8903C223.913 47.6882 223.929 48.6936 224.892 48.6936C225.854 48.6936 225.87 47.6882 225.87 46.8903C225.87 46.1083 225.854 45.1029 224.892 45.1029C223.929 45.1029 223.913 46.1083 223.913 46.8903Z" fill="white"/>
<path d="M226.574 48.7575V48.534H227.312V42.4377H226.574V42.2143H226.991C227.344 42.2143 227.713 42.1984 228.066 42.1345V48.55H228.804V48.7734H226.574V48.7575Z" fill="white"/>
<path d="M232.91 48.5341V48.7576C232.493 48.7576 232.076 48.7735 231.659 48.8374V48.199H231.643C231.37 48.6618 230.937 48.8852 230.391 48.8852C229.429 48.8852 228.707 47.9596 228.707 46.8744C228.707 45.8052 229.349 44.8955 230.488 44.8955C230.792 44.8955 231.338 45.0391 231.627 45.6137H231.643V42.4219H231.001V42.1984H231.322C231.675 42.1984 232.044 42.1825 232.397 42.1187V48.5341H232.91ZM230.488 45.103C229.605 45.103 229.573 46.0765 229.573 46.7467C229.573 48.215 229.75 48.6937 230.536 48.6937C230.776 48.6937 231.065 48.5341 231.193 48.4384C231.562 48.1192 231.675 47.9277 231.675 46.9382C231.675 46.7308 231.659 46.2839 231.611 46.1084C231.578 45.9488 231.354 45.103 230.488 45.103Z" fill="white"/>
<path d="M235.827 45.007V46.0763H235.618C235.474 45.5177 235.153 45.1347 234.575 45.1028C233.789 45.0868 233.677 45.6773 233.677 45.805C233.677 46.0763 233.757 46.2199 235.217 46.5231C235.955 46.6827 236.212 47.0019 236.212 47.6083C236.212 48.4222 235.586 48.901 234.832 48.901C234.431 48.901 234.014 48.7414 233.741 48.4382L233.533 48.7733H233.324V47.5285H233.549C233.725 48.2148 234.207 48.7095 234.896 48.7095C235.329 48.7095 235.827 48.3903 235.827 47.8956C235.827 47.5286 235.297 47.353 234.511 47.1615C233.886 47.0019 233.324 46.9221 233.324 46.0922C233.324 45.6933 233.565 44.9272 234.608 44.9272C234.896 44.9272 235.201 45.039 235.49 45.2783L235.666 45.023L235.827 45.007Z" fill="white"/>
<path d="M202.335 47.3691C202.736 46.651 202.913 45.9488 202.945 45.1189H202.335V44.8955H203.667V45.1189H203.089C203.041 45.9967 202.865 46.9063 202.415 47.5766L202.832 48.5501H203.426V48.7735H202.191L201.95 48.2309C201.613 48.6458 201.068 48.9171 200.635 48.9171C199.56 48.9171 199.207 47.8319 199.207 46.9382C199.207 46.3637 199.48 45.5179 200.538 44.9274C200.362 44.4965 200.153 44.0337 200.153 43.539C200.153 42.6932 200.699 42.2942 201.228 42.2942C201.726 42.2942 202.255 42.7091 202.255 43.4751C202.255 43.8262 202.127 44.3529 201.228 44.8317L202.335 47.3691ZM201.758 43.3315C201.758 42.8687 201.565 42.5017 201.228 42.5017C200.923 42.5017 200.651 42.773 200.651 43.2517C200.651 43.6667 200.972 44.305 201.132 44.6401C201.613 44.3529 201.758 44.0497 201.758 43.3315ZM200.619 45.1189C200.218 45.3423 199.817 45.6456 199.817 46.3478C199.817 47.1297 200.282 48.5501 200.907 48.5501C201.276 48.5501 201.549 48.3267 201.854 48.0234L200.619 45.1189Z" fill="white"/>
<path d="M236.855 47.5287C236.855 46.7786 237.449 46.1562 238.203 46.1562C238.957 46.1562 239.567 46.7467 239.567 47.5128C239.567 48.2788 238.957 48.8852 238.203 48.8852C237.465 48.8852 236.855 48.2628 236.855 47.5287ZM239.422 47.5287C239.422 46.8425 238.893 46.2999 238.203 46.2999C237.529 46.2999 236.984 46.8425 236.984 47.5287C236.984 48.183 237.529 48.7416 238.187 48.7416C238.861 48.7416 239.422 48.215 239.422 47.5287ZM238.01 48.1671H238.267V48.215H237.433V48.1671H237.69V46.8106H237.433V46.7627H238.283C238.556 46.7627 238.893 46.7787 238.893 47.0978C238.893 47.3532 238.588 47.433 238.347 47.4489C238.748 47.4968 238.829 47.6883 238.829 48.0394C238.829 48.1192 238.845 48.199 239.085 48.1671V48.215C239.021 48.2309 238.941 48.2469 238.861 48.2469C238.604 48.2469 238.476 48.1352 238.476 47.9117C238.476 47.5606 238.412 47.4649 237.994 47.4649L238.01 48.1671ZM238.01 47.401C238.299 47.401 238.54 47.433 238.54 47.1138C238.54 46.7627 238.331 46.8265 238.01 46.8106V47.401Z" fill="white"/>
<path d="M143.429 43.124H153.679C153.727 43.2357 153.84 43.3315 153.968 43.3315H161.299C161.476 43.3315 161.62 43.1878 161.62 43.0123C161.62 42.8367 161.476 42.6931 161.299 42.6931H153.968C153.84 42.6931 153.727 42.7729 153.679 42.9006H143.429C143.365 42.9006 143.316 42.9485 143.316 43.0123C143.316 43.0761 143.365 43.124 143.429 43.124Z" fill="white"/>
<path d="M143.429 44.5442H152.925C152.973 44.6559 153.086 44.7517 153.214 44.7517H160.561C160.738 44.7517 160.882 44.6081 160.882 44.4485C160.882 44.2729 160.738 44.1453 160.561 44.1453H153.214C153.086 44.1453 152.973 44.2251 152.925 44.3527H143.429C143.365 44.3527 143.316 44.4006 143.316 44.4644C143.316 44.4964 143.365 44.5442 143.429 44.5442Z" fill="white"/>
<path d="M143.429 45.9488H151.578C151.626 46.0605 151.738 46.1562 151.867 46.1562H159.214C159.39 46.1562 159.518 46.0126 159.518 45.853C159.518 45.6775 159.374 45.5498 159.214 45.5498H151.867C151.738 45.5498 151.626 45.6296 151.578 45.7573H143.429C143.365 45.7573 143.316 45.8051 143.316 45.869C143.316 45.9009 143.365 45.9488 143.429 45.9488Z" fill="white"/>
<path d="M143.429 47.2891H152.492C152.54 47.4008 152.653 47.4966 152.781 47.4966H160.112C160.288 47.4966 160.433 47.3529 160.433 47.1934C160.433 47.0178 160.288 46.8901 160.112 46.8901H152.781C152.653 46.8901 152.54 46.9699 152.492 47.0976H143.429C143.365 47.0976 143.316 47.1455 143.316 47.2093C143.316 47.2412 143.365 47.2891 143.429 47.2891Z" fill="white"/>
<path d="M143.429 48.6776H153.471C153.519 48.7893 153.631 48.8851 153.76 48.8851H161.107C161.283 48.8851 161.427 48.7415 161.427 48.5819C161.427 48.4063 161.283 48.2627 161.107 48.2627H153.76C153.631 48.2627 153.519 48.3425 153.471 48.4702H143.429C143.365 48.4702 143.316 48.518 143.316 48.5819C143.316 48.6298 143.365 48.6776 143.429 48.6776Z" fill="white"/>
<path d="M143.429 50.098H153.599C153.647 50.2098 153.76 50.3055 153.888 50.3055H161.235C161.411 50.3055 161.54 50.1619 161.54 49.9863C161.54 49.8108 161.395 49.6831 161.235 49.6831H153.872C153.743 49.6831 153.631 49.7629 153.583 49.8906H143.429C143.365 49.8906 143.316 49.9384 143.316 50.0023C143.316 50.0502 143.365 50.098 143.429 50.098Z" fill="white"/>
<path d="M143.429 51.5502H153.743C153.792 51.6619 153.904 51.7577 154.032 51.7577H161.379C161.556 51.7577 161.684 51.614 161.684 51.4544C161.684 51.2789 161.54 51.1353 161.379 51.1353H154.032C153.904 51.1353 153.792 51.215 153.743 51.3427H143.429C143.365 51.3427 143.316 51.3906 143.316 51.4544C143.316 51.4864 143.365 51.5502 143.429 51.5502Z" fill="white"/>
<path d="M162.069 52.5396H154.722C154.594 52.5396 154.481 52.6193 154.433 52.747H143.429C143.365 52.747 143.316 52.7949 143.316 52.8587C143.316 52.9226 143.365 52.9704 143.429 52.9704H154.433C154.481 53.0822 154.594 53.1779 154.722 53.1779H162.069C162.246 53.1779 162.39 53.0343 162.39 52.8747C162.374 52.6832 162.246 52.5396 162.069 52.5396Z" fill="white"/>
<path d="M143.429 38.9267H150.599C150.647 39.0385 150.76 39.1183 150.888 39.1183H158.38C158.556 39.1183 158.684 38.9746 158.684 38.815C158.684 38.6395 158.54 38.4958 158.38 38.4958H150.872C150.744 38.4958 150.631 38.5756 150.583 38.7033H143.429C143.365 38.7033 143.316 38.7512 143.316 38.815C143.316 38.8789 143.365 38.9267 143.429 38.9267Z" fill="white"/>
<path d="M143.429 40.2514H152.572C152.621 40.3631 152.733 40.4588 152.861 40.4588H159.807C159.984 40.4588 160.112 40.3152 160.112 40.1396C160.112 39.9641 159.968 39.8364 159.807 39.8364H152.845C152.717 39.8364 152.605 39.9162 152.556 40.0439H143.429C143.365 40.0439 143.316 40.0918 143.316 40.1556C143.316 40.2035 143.365 40.2514 143.429 40.2514Z" fill="white"/>
<path d="M143.429 41.6875H153.503C153.551 41.7993 153.663 41.895 153.792 41.895H160.882C161.058 41.895 161.203 41.7514 161.203 41.5918C161.203 41.4162 161.058 41.2886 160.882 41.2886H153.792C153.663 41.2886 153.551 41.3684 153.503 41.496H143.429C143.365 41.496 143.316 41.5439 143.316 41.6078C143.316 41.6397 143.365 41.6875 143.429 41.6875Z" fill="white"/>
</g>
</g>
<path d="M232.97 19.4885C232.294 19.4885 231.746 20.0363 231.746 20.712C231.746 21.3878 232.294 21.9356 232.97 21.9356C233.645 21.9356 234.193 21.3878 234.193 20.712C234.193 20.0363 233.645 19.4885 232.97 19.4885Z" fill="white"/>
<path d="M236.64 20.712C236.64 20.0363 237.188 19.4885 237.864 19.4885C238.539 19.4885 239.087 20.0363 239.087 20.712C239.087 21.3878 238.539 21.9356 237.864 21.9356C237.188 21.9356 236.64 21.3878 236.64 20.712Z" fill="white"/>
<path d="M241.534 20.712C241.534 20.0363 242.082 19.4885 242.758 19.4885C243.433 19.4885 243.981 20.0363 243.981 20.712C243.981 21.3878 243.433 21.9356 242.758 21.9356C242.082 21.9356 241.534 21.3878 241.534 20.712Z" fill="white"/>
<rect x="20.9648" y="72.9131" width="167.214" height="36.3136" rx="4.07839" fill="#6043DD"/>
<path d="M71.7846 88.0175C71.7846 88.1621 71.7427 88.2916 71.659 88.4058C71.5829 88.5123 71.4915 88.5961 71.3849 88.657C71.1946 88.5276 70.9738 88.4096 70.7226 88.303C70.4714 88.1964 70.163 88.1431 69.7976 88.1431C69.3713 88.1431 68.9944 88.2383 68.6671 88.4286C68.3473 88.6113 68.0961 88.8892 67.9134 89.2622C67.7383 89.6276 67.6508 90.0768 67.6508 90.6097C67.6508 91.4167 67.8525 92.0295 68.256 92.4483C68.6595 92.8594 69.1962 93.0649 69.8661 93.0649C70.2239 93.0649 70.5323 93.0154 70.7911 92.9165C71.05 92.8175 71.2745 92.7033 71.4649 92.5739C71.5638 92.6348 71.6476 92.7261 71.7161 92.8479C71.7922 92.9621 71.8303 93.0916 71.8303 93.2362C71.8303 93.3656 71.796 93.4836 71.7275 93.5902C71.6666 93.6968 71.5562 93.7919 71.3963 93.8757C71.2365 93.967 71.0157 94.0508 70.734 94.1269C70.4599 94.2031 70.1136 94.2411 69.6948 94.2411C69.0401 94.2411 68.4425 94.1117 67.902 93.8529C67.3691 93.5864 66.9466 93.1867 66.6344 92.6538C66.3223 92.1133 66.1662 91.4319 66.1662 90.6097C66.1662 89.8104 66.3223 89.1404 66.6344 88.5999C66.9466 88.0594 67.3653 87.6521 67.8906 87.378C68.4159 87.0963 68.9906 86.9555 69.6149 86.9555C70.0565 86.9555 70.4371 87.005 70.7569 87.1039C71.0842 87.2029 71.3354 87.3323 71.5105 87.4922C71.6933 87.6521 71.7846 87.8272 71.7846 88.0175ZM78.083 91.3634C78.083 91.9496 77.9688 92.4597 77.7404 92.8936C77.512 93.3199 77.1885 93.6511 76.7698 93.8871C76.3587 94.1155 75.8714 94.2297 75.3081 94.2297C74.7447 94.2297 74.2537 94.1155 73.8349 93.8871C73.4162 93.6511 73.0889 93.3199 72.8529 92.8936C72.6245 92.4673 72.5103 91.9572 72.5103 91.3634C72.5103 90.7772 72.6283 90.2709 72.8643 89.8446C73.1003 89.4183 73.4276 89.0909 73.8464 88.8625C74.2651 88.6265 74.7523 88.5085 75.3081 88.5085C75.8638 88.5085 76.3472 88.6265 76.7583 88.8625C77.177 89.0909 77.5006 89.4221 77.729 89.856C77.965 90.2824 78.083 90.7848 78.083 91.3634ZM75.3081 89.6276C74.8893 89.6276 74.5582 89.7799 74.3146 90.0844C74.0786 90.3889 73.9606 90.8153 73.9606 91.3634C73.9606 91.9268 74.0786 92.3607 74.3146 92.6652C74.5506 92.9621 74.8817 93.1106 75.3081 93.1106C75.7268 93.1106 76.0541 92.9583 76.2901 92.6538C76.5261 92.3493 76.6441 91.9192 76.6441 91.3634C76.6441 90.8229 76.5261 90.4004 76.2901 90.0958C76.0541 89.7837 75.7268 89.6276 75.3081 89.6276ZM84.2762 90.5412V91.6489H82.8716V90.5983C82.8716 90.2633 82.7764 90.0197 82.5861 89.8675C82.3958 89.7076 82.1408 89.6276 81.821 89.6276C81.585 89.6276 81.3718 89.6581 81.1815 89.719C80.9988 89.7723 80.8351 89.837 80.6905 89.9131V91.6489H79.2859V89.8218C79.2859 89.6391 79.3239 89.4906 79.4001 89.3764C79.4762 89.2546 79.5904 89.1442 79.7427 89.0452C79.971 88.893 80.2641 88.7674 80.622 88.6684C80.9874 88.5618 81.3909 88.5085 81.8324 88.5085C82.6013 88.5085 83.199 88.6798 83.6253 89.0224C84.0592 89.365 84.2762 89.8713 84.2762 90.5412ZM79.2859 91.0893H80.6905V94.047C80.6296 94.0698 80.542 94.0889 80.4278 94.1041C80.3136 94.1269 80.188 94.1383 80.051 94.1383C79.7921 94.1383 79.598 94.0927 79.4686 94.0013C79.3468 93.9023 79.2859 93.731 79.2859 93.4874V91.0893ZM82.8716 91.0893H84.2762V94.047C84.2229 94.0698 84.1354 94.0889 84.0135 94.1041C83.8994 94.1269 83.7775 94.1383 83.6481 94.1383C83.3817 94.1383 83.1837 94.0927 83.0543 94.0013C82.9325 93.9023 82.8716 93.731 82.8716 93.4874V91.0893ZM90.7443 90.5412V91.6489H89.3397V90.5983C89.3397 90.2633 89.2445 90.0197 89.0542 89.8675C88.8639 89.7076 88.6088 89.6276 88.2891 89.6276C88.0531 89.6276 87.8399 89.6581 87.6496 89.719C87.4669 89.7723 87.3032 89.837 87.1585 89.9131V91.6489H85.7539V89.8218C85.7539 89.6391 85.792 89.4906 85.8681 89.3764C85.9443 89.2546 86.0585 89.1442 86.2107 89.0452C86.4391 88.893 86.7322 88.7674 87.09 88.6684C87.4555 88.5618 87.8589 88.5085 88.3005 88.5085C89.0694 88.5085 89.667 88.6798 90.0934 89.0224C90.5273 89.365 90.7443 89.8713 90.7443 90.5412ZM85.7539 91.0893H87.1585V94.047C87.0976 94.0698 87.0101 94.0889 86.8959 94.1041C86.7817 94.1269 86.6561 94.1383 86.5191 94.1383C86.2602 94.1383 86.0661 94.0927 85.9367 94.0013C85.8149 93.9023 85.7539 93.731 85.7539 93.4874V91.0893ZM89.3397 91.0893H90.7443V94.047C90.691 94.0698 90.6034 94.0889 90.4816 94.1041C90.3674 94.1269 90.2456 94.1383 90.1162 94.1383C89.8497 94.1383 89.6518 94.0927 89.5224 94.0013C89.4006 93.9023 89.3397 93.731 89.3397 93.4874V91.0893ZM92.8387 92.0828L92.7816 91.1008L95.842 90.644C95.8192 90.3547 95.7088 90.1035 95.5108 89.8903C95.3129 89.6771 95.0236 89.5705 94.643 89.5705C94.2547 89.5705 93.9311 89.7076 93.6723 89.9816C93.4135 90.2481 93.2802 90.6326 93.2726 91.135L93.3069 91.7288C93.3754 92.2161 93.5619 92.5739 93.8664 92.8023C94.1786 93.0307 94.5706 93.1448 95.0426 93.1448C95.3624 93.1448 95.6593 93.0992 95.9334 93.0078C96.2074 92.9088 96.4244 92.8023 96.5843 92.6881C96.6908 92.7566 96.7746 92.8441 96.8355 92.9507C96.904 93.0497 96.9383 93.1601 96.9383 93.2819C96.9383 93.4798 96.8507 93.6511 96.6756 93.7958C96.5005 93.9328 96.2645 94.0394 95.9676 94.1155C95.6707 94.1916 95.3319 94.2297 94.9513 94.2297C94.3651 94.2297 93.8436 94.1231 93.3868 93.91C92.9376 93.6892 92.5836 93.3618 92.3248 92.9279C92.0736 92.4939 91.948 91.9534 91.948 91.3063C91.948 90.8419 92.0203 90.4346 92.1649 90.0844C92.3096 89.7342 92.5037 89.4449 92.7473 89.2165C92.9985 88.9805 93.2878 88.8054 93.6152 88.6912C93.9426 88.5694 94.2851 88.5085 94.643 88.5085C95.1454 88.5085 95.5832 88.6113 95.9562 88.8169C96.3368 89.0148 96.6338 89.2927 96.8469 89.6505C97.0677 90.0083 97.1781 90.4194 97.1781 90.8838C97.1781 91.0969 97.121 91.2568 97.0068 91.3634C96.9002 91.4624 96.7479 91.5233 96.55 91.5461L92.8387 92.0828ZM101.086 89.6391C100.629 89.6391 100.245 89.7875 99.9325 90.0844C99.628 90.3813 99.4757 90.8153 99.4757 91.3862C99.4757 91.9496 99.6242 92.3759 99.9211 92.6652C100.218 92.9545 100.602 93.0992 101.074 93.0992C101.356 93.0992 101.592 93.0649 101.782 92.9964C101.98 92.9203 102.152 92.8403 102.296 92.7566C102.411 92.8251 102.498 92.9088 102.559 93.0078C102.627 93.0992 102.662 93.2134 102.662 93.3504C102.662 93.6092 102.506 93.8224 102.194 93.9899C101.881 94.1498 101.47 94.2297 100.96 94.2297C100.382 94.2297 99.8716 94.1269 99.43 93.9214C98.9961 93.7082 98.6535 93.3885 98.4023 92.9621C98.1587 92.5358 98.0369 92.0105 98.0369 91.3862C98.0369 90.7391 98.1663 90.2024 98.4251 89.7761C98.6916 89.3498 99.0418 89.0338 99.4757 88.8283C99.9173 88.6151 100.401 88.5085 100.926 88.5085C101.428 88.5085 101.832 88.5961 102.136 88.7712C102.441 88.9463 102.593 89.1632 102.593 89.4221C102.593 89.5363 102.563 89.6429 102.502 89.7418C102.441 89.8408 102.369 89.9207 102.285 89.9816C102.133 89.8903 101.961 89.8104 101.771 89.7418C101.581 89.6733 101.352 89.6391 101.086 89.6391ZM103.843 91.0551H105.247V92.4026C105.247 92.6538 105.319 92.8327 105.464 92.9393C105.616 93.0459 105.83 93.0992 106.104 93.0992C106.225 93.0992 106.355 93.0839 106.492 93.0535C106.636 93.023 106.758 92.985 106.857 92.9393C106.911 93.0002 106.96 93.0725 107.006 93.1563C107.051 93.24 107.074 93.3428 107.074 93.4646C107.074 93.6854 106.968 93.8681 106.754 94.0127C106.549 94.1574 106.225 94.2297 105.784 94.2297C105.182 94.2297 104.707 94.0965 104.356 93.83C104.014 93.5559 103.843 93.1144 103.843 92.5054V91.0551ZM104.699 89.8903V88.7826H106.937C106.968 88.8359 106.998 88.912 107.029 89.011C107.067 89.11 107.086 89.2127 107.086 89.3193C107.086 89.5096 107.04 89.6543 106.949 89.7533C106.857 89.8446 106.739 89.8903 106.595 89.8903H104.699ZM105.247 91.3634H103.843V87.2524C103.903 87.2295 103.991 87.2067 104.105 87.1839C104.227 87.161 104.353 87.1496 104.482 87.1496C104.748 87.1496 104.943 87.1991 105.064 87.2981C105.186 87.3894 105.247 87.5569 105.247 87.8005V91.3634ZM108.719 92.0828L108.662 91.1008L111.722 90.644C111.699 90.3547 111.589 90.1035 111.391 89.8903C111.193 89.6771 110.904 89.5705 110.523 89.5705C110.135 89.5705 109.811 89.7076 109.553 89.9816C109.294 90.2481 109.16 90.6326 109.153 91.135L109.187 91.7288C109.256 92.2161 109.442 92.5739 109.747 92.8023C110.059 93.0307 110.451 93.1448 110.923 93.1448C111.243 93.1448 111.54 93.0992 111.814 93.0078C112.088 92.9088 112.305 92.8023 112.464 92.6881C112.571 92.7566 112.655 92.8441 112.716 92.9507C112.784 93.0497 112.819 93.1601 112.819 93.2819C112.819 93.4798 112.731 93.6511 112.556 93.7958C112.381 93.9328 112.145 94.0394 111.848 94.1155C111.551 94.1916 111.212 94.2297 110.832 94.2297C110.245 94.2297 109.724 94.1231 109.267 93.91C108.818 93.6892 108.464 93.3618 108.205 92.9279C107.954 92.4939 107.828 91.9534 107.828 91.3063C107.828 90.8419 107.901 90.4346 108.045 90.0844C108.19 89.7342 108.384 89.4449 108.628 89.2165C108.879 88.9805 109.168 88.8054 109.495 88.6912C109.823 88.5694 110.165 88.5085 110.523 88.5085C111.026 88.5085 111.463 88.6113 111.836 88.8169C112.217 89.0148 112.514 89.2927 112.727 89.6505C112.948 90.0083 113.058 90.4194 113.058 90.8838C113.058 91.0969 113.001 91.2568 112.887 91.3634C112.78 91.4624 112.628 91.5233 112.43 91.5461L108.719 92.0828ZM117.765 92.8822V89.2965H119.17V93.0307C119.17 93.1981 119.132 93.339 119.056 93.4532C118.987 93.5598 118.873 93.6625 118.713 93.7615C118.531 93.8833 118.279 93.9899 117.96 94.0812C117.647 94.1802 117.29 94.2297 116.886 94.2297C116.285 94.2297 115.759 94.1307 115.31 93.9328C114.869 93.7272 114.526 93.4151 114.283 92.9964C114.039 92.5701 113.917 92.0333 113.917 91.3862C113.917 90.7239 114.039 90.1796 114.283 89.7533C114.534 89.3269 114.869 89.0148 115.287 88.8169C115.706 88.6113 116.171 88.5085 116.681 88.5085C116.962 88.5085 117.217 88.5428 117.446 88.6113C117.682 88.6798 117.872 88.7598 118.017 88.8511V90.0502C117.895 89.936 117.735 89.837 117.537 89.7533C117.339 89.6695 117.111 89.6276 116.852 89.6276C116.57 89.6276 116.315 89.6885 116.087 89.8104C115.858 89.9245 115.679 90.1149 115.55 90.3813C115.421 90.6402 115.356 90.9789 115.356 91.3977C115.356 91.9915 115.493 92.4254 115.767 92.6995C116.041 92.9736 116.41 93.1106 116.875 93.1106C117.08 93.1106 117.255 93.0877 117.4 93.0421C117.545 92.9964 117.666 92.9431 117.765 92.8822ZM119.17 89.582L117.765 89.5934V86.6472C117.819 86.6319 117.902 86.6129 118.017 86.5901C118.138 86.5672 118.264 86.5558 118.394 86.5558C118.668 86.5558 118.866 86.6053 118.987 86.7043C119.109 86.7956 119.17 86.9631 119.17 87.2067V89.582Z" fill="white"/>
<path fillRule="evenodd" clipRule="evenodd" d="M138.622 87.7822C138.861 88.0211 138.861 88.4085 138.622 88.6474L132.913 94.3571C132.674 94.596 132.286 94.596 132.047 94.3571L128.785 91.0944C128.546 90.8555 128.546 90.4681 128.785 90.2292C129.024 89.9903 129.411 89.9903 129.65 90.2292L132.48 93.0594L137.757 87.7822C137.996 87.5433 138.383 87.5433 138.622 87.7822Z" fill="white"/>
<path fillRule="evenodd" clipRule="evenodd" d="M219.2 87.5703C219.439 87.8092 219.439 88.1965 219.2 88.4355L213.491 94.1452C213.252 94.3841 212.864 94.3841 212.625 94.1452L209.363 90.8825C209.124 90.6436 209.124 90.2562 209.363 90.0173C209.602 89.7784 209.989 89.7784 210.228 90.0173L213.058 92.8475L218.335 87.5703C218.574 87.3314 218.961 87.3314 219.2 87.5703Z" fill="#6043DD"/>
<rect x="196.744" y="73.3209" width="35.0742" height="35.0742" rx="17.5371" stroke="#6043DD" strokeWidth="0.815678"/>
</g>
<defs>
<filter id="filter0_d_2342_139199" x="-8.42969" y="0" width="276.57" height="178.144" filterUnits="userSpaceOnUse" color-interpolation-filters="sRGB">
<feFlood flood-opacity="0" result="BackgroundImageFix"/>
<feColorMatrix in="SourceAlpha" type="matrix" values="0 0 0 0 0 0 0 0 0 0 0 0 0 0 0 0 0 0 127 0" result="hardAlpha"/>
<feMorphology radius="22" operator="erode" in="SourceAlpha" result="effect1_dropShadow_2342_139199"/>
<feOffset dy="33"/>
<feGaussianBlur stdDeviation="15.5"/>
<feComposite in2="hardAlpha" operator="out"/>
<feColorMatrix type="matrix" values="0 0 0 0 0.376471 0 0 0 0 0.262745 0 0 0 0 0.866667 0 0 0 0.25 0"/>
<feBlend mode="normal" in2="BackgroundImageFix" result="effect1_dropShadow_2342_139199"/>
<feBlend mode="normal" in="SourceGraphic" in2="effect1_dropShadow_2342_139199" result="shape"/>
</filter>
<clipPath id="clip0_2342_139199">
<rect width="96.25" height="39.4703" fill="white" transform="translate(143.316 26.1018)"/>
</clipPath>
<clipPath id="clip1_2342_139199">
<rect width="96.25" height="14.6822" fill="white" transform="translate(143.316 38.4958)"/>
</clipPath>
</defs>
</svg>
