<svg width="139" height="48" viewBox="0 0 139 48" fill="none" xmlns="http://www.w3.org/2000/svg">
<path d="M10.78 10.52C10.78 10.8267 10.7 11.0933 10.54 11.32C10.38 11.5467 10.2 11.7267 10 11.86C9.66667 11.6333 9.28667 11.4333 8.86 11.26C8.44667 11.0867 7.95333 11 7.38 11C6.67333 11 6.06 11.1533 5.54 11.46C5.02 11.7667 4.62 12.2133 4.34 12.8C4.07333 13.3867 3.94 14.1 3.94 14.94C3.94 16.22 4.26 17.1933 4.9 17.86C5.54 18.5267 6.42 18.86 7.54 18.86C8.11333 18.86 8.60667 18.78 9.02 18.62C9.43333 18.46 9.81333 18.28 10.16 18.08C10.36 18.2267 10.52 18.42 10.64 18.66C10.7733 18.8867 10.84 19.1533 10.84 19.46C10.84 19.7267 10.7667 19.9733 10.62 20.2C10.4867 20.4267 10.2533 20.62 9.92 20.78C9.66667 20.9133 9.30667 21.04 8.84 21.16C8.37333 21.28 7.80667 21.34 7.14 21.34C5.96667 21.34 4.89333 21.1133 3.92 20.66C2.96 20.1933 2.2 19.4933 1.64 18.56C1.08 17.6133 0.8 16.4067 0.8 14.94C0.8 13.5533 1.07333 12.3867 1.62 11.44C2.18 10.48 2.92667 9.75333 3.86 9.26C4.79333 8.76667 5.82667 8.52 6.96 8.52C7.74667 8.52 8.42667 8.61333 9 8.8C9.57333 8.97333 10.0133 9.21333 10.32 9.52C10.6267 9.81333 10.78 10.1467 10.78 10.52ZM20.8239 14.94C20.8239 16.22 20.5039 17.1867 19.8639 17.84C19.2372 18.4933 18.3972 18.82 17.3439 18.82C17.1172 18.82 16.8772 18.8133 16.6239 18.8C16.3706 18.7733 16.1439 18.74 15.9439 18.7V11.12C16.1706 11.0933 16.3906 11.0733 16.6039 11.06C16.8306 11.0333 17.0639 11.02 17.3039 11.02C17.9972 11.02 18.6039 11.1667 19.1239 11.46C19.6572 11.74 20.0706 12.1667 20.3639 12.74C20.6706 13.3133 20.8239 14.0467 20.8239 14.94ZM23.9639 14.88C23.9639 13.4533 23.6772 12.2733 23.1039 11.34C22.5306 10.4067 21.7306 9.71333 20.7039 9.26C19.6906 8.79333 18.4972 8.56 17.1239 8.56C16.6172 8.56 16.0572 8.58667 15.4439 8.64C14.8306 8.69333 14.2572 8.80667 13.7239 8.98C13.4839 9.07333 13.2906 9.19333 13.1439 9.34C12.9972 9.47333 12.9239 9.67333 12.9239 9.94V19.5C12.9239 20.14 13.2706 20.5867 13.9639 20.84C14.4839 21.0267 15.0639 21.1467 15.7039 21.2C16.3439 21.2667 16.8839 21.3 17.3239 21.3C18.6572 21.3 19.8172 21.0667 20.8039 20.6C21.8039 20.12 22.5772 19.4067 23.1239 18.46C23.6839 17.5133 23.9639 16.32 23.9639 14.88ZM27.8456 14.56L31.2456 14.16C32.3656 15.3467 33.3656 16.4067 34.2456 17.34C35.1256 18.2733 35.839 19.02 36.3856 19.58C36.3856 20.0867 36.219 20.4867 35.8856 20.78C35.5523 21.06 35.1656 21.2 34.7256 21.2C34.2456 21.2 33.8523 21.08 33.5456 20.84C33.239 20.6 32.9456 20.32 32.6656 20L27.8456 14.56ZM31.3256 15.62L27.4456 15.8L33.7256 8.76C34.4856 8.76 35.039 8.91333 35.3856 9.22C35.7323 9.51333 35.9056 9.86 35.9056 10.26C35.9056 10.5667 35.8256 10.86 35.6656 11.14C35.519 11.4067 35.2723 11.7 34.9256 12.02L31.3256 15.62ZM26.1856 12.52H29.2256V20.98C29.1056 21.02 28.9123 21.06 28.6456 21.1C28.379 21.14 28.1056 21.16 27.8256 21.16C27.2256 21.16 26.799 21.0533 26.5456 20.84C26.3056 20.6133 26.1856 20.24 26.1856 19.72V12.52ZM29.2256 16.36H26.1856V8.84C26.319 8.81333 26.519 8.78 26.7856 8.74C27.0656 8.7 27.3323 8.68 27.5856 8.68C28.1723 8.68 28.5923 8.78 28.8456 8.98C29.099 9.18 29.2256 9.56 29.2256 10.12V16.36ZM52.8803 15.02V19.18C52.8803 19.5533 52.807 19.84 52.6603 20.04C52.527 20.2267 52.3003 20.4067 51.9803 20.58C51.6203 20.78 51.1003 20.9533 50.4203 21.1C49.7403 21.26 49.0603 21.34 48.3803 21.34C47.1003 21.34 45.947 21.12 44.9203 20.68C43.907 20.2267 43.1003 19.5333 42.5003 18.6C41.9136 17.6533 41.6203 16.44 41.6203 14.96C41.6203 13.5467 41.9203 12.3667 42.5203 11.42C43.1203 10.46 43.927 9.74 44.9403 9.26C45.967 8.76667 47.1003 8.52 48.3403 8.52C49.167 8.52 49.8803 8.60667 50.4803 8.78C51.0936 8.95333 51.5603 9.19333 51.8803 9.5C52.2136 9.80667 52.3803 10.16 52.3803 10.56C52.3803 10.8533 52.3003 11.12 52.1403 11.36C51.9936 11.5867 51.8136 11.76 51.6003 11.88C51.267 11.6667 50.847 11.4667 50.3403 11.28C49.8336 11.0933 49.2403 11 48.5603 11C47.827 11 47.167 11.16 46.5803 11.48C46.007 11.7867 45.5603 12.24 45.2403 12.84C44.9203 13.4267 44.7603 14.1267 44.7603 14.94C44.7603 15.82 44.9136 16.5533 45.2203 17.14C45.5403 17.7267 45.9736 18.1667 46.5203 18.46C47.0803 18.74 47.7136 18.88 48.4203 18.88C48.7536 18.88 49.0536 18.8467 49.3203 18.78C49.6003 18.7133 49.8136 18.6467 49.9603 18.58V16.24H47.6203C47.5403 16.1067 47.467 15.94 47.4003 15.74C47.3336 15.5267 47.3003 15.3 47.3003 15.06C47.3003 14.6467 47.3936 14.3467 47.5803 14.16C47.7803 13.96 48.0403 13.86 48.3603 13.86H51.7203C52.0803 13.86 52.3603 13.96 52.5603 14.16C52.7736 14.36 52.8803 14.6467 52.8803 15.02ZM55.2444 15.72L58.2244 15.78V20.98C58.091 21.02 57.9044 21.0533 57.6644 21.08C57.4244 21.12 57.1644 21.14 56.8844 21.14C56.3244 21.14 55.911 21.04 55.6444 20.84C55.3777 20.64 55.2444 20.28 55.2444 19.76V15.72ZM58.2244 17.32L55.2444 17.26V7.98C55.3777 7.94 55.5644 7.9 55.8044 7.86C56.0444 7.82 56.3044 7.8 56.5844 7.8C57.1577 7.8 57.571 7.9 57.8244 8.1C58.091 8.3 58.2244 8.66667 58.2244 9.2V17.32ZM70.3522 16.2C70.3522 17.24 70.1389 18.1467 69.7122 18.92C69.2989 19.68 68.7122 20.2667 67.9522 20.68C67.1922 21.0933 66.2989 21.3 65.2722 21.3C64.2589 21.3 63.3655 21.1 62.5922 20.7C61.8322 20.2867 61.2389 19.7 60.8122 18.94C60.3989 18.1667 60.1922 17.2533 60.1922 16.2C60.1922 15.1467 60.4055 14.2467 60.8322 13.5C61.2589 12.74 61.8522 12.1533 62.6122 11.74C63.3855 11.3133 64.2722 11.1 65.2722 11.1C66.2855 11.1 67.1722 11.3133 67.9322 11.74C68.6922 12.1533 69.2855 12.7467 69.7122 13.52C70.1389 14.28 70.3522 15.1733 70.3522 16.2ZM65.2722 13.44C64.6455 13.44 64.1455 13.68 63.7722 14.16C63.4122 14.64 63.2322 15.32 63.2322 16.2C63.2322 17.0933 63.4122 17.78 63.7722 18.26C64.1322 18.7267 64.6322 18.96 65.2722 18.96C65.9122 18.96 66.4122 18.72 66.7722 18.24C67.1322 17.76 67.3122 17.08 67.3122 16.2C67.3122 15.3333 67.1322 14.66 66.7722 14.18C66.4122 13.6867 65.9122 13.44 65.2722 13.44ZM77.2947 11.1C78.1614 11.1 78.948 11.2933 79.6547 11.68C80.3614 12.0533 80.9214 12.62 81.3347 13.38C81.748 14.1267 81.9547 15.0533 81.9547 16.16C81.9547 17.28 81.7347 18.22 81.2947 18.98C80.868 19.74 80.2614 20.32 79.4747 20.72C78.688 21.1067 77.768 21.3 76.7147 21.3C75.888 21.3 75.1747 21.2 74.5747 21C73.988 20.8 73.4947 20.5667 73.0947 20.3C72.8147 20.1 72.6014 19.88 72.4547 19.64C72.3214 19.4 72.2547 19.12 72.2547 18.8V12.46H75.1947V18.58C75.3547 18.6733 75.5614 18.76 75.8147 18.84C76.068 18.92 76.3547 18.96 76.6747 18.96C77.3547 18.96 77.8947 18.7267 78.2947 18.26C78.708 17.7933 78.9147 17.0933 78.9147 16.16C78.9147 15.2133 78.7147 14.5267 78.3147 14.1C77.928 13.66 77.408 13.44 76.7547 13.44C76.328 13.44 75.948 13.52 75.6147 13.68C75.2814 13.84 74.9947 14.02 74.7547 14.22L74.6747 11.82C74.9814 11.6467 75.3547 11.4867 75.7947 11.34C76.248 11.18 76.748 11.1 77.2947 11.1ZM75.2147 13.16H72.2547V7.98C72.3747 7.94 72.5547 7.9 72.7947 7.86C73.0347 7.82 73.2947 7.8 73.5747 7.8C74.148 7.8 74.5614 7.9 74.8147 8.1C75.0814 8.3 75.2147 8.66667 75.2147 9.2V13.16ZM87.7953 19.1C88.102 19.1 88.402 19.0733 88.6953 19.02C89.002 18.9533 89.222 18.88 89.3553 18.8V16.88L87.6753 17.04C87.222 17.0667 86.862 17.16 86.5953 17.32C86.3286 17.48 86.1953 17.72 86.1953 18.04C86.1953 18.36 86.322 18.62 86.5753 18.82C86.8286 19.0067 87.2353 19.1 87.7953 19.1ZM87.6753 11.1C89.062 11.1 90.1686 11.3933 90.9953 11.98C91.822 12.5533 92.2353 13.4467 92.2353 14.66V19.2C92.2353 19.5333 92.1486 19.8067 91.9753 20.02C91.802 20.22 91.582 20.3933 91.3153 20.54C90.9153 20.78 90.4153 20.9667 89.8153 21.1C89.2286 21.2467 88.5553 21.32 87.7953 21.32C86.4353 21.32 85.3486 21.0533 84.5353 20.52C83.7353 19.9867 83.3353 19.1933 83.3353 18.14C83.3353 17.2333 83.6153 16.54 84.1753 16.06C84.7353 15.5667 85.5686 15.2667 86.6753 15.16L89.3353 14.88V14.64C89.3353 14.1867 89.1553 13.86 88.7953 13.66C88.4486 13.46 87.9486 13.36 87.2953 13.36C86.7886 13.36 86.2886 13.42 85.7953 13.54C85.3153 13.66 84.882 13.8 84.4953 13.96C84.3353 13.8533 84.1953 13.6933 84.0753 13.48C83.9686 13.2533 83.9153 13.02 83.9153 12.78C83.9153 12.22 84.222 11.8133 84.8353 11.56C85.222 11.4 85.6686 11.2867 86.1753 11.22C86.6953 11.14 87.1953 11.1 87.6753 11.1ZM94.6194 15.72L97.5994 15.78V20.98C97.466 21.02 97.2794 21.0533 97.0394 21.08C96.7994 21.12 96.5394 21.14 96.2594 21.14C95.6994 21.14 95.286 21.04 95.0194 20.84C94.7527 20.64 94.6194 20.28 94.6194 19.76V15.72ZM97.5994 17.32L94.6194 17.26V7.98C94.7527 7.94 94.9394 7.9 95.1794 7.86C95.4194 7.82 95.6794 7.8 95.9594 7.8C96.5327 7.8 96.946 7.9 97.1994 8.1C97.466 8.3 97.5994 8.66667 97.5994 9.2V17.32ZM108.027 19.56C108.027 19.0667 108.181 18.6533 108.487 18.32C108.807 17.9733 109.234 17.8 109.767 17.8C110.287 17.8 110.707 17.9733 111.027 18.32C111.347 18.6533 111.507 19.0667 111.507 19.56C111.507 20.0533 111.347 20.4733 111.027 20.82C110.707 21.1533 110.287 21.32 109.767 21.32C109.234 21.32 108.807 21.1533 108.487 20.82C108.181 20.4733 108.027 20.0533 108.027 19.56ZM103.647 19.56C103.647 19.0667 103.801 18.6533 104.107 18.32C104.427 17.9733 104.854 17.8 105.387 17.8C105.921 17.8 106.341 17.9733 106.647 18.32C106.967 18.6533 107.127 19.0667 107.127 19.56C107.127 20.0533 106.967 20.4733 106.647 20.82C106.341 21.1533 105.921 21.32 105.387 21.32C104.854 21.32 104.427 21.1533 104.107 20.82C103.801 20.4733 103.647 20.0533 103.647 19.56ZM99.2872 19.56C99.2872 19.0667 99.4405 18.6533 99.7472 18.32C100.067 17.9733 100.487 17.8 101.007 17.8C101.541 17.8 101.961 17.9733 102.267 18.32C102.587 18.6533 102.747 19.0667 102.747 19.56C102.747 20.0533 102.587 20.4733 102.267 20.82C101.961 21.1533 101.541 21.32 101.007 21.32C100.487 21.32 100.067 21.1533 99.7472 20.82C99.4405 20.4733 99.2872 20.0533 99.2872 19.56Z" fill="#F0F2F5"/>
<path opacity="0.6" d="M1.05 34.324C1.086 34.324 1.192 34.324 1.368 34.324C1.544 34.324 1.752 34.324 1.992 34.324C2.236 34.324 2.482 34.326 2.73 34.33C2.982 34.33 3.2 34.332 3.384 34.336C4.44 34.356 5.298 34.538 5.958 34.882C6.622 35.222 7.108 35.708 7.416 36.34C7.728 36.968 7.884 37.726 7.884 38.614C7.884 39.542 7.718 40.332 7.386 40.984C7.058 41.636 6.554 42.136 5.874 42.484C5.198 42.828 4.338 43 3.294 43H1.05V34.324ZM2.532 35.53V41.794H3.318C3.914 41.794 4.44 41.692 4.896 41.488C5.352 41.28 5.708 40.944 5.964 40.48C6.224 40.016 6.354 39.396 6.354 38.62C6.354 37.868 6.234 37.266 5.994 36.814C5.754 36.362 5.41 36.036 4.962 35.836C4.514 35.632 3.978 35.53 3.354 35.53H2.532ZM11.5461 43V34.324H13.6341L15.9081 40.954L18.2061 34.324H20.2821V43H18.8001V36.196L16.5141 43H15.2961L13.0281 36.238V43H11.5461ZM27.5059 43.12C27.0859 43.12 26.6759 43.068 26.2759 42.964C25.8759 42.856 25.5119 42.698 25.1839 42.49C24.8599 42.278 24.5899 42.016 24.3739 41.704C24.1579 41.388 24.0259 41.02 23.9779 40.6H25.4899C25.5539 40.892 25.6799 41.138 25.8679 41.338C26.0559 41.538 26.2899 41.69 26.5699 41.794C26.8539 41.898 27.1639 41.95 27.4999 41.95C27.8599 41.95 28.1839 41.902 28.4719 41.806C28.7639 41.71 28.9939 41.57 29.1619 41.386C29.3339 41.202 29.4199 40.976 29.4199 40.708C29.4199 40.472 29.3579 40.272 29.2339 40.108C29.1099 39.944 28.9359 39.81 28.7119 39.706C28.4919 39.598 28.2339 39.512 27.9379 39.448L26.3419 39.1C25.6979 38.968 25.1879 38.712 24.8119 38.332C24.4359 37.952 24.2439 37.446 24.2359 36.814C24.2319 36.29 24.3699 35.834 24.6499 35.446C24.9339 35.054 25.3199 34.752 25.8079 34.54C26.2959 34.324 26.8479 34.216 27.4639 34.216C28.1839 34.216 28.7899 34.334 29.2819 34.57C29.7779 34.802 30.1519 35.114 30.4039 35.506C30.6599 35.898 30.7899 36.328 30.7939 36.796H29.3179C29.2819 36.452 29.1779 36.178 29.0059 35.974C28.8379 35.77 28.6219 35.624 28.3579 35.536C28.0939 35.448 27.8019 35.404 27.4819 35.404C27.2419 35.404 27.0179 35.432 26.8099 35.488C26.6019 35.544 26.4199 35.626 26.2639 35.734C26.1079 35.842 25.9859 35.974 25.8979 36.13C25.8139 36.282 25.7719 36.456 25.7719 36.652C25.7719 36.932 25.8639 37.16 26.0479 37.336C26.2359 37.508 26.5859 37.654 27.0979 37.774L28.6579 38.122C29.1419 38.218 29.5319 38.362 29.8279 38.554C30.1239 38.746 30.3499 38.966 30.5059 39.214C30.6619 39.458 30.7659 39.708 30.8179 39.964C30.8699 40.22 30.8959 40.464 30.8959 40.696C30.8959 41.148 30.7559 41.558 30.4759 41.926C30.1999 42.294 29.8079 42.586 29.2999 42.802C28.7959 43.014 28.1979 43.12 27.5059 43.12Z" fill="#E5E8EF"/>
</svg>
