<svg width="159" height="18" viewBox="0 0 159 18" fill="none" xmlns="http://www.w3.org/2000/svg">
<path d="M156.306 14.5852H156.595C156.752 14.5852 156.962 14.6124 156.962 14.8029C156.962 15.0205 156.804 15.0478 156.621 15.0478H156.306V14.5852ZM155.939 16.1362H156.28V15.3471H156.49L156.909 16.1362H157.276L156.804 15.3471C157.067 15.3199 157.276 15.1838 157.276 14.8573C157.276 14.4491 157.04 14.3131 156.595 14.3131H155.939V16.1362ZM155.388 15.211C155.388 14.4763 155.913 13.9321 156.568 13.9321C157.224 13.9321 157.748 14.4763 157.748 15.211C157.748 15.9457 157.224 16.4899 156.568 16.4899C155.913 16.5171 155.388 15.9729 155.388 15.211ZM154.969 15.211C154.969 16.2178 155.729 16.8437 156.568 16.8437C157.407 16.8437 158.168 16.1906 158.168 15.211C158.168 14.2314 157.407 13.5784 156.568 13.5784C155.729 13.6056 154.969 14.2314 154.969 15.211Z" fill="white"/>
<path d="M153.736 0.435547H152.896V16.7893H153.736V0.435547Z" fill="white"/>
<path d="M149.461 14.449H149.409C149.278 14.8028 149.094 15.1293 148.832 15.4286C148.57 15.7551 148.281 16.0272 147.914 16.2721C147.547 16.517 147.154 16.7075 146.682 16.8436C146.21 16.9796 145.711 17.0613 145.187 17.0613C143.981 17.0613 143.037 16.7891 142.381 16.2449C141.726 15.7007 141.385 14.8572 141.385 13.7415C141.385 13.0613 141.516 12.4898 141.778 12.0545C142.04 11.6191 142.381 11.2653 142.775 11.0204C143.194 10.7755 143.64 10.5851 144.112 10.4762C144.61 10.3674 145.082 10.2857 145.528 10.2585L146.839 10.1497C147.442 10.0953 147.914 10.0409 148.255 9.93201C148.596 9.82317 148.858 9.68711 149.042 9.52385C149.225 9.36058 149.33 9.11569 149.356 8.84358C149.409 8.57147 149.435 8.21772 149.435 7.80956C149.435 7.48303 149.383 7.18371 149.251 6.9116C149.12 6.63949 148.937 6.39459 148.701 6.17691C148.439 5.95922 148.124 5.79595 147.731 5.6599C147.337 5.55106 146.839 5.46942 146.262 5.46942C145.239 5.46942 144.427 5.74154 143.797 6.25854C143.168 6.77555 142.827 7.56466 142.775 8.62588H141.935C141.988 7.31976 142.381 6.34017 143.142 5.68711C143.876 5.03405 144.951 4.70752 146.315 4.70752C147.678 4.70752 148.675 4.97963 149.304 5.55106C149.933 6.09528 150.248 6.82997 150.248 7.72793V14.5851C150.248 14.7483 150.248 14.9116 150.248 15.1021C150.274 15.2653 150.274 15.4286 150.327 15.5647C150.379 15.7007 150.431 15.8096 150.536 15.8912C150.641 15.9728 150.772 16.0272 150.982 16.0272C151.139 16.0272 151.349 16 151.611 15.9456V16.6803C151.402 16.7347 151.166 16.7619 150.93 16.7619C150.589 16.7619 150.327 16.7075 150.117 16.6259C149.907 16.5442 149.776 16.4082 149.671 16.2721C149.566 16.1089 149.487 15.9456 149.461 15.7279C149.409 15.5374 149.409 15.2926 149.409 15.0477L149.461 14.449ZM149.461 10.0953C149.251 10.3402 148.937 10.5307 148.517 10.6123C148.098 10.6939 147.626 10.7755 147.101 10.83L145.685 10.966C145.266 11.0204 144.872 11.0749 144.453 11.1565C144.033 11.2381 143.666 11.3742 143.351 11.5919C143.011 11.7823 142.748 12.0545 142.539 12.4082C142.329 12.7619 142.224 13.1973 142.224 13.7415C142.224 14.6123 142.486 15.2653 143.011 15.6735C143.535 16.1089 144.269 16.2994 145.187 16.2994C146.157 16.2994 146.891 16.1089 147.468 15.7551C148.019 15.4014 148.465 14.9932 148.753 14.5306C149.042 14.0681 149.225 13.6055 149.304 13.1701C149.383 12.7347 149.435 12.4354 149.435 12.2994L149.461 10.0953Z" fill="white"/>
<path d="M130.424 0.435547H131.236V7.51038H131.289C131.446 7.04779 131.682 6.63963 131.971 6.3131C132.259 5.95936 132.6 5.68725 132.993 5.44236C133.387 5.19746 133.78 5.03419 134.226 4.92534C134.672 4.8165 135.117 4.76208 135.589 4.76208C136.428 4.76208 137.163 4.92534 137.766 5.22466C138.369 5.52398 138.893 5.95936 139.313 6.47637C139.732 7.02058 140.021 7.64643 140.231 8.35392C140.44 9.0614 140.519 9.8233 140.519 10.6668C140.519 12.0546 140.336 13.1975 139.968 14.041C139.601 14.8845 139.156 15.5376 138.631 16.0002C138.107 16.4355 137.582 16.7349 137.005 16.8981C136.455 17.0614 135.956 17.1158 135.563 17.1158C134.803 17.1158 134.173 16.9798 133.649 16.7621C133.124 16.5172 132.705 16.2451 132.364 15.9185C132.023 15.592 131.761 15.2655 131.577 14.939C131.394 14.6124 131.289 14.3947 131.236 14.2315H131.184V16.8709H130.371L130.424 0.435547ZM135.589 16.2995C136.35 16.2995 136.979 16.1362 137.504 15.7825C138.028 15.456 138.421 14.9934 138.762 14.4764C139.077 13.9321 139.313 13.3335 139.47 12.6532C139.628 11.973 139.68 11.2927 139.68 10.6396C139.68 9.98657 139.601 9.36072 139.418 8.73487C139.234 8.10902 138.998 7.5648 138.631 7.10221C138.29 6.61242 137.871 6.23147 137.346 5.95936C136.848 5.66004 136.245 5.52399 135.563 5.52399C134.829 5.52399 134.173 5.66004 133.649 5.90494C133.098 6.17704 132.652 6.53079 132.312 6.99337C131.944 7.45596 131.682 8.00017 131.499 8.62602C131.315 9.25187 131.236 9.93215 131.236 10.6668C131.236 11.3743 131.315 12.0818 131.472 12.7621C131.63 13.4424 131.892 14.0682 132.233 14.5852C132.574 15.1022 133.02 15.5376 133.57 15.8641C134.147 16.1634 134.803 16.2995 135.589 16.2995Z" fill="white"/>
<path d="M118.781 10.9116C118.781 10.0681 118.886 9.27897 119.122 8.54427C119.358 7.80958 119.699 7.15652 120.119 6.58509C120.564 6.01366 121.115 5.57829 121.744 5.25176C122.4 4.92522 123.134 4.76196 123.973 4.76196C124.812 4.76196 125.547 4.92522 126.202 5.25176C126.858 5.57829 127.408 6.01366 127.828 6.58509C128.274 7.15652 128.588 7.80958 128.824 8.54427C129.06 9.27897 129.165 10.0681 129.165 10.9116C129.165 11.7552 129.06 12.5443 128.824 13.279C128.588 14.0409 128.274 14.6939 127.828 15.2382C127.382 15.8096 126.831 16.245 126.202 16.5715C125.547 16.898 124.812 17.0613 123.973 17.0613C123.134 17.0613 122.374 16.898 121.744 16.5715C121.089 16.245 120.564 15.8096 120.119 15.2382C119.673 14.6939 119.332 14.0137 119.122 13.279C118.912 12.5443 118.781 11.7552 118.781 10.9116ZM119.62 10.9116C119.62 11.6191 119.725 12.2994 119.909 12.9524C120.092 13.6055 120.381 14.1769 120.748 14.6667C121.115 15.1565 121.561 15.5647 122.111 15.864C122.662 16.1633 123.265 16.2994 123.973 16.2994C124.681 16.2994 125.311 16.1361 125.835 15.864C126.386 15.5647 126.831 15.1565 127.199 14.6667C127.566 14.1497 127.854 13.5783 128.038 12.9524C128.221 12.2994 128.326 11.6191 128.326 10.9116C128.326 10.2041 128.221 9.55107 128.038 8.89801C127.854 8.24495 127.566 7.67352 127.199 7.15652C126.831 6.63951 126.359 6.25856 125.835 5.95924C125.284 5.65992 124.655 5.52386 123.973 5.52386C123.265 5.52386 122.636 5.65992 122.111 5.95924C121.561 6.25856 121.115 6.66672 120.748 7.15652C120.381 7.67352 120.092 8.24495 119.909 8.89801C119.725 9.52386 119.62 10.2041 119.62 10.9116Z" fill="white"/>
<path d="M117.548 0.435547H116.709V16.7893H117.548V0.435547Z" fill="white"/>
<path d="M100.609 8.70751C100.609 7.53744 100.767 6.449 101.108 5.38778C101.422 4.35376 101.92 3.42859 102.55 2.63948C103.179 1.85036 103.94 1.22451 104.884 0.761928C105.801 0.299343 106.85 0.0544434 108.056 0.0544434C108.869 0.0544434 109.63 0.163292 110.364 0.40819C111.098 0.653088 111.754 1.00683 112.331 1.49662C112.908 1.95921 113.406 2.53064 113.799 3.21091C114.192 3.89118 114.455 4.65308 114.586 5.49662H113.642C113.275 4.05444 112.619 2.9388 111.649 2.12247C110.679 1.30615 109.472 0.897982 108.03 0.897982C106.981 0.897982 106.037 1.11567 105.224 1.52383C104.412 1.9592 103.73 2.53064 103.205 3.23812C102.655 3.9456 102.261 4.78914 101.973 5.71431C101.684 6.63948 101.553 7.64628 101.553 8.65308C101.553 9.6871 101.684 10.6667 101.947 11.5919C102.209 12.517 102.628 13.3334 103.153 14.0136C103.704 14.6939 104.359 15.2381 105.172 15.6463C105.985 16.0544 106.929 16.2449 108.03 16.2449C108.974 16.2449 109.813 16.0817 110.574 15.7551C111.334 15.4286 111.964 14.9932 112.488 14.3946C113.012 13.8232 113.406 13.1157 113.668 12.2993C113.93 11.483 114.035 10.5851 114.009 9.57825H108.214V8.78914H114.848V16.8163H114.009V13.3334H113.956C113.747 13.932 113.484 14.4762 113.091 14.9388C112.698 15.4286 112.252 15.8095 111.728 16.1633C111.203 16.4898 110.626 16.7347 109.997 16.9252C109.368 17.1157 108.686 17.1973 108.004 17.1973C106.824 17.1973 105.749 16.9796 104.831 16.5442C103.913 16.1089 103.127 15.5102 102.497 14.7483C101.868 13.9864 101.396 13.0885 101.055 12.0544C100.767 10.9932 100.609 9.87758 100.609 8.70751Z" fill="white"/>
<path d="M90.4357 0.435303V8.59857L98.4334 0.435303H101.161L94.5001 7.04755L101.423 16.8163H98.7743L93.0579 8.54415L90.4357 11.0748V16.8163H88.3379V0.435303H90.4357Z" fill="white"/>
<path d="M79.2123 0.435303C81.651 0.435303 83.5128 1.08837 84.8239 2.36728C86.135 3.64619 86.7905 5.60537 86.7905 8.24483C86.7905 9.63258 86.6332 10.8299 86.3448 11.8911C86.0563 12.9523 85.5843 13.8503 84.9812 14.585C84.3519 15.2924 83.5652 15.8639 82.6212 16.2448C81.6772 16.6258 80.5234 16.8163 79.2123 16.8163H73.8105V0.435303H79.2123ZM79.3959 14.9931C79.6319 14.9931 79.9203 14.9931 80.2874 14.9387C80.6283 14.9115 81.0217 14.8027 81.415 14.6666C81.8083 14.5305 82.2017 14.3129 82.595 14.0407C82.9883 13.7686 83.3292 13.3877 83.6439 12.9251C83.9585 12.4625 84.2208 11.8639 84.4043 11.1564C84.5879 10.4489 84.6928 9.57817 84.6928 8.57136C84.6928 7.59177 84.5879 6.72102 84.4043 5.9319C84.2208 5.17 83.9061 4.51693 83.4865 3.97272C83.067 3.4285 82.5163 3.02034 81.8608 2.72102C81.2052 2.44891 80.3661 2.31286 79.4221 2.31286H75.8821V15.0203H79.3959V14.9931Z" fill="white"/>
<path d="M68.5408 2.74829C67.7279 2.17686 66.7839 1.87755 65.6826 1.87755C64.7386 1.87755 63.9257 2.06803 63.2702 2.42177C62.6146 2.77551 62.0639 3.29251 61.6182 3.89115C61.1724 4.517 60.8577 5.22448 60.6479 6.0136C60.4382 6.80271 60.3333 7.64625 60.3333 8.48979C60.3333 9.41496 60.4382 10.3129 60.6479 11.1292C60.8577 11.9728 61.1724 12.6803 61.6182 13.3061C62.0639 13.932 62.6146 14.4218 63.2964 14.7755C63.9782 15.1292 64.7911 15.3197 65.7351 15.3197C66.4168 15.3197 67.0462 15.1837 67.5706 14.966C68.1213 14.7211 68.5671 14.3946 68.9604 13.9864C69.3537 13.551 69.6422 13.0612 69.8782 12.4898C70.0879 11.8912 70.2191 11.2653 70.2715 10.6122H72.3693C72.1595 12.6803 71.4777 14.2857 70.3239 15.4286C69.1702 16.5714 67.5706 17.1429 65.5515 17.1429C64.3191 17.1429 63.2702 16.9252 62.3524 16.4898C61.4346 16.0544 60.6742 15.4558 60.0711 14.6939C59.4679 13.932 59.0222 13.034 58.7075 12C58.4191 10.966 58.2617 9.85034 58.2617 8.65306C58.2617 7.45578 58.4191 6.34013 58.7599 5.27891C59.0746 4.2449 59.5466 3.31972 60.1759 2.53061C60.8053 1.74149 61.5919 1.14286 62.5097 0.680272C63.4537 0.244898 64.5288 0 65.7351 0C66.5479 0 67.3346 0.10884 68.0688 0.353738C68.8031 0.598636 69.4586 0.92517 70.0355 1.36054C70.6124 1.79592 71.0844 2.36734 71.4777 3.0204C71.8711 3.67346 72.1071 4.46258 72.2382 5.33333H70.1404C69.8519 4.21768 69.3537 3.34693 68.5408 2.74829Z" fill="white"/>
<path d="M45.8529 0.190674C41.2497 0.190674 37.5195 3.92083 37.5195 8.52401C37.5195 13.1272 41.2497 16.8573 45.8529 16.8573C50.456 16.8573 54.1862 13.1272 54.1862 8.52401C54.1862 3.92083 50.456 0.190674 45.8529 0.190674Z" fill="#82C600"/>
<path d="M27.5228 0.0544434C32.126 0.0544434 35.8561 3.7846 35.8561 8.38778C35.8561 12.991 32.126 16.7211 27.5228 16.7211C22.9196 16.7211 19.1895 12.991 19.1895 8.38778C19.1895 3.7846 22.9196 0.0544434 27.5228 0.0544434Z" fill="white"/>
<path d="M9.16732 0.0544434C13.7705 0.0544434 17.5007 3.7846 17.5007 8.38778C17.5007 12.991 13.7705 16.7211 9.16732 16.7211C4.56414 16.7211 0.833984 12.991 0.833984 8.38778C0.860439 3.7846 4.5906 0.0544434 9.16732 0.0544434Z" fill="white"/>
</svg>
