<svg width="118" height="48" viewBox="0 0 118 48" fill="none" xmlns="http://www.w3.org/2000/svg">
<g clipPath="url(#clip0_8698_43381)">
<path d="M116.605 28.4897H116.821C116.939 28.4897 117.096 28.5101 117.096 28.653C117.096 28.8163 116.978 28.8367 116.841 28.8367H116.605V28.4897ZM116.329 29.653H116.585V29.0611H116.742L117.057 29.653H117.332L116.978 29.0611C117.175 29.0407 117.332 28.9387 117.332 28.6938C117.332 28.3877 117.155 28.2856 116.821 28.2856H116.329V29.653ZM115.916 28.9591C115.916 28.4081 116.31 27.9999 116.801 27.9999C117.293 27.9999 117.686 28.4081 117.686 28.9591C117.686 29.5101 117.293 29.9183 116.801 29.9183C116.31 29.9387 115.916 29.5305 115.916 28.9591ZM115.602 28.9591C115.602 29.7142 116.172 30.1836 116.801 30.1836C117.431 30.1836 118.001 29.6938 118.001 28.9591C118.001 28.2244 117.431 27.7346 116.801 27.7346C116.172 27.755 115.602 28.2244 115.602 28.9591Z" fill="white"/>
<path d="M114.676 17.8774H114.047V30.1427H114.676V17.8774Z" fill="white"/>
<path d="M111.471 28.3877H111.432C111.334 28.653 111.196 28.8979 110.999 29.1224C110.803 29.3673 110.586 29.5713 110.311 29.755C110.036 29.9387 109.741 30.0815 109.387 30.1836C109.033 30.2856 108.659 30.3468 108.266 30.3468C107.361 30.3468 106.653 30.1428 106.161 29.7346C105.67 29.3264 105.414 28.6938 105.414 27.8571C105.414 27.3468 105.512 26.9183 105.709 26.5917C105.906 26.2652 106.161 25.9999 106.456 25.8162C106.771 25.6326 107.105 25.4897 107.459 25.4081C107.833 25.3264 108.187 25.2652 108.521 25.2448L109.505 25.1632C109.957 25.1224 110.311 25.0815 110.567 24.9999C110.822 24.9183 111.019 24.8162 111.157 24.6938C111.294 24.5713 111.373 24.3877 111.393 24.1836C111.432 23.9795 111.452 23.7142 111.452 23.4081C111.452 23.1632 111.412 22.9387 111.314 22.7346C111.216 22.5305 111.078 22.3468 110.901 22.1836C110.704 22.0203 110.468 21.8979 110.173 21.7958C109.878 21.7142 109.505 21.653 109.072 21.653C108.305 21.653 107.695 21.8571 107.223 22.2448C106.751 22.6326 106.496 23.2244 106.456 24.0203H105.827C105.866 23.0407 106.161 22.306 106.732 21.8162C107.282 21.3264 108.089 21.0815 109.111 21.0815C110.134 21.0815 110.881 21.2856 111.353 21.7142C111.825 22.1224 112.061 22.6734 112.061 23.3468V28.4897C112.061 28.6122 112.061 28.7346 112.061 28.8775C112.081 28.9999 112.081 29.1224 112.12 29.2244C112.16 29.3264 112.199 29.4081 112.278 29.4693C112.356 29.5305 112.455 29.5713 112.612 29.5713C112.73 29.5713 112.887 29.5509 113.084 29.5101V30.0611C112.927 30.1019 112.75 30.1224 112.573 30.1224C112.317 30.1224 112.12 30.0815 111.963 30.0203C111.806 29.9591 111.707 29.8571 111.629 29.755C111.55 29.6326 111.491 29.5101 111.471 29.3468C111.432 29.204 111.432 29.0203 111.432 28.8366L111.471 28.3877ZM111.471 25.1224C111.314 25.306 111.078 25.4489 110.763 25.5101C110.449 25.5713 110.095 25.6326 109.701 25.6734L108.639 25.7754C108.325 25.8162 108.03 25.8571 107.715 25.9183C107.4 25.9795 107.125 26.0815 106.889 26.2448C106.633 26.3877 106.437 26.5917 106.279 26.857C106.122 27.1224 106.043 27.4489 106.043 27.8571C106.043 28.5101 106.24 28.9999 106.633 29.306C107.027 29.6326 107.577 29.7754 108.266 29.7754C108.993 29.7754 109.544 29.6326 109.977 29.3673C110.39 29.102 110.724 28.7958 110.94 28.4489C111.157 28.102 111.294 27.755 111.353 27.4285C111.412 27.102 111.452 26.8775 111.452 26.7754L111.471 25.1224Z" fill="white"/>
<path d="M97.1936 17.8774H97.8033V23.1836H97.8426C97.9606 22.8366 98.1376 22.5305 98.354 22.2856C98.5703 22.0203 98.826 21.8162 99.121 21.6325C99.416 21.4489 99.711 21.3264 100.045 21.2448C100.38 21.1632 100.714 21.1223 101.068 21.1223C101.697 21.1223 102.248 21.2448 102.7 21.4693C103.153 21.6938 103.546 22.0203 103.861 22.4081C104.175 22.8162 104.392 23.2856 104.549 23.8162C104.706 24.3468 104.765 24.9183 104.765 25.5509C104.765 26.5917 104.628 27.4489 104.352 28.0815C104.077 28.7142 103.743 29.204 103.349 29.5509C102.956 29.8774 102.563 30.1019 102.13 30.2244C101.717 30.3468 101.343 30.3876 101.048 30.3876C100.478 30.3876 100.006 30.2856 99.6126 30.1223C99.2193 29.9387 98.9046 29.7346 98.649 29.4897C98.3933 29.2448 98.1966 28.9999 98.059 28.755C97.9213 28.5101 97.8426 28.3468 97.8033 28.2244H97.764V30.204H97.1543L97.1936 17.8774ZM101.068 29.7754C101.638 29.7754 102.11 29.653 102.504 29.3876C102.897 29.1428 103.192 28.7958 103.448 28.4081C103.684 27.9999 103.861 27.5509 103.979 27.0407C104.097 26.5305 104.136 26.0203 104.136 25.5305C104.136 25.0407 104.077 24.5713 103.939 24.1019C103.802 23.6325 103.625 23.2244 103.349 22.8774C103.094 22.5101 102.779 22.2244 102.386 22.0203C102.012 21.7958 101.56 21.6938 101.048 21.6938C100.498 21.6938 100.006 21.7958 99.6126 21.9795C99.1996 22.1836 98.8653 22.4489 98.6096 22.7958C98.3343 23.1427 98.1376 23.5509 98 24.0203C97.8623 24.4897 97.8033 24.9999 97.8033 25.5509C97.8033 26.0815 97.8623 26.6121 97.9803 27.1223C98.0983 27.6325 98.295 28.1019 98.5506 28.4897C98.8063 28.8774 99.1406 29.204 99.5536 29.4489C99.9863 29.6734 100.478 29.7754 101.068 29.7754Z" fill="white"/>
<path d="M88.4609 25.7348C88.4609 25.1021 88.5396 24.5103 88.7166 23.9593C88.8936 23.4083 89.1493 22.9185 89.4639 22.4899C89.7983 22.0613 90.2113 21.7348 90.6833 21.4899C91.1749 21.245 91.7256 21.1226 92.3549 21.1226C92.9843 21.1226 93.5349 21.245 94.0266 21.4899C94.5183 21.7348 94.9313 22.0613 95.2459 22.4899C95.5803 22.9185 95.8163 23.4083 95.9933 23.9593C96.1703 24.5103 96.2489 25.1021 96.2489 25.7348C96.2489 26.3675 96.1703 26.9593 95.9933 27.5103C95.8163 28.0817 95.5803 28.5715 95.2459 28.9797C94.9116 29.4083 94.4986 29.7348 94.0266 29.9797C93.5349 30.2246 92.9843 30.347 92.3549 30.347C91.7256 30.347 91.1553 30.2246 90.6833 29.9797C90.1916 29.7348 89.7983 29.4083 89.4639 28.9797C89.1296 28.5715 88.8739 28.0613 88.7166 27.5103C88.5593 26.9593 88.4609 26.3675 88.4609 25.7348ZM89.0903 25.7348C89.0903 26.2654 89.1689 26.7756 89.3066 27.2654C89.4443 27.7552 89.6606 28.1838 89.9359 28.5511C90.2113 28.9185 90.5456 29.2246 90.9586 29.4491C91.3716 29.6736 91.8239 29.7756 92.3549 29.7756C92.8859 29.7756 93.3579 29.6532 93.7513 29.4491C94.1643 29.2246 94.4986 28.9185 94.7739 28.5511C95.0493 28.1634 95.2656 27.7348 95.4033 27.2654C95.5409 26.7756 95.6196 26.2654 95.6196 25.7348C95.6196 25.2042 95.5409 24.7144 95.4033 24.2246C95.2656 23.7348 95.0493 23.3062 94.7739 22.9185C94.4986 22.5307 94.1446 22.245 93.7513 22.0205C93.3383 21.796 92.8663 21.694 92.3549 21.694C91.8239 21.694 91.3519 21.796 90.9586 22.0205C90.5456 22.245 90.2113 22.5511 89.9359 22.9185C89.6606 23.3062 89.4443 23.7348 89.3066 24.2246C89.1689 24.694 89.0903 25.2042 89.0903 25.7348Z" fill="white"/>
<path d="M87.5375 17.8774H86.9082V30.1427H87.5375V17.8774Z" fill="white"/>
<path d="M74.832 24.0816C74.832 23.204 74.95 22.3877 75.2057 21.5918C75.4417 20.8163 75.8154 20.1224 76.2874 19.5306C76.7594 18.9387 77.3297 18.4693 78.0377 18.1224C78.726 17.7755 79.5127 17.5918 80.4174 17.5918C81.027 17.5918 81.5974 17.6734 82.148 17.8571C82.6987 18.0408 83.1904 18.3061 83.623 18.6734C84.0557 19.0204 84.4294 19.4489 84.7244 19.9591C85.0194 20.4693 85.216 21.0408 85.3144 21.6734H84.6064C84.331 20.5918 83.8394 19.7551 83.1117 19.1428C82.384 18.5306 81.4794 18.2245 80.3977 18.2245C79.611 18.2245 78.903 18.3877 78.2934 18.6938C77.6837 19.0204 77.1724 19.4489 76.779 19.9796C76.366 20.5102 76.071 21.1428 75.8547 21.8367C75.6384 22.5306 75.54 23.2857 75.54 24.0408C75.54 24.8163 75.6384 25.551 75.835 26.2449C76.0317 26.9387 76.3464 27.551 76.7397 28.0612C77.1527 28.5714 77.6444 28.9796 78.254 29.2857C78.8637 29.5918 79.5717 29.7347 80.3977 29.7347C81.1057 29.7347 81.735 29.6122 82.3054 29.3673C82.8757 29.1224 83.3477 28.7959 83.741 28.3469C84.1344 27.9183 84.4294 27.3877 84.626 26.7755C84.8227 26.1632 84.9014 25.4898 84.8817 24.7347H80.5354V24.1428H85.511V30.1632H84.8817V27.551H84.8424C84.685 28 84.4884 28.4081 84.1934 28.7551C83.8984 29.1224 83.564 29.4081 83.1707 29.6734C82.7774 29.9183 82.3447 30.102 81.8727 30.2449C81.4007 30.3877 80.8894 30.4489 80.378 30.4489C79.493 30.4489 78.6867 30.2857 77.9984 29.9591C77.31 29.6326 76.72 29.1836 76.248 28.6122C75.776 28.0408 75.422 27.3673 75.1664 26.5918C74.95 25.7959 74.832 24.9591 74.832 24.0816Z" fill="white"/>
<path d="M67.2022 17.8774V23.9999L73.2006 17.8774H75.2459L70.2506 22.8366L75.4426 30.1632H73.4562L69.1689 23.9591L67.2022 25.857V30.1632H65.6289V17.8774H67.2022Z" fill="white"/>
<path d="M58.7838 17.8774C60.6128 17.8774 62.0091 18.3672 62.9924 19.3264C63.9758 20.2856 64.4674 21.755 64.4674 23.7346C64.4674 24.7754 64.3494 25.6734 64.1331 26.4693C63.9168 27.2652 63.5627 27.9387 63.1104 28.4897C62.6384 29.0203 62.0484 29.4489 61.3404 29.7346C60.6324 30.0203 59.7671 30.1632 58.7838 30.1632H54.7324V17.8774H58.7838ZM58.9214 28.7958C59.0984 28.7958 59.3148 28.7958 59.5901 28.755C59.8458 28.7346 60.1408 28.653 60.4358 28.5509C60.7308 28.4489 61.0258 28.2856 61.3208 28.0815C61.6158 27.8774 61.8714 27.5917 62.1074 27.2448C62.3434 26.8979 62.5401 26.4489 62.6778 25.9183C62.8154 25.3876 62.8941 24.7346 62.8941 23.9795C62.8941 23.2448 62.8154 22.5917 62.6778 21.9999C62.5401 21.4285 62.3041 20.9387 61.9894 20.5305C61.6748 20.1223 61.2618 19.8162 60.7701 19.5917C60.2784 19.3877 59.6491 19.2856 58.9411 19.2856H56.2861V28.8162H58.9214V28.7958Z" fill="white"/>
<path d="M50.7796 19.6122C50.17 19.1837 49.462 18.9592 48.636 18.9592C47.928 18.9592 47.3183 19.102 46.8266 19.3674C46.335 19.6327 45.922 20.0204 45.5876 20.4694C45.2533 20.9388 45.0173 21.4694 44.86 22.0612C44.7026 22.6531 44.624 23.2857 44.624 23.9184C44.624 24.6122 44.7026 25.2857 44.86 25.898C45.0173 26.5306 45.2533 27.0612 45.5876 27.5306C45.922 28 46.335 28.3673 46.8463 28.6327C47.3576 28.898 47.9673 29.0408 48.6753 29.0408C49.1866 29.0408 49.6586 28.9388 50.052 28.7755C50.465 28.5918 50.7993 28.3469 51.0943 28.0408C51.3893 27.7143 51.6056 27.3469 51.7826 26.9184C51.94 26.4694 52.0383 26 52.0777 25.5102H53.651C53.4936 27.0612 52.9823 28.2653 52.117 29.1224C51.2516 29.9796 50.052 30.4082 48.5376 30.4082C47.6133 30.4082 46.8266 30.2449 46.1383 29.9184C45.45 29.5918 44.8796 29.1429 44.4273 28.5714C43.975 28 43.6406 27.3265 43.4046 26.551C43.1883 25.7755 43.0703 24.9388 43.0703 24.0408C43.0703 23.1429 43.1883 22.3061 43.444 21.5102C43.68 20.7347 44.034 20.0408 44.506 19.449C44.978 18.8571 45.568 18.4082 46.2563 18.0612C46.9643 17.7347 47.7706 17.551 48.6753 17.551C49.285 17.551 49.875 17.6327 50.4256 17.8163C50.9763 18 51.468 18.2449 51.9006 18.5714C52.3333 18.898 52.6873 19.3265 52.9823 19.8163C53.2773 20.3061 53.4543 20.898 53.5526 21.551H51.9793C51.763 20.7143 51.3893 20.0612 50.7796 19.6122Z" fill="white"/>
<path d="M33.7637 17.6938C30.3113 17.6938 27.5137 20.4915 27.5137 23.9438C27.5137 27.3962 30.3113 30.1938 33.7637 30.1938C37.2161 30.1938 40.0137 27.3962 40.0137 23.9438C40.0137 20.4915 37.2161 17.6938 33.7637 17.6938Z" fill="#82C600"/>
<path d="M20.0176 17.5918C23.47 17.5918 26.2676 20.3894 26.2676 23.8418C26.2676 27.2942 23.47 30.0918 20.0176 30.0918C16.5652 30.0918 13.7676 27.2942 13.7676 23.8418C13.7676 20.3894 16.5652 17.5918 20.0176 17.5918Z" fill="white"/>
<path d="M6.25 17.5918C9.70238 17.5918 12.5 20.3894 12.5 23.8418C12.5 27.2942 9.70238 30.0918 6.25 30.0918C2.79762 30.0918 0 27.2942 0 23.8418C0.0198413 20.3894 2.81746 17.5918 6.25 17.5918Z" fill="white"/>
</g>
<defs>
<clipPath id="clip0_8698_43381">
<rect width="118" height="48" fill="white"/>
</clipPath>
</defs>
</svg>
