<svg width="19" height="15" viewBox="0 0 19 15" fill="none" xmlns="http://www.w3.org/2000/svg">
<path d="M5.60791 5.50004C4.91755 5.50004 4.35791 6.05968 4.35791 6.75004C4.35791 7.44039 4.91755 8.00004 5.60791 8.00004C6.29827 8.00004 6.85791 7.44039 6.85791 6.75004C6.85791 6.05968 6.29827 5.50004 5.60791 5.50004Z" fill="white"/>
<path d="M9.60791 5.50004C8.91755 5.50004 8.35791 6.05968 8.35791 6.75004C8.35791 7.44039 8.91755 8.00004 9.60791 8.00004C10.2983 8.00004 10.8579 7.44039 10.8579 6.75004C10.8579 6.05968 10.2983 5.50004 9.60791 5.50004Z" fill="white"/>
<path d="M12.3579 6.75004C12.3579 6.05968 12.9176 5.50004 13.6079 5.50004C14.2983 5.50004 14.8579 6.05968 14.8579 6.75004C14.8579 7.44039 14.2983 8.00004 13.6079 8.00004C12.9176 8.00004 12.3579 7.44039 12.3579 6.75004Z" fill="white"/>
<path fill-rule="evenodd" clip-rule="evenodd" d="M13.7086 0.592829C11.0144 0.36307 8.30617 0.349736 5.60985 0.552956L5.41662 0.56752C2.84532 0.761318 0.85791 2.90415 0.85791 5.48275V14C0.85791 14.2639 0.996576 14.5084 1.22306 14.6438C1.44954 14.7792 1.73052 14.7856 1.96295 14.6607L5.87374 12.559C6.05565 12.4612 6.25895 12.41 6.46547 12.41H15.4419C16.574 12.41 17.5442 11.6006 17.7471 10.4869C18.1584 8.22966 18.1909 5.9197 17.8432 3.65179L17.7408 2.98346C17.5543 1.76671 16.5589 0.835897 15.3324 0.731301L13.7086 0.592829ZM5.72259 2.04871C8.33894 1.85152 10.9669 1.86446 13.5812 2.0874L15.2049 2.22588C15.7413 2.27162 16.1765 2.67865 16.2581 3.21073L16.3605 3.87906C16.6829 5.98234 16.6528 8.12463 16.2714 10.218C16.1984 10.6188 15.8492 10.91 15.4419 10.91H6.46547C6.01113 10.91 5.56387 11.0226 5.16366 11.2377L2.35791 12.7455V5.48275C2.35791 3.68884 3.74053 2.1981 5.52936 2.06328L5.72259 2.04871Z" fill="white"/>
</svg>
