<svg width="14" height="14" viewBox="0 0 14 14" fill="none" xmlns="http://www.w3.org/2000/svg">
<path d="M3.73721 2.26997C2.87949 2.36584 2.19292 3.0428 2.09369 3.89129C1.8271 6.17057 1.8271 8.47315 2.09369 10.7524C2.19293 11.6009 2.87949 12.2779 3.73721 12.3737C5.96828 12.6231 8.2764 12.6231 10.5075 12.3737C11.3652 12.2779 12.0518 11.6009 12.151 10.7524C12.3425 9.1147 12.3965 7.46495 12.3127 5.82045C12.3106 5.77799 12.3264 5.73656 12.3565 5.7065L13.135 4.92795C13.2252 4.83784 13.3791 4.89419 13.3887 5.02127C13.5356 6.9736 13.4953 8.93649 13.2676 10.883C13.1066 12.2598 12.0012 13.338 10.6323 13.491C8.31828 13.7496 5.9264 13.7496 3.61234 13.491C2.24351 13.338 1.1381 12.2598 0.977079 10.883C0.700349 8.51697 0.700349 6.12674 0.977079 3.7607C1.1381 2.38393 2.24351 1.3057 3.61234 1.15271C5.9264 0.894083 8.31828 0.894083 10.6323 1.15271C11.1144 1.20659 11.5639 1.37525 11.9509 1.6313C12.027 1.68168 12.0346 1.78874 11.97 1.8533L11.3683 2.45505C11.319 2.50427 11.2427 2.51255 11.1813 2.47967C10.9764 2.36987 10.7487 2.29694 10.5075 2.26997C8.2764 2.02062 5.96828 2.02062 3.73721 2.26997Z" fill="white"/>
</svg>
