<svg width="15" height="13" viewBox="0 0 15 13" fill="none" xmlns="http://www.w3.org/2000/svg">
<path d="M3.73721 1.37837C2.87949 1.47424 2.19292 2.1512 2.09369 2.99969C1.8271 5.27897 1.8271 7.58155 2.09369 9.86082C2.19293 10.7093 2.87949 11.3863 3.73721 11.4821C5.96828 11.7315 8.2764 11.7315 10.5075 11.4821C11.3652 11.3863 12.0518 10.7093 12.151 9.86082C12.3425 8.2231 12.3965 6.57335 12.3127 4.92885C12.3106 4.88638 12.3264 4.84496 12.3565 4.81489L13.135 4.03635C13.2252 3.94624 13.3791 4.00259 13.3887 4.12967C13.5356 6.082 13.4953 8.04489 13.2676 9.99142C13.1066 11.3682 12.0012 12.4464 10.6323 12.5994C8.31828 12.858 5.9264 12.858 3.61234 12.5994C2.24351 12.4464 1.1381 11.3682 0.977079 9.99142C0.700349 7.62537 0.700349 5.23514 0.977079 2.86909C1.1381 1.49233 2.24351 0.414098 3.61234 0.261111C5.9264 0.00248123 8.31828 0.00248123 10.6323 0.261111C11.1144 0.314993 11.5639 0.483649 11.9509 0.739696C12.027 0.79008 12.0346 0.897134 11.97 0.9617L11.3683 1.56344C11.319 1.61267 11.2427 1.62095 11.1813 1.58807C10.9764 1.47827 10.7487 1.40534 10.5075 1.37837C8.2764 1.12902 5.96828 1.12902 3.73721 1.37837Z" fill="white"/>
<path d="M13.8904 1.95612C14.1099 1.7366 14.1099 1.38069 13.8904 1.16117C13.6709 0.941657 13.3149 0.941657 13.0954 1.16117L6.74759 7.50901L4.89663 5.65805C4.67711 5.43853 4.3212 5.43853 4.10168 5.65805C3.88217 5.87757 3.88217 6.23347 4.10168 6.45299L6.35012 8.70143C6.56964 8.92095 6.92554 8.92095 7.14506 8.70143L13.8904 1.95612Z" fill="white"/>
</svg>
