<svg width="20" height="20" viewBox="0 0 20 20" fill="none" xmlns="http://www.w3.org/2000/svg">
<path fill-rule="evenodd" clip-rule="evenodd" d="M6.95695 3.55242L6.27915 3.63683C4.71469 3.83167 3.54036 5.16133 3.54036 6.73787V15.4791C3.54036 17.0098 4.68058 18.3008 6.19959 18.49C8.72258 18.8042 11.2748 18.8042 13.7978 18.49C15.3168 18.3008 16.457 17.0098 16.457 15.4791V6.73787C16.457 5.16133 15.2827 3.83167 13.7182 3.63683L13.0404 3.55242C12.772 2.58505 11.8849 1.875 10.832 1.875H9.16536C8.11248 1.875 7.22543 2.58505 6.95695 3.55242ZM13.1237 4.82244L13.5638 4.87725C14.5024 4.99415 15.207 5.79195 15.207 6.73787V15.4791C15.207 16.3792 14.5365 17.1384 13.6433 17.2496C11.2229 17.551 8.77447 17.551 6.35408 17.2496C5.46085 17.1384 4.79036 16.3792 4.79036 15.4791V6.73787C4.79036 5.79195 5.49496 4.99415 6.43364 4.87725L6.8737 4.82244V5.83333C6.8737 6.17851 7.15352 6.45833 7.4987 6.45833H12.4987C12.8439 6.45833 13.1237 6.17851 13.1237 5.83333V4.82244ZM11.8737 4.16667C11.8737 3.59137 11.4073 3.125 10.832 3.125H9.16536C8.59007 3.125 8.1237 3.59137 8.1237 4.16667V5.20833H11.8737V4.16667Z" fill="white"/>
<path d="M6.8737 9.79167C6.8737 9.44649 7.15352 9.16667 7.4987 9.16667H12.4987C12.8439 9.16667 13.1237 9.44649 13.1237 9.79167C13.1237 10.1368 12.8439 10.4167 12.4987 10.4167H7.4987C7.15352 10.4167 6.8737 10.1368 6.8737 9.79167Z" fill="white"/>
<path d="M7.70703 12.2917C7.70703 11.9465 7.98685 11.6667 8.33203 11.6667H12.4987C12.8439 11.6667 13.1237 11.9465 13.1237 12.2917C13.1237 12.6368 12.8439 12.9167 12.4987 12.9167H8.33203C7.98685 12.9167 7.70703 12.6368 7.70703 12.2917Z" fill="white"/>
</svg>
