<svg width="18" height="18" viewBox="0 0 18 18" fill="none" xmlns="http://www.w3.org/2000/svg">
<path d="M6 0.133301C2.82436 0.133301 0.25 2.70766 0.25 5.8833V12.9902C0.25 13.4044 0.585786 13.7402 1 13.7402C1.41421 13.7402 1.75 13.4044 1.75 12.9902V5.8833C1.75 3.53609 3.65279 1.6333 6 1.6333H13.0129C13.4271 1.6333 13.7629 1.29751 13.7629 0.883301C13.7629 0.469087 13.4271 0.133301 13.0129 0.133301H6Z" fill="white"/>
<path fill-rule="evenodd" clip-rule="evenodd" d="M15.4026 3.67656C12.1616 3.31434 8.83843 3.31434 5.59748 3.67656C4.6742 3.77975 3.93227 4.50635 3.82344 5.43678C3.43906 8.72326 3.43906 12.0433 3.82344 15.3298C3.93227 16.2603 4.6742 16.9868 5.59748 17.09C8.83843 17.4523 12.1616 17.4523 15.4026 17.09C16.3258 16.9868 17.0678 16.2603 17.1766 15.3298C17.561 12.0433 17.561 8.72326 17.1766 5.43678C17.0678 4.50634 16.3258 3.77975 15.4026 3.67656ZM5.76409 5.16728C8.89431 4.81743 12.1057 4.81743 15.2359 5.16728C15.4733 5.19381 15.6599 5.38151 15.6867 5.61103C16.0576 8.78174 16.0576 11.9849 15.6867 15.1556C15.6599 15.3851 15.4733 15.5728 15.2359 15.5993C12.1057 15.9492 8.89431 15.9492 5.76409 15.5993C5.52674 15.5728 5.34013 15.3851 5.31329 15.1556C4.94245 11.9849 4.94245 8.78174 5.31329 5.61103C5.34013 5.38151 5.52674 5.19381 5.76409 5.16728Z" fill="white"/>
</svg>
