<svg width="17" height="18" viewBox="0 0 17 18" fill="none" xmlns="http://www.w3.org/2000/svg">
<path d="M3.50739 9.00006C3.50739 8.58585 3.84317 8.25006 4.25739 8.25006H7.75V4.75742C7.75 4.3432 8.08579 4.00742 8.5 4.00742C8.91421 4.00742 9.25 4.3432 9.25 4.75742V8.25006H12.7427C13.1569 8.25006 13.4927 8.58585 13.4927 9.00006C13.4927 9.41427 13.1569 9.75006 12.7427 9.75006H9.25V13.2427C9.25 13.6569 8.91421 13.9927 8.5 13.9927C8.08579 13.9927 7.75 13.6569 7.75 13.2427V9.75006H4.25739C3.84317 9.75006 3.50739 9.41427 3.50739 9.00006Z" fill="white"/>
<path fill-rule="evenodd" clip-rule="evenodd" d="M3.81673 0.768819C6.90429 0.42374 10.0957 0.42374 13.1832 0.768819C15.0096 0.972944 16.4845 2.41159 16.6994 4.24855C17.0686 7.40547 17.0686 10.5947 16.6994 13.7516C16.4845 15.5885 15.0096 17.0272 13.1832 17.2313C10.0957 17.5764 6.90429 17.5764 3.81673 17.2313C1.99035 17.0272 0.515454 15.5885 0.300605 13.7516C-0.068626 10.5947 -0.068626 7.40547 0.300605 4.24855C0.515454 2.41159 1.99035 0.972944 3.81673 0.768819ZM13.0166 2.25954C10.0398 1.92683 6.96017 1.92683 3.98334 2.25954C2.83891 2.38744 1.92286 3.29069 1.79045 4.4228C1.43476 7.46395 1.43476 10.5362 1.79045 13.5773C1.92286 14.7094 2.83891 15.6127 3.98334 15.7406C6.96017 16.0733 10.0398 16.0733 13.0166 15.7406C14.1611 15.6127 15.0771 14.7094 15.2095 13.5773C15.5652 10.5362 15.5652 7.46395 15.2095 4.4228C15.0771 3.29069 14.1611 2.38744 13.0166 2.25954Z" fill="white"/>
</svg>
