<svg width="118" height="48" viewBox="0 0 118 48" fill="none" xmlns="http://www.w3.org/2000/svg">
<path fill-rule="evenodd" clip-rule="evenodd" d="M7.76274 15.2459C6.632 15.4422 4.64606 16.2784 4.28469 16.7104C4.26758 16.7309 4.14899 16.822 4.02096 16.9129C3.7 17.141 3.70206 17.1457 4.47378 17.8905C5.2635 18.6532 5.1806 18.622 5.60334 18.3152C7.67365 16.813 10.6844 16.7793 12.8353 18.2339C13.3376 18.5736 13.284 18.5905 14.0586 17.8497C14.9032 17.0417 14.9191 17.1193 13.756 16.3709C12.1161 15.3162 9.8301 14.887 7.76274 15.2459ZM115.819 17.3246C114.975 17.8598 115.363 19.1134 116.374 19.1134C117.407 19.1134 117.82 18.0325 117.038 17.3772C116.746 17.1325 116.162 17.1075 115.819 17.3246ZM49.4731 17.4621C49.3949 17.6562 49.4309 28.5906 49.51 28.6657C49.5999 28.7515 51.3339 28.767 51.3885 28.6823C51.4348 28.6112 51.4348 17.4945 51.3885 17.4231C51.321 17.3187 49.5159 17.3556 49.4731 17.4621ZM94.1662 23.0362L94.1821 28.7074L95.0518 28.722C96.1663 28.7411 96.0613 28.8798 96.0863 27.356L96.1073 26.0645L96.3987 25.8021C96.8011 25.4398 96.7135 25.4032 97.4716 26.2501C97.7779 26.5921 98.044 26.8851 98.0628 26.9015C98.082 26.9178 98.2366 27.0907 98.4068 27.2859C98.5767 27.4811 98.7437 27.6704 98.7779 27.7064C98.8121 27.7427 99.0216 27.977 99.2437 28.2273C99.4659 28.4776 99.7033 28.6956 99.7718 28.7116C100.028 28.7723 102.059 28.7091 102.083 28.6399C102.096 28.6027 101.707 28.1269 101.218 27.5824C98.7797 24.8635 98.2505 24.2619 98.2502 24.2088C98.2502 24.177 98.4682 23.9506 98.7346 23.7056C99.6364 22.8762 101.385 21.2945 101.712 21.0112C102.228 20.5655 102.229 20.5657 100.753 20.5657H99.4676L97.8643 22.0907C96.3917 23.491 96.1651 23.6921 96.1244 23.635C96.1164 23.6241 96.0955 22.2164 96.0778 20.5067L96.0453 17.398L95.0978 17.3817L94.1505 17.3654L94.1662 23.0362ZM117.062 17.8669L117.211 18.1495L117.078 18.4105C117.005 18.5537 116.906 18.6712 116.858 18.6712C116.747 18.6712 116.661 18.2657 116.753 18.1779C116.976 17.9656 116.766 17.6053 116.42 17.6053C116.332 17.6053 116.26 17.5831 116.26 17.5561C116.26 17.2931 116.887 17.5361 117.062 17.8669ZM116.012 18.1715C116.012 18.6909 115.981 18.7483 115.799 18.5573C115.628 18.3773 115.611 18.0241 115.761 17.7949C115.948 17.5108 116.012 17.6073 116.012 18.1715ZM70.6753 17.8956C68.531 18.3385 67.4463 19.9 67.9159 21.8688C68.1926 23.0289 69.321 23.8434 71.2031 24.242C73.2566 24.6765 74.136 25.5661 73.3637 26.4264C72.3506 27.5548 70.3172 27.2218 69.0608 25.7216C68.6563 25.2387 68.5962 25.1892 68.4967 25.2567C68.2625 25.4159 67.1961 26.6739 67.2377 26.7423C69.1263 29.8515 74.9561 29.4892 75.577 26.2245C75.9511 24.2566 74.7484 22.9791 71.9273 22.3477C70.3803 22.0012 69.8555 21.6249 69.8555 20.8619C69.8555 19.2188 73.0049 19.2357 73.936 20.8838C74.1324 21.2317 74.1861 21.2132 74.8746 20.559C75.6419 19.83 75.6422 19.8286 75.3074 19.3949C74.3195 18.1155 72.4854 17.5218 70.6753 17.8956ZM14.7501 18.4955C13.9217 19.2748 13.9616 19.1721 14.3064 19.6376C15.8746 21.7526 15.867 24.5916 14.2878 26.6295C13.9542 27.0604 13.9386 27.0187 14.7041 27.7461C15.5487 28.549 15.4979 28.5546 16.1729 27.5824C18.0916 24.8185 18.0789 21.3133 16.1407 18.6091C15.941 18.3306 15.7074 18.0398 15.6215 17.9628L15.4652 17.823L14.7501 18.4955ZM116.509 17.931C116.509 17.9799 116.454 18.0199 116.387 18.0199C116.304 18.0199 116.276 17.9915 116.3 17.931C116.32 17.8821 116.375 17.8421 116.422 17.8421C116.47 17.8421 116.509 17.8821 116.509 17.931ZM2.84509 18.0643C1.24619 19.7051 0.556772 22.8534 1.26743 25.2685C1.39103 25.6893 1.51552 26.0622 1.54355 26.0974C1.57157 26.1325 1.64326 26.2813 1.70285 26.4278C1.91495 26.9501 2.90881 28.3817 3.05896 28.3817C3.13478 28.3817 4.3844 27.2215 4.47555 27.0666C4.52128 26.9884 4.47791 26.8939 4.28498 26.652C2.72178 24.6939 2.71322 21.594 4.2661 19.6247C4.55373 19.2596 4.54753 19.2453 3.80236 18.5368C3.06073 17.8317 3.06811 17.8354 2.84509 18.0643ZM20.3852 23.3307L20.4011 28.7074L23.1027 28.7068C25.0984 28.7062 25.8855 28.6863 26.1147 28.63C31.2043 27.3835 31.4672 19.7535 26.4755 18.1535L25.9905 17.9979L23.18 17.976L20.3693 17.9541L20.3852 23.3307ZM8.69435 18.2316C8.6088 18.2463 8.37693 18.2859 8.17869 18.3202C6.55117 18.6006 4.72512 20.2254 4.39 21.6907C4.37142 21.7723 4.31212 22.0254 4.25843 22.2532C4.14338 22.7409 4.13099 23.5267 4.23218 23.9253C4.69415 25.7436 5.53932 26.8238 7.04854 27.5256C11.1526 29.4341 15.641 25.5728 14.0858 21.4711C13.2757 19.3341 10.8358 17.8683 8.69435 18.2316ZM116.491 18.4786C116.551 18.5683 116.643 18.6724 116.694 18.7103C116.81 18.7961 116.413 18.8839 116.199 18.8195C116.076 18.7821 116.073 18.7705 116.163 18.676C116.217 18.6192 116.26 18.5151 116.26 18.4446C116.26 18.2685 116.36 18.2831 116.491 18.4786ZM112.115 18.5919C112.058 18.6139 112.037 18.8583 112.037 19.5274C112.037 20.6214 112.093 20.557 111.133 20.5787L110.392 20.5956V21.4837V22.3719L111.133 22.3885C112.143 22.4113 112.037 22.0353 112.037 25.5996C112.037 28.3403 112.048 28.6688 112.136 28.7009C112.347 28.7785 113.883 28.7403 113.956 28.6556C114.007 28.5971 114.026 27.7272 114.024 25.5394C114.022 23.8701 114.038 22.4878 114.059 22.4676C114.08 22.4476 114.493 22.4178 114.977 22.4015L115.857 22.3719V21.4837V20.5956L115.08 20.5809C113.915 20.5593 114.025 20.6549 114.024 19.6618C114.023 18.4437 114.116 18.5517 113.07 18.5573C112.588 18.5599 112.158 18.5756 112.115 18.5919ZM25.6029 19.9701C27.1625 20.3503 27.9077 21.4413 27.9109 23.3487C27.9148 25.5506 26.956 26.6489 24.9037 26.7946C24.0258 26.857 22.518 26.8379 22.4402 26.7634C22.3593 26.686 22.3393 20.1166 22.4195 19.974C22.5183 19.7976 24.8845 19.7948 25.6029 19.9701ZM9.94928 20.4392C12.1845 20.9491 12.9294 23.6567 11.2431 25.1422C9.31326 26.8427 6.21989 25.4274 6.41577 22.9344C6.55324 21.1887 8.18488 20.0367 9.94928 20.4392ZM34.0962 20.4752C31.9291 20.867 30.4415 23.0022 30.7432 25.2877C30.809 25.7857 31.0618 26.5409 31.2468 26.7921C31.3105 26.8787 31.3627 26.969 31.3627 26.9931C31.3627 27.0441 31.7471 27.4994 31.9663 27.7084C33.036 28.7282 34.7169 29.118 36.3839 28.7324C37.2383 28.535 38.5669 27.7964 38.5669 27.5188C38.5669 27.428 37.946 26.5372 37.7341 26.3241L37.6017 26.191L37.2303 26.4582C35.609 27.6251 33.4384 27.1906 32.8581 25.5832C32.7908 25.3962 32.7413 25.2376 32.7478 25.2306C32.7546 25.2235 34.1434 25.2036 35.8344 25.1861L38.9085 25.1546L38.9065 24.3258C38.9 21.675 36.7922 19.9878 34.0962 20.4752ZM43.0695 20.4226C40.2918 20.786 38.7534 23.4562 39.7239 26.2298C40.57 28.6477 43.2689 29.6349 45.3466 28.2861C45.8826 27.9381 45.8953 27.939 45.8953 28.3251C45.8953 28.7293 45.931 28.7428 46.9597 28.7237L47.8518 28.7074L47.8677 24.6366L47.8836 20.5657H46.9638C45.9552 20.5657 45.8953 20.5846 45.8953 20.8999C45.8953 21.1789 45.8437 21.1775 45.3688 20.8861C44.7407 20.5008 43.848 20.3208 43.0695 20.4226ZM55.9873 20.4305C53.7786 20.7218 52.3951 22.3562 52.3889 24.681L52.3862 25.7469L52.6113 26.2594C53.7742 28.9054 57.3508 29.7511 59.7686 27.9519C60.2801 27.5714 60.2801 27.5722 59.8111 26.9074C59.2517 26.1145 59.3172 26.1415 58.8122 26.4917C57.5732 27.3509 55.9888 27.3222 55.0235 26.4228C54.6686 26.0923 54.289 25.3425 54.4193 25.23C54.4279 25.2227 55.8041 25.2027 57.4779 25.1858L60.5211 25.1546L60.571 24.7105C60.8589 22.154 58.6387 20.0809 55.9873 20.4305ZM65.3344 20.4653C64.9039 20.5596 64.4482 20.7961 64.0384 21.1381C63.6832 21.4342 63.6703 21.4269 63.6437 20.9212L63.6263 20.5956H62.6637H61.7011V24.6515V28.7074L62.5395 28.7242C63.0006 28.7338 63.4396 28.7271 63.5145 28.7091L63.6511 28.677L63.67 26.1756C63.6871 23.8566 63.6971 23.6592 63.8057 23.4671C64.252 22.6782 65.1476 22.2589 65.9553 22.4608C66.5896 22.6197 66.5353 22.6836 66.835 21.4244C66.9049 21.1313 66.9763 20.8315 66.9937 20.7581C67.0586 20.4867 66.0494 20.309 65.3344 20.4653ZM80.0531 20.4527C77.5353 20.7612 75.8756 23.3465 76.5969 25.8361C77.7273 29.7384 83.3715 29.9612 84.8412 26.1612C85.0038 25.741 85.0377 25.5534 85.0672 24.9122C85.1994 22.0156 83.0317 20.0876 80.0531 20.4527ZM89.0925 20.4501C85.6377 20.9662 84.4265 25.5883 87.134 27.9241C88.6228 29.2088 90.8961 29.2091 92.6086 27.9252C93.295 27.4108 93.4021 27.1897 93.1189 26.8719C93.0319 26.7741 92.8207 26.5277 92.6496 26.3241C92.2723 25.8749 92.2419 25.8729 91.8351 26.2689C90.1285 27.9303 87.565 26.9614 87.5688 24.6565C87.5726 22.226 90.3754 21.2793 91.969 23.1701C92.2407 23.4924 92.2501 23.4882 92.816 22.8042C93.3706 22.1337 93.3703 22.1343 93.0127 21.7169C92.167 20.7294 90.6041 20.2243 89.0925 20.4501ZM105.485 20.4212C105.417 20.4364 105.207 20.478 105.02 20.5143C101.274 21.2326 100.586 26.7448 104.035 28.4011C105.699 29.2001 108.002 28.956 109.332 27.8397C109.691 27.5379 109.693 27.5514 109.203 26.8607C108.688 26.1351 108.73 26.1547 108.319 26.4436C106.75 27.5489 104.659 27.2328 103.989 25.7888C103.686 25.1355 103.46 25.1816 106.955 25.1856C108.557 25.1872 109.895 25.1726 109.928 25.1535C110.183 25.0033 109.9 23.0846 109.521 22.384C108.765 20.9913 106.935 20.1011 105.485 20.4212ZM35.8025 22.3084C36.3326 22.5196 37.0079 23.297 36.8595 23.5256C36.8102 23.6016 32.9375 23.6083 32.8885 23.5326C32.774 23.3563 33.3254 22.654 33.7345 22.4549C34.3263 22.1672 35.2783 22.0997 35.8025 22.3084ZM44.1295 22.2288C46.3316 22.6132 46.6901 25.9781 44.6277 26.9085C43.5872 27.3776 42.2317 26.9124 41.7568 25.9233C40.8139 23.9599 42.1479 21.8828 44.1295 22.2288ZM57.4682 22.332C58.0104 22.5606 58.626 23.2885 58.4747 23.522C58.4207 23.6049 54.5521 23.6114 54.4981 23.5284C54.4447 23.446 54.6949 22.9971 54.9229 22.7662C55.4586 22.2237 56.7065 22.0108 57.4682 22.332ZM81.4915 22.2811C83.1125 22.7584 83.655 25.1737 82.4222 26.4242C81.1564 27.7078 78.9519 27.1054 78.5359 25.3622C78.0518 23.333 79.5961 21.7228 81.4915 22.2811ZM106.901 22.3306C107.423 22.5508 108.019 23.2416 107.913 23.504C107.876 23.5965 103.999 23.6291 103.94 23.5371C103.884 23.4511 104.191 22.9102 104.407 22.7153C104.958 22.2167 106.182 22.0277 106.901 22.3306ZM4.48794 28.3468C3.72124 29.0865 3.72684 29.0778 3.92774 29.2522C4.73427 29.9525 6.38391 30.7352 7.4521 30.9236C7.67424 30.963 7.97307 31.0198 8.11615 31.0502C8.45156 31.1213 10.113 31.1219 10.4523 31.051C10.5956 31.0212 10.8803 30.9652 11.0853 30.927C12.1576 30.7267 13.5872 30.0768 14.4389 29.4026C14.787 29.1273 14.7885 29.1315 14.0279 28.4042C13.2146 27.6265 13.3146 27.6656 12.8943 27.9615C10.8316 29.4141 7.95685 29.4471 5.79302 28.0422C5.56115 27.8917 5.36232 27.7469 5.35082 27.7199C5.30008 27.6004 5.14402 27.7134 4.48794 28.3468Z" fill="white"/>
</svg>
