<svg width="118" height="48" viewBox="0 0 118 48" fill="none" xmlns="http://www.w3.org/2000/svg">
<path d="M48.6226 26.3691C48.6226 24.2573 48.6226 22.148 48.6172 20.0361C48.6172 19.8305 48.6362 19.7417 48.9057 19.7417C52.1283 19.7519 55.3481 19.7519 58.5707 19.7417C58.8619 19.7417 58.9354 19.8128 58.93 20.0768C58.9109 20.8078 58.9164 21.5388 58.93 22.2698C58.9354 22.5084 58.8511 22.5693 58.5952 22.5693C56.5049 22.5592 54.4173 22.5693 52.327 22.5592C52.0711 22.5592 51.9895 22.6125 51.9976 22.8587C52.0167 23.4171 52.0167 23.9755 51.9976 24.5339C51.9895 24.7624 52.0575 24.8233 52.3025 24.8208C54.0662 24.8106 55.8299 24.8208 57.5909 24.8081C57.8767 24.8081 57.9638 24.8766 57.9556 25.1457C57.9338 25.8564 57.9365 26.5671 57.9556 27.2778C57.9638 27.5469 57.9012 27.6408 57.5854 27.6382C55.8326 27.623 54.0798 27.6357 52.3297 27.6256C52.0793 27.6256 51.9895 27.6738 51.9976 27.9225C52.0167 28.5825 52.0167 29.2424 51.9976 29.9024C51.9922 30.1384 52.0766 30.1867 52.3134 30.1841C54.5234 30.1765 56.7308 30.1841 58.9409 30.1714C59.2321 30.1714 59.3002 30.2476 59.2947 30.509C59.2729 31.2502 59.2811 31.9914 59.292 32.7325C59.2947 32.9331 59.2294 32.9889 59.0144 32.9889C55.6394 32.9838 52.2671 32.9813 48.8921 32.9889C48.6417 32.9889 48.6172 32.8975 48.6199 32.7046C48.6254 30.5928 48.6226 28.4835 48.6226 26.3716V26.3691Z" fill="white"/>
<path d="M12.8898 26.3615C12.8898 24.2598 12.8952 22.1607 12.8843 20.059C12.8843 19.8052 12.9578 19.7417 13.2273 19.7417C16.439 19.7519 19.648 19.7493 22.8596 19.7417C23.1209 19.7417 23.2189 19.7874 23.2108 20.0539C23.1917 20.7849 23.1917 21.5159 23.2108 22.247C23.2162 22.4983 23.1482 22.5719 22.8705 22.5693C20.7693 22.5592 18.6708 22.5693 16.5696 22.5566C16.3274 22.5566 16.2485 22.6074 16.2539 22.8384C16.2702 23.3968 16.2702 23.9552 16.2539 24.5136C16.2457 24.7472 16.3111 24.8208 16.5751 24.8182C18.3279 24.8055 20.0807 24.8182 21.8308 24.8055C22.1547 24.803 22.2255 24.8944 22.2173 25.1812C22.1955 25.9021 22.2037 26.6229 22.2173 27.3438C22.22 27.5596 22.1738 27.6357 21.9152 27.6357C20.1406 27.623 18.366 27.6357 16.5941 27.6256C16.3219 27.6256 16.2457 27.6941 16.2512 27.9454C16.2702 28.5952 16.2675 29.245 16.2512 29.8948C16.2457 30.1232 16.3192 30.1841 16.5615 30.1841C18.7715 30.1765 20.9789 30.1841 23.189 30.1714C23.4938 30.1714 23.5646 30.2527 23.5564 30.5217C23.5374 31.2527 23.5374 31.9838 23.5564 32.7148C23.5619 32.9584 23.4666 32.9889 23.2407 32.9889C19.8875 32.9813 16.537 32.9813 13.1837 32.9889C12.9333 32.9889 12.8789 32.9204 12.8789 32.6995C12.8871 30.5877 12.8843 28.4784 12.8843 26.3666L12.8898 26.3615Z" fill="white"/>
<path d="M38.1734 26.3363C38.1734 24.2447 38.1789 22.1557 38.168 20.0642C38.168 19.8205 38.2142 19.7342 38.5 19.7393C39.3819 19.7596 40.2637 19.7672 41.1456 19.7368C41.5076 19.7241 41.5593 19.8408 41.5593 20.1404C41.5484 23.3487 41.5511 26.5545 41.5539 29.7629C41.5539 30.2249 41.4913 30.1741 41.9812 30.1741C43.8864 30.1741 45.7917 30.1792 47.6942 30.169C47.9391 30.169 48.0072 30.2249 48.0017 30.4533C47.9854 31.2047 47.9881 31.956 48.0017 32.7073C48.0045 32.9104 47.9636 32.9865 47.7241 32.9865C44.6322 32.9789 41.543 32.9789 38.451 32.9865C38.2006 32.9865 38.1734 32.8977 38.1761 32.7022C38.1816 30.5802 38.1789 28.4608 38.1789 26.3388L38.1734 26.3363Z" fill="white"/>
<path d="M72.4669 32.8216C71.4707 31.2986 70.48 29.7731 69.4756 28.2527C69.3586 28.075 69.3695 28.0141 69.5818 27.9303C70.6514 27.5064 71.3319 26.7551 71.6449 25.717C71.9688 24.6382 71.9715 23.5493 71.6503 22.4731C71.3128 21.341 70.5235 20.577 69.345 20.1582C68.719 19.9348 68.0685 19.8079 67.4044 19.785C65.099 19.7038 62.7909 19.7698 60.4856 19.7444C60.2543 19.7419 60.2488 19.8485 60.2488 20.0059C60.2488 24.2473 60.2515 28.4887 60.2461 32.7302C60.2461 32.9333 60.3141 32.9866 60.5237 32.984C61.46 32.9739 62.3963 32.9713 63.3299 32.984C63.5857 32.9891 63.632 32.9104 63.6293 32.6921C63.6184 31.4128 63.6211 30.1361 63.6238 28.8568C63.6238 28.3415 63.5966 28.4329 64.0675 28.4278C64.5029 28.4228 64.9384 28.4481 65.3739 28.4202C65.6706 28.3999 65.8148 28.5065 65.9537 28.74C66.7593 30.098 67.584 31.4433 68.4005 32.7962C68.4631 32.9003 68.5176 32.984 68.6618 32.984C69.9438 32.984 71.223 32.984 72.5567 32.984C72.5022 32.8952 72.4832 32.8596 72.4614 32.8266L72.4669 32.8216ZM66.9144 25.5951C65.9047 25.6104 64.8922 25.5951 63.8824 25.6027C63.6783 25.6027 63.6238 25.5393 63.6265 25.3591C63.6347 24.5087 63.6347 23.6559 63.6265 22.8056C63.6265 22.6228 63.6783 22.5568 63.8824 22.5619C64.4159 22.5746 64.9466 22.567 65.4801 22.567C65.9809 22.567 66.4817 22.5594 66.9798 22.572C67.9024 22.5974 68.3978 23.0594 68.4386 23.9173C68.4414 23.9986 68.4386 24.0798 68.4386 24.161C68.4305 25.1052 67.9351 25.585 66.9172 25.6002L66.9144 25.5951Z" fill="white"/>
<path d="M11.7608 23.3436C11.26 21.7876 10.1495 20.7266 8.49466 20.1835C7.62369 19.8966 6.72006 19.7697 5.80282 19.7596C3.97379 19.7418 2.14476 19.7545 0.318448 19.7393C0.0462701 19.7393 0.00272177 19.823 0.00544355 20.0489C0.0136089 22.1506 0.0108871 24.2523 0.0108871 26.3514C0.00544355 28.4557 0.00816532 30.5573 0 32.659C0 32.8976 0.0381048 32.989 0.332056 32.9865C2.00867 32.9712 3.68528 32.9763 5.36189 32.9814C6.10494 32.9814 6.83982 32.9306 7.56653 32.791C9.64869 32.3874 11.1348 31.3112 11.7635 29.3771C12.414 27.3769 12.4058 25.3463 11.7635 23.3461L11.7608 23.3436ZM8.62802 27.9632C8.29597 29.3314 7.34062 30.0675 5.81099 30.1538C5.07339 30.1944 4.33306 30.1614 3.59274 30.1766C3.34234 30.1817 3.38044 30.037 3.38044 29.8974C3.38044 28.7196 3.38044 27.5444 3.38044 26.3667C3.38044 25.1889 3.38861 24.0137 3.375 22.8359C3.375 22.605 3.44032 22.5466 3.68528 22.5542C4.37117 22.5745 5.05706 22.544 5.74022 22.5745C7.32701 22.6405 8.30141 23.3918 8.64163 24.8234C8.88931 25.8666 8.88659 26.9225 8.63347 27.9632H8.62802Z" fill="white"/>
<path d="M37.655 32.7047C37.4481 32.2478 37.2685 31.7782 37.078 31.3137C35.5048 27.4556 33.9289 23.6 32.3612 19.7393C32.2795 19.5387 32.187 19.46 31.9447 19.4651C31.1826 19.4829 30.4205 19.4804 29.6612 19.4651C29.4407 19.46 29.34 19.5235 29.2611 19.7189C27.4973 24.0594 25.7282 28.3998 23.9509 32.7352C23.8583 32.9636 23.9345 32.9814 24.1468 32.9789C25.1702 32.9712 26.1936 32.9687 27.2143 32.9789C27.413 32.9789 27.4973 32.9255 27.5599 32.7479C27.8321 31.9788 28.1261 31.2148 28.3982 30.4457C28.4608 30.268 28.5507 30.2172 28.7466 30.2172C30.1184 30.2248 31.4875 30.2248 32.8592 30.2172C33.0579 30.2172 33.1423 30.2807 33.2049 30.4507C33.4825 31.2198 33.7792 31.9813 34.0541 32.7529C34.1167 32.9281 34.2092 32.9865 34.3998 32.9814C34.9115 32.9712 35.4231 32.9789 35.9348 32.9789C36.4356 32.9789 36.9365 32.9662 37.4373 32.9839C37.6958 32.9915 37.7666 32.9484 37.6577 32.7047H37.655ZM31.9121 27.6713C31.1745 27.6586 30.4341 27.6663 29.6965 27.6663C29.5768 27.6663 29.4434 27.6942 29.5196 27.4987C29.9442 26.3743 30.3606 25.2473 30.8097 24.0391C31.2507 25.2219 31.6644 26.3311 32.0808 27.4404C32.1407 27.5952 32.138 27.6764 31.9121 27.6713Z" fill="white"/>
<path d="M83.9071 23.912C83.4417 24.3511 82.9735 24.7852 82.5163 25.2319C82.372 25.3715 82.2849 25.3867 82.1298 25.2395C81.531 24.6659 80.9213 24.0998 80.3089 23.5389C80.1674 23.4094 80.132 23.3307 80.298 23.1785C81.482 22.087 82.6551 20.9879 83.8282 19.8863C83.9452 19.7772 84.0677 19.7315 84.231 19.734C85.0911 19.7391 85.9512 19.7467 86.8113 19.7289C87.0725 19.7239 87.1134 19.8203 87.1106 20.031C87.1025 21.4524 87.1079 22.8739 87.1079 24.2928C87.1079 27.0645 87.1025 29.8338 87.1134 32.6056C87.1134 32.8975 87.0616 33.0117 86.7105 32.999C85.9185 32.9685 85.121 32.9787 84.329 32.999C84.0486 33.0066 83.9888 32.9203 83.9888 32.6741C83.9969 29.8922 83.9942 27.1128 83.9942 24.3308C83.9942 24.2014 83.9942 24.0719 83.9942 23.9425C83.967 23.9323 83.9371 23.9222 83.9098 23.912H83.9071Z" fill="white"/>
<path d="M76.0102 23.9399C76.0102 24.1912 76.0102 24.445 76.0102 24.6963C76.0102 27.3564 76.0075 30.0139 76.0156 32.6741C76.0156 32.9253 75.953 33.0015 75.6781 32.9939C74.9487 32.9761 74.2193 32.9863 73.4898 32.9888C73.0979 32.9888 72.9019 32.8111 72.9019 32.4558C72.9019 29.6738 72.9019 26.8944 72.9019 24.1125C72.9019 22.7418 72.9074 21.3712 72.8965 20.003C72.8965 19.7847 72.9591 19.7314 73.185 19.734C74.056 19.7441 74.9269 19.7416 75.7979 19.734C75.9503 19.734 76.0619 19.7695 76.1708 19.871C77.3602 20.9853 78.5523 22.0971 79.7499 23.2063C79.8751 23.3231 79.8642 23.3891 79.7472 23.4982C79.113 24.082 78.4816 24.6684 77.8556 25.2623C77.7222 25.3892 77.6433 25.3765 77.5181 25.2496C77.0526 24.7851 76.5763 24.3333 76.1027 23.8739C76.0701 23.8942 76.0401 23.917 76.0075 23.9373L76.0102 23.9399Z" fill="white"/>
<path d="M87.6319 16.9268C87.6373 18.0081 86.7283 18.8838 85.5933 18.8914C84.4039 18.899 83.4648 18.0436 83.4648 16.9446C83.4648 15.8556 84.3821 15.0028 85.5606 15.0002C86.7174 15.0002 87.6264 15.8429 87.6319 16.9268Z" fill="white"/>
<path d="M76.5441 16.9344C76.5577 17.9877 75.646 18.8711 74.5246 18.8863C73.3379 18.9041 72.3934 18.069 72.3771 16.9902C72.3635 15.8962 73.2508 15.0129 74.3831 15.0002C75.6187 14.985 76.5278 15.7972 76.5414 16.9344H76.5441Z" fill="white"/>
<path d="M80.0054 23.4578C80.0626 23.5035 80.1116 23.5415 80.1579 23.5821C80.7975 24.1761 81.4316 24.7751 82.0767 25.3665C82.2019 25.4808 82.191 25.5493 82.0767 25.6559C81.4344 26.2473 80.7948 26.8413 80.1606 27.4428C80.0408 27.5571 79.9728 27.552 79.8557 27.4428C79.2243 26.8413 78.582 26.2473 77.9423 25.6534C77.8498 25.5671 77.7818 25.5087 77.9124 25.3868C78.5738 24.7827 79.2216 24.171 79.8775 23.5618C79.9156 23.5263 79.9592 23.4984 80.0082 23.4603L80.0054 23.4578Z" fill="white"/>
<path d="M93.5689 19.7621C94.5596 19.757 95.5476 19.7519 96.5383 19.7443C96.6989 19.7443 96.7615 19.8408 96.8377 19.9423C98.5796 22.308 100.352 24.6533 102.047 27.0469C102.107 27.1307 102.167 27.2119 102.224 27.288C102.344 27.2677 102.303 27.189 102.303 27.1408C102.295 24.7878 102.287 22.4323 102.265 20.0794C102.265 19.8179 102.322 19.7316 102.621 19.7392C103.525 19.7595 104.429 19.7595 105.33 19.7392C105.624 19.7316 105.662 19.8331 105.662 20.0692C105.654 22.7065 105.656 25.3463 105.656 27.9835C105.656 29.5268 105.645 31.0675 105.667 32.6108C105.673 32.9306 105.569 32.9941 105.251 32.9864C104.445 32.9636 103.639 32.9737 102.834 32.9864C102.616 32.989 102.485 32.9281 102.357 32.7555C100.618 30.3619 98.8164 28.0114 97.1235 25.5899C97.0854 25.5341 97.0391 25.4833 96.9411 25.3539C96.9411 25.7828 96.9411 26.1204 96.9411 26.4606C96.9466 28.5419 96.952 30.6208 96.9602 32.7022C96.9602 32.8671 96.9711 32.989 96.7152 32.9864C95.6701 32.9712 94.6249 32.9763 93.5825 32.9712C93.4926 32.8773 93.509 32.7631 93.509 32.6539C93.509 28.4556 93.509 24.2548 93.509 20.0565C93.509 19.955 93.5062 19.8534 93.5743 19.7646L93.5689 19.7621Z" fill="white"/>
<path d="M107.314 26.3641C107.314 24.2624 107.319 22.1633 107.309 20.0616C107.309 19.8129 107.374 19.7393 107.649 19.7393C110.847 19.7494 114.048 19.7494 117.246 19.7393C117.545 19.7393 117.632 19.8129 117.624 20.0895C117.605 20.8206 117.608 21.5516 117.624 22.2801C117.63 22.5136 117.548 22.5669 117.308 22.5643C115.229 22.5542 113.152 22.5643 111.073 22.5517C110.752 22.5517 110.673 22.638 110.686 22.9273C110.711 23.4629 110.703 24.0035 110.686 24.5391C110.681 24.7523 110.746 24.8133 110.978 24.8107C112.741 24.8031 114.502 24.8107 116.266 24.8006C116.557 24.8006 116.652 24.864 116.644 25.1508C116.62 25.8819 116.625 26.6129 116.644 27.3414C116.65 27.5723 116.574 27.6307 116.334 27.6282C114.57 27.618 112.809 27.6282 111.046 27.6155C110.752 27.6155 110.678 27.6916 110.686 27.9582C110.708 28.5877 110.711 29.2171 110.686 29.8441C110.675 30.1258 110.782 30.1741 111.056 30.1741C113.256 30.1639 115.452 30.1741 117.651 30.1639C117.913 30.1639 118.005 30.2223 118 30.4787C117.981 31.23 117.989 31.9813 118 32.7301C118 32.9103 117.953 32.9763 117.747 32.9763C114.353 32.9712 110.956 32.9687 107.562 32.9763C107.265 32.9763 107.322 32.8113 107.322 32.6565C107.322 30.5548 107.322 28.4557 107.322 26.354L107.314 26.3641Z" fill="white"/>
<path d="M91.9955 32.9738C90.983 32.9738 89.9705 32.9662 88.9607 32.9839C88.6912 32.989 88.6341 32.9078 88.6368 32.6768C88.645 31.2351 88.6423 29.7959 88.6423 28.3541C88.6423 25.6052 88.6477 22.8537 88.6368 20.1048C88.6368 19.8078 88.7212 19.7317 89.0342 19.7393C89.9378 19.7596 90.8414 19.7494 91.7424 19.7418C91.9274 19.7418 92.0145 19.7748 92.0145 19.9728C92.0064 24.3056 92.0036 28.6384 92.0009 32.9687L91.9982 32.9713L91.9955 32.9738Z" fill="white"/>
</svg>
