<svg width="139" height="48" viewBox="0 0 139 48" fill="none" xmlns="http://www.w3.org/2000/svg">
<path d="M9.32 14.94C9.32 16.22 9 17.1867 8.36 17.84C7.73333 18.4933 6.89333 18.82 5.84 18.82C5.61333 18.82 5.37333 18.8133 5.12 18.8C4.86667 18.7733 4.64 18.74 4.44 18.7V11.12C4.66667 11.0933 4.88667 11.0733 5.1 11.06C5.32667 11.0333 5.56 11.02 5.8 11.02C6.49333 11.02 7.1 11.1667 7.62 11.46C8.15333 11.74 8.56667 12.1667 8.86 12.74C9.16667 13.3133 9.32 14.0467 9.32 14.94ZM12.46 14.88C12.46 13.4533 12.1733 12.2733 11.6 11.34C11.0267 10.4067 10.2267 9.71333 9.2 9.26C8.18667 8.79333 6.99333 8.56 5.62 8.56C5.11333 8.56 4.55333 8.58667 3.94 8.64C3.32667 8.69333 2.75333 8.80667 2.22 8.98C1.98 9.07333 1.78667 9.19333 1.64 9.34C1.49333 9.47333 1.42 9.67333 1.42 9.94V19.5C1.42 20.14 1.76667 20.5867 2.46 20.84C2.98 21.0267 3.56 21.1467 4.2 21.2C4.84 21.2667 5.38 21.3 5.82 21.3C7.15333 21.3 8.31333 21.0667 9.3 20.6C10.3 20.12 11.0733 19.4067 11.62 18.46C12.18 17.5133 12.46 16.32 12.46 14.88ZM15.8017 17.6L15.6817 15.6L20.6417 14.82C20.6151 14.4467 20.4551 14.1 20.1617 13.78C19.8684 13.46 19.4351 13.3 18.8617 13.3C18.2617 13.3 17.7617 13.5067 17.3617 13.92C16.9617 14.32 16.7484 14.8933 16.7217 15.64L16.8217 17.02C16.9417 17.7533 17.2551 18.28 17.7617 18.6C18.2684 18.9067 18.8684 19.06 19.5617 19.06C20.1217 19.06 20.6484 18.98 21.1417 18.82C21.6351 18.66 22.0351 18.4933 22.3417 18.32C22.5417 18.44 22.7017 18.6067 22.8217 18.82C22.9551 19.0333 23.0217 19.26 23.0217 19.5C23.0217 19.9 22.8617 20.2333 22.5417 20.5C22.2351 20.7667 21.8017 20.9667 21.2417 21.1C20.6951 21.2333 20.0684 21.3 19.3617 21.3C18.3351 21.3 17.4084 21.1067 16.5817 20.72C15.7684 20.3333 15.1284 19.7533 14.6617 18.98C14.1951 18.2067 13.9617 17.24 13.9617 16.08C13.9617 15.2267 14.0951 14.4867 14.3617 13.86C14.6417 13.2333 15.0084 12.72 15.4617 12.32C15.9284 11.9067 16.4484 11.6 17.0217 11.4C17.6084 11.2 18.2151 11.1 18.8417 11.1C19.7617 11.1 20.5617 11.2867 21.2417 11.66C21.9351 12.02 22.4751 12.5133 22.8617 13.14C23.2484 13.7667 23.4417 14.4933 23.4417 15.32C23.4417 15.7333 23.3284 16.0467 23.1017 16.26C22.8751 16.4733 22.5617 16.6067 22.1617 16.66L15.8017 17.6ZM29.2016 19.1C29.5082 19.1 29.8082 19.0733 30.1016 19.02C30.4082 18.9533 30.6282 18.88 30.7616 18.8V16.88L29.0816 17.04C28.6282 17.0667 28.2682 17.16 28.0016 17.32C27.7349 17.48 27.6016 17.72 27.6016 18.04C27.6016 18.36 27.7282 18.62 27.9816 18.82C28.2349 19.0067 28.6416 19.1 29.2016 19.1ZM29.0816 11.1C30.4682 11.1 31.5749 11.3933 32.4016 11.98C33.2282 12.5533 33.6416 13.4467 33.6416 14.66V19.2C33.6416 19.5333 33.5549 19.8067 33.3816 20.02C33.2082 20.22 32.9882 20.3933 32.7216 20.54C32.3216 20.78 31.8216 20.9667 31.2216 21.1C30.6349 21.2467 29.9616 21.32 29.2016 21.32C27.8416 21.32 26.7549 21.0533 25.9416 20.52C25.1416 19.9867 24.7416 19.1933 24.7416 18.14C24.7416 17.2333 25.0216 16.54 25.5816 16.06C26.1416 15.5667 26.9749 15.2667 28.0816 15.16L30.7416 14.88V14.64C30.7416 14.1867 30.5616 13.86 30.2016 13.66C29.8549 13.46 29.3549 13.36 28.7016 13.36C28.1949 13.36 27.6949 13.42 27.2016 13.54C26.7216 13.66 26.2882 13.8 25.9016 13.96C25.7416 13.8533 25.6016 13.6933 25.4816 13.48C25.3749 13.2533 25.3216 13.02 25.3216 12.78C25.3216 12.22 25.6282 11.8133 26.2416 11.56C26.6282 11.4 27.0749 11.2867 27.5816 11.22C28.1016 11.14 28.6016 11.1 29.0816 11.1ZM36.0256 15.72L39.0056 15.78V20.98C38.8723 21.02 38.6856 21.0533 38.4456 21.08C38.2056 21.12 37.9456 21.14 37.6656 21.14C37.1056 21.14 36.6923 21.04 36.4256 20.84C36.159 20.64 36.0256 20.28 36.0256 19.76V15.72ZM39.0056 17.32L36.0256 17.26V7.98C36.159 7.94 36.3456 7.9 36.5856 7.86C36.8256 7.82 37.0856 7.8 37.3656 7.8C37.939 7.8 38.3523 7.9 38.6056 8.1C38.8723 8.3 39.0056 8.66667 39.0056 9.2V17.32ZM42.8134 17.6L42.6934 15.6L47.6534 14.82C47.6268 14.4467 47.4668 14.1 47.1734 13.78C46.8801 13.46 46.4468 13.3 45.8734 13.3C45.2734 13.3 44.7734 13.5067 44.3734 13.92C43.9734 14.32 43.7601 14.8933 43.7334 15.64L43.8334 17.02C43.9534 17.7533 44.2668 18.28 44.7734 18.6C45.2801 18.9067 45.8801 19.06 46.5734 19.06C47.1334 19.06 47.6601 18.98 48.1534 18.82C48.6468 18.66 49.0468 18.4933 49.3534 18.32C49.5534 18.44 49.7134 18.6067 49.8334 18.82C49.9668 19.0333 50.0334 19.26 50.0334 19.5C50.0334 19.9 49.8734 20.2333 49.5534 20.5C49.2468 20.7667 48.8134 20.9667 48.2534 21.1C47.7068 21.2333 47.0801 21.3 46.3734 21.3C45.3468 21.3 44.4201 21.1067 43.5934 20.72C42.7801 20.3333 42.1401 19.7533 41.6734 18.98C41.2068 18.2067 40.9734 17.24 40.9734 16.08C40.9734 15.2267 41.1068 14.4867 41.3734 13.86C41.6534 13.2333 42.0201 12.72 42.4734 12.32C42.9401 11.9067 43.4601 11.6 44.0334 11.4C44.6201 11.2 45.2268 11.1 45.8534 11.1C46.7734 11.1 47.5734 11.2867 48.2534 11.66C48.9468 12.02 49.4868 12.5133 49.8734 13.14C50.2601 13.7667 50.4534 14.4933 50.4534 15.32C50.4534 15.7333 50.3401 16.0467 50.1134 16.26C49.8868 16.4733 49.5734 16.6067 49.1734 16.66L42.8134 17.6ZM55.2333 13.98V16.48H52.2733V13.62C52.2733 13.2467 52.3599 12.9333 52.5333 12.68C52.7199 12.4133 52.9733 12.18 53.2933 11.98C53.7333 11.7133 54.2599 11.5067 54.8733 11.36C55.4999 11.2 56.1533 11.12 56.8333 11.12C58.1933 11.12 58.8733 11.5733 58.8733 12.48C58.8733 12.6933 58.8399 12.8933 58.7733 13.08C58.7199 13.2667 58.6533 13.4267 58.5733 13.56C58.4399 13.5333 58.2733 13.5133 58.0733 13.5C57.8866 13.4733 57.6799 13.46 57.4533 13.46C57.0533 13.46 56.6533 13.5067 56.2533 13.6C55.8533 13.6933 55.5133 13.82 55.2333 13.98ZM52.2733 15.72L55.2333 15.78V20.98C55.0999 21.02 54.9133 21.0533 54.6733 21.08C54.4333 21.12 54.1733 21.14 53.8933 21.14C53.3333 21.14 52.9199 21.04 52.6533 20.84C52.3999 20.64 52.2733 20.28 52.2733 19.76V15.72ZM72.4188 14.92C72.4188 16.3067 72.1454 17.48 71.5988 18.44C71.0654 19.3867 70.3254 20.1067 69.3788 20.6C68.4454 21.0933 67.3854 21.34 66.1988 21.34C65.0121 21.34 63.9521 21.0933 63.0188 20.6C62.0854 20.1067 61.3521 19.3867 60.8188 18.44C60.2854 17.48 60.0188 16.3067 60.0188 14.92C60.0188 13.5333 60.2921 12.3667 60.8388 11.42C61.3854 10.46 62.1254 9.74 63.0588 9.26C63.9921 8.76667 65.0388 8.52 66.1988 8.52C67.3721 8.52 68.4254 8.76667 69.3588 9.26C70.3054 9.74 71.0521 10.46 71.5988 11.42C72.1454 12.3667 72.4188 13.5333 72.4188 14.92ZM69.2788 14.92C69.2788 13.64 68.9988 12.6667 68.4388 12C67.8921 11.3333 67.1454 11 66.1988 11C65.2921 11 64.5588 11.3333 63.9988 12C63.4388 12.6533 63.1588 13.6267 63.1588 14.92C63.1588 16.2267 63.4321 17.2133 63.9788 17.88C64.5388 18.5333 65.2854 18.86 66.2188 18.86C67.1521 18.86 67.8921 18.5333 68.4388 17.88C68.9988 17.2133 69.2788 16.2267 69.2788 14.92ZM83.5627 14.78V16.66H80.5827V14.88C80.5827 14.3867 80.436 14.0267 80.1427 13.8C79.8627 13.56 79.4893 13.44 79.0227 13.44C78.6893 13.44 78.3827 13.4867 78.1027 13.58C77.8227 13.66 77.5693 13.76 77.3427 13.88V16.66H74.3827V13.54C74.3827 13.2067 74.4493 12.9333 74.5827 12.72C74.7293 12.4933 74.936 12.2933 75.2027 12.12C75.6293 11.8267 76.176 11.5867 76.8427 11.4C77.5093 11.2 78.2427 11.1 79.0427 11.1C80.4827 11.1 81.596 11.42 82.3827 12.06C83.1693 12.6867 83.5627 13.5933 83.5627 14.78ZM74.3827 15.74H77.3427V20.98C77.2093 21.02 77.0227 21.0533 76.7827 21.08C76.5427 21.12 76.2827 21.14 76.0027 21.14C75.4427 21.14 75.0293 21.04 74.7627 20.84C74.5093 20.64 74.3827 20.28 74.3827 19.76V15.74ZM80.5827 15.74H83.5627V20.98C83.4293 21.02 83.2427 21.0533 83.0027 21.08C82.7627 21.12 82.5027 21.14 82.2227 21.14C81.6627 21.14 81.2493 21.04 80.9827 20.84C80.716 20.64 80.5827 20.28 80.5827 19.76V15.74Z" fill="#F0F2F5"/>
<path opacity="0.6" d="M11.292 34.324L8.742 43H7.512L5.76 36.85L3.984 43H2.784L0.252 34.324H1.692L3.45 40.588L5.214 34.324H6.306L8.082 40.588L9.846 34.324H11.292ZM14.593 43V34.324H20.329L20.323 35.578H16.063V38.008H19.825V39.244H16.051V41.728L20.413 41.734V43H14.593ZM24.2453 43V34.324H27.2273C28.3273 34.324 29.1493 34.52 29.6933 34.912C30.2413 35.3 30.5153 35.86 30.5153 36.592C30.5153 37.036 30.4013 37.42 30.1733 37.744C29.9453 38.068 29.5433 38.342 28.9673 38.566C29.3193 38.65 29.6093 38.766 29.8373 38.914C30.0693 39.058 30.2493 39.224 30.3773 39.412C30.5053 39.596 30.5953 39.794 30.6473 40.006C30.6993 40.218 30.7253 40.436 30.7253 40.66C30.7253 41.452 30.4493 42.04 29.8973 42.424C29.3493 42.808 28.4993 43 27.3473 43H24.2453ZM25.7033 41.836H27.3653C27.9813 41.836 28.4473 41.726 28.7633 41.506C29.0833 41.282 29.2433 40.96 29.2433 40.54C29.2433 40.236 29.1653 39.986 29.0093 39.79C28.8533 39.59 28.6413 39.442 28.3733 39.346C28.1053 39.25 27.8053 39.202 27.4733 39.202H25.7033V41.836ZM25.7033 38.02H27.4733C27.6773 38.02 27.8753 37.998 28.0673 37.954C28.2593 37.91 28.4333 37.84 28.5893 37.744C28.7453 37.648 28.8693 37.52 28.9613 37.36C29.0573 37.2 29.1053 37.006 29.1053 36.778C29.1053 36.342 28.9393 36.018 28.6073 35.806C28.2793 35.59 27.8573 35.482 27.3413 35.482H25.7033V38.02ZM37.5567 43.12C37.1367 43.12 36.7267 43.068 36.3267 42.964C35.9267 42.856 35.5627 42.698 35.2347 42.49C34.9107 42.278 34.6407 42.016 34.4247 41.704C34.2087 41.388 34.0767 41.02 34.0287 40.6H35.5407C35.6047 40.892 35.7307 41.138 35.9187 41.338C36.1067 41.538 36.3407 41.69 36.6207 41.794C36.9047 41.898 37.2147 41.95 37.5507 41.95C37.9107 41.95 38.2347 41.902 38.5227 41.806C38.8147 41.71 39.0447 41.57 39.2127 41.386C39.3847 41.202 39.4707 40.976 39.4707 40.708C39.4707 40.472 39.4087 40.272 39.2847 40.108C39.1607 39.944 38.9867 39.81 38.7627 39.706C38.5427 39.598 38.2847 39.512 37.9887 39.448L36.3927 39.1C35.7487 38.968 35.2387 38.712 34.8627 38.332C34.4867 37.952 34.2947 37.446 34.2867 36.814C34.2827 36.29 34.4207 35.834 34.7007 35.446C34.9847 35.054 35.3707 34.752 35.8587 34.54C36.3467 34.324 36.8987 34.216 37.5147 34.216C38.2347 34.216 38.8407 34.334 39.3327 34.57C39.8287 34.802 40.2027 35.114 40.4547 35.506C40.7107 35.898 40.8407 36.328 40.8447 36.796H39.3687C39.3327 36.452 39.2287 36.178 39.0567 35.974C38.8887 35.77 38.6727 35.624 38.4087 35.536C38.1447 35.448 37.8527 35.404 37.5327 35.404C37.2927 35.404 37.0687 35.432 36.8607 35.488C36.6527 35.544 36.4707 35.626 36.3147 35.734C36.1587 35.842 36.0367 35.974 35.9487 36.13C35.8647 36.282 35.8227 36.456 35.8227 36.652C35.8227 36.932 35.9147 37.16 36.0987 37.336C36.2867 37.508 36.6367 37.654 37.1487 37.774L38.7087 38.122C39.1927 38.218 39.5827 38.362 39.8787 38.554C40.1747 38.746 40.4007 38.966 40.5567 39.214C40.7127 39.458 40.8167 39.708 40.8687 39.964C40.9207 40.22 40.9467 40.464 40.9467 40.696C40.9467 41.148 40.8067 41.558 40.5267 41.926C40.2507 42.294 39.8587 42.586 39.3507 42.802C38.8467 43.014 38.2487 43.12 37.5567 43.12ZM44.6281 34.324H46.0861V43H44.6281V34.324ZM49.3926 35.638V34.324H56.1606V35.638H53.5566V43H52.0926V35.638H49.3926ZM59.468 43V34.324H65.204L65.198 35.578H60.938V38.008H64.7V39.244H60.926V41.728L65.288 41.734V43H59.468Z" fill="#E5E8EF"/>
</svg>
