<svg width="139" height="48" viewBox="0 0 139 48" fill="none" xmlns="http://www.w3.org/2000/svg">
<path d="M9.32 14.94C9.32 16.22 9 17.1867 8.36 17.84C7.73333 18.4933 6.89333 18.82 5.84 18.82C5.61333 18.82 5.37333 18.8133 5.12 18.8C4.86667 18.7733 4.64 18.74 4.44 18.7V11.12C4.66667 11.0933 4.88667 11.0733 5.1 11.06C5.32667 11.0333 5.56 11.02 5.8 11.02C6.49333 11.02 7.1 11.1667 7.62 11.46C8.15333 11.74 8.56667 12.1667 8.86 12.74C9.16667 13.3133 9.32 14.0467 9.32 14.94ZM12.46 14.88C12.46 13.4533 12.1733 12.2733 11.6 11.34C11.0267 10.4067 10.2267 9.71333 9.2 9.26C8.18667 8.79333 6.99333 8.56 5.62 8.56C5.11333 8.56 4.55333 8.58667 3.94 8.64C3.32667 8.69333 2.75333 8.80667 2.22 8.98C1.98 9.07333 1.78667 9.19333 1.64 9.34C1.49333 9.47333 1.42 9.67333 1.42 9.94V19.5C1.42 20.14 1.76667 20.5867 2.46 20.84C2.98 21.0267 3.56 21.1467 4.2 21.2C4.84 21.2667 5.38 21.3 5.82 21.3C7.15333 21.3 8.31333 21.0667 9.3 20.6C10.3 20.12 11.0733 19.4067 11.62 18.46C12.18 17.5133 12.46 16.32 12.46 14.88ZM15.8017 17.6L15.6817 15.6L20.6417 14.82C20.6151 14.4467 20.4551 14.1 20.1617 13.78C19.8684 13.46 19.4351 13.3 18.8617 13.3C18.2617 13.3 17.7617 13.5067 17.3617 13.92C16.9617 14.32 16.7484 14.8933 16.7217 15.64L16.8217 17.02C16.9417 17.7533 17.2551 18.28 17.7617 18.6C18.2684 18.9067 18.8684 19.06 19.5617 19.06C20.1217 19.06 20.6484 18.98 21.1417 18.82C21.6351 18.66 22.0351 18.4933 22.3417 18.32C22.5417 18.44 22.7017 18.6067 22.8217 18.82C22.9551 19.0333 23.0217 19.26 23.0217 19.5C23.0217 19.9 22.8617 20.2333 22.5417 20.5C22.2351 20.7667 21.8017 20.9667 21.2417 21.1C20.6951 21.2333 20.0684 21.3 19.3617 21.3C18.3351 21.3 17.4084 21.1067 16.5817 20.72C15.7684 20.3333 15.1284 19.7533 14.6617 18.98C14.1951 18.2067 13.9617 17.24 13.9617 16.08C13.9617 15.2267 14.0951 14.4867 14.3617 13.86C14.6417 13.2333 15.0084 12.72 15.4617 12.32C15.9284 11.9067 16.4484 11.6 17.0217 11.4C17.6084 11.2 18.2151 11.1 18.8417 11.1C19.7617 11.1 20.5617 11.2867 21.2417 11.66C21.9351 12.02 22.4751 12.5133 22.8617 13.14C23.2484 13.7667 23.4417 14.4933 23.4417 15.32C23.4417 15.7333 23.3284 16.0467 23.1017 16.26C22.8751 16.4733 22.5617 16.6067 22.1617 16.66L15.8017 17.6ZM29.2016 19.1C29.5082 19.1 29.8082 19.0733 30.1016 19.02C30.4082 18.9533 30.6282 18.88 30.7616 18.8V16.88L29.0816 17.04C28.6282 17.0667 28.2682 17.16 28.0016 17.32C27.7349 17.48 27.6016 17.72 27.6016 18.04C27.6016 18.36 27.7282 18.62 27.9816 18.82C28.2349 19.0067 28.6416 19.1 29.2016 19.1ZM29.0816 11.1C30.4682 11.1 31.5749 11.3933 32.4016 11.98C33.2282 12.5533 33.6416 13.4467 33.6416 14.66V19.2C33.6416 19.5333 33.5549 19.8067 33.3816 20.02C33.2082 20.22 32.9882 20.3933 32.7216 20.54C32.3216 20.78 31.8216 20.9667 31.2216 21.1C30.6349 21.2467 29.9616 21.32 29.2016 21.32C27.8416 21.32 26.7549 21.0533 25.9416 20.52C25.1416 19.9867 24.7416 19.1933 24.7416 18.14C24.7416 17.2333 25.0216 16.54 25.5816 16.06C26.1416 15.5667 26.9749 15.2667 28.0816 15.16L30.7416 14.88V14.64C30.7416 14.1867 30.5616 13.86 30.2016 13.66C29.8549 13.46 29.3549 13.36 28.7016 13.36C28.1949 13.36 27.6949 13.42 27.2016 13.54C26.7216 13.66 26.2882 13.8 25.9016 13.96C25.7416 13.8533 25.6016 13.6933 25.4816 13.48C25.3749 13.2533 25.3216 13.02 25.3216 12.78C25.3216 12.22 25.6282 11.8133 26.2416 11.56C26.6282 11.4 27.0749 11.2867 27.5816 11.22C28.1016 11.14 28.6016 11.1 29.0816 11.1ZM36.0256 15.72L39.0056 15.78V20.98C38.8723 21.02 38.6856 21.0533 38.4456 21.08C38.2056 21.12 37.9456 21.14 37.6656 21.14C37.1056 21.14 36.6923 21.04 36.4256 20.84C36.159 20.64 36.0256 20.28 36.0256 19.76V15.72ZM39.0056 17.32L36.0256 17.26V7.98C36.159 7.94 36.3456 7.9 36.5856 7.86C36.8256 7.82 37.0856 7.8 37.3656 7.8C37.939 7.8 38.3523 7.9 38.6056 8.1C38.8723 8.3 39.0056 8.66667 39.0056 9.2V17.32ZM42.8134 17.6L42.6934 15.6L47.6534 14.82C47.6268 14.4467 47.4668 14.1 47.1734 13.78C46.8801 13.46 46.4468 13.3 45.8734 13.3C45.2734 13.3 44.7734 13.5067 44.3734 13.92C43.9734 14.32 43.7601 14.8933 43.7334 15.64L43.8334 17.02C43.9534 17.7533 44.2668 18.28 44.7734 18.6C45.2801 18.9067 45.8801 19.06 46.5734 19.06C47.1334 19.06 47.6601 18.98 48.1534 18.82C48.6468 18.66 49.0468 18.4933 49.3534 18.32C49.5534 18.44 49.7134 18.6067 49.8334 18.82C49.9668 19.0333 50.0334 19.26 50.0334 19.5C50.0334 19.9 49.8734 20.2333 49.5534 20.5C49.2468 20.7667 48.8134 20.9667 48.2534 21.1C47.7068 21.2333 47.0801 21.3 46.3734 21.3C45.3468 21.3 44.4201 21.1067 43.5934 20.72C42.7801 20.3333 42.1401 19.7533 41.6734 18.98C41.2068 18.2067 40.9734 17.24 40.9734 16.08C40.9734 15.2267 41.1068 14.4867 41.3734 13.86C41.6534 13.2333 42.0201 12.72 42.4734 12.32C42.9401 11.9067 43.4601 11.6 44.0334 11.4C44.6201 11.2 45.2268 11.1 45.8534 11.1C46.7734 11.1 47.5734 11.2867 48.2534 11.66C48.9468 12.02 49.4868 12.5133 49.8734 13.14C50.2601 13.7667 50.4534 14.4933 50.4534 15.32C50.4534 15.7333 50.3401 16.0467 50.1134 16.26C49.8868 16.4733 49.5734 16.6067 49.1734 16.66L42.8134 17.6ZM55.2333 13.98V16.48H52.2733V13.62C52.2733 13.2467 52.3599 12.9333 52.5333 12.68C52.7199 12.4133 52.9733 12.18 53.2933 11.98C53.7333 11.7133 54.2599 11.5067 54.8733 11.36C55.4999 11.2 56.1533 11.12 56.8333 11.12C58.1933 11.12 58.8733 11.5733 58.8733 12.48C58.8733 12.6933 58.8399 12.8933 58.7733 13.08C58.7199 13.2667 58.6533 13.4267 58.5733 13.56C58.4399 13.5333 58.2733 13.5133 58.0733 13.5C57.8866 13.4733 57.6799 13.46 57.4533 13.46C57.0533 13.46 56.6533 13.5067 56.2533 13.6C55.8533 13.6933 55.5133 13.82 55.2333 13.98ZM52.2733 15.72L55.2333 15.78V20.98C55.0999 21.02 54.9133 21.0533 54.6733 21.08C54.4333 21.12 54.1733 21.14 53.8933 21.14C53.3333 21.14 52.9199 21.04 52.6533 20.84C52.3999 20.64 52.2733 20.28 52.2733 19.76V15.72ZM68.4439 17.98C68.2972 18.1 68.0972 18.2 67.8439 18.28C67.6039 18.36 67.3239 18.4 67.0039 18.4C66.5906 18.4 66.2439 18.3467 65.9639 18.24C65.6839 18.1333 65.5039 17.9533 65.4239 17.7C64.9706 16.4333 64.5839 15.38 64.2639 14.54C63.9572 13.7 63.7172 12.9733 63.5439 12.36H63.4439C63.4039 13.2 63.3706 13.9667 63.3439 14.66C63.3172 15.3533 63.2972 16.0333 63.2839 16.7C63.2706 17.3533 63.2506 18.02 63.2239 18.7C63.1972 19.38 63.1572 20.1267 63.1039 20.94C62.9572 20.98 62.7572 21.0267 62.5039 21.08C62.2639 21.1333 62.0239 21.16 61.7839 21.16C61.2772 21.16 60.8772 21.0733 60.5839 20.9C60.3039 20.7267 60.1639 20.4267 60.1639 20C60.1639 19.7067 60.1772 19.2733 60.2039 18.7C60.2439 18.1133 60.2839 17.4467 60.3239 16.7C60.3772 15.94 60.4239 15.14 60.4639 14.3C60.5172 13.46 60.5706 12.6333 60.6239 11.82C60.6906 10.9933 60.7506 10.2333 60.8039 9.54C60.9106 9.38 61.1239 9.22 61.4439 9.06C61.7639 8.88667 62.2039 8.8 62.7639 8.8C63.3639 8.8 63.8439 8.9 64.2039 9.1C64.5772 9.28667 64.8439 9.6 65.0039 10.04C65.2039 10.52 65.4172 11.08 65.6439 11.72C65.8706 12.3467 66.0906 12.9867 66.3039 13.64C66.5306 14.28 66.7372 14.86 66.9239 15.38H67.0239C67.3972 14.2067 67.7772 13.06 68.1639 11.94C68.5639 10.82 68.9039 9.88667 69.1839 9.14C69.3706 9.03333 69.6039 8.95333 69.8839 8.9C70.1772 8.83333 70.4839 8.8 70.8039 8.8C71.3772 8.8 71.8372 8.88667 72.1839 9.06C72.5439 9.22 72.7572 9.46667 72.8239 9.8C72.8772 10.0533 72.9306 10.4533 72.9839 11C73.0506 11.5467 73.1172 12.18 73.1839 12.9C73.2506 13.6067 73.3172 14.3533 73.3839 15.14C73.4506 15.9133 73.5106 16.6733 73.5639 17.42C73.6306 18.1533 73.6839 18.8133 73.7239 19.4C73.7639 19.9867 73.7906 20.4533 73.8039 20.8C73.6039 20.92 73.3906 21.0067 73.1639 21.06C72.9506 21.1267 72.6772 21.16 72.3439 21.16C71.9172 21.16 71.5506 21.08 71.2439 20.92C70.9506 20.76 70.7906 20.4533 70.7639 20C70.6972 18.96 70.6439 17.9733 70.6039 17.04C70.5639 16.0933 70.5306 15.2333 70.5039 14.46C70.4906 13.6733 70.4706 13 70.4439 12.44H70.3439C70.1706 13.0133 69.9239 13.74 69.6039 14.62C69.2972 15.4867 68.9106 16.6067 68.4439 17.98ZM75.9233 8.64C75.9233 8.18667 76.0766 7.80667 76.3833 7.5C76.7033 7.19333 77.1033 7.04 77.5833 7.04C78.0766 7.04 78.4766 7.19333 78.7833 7.5C79.0899 7.80667 79.2433 8.18667 79.2433 8.64C79.2433 9.08 79.0899 9.46 78.7833 9.78C78.4766 10.1 78.0766 10.26 77.5833 10.26C77.1033 10.26 76.7033 10.1 76.3833 9.78C76.0766 9.46 75.9233 9.08 75.9233 8.64ZM76.1033 15.72H79.0633V20.98C78.9433 21.02 78.7633 21.0533 78.5233 21.08C78.2833 21.12 78.0233 21.14 77.7433 21.14C77.1699 21.14 76.7499 21.04 76.4833 20.84C76.2299 20.64 76.1033 20.28 76.1033 19.76V15.72ZM79.0633 17.26H76.1033V11.52C76.2233 11.48 76.4033 11.44 76.6433 11.4C76.8966 11.36 77.1633 11.34 77.4433 11.34C78.0166 11.34 78.4299 11.44 78.6833 11.64C78.9366 11.8267 79.0633 12.1933 79.0633 12.74V17.26ZM90.6525 14.78V16.66H87.6725V14.88C87.6725 14.3867 87.5258 14.0267 87.2325 13.8C86.9525 13.56 86.5792 13.44 86.1125 13.44C85.7792 13.44 85.4725 13.4867 85.1925 13.58C84.9125 13.66 84.6592 13.76 84.4325 13.88V16.66H81.4725V13.54C81.4725 13.2067 81.5392 12.9333 81.6725 12.72C81.8192 12.4933 82.0258 12.2933 82.2925 12.12C82.7192 11.8267 83.2658 11.5867 83.9325 11.4C84.5992 11.2 85.3325 11.1 86.1325 11.1C87.5725 11.1 88.6858 11.42 89.4725 12.06C90.2592 12.6867 90.6525 13.5933 90.6525 14.78ZM81.4725 15.74H84.4325V20.98C84.2992 21.02 84.1125 21.0533 83.8725 21.08C83.6325 21.12 83.3725 21.14 83.0925 21.14C82.5325 21.14 82.1192 21.04 81.8525 20.84C81.5992 20.64 81.4725 20.28 81.4725 19.76V15.74ZM87.6725 15.74H90.6525V20.98C90.5192 21.02 90.3325 21.0533 90.0925 21.08C89.8525 21.12 89.5925 21.14 89.3125 21.14C88.7525 21.14 88.3392 21.04 88.0725 20.84C87.8058 20.64 87.6725 20.28 87.6725 19.76V15.74ZM94.3564 17.6L94.2364 15.6L99.1964 14.82C99.1697 14.4467 99.0097 14.1 98.7164 13.78C98.4231 13.46 97.9897 13.3 97.4164 13.3C96.8164 13.3 96.3164 13.5067 95.9164 13.92C95.5164 14.32 95.3031 14.8933 95.2764 15.64L95.3764 17.02C95.4964 17.7533 95.8097 18.28 96.3164 18.6C96.8231 18.9067 97.4231 19.06 98.1164 19.06C98.6764 19.06 99.2031 18.98 99.6964 18.82C100.19 18.66 100.59 18.4933 100.896 18.32C101.096 18.44 101.256 18.6067 101.376 18.82C101.51 19.0333 101.576 19.26 101.576 19.5C101.576 19.9 101.416 20.2333 101.096 20.5C100.79 20.7667 100.356 20.9667 99.7964 21.1C99.2497 21.2333 98.6231 21.3 97.9164 21.3C96.8897 21.3 95.9631 21.1067 95.1364 20.72C94.3231 20.3333 93.6831 19.7533 93.2164 18.98C92.7497 18.2067 92.5164 17.24 92.5164 16.08C92.5164 15.2267 92.6497 14.4867 92.9164 13.86C93.1964 13.2333 93.5631 12.72 94.0164 12.32C94.4831 11.9067 95.0031 11.6 95.5764 11.4C96.1631 11.2 96.7697 11.1 97.3964 11.1C98.3164 11.1 99.1164 11.2867 99.7964 11.66C100.49 12.02 101.03 12.5133 101.416 13.14C101.803 13.7667 101.996 14.4933 101.996 15.32C101.996 15.7333 101.883 16.0467 101.656 16.26C101.43 16.4733 101.116 16.6067 100.716 16.66L94.3564 17.6Z" fill="#F0F2F5"/>
<path opacity="0.6" d="M4.428 34.204C5.064 34.204 5.628 34.334 6.12 34.594C6.612 34.85 7.008 35.198 7.308 35.638C7.612 36.078 7.792 36.568 7.848 37.108H6.306C6.246 36.788 6.134 36.502 5.97 36.25C5.81 35.998 5.598 35.798 5.334 35.65C5.07 35.502 4.754 35.428 4.386 35.428C3.926 35.428 3.534 35.538 3.21 35.758C2.89 35.974 2.644 36.318 2.472 36.79C2.304 37.262 2.22 37.874 2.22 38.626C2.22 39.766 2.408 40.596 2.784 41.116C3.16 41.636 3.694 41.896 4.386 41.896C4.754 41.896 5.07 41.816 5.334 41.656C5.598 41.492 5.81 41.276 5.97 41.008C6.134 40.736 6.246 40.44 6.306 40.12H7.848C7.8 40.512 7.7 40.888 7.548 41.248C7.4 41.608 7.19 41.93 6.918 42.214C6.646 42.494 6.304 42.716 5.892 42.88C5.484 43.04 4.996 43.12 4.428 43.12C3.632 43.12 2.948 42.938 2.376 42.574C1.808 42.206 1.37 41.686 1.062 41.014C0.758 40.338 0.606 39.536 0.606 38.608C0.606 37.684 0.758 36.894 1.062 36.238C1.366 35.582 1.802 35.08 2.37 34.732C2.942 34.38 3.628 34.204 4.428 34.204ZM17.9912 43H16.4672L14.9732 39.478H12.9572V43H11.4992V34.324H15.0212C15.6852 34.324 16.2312 34.428 16.6592 34.636C17.0912 34.84 17.4112 35.13 17.6192 35.506C17.8272 35.878 17.9312 36.314 17.9312 36.814C17.9312 37.278 17.8552 37.668 17.7032 37.984C17.5512 38.296 17.3532 38.552 17.1092 38.752C16.8692 38.948 16.6112 39.108 16.3352 39.232L17.9912 43ZM14.6912 38.32C15.2432 38.32 15.6732 38.192 15.9812 37.936C16.2932 37.68 16.4492 37.324 16.4492 36.868C16.4492 36.42 16.3052 36.074 16.0172 35.83C15.7292 35.586 15.3492 35.464 14.8772 35.464H12.9572V38.32H14.6912ZM21.7375 43V34.324H23.8255L26.0995 40.954L28.3975 34.324H30.4735V43H28.9915V36.196L26.7055 43H25.4875L23.2195 36.238V43H21.7375Z" fill="#E5E8EF"/>
</svg>
