<svg width="139" height="48" viewBox="0 0 139 48" fill="none" xmlns="http://www.w3.org/2000/svg">
<path d="M9.32 14.94C9.32 16.22 9 17.1867 8.36 17.84C7.73333 18.4933 6.89333 18.82 5.84 18.82C5.61333 18.82 5.37333 18.8133 5.12 18.8C4.86667 18.7733 4.64 18.74 4.44 18.7V11.12C4.66667 11.0933 4.88667 11.0733 5.1 11.06C5.32667 11.0333 5.56 11.02 5.8 11.02C6.49333 11.02 7.1 11.1667 7.62 11.46C8.15333 11.74 8.56667 12.1667 8.86 12.74C9.16667 13.3133 9.32 14.0467 9.32 14.94ZM12.46 14.88C12.46 13.4533 12.1733 12.2733 11.6 11.34C11.0267 10.4067 10.2267 9.71333 9.2 9.26C8.18667 8.79333 6.99333 8.56 5.62 8.56C5.11333 8.56 4.55333 8.58667 3.94 8.64C3.32667 8.69333 2.75333 8.80667 2.22 8.98C1.98 9.07333 1.78667 9.19333 1.64 9.34C1.49333 9.47333 1.42 9.67333 1.42 9.94V19.5C1.42 20.14 1.76667 20.5867 2.46 20.84C2.98 21.0267 3.56 21.1467 4.2 21.2C4.84 21.2667 5.38 21.3 5.82 21.3C7.15333 21.3 8.31333 21.0667 9.3 20.6C10.3 20.12 11.0733 19.4067 11.62 18.46C12.18 17.5133 12.46 16.32 12.46 14.88ZM15.8017 17.6L15.6817 15.6L20.6417 14.82C20.6151 14.4467 20.4551 14.1 20.1617 13.78C19.8684 13.46 19.4351 13.3 18.8617 13.3C18.2617 13.3 17.7617 13.5067 17.3617 13.92C16.9617 14.32 16.7484 14.8933 16.7217 15.64L16.8217 17.02C16.9417 17.7533 17.2551 18.28 17.7617 18.6C18.2684 18.9067 18.8684 19.06 19.5617 19.06C20.1217 19.06 20.6484 18.98 21.1417 18.82C21.6351 18.66 22.0351 18.4933 22.3417 18.32C22.5417 18.44 22.7017 18.6067 22.8217 18.82C22.9551 19.0333 23.0217 19.26 23.0217 19.5C23.0217 19.9 22.8617 20.2333 22.5417 20.5C22.2351 20.7667 21.8017 20.9667 21.2417 21.1C20.6951 21.2333 20.0684 21.3 19.3617 21.3C18.3351 21.3 17.4084 21.1067 16.5817 20.72C15.7684 20.3333 15.1284 19.7533 14.6617 18.98C14.1951 18.2067 13.9617 17.24 13.9617 16.08C13.9617 15.2267 14.0951 14.4867 14.3617 13.86C14.6417 13.2333 15.0084 12.72 15.4617 12.32C15.9284 11.9067 16.4484 11.6 17.0217 11.4C17.6084 11.2 18.2151 11.1 18.8417 11.1C19.7617 11.1 20.5617 11.2867 21.2417 11.66C21.9351 12.02 22.4751 12.5133 22.8617 13.14C23.2484 13.7667 23.4417 14.4933 23.4417 15.32C23.4417 15.7333 23.3284 16.0467 23.1017 16.26C22.8751 16.4733 22.5617 16.6067 22.1617 16.66L15.8017 17.6ZM29.2016 19.1C29.5082 19.1 29.8082 19.0733 30.1016 19.02C30.4082 18.9533 30.6282 18.88 30.7616 18.8V16.88L29.0816 17.04C28.6282 17.0667 28.2682 17.16 28.0016 17.32C27.7349 17.48 27.6016 17.72 27.6016 18.04C27.6016 18.36 27.7282 18.62 27.9816 18.82C28.2349 19.0067 28.6416 19.1 29.2016 19.1ZM29.0816 11.1C30.4682 11.1 31.5749 11.3933 32.4016 11.98C33.2282 12.5533 33.6416 13.4467 33.6416 14.66V19.2C33.6416 19.5333 33.5549 19.8067 33.3816 20.02C33.2082 20.22 32.9882 20.3933 32.7216 20.54C32.3216 20.78 31.8216 20.9667 31.2216 21.1C30.6349 21.2467 29.9616 21.32 29.2016 21.32C27.8416 21.32 26.7549 21.0533 25.9416 20.52C25.1416 19.9867 24.7416 19.1933 24.7416 18.14C24.7416 17.2333 25.0216 16.54 25.5816 16.06C26.1416 15.5667 26.9749 15.2667 28.0816 15.16L30.7416 14.88V14.64C30.7416 14.1867 30.5616 13.86 30.2016 13.66C29.8549 13.46 29.3549 13.36 28.7016 13.36C28.1949 13.36 27.6949 13.42 27.2016 13.54C26.7216 13.66 26.2882 13.8 25.9016 13.96C25.7416 13.8533 25.6016 13.6933 25.4816 13.48C25.3749 13.2533 25.3216 13.02 25.3216 12.78C25.3216 12.22 25.6282 11.8133 26.2416 11.56C26.6282 11.4 27.0749 11.2867 27.5816 11.22C28.1016 11.14 28.6016 11.1 29.0816 11.1ZM36.0256 15.72L39.0056 15.78V20.98C38.8723 21.02 38.6856 21.0533 38.4456 21.08C38.2056 21.12 37.9456 21.14 37.6656 21.14C37.1056 21.14 36.6923 21.04 36.4256 20.84C36.159 20.64 36.0256 20.28 36.0256 19.76V15.72ZM39.0056 17.32L36.0256 17.26V7.98C36.159 7.94 36.3456 7.9 36.5856 7.86C36.8256 7.82 37.0856 7.8 37.3656 7.8C37.939 7.8 38.3523 7.9 38.6056 8.1C38.8723 8.3 39.0056 8.66667 39.0056 9.2V17.32ZM42.8134 17.6L42.6934 15.6L47.6534 14.82C47.6268 14.4467 47.4668 14.1 47.1734 13.78C46.8801 13.46 46.4468 13.3 45.8734 13.3C45.2734 13.3 44.7734 13.5067 44.3734 13.92C43.9734 14.32 43.7601 14.8933 43.7334 15.64L43.8334 17.02C43.9534 17.7533 44.2668 18.28 44.7734 18.6C45.2801 18.9067 45.8801 19.06 46.5734 19.06C47.1334 19.06 47.6601 18.98 48.1534 18.82C48.6468 18.66 49.0468 18.4933 49.3534 18.32C49.5534 18.44 49.7134 18.6067 49.8334 18.82C49.9668 19.0333 50.0334 19.26 50.0334 19.5C50.0334 19.9 49.8734 20.2333 49.5534 20.5C49.2468 20.7667 48.8134 20.9667 48.2534 21.1C47.7068 21.2333 47.0801 21.3 46.3734 21.3C45.3468 21.3 44.4201 21.1067 43.5934 20.72C42.7801 20.3333 42.1401 19.7533 41.6734 18.98C41.2068 18.2067 40.9734 17.24 40.9734 16.08C40.9734 15.2267 41.1068 14.4867 41.3734 13.86C41.6534 13.2333 42.0201 12.72 42.4734 12.32C42.9401 11.9067 43.4601 11.6 44.0334 11.4C44.6201 11.2 45.2268 11.1 45.8534 11.1C46.7734 11.1 47.5734 11.2867 48.2534 11.66C48.9468 12.02 49.4868 12.5133 49.8734 13.14C50.2601 13.7667 50.4534 14.4933 50.4534 15.32C50.4534 15.7333 50.3401 16.0467 50.1134 16.26C49.8868 16.4733 49.5734 16.6067 49.1734 16.66L42.8134 17.6ZM55.2333 13.98V16.48H52.2733V13.62C52.2733 13.2467 52.3599 12.9333 52.5333 12.68C52.7199 12.4133 52.9733 12.18 53.2933 11.98C53.7333 11.7133 54.2599 11.5067 54.8733 11.36C55.4999 11.2 56.1533 11.12 56.8333 11.12C58.1933 11.12 58.8733 11.5733 58.8733 12.48C58.8733 12.6933 58.8399 12.8933 58.7733 13.08C58.7199 13.2667 58.6533 13.4267 58.5733 13.56C58.4399 13.5333 58.2733 13.5133 58.0733 13.5C57.8866 13.4733 57.6799 13.46 57.4533 13.46C57.0533 13.46 56.6533 13.5067 56.2533 13.6C55.8533 13.6933 55.5133 13.82 55.2333 13.98ZM52.2733 15.72L55.2333 15.78V20.98C55.0999 21.02 54.9133 21.0533 54.6733 21.08C54.4333 21.12 54.1733 21.14 53.8933 21.14C53.3333 21.14 52.9199 21.04 52.6533 20.84C52.3999 20.64 52.2733 20.28 52.2733 19.76V15.72ZM64.2783 18.86C64.9983 18.86 65.5116 18.7333 65.8183 18.48C66.1383 18.2133 66.2983 17.9 66.2983 17.54C66.2983 17.2067 66.1716 16.94 65.9183 16.74C65.6783 16.5267 65.3183 16.3467 64.8383 16.2L63.7783 15.86C63.0583 15.62 62.4183 15.3533 61.8583 15.06C61.3116 14.7667 60.8849 14.3867 60.5783 13.92C60.2849 13.4533 60.1383 12.86 60.1383 12.14C60.1383 11.0333 60.5583 10.1533 61.3983 9.5C62.2383 8.84667 63.4049 8.52 64.8983 8.52C65.6583 8.52 66.3316 8.59333 66.9183 8.74C67.5183 8.88667 67.9849 9.10667 68.3183 9.4C68.6649 9.68 68.8383 10.0267 68.8383 10.44C68.8383 10.7467 68.7649 11.0133 68.6183 11.24C68.4849 11.4533 68.3116 11.64 68.0983 11.8C67.7916 11.5867 67.3849 11.4067 66.8783 11.26C66.3716 11.1 65.8116 11.02 65.1983 11.02C64.5583 11.02 64.0783 11.1267 63.7583 11.34C63.4383 11.54 63.2783 11.8067 63.2783 12.14C63.2783 12.4067 63.3849 12.6267 63.5983 12.8C63.8116 12.96 64.1316 13.1067 64.5583 13.24L65.6583 13.58C66.8716 13.9533 67.8049 14.4533 68.4583 15.08C69.1116 15.6933 69.4383 16.52 69.4383 17.56C69.4383 18.68 69.0049 19.5933 68.1383 20.3C67.2716 20.9933 66.0183 21.34 64.3783 21.34C63.5649 21.34 62.8383 21.2533 62.1983 21.08C61.5583 20.9067 61.0449 20.6533 60.6583 20.32C60.2849 19.9867 60.0983 19.6 60.0983 19.16C60.0983 18.8133 60.1983 18.52 60.3983 18.28C60.6116 18.0267 60.8449 17.84 61.0983 17.72C61.4583 18.0133 61.9049 18.28 62.4383 18.52C62.9849 18.7467 63.5983 18.86 64.2783 18.86ZM81.0163 16.2C81.0163 17.24 80.8029 18.1467 80.3763 18.92C79.9629 19.68 79.3763 20.2667 78.6163 20.68C77.8563 21.0933 76.9629 21.3 75.9363 21.3C74.9229 21.3 74.0296 21.1 73.2563 20.7C72.4963 20.2867 71.9029 19.7 71.4762 18.94C71.0629 18.1667 70.8563 17.2533 70.8563 16.2C70.8563 15.1467 71.0696 14.2467 71.4963 13.5C71.9229 12.74 72.5163 12.1533 73.2763 11.74C74.0496 11.3133 74.9363 11.1 75.9363 11.1C76.9496 11.1 77.8363 11.3133 78.5963 11.74C79.3563 12.1533 79.9496 12.7467 80.3763 13.52C80.8029 14.28 81.0163 15.1733 81.0163 16.2ZM75.9363 13.44C75.3096 13.44 74.8096 13.68 74.4363 14.16C74.0763 14.64 73.8963 15.32 73.8963 16.2C73.8963 17.0933 74.0763 17.78 74.4363 18.26C74.7963 18.7267 75.2963 18.96 75.9363 18.96C76.5763 18.96 77.0763 18.72 77.4363 18.24C77.7963 17.76 77.9763 17.08 77.9763 16.2C77.9763 15.3333 77.7963 14.66 77.4363 14.18C77.0763 13.6867 76.5763 13.44 75.9363 13.44ZM88.0588 13.46C87.3388 13.46 86.7188 13.7 86.1988 14.18C85.6921 14.6467 85.4388 15.3333 85.4388 16.24C85.4388 17.1333 85.6854 17.8067 86.1788 18.26C86.6721 18.7133 87.2921 18.94 88.0388 18.94C88.4788 18.94 88.8588 18.8867 89.1788 18.78C89.5121 18.66 89.7988 18.5333 90.0388 18.4C90.2654 18.56 90.4388 18.74 90.5588 18.94C90.6788 19.1267 90.7388 19.36 90.7388 19.64C90.7388 20.1333 90.4721 20.5333 89.9388 20.84C89.4054 21.1467 88.6654 21.3 87.7188 21.3C86.6654 21.3 85.7388 21.1133 84.9388 20.74C84.1388 20.3533 83.5188 19.78 83.0788 19.02C82.6388 18.26 82.4188 17.3333 82.4188 16.24C82.4188 15.08 82.6588 14.1267 83.1388 13.38C83.6188 12.62 84.2521 12.0533 85.0388 11.68C85.8388 11.2933 86.7054 11.1 87.6388 11.1C88.5588 11.1 89.2788 11.2667 89.7988 11.6C90.3321 11.9333 90.5988 12.3467 90.5988 12.84C90.5988 13.08 90.5388 13.3 90.4188 13.5C90.3121 13.6867 90.1854 13.8533 90.0388 14C89.7854 13.8667 89.4921 13.7467 89.1588 13.64C88.8388 13.52 88.4721 13.46 88.0588 13.46ZM96.8853 17.16L94.7453 15.8L99.2653 11.24C99.8653 11.2533 100.345 11.3933 100.705 11.66C101.079 11.9267 101.265 12.26 101.265 12.66C101.265 13.0067 101.145 13.32 100.905 13.6C100.665 13.8667 100.299 14.2133 99.8053 14.64L96.8853 17.16ZM94.8653 16.22L97.2253 15.18L101.645 19.46C101.592 19.9933 101.432 20.4133 101.165 20.72C100.899 21.0133 100.519 21.16 100.025 21.16C99.6653 21.16 99.332 21.0733 99.0253 20.9C98.732 20.7133 98.4186 20.4133 98.0853 20L94.8653 16.22ZM92.6453 15.7L95.6053 15.76V20.98C95.472 21.02 95.2853 21.0533 95.0453 21.08C94.8053 21.12 94.5453 21.14 94.2653 21.14C93.7053 21.14 93.292 21.04 93.0253 20.84C92.772 20.64 92.6453 20.28 92.6453 19.76V15.7ZM95.6053 17.3L92.6453 17.24V7.98C92.7653 7.94 92.9453 7.9 93.1853 7.86C93.4253 7.82 93.6853 7.8 93.9653 7.8C94.5386 7.8 94.952 7.9 95.2053 8.1C95.472 8.3 95.6053 8.66667 95.6053 9.2V17.3ZM104.395 17.6L104.275 15.6L109.235 14.82C109.209 14.4467 109.049 14.1 108.755 13.78C108.462 13.46 108.029 13.3 107.455 13.3C106.855 13.3 106.355 13.5067 105.955 13.92C105.555 14.32 105.342 14.8933 105.315 15.64L105.415 17.02C105.535 17.7533 105.849 18.28 106.355 18.6C106.862 18.9067 107.462 19.06 108.155 19.06C108.715 19.06 109.242 18.98 109.735 18.82C110.229 18.66 110.629 18.4933 110.935 18.32C111.135 18.44 111.295 18.6067 111.415 18.82C111.549 19.0333 111.615 19.26 111.615 19.5C111.615 19.9 111.455 20.2333 111.135 20.5C110.829 20.7667 110.395 20.9667 109.835 21.1C109.289 21.2333 108.662 21.3 107.955 21.3C106.929 21.3 106.002 21.1067 105.175 20.72C104.362 20.3333 103.722 19.7533 103.255 18.98C102.789 18.2067 102.555 17.24 102.555 16.08C102.555 15.2267 102.689 14.4867 102.955 13.86C103.235 13.2333 103.602 12.72 104.055 12.32C104.522 11.9067 105.042 11.6 105.615 11.4C106.202 11.2 106.809 11.1 107.435 11.1C108.355 11.1 109.155 11.2867 109.835 11.66C110.529 12.02 111.069 12.5133 111.455 13.14C111.842 13.7667 112.035 14.4933 112.035 15.32C112.035 15.7333 111.922 16.0467 111.695 16.26C111.469 16.4733 111.155 16.6067 110.755 16.66L104.395 17.6ZM113.875 15.72H116.815V17.86C116.815 18.2333 116.935 18.5067 117.175 18.68C117.415 18.8533 117.755 18.94 118.195 18.94C118.395 18.94 118.609 18.92 118.835 18.88C119.075 18.8267 119.275 18.7667 119.435 18.7C119.542 18.82 119.635 18.9667 119.715 19.14C119.809 19.3133 119.855 19.5133 119.855 19.74C119.855 20.1933 119.669 20.5667 119.295 20.86C118.922 21.1533 118.295 21.3 117.415 21.3C116.295 21.3 115.422 21.0467 114.795 20.54C114.182 20.0333 113.875 19.2067 113.875 18.06V15.72ZM115.755 13.9V11.62H119.595C119.662 11.7267 119.729 11.88 119.795 12.08C119.862 12.28 119.895 12.5 119.895 12.74C119.895 13.14 119.802 13.4333 119.615 13.62C119.442 13.8067 119.202 13.9 118.895 13.9H115.755ZM116.815 16.22H113.875V9.04C114.009 9 114.195 8.96 114.435 8.92C114.675 8.86667 114.929 8.84 115.195 8.84C115.769 8.84 116.182 8.94 116.435 9.14C116.689 9.34 116.815 9.70667 116.815 10.24V16.22ZM129.668 19.56C129.668 19.0667 129.821 18.6533 130.128 18.32C130.448 17.9733 130.874 17.8 131.408 17.8C131.928 17.8 132.348 17.9733 132.668 18.32C132.988 18.6533 133.148 19.0667 133.148 19.56C133.148 20.0533 132.988 20.4733 132.668 20.82C132.348 21.1533 131.928 21.32 131.408 21.32C130.874 21.32 130.448 21.1533 130.128 20.82C129.821 20.4733 129.668 20.0533 129.668 19.56ZM125.288 19.56C125.288 19.0667 125.441 18.6533 125.748 18.32C126.068 17.9733 126.494 17.8 127.028 17.8C127.561 17.8 127.981 17.9733 128.288 18.32C128.608 18.6533 128.768 19.0667 128.768 19.56C128.768 20.0533 128.608 20.4733 128.288 20.82C127.981 21.1533 127.561 21.32 127.028 21.32C126.494 21.32 126.068 21.1533 125.748 20.82C125.441 20.4733 125.288 20.0533 125.288 19.56ZM120.928 19.56C120.928 19.0667 121.081 18.6533 121.388 18.32C121.708 17.9733 122.128 17.8 122.648 17.8C123.181 17.8 123.601 17.9733 123.908 18.32C124.228 18.6533 124.388 19.0667 124.388 19.56C124.388 20.0533 124.228 20.4733 123.908 20.82C123.601 21.1533 123.181 21.32 122.648 21.32C122.128 21.32 121.708 21.1533 121.388 20.82C121.081 20.4733 120.928 20.0533 120.928 19.56Z" fill="#F0F2F5"/>
<path opacity="0.6" d="M1.05 34.324C1.086 34.324 1.192 34.324 1.368 34.324C1.544 34.324 1.752 34.324 1.992 34.324C2.236 34.324 2.482 34.326 2.73 34.33C2.982 34.33 3.2 34.332 3.384 34.336C4.44 34.356 5.298 34.538 5.958 34.882C6.622 35.222 7.108 35.708 7.416 36.34C7.728 36.968 7.884 37.726 7.884 38.614C7.884 39.542 7.718 40.332 7.386 40.984C7.058 41.636 6.554 42.136 5.874 42.484C5.198 42.828 4.338 43 3.294 43H1.05V34.324ZM2.532 35.53V41.794H3.318C3.914 41.794 4.44 41.692 4.896 41.488C5.352 41.28 5.708 40.944 5.964 40.48C6.224 40.016 6.354 39.396 6.354 38.62C6.354 37.868 6.234 37.266 5.994 36.814C5.754 36.362 5.41 36.036 4.962 35.836C4.514 35.632 3.978 35.53 3.354 35.53H2.532ZM11.5461 43V34.324H13.6341L15.9081 40.954L18.2061 34.324H20.2821V43H18.8001V36.196L16.5141 43H15.2961L13.0281 36.238V43H11.5461ZM27.5059 43.12C27.0859 43.12 26.6759 43.068 26.2759 42.964C25.8759 42.856 25.5119 42.698 25.1839 42.49C24.8599 42.278 24.5899 42.016 24.3739 41.704C24.1579 41.388 24.0259 41.02 23.9779 40.6H25.4899C25.5539 40.892 25.6799 41.138 25.8679 41.338C26.0559 41.538 26.2899 41.69 26.5699 41.794C26.8539 41.898 27.1639 41.95 27.4999 41.95C27.8599 41.95 28.1839 41.902 28.4719 41.806C28.7639 41.71 28.9939 41.57 29.1619 41.386C29.3339 41.202 29.4199 40.976 29.4199 40.708C29.4199 40.472 29.3579 40.272 29.2339 40.108C29.1099 39.944 28.9359 39.81 28.7119 39.706C28.4919 39.598 28.2339 39.512 27.9379 39.448L26.3419 39.1C25.6979 38.968 25.1879 38.712 24.8119 38.332C24.4359 37.952 24.2439 37.446 24.2359 36.814C24.2319 36.29 24.3699 35.834 24.6499 35.446C24.9339 35.054 25.3199 34.752 25.8079 34.54C26.2959 34.324 26.8479 34.216 27.4639 34.216C28.1839 34.216 28.7899 34.334 29.2819 34.57C29.7779 34.802 30.1519 35.114 30.4039 35.506C30.6599 35.898 30.7899 36.328 30.7939 36.796H29.3179C29.2819 36.452 29.1779 36.178 29.0059 35.974C28.8379 35.77 28.6219 35.624 28.3579 35.536C28.0939 35.448 27.8019 35.404 27.4819 35.404C27.2419 35.404 27.0179 35.432 26.8099 35.488C26.6019 35.544 26.4199 35.626 26.2639 35.734C26.1079 35.842 25.9859 35.974 25.8979 36.13C25.8139 36.282 25.7719 36.456 25.7719 36.652C25.7719 36.932 25.8639 37.16 26.0479 37.336C26.2359 37.508 26.5859 37.654 27.0979 37.774L28.6579 38.122C29.1419 38.218 29.5319 38.362 29.8279 38.554C30.1239 38.746 30.3499 38.966 30.5059 39.214C30.6619 39.458 30.7659 39.708 30.8179 39.964C30.8699 40.22 30.8959 40.464 30.8959 40.696C30.8959 41.148 30.7559 41.558 30.4759 41.926C30.1999 42.294 29.8079 42.586 29.2999 42.802C28.7959 43.014 28.1979 43.12 27.5059 43.12Z" fill="#E5E8EF"/>
</svg>
