<svg width="118" height="48" viewBox="0 0 118 48" fill="none" xmlns="http://www.w3.org/2000/svg">
<path d="M20.2156 19.5516C20.0657 19.1922 19.8631 18.882 19.6089 18.6217C19.3541 18.3621 19.0544 18.1558 18.7084 18.002C18.3624 17.8489 17.9805 17.7724 17.5635 17.7724C17.1327 17.7724 16.7444 17.8489 16.3983 18.002C16.0523 18.1558 15.7552 18.3654 15.5082 18.6324C15.2599 18.8986 15.0638 19.2088 14.9204 19.5623C14.7771 19.915 14.6917 20.2918 14.6663 20.6918H20.4802C20.4534 20.2918 20.3655 19.9117 20.2156 19.5516ZM20.617 26.1906C19.8605 26.777 18.9071 27.0706 17.759 27.0706C16.9496 27.0706 16.2485 26.9368 15.6548 26.6705C15.0605 26.4036 14.5614 26.0302 14.1574 25.5509C13.7527 25.0704 13.4491 24.4979 13.2471 23.8309C13.0444 23.1647 12.9304 22.4378 12.9043 21.651C12.9043 20.8649 13.0216 20.1447 13.2568 19.4917C13.4914 18.838 13.8211 18.2723 14.2454 17.7923C14.6696 17.3124 15.1713 16.939 15.7526 16.6721C16.3332 16.4058 16.9692 16.2727 17.6612 16.2727C18.5618 16.2727 19.3085 16.4624 19.9028 16.8425C20.4965 17.2226 20.9728 17.7058 21.3312 18.2922C21.6902 18.8787 21.9385 19.519 22.0754 20.2119C22.2122 20.9048 22.2676 21.5651 22.2422 22.1908H14.6663C14.6533 22.6448 14.7054 23.0748 14.8227 23.4815C14.94 23.8882 15.1296 24.2483 15.3903 24.5611C15.6516 24.874 15.9839 25.1243 16.3886 25.3106C16.7932 25.497 17.2696 25.5909 17.8176 25.5909C18.5227 25.5909 19.1 25.4245 19.5503 25.0903C20.0006 24.7575 20.2971 24.251 20.4411 23.5714H22.0851C21.8629 24.7309 21.3735 25.6042 20.617 26.1906Z" fill="white"/>
<path d="M35.9019 13.4126H34.2383V26.8504H35.9019V13.4126Z" fill="white"/>
<path d="M45.0496 19.5516C44.8997 19.1922 44.6971 18.882 44.4429 18.6217C44.1881 18.3621 43.8877 18.1558 43.5424 18.002C43.1963 17.8489 42.8145 17.7724 42.3974 17.7724C41.9667 17.7724 41.5783 17.8489 41.2323 18.002C40.8863 18.1558 40.5892 18.3654 40.3422 18.6324C40.0939 18.8986 39.8978 19.2088 39.7544 19.5623C39.6111 19.915 39.5257 20.2918 39.5003 20.6918H45.3141C45.2874 20.2918 45.1995 19.9117 45.0496 19.5516ZM45.451 26.1906C44.6938 26.777 43.7411 27.0706 42.5929 27.0706C41.7836 27.0706 41.0825 26.9368 40.4888 26.6705C39.8945 26.4036 39.3954 26.0302 38.9914 25.5509C38.5867 25.0704 38.283 24.4979 38.081 23.8309C37.8784 23.1647 37.7643 22.4378 37.7383 21.651C37.7383 20.8649 37.8556 20.1447 38.0908 19.4917C38.3254 18.838 38.6551 18.2723 39.0793 17.7923C39.5035 17.3124 40.0053 16.939 40.5866 16.6721C41.1672 16.4058 41.8032 16.2727 42.4952 16.2727C43.3957 16.2727 44.1425 16.4624 44.7368 16.8425C45.3304 17.2226 45.8068 17.7058 46.1652 18.2922C46.5242 18.8787 46.7725 19.519 46.9093 20.2119C47.0462 20.9048 47.1016 21.5651 47.0762 22.1908H39.5003C39.4873 22.6448 39.5394 23.0748 39.6567 23.4815C39.774 23.8882 39.9636 24.2483 40.2243 24.5611C40.4856 24.874 40.8179 25.1243 41.2226 25.3106C41.6272 25.497 42.1036 25.5909 42.6516 25.5909C43.3566 25.5909 43.934 25.4245 44.3843 25.0903C44.8345 24.7575 45.131 24.251 45.2751 23.5714H46.9191C46.6969 24.7309 46.2075 25.6042 45.451 26.1906Z" fill="white"/>
<path d="M50.4571 16.5124V18.6923H50.4962C50.9009 17.8523 51.3968 17.2326 51.9839 16.8326C52.5717 16.4325 53.3152 16.2461 54.2158 16.2728V18.072C53.5498 18.072 52.9822 18.1658 52.5124 18.3522C52.0432 18.5392 51.664 18.8121 51.3773 19.1716C51.0899 19.5317 50.8814 19.9683 50.751 20.4815C50.6201 20.9954 50.5549 21.5845 50.5549 22.2521V26.851H48.8906V16.5124H50.4571Z" fill="white"/>
<path d="M56.0566 13.4126H57.7203V16.5118H59.7371V18.0114H57.7203V24.4301C57.7203 24.6305 57.7365 24.7896 57.7691 24.91C57.8017 25.0299 57.8636 25.1237 57.9555 25.1903C58.0461 25.2568 58.1738 25.3001 58.3374 25.3201C58.5003 25.34 58.712 25.35 58.9733 25.35H59.7371V26.8497H58.4644C58.0337 26.8497 57.6649 26.8197 57.3586 26.7598C57.0517 26.6999 56.8034 26.5894 56.6144 26.4303C56.4255 26.2699 56.2847 26.0436 56.1935 25.7501C56.1023 25.4572 56.0566 25.0705 56.0566 24.5905V13.4126Z" fill="white"/>
<path d="M63.4877 16.5124V18.6923H63.5275C63.9315 17.8523 64.4274 17.2326 65.0152 16.8326C65.6023 16.4325 66.3458 16.2461 67.2464 16.2728V18.072C66.581 18.072 66.0128 18.1658 65.5436 18.3522C65.0738 18.5392 64.6952 18.8121 64.4085 19.1716C64.1205 19.5317 63.912 19.9683 63.7816 20.4815C63.6513 20.9954 63.5861 21.5845 63.5861 22.2521V26.851H61.9219V16.5124H63.4877Z" fill="white"/>
<path d="M84.7553 18.3115C84.3376 17.9514 83.7766 17.7716 83.0722 17.7716C82.4714 17.7716 81.9689 17.8848 81.5643 18.1118C81.1596 18.3381 80.8371 18.6383 80.5953 19.011C80.3535 19.3851 80.1809 19.8151 80.0766 20.301C79.9723 20.7876 79.9202 21.2908 79.9202 21.8114C79.9202 22.2906 79.9756 22.7572 80.0864 23.2105C80.1972 23.6638 80.3705 24.0678 80.6051 24.4206C80.8403 24.7734 81.1466 25.057 81.5252 25.27C81.9038 25.4836 82.3541 25.5901 82.876 25.5901C83.6977 25.5901 84.3409 25.3698 84.8042 24.9305C85.2675 24.4905 85.551 23.8708 85.6559 23.0707H87.3586C87.1761 24.3507 86.7096 25.3365 85.9589 26.0301C85.2082 26.7237 84.1877 27.0698 82.8956 27.0698C82.1253 27.0698 81.4437 26.9427 80.8501 26.6898C80.2565 26.4368 79.7606 26.0767 79.3624 25.6101C78.9643 25.1435 78.6639 24.587 78.4619 23.94C78.2592 23.2937 78.1582 22.5842 78.1582 21.8114C78.1582 21.0379 78.2559 20.3144 78.4521 19.6414C78.6476 18.9684 78.9447 18.3814 79.3429 17.8815C79.741 17.3816 80.2395 16.9889 80.8403 16.702C81.4405 16.4151 82.1384 16.272 82.9347 16.272C83.5087 16.272 84.047 16.3419 84.5494 16.4816C85.0518 16.6214 85.4962 16.8391 85.8807 17.132C86.2658 17.4248 86.5818 17.7949 86.8301 18.2416C87.0777 18.6882 87.2348 19.2181 87.2999 19.8318H85.5777C85.4467 19.1781 85.173 18.6716 84.7553 18.3115Z" fill="white"/>
<path d="M89.0234 13.4126V26.8504H90.6877V22.9311L92.2536 21.4514L95.7183 26.8504H97.8322L93.5256 20.2713L97.539 16.5124H95.3078L90.6877 21.0307V13.4126H89.0234Z" fill="white"/>
<path d="M74.8161 23.2505C74.8161 23.4907 74.7574 23.7477 74.6401 24.0206C74.5222 24.2942 74.3391 24.5471 74.0914 24.7801C73.8432 25.0137 73.5239 25.2074 73.1322 25.3605C72.7406 25.5136 72.2708 25.5901 71.7228 25.5901C71.4751 25.5901 71.2301 25.5635 70.989 25.5103C70.7473 25.457 70.5387 25.3705 70.3622 25.25C70.1862 25.1309 70.0422 24.9738 69.9314 24.7801C69.8207 24.587 69.7653 24.3507 69.7653 24.0705C69.7653 23.6438 69.8598 23.3077 70.0494 23.0607C70.2383 22.8145 70.4827 22.6241 70.7831 22.491C71.0835 22.3578 71.4224 22.2607 71.801 22.2008C72.1796 22.1408 72.5549 22.0876 72.927 22.041C73.2991 21.9944 73.6542 21.9338 73.9937 21.8606C74.3325 21.7881 74.6069 21.6709 74.8161 21.5112V23.2505ZM76.4797 19.1116C76.4797 18.5118 76.3689 18.0252 76.1467 17.6518C75.9251 17.2791 75.6312 16.9889 75.2657 16.7818C74.9001 16.5755 74.4928 16.439 74.0426 16.3718C73.5923 16.3059 73.1388 16.272 72.682 16.272C72.1209 16.272 71.5859 16.3319 71.077 16.4524C70.5674 16.5715 70.1178 16.7692 69.7262 17.0414C69.3345 17.3157 69.0218 17.6718 68.7865 18.1118C68.5513 18.5518 68.4209 19.0916 68.3949 19.7313H70.0592C70.0982 18.9711 70.353 18.4552 70.8222 18.1817C71.292 17.9088 71.8792 17.7716 72.5842 17.7716C72.8449 17.7716 73.1094 17.7916 73.3766 17.8315C73.6444 17.8715 73.8862 17.952 74.1019 18.0718C74.3163 18.1917 74.4928 18.3654 74.6303 18.5917C74.7672 18.818 74.8356 19.1182 74.8356 19.4916C74.8356 19.8111 74.7437 20.0548 74.5613 20.2212C74.3782 20.3882 74.1305 20.5147 73.8171 20.6012C73.5043 20.6884 73.142 20.7543 72.7308 20.8016C72.3197 20.8482 71.8857 20.9181 71.4295 21.0113C70.9988 21.0911 70.5778 21.191 70.1667 21.3115C69.7555 21.4313 69.3899 21.6083 69.07 21.8406C68.7507 22.0743 68.4933 22.3778 68.2971 22.7512C68.1016 23.124 68.0039 23.6039 68.0039 24.1903C68.0039 24.7102 68.0919 25.1535 68.2678 25.5203C68.4438 25.887 68.6849 26.1866 68.9924 26.4195C69.2987 26.6532 69.6538 26.8202 70.0592 26.9201C70.4632 27.0199 70.8939 27.0698 71.3507 27.0698C72.0558 27.0698 72.7113 26.9467 73.3186 26.7004C73.9253 26.4535 74.457 26.0501 74.9132 25.4903C74.9132 26.0501 75.0409 26.4535 75.2957 26.7004C75.5498 26.9467 75.8926 27.0698 76.3233 27.0698C76.3767 27.0698 76.4288 27.0685 76.4797 27.0665V24.4306V19.1116Z" fill="white"/>
<path d="M30.1891 23.2505C30.1891 23.4907 30.1298 23.7477 30.0132 24.0206C29.8952 24.2942 29.7121 24.5471 29.4645 24.7801C29.2162 25.0137 28.8969 25.2074 28.5053 25.3605C28.1137 25.5136 27.6438 25.5901 27.0958 25.5901C26.8475 25.5901 26.6032 25.5635 26.3621 25.5103C26.1203 25.457 25.9118 25.3705 25.7352 25.25C25.5593 25.1309 25.4153 24.9738 25.3045 24.7801C25.1937 24.587 25.1383 24.3507 25.1383 24.0705C25.1383 23.6438 25.2328 23.3077 25.4224 23.0607C25.6114 22.8145 25.8558 22.6241 26.1562 22.491C26.4566 22.3578 26.7954 22.2607 27.174 22.2008C27.5526 22.1408 27.9279 22.0876 28.3 22.041C28.6721 21.9944 29.0272 21.9338 29.3667 21.8606C29.7056 21.7881 29.9799 21.6709 30.1891 21.5112V23.2505ZM31.8527 19.1116C31.8527 18.5118 31.7419 18.0252 31.5197 17.6518C31.2982 17.2791 31.0043 16.9889 30.6387 16.7818C30.2732 16.5755 29.8659 16.439 29.4156 16.3718C28.9653 16.3059 28.5118 16.272 28.055 16.272C27.494 16.272 26.959 16.3319 26.45 16.4524C25.9405 16.5715 25.4908 16.7692 25.0992 17.0414C24.7076 17.3157 24.3948 17.6718 24.1596 18.1118C23.9243 18.5518 23.794 19.0916 23.7679 19.7313H25.4315C25.4713 18.9711 25.7254 18.4552 26.1953 18.1817C26.6651 17.9088 27.2522 17.7716 27.9573 17.7716C28.2179 17.7716 28.4825 17.7916 28.7497 17.8315C29.0175 17.8715 29.2592 17.952 29.4743 18.0718C29.6893 18.1917 29.8659 18.3654 30.0027 18.5917C30.1402 18.818 30.2087 19.1182 30.2087 19.4916C30.2087 19.8111 30.1168 20.0548 29.9343 20.2212C29.7512 20.3882 29.5036 20.5147 29.1902 20.6012C28.8774 20.6884 28.5151 20.7543 28.1039 20.8016C27.6927 20.8482 27.2587 20.9181 26.8026 21.0113C26.3719 21.0911 25.9509 21.191 25.5397 21.3115C25.1285 21.4313 24.763 21.6083 24.443 21.8406C24.1237 22.0743 23.8663 22.3778 23.6702 22.7512C23.4747 23.124 23.377 23.6039 23.377 24.1903C23.377 24.7102 23.4649 25.1535 23.6409 25.5203C23.8168 25.887 24.0579 26.1866 24.3655 26.4195C24.6717 26.6532 25.0269 26.8202 25.4315 26.9201C25.8362 27.0199 26.2669 27.0698 26.7237 27.0698C27.4288 27.0698 28.0843 26.9467 28.6917 26.7004C29.2983 26.4535 29.8301 26.0501 30.2862 25.4903C30.2862 26.0501 30.4139 26.4535 30.6687 26.7004C30.9228 26.9467 31.2656 27.0698 31.6963 27.0698C31.7498 27.0698 31.8019 27.0685 31.8527 27.0665V24.4306V19.1116Z" fill="white"/>
<path d="M4.95305 25.2488C5.16157 25.2488 5.42288 25.2321 5.73631 25.1988C6.04909 25.1656 6.38273 25.0857 6.73461 24.9586C7.08714 24.8321 7.43642 24.6484 7.78243 24.4087C8.1278 24.1691 8.43797 23.8423 8.71231 23.4289C8.986 23.0156 9.21146 22.499 9.3874 21.8787C9.56399 21.2596 9.65196 20.5088 9.65196 19.6295C9.65196 18.7762 9.57051 18.0127 9.40695 17.3397C9.24339 16.6661 8.97622 16.093 8.60414 15.6197C8.23206 15.1465 7.75246 14.7864 7.16534 14.5401C6.57822 14.2931 5.85426 14.17 4.99215 14.17H1.85976V25.2488H4.95305ZM4.79666 12.5698C6.9503 12.5698 8.6074 13.1303 9.76926 14.2499C10.9311 15.3695 11.5117 17.0768 11.5117 19.3692C11.5117 20.5694 11.3807 21.6324 11.1201 22.559C10.8588 23.4855 10.4548 24.2656 9.90675 24.8986C9.35808 25.5323 8.65953 26.0156 7.81176 26.3484C6.96333 26.6819 5.95786 26.8489 4.79666 26.8489H0V12.5698H4.79666Z" fill="white"/>
<path d="M118 9H100.525V26.8502H118V9Z" fill="#00599A"/>
<path d="M104.209 17.4535L103.055 21.7455H107.634C108.48 21.7455 109.45 21.213 109.751 20.0928L111.407 13.9297H109.746L108.173 19.7859C108.118 19.975 107.946 20.1127 107.743 20.1127H105.169L105.794 17.7844C105.852 17.5973 106.024 17.4622 106.224 17.4622H108.086L108.525 15.8274H106.319C105.317 15.8274 104.471 16.515 104.209 17.4535Z" fill="white"/>
<path d="M113.13 21.0619H113.003V21.2269H113.13C113.193 21.2269 113.232 21.195 113.232 21.1437C113.232 21.0905 113.193 21.0619 113.13 21.0619ZM113.212 21.2962L113.35 21.4932H113.234L113.11 21.3128H113.003V21.4932H112.907V20.9713H113.135C113.253 20.9713 113.331 21.0339 113.331 21.1384C113.331 21.2243 113.283 21.2762 113.212 21.2962ZM113.105 20.7983C112.855 20.7983 112.667 21.0013 112.667 21.2482C112.667 21.4959 112.854 21.6962 113.102 21.6962C113.351 21.6962 113.54 21.4932 113.54 21.2463C113.54 20.9986 113.352 20.7983 113.105 20.7983ZM113.102 21.7455C112.828 21.7455 112.615 21.5212 112.615 21.2482C112.615 20.9767 112.832 20.749 113.105 20.749C113.378 20.749 113.591 20.9733 113.591 21.2463C113.591 21.5185 113.376 21.7455 113.102 21.7455Z" fill="white"/>
<path d="M113.792 13.9297H112.12L110.02 21.7455C110.865 21.7455 111.835 21.213 112.137 20.0928L113.792 13.9297ZM113.995 15.8274H115.654L115.216 17.4622H113.555L113.995 15.8274Z" fill="white"/>
<path d="M0 34.8379H3.22166V35.4529H1.95685V38.9036H1.2596V35.4529H0V34.8379Z" fill="white"/>
<path d="M4.06836 34.8379H6.93358V35.4529H4.76495V36.5173H6.77198V37.0984H4.76495V38.2885H6.97268V38.9036H4.06836V34.8379Z" fill="white"/>
<path d="M10.6035 36.1306C10.5742 36.0128 10.5332 35.905 10.481 35.8058C10.4289 35.7073 10.3624 35.6221 10.2803 35.5502C10.1982 35.4776 10.1024 35.4211 9.99361 35.3818C9.88348 35.3412 9.75641 35.3219 9.6111 35.3219C9.39997 35.3219 9.21686 35.3652 9.06243 35.4523C8.90799 35.5395 8.78288 35.6567 8.68578 35.8031C8.58934 35.9496 8.51831 36.1153 8.4714 36.3017C8.42513 36.4874 8.40167 36.6771 8.40167 36.8708C8.40167 37.0645 8.42513 37.2535 8.4714 37.4399C8.51831 37.6263 8.58934 37.792 8.68578 37.9385C8.78288 38.0849 8.90799 38.2007 9.06243 38.2886C9.21686 38.3758 9.39997 38.4191 9.6111 38.4191C9.76749 38.4191 9.90499 38.3918 10.0242 38.3365C10.1428 38.2819 10.2451 38.2054 10.3305 38.1089C10.4159 38.0117 10.483 37.8992 10.5312 37.7707C10.5794 37.6416 10.6114 37.5025 10.6257 37.3541H11.306C11.291 37.5977 11.2402 37.8193 11.1529 38.0204C11.0649 38.222 10.9476 38.3958 10.799 38.5415C10.6498 38.688 10.4758 38.8005 10.2751 38.8803C10.0744 38.9602 9.85285 39.0002 9.6111 39.0002C9.31396 39.0002 9.04744 38.9443 8.81155 38.8324C8.57566 38.7199 8.37561 38.5675 8.21205 38.3738C8.04849 38.1801 7.92337 37.9545 7.83606 37.6962C7.74874 37.4379 7.70508 37.163 7.70508 36.8708C7.70508 36.5819 7.74874 36.309 7.83606 36.0508C7.92337 35.7925 8.04849 35.5662 8.21205 35.3731C8.37561 35.1794 8.57566 35.0257 8.81155 34.9119C9.04744 34.798 9.31396 34.7415 9.6111 34.7415C9.83461 34.7415 10.0444 34.7721 10.2412 34.8353C10.438 34.8972 10.612 34.9891 10.7625 35.1082C10.9131 35.2274 11.0349 35.3731 11.1274 35.5442C11.2206 35.7146 11.278 35.9103 11.3001 36.1306H10.6035Z" fill="white"/>
<path d="M12.332 34.8379H13.0286V36.4547H14.8402V34.8379H15.5374V38.9036H14.8402V37.0704H13.0286V38.9036H12.332V34.8379Z" fill="white"/>
<path d="M16.7559 34.8379H17.4922L19.309 37.8332H19.32V34.8379H19.9834V38.9036H19.2477L17.4362 35.9142H17.4192V38.9036H16.7559V34.8379Z" fill="white"/>
<path d="M22.9145 34.7415C23.2116 34.7415 23.4781 34.798 23.7147 34.9119C23.9506 35.0257 24.15 35.1794 24.3135 35.3731C24.4771 35.5662 24.6029 35.7925 24.6895 36.0508C24.7768 36.309 24.8205 36.5819 24.8205 36.8701C24.8205 37.163 24.7768 37.4379 24.6895 37.6962C24.6029 37.9545 24.4771 38.1801 24.3135 38.3738C24.15 38.5675 23.9506 38.7199 23.7147 38.8318C23.4781 38.9443 23.2116 38.9995 22.9145 38.9995C22.6167 38.9995 22.3502 38.9443 22.1149 38.8318C21.8784 38.7199 21.679 38.5675 21.5154 38.3738C21.3519 38.1801 21.2261 37.9545 21.1394 37.6962C21.0515 37.4379 21.0078 37.163 21.0078 36.8701C21.0078 36.5819 21.0515 36.309 21.1394 36.0508C21.2261 35.7925 21.3519 35.5662 21.5154 35.3731C21.679 35.1794 21.8784 35.0257 22.1149 34.9119C22.3502 34.798 22.6167 34.7415 22.9145 34.7415ZM22.9145 35.3219C22.7027 35.3219 22.5196 35.3652 22.3658 35.4523C22.2114 35.5395 22.0856 35.6567 21.9892 35.8031C21.8927 35.9496 21.821 36.1153 21.7748 36.301C21.7279 36.4874 21.7051 36.6764 21.7051 36.8701C21.7051 37.0638 21.7279 37.2535 21.7748 37.4399C21.821 37.6256 21.8927 37.792 21.9892 37.9378C22.0856 38.0843 22.2114 38.2007 22.3658 38.2886C22.5196 38.3758 22.7027 38.4191 22.9145 38.4191C23.1263 38.4191 23.3094 38.3758 23.4638 38.2886C23.6176 38.2007 23.7434 38.0843 23.8398 37.9378C23.9362 37.792 24.0079 37.6256 24.0542 37.4399C24.1005 37.2535 24.1239 37.0638 24.1239 36.8701C24.1239 36.6764 24.1005 36.4874 24.0542 36.301C24.0079 36.1153 23.9362 35.9496 23.8398 35.8031C23.7434 35.6567 23.6176 35.5395 23.4638 35.4523C23.3094 35.3652 23.1263 35.3219 22.9145 35.3219Z" fill="white"/>
<path d="M25.8594 34.8379H26.556V38.2885H28.5793V38.9036H25.8594V34.8379Z" fill="white"/>
<path d="M31.0473 34.7415C31.3444 34.7415 31.611 34.798 31.8475 34.9119C32.0834 35.0257 32.2828 35.1794 32.4463 35.3731C32.6099 35.5662 32.7357 35.7925 32.8223 36.0508C32.9097 36.309 32.9533 36.5819 32.9533 36.8701C32.9533 37.163 32.9097 37.4379 32.8223 37.6962C32.7357 37.9545 32.6099 38.1801 32.4463 38.3738C32.2828 38.5675 32.0834 38.7199 31.8475 38.8318C31.611 38.9443 31.3444 38.9995 31.0473 38.9995C30.7495 38.9995 30.4836 38.9443 30.2477 38.8318C30.0112 38.7199 29.8118 38.5675 29.6482 38.3738C29.4847 38.1801 29.3589 37.9545 29.2723 37.6962C29.1843 37.4379 29.1406 37.163 29.1406 36.8701C29.1406 36.5819 29.1843 36.309 29.2723 36.0508C29.3589 35.7925 29.4847 35.5662 29.6482 35.3731C29.8118 35.1794 30.0112 35.0257 30.2477 34.9119C30.4836 34.798 30.7495 34.7415 31.0473 34.7415ZM31.0473 35.3219C30.8355 35.3219 30.6524 35.3652 30.4986 35.4523C30.3442 35.5395 30.2184 35.6567 30.122 35.8031C30.0255 35.9496 29.9539 36.1153 29.9076 36.301C29.8607 36.4874 29.8379 36.6764 29.8379 36.8701C29.8379 37.0638 29.8607 37.2535 29.9076 37.4399C29.9539 37.6256 30.0255 37.792 30.122 37.9378C30.2184 38.0843 30.3442 38.2007 30.4986 38.2886C30.6524 38.3758 30.8355 38.4191 31.0473 38.4191C31.2591 38.4191 31.4422 38.3758 31.5966 38.2886C31.7504 38.2007 31.8762 38.0843 31.9726 37.9378C32.0691 37.792 32.1407 37.6256 32.187 37.4399C32.2333 37.2535 32.2567 37.0638 32.2567 36.8701C32.2567 36.6764 32.2333 36.4874 32.187 36.301C32.1407 36.1153 32.0691 35.9496 31.9726 35.8031C31.8762 35.6567 31.7504 35.5395 31.5966 35.4523C31.4422 35.3652 31.2591 35.3219 31.0473 35.3219Z" fill="white"/>
<path d="M37.4519 38.9036H37.0055L36.8999 38.4251C36.7142 38.6421 36.5285 38.7918 36.3428 38.8757C36.1564 38.9589 35.9434 39.0002 35.7016 39.0002C35.4038 39.0002 35.1379 38.9443 34.902 38.8324C34.6655 38.7206 34.4661 38.5682 34.3025 38.3738C34.139 38.1808 34.0132 37.9545 33.9266 37.6962C33.8392 37.4386 33.7949 37.163 33.7949 36.8708C33.7949 36.5826 33.8392 36.309 33.9266 36.0508C34.0132 35.7925 34.139 35.5668 34.3025 35.3731C34.4661 35.1801 34.6655 35.0257 34.902 34.9119C35.1379 34.798 35.4038 34.7415 35.7016 34.7415C35.9166 34.7415 36.1226 34.7707 36.3174 34.8293C36.5129 34.8879 36.6869 34.9758 36.8387 35.0916C36.9912 35.2074 37.1169 35.3518 37.2179 35.5269C37.3183 35.7013 37.3809 35.9023 37.4076 36.1313H36.7273C36.709 35.9982 36.6686 35.8817 36.6074 35.7805C36.5461 35.68 36.4686 35.5955 36.376 35.5269C36.2829 35.459 36.1792 35.4078 36.0639 35.3731C35.9486 35.3392 35.8274 35.3225 35.7016 35.3225C35.4898 35.3225 35.3067 35.3658 35.1529 35.453C34.9985 35.5402 34.8727 35.6567 34.7763 35.8031C34.6798 35.9496 34.6082 36.1153 34.5619 36.3017C34.515 36.4874 34.4922 36.6771 34.4922 36.8708C34.4922 37.0645 34.515 37.2542 34.5619 37.4399C34.6082 37.6263 34.6798 37.792 34.7763 37.9385C34.8727 38.0849 34.9985 38.2014 35.1529 38.2886C35.3067 38.3758 35.4898 38.4197 35.7016 38.4197C35.8801 38.4231 36.0378 38.3998 36.1753 38.3478C36.3128 38.2973 36.4288 38.2234 36.524 38.1262C36.6184 38.029 36.6901 37.9112 36.7383 37.7707C36.7872 37.6303 36.8126 37.4739 36.8165 37.3035H35.757V36.763H37.4519V38.9036Z" fill="white"/>
<path d="M39.4375 37.3094L37.9434 34.8379H38.752L39.8057 36.6604L40.8425 34.8379H41.6225L40.1341 37.3094V38.9036H39.4375V37.3094Z" fill="white"/>
<path d="M43.8184 34.8379H47.04V35.4529H45.7746V38.9036H45.078V35.4529H43.8184V34.8379Z" fill="white"/>
<path d="M47.877 34.8379H48.5735V36.4547H50.3851V34.8379H51.0817V38.9036H50.3851V37.0704H48.5735V38.9036H47.877V34.8379Z" fill="white"/>
<path d="M53.4083 34.8379H54.1498L55.6825 38.9029H54.9357L54.5623 37.8272H52.9736L52.6003 38.9029H51.8809L53.4083 34.8379ZM53.1633 37.2861H54.3779L53.7817 35.5381H53.7654L53.1633 37.2861Z" fill="white"/>
<path d="M55.6914 34.8379H58.9131V35.4529H57.6476V38.9036H56.951V35.4529H55.6914V34.8379Z" fill="white"/>
<path d="M61.5625 34.8379H63.2118C63.5167 34.8379 63.7807 34.8905 64.0035 34.997C64.2264 35.1035 64.4088 35.2486 64.5496 35.433C64.691 35.6167 64.7959 35.8323 64.865 36.0793C64.934 36.3262 64.9679 36.5898 64.9679 36.8707C64.9679 37.1516 64.934 37.4152 64.865 37.6615C64.7959 37.9084 64.691 38.1241 64.5496 38.3078C64.4088 38.4922 64.2264 38.638 64.0035 38.7438C63.7807 38.8503 63.5167 38.9029 63.2118 38.9029H61.5625V34.8379ZM62.2591 38.3225H62.9446C63.2157 38.3225 63.4379 38.2852 63.6106 38.2113C63.7839 38.1374 63.9188 38.0349 64.0178 37.9038C64.1162 37.7733 64.1834 37.6196 64.2186 37.4425C64.2537 37.2661 64.2713 37.0757 64.2713 36.8707C64.2713 36.665 64.2537 36.4747 64.2186 36.2983C64.1834 36.1219 64.1162 35.9681 64.0178 35.837C63.9188 35.7059 63.7839 35.6034 63.6106 35.5295C63.4379 35.4556 63.2157 35.419 62.9446 35.419H62.2591V38.3225Z" fill="white"/>
<path d="M66.0059 34.8379H67.9067C68.3446 34.8379 68.6743 34.9344 68.8932 35.1281C69.1128 35.3218 69.2223 35.5907 69.2223 35.9368C69.2223 36.1305 69.1943 36.291 69.1383 36.4181C69.0829 36.5452 69.0177 36.6477 68.9434 36.725C68.8691 36.8035 68.7955 36.8594 68.7232 36.8934C68.6508 36.9273 68.598 36.9499 68.5648 36.9619V36.9732C68.6241 36.9806 68.688 36.9992 68.757 37.0298C68.8255 37.0604 68.8893 37.1084 68.9486 37.1749C69.0086 37.2415 69.0575 37.328 69.0965 37.4339C69.1356 37.5404 69.1552 37.6735 69.1552 37.8326C69.1552 38.0722 69.1728 38.2892 69.2086 38.4842C69.2432 38.6799 69.2986 38.8197 69.3722 38.9036H68.6254C68.5733 38.8157 68.5433 38.7192 68.5335 38.6127C68.5244 38.5068 68.5199 38.4043 68.5199 38.3052C68.5199 38.1195 68.5088 37.959 68.4866 37.8239C68.4638 37.6895 68.4234 37.5776 68.3635 37.4878C68.3042 37.3992 68.2234 37.334 68.1211 37.2921C68.0194 37.2501 67.8878 37.2295 67.7281 37.2295H66.7025V38.9036H66.0059V34.8379ZM66.7025 36.6883H67.8454C68.0683 36.6883 68.2377 36.6338 68.3524 36.5259C68.4677 36.4181 68.5257 36.255 68.5257 36.0394C68.5257 35.9109 68.5068 35.8044 68.4697 35.7232C68.4325 35.642 68.3811 35.5781 68.3165 35.5328C68.2507 35.4869 68.1771 35.4563 68.0937 35.4416C68.0096 35.4256 67.9236 35.419 67.8337 35.419H66.7025V36.6883Z" fill="white"/>
<path d="M71.0443 34.8379H70.3477V38.9036H71.0443V34.8379Z" fill="white"/>
<path d="M71.8574 34.8379H72.582L73.5797 38.0549H73.5914L74.6106 34.8379H75.3195L73.9589 38.9036H73.1841L71.8574 34.8379Z" fill="white"/>
<path d="M76.1328 34.8379H78.9974V35.4529H76.8294V36.5173H78.8364V37.0984H76.8294V38.2885H79.0371V38.9036H76.1328V34.8379Z" fill="white"/>
<path d="M80.4622 37.5477C80.4622 37.7034 80.4883 37.8359 80.5404 37.9464C80.5925 38.0562 80.6649 38.1461 80.7581 38.2166C80.8506 38.2872 80.9575 38.3385 81.078 38.3704C81.1992 38.403 81.3295 38.419 81.4709 38.419C81.6234 38.419 81.7531 38.401 81.8613 38.3644C81.9694 38.3291 82.0561 38.2825 82.1232 38.226C82.1897 38.1681 82.2386 38.1028 82.2679 38.0289C82.2979 37.9551 82.3122 37.8805 82.3122 37.804C82.3122 37.6482 82.2783 37.5337 82.2099 37.4592C82.1408 37.3853 82.0652 37.3334 81.9838 37.3034C81.8424 37.2495 81.6782 37.1996 81.4905 37.1516C81.3035 37.105 81.0715 37.0431 80.7965 36.9673C80.6258 36.9213 80.4837 36.8614 80.3703 36.7875C80.257 36.7137 80.1664 36.6311 80.0999 36.5406C80.0328 36.4487 79.9859 36.3522 79.9579 36.249C79.9298 36.1472 79.9155 36.0427 79.9155 35.9362C79.9155 35.7318 79.9579 35.5541 80.0413 35.4044C80.1253 35.2539 80.2355 35.1294 80.3729 35.0309C80.5104 34.9324 80.6662 34.8592 80.8415 34.8119C81.0155 34.764 81.192 34.7407 81.3706 34.7407C81.5785 34.7407 81.7753 34.7687 81.959 34.8233C82.1428 34.8778 82.3044 34.961 82.4438 35.0709C82.5833 35.1814 82.6934 35.3165 82.7755 35.4782C82.857 35.6393 82.898 35.8264 82.898 36.0387H82.2008C82.1825 35.7771 82.0952 35.5921 81.9395 35.4836C81.7831 35.3757 81.5843 35.3218 81.3426 35.3218C81.2611 35.3218 81.1777 35.3305 81.0923 35.3471C81.0063 35.3638 80.9281 35.393 80.8578 35.4323C80.7874 35.4722 80.7287 35.5268 80.6825 35.5947C80.6362 35.6633 80.6127 35.7485 80.6127 35.851C80.6127 35.9954 80.6564 36.1086 80.7437 36.1898C80.831 36.2717 80.9451 36.3329 81.0865 36.3748C81.1008 36.3788 81.1601 36.3948 81.2618 36.4234C81.3641 36.4514 81.4788 36.4827 81.6052 36.5173C81.7309 36.5512 81.8548 36.5845 81.976 36.6171C82.0965 36.6498 82.1825 36.673 82.2347 36.6884C82.365 36.7296 82.4777 36.7875 82.5748 36.8588C82.6713 36.9306 82.7521 37.0139 82.8172 37.1064C82.8824 37.1996 82.9306 37.2994 82.9625 37.4052C82.9938 37.5117 83.0094 37.6182 83.0094 37.7241C83.0094 37.9524 82.9638 38.1461 82.8726 38.3078C82.782 38.4696 82.6621 38.6014 82.5136 38.7032C82.365 38.8057 82.1956 38.8809 82.0059 38.9289C81.8163 38.9761 81.6234 38.9994 81.4266 38.9994C81.1999 38.9994 80.9861 38.9715 80.7854 38.9142C80.5847 38.8577 80.4101 38.7698 80.2615 38.652C80.1129 38.5348 79.9937 38.3837 79.9051 38.1993C79.8152 38.0156 79.7689 37.7986 79.7656 37.5477H80.4622Z" fill="white"/>
<path d="M86.8379 37.3094L85.3438 34.8379H86.1524L87.2055 36.6604L88.2422 34.8379H89.0229L87.5345 37.3094V38.9036H86.8379V37.3094Z" fill="white"/>
<path d="M91.2856 34.7415C91.5834 34.7415 91.8499 34.798 92.0858 34.9119C92.3217 35.0257 92.5217 35.1794 92.6853 35.3731C92.8482 35.5662 92.974 35.7925 93.0613 36.0508C93.1486 36.309 93.1923 36.5819 93.1923 36.8701C93.1923 37.163 93.1486 37.4379 93.0613 37.6962C92.974 37.9545 92.8482 38.1801 92.6853 38.3738C92.5217 38.5675 92.3217 38.7199 92.0858 38.8318C91.8499 38.9443 91.5834 38.9995 91.2856 38.9995C90.9884 38.9995 90.7219 38.9443 90.486 38.8318C90.2501 38.7199 90.0501 38.5675 89.8865 38.3738C89.723 38.1801 89.5972 37.9545 89.5105 37.6962C89.4232 37.4379 89.3789 37.163 89.3789 36.8701C89.3789 36.5819 89.4232 36.309 89.5105 36.0508C89.5972 35.7925 89.723 35.5662 89.8865 35.3731C90.0501 35.1794 90.2501 35.0257 90.486 34.9119C90.7219 34.798 90.9884 34.7415 91.2856 34.7415ZM91.2856 35.3219C91.0738 35.3219 90.8913 35.3652 90.7369 35.4523C90.5825 35.5395 90.4574 35.6567 90.3603 35.8031C90.2638 35.9496 90.1921 36.1153 90.1459 36.301C90.0996 36.4874 90.0762 36.6764 90.0762 36.8701C90.0762 37.0638 90.0996 37.2535 90.1459 37.4399C90.1921 37.6256 90.2638 37.792 90.3603 37.9378C90.4574 38.0843 90.5825 38.2007 90.7369 38.2886C90.8913 38.3758 91.0738 38.4191 91.2856 38.4191C91.498 38.4191 91.6805 38.3758 91.8349 38.2886C91.9887 38.2007 92.1145 38.0843 92.2109 37.9378C92.3073 37.792 92.3797 37.6256 92.4259 37.4399C92.4722 37.2535 92.495 37.0638 92.495 36.8701C92.495 36.6764 92.4722 36.4874 92.4259 36.301C92.3797 36.1153 92.3073 35.9496 92.2109 35.8031C92.1145 35.6567 91.9887 35.5395 91.8349 35.4523C91.6805 35.3652 91.498 35.3219 91.2856 35.3219Z" fill="white"/>
<path d="M94.1836 34.8379H94.8802V37.2062C94.8802 37.3433 94.8867 37.4818 94.8997 37.6222C94.9121 37.7627 94.9499 37.8885 95.0112 38.001C95.0724 38.1128 95.1656 38.2047 95.2901 38.2772C95.4145 38.3491 95.5898 38.385 95.8166 38.385C96.0433 38.385 96.2193 38.3491 96.3438 38.2772C96.4676 38.2047 96.5614 38.1128 96.622 38.001C96.6839 37.8885 96.7204 37.7627 96.7334 37.6222C96.7465 37.4818 96.7536 37.3433 96.7536 37.2062V34.8379H97.4496V37.4398C97.4496 37.7021 97.4105 37.9297 97.3323 38.1234C97.2547 38.3165 97.1439 38.4789 97.0012 38.61C96.8579 38.7405 96.6865 38.8383 96.4852 38.9036C96.2851 38.9681 96.0616 39.0001 95.8166 39.0001C95.5709 39.0001 95.3481 38.9681 95.148 38.9036C94.9467 38.8383 94.7753 38.7405 94.6326 38.61C94.4892 38.4789 94.3784 38.3165 94.3009 38.1234C94.2227 37.9297 94.1836 37.7021 94.1836 37.4398V34.8379Z" fill="white"/>
<path d="M99.2943 38.1348H98.5195V38.9036H99.2943V38.1348Z" fill="white"/>
</svg>
