<svg width="118" height="48" viewBox="0 0 118 48" fill="none" xmlns="http://www.w3.org/2000/svg">
<g clip-path="url(#clip0_8698_43488)">
<path d="M72.2316 24.7693C72.2316 22.3532 72.2491 19.9357 72.219 17.5196C72.2115 16.9086 72.3607 16.6662 73.0152 16.6763C75.187 16.7117 77.3612 16.6486 79.5316 16.7003C81.3021 16.7432 82.8644 17.31 83.8049 18.965C84.5108 20.2059 84.5584 21.5667 84.2989 22.925C84.0644 24.1558 83.4525 25.1783 82.3127 25.8057C82.2037 25.8663 82.1046 25.9496 81.9905 25.9963C81.4012 26.2349 81.3397 26.4142 81.6733 26.9456C82.5598 28.3582 83.4425 29.7746 84.2048 31.2591C84.408 31.6542 84.6688 32.0026 84.9095 32.37C85.0938 32.6515 85.144 32.8863 84.675 32.8825C83.7973 32.8775 82.9209 32.8787 82.0432 32.8825C81.815 32.8825 81.6582 32.8143 81.5404 32.5947C81.0488 31.6807 80.605 30.7314 80.0169 29.8831C79.42 29.0222 79.0878 28.0313 78.516 27.164C78.2715 26.7929 78.0119 26.5745 77.5731 26.5758C77.0515 26.5783 76.5261 26.6111 76.007 26.5657C75.4214 26.5139 75.3061 26.7992 75.3123 27.3067C75.3324 28.8619 75.3186 30.4159 75.3274 31.9711C75.3324 32.8775 75.3349 32.8825 74.4321 32.8838C73.9519 32.8838 73.4691 32.8535 72.9914 32.8913C72.4234 32.9368 72.2203 32.7348 72.2265 32.144C72.2529 29.6862 72.2378 27.2271 72.2378 24.7681C72.2353 24.7681 72.2316 24.7681 72.229 24.7681L72.2316 24.7693ZM78.0282 19.6063C78.0282 19.6063 78.0282 19.6012 78.0282 19.5974C77.3185 19.5974 76.6089 19.6075 75.9004 19.5936C75.5105 19.5861 75.3299 19.7275 75.3362 20.1415C75.3512 21.1274 75.3525 22.1146 75.3362 23.1005C75.3286 23.507 75.4791 23.6559 75.8854 23.6496C77.0327 23.6319 78.18 23.6458 79.3273 23.6433C80.6677 23.6408 81.1629 23.2469 81.4701 21.9479C81.746 20.7853 80.8959 19.6416 79.7185 19.6075C79.1555 19.5911 78.5925 19.605 78.0295 19.605L78.0282 19.6063Z" fill="white"/>
<path d="M117.986 32.0278C117.99 32.3699 117.922 32.529 117.548 32.4961C117.217 32.4671 116.867 32.4292 116.55 32.5012C115.277 32.7903 114.85 31.8915 114.325 31.0267C113.56 29.772 112.707 28.5715 111.918 27.3306C111.469 26.6262 110.994 25.9281 110.51 25.2641C109.821 24.3173 109.447 23.1231 108.449 22.3808C108.237 22.6043 108.333 22.8441 108.333 23.0562C108.326 25.9319 108.316 28.8088 108.337 31.6844C108.342 32.2929 108.174 32.5668 107.527 32.5012C107.011 32.4482 106.482 32.4557 105.964 32.4999C105.416 32.5466 105.253 32.3156 105.307 31.8082C105.335 31.538 105.314 31.2628 105.314 30.9889C105.314 26.3383 105.313 21.6865 105.317 17.036C105.317 16.7823 105.205 16.4705 105.565 16.3392C106.272 16.3392 106.981 16.3556 107.688 16.3341C107.977 16.324 108.179 16.4351 108.307 16.6623C109.476 18.7238 110.939 20.5896 112.209 22.5828C112.967 23.7732 113.73 24.9611 114.513 26.1351C114.61 26.2803 114.687 26.5845 114.928 26.5062C115.163 26.4305 115.089 26.154 115.088 25.9508C115.088 25.533 115.077 25.1139 115.069 24.6947C114.923 21.9832 114.924 19.2716 115.068 16.5601C115.079 16.5197 115.084 16.4477 115.103 16.444C115.996 16.2799 116.892 16.2609 117.781 16.4553C118.115 16.5285 117.967 16.8378 117.967 17.0373C117.976 20.3964 117.973 23.7556 117.973 27.1147C117.975 28.7532 117.967 30.3905 117.986 32.0278Z" fill="#F37B22"/>
<path d="M0.0101217 24.7454C0.0101217 22.2876 0.0201527 19.8285 9.06557e-05 17.3695C-0.00367098 16.8696 0.107924 16.6714 0.654615 16.6802C2.53418 16.713 4.415 16.6676 6.29456 16.6954C8.78853 16.7332 10.7797 17.7621 12.1151 19.9106C12.6969 20.8447 12.9752 21.919 13.0542 23.011C13.1583 24.4463 13.2335 25.8992 12.9263 27.3169C12.5163 29.2054 11.7176 30.9058 9.95338 31.8841C8.84871 32.4963 7.62869 32.8649 6.34346 32.8776C4.44258 32.8952 2.5417 32.8675 0.640823 32.894C0.141779 32.9015 -0.0024171 32.7337 0.00134453 32.2476C0.0188988 29.7469 0.0101217 27.2462 0.0088678 24.7454H0.0101217ZM2.98808 24.7947C2.99435 24.7947 3.00062 24.7947 3.00689 24.7947C3.00689 26.3272 3.01191 27.8609 3.00313 29.3934C3.00062 29.7621 3.08338 30.0032 3.51847 29.9918C4.60308 29.964 5.69144 29.9994 6.77229 29.9224C8.14905 29.8239 9.11704 29.1246 9.54587 27.7562C10.2418 25.5382 10.322 23.3518 9.24619 21.2171C8.70201 20.1366 7.65502 19.6834 6.62433 19.5811C5.65383 19.4839 4.63066 19.5811 3.63132 19.59C3.1398 19.595 2.97429 19.773 2.98056 20.2577C3.00062 21.7701 2.98808 23.2824 2.98808 24.7934V24.7947Z" fill="white"/>
<path d="M15.6808 24.8299C15.6808 22.372 15.6921 19.9142 15.672 17.4564C15.667 16.9022 15.8212 16.6737 16.4168 16.6775C19.7784 16.7015 23.1413 16.699 26.503 16.6788C27.0447 16.675 27.2666 16.8379 27.2215 17.3958C27.1851 17.8553 27.2164 18.3199 27.2139 18.7819C27.2089 19.4863 27.0259 19.6782 26.3162 19.6428C24.0416 19.5267 21.7658 19.6428 19.4926 19.5784C18.8706 19.5608 18.6888 19.7918 18.7152 20.375C18.7478 21.0882 18.7503 21.804 18.7126 22.5172C18.6851 23.0411 18.9108 23.1522 19.3797 23.1484C21.4047 23.1307 23.431 23.1598 25.456 23.1295C26.0554 23.1206 26.2949 23.3138 26.2459 23.9197C26.2108 24.3577 26.2058 24.8046 26.2472 25.2414C26.3061 25.8688 26.0867 26.0884 25.441 26.0771C23.4373 26.0405 21.4323 26.0821 19.4286 26.0556C18.8844 26.048 18.6851 26.2084 18.7114 26.7676C18.7515 27.6273 18.7427 28.4894 18.7214 29.3504C18.7089 29.8414 18.8945 30.0093 19.3835 30.0055C21.8473 29.9879 24.3112 30.0169 26.7751 29.9841C27.4208 29.9752 27.6378 30.1823 27.5751 30.8172C27.5262 31.3159 27.56 31.8246 27.5713 32.3283C27.5801 32.7259 27.4146 32.89 27.0096 32.8888C23.4185 32.8799 19.8261 32.8787 16.235 32.8888C15.7234 32.89 15.6745 32.6161 15.677 32.2046C15.6883 29.7468 15.682 27.2889 15.682 24.8311H15.6795L15.6808 24.8299Z" fill="white"/>
<path d="M57.7633 24.8187C57.7633 22.3596 57.7771 19.9018 57.7533 17.4427C57.7483 16.8759 57.9125 16.6727 58.4993 16.6777C61.8209 16.7017 65.1411 16.7055 68.4627 16.6752C69.1147 16.6689 69.3153 16.8885 69.2551 17.5096C69.21 17.9678 69.2175 18.4349 69.2501 18.8944C69.2877 19.4334 69.0344 19.595 68.5467 19.5912C66.8753 19.5811 65.2051 19.5887 63.5337 19.59C62.8027 19.59 62.0716 19.6001 61.3406 19.5887C60.972 19.5837 60.814 19.7263 60.8215 20.1088C60.8378 20.9281 60.8454 21.7486 60.8178 22.5666C60.804 23.0059 60.9544 23.1498 61.392 23.146C63.4183 23.1284 65.4446 23.1372 67.4696 23.1397C68.2859 23.1397 68.3135 23.17 68.3185 23.988C68.321 24.4501 68.3022 24.9133 68.3222 25.3741C68.3461 25.8917 68.1229 26.0785 67.6138 26.0735C65.5888 26.057 63.5625 26.0886 61.5375 26.0533C60.9432 26.0432 60.7877 26.2451 60.8128 26.8069C60.8529 27.7082 60.8441 28.6146 60.8153 29.5172C60.8015 29.9767 60.9833 30.0966 61.4058 30.0688C63.8045 29.9085 66.2069 30.0272 68.6081 29.9981C69.6902 29.9842 69.6902 29.9981 69.699 31.0547C69.7002 31.2441 69.699 31.4334 69.699 31.6215C69.6977 33.0076 69.8394 32.8814 68.3987 32.8826C65.1198 32.8839 61.8397 32.8675 58.5608 32.8965C57.9188 32.9028 57.7408 32.6958 57.7483 32.0671C57.7796 29.651 57.7608 27.2348 57.7608 24.8174L57.7633 24.8187Z" fill="white"/>
<path d="M42.108 32.8838C41.8158 32.8838 41.5187 32.851 41.2315 32.8914C40.7024 32.9633 40.4253 32.6919 40.3563 32.2261C40.2096 31.2238 39.6516 30.3806 39.3507 29.4414C39.2642 29.1712 39.0924 29.0967 38.8329 29.0967C37.1627 29.1005 35.4925 29.098 33.8224 29.0967C33.139 29.0967 33.1816 29.7267 33.0048 30.1129C32.66 30.8704 32.3955 31.6656 32.1309 32.4571C32.0268 32.7689 31.8713 32.8952 31.5491 32.8889C30.798 32.8737 30.0457 32.875 29.2946 32.8889C28.9824 32.8952 28.8846 32.8169 29.005 32.4963C29.3448 31.5899 29.647 30.6684 29.998 29.7658C30.2049 29.2343 30.3679 28.6903 30.6037 28.1638C31.0212 27.2284 31.2519 26.2085 31.6669 25.2718C32.0908 24.3137 32.3904 23.3139 32.7804 22.3444C33.4813 20.6023 34.201 18.864 34.7753 17.0791C35.0123 16.3406 35.3922 16.3128 35.9853 16.3216C37.5752 16.3456 37.5539 16.3381 38.1445 17.8188C38.8492 19.5861 39.4548 21.3913 40.1382 23.1636C41.298 26.1668 42.4064 29.1914 43.5851 32.187C43.817 32.7753 43.7531 32.8712 43.1098 32.8826C42.7763 32.8889 42.4415 32.8826 42.108 32.8838ZM36.216 20.5758C35.6342 22.3557 35.0537 24.1357 34.4719 25.9156C34.3427 26.3094 34.6311 26.2716 34.8518 26.2728C35.8123 26.2766 36.774 26.264 37.7345 26.2703C38.2235 26.2741 38.241 25.9307 38.142 25.6316C37.7407 24.4172 37.3069 23.2167 36.9395 21.9896C36.8016 21.5301 36.6198 21.029 36.2173 20.5758H36.216Z" fill="white"/>
<path d="M99.4035 24.5218C99.3233 23.849 99.312 22.7255 98.5496 21.8014C98.4192 21.6437 98.3327 21.4303 98.5459 21.1854C99.0437 20.6186 99.4913 20.0228 100.109 19.5557C100.437 19.3083 100.587 19.3285 100.813 19.5709C101.645 20.4659 102.222 21.53 102.536 22.6901C103.112 24.8235 102.937 26.9039 101.803 28.853C100.502 31.0899 98.6148 32.4381 96.0532 32.8837C95.0275 33.0617 94.0143 33.0264 93.0401 32.8332C92.2614 32.6792 91.4941 32.3409 90.7655 31.9382C89.4891 31.2325 88.5048 30.2252 87.7939 29.0007C87.3487 28.2332 86.96 27.3811 86.8785 26.4419C86.8397 25.995 86.6604 25.557 86.6441 25.1114C86.5989 23.9184 87.0077 22.8126 87.4064 21.7143C87.6998 20.909 88.1938 20.2248 88.7293 19.5595C88.9825 19.2452 89.1606 19.1341 89.4389 19.4787C89.8941 20.0417 90.4884 20.4659 90.9348 21.0466C91.1994 21.3912 91.163 21.6298 90.9336 21.9239C89.4327 23.8427 89.8051 27.2586 91.8677 28.9616C93.2557 30.1078 94.8344 30.2769 96.3453 29.7556C98.2537 29.0966 99.5101 27.3003 99.4048 24.5206L99.4035 24.5218Z" fill="#F37B22"/>
<path d="M45.3728 24.7933C45.3728 22.3772 45.3728 19.961 45.3728 17.5436C45.3728 16.6902 45.3753 16.6902 46.2492 16.689C46.6455 16.689 47.043 16.689 47.4392 16.689C48.087 16.689 48.4114 17.0058 48.4122 17.6395C48.4122 20.0355 48.4122 22.4302 48.4122 24.8261C48.4122 26.2337 48.4122 27.6412 48.4122 29.05C48.4122 29.6803 48.7361 29.9959 49.3839 29.9968C51.3049 29.9968 53.2271 30.0157 55.148 29.9841C55.7687 29.974 56.0207 30.1634 55.958 30.8059C55.9079 31.326 55.9279 31.8562 55.943 32.3801C55.9543 32.7651 55.7875 32.8901 55.4176 32.8888C52.2641 32.88 49.1093 32.875 45.9558 32.8926C45.4016 32.8952 45.364 32.596 45.3653 32.1706C45.374 29.7127 45.369 27.2537 45.369 24.7958L45.3728 24.7933Z" fill="white"/>
<path d="M96.1356 24.4512C96.1381 24.8438 95.9751 24.9435 95.6077 24.9271C94.9206 24.8968 94.2322 24.9145 93.5451 24.9133C93.3344 24.4727 93.4435 24.0018 93.4397 23.5486C93.4234 21.135 93.4285 18.7201 93.4322 16.3065C93.4322 16.1411 93.4811 15.977 93.5075 15.8116C93.283 15.3269 93.3808 15.0441 93.9689 15.0858C94.646 15.1325 95.5287 14.7879 95.945 15.2234C96.3199 15.616 96.0917 16.4996 96.108 17.1586C96.1682 19.5886 96.1268 22.0199 96.1356 24.4512Z" fill="#F37B22"/>
</g>
<defs>
<clipPath id="clip0_8698_43488">
<rect width="118" height="18" fill="white" transform="translate(0 15)"/>
</clipPath>
</defs>
</svg>
