<svg width="139" height="48" viewBox="0 0 139 48" fill="none" xmlns="http://www.w3.org/2000/svg">
<path d="M9.32 14.94C9.32 16.22 9 17.1867 8.36 17.84C7.73333 18.4933 6.89333 18.82 5.84 18.82C5.61333 18.82 5.37333 18.8133 5.12 18.8C4.86667 18.7733 4.64 18.74 4.44 18.7V11.12C4.66667 11.0933 4.88667 11.0733 5.1 11.06C5.32667 11.0333 5.56 11.02 5.8 11.02C6.49333 11.02 7.1 11.1667 7.62 11.46C8.15333 11.74 8.56667 12.1667 8.86 12.74C9.16667 13.3133 9.32 14.0467 9.32 14.94ZM12.46 14.88C12.46 13.4533 12.1733 12.2733 11.6 11.34C11.0267 10.4067 10.2267 9.71333 9.2 9.26C8.18667 8.79333 6.99333 8.56 5.62 8.56C5.11333 8.56 4.55333 8.58667 3.94 8.64C3.32667 8.69333 2.75333 8.80667 2.22 8.98C1.98 9.07333 1.78667 9.19333 1.64 9.34C1.49333 9.47333 1.42 9.67333 1.42 9.94V19.5C1.42 20.14 1.76667 20.5867 2.46 20.84C2.98 21.0267 3.56 21.1467 4.2 21.2C4.84 21.2667 5.38 21.3 5.82 21.3C7.15333 21.3 8.31333 21.0667 9.3 20.6C10.3 20.12 11.0733 19.4067 11.62 18.46C12.18 17.5133 12.46 16.32 12.46 14.88ZM15.8017 17.6L15.6817 15.6L20.6417 14.82C20.6151 14.4467 20.4551 14.1 20.1617 13.78C19.8684 13.46 19.4351 13.3 18.8617 13.3C18.2617 13.3 17.7617 13.5067 17.3617 13.92C16.9617 14.32 16.7484 14.8933 16.7217 15.64L16.8217 17.02C16.9417 17.7533 17.2551 18.28 17.7617 18.6C18.2684 18.9067 18.8684 19.06 19.5617 19.06C20.1217 19.06 20.6484 18.98 21.1417 18.82C21.6351 18.66 22.0351 18.4933 22.3417 18.32C22.5417 18.44 22.7017 18.6067 22.8217 18.82C22.9551 19.0333 23.0217 19.26 23.0217 19.5C23.0217 19.9 22.8617 20.2333 22.5417 20.5C22.2351 20.7667 21.8017 20.9667 21.2417 21.1C20.6951 21.2333 20.0684 21.3 19.3617 21.3C18.3351 21.3 17.4084 21.1067 16.5817 20.72C15.7684 20.3333 15.1284 19.7533 14.6617 18.98C14.1951 18.2067 13.9617 17.24 13.9617 16.08C13.9617 15.2267 14.0951 14.4867 14.3617 13.86C14.6417 13.2333 15.0084 12.72 15.4617 12.32C15.9284 11.9067 16.4484 11.6 17.0217 11.4C17.6084 11.2 18.2151 11.1 18.8417 11.1C19.7617 11.1 20.5617 11.2867 21.2417 11.66C21.9351 12.02 22.4751 12.5133 22.8617 13.14C23.2484 13.7667 23.4417 14.4933 23.4417 15.32C23.4417 15.7333 23.3284 16.0467 23.1017 16.26C22.8751 16.4733 22.5617 16.6067 22.1617 16.66L15.8017 17.6ZM29.2016 19.1C29.5082 19.1 29.8082 19.0733 30.1016 19.02C30.4082 18.9533 30.6282 18.88 30.7616 18.8V16.88L29.0816 17.04C28.6282 17.0667 28.2682 17.16 28.0016 17.32C27.7349 17.48 27.6016 17.72 27.6016 18.04C27.6016 18.36 27.7282 18.62 27.9816 18.82C28.2349 19.0067 28.6416 19.1 29.2016 19.1ZM29.0816 11.1C30.4682 11.1 31.5749 11.3933 32.4016 11.98C33.2282 12.5533 33.6416 13.4467 33.6416 14.66V19.2C33.6416 19.5333 33.5549 19.8067 33.3816 20.02C33.2082 20.22 32.9882 20.3933 32.7216 20.54C32.3216 20.78 31.8216 20.9667 31.2216 21.1C30.6349 21.2467 29.9616 21.32 29.2016 21.32C27.8416 21.32 26.7549 21.0533 25.9416 20.52C25.1416 19.9867 24.7416 19.1933 24.7416 18.14C24.7416 17.2333 25.0216 16.54 25.5816 16.06C26.1416 15.5667 26.9749 15.2667 28.0816 15.16L30.7416 14.88V14.64C30.7416 14.1867 30.5616 13.86 30.2016 13.66C29.8549 13.46 29.3549 13.36 28.7016 13.36C28.1949 13.36 27.6949 13.42 27.2016 13.54C26.7216 13.66 26.2882 13.8 25.9016 13.96C25.7416 13.8533 25.6016 13.6933 25.4816 13.48C25.3749 13.2533 25.3216 13.02 25.3216 12.78C25.3216 12.22 25.6282 11.8133 26.2416 11.56C26.6282 11.4 27.0749 11.2867 27.5816 11.22C28.1016 11.14 28.6016 11.1 29.0816 11.1ZM36.0256 15.72L39.0056 15.78V20.98C38.8723 21.02 38.6856 21.0533 38.4456 21.08C38.2056 21.12 37.9456 21.14 37.6656 21.14C37.1056 21.14 36.6923 21.04 36.4256 20.84C36.159 20.64 36.0256 20.28 36.0256 19.76V15.72ZM39.0056 17.32L36.0256 17.26V7.98C36.159 7.94 36.3456 7.9 36.5856 7.86C36.8256 7.82 37.0856 7.8 37.3656 7.8C37.939 7.8 38.3523 7.9 38.6056 8.1C38.8723 8.3 39.0056 8.66667 39.0056 9.2V17.32ZM42.8134 17.6L42.6934 15.6L47.6534 14.82C47.6268 14.4467 47.4668 14.1 47.1734 13.78C46.8801 13.46 46.4468 13.3 45.8734 13.3C45.2734 13.3 44.7734 13.5067 44.3734 13.92C43.9734 14.32 43.7601 14.8933 43.7334 15.64L43.8334 17.02C43.9534 17.7533 44.2668 18.28 44.7734 18.6C45.2801 18.9067 45.8801 19.06 46.5734 19.06C47.1334 19.06 47.6601 18.98 48.1534 18.82C48.6468 18.66 49.0468 18.4933 49.3534 18.32C49.5534 18.44 49.7134 18.6067 49.8334 18.82C49.9668 19.0333 50.0334 19.26 50.0334 19.5C50.0334 19.9 49.8734 20.2333 49.5534 20.5C49.2468 20.7667 48.8134 20.9667 48.2534 21.1C47.7068 21.2333 47.0801 21.3 46.3734 21.3C45.3468 21.3 44.4201 21.1067 43.5934 20.72C42.7801 20.3333 42.1401 19.7533 41.6734 18.98C41.2068 18.2067 40.9734 17.24 40.9734 16.08C40.9734 15.2267 41.1068 14.4867 41.3734 13.86C41.6534 13.2333 42.0201 12.72 42.4734 12.32C42.9401 11.9067 43.4601 11.6 44.0334 11.4C44.6201 11.2 45.2268 11.1 45.8534 11.1C46.7734 11.1 47.5734 11.2867 48.2534 11.66C48.9468 12.02 49.4868 12.5133 49.8734 13.14C50.2601 13.7667 50.4534 14.4933 50.4534 15.32C50.4534 15.7333 50.3401 16.0467 50.1134 16.26C49.8868 16.4733 49.5734 16.6067 49.1734 16.66L42.8134 17.6ZM55.2333 13.98V16.48H52.2733V13.62C52.2733 13.2467 52.3599 12.9333 52.5333 12.68C52.7199 12.4133 52.9733 12.18 53.2933 11.98C53.7333 11.7133 54.2599 11.5067 54.8733 11.36C55.4999 11.2 56.1533 11.12 56.8333 11.12C58.1933 11.12 58.8733 11.5733 58.8733 12.48C58.8733 12.6933 58.8399 12.8933 58.7733 13.08C58.7199 13.2667 58.6533 13.4267 58.5733 13.56C58.4399 13.5333 58.2733 13.5133 58.0733 13.5C57.8866 13.4733 57.6799 13.46 57.4533 13.46C57.0533 13.46 56.6533 13.5067 56.2533 13.6C55.8533 13.6933 55.5133 13.82 55.2333 13.98ZM52.2733 15.72L55.2333 15.78V20.98C55.0999 21.02 54.9133 21.0533 54.6733 21.08C54.4333 21.12 54.1733 21.14 53.8933 21.14C53.3333 21.14 52.9199 21.04 52.6533 20.84C52.3999 20.64 52.2733 20.28 52.2733 19.76V15.72ZM64.3831 15.72H67.3231V17.86C67.3231 18.2333 67.4431 18.5067 67.6831 18.68C67.9231 18.8533 68.2631 18.94 68.7031 18.94C68.9031 18.94 69.1165 18.92 69.3431 18.88C69.5831 18.8267 69.7831 18.7667 69.9431 18.7C70.0498 18.82 70.1431 18.9667 70.2231 19.14C70.3165 19.3133 70.3631 19.5133 70.3631 19.74C70.3631 20.1933 70.1765 20.5667 69.8031 20.86C69.4298 21.1533 68.8031 21.3 67.9231 21.3C66.8031 21.3 65.9298 21.0467 65.3031 20.54C64.6898 20.0333 64.3831 19.2067 64.3831 18.06V15.72ZM66.2631 13.9V11.62H70.1031C70.1698 11.7267 70.2365 11.88 70.3031 12.08C70.3698 12.28 70.4031 12.5 70.4031 12.74C70.4031 13.14 70.3098 13.4333 70.1231 13.62C69.9498 13.8067 69.7098 13.9 69.4031 13.9H66.2631ZM67.3231 16.22H64.3831V9.04C64.5165 9 64.7031 8.96 64.9431 8.92C65.1831 8.86667 65.4365 8.84 65.7031 8.84C66.2765 8.84 66.6898 8.94 66.9431 9.14C67.1965 9.34 67.3231 9.70667 67.3231 10.24V16.22ZM75.1356 13.98V16.48H72.1756V13.62C72.1756 13.2467 72.2623 12.9333 72.4356 12.68C72.6223 12.4133 72.8756 12.18 73.1956 11.98C73.6356 11.7133 74.1623 11.5067 74.7756 11.36C75.4023 11.2 76.0556 11.12 76.7356 11.12C78.0956 11.12 78.7756 11.5733 78.7756 12.48C78.7756 12.6933 78.7423 12.8933 78.6756 13.08C78.6223 13.2667 78.5556 13.4267 78.4756 13.56C78.3423 13.5333 78.1756 13.5133 77.9756 13.5C77.789 13.4733 77.5823 13.46 77.3556 13.46C76.9556 13.46 76.5556 13.5067 76.1556 13.6C75.7556 13.6933 75.4156 13.82 75.1356 13.98ZM72.1756 15.72L75.1356 15.78V20.98C75.0023 21.02 74.8156 21.0533 74.5756 21.08C74.3356 21.12 74.0756 21.14 73.7956 21.14C73.2356 21.14 72.8223 21.04 72.5556 20.84C72.3023 20.64 72.1756 20.28 72.1756 19.76V15.72ZM83.9477 19.1C84.2543 19.1 84.5543 19.0733 84.8477 19.02C85.1543 18.9533 85.3743 18.88 85.5077 18.8V16.88L83.8277 17.04C83.3743 17.0667 83.0143 17.16 82.7477 17.32C82.481 17.48 82.3477 17.72 82.3477 18.04C82.3477 18.36 82.4743 18.62 82.7277 18.82C82.981 19.0067 83.3877 19.1 83.9477 19.1ZM83.8277 11.1C85.2143 11.1 86.321 11.3933 87.1477 11.98C87.9743 12.5533 88.3877 13.4467 88.3877 14.66V19.2C88.3877 19.5333 88.301 19.8067 88.1277 20.02C87.9543 20.22 87.7343 20.3933 87.4677 20.54C87.0677 20.78 86.5677 20.9667 85.9677 21.1C85.381 21.2467 84.7077 21.32 83.9477 21.32C82.5877 21.32 81.501 21.0533 80.6877 20.52C79.8877 19.9867 79.4877 19.1933 79.4877 18.14C79.4877 17.2333 79.7677 16.54 80.3277 16.06C80.8877 15.5667 81.721 15.2667 82.8277 15.16L85.4877 14.88V14.64C85.4877 14.1867 85.3077 13.86 84.9477 13.66C84.601 13.46 84.101 13.36 83.4477 13.36C82.941 13.36 82.441 13.42 81.9477 13.54C81.4677 13.66 81.0343 13.8 80.6477 13.96C80.4877 13.8533 80.3477 13.6933 80.2277 13.48C80.121 13.2533 80.0677 13.02 80.0677 12.78C80.0677 12.22 80.3743 11.8133 80.9877 11.56C81.3743 11.4 81.821 11.2867 82.3277 11.22C82.8477 11.14 83.3477 11.1 83.8277 11.1ZM95.8517 13.46C95.1317 13.46 94.5117 13.7 93.9917 14.18C93.4851 14.6467 93.2317 15.3333 93.2317 16.24C93.2317 17.1333 93.4784 17.8067 93.9717 18.26C94.4651 18.7133 95.0851 18.94 95.8317 18.94C96.2717 18.94 96.6517 18.8867 96.9717 18.78C97.3051 18.66 97.5917 18.5333 97.8317 18.4C98.0584 18.56 98.2317 18.74 98.3517 18.94C98.4717 19.1267 98.5317 19.36 98.5317 19.64C98.5317 20.1333 98.2651 20.5333 97.7317 20.84C97.1984 21.1467 96.4584 21.3 95.5117 21.3C94.4584 21.3 93.5317 21.1133 92.7317 20.74C91.9317 20.3533 91.3117 19.78 90.8717 19.02C90.4317 18.26 90.2117 17.3333 90.2117 16.24C90.2117 15.08 90.4517 14.1267 90.9317 13.38C91.4117 12.62 92.0451 12.0533 92.8317 11.68C93.6317 11.2933 94.4984 11.1 95.4317 11.1C96.3517 11.1 97.0717 11.2667 97.5917 11.6C98.1251 11.9333 98.3917 12.3467 98.3917 12.84C98.3917 13.08 98.3317 13.3 98.2117 13.5C98.1051 13.6867 97.9784 13.8533 97.8317 14C97.5784 13.8667 97.2851 13.7467 96.9517 13.64C96.6317 13.52 96.2651 13.46 95.8517 13.46ZM104.678 17.16L102.538 15.8L107.058 11.24C107.658 11.2533 108.138 11.3933 108.498 11.66C108.872 11.9267 109.058 12.26 109.058 12.66C109.058 13.0067 108.938 13.32 108.698 13.6C108.458 13.8667 108.092 14.2133 107.598 14.64L104.678 17.16ZM102.658 16.22L105.018 15.18L109.438 19.46C109.385 19.9933 109.225 20.4133 108.958 20.72C108.692 21.0133 108.312 21.16 107.818 21.16C107.458 21.16 107.125 21.0733 106.818 20.9C106.525 20.7133 106.212 20.4133 105.878 20L102.658 16.22ZM100.438 15.7L103.398 15.76V20.98C103.265 21.02 103.078 21.0533 102.838 21.08C102.598 21.12 102.338 21.14 102.058 21.14C101.498 21.14 101.085 21.04 100.818 20.84C100.565 20.64 100.438 20.28 100.438 19.76V15.7ZM103.398 17.3L100.438 17.24V7.98C100.558 7.94 100.738 7.9 100.978 7.86C101.218 7.82 101.478 7.8 101.758 7.8C102.332 7.8 102.745 7.9 102.998 8.1C103.265 8.3 103.398 8.66667 103.398 9.2V17.3Z" fill="#F0F2F5"/>
<path opacity="0.6" d="M1.05 34.324C1.086 34.324 1.192 34.324 1.368 34.324C1.544 34.324 1.752 34.324 1.992 34.324C2.236 34.324 2.482 34.326 2.73 34.33C2.982 34.33 3.2 34.332 3.384 34.336C4.44 34.356 5.298 34.538 5.958 34.882C6.622 35.222 7.108 35.708 7.416 36.34C7.728 36.968 7.884 37.726 7.884 38.614C7.884 39.542 7.718 40.332 7.386 40.984C7.058 41.636 6.554 42.136 5.874 42.484C5.198 42.828 4.338 43 3.294 43H1.05V34.324ZM2.532 35.53V41.794H3.318C3.914 41.794 4.44 41.692 4.896 41.488C5.352 41.28 5.708 40.944 5.964 40.48C6.224 40.016 6.354 39.396 6.354 38.62C6.354 37.868 6.234 37.266 5.994 36.814C5.754 36.362 5.41 36.036 4.962 35.836C4.514 35.632 3.978 35.53 3.354 35.53H2.532ZM11.5461 43V34.324H13.6341L15.9081 40.954L18.2061 34.324H20.2821V43H18.8001V36.196L16.5141 43H15.2961L13.0281 36.238V43H11.5461ZM27.5059 43.12C27.0859 43.12 26.6759 43.068 26.2759 42.964C25.8759 42.856 25.5119 42.698 25.1839 42.49C24.8599 42.278 24.5899 42.016 24.3739 41.704C24.1579 41.388 24.0259 41.02 23.9779 40.6H25.4899C25.5539 40.892 25.6799 41.138 25.8679 41.338C26.0559 41.538 26.2899 41.69 26.5699 41.794C26.8539 41.898 27.1639 41.95 27.4999 41.95C27.8599 41.95 28.1839 41.902 28.4719 41.806C28.7639 41.71 28.9939 41.57 29.1619 41.386C29.3339 41.202 29.4199 40.976 29.4199 40.708C29.4199 40.472 29.3579 40.272 29.2339 40.108C29.1099 39.944 28.9359 39.81 28.7119 39.706C28.4919 39.598 28.2339 39.512 27.9379 39.448L26.3419 39.1C25.6979 38.968 25.1879 38.712 24.8119 38.332C24.4359 37.952 24.2439 37.446 24.2359 36.814C24.2319 36.29 24.3699 35.834 24.6499 35.446C24.9339 35.054 25.3199 34.752 25.8079 34.54C26.2959 34.324 26.8479 34.216 27.4639 34.216C28.1839 34.216 28.7899 34.334 29.2819 34.57C29.7779 34.802 30.1519 35.114 30.4039 35.506C30.6599 35.898 30.7899 36.328 30.7939 36.796H29.3179C29.2819 36.452 29.1779 36.178 29.0059 35.974C28.8379 35.77 28.6219 35.624 28.3579 35.536C28.0939 35.448 27.8019 35.404 27.4819 35.404C27.2419 35.404 27.0179 35.432 26.8099 35.488C26.6019 35.544 26.4199 35.626 26.2639 35.734C26.1079 35.842 25.9859 35.974 25.8979 36.13C25.8139 36.282 25.7719 36.456 25.7719 36.652C25.7719 36.932 25.8639 37.16 26.0479 37.336C26.2359 37.508 26.5859 37.654 27.0979 37.774L28.6579 38.122C29.1419 38.218 29.5319 38.362 29.8279 38.554C30.1239 38.746 30.3499 38.966 30.5059 39.214C30.6619 39.458 30.7659 39.708 30.8179 39.964C30.8699 40.22 30.8959 40.464 30.8959 40.696C30.8959 41.148 30.7559 41.558 30.4759 41.926C30.1999 42.294 29.8079 42.586 29.2999 42.802C28.7959 43.014 28.1979 43.12 27.5059 43.12Z" fill="#E5E8EF"/>
</svg>
