<svg width="20" height="26" viewBox="0 0 20 26" fill="none" xmlns="http://www.w3.org/2000/svg">
<path d="M7.66732 0.3125C7.18407 0.3125 6.79232 0.732233 6.79232 1.25V2.1875H1.83398C1.35074 2.1875 0.958984 2.60723 0.958984 3.125C0.958984 3.64277 1.35074 4.0625 1.83398 4.0625H18.1673C18.6506 4.0625 19.0423 3.64277 19.0423 3.125C19.0423 2.60723 18.6506 2.1875 18.1673 2.1875H13.209V1.25C13.209 0.732233 12.8172 0.3125 12.334 0.3125H7.66732Z" fill="#E5E8EF"/>
<path d="M11.2381 16.25L12.9527 18.0871C13.2944 18.4532 13.2944 19.0468 12.9527 19.4129C12.611 19.779 12.057 19.779 11.7153 19.4129L10.0007 17.5758L8.28605 19.4129C7.94434 19.779 7.39032 19.779 7.04861 19.4129C6.7069 19.0468 6.7069 18.4532 7.04861 18.0871L8.76322 16.25L7.0486 14.4129C6.70689 14.0468 6.70689 13.4532 7.0486 13.0871C7.39031 12.721 7.94433 12.721 8.28604 13.0871L10.0007 14.9242L11.7153 13.0871C12.057 12.721 12.611 12.721 12.9527 13.0871C13.2944 13.4532 13.2944 14.0468 12.9527 14.4129L11.2381 16.25Z" fill="#E5E8EF"/>
<path fill-rule="evenodd" clip-rule="evenodd" d="M2.99065 7.39647C3.03988 6.92169 3.41444 6.5625 3.86029 6.5625H16.141C16.5869 6.5625 16.9614 6.92169 17.0106 7.39647L17.2442 9.64815C17.6674 13.7298 17.6674 17.8491 17.2442 21.9308L17.2212 22.1525C17.0531 23.7727 15.8812 25.0646 14.3744 25.2906C11.4727 25.7258 8.52858 25.7258 5.62691 25.2906C4.12012 25.0646 2.94815 23.7727 2.78013 22.1525L2.75714 21.9308C2.33386 17.8491 2.33386 13.7298 2.75714 9.64815L2.99065 7.39647ZM4.64346 8.4375L4.49644 9.85521C4.08742 13.7992 4.08742 17.7797 4.49643 21.7237L4.51942 21.9454C4.59911 22.7138 5.15493 23.3265 5.86954 23.4337C8.61025 23.8448 11.391 23.8448 14.1317 23.4337C14.8464 23.3265 15.4022 22.7138 15.4819 21.9454L15.5049 21.7237C15.9139 17.7797 15.9139 13.7992 15.5049 9.85521L15.3578 8.4375H4.64346Z" fill="#E5E8EF"/>
</svg>
