<svg width="55" height="30" viewBox="0 0 55 30" fill="none" xmlns="http://www.w3.org/2000/svg">
<rect x="0.5" y="0.875" width="54" height="29" rx="5" fill="#0D102C"/>
<path fill-rule="evenodd" clip-rule="evenodd" d="M22.0354 6.625C21.4503 6.625 20.9039 6.91743 20.5793 7.40427L16.9901 12.7881C16.7704 13.1177 16.7441 13.5398 16.9212 13.8941C18.8853 17.8223 21.6149 21.3182 24.9494 24.1764L26.7002 25.6771C27.1605 26.0717 27.8399 26.0717 28.3003 25.6771L30.051 24.1764C33.3855 21.3182 36.1151 17.8223 38.0792 13.8941C38.2563 13.5398 38.2301 13.1177 38.0103 12.7881L34.4211 7.40427C34.0965 6.91743 33.5501 6.625 32.965 6.625H22.0354ZM21.8274 8.23632C21.8737 8.16678 21.9518 8.125 22.0354 8.125H24.3752L22.4601 12.7213C22.416 12.8272 22.3827 12.9364 22.3602 13.0472C21.6564 12.9949 20.9532 12.9317 20.2508 12.8578L18.8451 12.7098L21.8274 8.23632ZM18.7789 14.2111C20.5723 17.5011 22.9404 20.4464 25.7734 22.9062L22.648 14.5717C21.7956 14.5131 20.9441 14.439 20.0938 14.3495L18.7789 14.2111ZM24.285 14.6652L27.5002 23.239L30.7154 14.6652C28.5731 14.7626 26.4274 14.7626 24.285 14.6652ZM32.3525 14.5717L29.227 22.9062C32.06 20.4464 34.4282 17.5011 36.2216 14.2111L34.9067 14.3495C34.0563 14.439 33.2048 14.5131 32.3525 14.5717ZM36.1553 12.7098L34.7496 12.8578C34.0472 12.9317 33.344 12.9949 32.6402 13.0472C32.6178 12.9363 32.5845 12.8272 32.5403 12.7213L30.6252 8.125H32.965C33.0486 8.125 33.1267 8.16678 33.173 8.23633L36.1553 12.7098ZM31.0919 13.1451C28.6991 13.2693 26.3014 13.2693 23.9085 13.1451L26.0002 8.125H29.0002L31.0919 13.1451Z" fill="white"/>
</svg>
