<svg width="17" height="19" viewBox="0 0 17 19" fill="none" xmlns="http://www.w3.org/2000/svg">
<path fill-rule="evenodd" clip-rule="evenodd" d="M7.13031 0.642334C6.3567 0.642334 5.71137 1.23356 5.64382 2.00422C5.50257 3.6155 5.46683 5.23397 5.53669 6.84927C5.45236 6.85491 5.36804 6.86081 5.28374 6.86695L3.79423 6.97553C2.84218 7.04493 2.30998 8.10649 2.82396 8.91088C3.92014 10.6264 5.33259 12.1178 6.98603 13.3055L7.58277 13.7342C8.06659 14.0817 8.71824 14.0817 9.20206 13.7342L9.7988 13.3055C11.4522 12.1178 12.8647 10.6264 13.9609 8.91088C14.4749 8.10649 13.9426 7.04493 12.9906 6.97553L11.5011 6.86695C11.4168 6.86081 11.3325 6.85491 11.2481 6.84927C11.318 5.23397 11.2822 3.6155 11.141 2.00422C11.0735 1.23356 10.4281 0.642334 9.65452 0.642334H7.13031ZM7.0739 7.50706C6.96019 5.71984 6.98143 3.92651 7.13746 2.14233H9.64736C9.8034 3.92651 9.82463 5.71984 9.71092 7.50706C9.69817 7.70743 9.76629 7.90454 9.90003 8.05429C10.0338 8.20403 10.222 8.2939 10.4225 8.30378C10.7458 8.31971 11.069 8.33944 11.392 8.36298L12.4738 8.44184C11.5143 9.85514 10.3128 11.0894 8.92367 12.0873L8.39241 12.4689L7.86116 12.0873C6.47205 11.0894 5.27057 9.85514 4.31103 8.44184L5.39279 8.36298C5.71578 8.33944 6.03898 8.3197 6.36232 8.30378C6.56285 8.2939 6.75105 8.20403 6.88479 8.05429C7.01853 7.90454 7.08665 7.70743 7.0739 7.50706Z" fill="#D6DBE8"/>
<path d="M2.14233 14.3923C2.14233 13.9781 1.80655 13.6423 1.39233 13.6423C0.97812 13.6423 0.642334 13.9781 0.642334 14.3923V16.3923C0.642334 17.3588 1.42584 18.1423 2.39233 18.1423H14.3923C15.3588 18.1423 16.1423 17.3588 16.1423 16.3923V14.3923C16.1423 13.9781 15.8065 13.6423 15.3923 13.6423C14.9781 13.6423 14.6423 13.9781 14.6423 14.3923V16.3923C14.6423 16.5304 14.5304 16.6423 14.3923 16.6423H2.39233C2.25426 16.6423 2.14233 16.5304 2.14233 16.3923V14.3923Z" fill="#D6DBE8"/>
</svg>
