<svg width="34" height="33" viewBox="0 0 34 33" fill="none" xmlns="http://www.w3.org/2000/svg">
<path fill-rule="evenodd" clip-rule="evenodd" d="M15.5612 7.6423C14.7876 7.6423 14.1423 8.23353 14.0747 9.00419C13.9335 10.6155 13.8977 12.2339 13.9676 13.8492C13.8833 13.8549 13.799 13.8608 13.7146 13.8669L12.2251 13.9755C11.2731 14.0449 10.7409 15.1065 11.2549 15.9108C12.351 17.6264 13.7635 19.1177 15.4169 20.3055L16.0137 20.7341C16.4975 21.0817 17.1491 21.0817 17.633 20.7341L18.2297 20.3055C19.8831 19.1177 21.2956 17.6264 22.3918 15.9108C22.9058 15.1065 22.3736 14.0449 21.4215 13.9755L19.932 13.8669C19.8477 13.8608 19.7634 13.8549 19.679 13.8492C19.7489 12.2339 19.7132 10.6155 19.5719 9.00418C19.5044 8.23353 18.859 7.6423 18.0854 7.6423H15.5612ZM15.5048 14.507C15.3911 12.7198 15.4123 10.9265 15.5684 9.1423H18.0783C18.2343 10.9265 18.2555 12.7198 18.1418 14.507C18.1291 14.7074 18.1972 14.9045 18.3309 15.0543C18.4647 15.204 18.6529 15.2939 18.8534 15.3037C19.1768 15.3197 19.5 15.3394 19.8229 15.363L20.9047 15.4418C19.9452 16.8551 18.7437 18.0894 17.3546 19.0872L16.8233 19.4689L16.2921 19.0872C14.903 18.0894 13.7015 16.8551 12.7419 15.4418L13.8237 15.363C14.1467 15.3394 14.4699 15.3197 14.7932 15.3037C14.9938 15.2939 15.182 15.204 15.3157 15.0543C15.4494 14.9045 15.5176 14.7074 15.5048 14.507Z" fill="#D6DBE8"/>
<path d="M10.5732 21.3923C10.5732 20.9781 10.2375 20.6423 9.82324 20.6423C9.40903 20.6423 9.07324 20.9781 9.07324 21.3923V23.3923C9.07324 24.3588 9.85674 25.1423 10.8232 25.1423H22.8232C23.7897 25.1423 24.5732 24.3588 24.5732 23.3923V21.3923C24.5732 20.9781 24.2375 20.6423 23.8232 20.6423C23.409 20.6423 23.0732 20.9781 23.0732 21.3923V23.3923C23.0732 23.5304 22.9613 23.6423 22.8232 23.6423H10.8232C10.6852 23.6423 10.5732 23.5304 10.5732 23.3923V21.3923Z" fill="#D6DBE8"/>
</svg>
