<svg width="139" height="48" viewBox="0 0 139 48" fill="none" xmlns="http://www.w3.org/2000/svg">
<path d="M1.42 12.52H4.38V20.88C4.26 20.9067 4.07333 20.94 3.82 20.98C3.58 21.02 3.32 21.04 3.04 21.04C2.54667 21.04 2.15333 20.8933 1.86 20.6C1.56667 20.3067 1.42 19.9133 1.42 19.42V12.52ZM4.38 17.36H1.42V10.5C1.42 9.99333 1.56667 9.6 1.86 9.32C2.15333 9.02667 2.54667 8.88 3.04 8.88C3.32 8.88 3.58 8.9 3.82 8.94C4.07333 8.98 4.26 9.01333 4.38 9.04V17.36ZM3.04 16.02V13.62H9.08C9.16 13.7533 9.23333 13.92 9.3 14.12C9.36667 14.32 9.4 14.54 9.4 14.78C9.4 15.2067 9.3 15.52 9.1 15.72C8.91333 15.92 8.66 16.02 8.34 16.02H3.04ZM3.04 21.04V18.62H9.74C9.82 18.74 9.89333 18.9067 9.96 19.12C10.0267 19.3333 10.06 19.56 10.06 19.8C10.06 20.2267 9.96 20.54 9.76 20.74C9.57333 20.94 9.32 21.04 9 21.04H3.04ZM3.04 11.28V8.88H9.64C9.73333 9 9.80667 9.16 9.86 9.36C9.92667 9.56 9.96 9.78 9.96 10.02C9.96 10.4467 9.86667 10.7667 9.68 10.98C9.49333 11.18 9.23333 11.28 8.9 11.28H3.04ZM12.1389 15.72L15.1189 15.78V20.98C14.9856 21.02 14.7989 21.0533 14.5589 21.08C14.3189 21.12 14.0589 21.14 13.7789 21.14C13.2189 21.14 12.8056 21.04 12.5389 20.84C12.2722 20.64 12.1389 20.28 12.1389 19.76V15.72ZM15.1189 17.32L12.1389 17.26V7.98C12.2722 7.94 12.4589 7.9 12.6989 7.86C12.9389 7.82 13.1989 7.8 13.4789 7.8C14.0522 7.8 14.4656 7.9 14.7189 8.1C14.9856 8.3 15.1189 8.66667 15.1189 9.2V17.32ZM18.9267 17.6L18.8067 15.6L23.7667 14.82C23.7401 14.4467 23.5801 14.1 23.2867 13.78C22.9934 13.46 22.5601 13.3 21.9867 13.3C21.3867 13.3 20.8867 13.5067 20.4867 13.92C20.0867 14.32 19.8734 14.8933 19.8467 15.64L19.9467 17.02C20.0667 17.7533 20.3801 18.28 20.8867 18.6C21.3934 18.9067 21.9934 19.06 22.6867 19.06C23.2467 19.06 23.7734 18.98 24.2667 18.82C24.7601 18.66 25.1601 18.4933 25.4667 18.32C25.6667 18.44 25.8267 18.6067 25.9467 18.82C26.0801 19.0333 26.1467 19.26 26.1467 19.5C26.1467 19.9 25.9867 20.2333 25.6667 20.5C25.3601 20.7667 24.9267 20.9667 24.3667 21.1C23.8201 21.2333 23.1934 21.3 22.4867 21.3C21.4601 21.3 20.5334 21.1067 19.7067 20.72C18.8934 20.3333 18.2534 19.7533 17.7867 18.98C17.3201 18.2067 17.0867 17.24 17.0867 16.08C17.0867 15.2267 17.2201 14.4867 17.4867 13.86C17.7667 13.2333 18.1334 12.72 18.5867 12.32C19.0534 11.9067 19.5734 11.6 20.1467 11.4C20.7334 11.2 21.3401 11.1 21.9667 11.1C22.8867 11.1 23.6867 11.2867 24.3667 11.66C25.0601 12.02 25.6001 12.5133 25.9867 13.14C26.3734 13.7667 26.5667 14.4933 26.5667 15.32C26.5667 15.7333 26.4534 16.0467 26.2267 16.26C26.0001 16.4733 25.6867 16.6067 25.2867 16.66L18.9267 17.6ZM32.3266 19.1C32.6332 19.1 32.9332 19.0733 33.2266 19.02C33.5332 18.9533 33.7532 18.88 33.8866 18.8V16.88L32.2066 17.04C31.7532 17.0667 31.3932 17.16 31.1266 17.32C30.8599 17.48 30.7266 17.72 30.7266 18.04C30.7266 18.36 30.8532 18.62 31.1066 18.82C31.3599 19.0067 31.7666 19.1 32.3266 19.1ZM32.2066 11.1C33.5932 11.1 34.6999 11.3933 35.5266 11.98C36.3532 12.5533 36.7666 13.4467 36.7666 14.66V19.2C36.7666 19.5333 36.6799 19.8067 36.5066 20.02C36.3332 20.22 36.1132 20.3933 35.8466 20.54C35.4466 20.78 34.9466 20.9667 34.3466 21.1C33.7599 21.2467 33.0866 21.32 32.3266 21.32C30.9666 21.32 29.8799 21.0533 29.0666 20.52C28.2666 19.9867 27.8666 19.1933 27.8666 18.14C27.8666 17.2333 28.1466 16.54 28.7066 16.06C29.2666 15.5667 30.0999 15.2667 31.2066 15.16L33.8666 14.88V14.64C33.8666 14.1867 33.6866 13.86 33.3266 13.66C32.9799 13.46 32.4799 13.36 31.8266 13.36C31.3199 13.36 30.8199 13.42 30.3266 13.54C29.8466 13.66 29.4132 13.8 29.0266 13.96C28.8666 13.8533 28.7266 13.6933 28.6066 13.48C28.4999 13.2533 28.4466 13.02 28.4466 12.78C28.4466 12.22 28.7532 11.8133 29.3666 11.56C29.7532 11.4 30.1999 11.2867 30.7066 11.22C31.2266 11.14 31.7266 11.1 32.2066 11.1ZM45.2706 18.62V12.6H48.2306V19C48.2306 19.32 48.164 19.5933 48.0306 19.82C47.8973 20.0333 47.684 20.2267 47.3906 20.4C47.0306 20.64 46.5573 20.8467 45.9706 21.02C45.3973 21.2067 44.7306 21.3 43.9706 21.3C42.864 21.3 41.904 21.1133 41.0906 20.74C40.2906 20.3667 39.6706 19.8067 39.2306 19.06C38.804 18.3 38.5906 17.36 38.5906 16.24C38.5906 15.0667 38.8106 14.1067 39.2506 13.36C39.704 12.6 40.3106 12.0333 41.0706 11.66C41.8306 11.2867 42.6706 11.1 43.5906 11.1C44.0706 11.1 44.4973 11.1533 44.8706 11.26C45.244 11.3667 45.5506 11.4933 45.7906 11.64V14.08C45.604 13.92 45.3573 13.7733 45.0506 13.64C44.744 13.5067 44.3906 13.44 43.9906 13.44C43.524 13.44 43.1106 13.54 42.7506 13.74C42.3906 13.94 42.1106 14.2467 41.9106 14.66C41.7106 15.0733 41.6106 15.6 41.6106 16.24C41.6106 17.1733 41.8173 17.86 42.2306 18.3C42.6573 18.74 43.2306 18.96 43.9506 18.96C44.244 18.96 44.504 18.9267 44.7306 18.86C44.9573 18.78 45.1373 18.7 45.2706 18.62ZM48.2306 13.18L45.2706 13.2V7.98C45.3906 7.94 45.5706 7.9 45.8106 7.86C46.0506 7.82 46.3106 7.8 46.5906 7.8C47.1773 7.8 47.5973 7.9 47.8506 8.1C48.104 8.3 48.2306 8.66667 48.2306 9.2V13.18ZM62.6336 14.92C62.6336 16.3067 62.3603 17.48 61.8136 18.44C61.2803 19.3867 60.5403 20.1067 59.5936 20.6C58.6603 21.0933 57.6003 21.34 56.4136 21.34C55.2269 21.34 54.1669 21.0933 53.2336 20.6C52.3003 20.1067 51.5669 19.3867 51.0336 18.44C50.5003 17.48 50.2336 16.3067 50.2336 14.92C50.2336 13.5333 50.5069 12.3667 51.0536 11.42C51.6003 10.46 52.3403 9.74 53.2736 9.26C54.2069 8.76667 55.2536 8.52 56.4136 8.52C57.5869 8.52 58.6403 8.76667 59.5736 9.26C60.5203 9.74 61.2669 10.46 61.8136 11.42C62.3603 12.3667 62.6336 13.5333 62.6336 14.92ZM59.4936 14.92C59.4936 13.64 59.2136 12.6667 58.6536 12C58.1069 11.3333 57.3603 11 56.4136 11C55.5069 11 54.7736 11.3333 54.2136 12C53.6536 12.6533 53.3736 13.6267 53.3736 14.92C53.3736 16.2267 53.6469 17.2133 54.1936 17.88C54.7536 18.5333 55.5003 18.86 56.4336 18.86C57.3669 18.86 58.1069 18.5333 58.6536 17.88C59.2136 17.2133 59.4936 16.2267 59.4936 14.92ZM73.7775 14.78V16.66H70.7975V14.88C70.7975 14.3867 70.6508 14.0267 70.3575 13.8C70.0775 13.56 69.7042 13.44 69.2375 13.44C68.9042 13.44 68.5975 13.4867 68.3175 13.58C68.0375 13.66 67.7842 13.76 67.5575 13.88V16.66H64.5975V13.54C64.5975 13.2067 64.6642 12.9333 64.7975 12.72C64.9442 12.4933 65.1508 12.2933 65.4175 12.12C65.8442 11.8267 66.3908 11.5867 67.0575 11.4C67.7242 11.2 68.4575 11.1 69.2575 11.1C70.6975 11.1 71.8108 11.42 72.5975 12.06C73.3842 12.6867 73.7775 13.5933 73.7775 14.78ZM64.5975 15.74H67.5575V20.98C67.4242 21.02 67.2375 21.0533 66.9975 21.08C66.7575 21.12 66.4975 21.14 66.2175 21.14C65.6575 21.14 65.2442 21.04 64.9775 20.84C64.7242 20.64 64.5975 20.28 64.5975 19.76V15.74ZM70.7975 15.74H73.7775V20.98C73.6442 21.02 73.4575 21.0533 73.2175 21.08C72.9775 21.12 72.7175 21.14 72.4375 21.14C71.8775 21.14 71.4642 21.04 71.1975 20.84C70.9308 20.64 70.7975 20.28 70.7975 19.76V15.74ZM77.4814 17.6L77.3614 15.6L82.3214 14.82C82.2947 14.4467 82.1347 14.1 81.8414 13.78C81.5481 13.46 81.1147 13.3 80.5414 13.3C79.9414 13.3 79.4414 13.5067 79.0414 13.92C78.6414 14.32 78.4281 14.8933 78.4014 15.64L78.5014 17.02C78.6214 17.7533 78.9347 18.28 79.4414 18.6C79.9481 18.9067 80.5481 19.06 81.2414 19.06C81.8014 19.06 82.3281 18.98 82.8214 18.82C83.3147 18.66 83.7147 18.4933 84.0214 18.32C84.2214 18.44 84.3814 18.6067 84.5014 18.82C84.6347 19.0333 84.7014 19.26 84.7014 19.5C84.7014 19.9 84.5414 20.2333 84.2214 20.5C83.9147 20.7667 83.4814 20.9667 82.9214 21.1C82.3747 21.2333 81.7481 21.3 81.0414 21.3C80.0147 21.3 79.0881 21.1067 78.2614 20.72C77.4481 20.3333 76.8081 19.7533 76.3414 18.98C75.8747 18.2067 75.6414 17.24 75.6414 16.08C75.6414 15.2267 75.7747 14.4867 76.0414 13.86C76.3214 13.2333 76.6881 12.72 77.1414 12.32C77.6081 11.9067 78.1281 11.6 78.7014 11.4C79.2881 11.2 79.8947 11.1 80.5214 11.1C81.4414 11.1 82.2414 11.2867 82.9214 11.66C83.6147 12.02 84.1547 12.5133 84.5414 13.14C84.9281 13.7667 85.1214 14.4933 85.1214 15.32C85.1214 15.7333 85.0081 16.0467 84.7814 16.26C84.5547 16.4733 84.2414 16.6067 83.8414 16.66L77.4814 17.6ZM94.9413 19.56C94.9413 19.0667 95.0946 18.6533 95.4013 18.32C95.7213 17.9733 96.1479 17.8 96.6813 17.8C97.2013 17.8 97.6213 17.9733 97.9413 18.32C98.2613 18.6533 98.4213 19.0667 98.4213 19.56C98.4213 20.0533 98.2613 20.4733 97.9413 20.82C97.6213 21.1533 97.2013 21.32 96.6813 21.32C96.1479 21.32 95.7213 21.1533 95.4013 20.82C95.0946 20.4733 94.9413 20.0533 94.9413 19.56ZM90.5613 19.56C90.5613 19.0667 90.7146 18.6533 91.0213 18.32C91.3413 17.9733 91.7679 17.8 92.3013 17.8C92.8346 17.8 93.2546 17.9733 93.5613 18.32C93.8813 18.6533 94.0413 19.0667 94.0413 19.56C94.0413 20.0533 93.8813 20.4733 93.5613 20.82C93.2546 21.1533 92.8346 21.32 92.3013 21.32C91.7679 21.32 91.3413 21.1533 91.0213 20.82C90.7146 20.4733 90.5613 20.0533 90.5613 19.56ZM86.2013 19.56C86.2013 19.0667 86.3546 18.6533 86.6613 18.32C86.9813 17.9733 87.4013 17.8 87.9213 17.8C88.4546 17.8 88.8746 17.9733 89.1813 18.32C89.5013 18.6533 89.6613 19.0667 89.6613 19.56C89.6613 20.0533 89.5013 20.4733 89.1813 20.82C88.8746 21.1533 88.4546 21.32 87.9213 21.32C87.4013 21.32 86.9813 21.1533 86.6613 20.82C86.3546 20.4733 86.2013 20.0533 86.2013 19.56Z" fill="#F0F2F5"/>
<path opacity="0.6" d="M4.428 34.204C5.064 34.204 5.628 34.334 6.12 34.594C6.612 34.85 7.008 35.198 7.308 35.638C7.612 36.078 7.792 36.568 7.848 37.108H6.306C6.246 36.788 6.134 36.502 5.97 36.25C5.81 35.998 5.598 35.798 5.334 35.65C5.07 35.502 4.754 35.428 4.386 35.428C3.926 35.428 3.534 35.538 3.21 35.758C2.89 35.974 2.644 36.318 2.472 36.79C2.304 37.262 2.22 37.874 2.22 38.626C2.22 39.766 2.408 40.596 2.784 41.116C3.16 41.636 3.694 41.896 4.386 41.896C4.754 41.896 5.07 41.816 5.334 41.656C5.598 41.492 5.81 41.276 5.97 41.008C6.134 40.736 6.246 40.44 6.306 40.12H7.848C7.8 40.512 7.7 40.888 7.548 41.248C7.4 41.608 7.19 41.93 6.918 42.214C6.646 42.494 6.304 42.716 5.892 42.88C5.484 43.04 4.996 43.12 4.428 43.12C3.632 43.12 2.948 42.938 2.376 42.574C1.808 42.206 1.37 41.686 1.062 41.014C0.758 40.338 0.606 39.536 0.606 38.608C0.606 37.684 0.758 36.894 1.062 36.238C1.366 35.582 1.802 35.08 2.37 34.732C2.942 34.38 3.628 34.204 4.428 34.204ZM17.9912 43H16.4672L14.9732 39.478H12.9572V43H11.4992V34.324H15.0212C15.6852 34.324 16.2312 34.428 16.6592 34.636C17.0912 34.84 17.4112 35.13 17.6192 35.506C17.8272 35.878 17.9312 36.314 17.9312 36.814C17.9312 37.278 17.8552 37.668 17.7032 37.984C17.5512 38.296 17.3532 38.552 17.1092 38.752C16.8692 38.948 16.6112 39.108 16.3352 39.232L17.9912 43ZM14.6912 38.32C15.2432 38.32 15.6732 38.192 15.9812 37.936C16.2932 37.68 16.4492 37.324 16.4492 36.868C16.4492 36.42 16.3052 36.074 16.0172 35.83C15.7292 35.586 15.3492 35.464 14.8772 35.464H12.9572V38.32H14.6912ZM21.7375 43V34.324H23.8255L26.0995 40.954L28.3975 34.324H30.4735V43H28.9915V36.196L26.7055 43H25.4875L23.2195 36.238V43H21.7375Z" fill="#E5E8EF"/>
</svg>
