<svg width="118" height="48" viewBox="0 0 118 48" fill="none" xmlns="http://www.w3.org/2000/svg">
<path fill-rule="evenodd" clip-rule="evenodd" d="M14.9209 19.3882C14.9076 19.4203 14.8104 19.8025 14.7046 20.2377C14.5989 20.6728 14.4994 21.061 14.484 21.1002L14.4559 21.1715H16.6461C17.8505 21.1715 18.8361 21.1667 18.8361 21.1606C18.8361 21.1474 19.059 20.4013 19.2045 19.9264C19.2638 19.7337 19.3257 19.5208 19.3428 19.4529L19.3731 19.3298H17.1588H14.9445L14.9209 19.3882ZM105.944 19.3882C105.919 19.4487 105.898 19.528 105.677 20.4322C105.603 20.7318 105.53 21.0207 105.514 21.0742L105.484 21.1715H111.408C116.112 21.1715 117.332 21.1648 117.332 21.1391C117.332 21.1212 117.427 20.7337 117.543 20.278C117.658 19.8221 117.753 19.4224 117.753 19.3896V19.3298H111.861H105.969L105.944 19.3882ZM2.18617 19.44C2.16123 19.5136 1.89352 20.5925 1.81113 20.951C1.79471 21.0224 1.76945 21.1012 1.75525 21.1261C1.73031 21.1692 2.03621 21.1715 7.64732 21.1715H13.5653L13.5959 21.0742C13.6692 20.8423 13.9956 19.4999 13.9956 19.4313V19.3557H8.10508H2.21458L2.18617 19.44ZM27.3351 19.3882C27.3235 19.4059 27.2632 19.6307 27.201 19.8875C27.1388 20.1443 27.0428 20.5329 26.9873 20.751C26.9317 20.969 26.8862 21.153 26.8862 21.1595C26.8862 21.1661 32.5895 21.1715 39.5603 21.1715H52.2344L52.2701 20.9315C52.4008 20.0484 51.8269 19.5082 50.6263 19.3845C50.1979 19.3403 27.3642 19.3438 27.3351 19.3882ZM53.5932 19.414C53.5802 19.4463 53.5442 19.5804 53.5133 19.7124C53.3766 20.2967 53.3393 20.449 53.2689 20.7166C53.2276 20.8728 53.1941 21.0392 53.1941 21.0862V21.1715H59.8464H66.4986L66.5349 21.115C66.7922 20.7156 66.4617 19.9046 65.9383 19.6508C65.3262 19.354 65.3906 19.3568 59.0486 19.3561L53.6168 19.3557L53.5932 19.414ZM81.4486 19.3941C79.9531 19.4971 79.0632 19.8486 78.7374 20.4646C78.6588 20.6134 78.5019 21.0581 78.5019 21.1323C78.5019 21.1754 91.0948 21.1942 91.1488 21.1513C91.2183 21.0959 91.2798 20.4453 91.2315 20.2774C91.0971 19.81 90.5468 19.5452 89.446 19.4182C88.9163 19.3571 82.276 19.337 81.4486 19.3941ZM92.3194 19.452C92.303 19.4919 92.2178 19.8279 92.1303 20.1988C92.0429 20.5697 91.9567 20.9328 91.9387 21.0054L91.9062 21.1377L92.1098 21.1544C92.2219 21.1634 95.1111 21.171 98.5303 21.1712L104.747 21.1715L104.785 20.9202C104.894 20.2034 104.572 19.7547 103.808 19.5582C103.168 19.3935 103.405 19.4 97.6193 19.3894L92.3491 19.3798L92.3194 19.452ZM80.397 21.6903C78.5578 21.7015 78.2648 21.7086 78.2538 21.7422C78.2465 21.7636 78.1815 22.0087 78.1095 22.287C78.0375 22.5651 77.9055 23.0613 77.8162 23.3894C77.4105 24.8823 77.4266 25.0955 77.9655 25.3795C78.6212 25.725 78.6032 25.724 83.5005 25.724C90.0761 25.724 89.8943 25.7868 90.5506 23.2856C90.7495 22.5282 90.8868 22.0085 90.9465 21.7882L90.9727 21.6915L88.8282 21.6843C87.6488 21.6805 86.6474 21.6809 86.6029 21.6854C86.5397 21.6917 86.4952 21.7919 86.4002 22.1393C86.3333 22.3846 86.2234 22.7779 86.1558 23.0132C86.0886 23.2487 86.0059 23.5435 85.9718 23.6683L85.9099 23.8952H84.0189H82.1276L82.1576 23.8108C82.1737 23.7645 82.245 23.5282 82.3158 23.2856C82.3868 23.0431 82.5162 22.6053 82.604 22.3128C82.795 21.6759 82.7937 21.6988 82.6453 21.6868C82.5803 21.6815 81.5685 21.6833 80.397 21.6903ZM91.73 21.7033C91.7126 21.7289 91.6517 21.9696 91.3417 23.2337C91.2543 23.5905 91.1592 23.9697 91.1302 24.0768C90.9894 24.5967 90.7615 25.5563 90.7615 25.6292V25.711H92.9404H95.1193L95.1496 25.6138C95.1663 25.5602 95.2282 25.3121 95.2869 25.0625C95.3456 24.8128 95.4284 24.4684 95.4707 24.2972C95.5133 24.126 95.584 23.8342 95.6282 23.6488C95.7365 23.1945 95.7923 22.9645 95.9455 22.3439C96.0171 22.0541 96.0755 21.7889 96.0755 21.7544V21.6915L93.9114 21.6843C92.5028 21.6798 91.7414 21.6864 91.73 21.7033ZM1.57846 21.7217C1.57846 21.7388 1.5431 21.8935 1.49985 22.0653C1.45692 22.2372 1.29118 22.9263 1.13176 23.5968C0.853632 24.7657 0.810697 24.9448 0.682842 25.4611C0.651273 25.5875 0.640855 25.6984 0.659165 25.7075C0.708097 25.7316 12.2703 25.7419 12.3189 25.7179C12.3559 25.6997 12.5898 24.8712 12.7347 24.2454C12.7644 24.117 12.8004 23.9856 12.8143 23.9536L12.8401 23.8952H9.19106C7.1842 23.8952 5.53029 23.8894 5.51577 23.8823C5.49209 23.8706 5.64142 23.3455 5.70961 23.2014L5.73707 23.143H9.36816C12.2277 23.143 13.0034 23.136 13.0182 23.1105C13.0359 23.0801 13.2707 22.1674 13.3449 21.8395L13.3787 21.6903H7.47843C2.90437 21.6903 1.57846 21.6974 1.57846 21.7217ZM14.2585 21.7228C14.2582 21.7405 14.0338 22.6415 13.7594 23.7248C13.4851 24.8082 13.266 25.697 13.273 25.7001C13.3696 25.7447 24.9472 25.717 24.9671 25.6721C25.0113 25.5713 25.3605 24.075 25.3605 23.9858V23.8952H21.7389C19.7469 23.8952 18.1056 23.8894 18.0914 23.8824C18.0664 23.8701 18.1163 23.6866 18.3597 22.8965C18.4213 22.6968 18.5179 22.3757 18.5744 22.1832C18.6312 21.9905 18.689 21.8009 18.7029 21.7617L18.7284 21.6903H16.4933C14.7409 21.6903 14.2585 21.6973 14.2585 21.7228ZM26.7066 21.7486C26.6858 21.8004 26.366 23.1263 26.2517 23.6357C26.2113 23.8166 26.1756 23.9648 25.9644 24.829C25.8085 25.4687 25.7687 25.6874 25.8053 25.7056C25.8258 25.7157 28.4631 25.724 31.6655 25.724H37.4884L37.5484 25.4905C37.5812 25.3621 37.682 24.971 37.7719 24.6216C37.8619 24.272 37.9358 23.9655 37.9358 23.9406C37.9355 23.8978 37.7261 23.8952 34.2722 23.8952H30.6089L30.6373 23.8239C30.6528 23.7847 30.7071 23.6154 30.7579 23.4477L30.8501 23.143H34.4919H38.134L38.1921 22.9419C38.242 22.7688 38.5144 21.7173 38.5144 21.6974C38.5144 21.6935 35.8629 21.6903 32.6224 21.6903H26.7306L26.7066 21.7486ZM39.2876 21.8264C39.2708 21.9015 39.0423 22.8021 38.7802 23.8281C38.5179 24.8541 38.3171 25.7003 38.3342 25.7087C38.3512 25.7171 39.3636 25.724 40.5838 25.724H42.8025L43.1286 24.4399C43.3082 23.7336 43.4563 23.153 43.4575 23.1494C43.4591 23.1458 44.3127 23.143 45.3548 23.143H47.2496L47.2215 23.2403C47.1931 23.3388 46.8418 24.7106 46.6836 25.3408C46.6359 25.5296 46.6154 25.693 46.6378 25.7039C46.6602 25.7149 47.6878 25.724 48.9219 25.724H51.1652L51.3078 25.1663C51.7063 23.6116 52.1416 21.8364 52.1416 21.7678V21.6903H45.7299H39.3182L39.2876 21.8264ZM52.9614 21.7746C52.9327 21.8643 52.8519 22.1743 52.7736 22.4944C52.7474 22.6015 52.653 22.9691 52.5637 23.3115C52.474 23.654 52.307 24.3017 52.1921 24.7512C52.0769 25.2005 51.9699 25.5994 51.9538 25.6374C51.9254 25.7053 51.931 25.7068 52.2568 25.7233C53.0896 25.7658 63.205 25.7247 63.4873 25.6779C64.7027 25.4759 65.3221 25.0209 65.7732 23.999C65.8237 23.8848 66.3477 21.8177 66.3477 21.7332C66.3477 21.694 66.1548 21.6903 64.0864 21.6903H61.8248L61.8015 21.7486C61.7885 21.7808 61.7402 21.9587 61.6938 22.1443C61.6095 22.4814 61.5454 22.7279 61.3488 23.4767C61.2913 23.696 61.2443 23.8915 61.2443 23.9112C61.2443 23.9411 60.8926 23.947 59.1133 23.947C57.2807 23.947 56.9824 23.9417 56.9824 23.9092C56.9824 23.8883 57.0061 23.7862 57.0351 23.6823C57.1494 23.274 57.5084 21.8087 57.5084 21.7513V21.6903H55.2483H52.9883L52.9614 21.7746ZM100.21 21.7228C100.199 21.7405 100.129 22.006 100.055 22.3128C99.8926 22.983 99.5424 24.3884 99.3628 25.0932C99.2912 25.3741 99.2324 25.6281 99.2324 25.6577C99.2324 25.7115 99.2362 25.7115 101.427 25.7048L103.622 25.698L103.714 25.3089C103.765 25.0949 103.842 24.7739 103.886 24.5956C103.93 24.4172 104.002 24.1196 104.046 23.9341C104.09 23.7486 104.149 23.5035 104.177 23.3894C104.346 22.7042 104.396 22.498 104.469 22.1832C104.513 21.9905 104.56 21.8009 104.573 21.7617L104.597 21.6903H102.413C100.711 21.6903 100.225 21.6974 100.21 21.7228ZM105.316 21.7617C105.301 21.8009 105.275 21.8973 105.258 21.9757C105.241 22.0541 105.205 22.2116 105.177 22.3259C105.08 22.7226 104.969 23.187 104.758 24.0768C104.641 24.569 104.51 25.1123 104.467 25.2841C104.424 25.4559 104.389 25.6222 104.389 25.6538V25.711H110.255C115.505 25.711 116.122 25.7068 116.122 25.671C116.122 25.6491 116.217 25.2644 116.333 24.8161C116.448 24.3679 116.543 23.9715 116.543 23.9352V23.8692H112.883C109.422 23.8692 109.224 23.8667 109.248 23.8239C109.262 23.7989 109.317 23.6354 109.369 23.4607L109.463 23.143H113.103H116.742L116.772 23.0586C116.788 23.0123 116.862 22.7291 116.936 22.4295C117.01 22.1299 117.084 21.8411 117.1 21.7875L117.131 21.6903H111.238H105.344L105.316 21.7617ZM0.240873 26.8589C0.188784 26.9765 0.113018 27.1387 0.0729249 27.2192C0.032832 27.2998 0 27.3786 0 27.3944C0 27.4153 8.99628 27.4214 33.3185 27.4165L66.6372 27.41L66.7253 27.0858C66.7736 26.9074 66.8153 26.7353 66.8175 26.7032L66.8213 26.6449H33.5783H0.335581L0.240873 26.8589ZM75.2761 26.9885C75.1682 27.3935 75.1669 27.4147 75.2531 27.4268C75.2891 27.4318 84.3756 27.433 95.4451 27.4295L115.571 27.4229L115.721 27.0793C115.803 26.8903 115.882 26.7152 115.895 26.6902C115.917 26.6471 114.927 26.6449 95.643 26.6449H75.3674L75.2761 26.9885Z" fill="white"/>
<path fill-rule="evenodd" clip-rule="evenodd" d="M77.858 15.1813C77.7974 15.1988 77.7659 15.2395 77.7659 15.3007C77.7659 15.3518 77.7324 15.5058 77.6914 15.6431C77.6503 15.7804 77.59 15.9977 77.5572 16.1261C77.524 16.2545 77.4631 16.4851 77.4211 16.6384C77.3791 16.7917 77.3091 17.0485 77.2652 17.2092C77.2213 17.3696 77.1632 17.5884 77.1361 17.6955C77.0739 17.9385 76.9448 18.4239 76.8425 18.7979C76.7995 18.9548 76.7414 19.1708 76.7133 19.2778C76.5347 19.9568 76.4902 20.1244 76.4198 20.3803C76.3765 20.5372 76.3191 20.7532 76.2916 20.8601C76.2641 20.9672 76.2067 21.1831 76.1637 21.34C76.0715 21.6774 75.9576 22.1028 75.8442 22.5333C75.7559 22.8694 75.7091 23.0441 75.5832 23.506C75.4916 23.8412 75.4357 24.0528 75.3189 24.5047C75.2747 24.6759 75.2043 24.9385 75.1624 25.0884C75.1204 25.2381 75.062 25.4541 75.0323 25.5682C75.0029 25.6823 74.9439 25.9041 74.9013 26.0611C74.799 26.4384 74.6702 26.9224 74.608 27.1635C74.5805 27.2706 74.5221 27.4894 74.4782 27.6499C74.4344 27.8104 74.3643 28.0672 74.3223 28.2206C74.2803 28.3739 74.2194 28.6044 74.1866 28.7328C74.1537 28.8612 74.1038 29.048 74.0757 29.1479C73.7427 30.3272 73.7509 30.8126 74.1092 31.1568C74.2611 31.3026 74.4524 31.4285 74.3264 31.2998C73.9716 30.9371 73.9709 30.4628 74.3236 29.1739C74.3662 29.0169 74.4236 28.801 74.4511 28.6939C74.4786 28.587 74.5379 28.3652 74.5834 28.2012C74.6288 28.037 74.6872 27.8211 74.7134 27.7212C74.7396 27.6214 74.811 27.3529 74.8719 27.1246C74.9332 26.8963 75.0042 26.6278 75.0304 26.528C75.0566 26.4281 75.116 26.2063 75.162 26.0351C75.3028 25.5123 75.347 25.3463 75.425 25.0495C75.4664 24.8924 75.5371 24.6299 75.5829 24.4658C75.6283 24.3016 75.6877 24.08 75.7145 23.9729C75.7413 23.866 75.8007 23.6441 75.8461 23.48C75.8916 23.316 75.9623 23.0534 76.0034 22.8964C76.0441 22.7395 76.1012 22.5236 76.13 22.4165C76.1584 22.3096 76.218 22.0877 76.2619 21.9236C76.3058 21.7596 76.3787 21.4911 76.4239 21.3271C76.469 21.163 76.5277 20.9412 76.5539 20.8341C76.6051 20.6276 76.7099 20.2342 76.8447 19.7447C76.8901 19.5806 76.9492 19.3588 76.9766 19.2519C77.0041 19.1448 77.0635 18.9231 77.1089 18.759C77.1913 18.4616 77.3034 18.0387 77.3975 17.6695C77.4249 17.5626 77.4843 17.3407 77.5297 17.1766C77.5752 17.0126 77.6339 16.7967 77.6601 16.6968C77.6863 16.5969 77.7573 16.3284 77.8186 16.1002C77.8795 15.8719 77.9515 15.5977 77.9786 15.4906C78.0058 15.3837 78.0421 15.264 78.0591 15.2248C78.0923 15.1476 78.0257 15.1332 77.858 15.1813ZM64.4907 17.36C64.4626 17.4129 64.3717 17.4079 66.5326 17.4742C67.7174 17.5105 68.5407 17.5663 68.8431 17.6309C69.0534 17.6759 68.87 17.5965 68.6405 17.5433C68.2863 17.4613 67.7464 17.4166 66.585 17.3735C64.8121 17.3077 64.5194 17.3058 64.4907 17.36ZM14.0112 19.4594C14.0194 19.5349 13.9677 19.7802 13.867 20.1468C13.8275 20.2894 13.7549 20.5696 13.7056 20.7694C13.6561 20.9691 13.6071 21.1471 13.5967 21.1652C13.5819 21.1912 12.4085 21.1965 7.80219 21.191L2.02597 21.1843V21.2427V21.3011H7.93226C12.7115 21.3011 13.8382 21.2947 13.8382 21.2678C13.8382 21.2494 13.9225 20.9079 14.0254 20.509C14.301 19.441 14.2947 19.4854 14.165 19.4854C14.1053 19.4854 14.0447 19.4648 14.0305 19.4399C14.015 19.4128 14.0071 19.4208 14.0112 19.4594ZM117.754 19.5327C117.754 19.5728 117.721 19.7218 117.681 19.8634C117.641 20.0051 117.58 20.2376 117.546 20.3803C117.512 20.5229 117.447 20.7652 117.402 20.9187L117.32 21.1979L111.548 21.191C105.805 21.1845 105.777 21.1846 105.784 21.2363C105.792 21.2878 105.83 21.2881 111.681 21.2881H117.569L117.791 20.4192C118.057 19.3722 118.048 19.4594 117.885 19.4594C117.776 19.4594 117.754 19.4718 117.754 19.5327ZM19.3149 19.6734C19.2833 19.7769 19.2312 19.9374 19.1996 20.0301C19.1406 20.2027 19.0964 20.3532 18.9985 20.7174C18.9676 20.8317 18.9168 20.9865 18.8855 21.0617L18.8287 21.1985L16.7884 21.1915C14.7771 21.1845 14.7484 21.1851 14.7537 21.2363C14.7588 21.2872 14.8008 21.2883 16.9197 21.2948L19.0806 21.3017L19.199 20.8928C19.2643 20.6679 19.3524 20.3731 19.395 20.2376C19.4373 20.102 19.4938 19.9212 19.5204 19.8356C19.5469 19.75 19.5826 19.636 19.5996 19.5827C19.6283 19.4924 19.6211 19.4854 19.5014 19.4854C19.3815 19.4854 19.3682 19.4988 19.3149 19.6734ZM104.545 19.9068C104.786 20.1107 104.938 20.8793 104.785 21.1174L104.751 21.1714H98.4664C92.2176 21.1714 92.1826 21.1717 92.1826 21.2232C92.1826 21.2749 92.2176 21.2752 98.6015 21.2752H105.021V20.8369C105.021 20.3468 104.95 20.1747 104.655 19.9458C104.477 19.8071 104.392 19.777 104.545 19.9068ZM52.1269 20.0359C52.2668 20.2405 52.3527 20.8307 52.2782 21.0754L52.2409 21.1976L39.6953 21.191L27.15 21.1843V21.2427V21.3011H39.8301H52.5105V20.9272C52.5105 20.5205 52.4281 20.2429 52.245 20.0331C52.0632 19.8245 51.9839 19.8264 52.1269 20.0359ZM66.4028 19.9675C66.5894 20.182 66.6582 20.5988 66.5771 21.0223L66.5436 21.1974H60.0006C53.4926 21.1974 53.4576 21.1976 53.4576 21.2492C53.4576 21.3009 53.4926 21.3011 60.1067 21.3011H66.7555L66.788 21.2038C66.9086 20.8443 66.7839 20.2486 66.5377 20.0091C66.3634 19.8398 66.2655 19.8094 66.4028 19.9675ZM91.0792 19.9296C91.0783 19.9386 91.119 19.991 91.1695 20.0463C91.2769 20.1632 91.292 20.9965 91.1894 21.126L91.1329 21.1974H84.9491C78.8007 21.1974 78.7657 21.1977 78.7657 21.2492C78.7657 21.3008 78.8007 21.3011 85.0782 21.3011H91.3911L91.429 21.2298C91.5272 21.045 91.4767 20.2552 91.3589 20.1338C91.2469 20.0183 91.0824 19.8981 91.0792 19.9296ZM96.0877 21.8173C96.0915 21.8259 96.077 21.9146 96.0558 22.0145C96.0138 22.2102 96.0056 22.2444 95.9245 22.5592C95.8569 22.8203 95.7575 23.2274 95.7281 23.3633C95.7158 23.4204 95.683 23.5547 95.6555 23.6616C95.6277 23.7687 95.5706 24.0022 95.528 24.1804C95.403 24.7055 95.2861 25.1869 95.2167 25.4644L95.152 25.7239L93.0883 25.7307C91.0685 25.7372 91.0249 25.7385 91.0249 25.7891C91.0249 25.8397 91.0644 25.8406 93.2001 25.8406H95.3749L95.4399 25.5748C95.4756 25.4285 95.5368 25.1804 95.576 25.0235C95.6489 24.7303 95.6997 24.52 95.8392 23.934C95.8834 23.7485 95.9557 23.4509 95.9996 23.2725C96.0435 23.0942 96.1041 22.8433 96.1344 22.7149C96.1644 22.5865 96.2231 22.3535 96.2642 22.1971C96.3617 21.8265 96.362 21.8281 96.2102 21.8137C96.1391 21.8072 96.0842 21.8088 96.0877 21.8173ZM13.348 21.9561C13.2413 22.4175 13.0471 23.1234 13.0209 23.1441C13.002 23.1592 11.5927 23.1687 9.36771 23.1687H5.74483L5.68642 23.3569C5.65422 23.4602 5.60466 23.6081 5.57656 23.6855C5.50806 23.8727 5.50648 23.8691 5.65422 23.8691C5.79502 23.8691 5.77892 23.8929 5.90836 23.4931L5.97528 23.2855L9.61742 23.2789C11.6205 23.2752 13.2596 23.2657 13.2596 23.2576C13.2596 23.2497 13.2946 23.1183 13.3372 22.9659C13.4297 22.6361 13.6283 21.867 13.628 21.8394C13.6267 21.7317 13.3757 21.8365 13.348 21.9561ZM18.662 21.9691C18.6446 22.0511 18.5922 22.2408 18.5458 22.3905C18.4991 22.5404 18.4407 22.7329 18.4158 22.8185C18.3491 23.0484 18.1556 23.6876 18.1234 23.7849C18.0979 23.8615 18.1073 23.8691 18.2292 23.8691C18.3027 23.8691 18.363 23.8588 18.363 23.8461C18.363 23.8335 18.4451 23.5563 18.5452 23.2301C18.6453 22.9038 18.7655 22.5087 18.8129 22.3516C18.8599 22.1947 18.9168 22.0109 18.9395 21.9431C18.9796 21.8214 18.9783 21.82 18.8369 21.82C18.7011 21.82 18.6917 21.8277 18.662 21.9691ZM38.4928 21.8783C38.4799 21.9104 38.4537 22.0125 38.4347 22.1053C38.3587 22.4822 38.2074 23.0673 38.1683 23.1364C38.1538 23.1619 37.3794 23.1687 34.5221 23.1687H30.8944L30.8373 23.2998C30.806 23.3718 30.7798 23.4564 30.7792 23.4878C30.7786 23.5192 30.747 23.6179 30.7091 23.7071L30.6403 23.8691H30.7795C30.9165 23.8691 30.9203 23.8644 31.0138 23.5709L31.1088 23.2725H34.7591C37.9265 23.2725 38.4095 23.2676 38.4095 23.2346C38.4095 23.2137 38.4581 23.0125 38.5175 22.7871C38.5768 22.5619 38.6488 22.2788 38.6772 22.158C38.7056 22.0372 38.7425 21.9116 38.7593 21.8791C38.7848 21.8288 38.7687 21.82 38.6532 21.82C38.5541 21.82 38.5102 21.8358 38.4928 21.8783ZM52.1727 21.8653C52.1569 21.8903 52.1194 22.0274 52.0894 22.1702C52.0597 22.3127 52.0139 22.4995 51.9874 22.5851C51.9612 22.6707 51.9129 22.8575 51.8797 23.0002C51.8469 23.1429 51.7854 23.3938 51.7431 23.5578C51.5792 24.1939 51.5053 24.4865 51.4583 24.6862C51.4012 24.929 51.2493 25.5307 51.2146 25.6526L51.1903 25.7368H49.0354C46.912 25.7368 46.8808 25.7376 46.8808 25.7889C46.8808 25.8406 46.9073 25.8411 49.1534 25.8344L51.4261 25.8277L51.5723 25.244C51.6525 24.9229 51.8501 24.1292 52.0114 23.48C52.1724 22.831 52.3271 22.2217 52.3549 22.1263C52.4303 21.8662 52.4227 21.82 52.3037 21.82C52.2475 21.82 52.1888 21.8404 52.1727 21.8653ZM57.4899 21.9561C57.4713 22.031 57.4438 22.1507 57.4287 22.222C57.4135 22.2933 57.3785 22.4393 57.351 22.5462C57.3235 22.6533 57.2626 22.8984 57.2153 23.0909C57.1679 23.2836 57.1007 23.5462 57.0659 23.6746C57.005 23.8985 57.0069 23.9085 57.1051 23.9169C57.2449 23.9287 57.2819 23.8903 57.3232 23.6903C57.3425 23.5961 57.4514 23.1525 57.5654 22.7048C57.8097 21.7426 57.8024 21.82 57.6478 21.82C57.5373 21.82 57.5196 21.8349 57.4899 21.9561ZM66.3006 22.0729C66.0518 23.0953 65.8176 23.9546 65.7254 24.1804C65.3895 25.0034 64.5924 25.5349 63.4622 25.6893C63.1357 25.734 62.7856 25.7368 57.6866 25.7368C52.0168 25.7368 52.1948 25.7338 52.1948 25.8297C52.1948 25.8764 63.4675 25.8369 63.7779 25.7891C65.2421 25.5636 65.8201 24.9771 66.245 23.2855C66.3596 22.829 66.489 22.327 66.5329 22.1702C66.6333 21.8092 66.6346 21.82 66.4865 21.82C66.3681 21.82 66.359 21.8326 66.3006 22.0729ZM82.7156 22.034C82.6818 22.1516 82.6323 22.318 82.6054 22.4036C82.5789 22.4892 82.5445 22.6117 82.529 22.676C82.5136 22.7401 82.4785 22.8568 82.4514 22.9353C82.4239 23.0137 82.3623 23.2122 82.3144 23.3764C82.2667 23.5404 82.2089 23.7242 82.1865 23.7849C82.1467 23.8926 82.1489 23.8951 82.2897 23.8951C82.4245 23.8951 82.4359 23.8864 82.4646 23.7589C82.4817 23.6841 82.5319 23.506 82.5761 23.3633C82.7276 22.8755 83.0275 21.8657 83.0275 21.8428C83.0275 21.8302 82.971 21.82 82.9022 21.82C82.7857 21.82 82.7731 21.8344 82.7156 22.034ZM90.9542 21.9042C90.9378 21.9505 90.8983 22.0877 90.8665 22.2091C90.8346 22.3303 90.7749 22.5521 90.7342 22.7018C90.6935 22.8517 90.636 23.0676 90.6066 23.1818C90.5457 23.417 90.4172 23.8911 90.3355 24.1804C90.1072 24.9888 89.7233 25.3436 88.8539 25.5503C88.0044 25.7523 87.4728 25.7709 82.9486 25.7556C79.1581 25.7428 79.0801 25.74 78.503 25.5981C78.3669 25.5646 78.3464 25.564 78.3973 25.5942C78.4901 25.6493 78.9494 25.7486 79.3705 25.8046C79.9344 25.8795 87.6114 25.88 88.2626 25.8053C89.8736 25.6201 90.314 25.2822 90.6508 23.9729C90.6821 23.8517 90.7424 23.624 90.785 23.4671C90.8276 23.3102 90.9346 22.9074 91.023 22.5722C91.1114 22.2369 91.1945 21.9305 91.208 21.8912C91.2292 21.8301 91.215 21.82 91.1083 21.82C91.0092 21.82 90.9779 21.8371 90.9542 21.9042ZM104.547 21.9381C104.547 22.0032 104.525 22.1345 104.497 22.2299C104.421 22.4939 104.287 23.0397 104.074 23.9469C104.046 24.0682 103.988 24.3075 103.945 24.4787C103.903 24.65 103.83 24.9534 103.783 25.1531C103.737 25.353 103.682 25.5631 103.662 25.62L103.626 25.7239H101.561H99.4959V25.7822V25.8406H101.677H103.858L103.884 25.7562C103.899 25.7099 103.948 25.5144 103.994 25.3218C104.13 24.7458 104.177 24.5507 104.414 23.5838C104.454 23.4198 104.514 23.1687 104.547 23.0262C104.58 22.8834 104.64 22.6383 104.68 22.4814C104.72 22.3244 104.769 22.1115 104.788 22.008L104.824 21.82H104.686C104.556 21.82 104.547 21.8277 104.547 21.9381ZM117.101 21.9042C117.088 21.9505 117.037 22.146 116.989 22.3387C116.941 22.5312 116.874 22.788 116.841 22.9094L116.78 23.1298L113.143 23.1365L109.505 23.1432L109.422 23.3829C109.254 23.8637 109.253 23.8691 109.398 23.8691C109.532 23.8691 109.552 23.833 109.681 23.3698L109.715 23.2466H113.366C115.374 23.2466 117.017 23.242 117.017 23.2364C117.017 23.2038 117.337 21.9773 117.364 21.906C117.394 21.8267 117.386 21.82 117.262 21.82C117.15 21.82 117.123 21.8343 117.101 21.9042ZM43.4362 23.318C43.4189 23.4 43.3684 23.6072 43.3242 23.7784C43.1824 24.3265 43.0994 24.6548 43.0448 24.8808C43.0158 25.002 42.9513 25.2442 42.9024 25.4188L42.8128 25.7363L40.7039 25.743C38.7438 25.7494 38.5939 25.753 38.5774 25.7951C38.5607 25.8378 38.6946 25.8406 40.7986 25.8406H43.0378L43.064 25.7822C43.0786 25.7502 43.1385 25.5254 43.1973 25.2829C43.3182 24.785 43.4362 24.3125 43.5117 24.0247C43.5398 23.9178 43.589 23.7251 43.6212 23.5967C43.6531 23.4683 43.691 23.3429 43.7052 23.318C43.7289 23.2758 43.8583 23.2725 45.4636 23.2725C47.1614 23.2725 47.1965 23.2715 47.1965 23.2207C47.1965 23.1698 47.1614 23.1687 45.3323 23.1687H43.4681L43.4362 23.318ZM25.3907 24.0067C25.3986 24.0325 25.3843 24.1259 25.3591 24.2143C25.3338 24.3027 25.2773 24.5267 25.2334 24.7122C25.1899 24.8977 25.1141 25.204 25.0649 25.3931L24.9758 25.7368H19.2492C13.5576 25.7368 13.5225 25.7371 13.5225 25.7888C13.5225 25.8403 13.5576 25.8406 19.3587 25.8406H25.1949L25.224 25.7693C25.2401 25.7301 25.2893 25.5404 25.3332 25.3477C25.3774 25.1552 25.4491 24.8517 25.4929 24.6733C25.6533 24.0198 25.653 24.0247 25.5302 24.0247C25.4702 24.0247 25.4112 24.0103 25.3986 23.9924C25.3862 23.9745 25.3828 23.981 25.3907 24.0067ZM116.517 24.2039C116.498 24.3122 116.459 24.4707 116.43 24.5559C116.401 24.6411 116.356 24.8045 116.331 24.9191C116.268 25.2051 116.181 25.5511 116.146 25.6527L116.117 25.7372L110.368 25.7306L104.619 25.7239L104.642 25.7824L104.665 25.8407L110.512 25.8342L116.359 25.8277L116.396 25.672C116.416 25.5864 116.516 25.1927 116.619 24.7972C116.842 23.9432 116.835 24.0335 116.679 24.0188C116.555 24.0072 116.55 24.0126 116.517 24.2039ZM12.8211 24.042C12.8018 24.0517 12.786 24.099 12.786 24.1474C12.786 24.1956 12.7633 24.3135 12.7355 24.4089C12.6503 24.7036 12.5313 25.1418 12.4688 25.3916C12.4359 25.5228 12.4028 25.6512 12.3952 25.677C12.3819 25.7218 12.1329 25.7242 6.63792 25.7304C0.938731 25.7369 0.89485 25.7374 0.89485 25.7888C0.89485 25.8403 0.934311 25.8406 6.76136 25.8406C11.9659 25.8406 12.6282 25.8362 12.6282 25.8014C12.6282 25.7797 12.7002 25.485 12.7882 25.1463C12.8763 24.8078 12.978 24.4168 13.014 24.2777C13.0799 24.0244 13.0155 23.9461 12.8211 24.042ZM37.9359 24.1038C37.9359 24.1472 37.9015 24.296 37.8592 24.4345C37.8172 24.5729 37.7453 24.8322 37.6995 25.0106C37.654 25.1889 37.5909 25.4252 37.5593 25.5358L37.5022 25.7368H31.7736C26.0801 25.7368 26.0451 25.7371 26.0451 25.7888C26.0451 25.8403 26.0801 25.8406 31.8841 25.8406H37.7235L37.7506 25.7822C37.7652 25.7502 37.8371 25.4845 37.9101 25.192C37.983 24.8996 38.0774 24.532 38.1197 24.3749C38.2188 24.009 38.2213 24.0247 38.0676 24.0247C37.9562 24.0247 37.9359 24.0369 37.9359 24.1038ZM115.895 26.7939C115.882 26.8046 115.856 26.8541 115.837 26.9041C115.817 26.954 115.769 27.065 115.728 27.1506C115.687 27.2362 115.64 27.3383 115.624 27.3775L115.594 27.4488H95.3648C75.1658 27.4488 75.1352 27.449 75.1352 27.5008C75.1352 27.5526 75.1614 27.5526 95.4797 27.5462L115.824 27.5397L115.969 27.2284C116.197 26.7393 116.191 26.7744 116.045 26.7744C115.975 26.7744 115.908 26.7831 115.895 26.7939ZM33.4645 27.4488C1.92464 27.4613 0.2903 27.4641 0.273568 27.5072C0.25652 27.5504 1.86371 27.5526 33.4276 27.5526H66.5992L66.6241 27.4877C66.638 27.4521 66.6469 27.4258 66.6437 27.4294C66.6403 27.4329 51.7099 27.4417 33.4645 27.4488ZM78.2732 32.0604C78.2593 32.0714 78.2227 32.191 78.1921 32.3262C78.1614 32.4613 78.1122 32.6349 78.0828 32.7117C78.0531 32.7886 78.0288 32.8557 78.0288 32.8608C78.0288 32.866 74.1458 32.8703 69.4 32.8703H60.7712V32.9351V33H69.507C76.4479 33 78.2476 32.9933 78.2662 32.9676C78.2937 32.9295 78.5017 32.1522 78.5021 32.0856C78.5024 32.04 78.3234 32.0202 78.2732 32.0604Z" fill="#94949A"/>
<path fill-rule="evenodd" clip-rule="evenodd" d="M8.07307 19.349C12.7014 19.3543 13.9727 19.3627 14.0093 19.3881C14.0434 19.4119 14.0501 19.4102 14.0343 19.3816C14.0153 19.3473 13.3107 19.3427 8.09769 19.3425L2.18289 19.3423L8.07307 19.349ZM27.3413 19.3492C27.3192 19.3668 35.0726 19.3666 46.0117 19.349C48.2689 19.3453 44.9967 19.3395 38.7407 19.336C32.4843 19.3325 27.3546 19.3385 27.3413 19.3492ZM53.5968 19.347C53.5776 19.3565 53.5621 19.3769 53.5627 19.3923C53.563 19.4091 53.5804 19.4074 53.605 19.3881C53.6378 19.3629 54.7841 19.3545 58.9317 19.3492L64.2164 19.3423L58.9241 19.3361C56.0134 19.3325 53.6164 19.3375 53.5968 19.347ZM102.349 19.3995C102.4 19.406 102.483 19.406 102.533 19.3995C102.584 19.3929 102.543 19.3876 102.442 19.3876C102.34 19.3876 102.299 19.3929 102.349 19.3995ZM117.712 19.615C117.712 19.665 117.723 19.6854 117.736 19.6605C117.75 19.6354 117.75 19.5946 117.736 19.5696C117.723 19.5447 117.712 19.5651 117.712 19.615ZM13.9033 19.8874C13.9039 19.9445 13.9146 19.9648 13.9273 19.9325C13.9396 19.9002 13.9393 19.8535 13.926 19.8287C13.9127 19.804 13.9026 19.8303 13.9033 19.8874ZM19.2164 19.9003C19.2164 19.9503 19.2271 19.9707 19.2404 19.9458C19.2536 19.9209 19.2536 19.8799 19.2404 19.855C19.2271 19.83 19.2164 19.8504 19.2164 19.9003ZM117.554 20.2376C117.554 20.2875 117.565 20.3079 117.578 20.283C117.592 20.258 117.592 20.2172 117.578 20.1921C117.565 20.1672 117.554 20.1876 117.554 20.2376ZM66.5702 20.4451C66.5702 20.495 66.5809 20.5154 66.5942 20.4905C66.6074 20.4656 66.6074 20.4247 66.5942 20.3998C66.5809 20.3747 66.5702 20.3951 66.5702 20.4451ZM13.7454 20.51C13.7461 20.5671 13.7568 20.5873 13.7694 20.5551C13.7817 20.5227 13.7814 20.476 13.7682 20.4513C13.7549 20.4265 13.7448 20.4528 13.7454 20.51ZM52.2586 20.497C52.2586 20.5468 52.2696 20.5674 52.2829 20.5423C52.2958 20.5174 52.2958 20.4765 52.2829 20.4516C52.2696 20.4267 52.2586 20.4471 52.2586 20.497ZM104.824 20.6527C104.824 20.7168 104.834 20.7431 104.846 20.711C104.859 20.6788 104.859 20.6264 104.846 20.5943C104.834 20.5621 104.824 20.5884 104.824 20.6527ZM91.2478 20.6656C91.2485 20.7227 91.2592 20.7429 91.2718 20.7107C91.2841 20.6784 91.2838 20.6317 91.2706 20.6069C91.2573 20.5822 91.2472 20.6085 91.2478 20.6656ZM117.449 20.6527C117.449 20.7025 117.46 20.723 117.473 20.698C117.486 20.6731 117.486 20.6321 117.473 20.6072C117.46 20.5823 117.449 20.6027 117.449 20.6527ZM66.5711 20.8731C66.5717 20.9302 66.5825 20.9504 66.5951 20.9182C66.6077 20.886 66.6071 20.8393 66.5942 20.8144C66.5809 20.7896 66.5705 20.8161 66.5711 20.8731ZM52.2598 21.0029C52.2605 21.0598 52.2712 21.0802 52.2838 21.0478C52.2962 21.0156 52.2958 20.9689 52.2826 20.9442C52.2693 20.9193 52.2592 20.9457 52.2598 21.0029ZM91.1942 21.0158C91.1942 21.0657 91.2049 21.0861 91.2181 21.0612C91.2314 21.0362 91.2314 20.9954 91.2181 20.9703C91.2049 20.9454 91.1942 20.9658 91.1942 21.0158ZM104.77 21.0287C104.77 21.0858 104.781 21.1061 104.794 21.0738C104.806 21.0416 104.806 20.9949 104.793 20.97C104.78 20.9453 104.769 20.9717 104.77 21.0287ZM13.5784 21.1129L13.5743 21.1713L7.79968 21.178L2.02504 21.1846L7.80126 21.191C13.9228 21.1977 13.7022 21.2016 13.6097 21.088C13.5948 21.0696 13.5806 21.0808 13.5784 21.1129ZM66.5051 21.1454C66.5051 21.1624 64.265 21.1734 59.9678 21.178L53.4304 21.1846L59.994 21.191C65.7992 21.1966 66.5579 21.1929 66.5579 21.1585C66.5579 21.137 66.5462 21.1196 66.5317 21.1196C66.5171 21.1196 66.5051 21.1311 66.5051 21.1454ZM84.9469 21.1714L78.7382 21.1846L84.9305 21.191C89.0162 21.1952 91.1342 21.1885 91.1556 21.1714C91.1733 21.1571 91.1806 21.1484 91.1717 21.1518C91.1629 21.1552 88.3618 21.1641 84.9469 21.1714ZM15.7674 21.1909C16.3224 21.1951 17.2458 21.1951 17.8194 21.1909C18.3927 21.1867 17.9388 21.1832 16.8102 21.1832C15.6816 21.1832 15.2121 21.1867 15.7674 21.1909ZM33.4497 21.1909C36.9005 21.1946 42.5476 21.1946 45.9984 21.1909C49.4492 21.1871 46.6257 21.1842 39.724 21.1842C32.8224 21.1842 29.9988 21.1871 33.4497 21.1909ZM108.659 21.1909C110.241 21.1946 112.846 21.1946 114.447 21.1909C116.048 21.187 114.754 21.1839 111.57 21.1839C108.387 21.1839 107.077 21.187 108.659 21.1909ZM78.2729 21.6838C78.2505 21.7014 79.8188 21.7011 81.7638 21.6829C82.1833 21.679 81.575 21.6732 80.412 21.6701C79.249 21.6668 78.2865 21.673 78.2729 21.6838ZM87.8014 21.6836C88.3873 21.6878 89.3461 21.6878 89.9323 21.6836C90.5182 21.6796 90.0387 21.6762 88.8669 21.6762C87.6947 21.6762 87.2152 21.6796 87.8014 21.6836ZM92.8822 21.6838C93.4845 21.6878 94.4552 21.6878 95.0393 21.6836C95.6236 21.6796 95.1305 21.6762 93.9441 21.6762C92.7578 21.6762 92.2798 21.6796 92.8822 21.6838ZM100.213 21.6838C100.191 21.7014 101.822 21.7011 103.836 21.6829C104.27 21.679 103.638 21.6732 102.432 21.6701C101.225 21.6668 100.227 21.673 100.213 21.6838ZM108.269 21.6838C109.896 21.6875 112.56 21.6875 114.188 21.6838C115.816 21.6799 114.484 21.6768 111.228 21.6768C107.973 21.6768 106.641 21.6799 108.269 21.6838ZM90.9309 21.8458C90.9309 21.8958 90.9419 21.9162 90.9552 21.8913C90.9681 21.8663 90.9681 21.8254 90.9552 21.8005C90.9419 21.7755 90.9309 21.7958 90.9309 21.8458ZM13.3233 21.9496C13.3233 21.9996 13.3341 22.02 13.3473 21.9951C13.3606 21.97 13.3606 21.9292 13.3473 21.9042C13.3341 21.8793 13.3233 21.8997 13.3233 21.9496ZM104.506 22.0534C104.506 22.1032 104.517 22.1238 104.53 22.0987C104.543 22.0738 104.543 22.0329 104.53 22.008C104.517 21.9831 104.506 22.0035 104.506 22.0534ZM38.4209 22.0793C38.4209 22.1292 38.4316 22.1496 38.4449 22.1247C38.4581 22.0998 38.4581 22.0589 38.4449 22.034C38.4316 22.0089 38.4209 22.0293 38.4209 22.0793ZM117.028 22.0793C117.028 22.1292 117.039 22.1496 117.052 22.1247C117.065 22.0998 117.065 22.0589 117.052 22.034C117.039 22.0089 117.028 22.0293 117.028 22.0793ZM95.9819 22.1831C95.9819 22.233 95.993 22.2534 96.0062 22.2285C96.0192 22.2035 96.0192 22.1627 96.0062 22.1376C95.993 22.1127 95.9819 22.1331 95.9819 22.1831ZM52.0483 22.2349C52.0483 22.2849 52.0591 22.3053 52.0723 22.2803C52.0856 22.2554 52.0856 22.2145 52.0723 22.1896C52.0591 22.1646 52.0483 22.1849 52.0483 22.2349ZM66.2018 22.3647C66.2018 22.4145 66.2125 22.4351 66.2258 22.41C66.239 22.3851 66.239 22.3442 66.2258 22.3193C66.2125 22.2944 66.2018 22.3147 66.2018 22.3647ZM57.3624 22.3905C57.3624 22.4405 57.3731 22.4609 57.3864 22.436C57.3996 22.4111 57.3996 22.3702 57.3864 22.3453C57.3731 22.3202 57.3624 22.3406 57.3624 22.3905ZM90.7743 22.4554C90.7749 22.5126 90.7856 22.5328 90.7983 22.5006C90.8106 22.4682 90.8103 22.4215 90.797 22.3968C90.7838 22.372 90.7737 22.3983 90.7743 22.4554ZM104.401 22.4814C104.402 22.5384 104.413 22.5588 104.425 22.5264C104.438 22.4942 104.438 22.4475 104.424 22.4228C104.411 22.3979 104.401 22.4243 104.401 22.4814ZM38.3167 22.5073C38.3173 22.5644 38.328 22.5846 38.3407 22.5524C38.3533 22.5202 38.3527 22.4735 38.3397 22.4486C38.3265 22.4238 38.3161 22.4503 38.3167 22.5073ZM116.87 22.7018C116.87 22.7518 116.881 22.7722 116.894 22.7473C116.908 22.7224 116.908 22.6814 116.894 22.6565C116.881 22.6315 116.87 22.6519 116.87 22.7018ZM66.0966 22.7796C66.0966 22.8296 66.1074 22.85 66.1206 22.8251C66.1339 22.8002 66.1339 22.7593 66.1206 22.7343C66.1074 22.7093 66.0966 22.7297 66.0966 22.7796ZM57.2573 22.8056C57.2573 22.8556 57.268 22.876 57.2812 22.8511C57.2945 22.826 57.2945 22.7852 57.2812 22.7602C57.268 22.7353 57.2573 22.7557 57.2573 22.8056ZM95.8254 22.8445C95.826 22.9017 95.8367 22.9219 95.8493 22.8897C95.8617 22.8573 95.8613 22.8106 95.8481 22.7859C95.8348 22.7611 95.8247 22.7874 95.8254 22.8445ZM18.3744 22.8575C18.3744 22.9074 18.3851 22.9278 18.3984 22.9029C18.4117 22.878 18.4117 22.8371 18.3984 22.8122C18.3851 22.7871 18.3744 22.8075 18.3744 22.8575ZM51.8905 22.8575C51.8905 22.9074 51.9012 22.9278 51.9145 22.9029C51.9277 22.878 51.9277 22.8371 51.9145 22.8122C51.9012 22.7871 51.8905 22.8075 51.8905 22.8575ZM13.0604 22.9613C13.0604 23.0112 13.0711 23.0316 13.0844 23.0067C13.0976 22.9817 13.0976 22.9409 13.0844 22.9158C13.0711 22.8909 13.0604 22.9113 13.0604 22.9613ZM38.1516 23.0715L38.1456 23.1429H34.4889H30.8319L30.8383 23.2013C30.8427 23.2452 30.8502 23.2483 30.8682 23.2142C30.891 23.1715 31.1094 23.1687 34.5205 23.1687C38.4013 23.1687 38.2491 23.1739 38.1825 23.047C38.1664 23.0164 38.1557 23.0248 38.1516 23.0715ZM104.243 23.1169C104.243 23.1669 104.253 23.1873 104.267 23.1624C104.28 23.1373 104.28 23.0965 104.267 23.0715C104.253 23.0466 104.243 23.0669 104.243 23.1169ZM9.36488 23.1429L5.70822 23.1563L9.34878 23.1625C11.7326 23.1667 13.0004 23.1599 13.0219 23.1429C13.0395 23.1286 13.0468 23.1197 13.038 23.1231C13.0291 23.1266 11.3762 23.1354 9.36488 23.1429ZM45.2985 23.1624C46.7097 23.1676 47.1737 23.1773 47.205 23.2016C47.2343 23.2241 47.2467 23.2203 47.2473 23.1882C47.2479 23.1457 47.127 23.1432 45.3408 23.149L43.4334 23.1552L45.2985 23.1624ZM51.785 23.2725C51.785 23.3225 51.7961 23.3429 51.8094 23.318C51.8223 23.2929 51.8223 23.2522 51.8094 23.2271C51.7961 23.2022 51.785 23.2226 51.785 23.2725ZM65.9388 23.4022C65.9388 23.4522 65.9495 23.4725 65.9628 23.4476C65.976 23.4227 65.976 23.3818 65.9628 23.3569C65.9495 23.3318 65.9388 23.3522 65.9388 23.4022ZM57.1004 23.4411C57.101 23.4982 57.1117 23.5185 57.1243 23.4862C57.137 23.454 57.1363 23.4073 57.1234 23.3824C57.1101 23.3577 57.0997 23.3841 57.1004 23.4411ZM43.3668 23.506C43.3668 23.556 43.3775 23.5764 43.3908 23.5515C43.4041 23.5264 43.4041 23.4856 43.3908 23.4606C43.3775 23.4357 43.3668 23.456 43.3668 23.506ZM95.6662 23.506C95.6662 23.556 95.6773 23.5764 95.6906 23.5515C95.7035 23.5264 95.7035 23.4856 95.6906 23.4606C95.6773 23.4357 95.6662 23.456 95.6662 23.506ZM104.085 23.7913C104.085 23.8413 104.096 23.8616 104.109 23.8367C104.122 23.8118 104.122 23.7709 104.109 23.746C104.096 23.7209 104.085 23.7413 104.085 23.7913ZM51.6272 23.8951C51.6272 23.9451 51.6382 23.9655 51.6515 23.9406C51.6645 23.9155 51.6645 23.8747 51.6515 23.8497C51.6382 23.8248 51.6272 23.8451 51.6272 23.8951ZM5.51659 23.8758C5.53838 23.8867 7.20049 23.8925 9.21019 23.8887L12.864 23.8822L9.17041 23.8691C7.13893 23.862 5.49449 23.8651 5.51659 23.8758ZM18.0808 23.8756C18.0944 23.8864 19.7357 23.8951 21.7283 23.8951C24.15 23.8951 25.36 23.904 25.378 23.9217C25.3929 23.9363 25.3986 23.9334 25.3913 23.9152C25.3803 23.8889 24.6251 23.8795 21.717 23.8691C19.7038 23.862 18.0676 23.8649 18.0808 23.8756ZM95.5611 23.9211C95.5611 23.9709 95.5719 23.9914 95.5851 23.9664C95.5984 23.9415 95.5984 23.9006 95.5851 23.8756C95.5719 23.8507 95.5611 23.8711 95.5611 23.9211ZM31.9107 23.8881C35.3283 23.906 37.9754 23.9063 37.9533 23.8886C37.9397 23.878 36.2789 23.8719 34.2619 23.8752C32.2453 23.8785 31.1871 23.8844 31.9107 23.8881ZM58.0509 23.9406C58.6532 23.9446 59.624 23.9446 60.208 23.9404C60.7921 23.9363 60.2993 23.9329 59.1129 23.9329C57.9262 23.9329 57.4486 23.9363 58.0509 23.9406ZM90.3522 24.0248C90.3522 24.0747 90.3629 24.0951 90.3762 24.0702C90.3895 24.0453 90.3895 24.0044 90.3762 23.9795C90.3629 23.9544 90.3522 23.9748 90.3522 24.0248ZM43.209 24.1286C43.209 24.1785 43.2197 24.1989 43.233 24.174C43.2462 24.149 43.2462 24.1082 43.233 24.0831C43.2197 24.0582 43.209 24.0786 43.209 24.1286ZM37.8959 24.1675C37.8965 24.2246 37.9072 24.2448 37.9199 24.2126C37.9322 24.1802 37.9319 24.1335 37.9186 24.1088C37.9053 24.0841 37.8952 24.1104 37.8959 24.1675ZM103.981 24.2193C103.981 24.2764 103.992 24.2967 104.005 24.2644C104.017 24.2322 104.017 24.1855 104.004 24.1606C103.99 24.1359 103.98 24.1623 103.981 24.2193ZM12.7447 24.2324C12.7447 24.2822 12.7554 24.3027 12.7687 24.2777C12.7819 24.2528 12.7819 24.2118 12.7687 24.1869C12.7554 24.162 12.7447 24.1824 12.7447 24.2324ZM116.45 24.3749C116.451 24.4321 116.462 24.4523 116.474 24.4201C116.487 24.3879 116.486 24.3412 116.474 24.3163C116.46 24.2915 116.45 24.318 116.45 24.3749ZM25.2669 24.4658C25.2669 24.5156 25.278 24.5362 25.2912 24.5111C25.3042 24.4862 25.3042 24.4453 25.2912 24.4204C25.278 24.3955 25.2669 24.4159 25.2669 24.4658ZM51.4694 24.5437C51.4694 24.5935 51.4804 24.614 51.4937 24.5889C51.5066 24.564 51.5066 24.5231 51.4937 24.4982C51.4804 24.4733 51.4694 24.4937 51.4694 24.5437ZM95.4042 24.5826C95.4049 24.6395 95.4156 24.6599 95.4282 24.6275C95.4408 24.5953 95.4405 24.5486 95.4273 24.5239C95.414 24.499 95.4039 24.5254 95.4042 24.5826ZM12.6392 24.6473C12.6392 24.6973 12.6503 24.7177 12.6635 24.6928C12.6765 24.6679 12.6765 24.6269 12.6635 24.602C12.6503 24.577 12.6392 24.5973 12.6392 24.6473ZM43.0511 24.7511C43.0511 24.8011 43.0618 24.8215 43.0751 24.7966C43.0884 24.7715 43.0884 24.7307 43.0751 24.7057C43.0618 24.6808 43.0511 24.7012 43.0511 24.7511ZM37.7368 24.7771C37.7368 24.8269 37.7478 24.8475 37.7611 24.8224C37.774 24.7975 37.774 24.7566 37.7611 24.7317C37.7478 24.7068 37.7368 24.7272 37.7368 24.7771ZM103.823 24.8678C103.823 24.925 103.834 24.9452 103.847 24.913C103.859 24.8806 103.859 24.8339 103.846 24.8092C103.833 24.7844 103.822 24.8107 103.823 24.8678ZM51.3642 24.9586C51.3642 25.0085 51.375 25.0289 51.3882 25.004C51.4015 24.9791 51.4015 24.9382 51.3882 24.9133C51.375 24.8882 51.3642 24.9086 51.3642 24.9586ZM116.292 24.9846C116.292 25.0345 116.302 25.0549 116.316 25.03C116.329 25.005 116.329 24.9642 116.316 24.9391C116.302 24.9142 116.292 24.9346 116.292 24.9846ZM25.1103 25.1273C25.111 25.1843 25.1217 25.2047 25.1343 25.1723C25.1466 25.1401 25.1463 25.0934 25.1331 25.0686C25.1198 25.0437 25.1097 25.0702 25.1103 25.1273ZM42.9457 25.1662C42.9457 25.216 42.9567 25.2366 42.97 25.2115C42.9829 25.1866 42.9829 25.1457 42.97 25.1208C42.9567 25.0959 42.9457 25.1162 42.9457 25.1662ZM12.4814 25.244C12.4814 25.2938 12.4924 25.3144 12.5057 25.2893C12.5186 25.2644 12.5186 25.2235 12.5057 25.1986C12.4924 25.1737 12.4814 25.1941 12.4814 25.244ZM95.2454 25.244C95.2454 25.2938 95.2562 25.3144 95.2694 25.2893C95.2827 25.2644 95.2827 25.2235 95.2694 25.1986C95.2562 25.1737 95.2454 25.1941 95.2454 25.244ZM37.5789 25.3737C37.5789 25.4236 37.59 25.444 37.6032 25.4191C37.6162 25.3941 37.6162 25.3533 37.6032 25.3282C37.59 25.3033 37.5789 25.3237 37.5789 25.3737ZM103.664 25.5293C103.664 25.5793 103.675 25.5997 103.688 25.5748C103.701 25.5497 103.701 25.5089 103.688 25.4839C103.675 25.459 103.664 25.4794 103.664 25.5293ZM51.2064 25.5811C51.2064 25.6311 51.2171 25.6515 51.2304 25.6266C51.2436 25.6017 51.2436 25.5608 51.2304 25.5359C51.2171 25.5108 51.2064 25.5312 51.2064 25.5811ZM63.9667 25.5701C63.77 25.6227 63.782 25.6446 63.9796 25.5942C64.0664 25.572 64.1374 25.5485 64.1374 25.5416C64.1374 25.525 64.1318 25.5259 63.9667 25.5701ZM95.1321 25.6523L95.128 25.7103L93.0627 25.7173L90.9978 25.7245L93.0646 25.7307C95.2347 25.7371 95.2521 25.7363 95.1633 25.6274C95.1485 25.6092 95.1343 25.6204 95.1321 25.6523ZM46.5806 25.672C46.5881 25.7091 46.6323 25.7248 46.7362 25.727C46.8628 25.7298 46.865 25.7288 46.752 25.719C46.6813 25.7128 46.6112 25.6881 46.5966 25.6639C46.5774 25.6323 46.573 25.6345 46.5806 25.672ZM25.7414 25.685C25.7534 25.7069 25.8298 25.7257 25.9166 25.7279C26.0489 25.7315 26.052 25.7302 25.9387 25.7189C25.8664 25.7116 25.7878 25.6923 25.7638 25.6759C25.7348 25.6558 25.7275 25.659 25.7414 25.685ZM101.573 25.7109L99.5215 25.7248L101.557 25.7309C102.871 25.7348 103.604 25.7276 103.625 25.7109C103.643 25.6966 103.65 25.6876 103.642 25.691C103.633 25.6943 102.702 25.7033 101.573 25.7109ZM0.696607 25.7288C0.747118 25.7352 0.830145 25.7352 0.880656 25.7288C0.931482 25.7223 0.889811 25.7169 0.788789 25.7169C0.687452 25.7169 0.646096 25.7223 0.696607 25.7288ZM15.9815 25.7304C17.3487 25.7341 19.586 25.7341 20.9536 25.7304C22.3209 25.7265 21.2021 25.7234 18.4675 25.7234C15.7327 25.7234 14.6139 25.7265 15.9815 25.7304ZM38.3691 25.7288C38.4199 25.7352 38.5026 25.7352 38.5535 25.7288C38.604 25.7223 38.5626 25.7169 38.4613 25.7169C38.3599 25.7169 38.3186 25.7223 38.3691 25.7288ZM51.9966 25.7288C52.0471 25.7352 52.1301 25.7352 52.1806 25.7288C52.2314 25.7223 52.1898 25.7169 52.0887 25.7169C51.9874 25.7169 51.9461 25.7223 51.9966 25.7288ZM62.9148 25.7293C62.9804 25.7354 63.0751 25.7352 63.1253 25.7287C63.1755 25.7222 63.1222 25.7172 63.0063 25.7175C62.8905 25.7178 62.8494 25.7231 62.9148 25.7293ZM79.4091 25.7288C79.4599 25.7352 79.5426 25.7352 79.5934 25.7288C79.6439 25.7223 79.6026 25.7169 79.5012 25.7169C79.3999 25.7169 79.3585 25.7223 79.4091 25.7288ZM87.4592 25.7288C87.51 25.7352 87.5927 25.7352 87.6436 25.7288C87.6941 25.7223 87.6527 25.7169 87.5514 25.7169C87.45 25.7169 87.4087 25.7223 87.4592 25.7288ZM107.506 25.7304C109.09 25.7341 111.683 25.7341 113.267 25.7304C114.851 25.7265 113.555 25.7234 110.386 25.7234C107.218 25.7234 105.922 25.7265 107.506 25.7304ZM81.8557 25.7562C82.7892 25.7603 84.3162 25.7603 85.2494 25.7562C86.1829 25.7523 85.4192 25.7491 83.5525 25.7491C81.6861 25.7491 80.9225 25.7523 81.8557 25.7562ZM33.4364 27.423L0.236328 27.4359L33.4203 27.4424C55.5004 27.4466 66.615 27.4403 66.6368 27.423C66.6548 27.4087 66.662 27.3999 66.6532 27.4034C66.644 27.4069 51.6967 27.4158 33.4364 27.423ZM85.4337 27.4424C90.9681 27.446 100.024 27.446 105.559 27.4424C111.093 27.4387 106.565 27.4357 95.4964 27.4357C84.4273 27.4357 79.899 27.4387 85.4337 27.4424Z" fill="#838689"/>
<path fill-rule="evenodd" clip-rule="evenodd" d="M65.6766 17.454C65.7274 17.4605 65.8101 17.4605 65.861 17.454C65.9115 17.4474 65.8701 17.4421 65.7688 17.4421C65.6674 17.4421 65.6261 17.4474 65.6766 17.454ZM105.039 20.7823C105.039 20.932 105.048 20.9934 105.059 20.9185C105.069 20.8436 105.069 20.721 105.059 20.6461C105.048 20.5713 105.039 20.6326 105.039 20.7823ZM111.482 23.266C112.475 23.27 114.085 23.27 115.06 23.266C116.035 23.2621 115.222 23.2588 113.254 23.2588C111.286 23.2588 110.489 23.2621 111.482 23.266ZM116.556 23.9729C116.567 23.9942 116.634 24.014 116.704 24.0166C116.805 24.0204 116.81 24.0184 116.727 24.0072C116.669 23.9992 116.602 23.9796 116.578 23.9634C116.549 23.944 116.542 23.9472 116.556 23.9729ZM89.6793 25.458L89.5246 25.5422L89.6957 25.4661C89.8551 25.3951 89.8908 25.3737 89.8501 25.3737C89.8409 25.3737 89.7642 25.4116 89.6793 25.458ZM95.47 27.5526L75.1079 27.5657L95.4539 27.5721C108.975 27.5764 115.811 27.5699 115.832 27.5526C115.85 27.5383 115.857 27.5296 115.849 27.5332C115.84 27.5366 106.669 27.5455 95.47 27.5526ZM16.8233 27.5721C25.9461 27.5756 40.8746 27.5756 49.9974 27.5721C59.1203 27.5685 51.6561 27.5655 33.4103 27.5655C15.1646 27.5655 7.70039 27.5685 16.8233 27.5721ZM74.0478 30.5357C74.0478 30.657 74.057 30.7066 74.068 30.6459C74.0791 30.5852 74.0791 30.4861 74.068 30.4254C74.057 30.3649 74.0478 30.4145 74.0478 30.5357Z" fill="#BFBCBC"/>
<path fill-rule="evenodd" clip-rule="evenodd" d="M77.529 15.0394C74.6991 15.4375 68.6142 16.1206 65.8746 16.3479C65.1946 16.4042 64.5878 16.456 64.5259 16.463C64.4035 16.4769 64.4069 16.4696 64.2712 16.9813C64.1803 17.3229 64.126 17.2969 64.9755 17.3183C67.7189 17.3874 68.4762 17.4473 68.9156 17.63C69.511 17.8775 69.4908 18.0823 68.5318 21.5476C68.4882 21.7045 68.3704 22.1421 68.2697 22.5204C68.1693 22.8984 68.0497 23.3477 68.0042 23.5189C67.9585 23.6901 67.8988 23.9149 67.8713 24.0184C67.8012 24.2831 67.7612 24.4319 67.401 25.7757C67.2248 26.432 67.0237 27.185 66.9539 27.4488C66.8838 27.7128 66.7888 28.0689 66.7427 28.2401C66.6963 28.4113 66.637 28.6331 66.6108 28.7328C66.3551 29.7051 66.2799 29.9448 66.135 30.2503C65.592 31.3935 64.6822 31.716 61.5638 31.8712C61.1171 31.8933 60.7474 31.9141 60.7427 31.9175C60.7253 31.9294 60.5078 32.7592 60.5078 32.8142V32.8704H69.2642H78.0205L78.0499 32.7989C78.0748 32.7384 78.1275 32.5418 78.2627 32.0078C78.2759 31.9543 78.2794 31.9105 78.2699 31.9105C77.1924 31.9105 75.3592 31.7126 74.7929 31.535C73.7381 31.2041 73.6305 30.8046 74.1088 28.9923C74.1539 28.8211 74.213 28.5935 74.2398 28.4865C74.2862 28.3028 74.3478 28.0764 74.5328 27.4099C74.5763 27.253 74.6335 27.0372 74.6597 26.9301C74.6862 26.8232 74.7446 26.5984 74.7897 26.4308C74.8349 26.2632 74.9087 25.9888 74.9536 25.8211C74.9984 25.6535 75.0587 25.4288 75.0874 25.3219C75.1161 25.2148 75.173 24.9989 75.214 24.8419C75.2547 24.685 75.3255 24.4223 75.3709 24.2582C75.4164 24.0942 75.4751 23.8724 75.501 23.7652C75.5272 23.6581 75.572 23.4947 75.6011 23.402C75.6301 23.3094 75.6787 23.1343 75.709 23.0131C75.7393 22.8919 75.8018 22.6526 75.8476 22.4814C76.0181 21.846 76.085 21.5945 76.1349 21.4049C76.1627 21.298 76.2208 21.0819 76.2637 20.9251C76.3515 20.604 76.4806 20.1202 76.5614 19.8096C76.5911 19.6955 76.6485 19.4854 76.6892 19.3427C76.7296 19.1999 76.8234 18.844 76.8979 18.5516C76.9721 18.259 77.0674 17.8971 77.1094 17.7474C77.1517 17.5975 77.2218 17.3407 77.2654 17.1766C77.3089 17.0126 77.3677 16.7967 77.3954 16.6968C77.4235 16.5969 77.4819 16.381 77.5255 16.217C77.5691 16.0528 77.6398 15.7902 77.683 15.6333C77.7828 15.2705 77.8387 14.9971 77.8125 15C77.8011 15.0013 77.6736 15.019 77.529 15.0394Z" fill="#EB2427"/>
<path fill-rule="evenodd" clip-rule="evenodd" d="M65.2823 17.4545C65.3476 17.4605 65.454 17.4605 65.5191 17.4545C65.5844 17.4483 65.5311 17.4431 65.4007 17.4431C65.2706 17.4431 65.2173 17.4483 65.2823 17.4545ZM69.3124 18.2532C69.3124 18.3673 69.3219 18.4109 69.3329 18.3499C69.344 18.2889 69.344 18.1955 69.3326 18.1422C69.3213 18.0892 69.3121 18.1391 69.3124 18.2532ZM91.5147 20.6267C91.5147 20.7195 91.5245 20.7575 91.5362 20.7111C91.5479 20.6647 91.5479 20.5887 91.5362 20.5424C91.5245 20.496 91.5147 20.534 91.5147 20.6267ZM66.8336 20.6527C66.8336 20.7025 66.8443 20.7231 66.8576 20.698C66.8709 20.6731 66.8709 20.6322 66.8576 20.6073C66.8443 20.5824 66.8336 20.6027 66.8336 20.6527ZM66.8336 20.912C66.8336 20.962 66.8443 20.9823 66.8576 20.9574C66.8709 20.9325 66.8709 20.8916 66.8576 20.8667C66.8443 20.8417 66.8336 20.862 66.8336 20.912ZM52.5223 21.0418C52.5223 21.0916 52.5331 21.1122 52.5463 21.0871C52.5596 21.0622 52.5596 21.0213 52.5463 20.9964C52.5331 20.9715 52.5223 20.9918 52.5223 21.0418ZM105.459 21.1196C105.465 21.1711 105.497 21.185 105.613 21.1876C105.739 21.1903 105.741 21.1893 105.629 21.1795C105.549 21.1725 105.49 21.1465 105.475 21.1115C105.454 21.0642 105.452 21.0655 105.459 21.1196ZM1.73633 21.1814C1.73633 21.187 1.8061 21.1965 1.89133 21.2027C1.97657 21.209 2.03434 21.2044 2.01982 21.1928C1.99362 21.1719 1.73633 21.1616 1.73633 21.1814ZM53.3997 21.2426L53.4385 21.3142L60.0876 21.3207C63.7446 21.3243 66.7547 21.3185 66.7765 21.3078C66.7982 21.2971 63.8102 21.2911 60.1365 21.2949C53.5464 21.3014 53.4571 21.3009 53.4571 21.251C53.4571 21.2231 53.4353 21.1939 53.4088 21.1858C53.3807 21.1772 53.3769 21.2009 53.3997 21.2426ZM78.5152 21.1893C78.5657 21.1959 78.6487 21.1959 78.6992 21.1893C78.75 21.1828 78.7084 21.1775 78.6073 21.1775C78.506 21.1775 78.4647 21.1828 78.5152 21.1893ZM13.8378 21.2578C13.8378 21.2977 13.3955 21.3014 7.90527 21.3076L1.9731 21.3143L7.90716 21.3207C14.0808 21.3274 14.0666 21.3276 13.8706 21.2309C13.8526 21.222 13.8378 21.234 13.8378 21.2578ZM92.143 21.2493C92.1619 21.2835 92.9249 21.2882 98.6055 21.2883L105.047 21.2885L98.6304 21.2818C93.5809 21.2765 92.2045 21.2681 92.1679 21.2427C92.1335 21.2188 92.1272 21.2206 92.143 21.2493ZM15.8276 21.3206C16.4444 21.3248 17.4389 21.3248 18.0374 21.3206C18.636 21.3164 18.1312 21.3131 16.9157 21.3131C15.7003 21.3131 15.2107 21.3165 15.8276 21.3206ZM33.4763 21.3206C36.9707 21.3243 42.6888 21.3243 46.1829 21.3206C49.6773 21.317 46.8184 21.3139 39.8296 21.3139C32.8412 21.3139 29.9822 21.317 33.4763 21.3206ZM82.796 21.7987C82.8108 21.8103 82.867 21.82 82.921 21.82C82.9749 21.82 83.0302 21.8404 83.0431 21.8653C83.0624 21.9012 83.0687 21.8992 83.0734 21.8553C83.0782 21.8128 83.0431 21.7973 82.9244 21.7887C82.8392 21.7825 82.7814 21.787 82.796 21.7987ZM90.8139 25.73C90.8865 25.7367 90.9629 25.7555 90.9841 25.7718C91.009 25.7911 91.0232 25.7855 91.0235 25.7563C91.0242 25.7216 90.9844 25.7118 90.8534 25.7144C90.7088 25.7175 90.7028 25.7198 90.8139 25.73ZM99.3212 25.729C99.3878 25.7354 99.4459 25.764 99.4588 25.7969C99.4771 25.8436 99.4825 25.8409 99.4885 25.7823C99.4945 25.7202 99.4768 25.7114 99.3508 25.7144C99.2318 25.7174 99.2265 25.72 99.3212 25.729ZM25.9979 25.8083L25.9919 25.8666L31.8979 25.8602L37.8041 25.8539L31.9282 25.8472C26.3884 25.8408 26.0506 25.8378 26.0282 25.7952C26.0102 25.7612 26.0026 25.7645 25.9979 25.8083ZM38.5596 25.8473C38.5817 25.8582 39.6162 25.8641 40.8588 25.8604L43.1182 25.8535L40.819 25.8406C39.5543 25.8335 38.5375 25.8366 38.5596 25.8473ZM3.83158 25.8601C5.46181 25.8638 8.11362 25.8638 9.7246 25.8601C11.3359 25.8562 10.0021 25.8531 6.76088 25.8531C3.51999 25.8531 2.20166 25.8563 3.83158 25.8601ZM16.4593 25.8601C18.0895 25.8638 20.7413 25.8638 22.3523 25.8601C23.9636 25.8562 22.6298 25.8531 19.3886 25.8531C16.1477 25.8531 14.8293 25.8563 16.4593 25.8601ZM47.972 25.8601C48.616 25.8641 49.6694 25.8641 50.3134 25.8601C50.9571 25.8559 50.4302 25.8526 49.1425 25.8526C47.8548 25.8526 47.3279 25.8559 47.972 25.8601ZM54.9699 25.8601C56.5108 25.864 59.0322 25.864 60.5734 25.8601C62.1143 25.8562 60.8535 25.8531 57.7717 25.8531C54.6896 25.8531 53.4287 25.8562 54.9699 25.8601Z" fill="#D0C9CA"/>
<path fill-rule="evenodd" clip-rule="evenodd" d="M52.5235 20.8731C52.5241 20.9303 52.5348 20.9505 52.5475 20.9183C52.5601 20.8861 52.5595 20.8394 52.5465 20.8145C52.5333 20.7897 52.5228 20.8162 52.5235 20.8731Z" fill="#BCBDC4"/>
</svg>
