<svg width="23" height="24" viewBox="0 0 23 24" fill="none" xmlns="http://www.w3.org/2000/svg">
<path d="M5.61157 6.83962C5.38883 6.71446 5.11943 6.72072 4.90224 6.85608C4.68505 6.99145 4.55206 7.23599 4.55206 7.49997V17C4.55206 17.4142 4.87385 17.75 5.27081 17.75C5.66776 17.75 5.98956 17.4142 5.98956 17V8.75563L11.1592 11.6603C11.3719 11.7799 11.628 11.7799 11.8407 11.6603L17.0104 8.75563V17C17.0104 17.4142 17.3322 17.75 17.7291 17.75C18.1261 17.75 18.4479 17.4142 18.4479 17V7.49997C18.4479 7.23599 18.3149 6.99145 18.0977 6.85608C17.8805 6.72072 17.6111 6.71446 17.3884 6.83962L11.5 10.1482L5.61157 6.83962Z" fill="#C2C8D7"/>
<path fill-rule="evenodd" clip-rule="evenodd" d="M16.5893 3.7218C13.2032 3.40588 9.79679 3.40588 6.41068 3.7218L4.95655 3.85747C3.39676 4.003 2.13648 5.24642 1.90994 6.86334C1.43269 10.2697 1.43269 13.7303 1.90994 17.1366C2.13648 18.7535 3.39676 19.9969 4.95655 20.1425L6.41068 20.2781C9.79679 20.5941 13.2032 20.5941 16.5893 20.2781L18.0434 20.1425C19.6032 19.9969 20.8635 18.7535 21.09 17.1366C21.5673 13.7303 21.5673 10.2697 21.09 6.86334C20.8635 5.24642 19.6032 4.003 18.0434 3.85747L16.5893 3.7218ZM6.53869 5.21584C9.83963 4.90787 13.1603 4.90787 16.4613 5.21584L17.9154 5.35151C18.8125 5.43521 19.5374 6.15036 19.6677 7.08033C20.1247 10.3427 20.1247 13.6572 19.6677 16.9196C19.5374 17.8496 18.8125 18.5647 17.9154 18.6484L16.4613 18.7841C13.1603 19.0921 9.83964 19.0921 6.53869 18.7841L5.08457 18.6484C4.18746 18.5647 3.46261 17.8496 3.33232 16.9196C2.87523 13.6572 2.87523 10.3427 3.33232 7.08033C3.46261 6.15036 4.18746 5.43521 5.08457 5.35151L6.53869 5.21584Z" fill="#C2C8D7"/>
</svg>
