<svg width="16" height="19" viewBox="0 0 16 19" fill="none" xmlns="http://www.w3.org/2000/svg">
<path d="M8.99973 12C8.44744 12 7.99973 12.4477 7.99973 13C7.99973 13.5523 8.44744 14 8.99973 14C9.55201 14 9.99973 13.5523 9.99973 13C9.99973 12.4477 9.55201 12 8.99973 12Z" fill="#8B93A9"/>
<path d="M5.99973 14C5.44744 14 4.99973 14.4477 4.99973 15C4.99973 15.5523 5.44744 16 5.99973 16C6.55201 16 6.99973 15.5523 6.99973 15C6.99973 14.4477 6.55201 14 5.99973 14Z" fill="#8B93A9"/>
<path fill-rule="evenodd" clip-rule="evenodd" d="M10.4929 0.250006L10.4899 0.25H5.50953L5.50657 0.250006H4.49973C4.08551 0.250006 3.74973 0.585792 3.74973 1.00001C3.74973 1.41422 4.08551 1.75001 4.49973 1.75001H4.75953V6.83701C4.75953 8.29138 4.32211 9.71214 3.50412 10.9147L0.410333 15.4629C-0.375319 16.6179 0.348912 18.194 1.73703 18.3502C5.89903 18.8184 10.1004 18.8184 14.2624 18.3502C15.6505 18.194 16.3748 16.6179 15.5891 15.4629L12.4953 10.9147C11.6773 9.71214 11.2399 8.29138 11.2399 6.83701V1.75001H11.4997C11.9139 1.75001 12.2497 1.41422 12.2497 1.00001C12.2497 0.585792 11.9139 0.250006 11.4997 0.250006H10.4929ZM1.90472 16.8596C5.95528 17.3153 10.0442 17.3153 14.0947 16.8596C14.3606 16.8297 14.4993 16.5278 14.3489 16.3065L11.2551 11.7583C11.0348 11.4345 10.8374 11.0976 10.6636 10.75H5.33583C5.16206 11.0976 4.96466 11.4345 4.74439 11.7583L1.65059 16.3065C1.50011 16.5278 1.63883 16.8297 1.90472 16.8596ZM5.92023 9.25001H10.0792C9.85536 8.46973 9.73992 7.65781 9.73992 6.83701V1.75L6.25953 1.75001V6.83701C6.25953 7.65781 6.14409 8.46973 5.92023 9.25001Z" fill="#8B93A9"/>
</svg>
