<svg width="32" height="32" viewBox="0 0 32 32" fill="none" xmlns="http://www.w3.org/2000/svg">
<g clip-path="url(#clip0_4430_313841)">
<path d="M18.668 4V9.33333C18.668 9.68695 18.8084 10.0261 19.0585 10.2761C19.3085 10.5262 19.6477 10.6667 20.0013 10.6667H25.3346" stroke="#057055" stroke-width="2.66667" stroke-linecap="round" stroke-linejoin="round"/>
<path d="M22.668 28H9.33464C8.62739 28 7.94911 27.719 7.44902 27.219C6.94892 26.7189 6.66797 26.0406 6.66797 25.3333V6.66667C6.66797 5.95942 6.94892 5.28115 7.44902 4.78105C7.94911 4.28095 8.62739 4 9.33464 4H18.668L25.3346 10.6667V25.3333C25.3346 26.0406 25.0537 26.7189 24.5536 27.219C24.0535 27.719 23.3752 28 22.668 28Z" stroke="#057055" stroke-width="2.66667" stroke-linecap="round" stroke-linejoin="round"/>
<path d="M12 22.6665H20" stroke="#057055" stroke-width="2.66667" stroke-linecap="round" stroke-linejoin="round"/>
<path d="M12 17.3335H20" stroke="#057055" stroke-width="2.66667" stroke-linecap="round" stroke-linejoin="round"/>
</g>
<defs>
<clipPath id="clip0_4430_313841">
<rect width="32" height="32" fill="white"/>
</clipPath>
</defs>
</svg>
