<svg width="21" height="21" viewBox="0 0 21 21" fill="none" xmlns="http://www.w3.org/2000/svg">
<path fill-rule="evenodd" clip-rule="evenodd" d="M13.625 10.0049C13.625 8.27899 12.2259 6.87988 10.5 6.87988C8.77411 6.87988 7.375 8.27899 7.375 10.0049C7.375 11.7308 8.77411 13.1299 10.5 13.1299C12.2259 13.1299 13.625 11.7308 13.625 10.0049ZM10.5 8.12988C11.5355 8.12988 12.375 8.96935 12.375 10.0049C12.375 11.0404 11.5355 11.8799 10.5 11.8799C9.46447 11.8799 8.625 11.0404 8.625 10.0049C8.625 8.96935 9.46447 8.12988 10.5 8.12988Z" fill="white"/>
<path fill-rule="evenodd" clip-rule="evenodd" d="M16.8971 8.87684C17.2464 9.38012 17.375 9.7738 17.375 10.0049C17.375 10.236 17.2464 10.6296 16.8971 11.1329C16.5595 11.6194 16.0577 12.1468 15.4228 12.6341C14.1502 13.6108 12.4055 14.3799 10.5 14.3799C8.59454 14.3799 6.84982 13.6108 5.57723 12.6341C4.94231 12.1468 4.44048 11.6194 4.10285 11.1329C3.75359 10.6296 3.625 10.236 3.625 10.0049C3.625 9.7738 3.75359 9.38012 4.10285 8.87684C4.44048 8.39035 4.94231 7.86298 5.57723 7.37569C6.84982 6.39898 8.59454 5.62988 10.5 5.62988C12.4055 5.62988 14.1502 6.39898 15.4228 7.37569C16.0577 7.86298 16.5595 8.39035 16.8971 8.87684ZM16.1838 6.38408C14.742 5.27745 12.7367 4.37988 10.5 4.37988C8.26332 4.37988 6.25804 5.27745 4.81617 6.38408C4.09385 6.93845 3.49734 7.55692 3.07592 8.16417C2.66614 8.75464 2.375 9.40263 2.375 10.0049C2.375 10.6071 2.66614 11.2551 3.07592 11.8456C3.49734 12.4528 4.09385 13.0713 4.81617 13.6257C6.25804 14.7323 8.26332 15.6299 10.5 15.6299C12.7367 15.6299 14.742 14.7323 16.1838 13.6257C16.9061 13.0713 17.5027 12.4528 17.9241 11.8456C18.3339 11.2551 18.625 10.6071 18.625 10.0049C18.625 9.40263 18.3339 8.75464 17.9241 8.16417C17.5027 7.55692 16.9061 6.93845 16.1838 6.38408Z" fill="white"/>
</svg>
