<svg width="12" height="14" viewBox="0 0 12 14" fill="none" xmlns="http://www.w3.org/2000/svg">
<path d="M7.35401 7.77623C7.56964 7.60373 7.88429 7.63869 8.05679 7.85432C8.2293 8.06995 8.19434 8.3846 7.97871 8.5571L6.31608 9.88721C6.23028 9.95739 6.12073 9.99962 6.00133 10L5.99971 10L5.99549 9.99998C5.87813 9.99901 5.7704 9.95761 5.68557 9.88901L4.02068 8.5571C3.80505 8.3846 3.77009 8.06995 3.94259 7.85432C4.1151 7.63869 4.42974 7.60373 4.64537 7.77623L5.49971 8.4597V6.16667C5.49971 5.89052 5.72357 5.66667 5.99971 5.66667C6.27585 5.66667 6.49971 5.89052 6.49971 6.16667V8.45967L7.35401 7.77623Z" fill="white"/>
<path fill-rule="evenodd" clip-rule="evenodd" d="M2.66634 0.5C1.65382 0.5 0.833008 1.32081 0.833008 2.33333V11.6667C0.833008 12.6792 1.65382 13.5 2.66634 13.5H9.33301C10.3455 13.5 11.1663 12.6792 11.1663 11.6667V4.46527C11.1663 4.22119 11.0898 3.98325 10.9475 3.78497L8.93869 0.986366C8.71954 0.681049 8.36673 0.5 7.9909 0.5H2.66634ZM1.83301 2.33333C1.83301 1.8731 2.2061 1.5 2.66634 1.5H7.49967V4.43136C7.49967 4.70751 7.72353 4.93136 7.99967 4.93136H10.1663V11.6667C10.1663 12.1269 9.79325 12.5 9.33301 12.5H2.66634C2.2061 12.5 1.83301 12.1269 1.83301 11.6667V2.33333Z" fill="white"/>
</svg>
