<svg width="21" height="20" viewBox="0 0 21 20" fill="none" xmlns="http://www.w3.org/2000/svg">
<path d="M8.80578 10.9703C8.53624 10.7547 8.14293 10.7984 7.9273 11.0679C7.71167 11.3374 7.75537 11.7307 8.02491 11.9464L10.1032 13.609C10.2104 13.6967 10.3474 13.7495 10.4966 13.75L10.4987 13.75L10.5039 13.75C10.6506 13.7488 10.7853 13.697 10.8913 13.6113L12.9724 11.9464C13.242 11.7307 13.2857 11.3374 13.0701 11.0679C12.8544 10.7984 12.4611 10.7547 12.1916 10.9703L11.1237 11.8246V8.95833C11.1237 8.61316 10.8438 8.33333 10.4987 8.33333C10.1535 8.33333 9.87365 8.61316 9.87365 8.95833V11.8246L8.80578 10.9703Z" fill="white"/>
<path fillRule="evenodd" clipRule="evenodd" d="M14.6654 1.875C15.931 1.875 16.957 2.90102 16.957 4.16667V15.8333C16.957 17.099 15.931 18.125 14.6654 18.125H6.33203C5.06638 18.125 4.04036 17.099 4.04036 15.8333V6.83158C4.04036 6.52648 4.13605 6.22907 4.31396 5.98121L6.82493 2.48296C7.09887 2.10131 7.53988 1.875 8.00966 1.875H14.6654ZM15.707 4.16667C15.707 3.59137 15.2407 3.125 14.6654 3.125H8.6237V6.7892C8.6237 7.13438 8.34387 7.4142 7.9987 7.4142H5.29036V15.8333C5.29036 16.4086 5.75673 16.875 6.33203 16.875H14.6654C15.2407 16.875 15.707 16.4086 15.707 15.8333V4.16667Z" fill="white"/>
</svg>
