<svg width="12" height="10" viewBox="0 0 12 10" fill="none" xmlns="http://www.w3.org/2000/svg">
<path fill-rule="evenodd" clip-rule="evenodd" d="M6.90243 2.83333H0.666748C0.390606 2.83333 0.166748 2.60948 0.166748 2.33333C0.166748 2.05719 0.390606 1.83333 0.666748 1.83333H6.90243C7.12007 1.06383 7.82756 0.5 8.66675 0.5C9.50593 0.5 10.2134 1.06383 10.4311 1.83333H11.3334C11.6096 1.83333 11.8334 2.05719 11.8334 2.33333C11.8334 2.60948 11.6096 2.83333 11.3334 2.83333H10.4311C10.2134 3.60284 9.50593 4.16667 8.66675 4.16667C7.82756 4.16667 7.12007 3.60284 6.90243 2.83333ZM7.83341 2.33333C7.83341 1.8731 8.20651 1.5 8.66675 1.5C9.12698 1.5 9.50008 1.8731 9.50008 2.33333C9.50008 2.79357 9.12698 3.16667 8.66675 3.16667C8.20651 3.16667 7.83341 2.79357 7.83341 2.33333Z" fill="white"/>
<path fill-rule="evenodd" clip-rule="evenodd" d="M5.09774 8.16667H11.3334C11.6096 8.16667 11.8334 7.94281 11.8334 7.66667C11.8334 7.39052 11.6096 7.16667 11.3334 7.16667H5.09774C4.88009 6.39716 4.1726 5.83333 3.33341 5.83333C2.49423 5.83333 1.78673 6.39716 1.56909 7.16667H0.666748C0.390606 7.16667 0.166748 7.39052 0.166748 7.66667C0.166748 7.94281 0.390606 8.16667 0.666748 8.16667H1.56909C1.78673 8.93617 2.49423 9.5 3.33341 9.5C4.1726 9.5 4.88009 8.93617 5.09774 8.16667ZM2.50008 7.66667C2.50008 7.20643 2.87318 6.83333 3.33341 6.83333C3.79365 6.83333 4.16675 7.20643 4.16675 7.66667C4.16675 8.1269 3.79365 8.5 3.33341 8.5C2.87318 8.5 2.50008 8.1269 2.50008 7.66667Z" fill="white"/>
</svg>
