<svg width="61" height="60" viewBox="0 0 61 60" fill="none" xmlns="http://www.w3.org/2000/svg">
<rect x="0.292969" width="60" height="60" rx="30" fill="#6043DD"/>
<path fill-rule="evenodd" clip-rule="evenodd" d="M29.4193 22.753C25.159 23.1909 21.8359 26.7907 21.8359 31.1666C21.8359 35.8381 25.6229 39.625 30.2943 39.625C34.6702 39.625 38.2701 36.3019 38.7079 32.0416H30.2943C29.811 32.0416 29.4193 31.6499 29.4193 31.1666V22.753ZM20.0859 31.1666C20.0859 25.5287 24.6564 20.9583 30.2943 20.9583C30.7775 20.9583 31.1693 21.3501 31.1693 21.8333V30.2916H39.6276C40.1109 30.2916 40.5026 30.6834 40.5026 31.1666C40.5026 36.8046 35.9322 41.375 30.2943 41.375C24.6564 41.375 20.0859 36.8046 20.0859 31.1666Z" fill="white"/>
<path fill-rule="evenodd" clip-rule="evenodd" d="M34.3776 21.4526V27.0833H40.0084C39.3515 24.3015 37.1594 22.1094 34.3776 21.4526ZM33.792 19.5719C38.0157 20.0975 41.3634 23.4453 41.889 27.669C41.9686 28.3084 41.4386 28.8333 40.7943 28.8333H33.2109C32.8888 28.8333 32.6276 28.5721 32.6276 28.25V20.6666C32.6276 20.0223 33.1526 19.4923 33.792 19.5719Z" fill="white"/>
</svg>
