<svg width="904" height="317" viewBox="0 0 904 317" fill="none" xmlns="http://www.w3.org/2000/svg">
<rect x="10" y="0.575439" width="894" height="309" rx="16" fill="#202449"/>
<path d="M873.802 25.4019C873.388 25.4019 873.052 25.0661 873.052 24.6519C873.052 24.2377 873.388 23.9019 873.802 23.9019L879.459 23.9019C879.874 23.9019 880.209 24.2377 880.209 24.6519L880.209 30.3088C880.209 30.723 879.874 31.0588 879.459 31.0588C879.045 31.0588 878.709 30.723 878.709 30.3088L878.709 26.4626L871.858 33.314C871.565 33.6069 871.09 33.6069 870.797 33.314C870.504 33.0211 870.504 32.5462 870.797 32.2533L877.649 25.4019L873.802 25.4019Z" fill="white"/>
<g opacity="0.9" filter="url(#filter0_d_8912_94535)">
<circle cx="392.5" cy="155.075" r="59.5" fill="url(#paint0_linear_8912_94535)"/>
<circle cx="392.5" cy="155.075" r="59.5" fill="url(#paint1_linear_8912_94535)"/>
</g>
<path d="M382.797 137.639C385.143 137.639 386.957 138.141 388.237 139.143C389.517 140.125 390.157 141.469 390.157 143.175C390.157 143.901 390.018 144.551 389.741 145.127C389.463 145.682 389.111 146.151 388.685 146.535C388.258 146.919 387.799 147.218 387.309 147.431C387.906 147.623 388.45 147.922 388.941 148.327C389.453 148.733 389.858 149.255 390.157 149.895C390.477 150.514 390.637 151.282 390.637 152.199C390.637 153.415 390.306 154.471 389.645 155.367C388.983 156.242 388.066 156.914 386.893 157.383C385.741 157.831 384.397 158.055 382.861 158.055C381.474 158.055 380.29 157.917 379.309 157.639C378.349 157.383 377.613 157.021 377.101 156.551C376.589 156.061 376.333 155.527 376.333 154.951C376.333 154.439 376.45 153.991 376.685 153.607C376.941 153.223 377.25 152.935 377.613 152.743C378.082 153.063 378.679 153.394 379.405 153.735C380.151 154.077 381.111 154.247 382.285 154.247C383.437 154.247 384.322 154.023 384.941 153.575C385.559 153.127 385.869 152.53 385.869 151.783C385.869 151.058 385.613 150.493 385.101 150.087C384.589 149.682 383.757 149.479 382.605 149.479H379.693C379.543 149.266 379.415 149.01 379.309 148.711C379.223 148.391 379.181 148.029 379.181 147.623C379.181 147.197 379.223 146.823 379.309 146.503C379.415 146.183 379.543 145.927 379.693 145.735H382.541C383.522 145.735 384.237 145.554 384.685 145.191C385.133 144.829 385.357 144.306 385.357 143.623C385.357 142.962 385.079 142.439 384.525 142.055C383.97 141.65 383.159 141.447 382.093 141.447C381.197 141.447 380.397 141.565 379.693 141.799C379.01 142.034 378.445 142.311 377.997 142.631C377.677 142.397 377.399 142.109 377.165 141.767C376.951 141.426 376.845 141.031 376.845 140.583C376.845 139.943 377.09 139.41 377.581 138.983C378.071 138.557 378.765 138.226 379.661 137.991C380.578 137.757 381.623 137.639 382.797 137.639ZM393.826 140.743C393.826 140.082 394.071 139.527 394.562 139.079C395.052 138.61 395.724 138.258 396.578 138.023C397.431 137.789 398.423 137.671 399.554 137.671C401.154 137.671 402.498 137.927 403.586 138.439C404.695 138.93 405.527 139.623 406.082 140.519C406.658 141.394 406.946 142.397 406.946 143.527C406.946 144.658 406.626 145.767 405.986 146.855C405.346 147.922 404.354 149.021 403.01 150.151L398.562 153.863H406.69C406.796 154.034 406.903 154.29 407.01 154.631C407.116 154.951 407.17 155.303 407.17 155.687C407.17 156.349 407.02 156.829 406.722 157.127C406.423 157.426 406.028 157.575 405.538 157.575H394.37C393.964 157.298 393.644 156.935 393.41 156.487C393.196 156.039 393.09 155.538 393.09 154.983C393.09 154.343 393.218 153.81 393.474 153.383C393.751 152.935 394.05 152.562 394.37 152.263L399.106 148.071C400.258 147.069 401.047 146.247 401.474 145.607C401.9 144.967 402.114 144.359 402.114 143.783C402.114 143.079 401.847 142.525 401.314 142.119C400.802 141.693 400.055 141.479 399.074 141.479C398.199 141.479 397.41 141.629 396.706 141.927C396.023 142.205 395.458 142.493 395.01 142.791C394.69 142.578 394.412 142.301 394.178 141.959C393.943 141.618 393.826 141.213 393.826 140.743Z" fill="white"/>
<path d="M368.86 175.66C368.86 175.5 368.9 175.345 368.98 175.195C369.06 175.045 369.155 174.935 369.265 174.865C369.495 174.975 369.76 175.075 370.06 175.165C370.36 175.245 370.68 175.285 371.02 175.285C371.5 175.285 371.925 175.19 372.295 175C372.675 174.81 372.975 174.52 373.195 174.13C373.415 173.73 373.52 173.225 373.51 172.615C373.4 172.715 373.245 172.82 373.045 172.93C372.855 173.04 372.63 173.135 372.37 173.215C372.11 173.295 371.815 173.335 371.485 173.335C370.905 173.335 370.375 173.23 369.895 173.02C369.425 172.81 369.05 172.485 368.77 172.045C368.49 171.605 368.35 171.05 368.35 170.38C368.35 169.77 368.485 169.23 368.755 168.76C369.035 168.29 369.425 167.925 369.925 167.665C370.435 167.395 371.03 167.26 371.71 167.26C372.45 167.26 373.09 167.425 373.63 167.755C374.18 168.085 374.605 168.585 374.905 169.255C375.215 169.925 375.37 170.76 375.37 171.76C375.37 172.93 375.195 173.885 374.845 174.625C374.495 175.365 374.01 175.91 373.39 176.26C372.77 176.61 372.05 176.785 371.23 176.785C370.54 176.785 369.97 176.69 369.52 176.5C369.08 176.31 368.86 176.03 368.86 175.66ZM371.845 171.88C372.205 171.88 372.535 171.795 372.835 171.625C373.135 171.455 373.35 171.255 373.48 171.025H373.465C373.465 170.305 373.315 169.745 373.015 169.345C372.715 168.945 372.275 168.745 371.695 168.745C371.255 168.745 370.895 168.89 370.615 169.18C370.335 169.46 370.195 169.845 370.195 170.335C370.195 170.865 370.355 171.255 370.675 171.505C370.995 171.755 371.385 171.88 371.845 171.88ZM380.361 173.89H378.501V169.225L376.791 169.915C376.651 169.845 376.521 169.74 376.401 169.6C376.291 169.46 376.236 169.275 376.236 169.045C376.236 168.605 376.501 168.29 377.031 168.1L378.936 167.35H379.356C379.666 167.35 379.911 167.44 380.091 167.62C380.271 167.8 380.361 168.05 380.361 168.37V173.89ZM378.501 172.615H380.361V176.575C380.281 176.605 380.166 176.63 380.016 176.65C379.866 176.68 379.701 176.695 379.521 176.695C379.171 176.695 378.911 176.63 378.741 176.5C378.581 176.37 378.501 176.145 378.501 175.825V172.615ZM388.884 173.455H385.479C385.429 173.365 385.384 173.26 385.344 173.14C385.304 173.01 385.284 172.87 385.284 172.72C385.284 172.46 385.349 172.27 385.479 172.15C385.619 172.02 385.794 171.955 386.004 171.955H389.409C389.449 172.035 389.489 172.14 389.529 172.27C389.579 172.4 389.604 172.535 389.604 172.675C389.604 172.935 389.539 173.13 389.409 173.26C389.279 173.39 389.104 173.455 388.884 173.455ZM397.558 173.89H395.698V169.225L393.988 169.915C393.848 169.845 393.718 169.74 393.598 169.6C393.488 169.46 393.433 169.275 393.433 169.045C393.433 168.605 393.698 168.29 394.228 168.1L396.133 167.35H396.553C396.863 167.35 397.108 167.44 397.288 167.62C397.468 167.8 397.558 168.05 397.558 168.37V173.89ZM395.698 172.615H397.558V176.575C397.478 176.605 397.363 176.63 397.213 176.65C397.063 176.68 396.898 176.695 396.718 176.695C396.368 176.695 396.108 176.63 395.938 176.5C395.778 176.37 395.698 176.145 395.698 175.825V172.615ZM401.952 171.55L402.897 171.325C403.477 171.195 403.917 171.02 404.217 170.8C404.517 170.57 404.667 170.26 404.667 169.87C404.667 169.49 404.532 169.195 404.262 168.985C403.992 168.775 403.617 168.67 403.137 168.67C402.687 168.67 402.322 168.78 402.042 169C401.772 169.22 401.637 169.51 401.637 169.87C401.637 170.17 401.717 170.415 401.877 170.605C402.037 170.785 402.252 170.93 402.522 171.04C402.802 171.14 403.107 171.21 403.437 171.25L404.502 171.64C404.872 171.73 405.227 171.875 405.567 172.075C405.907 172.275 406.182 172.54 406.392 172.87C406.612 173.2 406.722 173.62 406.722 174.13C406.722 174.69 406.572 175.17 406.272 175.57C405.972 175.97 405.552 176.275 405.012 176.485C404.482 176.695 403.857 176.8 403.137 176.8C402.427 176.8 401.802 176.695 401.262 176.485C400.732 176.265 400.317 175.955 400.017 175.555C399.727 175.155 399.582 174.675 399.582 174.115C399.582 173.605 399.697 173.175 399.927 172.825C400.157 172.475 400.452 172.195 400.812 171.985C401.182 171.765 401.562 171.62 401.952 171.55ZM404.562 171.97L403.362 172.345C402.742 172.435 402.262 172.63 401.922 172.93C401.592 173.23 401.427 173.595 401.427 174.025C401.427 174.445 401.577 174.775 401.877 175.015C402.187 175.245 402.607 175.36 403.137 175.36C403.657 175.36 404.077 175.25 404.397 175.03C404.717 174.8 404.877 174.465 404.877 174.025C404.877 173.545 404.662 173.16 404.232 172.87C403.802 172.58 403.222 172.415 402.492 172.375L401.787 172.015C401.177 171.855 400.692 171.59 400.332 171.22C399.982 170.85 399.807 170.375 399.807 169.795C399.807 169.265 399.947 168.81 400.227 168.43C400.507 168.05 400.897 167.76 401.397 167.56C401.897 167.35 402.477 167.245 403.137 167.245C404.177 167.245 404.997 167.475 405.597 167.935C406.197 168.385 406.497 169.005 406.497 169.795C406.497 170.405 406.312 170.885 405.942 171.235C405.572 171.585 405.112 171.83 404.562 171.97ZM413.734 172.015C413.734 171.265 413.649 170.65 413.479 170.17C413.319 169.69 413.094 169.335 412.804 169.105C412.524 168.875 412.194 168.76 411.814 168.76C411.454 168.76 411.129 168.88 410.839 169.12C410.549 169.35 410.324 169.705 410.164 170.185C410.004 170.665 409.924 171.275 409.924 172.015C409.924 173.095 410.089 173.91 410.419 174.46C410.749 175.01 411.214 175.285 411.814 175.285C412.424 175.285 412.894 175.01 413.224 174.46C413.564 173.91 413.734 173.095 413.734 172.015ZM411.829 176.785C411.079 176.785 410.419 176.61 409.849 176.26C409.289 175.91 408.849 175.385 408.529 174.685C408.209 173.975 408.049 173.085 408.049 172.015C408.049 170.925 408.219 170.03 408.559 169.33C408.899 168.63 409.354 168.11 409.924 167.77C410.494 167.43 411.129 167.26 411.829 167.26C412.519 167.26 413.149 167.43 413.719 167.77C414.299 168.11 414.759 168.635 415.099 169.345C415.439 170.045 415.609 170.935 415.609 172.015C415.609 173.075 415.449 173.96 415.129 174.67C414.809 175.37 414.364 175.9 413.794 176.26C413.224 176.61 412.569 176.785 411.829 176.785Z" fill="white"/>
<g opacity="0.9" filter="url(#filter1_d_8912_94535)">
<circle cx="270.5" cy="178.075" r="77.5" fill="url(#paint2_linear_8912_94535)"/>
</g>
<path d="M256.7 175.679H251.932V165.663L248.54 166.879C248.22 166.687 247.91 166.421 247.612 166.079C247.334 165.738 247.196 165.269 247.196 164.671C247.196 163.541 247.878 162.751 249.244 162.303L253.052 160.895H254.108C254.897 160.895 255.526 161.13 255.996 161.599C256.465 162.069 256.7 162.698 256.7 163.487V175.679ZM251.932 172.127H256.7V180.543C256.486 180.607 256.188 180.671 255.804 180.735C255.42 180.799 255.004 180.831 254.556 180.831C253.66 180.831 252.998 180.671 252.572 180.351C252.145 180.031 251.932 179.445 251.932 178.591V172.127ZM261.326 163.743C261.326 163.082 261.571 162.527 262.062 162.079C262.552 161.61 263.224 161.258 264.078 161.023C264.931 160.789 265.923 160.671 267.054 160.671C268.654 160.671 269.998 160.927 271.086 161.439C272.195 161.93 273.027 162.623 273.582 163.519C274.158 164.394 274.446 165.397 274.446 166.527C274.446 167.658 274.126 168.767 273.486 169.855C272.846 170.922 271.854 172.021 270.51 173.151L266.062 176.863H274.19C274.296 177.034 274.403 177.29 274.51 177.631C274.616 177.951 274.67 178.303 274.67 178.687C274.67 179.349 274.52 179.829 274.222 180.127C273.923 180.426 273.528 180.575 273.038 180.575H261.87C261.464 180.298 261.144 179.935 260.91 179.487C260.696 179.039 260.59 178.538 260.59 177.983C260.59 177.343 260.718 176.81 260.974 176.383C261.251 175.935 261.55 175.562 261.87 175.263L266.606 171.071C267.758 170.069 268.547 169.247 268.974 168.607C269.4 167.967 269.614 167.359 269.614 166.783C269.614 166.079 269.347 165.525 268.814 165.119C268.302 164.693 267.555 164.479 266.574 164.479C265.699 164.479 264.91 164.629 264.206 164.927C263.523 165.205 262.958 165.493 262.51 165.791C262.19 165.578 261.912 165.301 261.678 164.959C261.443 164.618 261.326 164.213 261.326 163.743ZM289.121 170.847C289.121 169.439 288.971 168.266 288.673 167.327C288.374 166.367 287.958 165.653 287.425 165.183C286.891 164.714 286.262 164.479 285.537 164.479C284.833 164.479 284.214 164.725 283.681 165.215C283.147 165.685 282.731 166.389 282.433 167.327C282.155 168.266 282.017 169.439 282.017 170.847C282.017 172.981 282.326 174.581 282.945 175.647C283.563 176.714 284.427 177.247 285.537 177.247C286.689 177.247 287.574 176.714 288.193 175.647C288.811 174.581 289.121 172.981 289.121 170.847ZM285.569 181.055C283.926 181.055 282.475 180.682 281.217 179.935C279.979 179.167 279.009 178.026 278.305 176.511C277.601 174.997 277.249 173.109 277.249 170.847C277.249 168.586 277.611 166.709 278.337 165.215C279.062 163.701 280.043 162.57 281.281 161.823C282.539 161.055 283.969 160.671 285.569 160.671C287.147 160.671 288.566 161.055 289.825 161.823C291.083 162.57 292.075 163.701 292.801 165.215C293.547 166.73 293.921 168.607 293.921 170.847C293.921 173.109 293.558 174.997 292.833 176.511C292.129 178.026 291.147 179.167 289.889 179.935C288.63 180.682 287.19 181.055 285.569 181.055Z" fill="white"/>
<path d="M253.325 190.245C254.365 190.245 255.18 190.47 255.77 190.92C256.37 191.36 256.67 191.985 256.67 192.795C256.67 193.165 256.6 193.485 256.46 193.755C256.32 194.025 256.14 194.25 255.92 194.43C255.71 194.6 255.505 194.72 255.305 194.79C255.575 194.88 255.83 195.02 256.07 195.21C256.32 195.4 256.52 195.645 256.67 195.945C256.83 196.245 256.91 196.61 256.91 197.04C256.91 197.63 256.755 198.13 256.445 198.54C256.145 198.94 255.73 199.245 255.2 199.455C254.67 199.665 254.055 199.77 253.355 199.77C252.735 199.77 252.205 199.71 251.765 199.59C251.325 199.47 250.985 199.31 250.745 199.11C250.505 198.9 250.385 198.67 250.385 198.42C250.385 198.22 250.435 198.045 250.535 197.895C250.635 197.745 250.76 197.63 250.91 197.55C251.14 197.71 251.435 197.87 251.795 198.03C252.155 198.19 252.62 198.27 253.19 198.27C253.77 198.27 254.225 198.155 254.555 197.925C254.895 197.685 255.065 197.345 255.065 196.905C255.065 196.505 254.915 196.19 254.615 195.96C254.325 195.72 253.88 195.6 253.28 195.6H251.96C251.9 195.52 251.85 195.42 251.81 195.3C251.77 195.17 251.75 195.025 251.75 194.865C251.75 194.705 251.77 194.56 251.81 194.43C251.85 194.3 251.9 194.195 251.96 194.115H253.22C253.79 194.115 254.195 194.01 254.435 193.8C254.685 193.59 254.81 193.305 254.81 192.945C254.81 192.565 254.66 192.27 254.36 192.06C254.07 191.85 253.65 191.745 253.1 191.745C252.66 191.745 252.27 191.805 251.93 191.925C251.59 192.045 251.31 192.185 251.09 192.345C250.96 192.265 250.845 192.155 250.745 192.015C250.655 191.865 250.61 191.7 250.61 191.52C250.61 191.26 250.725 191.04 250.955 190.86C251.185 190.67 251.505 190.52 251.915 190.41C252.325 190.3 252.795 190.245 253.325 190.245ZM261.946 196.89H260.086V192.225L258.376 192.915C258.236 192.845 258.106 192.74 257.986 192.6C257.876 192.46 257.821 192.275 257.821 192.045C257.821 191.605 258.086 191.29 258.616 191.1L260.521 190.35H260.941C261.251 190.35 261.496 190.44 261.676 190.62C261.856 190.8 261.946 191.05 261.946 191.37V196.89ZM260.086 195.615H261.946V199.575C261.866 199.605 261.751 199.63 261.601 199.65C261.451 199.68 261.286 199.695 261.106 199.695C260.756 199.695 260.496 199.63 260.326 199.5C260.166 199.37 260.086 199.145 260.086 198.825V195.615ZM270.469 196.455H267.064C267.014 196.365 266.969 196.26 266.929 196.14C266.889 196.01 266.869 195.87 266.869 195.72C266.869 195.46 266.934 195.27 267.064 195.15C267.204 195.02 267.379 194.955 267.589 194.955H270.994C271.034 195.035 271.074 195.14 271.114 195.27C271.164 195.4 271.189 195.535 271.189 195.675C271.189 195.935 271.124 196.13 270.994 196.26C270.864 196.39 270.689 196.455 270.469 196.455ZM275.963 198.66C275.963 198.5 276.003 198.345 276.083 198.195C276.163 198.045 276.258 197.935 276.368 197.865C276.598 197.975 276.863 198.075 277.163 198.165C277.463 198.245 277.783 198.285 278.123 198.285C278.603 198.285 279.028 198.19 279.398 198C279.778 197.81 280.078 197.52 280.298 197.13C280.518 196.73 280.623 196.225 280.613 195.615C280.503 195.715 280.348 195.82 280.148 195.93C279.958 196.04 279.733 196.135 279.473 196.215C279.213 196.295 278.918 196.335 278.588 196.335C278.008 196.335 277.478 196.23 276.998 196.02C276.528 195.81 276.153 195.485 275.873 195.045C275.593 194.605 275.453 194.05 275.453 193.38C275.453 192.77 275.588 192.23 275.858 191.76C276.138 191.29 276.528 190.925 277.028 190.665C277.538 190.395 278.133 190.26 278.813 190.26C279.553 190.26 280.193 190.425 280.733 190.755C281.283 191.085 281.708 191.585 282.008 192.255C282.318 192.925 282.473 193.76 282.473 194.76C282.473 195.93 282.298 196.885 281.948 197.625C281.598 198.365 281.113 198.91 280.493 199.26C279.873 199.61 279.153 199.785 278.333 199.785C277.643 199.785 277.073 199.69 276.623 199.5C276.183 199.31 275.963 199.03 275.963 198.66ZM278.948 194.88C279.308 194.88 279.638 194.795 279.938 194.625C280.238 194.455 280.453 194.255 280.583 194.025H280.568C280.568 193.305 280.418 192.745 280.118 192.345C279.818 191.945 279.378 191.745 278.798 191.745C278.358 191.745 277.998 191.89 277.718 192.18C277.438 192.46 277.298 192.845 277.298 193.335C277.298 193.865 277.458 194.255 277.778 194.505C278.098 194.755 278.488 194.88 278.948 194.88ZM289.504 195.015C289.504 194.265 289.419 193.65 289.249 193.17C289.089 192.69 288.864 192.335 288.574 192.105C288.294 191.875 287.964 191.76 287.584 191.76C287.224 191.76 286.899 191.88 286.609 192.12C286.319 192.35 286.094 192.705 285.934 193.185C285.774 193.665 285.694 194.275 285.694 195.015C285.694 196.095 285.859 196.91 286.189 197.46C286.519 198.01 286.984 198.285 287.584 198.285C288.194 198.285 288.664 198.01 288.994 197.46C289.334 196.91 289.504 196.095 289.504 195.015ZM287.599 199.785C286.849 199.785 286.189 199.61 285.619 199.26C285.059 198.91 284.619 198.385 284.299 197.685C283.979 196.975 283.819 196.085 283.819 195.015C283.819 193.925 283.989 193.03 284.329 192.33C284.669 191.63 285.124 191.11 285.694 190.77C286.264 190.43 286.899 190.26 287.599 190.26C288.289 190.26 288.919 190.43 289.489 190.77C290.069 191.11 290.529 191.635 290.869 192.345C291.209 193.045 291.379 193.935 291.379 195.015C291.379 196.075 291.219 196.96 290.899 197.67C290.579 198.37 290.134 198.9 289.564 199.26C288.994 199.61 288.339 199.785 287.599 199.785Z" fill="white"/>
<g opacity="0.9" filter="url(#filter2_d_8912_94535)">
<circle cx="535.5" cy="224.075" r="47.5" fill="url(#paint3_linear_8912_94535)"/>
</g>
<path d="M520.294 208.743C520.294 208.082 520.54 207.527 521.03 207.079C521.521 206.61 522.193 206.258 523.046 206.023C523.9 205.789 524.892 205.671 526.022 205.671C527.622 205.671 528.966 205.927 530.054 206.439C531.164 206.93 531.996 207.623 532.55 208.519C533.126 209.394 533.414 210.397 533.414 211.527C533.414 212.658 533.094 213.767 532.454 214.855C531.814 215.922 530.822 217.021 529.478 218.151L525.03 221.863H533.158C533.265 222.034 533.372 222.29 533.478 222.631C533.585 222.951 533.638 223.303 533.638 223.687C533.638 224.349 533.489 224.829 533.19 225.127C532.892 225.426 532.497 225.575 532.006 225.575H520.838C520.433 225.298 520.113 224.935 519.878 224.487C519.665 224.039 519.558 223.538 519.558 222.983C519.558 222.343 519.686 221.81 519.942 221.383C520.22 220.935 520.518 220.562 520.838 220.263L525.574 216.071C526.726 215.069 527.516 214.247 527.942 213.607C528.369 212.967 528.582 212.359 528.582 211.783C528.582 211.079 528.316 210.525 527.782 210.119C527.27 209.693 526.524 209.479 525.542 209.479C524.668 209.479 523.878 209.629 523.174 209.927C522.492 210.205 521.926 210.493 521.478 210.791C521.158 210.578 520.881 210.301 520.646 209.959C520.412 209.618 520.294 209.213 520.294 208.743ZM536.286 216.711L544.094 206.279C544.435 206.173 544.841 206.087 545.31 206.023C545.779 205.938 546.195 205.895 546.558 205.895C547.113 205.895 547.646 205.97 548.158 206.119C548.67 206.269 549.086 206.535 549.406 206.919C549.726 207.303 549.886 207.847 549.886 208.551V217.703H552.574C552.681 217.895 552.787 218.162 552.894 218.503C553.022 218.845 553.086 219.207 553.086 219.591C553.086 220.274 552.926 220.775 552.606 221.095C552.286 221.394 551.881 221.543 551.39 221.543H549.886V225.575C549.694 225.597 549.385 225.639 548.958 225.703C548.553 225.789 548.169 225.831 547.806 225.831C546.995 225.831 546.366 225.714 545.918 225.479C545.47 225.245 545.246 224.701 545.246 223.847V221.543H537.278C536.851 221.33 536.478 220.999 536.158 220.551C535.859 220.103 535.71 219.559 535.71 218.919C535.71 218.557 535.753 218.173 535.838 217.767C535.923 217.362 536.073 217.01 536.286 216.711ZM545.47 217.703L545.502 210.695H545.406L540.67 217.703H545.47Z" fill="white"/>
<path d="M525.746 240.9H519.671C519.621 240.81 519.576 240.71 519.536 240.6C519.506 240.48 519.491 240.345 519.491 240.195C519.491 239.925 519.556 239.73 519.686 239.61C519.816 239.48 519.986 239.415 520.196 239.415H526.286C526.326 239.495 526.366 239.6 526.406 239.73C526.446 239.86 526.466 240 526.466 240.15C526.466 240.41 526.401 240.6 526.271 240.72C526.141 240.84 525.966 240.9 525.746 240.9ZM523.841 237.435V243.66C523.751 243.68 523.636 243.705 523.496 243.735C523.356 243.755 523.211 243.765 523.061 243.765C522.761 243.765 522.536 243.71 522.386 243.6C522.236 243.49 522.161 243.27 522.161 242.94V236.73C522.251 236.71 522.366 236.685 522.506 236.655C522.646 236.625 522.796 236.61 522.956 236.61C523.246 236.61 523.466 236.67 523.616 236.79C523.766 236.9 523.841 237.115 523.841 237.435ZM534.402 241.89H532.542V237.225L530.832 237.915C530.692 237.845 530.562 237.74 530.442 237.6C530.332 237.46 530.277 237.275 530.277 237.045C530.277 236.605 530.542 236.29 531.072 236.1L532.977 235.35H533.397C533.707 235.35 533.952 235.44 534.132 235.62C534.312 235.8 534.402 236.05 534.402 236.37V241.89ZM532.542 240.615H534.402V244.575C534.322 244.605 534.207 244.63 534.057 244.65C533.907 244.68 533.742 244.695 533.562 244.695C533.212 244.695 532.952 244.63 532.782 244.5C532.622 244.37 532.542 244.145 532.542 243.825V240.615ZM538.796 239.55L539.741 239.325C540.321 239.195 540.761 239.02 541.061 238.8C541.361 238.57 541.511 238.26 541.511 237.87C541.511 237.49 541.376 237.195 541.106 236.985C540.836 236.775 540.461 236.67 539.981 236.67C539.531 236.67 539.166 236.78 538.886 237C538.616 237.22 538.481 237.51 538.481 237.87C538.481 238.17 538.561 238.415 538.721 238.605C538.881 238.785 539.096 238.93 539.366 239.04C539.646 239.14 539.951 239.21 540.281 239.25L541.346 239.64C541.716 239.73 542.071 239.875 542.411 240.075C542.751 240.275 543.026 240.54 543.236 240.87C543.456 241.2 543.566 241.62 543.566 242.13C543.566 242.69 543.416 243.17 543.116 243.57C542.816 243.97 542.396 244.275 541.856 244.485C541.326 244.695 540.701 244.8 539.981 244.8C539.271 244.8 538.646 244.695 538.106 244.485C537.576 244.265 537.161 243.955 536.861 243.555C536.571 243.155 536.426 242.675 536.426 242.115C536.426 241.605 536.541 241.175 536.771 240.825C537.001 240.475 537.296 240.195 537.656 239.985C538.026 239.765 538.406 239.62 538.796 239.55ZM541.406 239.97L540.206 240.345C539.586 240.435 539.106 240.63 538.766 240.93C538.436 241.23 538.271 241.595 538.271 242.025C538.271 242.445 538.421 242.775 538.721 243.015C539.031 243.245 539.451 243.36 539.981 243.36C540.501 243.36 540.921 243.25 541.241 243.03C541.561 242.8 541.721 242.465 541.721 242.025C541.721 241.545 541.506 241.16 541.076 240.87C540.646 240.58 540.066 240.415 539.336 240.375L538.631 240.015C538.021 239.855 537.536 239.59 537.176 239.22C536.826 238.85 536.651 238.375 536.651 237.795C536.651 237.265 536.791 236.81 537.071 236.43C537.351 236.05 537.741 235.76 538.241 235.56C538.741 235.35 539.321 235.245 539.981 235.245C541.021 235.245 541.841 235.475 542.441 235.935C543.041 236.385 543.341 237.005 543.341 237.795C543.341 238.405 543.156 238.885 542.786 239.235C542.416 239.585 541.956 239.83 541.406 239.97ZM550.578 240.015C550.578 239.265 550.493 238.65 550.323 238.17C550.163 237.69 549.938 237.335 549.648 237.105C549.368 236.875 549.038 236.76 548.658 236.76C548.298 236.76 547.973 236.88 547.683 237.12C547.393 237.35 547.168 237.705 547.008 238.185C546.848 238.665 546.768 239.275 546.768 240.015C546.768 241.095 546.933 241.91 547.263 242.46C547.593 243.01 548.058 243.285 548.658 243.285C549.268 243.285 549.738 243.01 550.068 242.46C550.408 241.91 550.578 241.095 550.578 240.015ZM548.673 244.785C547.923 244.785 547.263 244.61 546.693 244.26C546.133 243.91 545.693 243.385 545.373 242.685C545.053 241.975 544.893 241.085 544.893 240.015C544.893 238.925 545.063 238.03 545.403 237.33C545.743 236.63 546.198 236.11 546.768 235.77C547.338 235.43 547.973 235.26 548.673 235.26C549.363 235.26 549.993 235.43 550.563 235.77C551.143 236.11 551.603 236.635 551.943 237.345C552.283 238.045 552.453 238.935 552.453 240.015C552.453 241.075 552.293 241.96 551.973 242.67C551.653 243.37 551.208 243.9 550.638 244.26C550.068 244.61 549.413 244.785 548.673 244.785Z" fill="white"/>
<g opacity="0.9" filter="url(#filter3_d_8912_94535)">
<circle cx="149.5" cy="178.075" r="55.5" fill="url(#paint4_linear_8912_94535)"/>
</g>
<path d="M140.797 160.639C143.143 160.639 144.957 161.141 146.237 162.143C147.517 163.125 148.157 164.469 148.157 166.175C148.157 166.901 148.018 167.551 147.741 168.127C147.463 168.682 147.111 169.151 146.685 169.535C146.258 169.919 145.799 170.218 145.309 170.431C145.906 170.623 146.45 170.922 146.941 171.327C147.453 171.733 147.858 172.255 148.157 172.895C148.477 173.514 148.637 174.282 148.637 175.199C148.637 176.415 148.306 177.471 147.645 178.367C146.983 179.242 146.066 179.914 144.893 180.383C143.741 180.831 142.397 181.055 140.861 181.055C139.474 181.055 138.29 180.917 137.309 180.639C136.349 180.383 135.613 180.021 135.101 179.551C134.589 179.061 134.333 178.527 134.333 177.951C134.333 177.439 134.45 176.991 134.685 176.607C134.941 176.223 135.25 175.935 135.613 175.743C136.082 176.063 136.679 176.394 137.405 176.735C138.151 177.077 139.111 177.247 140.285 177.247C141.437 177.247 142.322 177.023 142.941 176.575C143.559 176.127 143.869 175.53 143.869 174.783C143.869 174.058 143.613 173.493 143.101 173.087C142.589 172.682 141.757 172.479 140.605 172.479H137.693C137.543 172.266 137.415 172.01 137.309 171.711C137.223 171.391 137.181 171.029 137.181 170.623C137.181 170.197 137.223 169.823 137.309 169.503C137.415 169.183 137.543 168.927 137.693 168.735H140.541C141.522 168.735 142.237 168.554 142.685 168.191C143.133 167.829 143.357 167.306 143.357 166.623C143.357 165.962 143.079 165.439 142.525 165.055C141.97 164.65 141.159 164.447 140.093 164.447C139.197 164.447 138.397 164.565 137.693 164.799C137.01 165.034 136.445 165.311 135.997 165.631C135.677 165.397 135.399 165.109 135.165 164.767C134.951 164.426 134.845 164.031 134.845 163.583C134.845 162.943 135.09 162.41 135.581 161.983C136.071 161.557 136.765 161.226 137.661 160.991C138.578 160.757 139.623 160.639 140.797 160.639ZM151.826 163.743C151.826 163.082 152.071 162.527 152.562 162.079C153.052 161.61 153.724 161.258 154.578 161.023C155.431 160.789 156.423 160.671 157.554 160.671C159.154 160.671 160.498 160.927 161.586 161.439C162.695 161.93 163.527 162.623 164.082 163.519C164.658 164.394 164.946 165.397 164.946 166.527C164.946 167.658 164.626 168.767 163.986 169.855C163.346 170.922 162.354 172.021 161.01 173.151L156.562 176.863H164.69C164.796 177.034 164.903 177.29 165.01 177.631C165.116 177.951 165.17 178.303 165.17 178.687C165.17 179.349 165.02 179.829 164.722 180.127C164.423 180.426 164.028 180.575 163.538 180.575H152.37C151.964 180.298 151.644 179.935 151.41 179.487C151.196 179.039 151.09 178.538 151.09 177.983C151.09 177.343 151.218 176.81 151.474 176.383C151.751 175.935 152.05 175.562 152.37 175.263L157.106 171.071C158.258 170.069 159.047 169.247 159.474 168.607C159.9 167.967 160.114 167.359 160.114 166.783C160.114 166.079 159.847 165.525 159.314 165.119C158.802 164.693 158.055 164.479 157.074 164.479C156.199 164.479 155.41 164.629 154.706 164.927C154.023 165.205 153.458 165.493 153.01 165.791C152.69 165.578 152.412 165.301 152.178 164.959C151.943 164.618 151.826 164.213 151.826 163.743Z" fill="white"/>
<path d="M140.972 195.015C140.972 194.265 140.887 193.65 140.717 193.17C140.557 192.69 140.332 192.335 140.042 192.105C139.762 191.875 139.432 191.76 139.052 191.76C138.692 191.76 138.367 191.88 138.077 192.12C137.787 192.35 137.562 192.705 137.402 193.185C137.242 193.665 137.162 194.275 137.162 195.015C137.162 196.095 137.327 196.91 137.657 197.46C137.987 198.01 138.452 198.285 139.052 198.285C139.662 198.285 140.132 198.01 140.462 197.46C140.802 196.91 140.972 196.095 140.972 195.015ZM139.067 199.785C138.317 199.785 137.657 199.61 137.087 199.26C136.527 198.91 136.087 198.385 135.767 197.685C135.447 196.975 135.287 196.085 135.287 195.015C135.287 193.925 135.457 193.03 135.797 192.33C136.137 191.63 136.592 191.11 137.162 190.77C137.732 190.43 138.367 190.26 139.067 190.26C139.757 190.26 140.387 190.43 140.957 190.77C141.537 191.11 141.997 191.635 142.337 192.345C142.677 193.045 142.847 193.935 142.847 195.015C142.847 196.075 142.687 196.96 142.367 197.67C142.047 198.37 141.602 198.9 141.032 199.26C140.462 199.61 139.807 199.785 139.067 199.785ZM147.748 196.455H144.343C144.293 196.365 144.248 196.26 144.208 196.14C144.168 196.01 144.148 195.87 144.148 195.72C144.148 195.46 144.213 195.27 144.343 195.15C144.483 195.02 144.658 194.955 144.868 194.955H148.273C148.313 195.035 148.353 195.14 148.393 195.27C148.443 195.4 148.468 195.535 148.468 195.675C148.468 195.935 148.403 196.13 148.273 196.26C148.143 196.39 147.968 196.455 147.748 196.455ZM152.181 190.245C153.221 190.245 154.036 190.47 154.626 190.92C155.226 191.36 155.526 191.985 155.526 192.795C155.526 193.165 155.456 193.485 155.316 193.755C155.176 194.025 154.996 194.25 154.776 194.43C154.566 194.6 154.361 194.72 154.161 194.79C154.431 194.88 154.686 195.02 154.926 195.21C155.176 195.4 155.376 195.645 155.526 195.945C155.686 196.245 155.766 196.61 155.766 197.04C155.766 197.63 155.611 198.13 155.301 198.54C155.001 198.94 154.586 199.245 154.056 199.455C153.526 199.665 152.911 199.77 152.211 199.77C151.591 199.77 151.061 199.71 150.621 199.59C150.181 199.47 149.841 199.31 149.601 199.11C149.361 198.9 149.241 198.67 149.241 198.42C149.241 198.22 149.291 198.045 149.391 197.895C149.491 197.745 149.616 197.63 149.766 197.55C149.996 197.71 150.291 197.87 150.651 198.03C151.011 198.19 151.476 198.27 152.046 198.27C152.626 198.27 153.081 198.155 153.411 197.925C153.751 197.685 153.921 197.345 153.921 196.905C153.921 196.505 153.771 196.19 153.471 195.96C153.181 195.72 152.736 195.6 152.136 195.6H150.816C150.756 195.52 150.706 195.42 150.666 195.3C150.626 195.17 150.606 195.025 150.606 194.865C150.606 194.705 150.626 194.56 150.666 194.43C150.706 194.3 150.756 194.195 150.816 194.115H152.076C152.646 194.115 153.051 194.01 153.291 193.8C153.541 193.59 153.666 193.305 153.666 192.945C153.666 192.565 153.516 192.27 153.216 192.06C152.926 191.85 152.506 191.745 151.956 191.745C151.516 191.745 151.126 191.805 150.786 191.925C150.446 192.045 150.166 192.185 149.946 192.345C149.816 192.265 149.701 192.155 149.601 192.015C149.511 191.865 149.466 191.7 149.466 191.52C149.466 191.26 149.581 191.04 149.811 190.86C150.041 190.67 150.361 190.52 150.771 190.41C151.181 190.3 151.651 190.245 152.181 190.245ZM162.842 195.015C162.842 194.265 162.757 193.65 162.587 193.17C162.427 192.69 162.202 192.335 161.912 192.105C161.632 191.875 161.302 191.76 160.922 191.76C160.562 191.76 160.237 191.88 159.947 192.12C159.657 192.35 159.432 192.705 159.272 193.185C159.112 193.665 159.032 194.275 159.032 195.015C159.032 196.095 159.197 196.91 159.527 197.46C159.857 198.01 160.322 198.285 160.922 198.285C161.532 198.285 162.002 198.01 162.332 197.46C162.672 196.91 162.842 196.095 162.842 195.015ZM160.937 199.785C160.187 199.785 159.527 199.61 158.957 199.26C158.397 198.91 157.957 198.385 157.637 197.685C157.317 196.975 157.157 196.085 157.157 195.015C157.157 193.925 157.327 193.03 157.667 192.33C158.007 191.63 158.462 191.11 159.032 190.77C159.602 190.43 160.237 190.26 160.937 190.26C161.627 190.26 162.257 190.43 162.827 190.77C163.407 191.11 163.867 191.635 164.207 192.345C164.547 193.045 164.717 193.935 164.717 195.015C164.717 196.075 164.557 196.96 164.237 197.67C163.917 198.37 163.472 198.9 162.902 199.26C162.332 199.61 161.677 199.785 160.937 199.785Z" fill="white"/>
<g clip-path="url(#clip0_8912_94535)">
<g clip-path="url(#clip1_8912_94535)">
<path d="M46.3974 38.5527H50.0454V48.6807C49.9014 48.7287 49.6694 48.7687 49.3494 48.8007C49.0294 48.8487 48.7014 48.8727 48.3654 48.8727C47.6454 48.8727 47.1334 48.7447 46.8294 48.4887C46.5414 48.2327 46.3974 47.7847 46.3974 47.1447V38.5527ZM50.0454 43.1607H46.3974V34.1127C46.5574 34.0807 46.7974 34.0407 47.1174 33.9927C47.4534 33.9447 47.7814 33.9207 48.1014 33.9207C48.7894 33.9207 49.2854 34.0407 49.5894 34.2807C49.8934 34.5207 50.0454 34.9767 50.0454 35.6487V43.1607ZM64.1795 41.2407V43.4967H60.6035V41.3607C60.6035 40.7687 60.4275 40.3367 60.0755 40.0647C59.7395 39.7767 59.2915 39.6327 58.7315 39.6327C58.3315 39.6327 57.9635 39.6887 57.6275 39.8007C57.2915 39.8967 56.9875 40.0167 56.7155 40.1607V43.4967H53.1635V39.7527C53.1635 39.3527 53.2435 39.0247 53.4035 38.7687C53.5795 38.4967 53.8275 38.2567 54.1475 38.0487C54.6595 37.6967 55.3155 37.4087 56.1155 37.1847C56.9155 36.9447 57.7955 36.8247 58.7555 36.8247C60.4835 36.8247 61.8195 37.2087 62.7635 37.9767C63.7075 38.7287 64.1795 39.8167 64.1795 41.2407ZM53.1635 42.3927H56.7155V48.6807C56.5555 48.7287 56.3315 48.7687 56.0435 48.8007C55.7555 48.8487 55.4435 48.8727 55.1075 48.8727C54.4355 48.8727 53.9395 48.7527 53.6195 48.5127C53.3155 48.2727 53.1635 47.8407 53.1635 47.2167V42.3927ZM60.6035 42.3927H64.1795V48.6807C64.0195 48.7287 63.7955 48.7687 63.5075 48.8007C63.2195 48.8487 62.9075 48.8727 62.5715 48.8727C61.8995 48.8727 61.4035 48.7527 61.0835 48.5127C60.7635 48.2727 60.6035 47.8407 60.6035 47.2167V42.3927ZM75.6875 36.9447C76.1835 36.9447 76.5915 37.0567 76.9115 37.2807C77.2475 37.4887 77.4155 37.8487 77.4155 38.3607C77.4155 38.6487 77.3355 39.0967 77.1755 39.7047C77.0155 40.3127 76.7995 41.0167 76.5275 41.8167C76.2715 42.6167 75.9835 43.4327 75.6635 44.2647C75.3435 45.0967 75.0235 45.8807 74.7035 46.6167C74.3835 47.3367 74.0955 47.9367 73.8395 48.4167C73.6635 48.5447 73.3835 48.6567 72.9995 48.7527C72.6155 48.8647 72.1915 48.9207 71.7275 48.9207C71.1835 48.9207 70.7115 48.8487 70.3115 48.7047C69.9275 48.5607 69.6555 48.3367 69.4955 48.0327C69.3195 47.6967 69.1035 47.2247 68.8475 46.6167C68.5915 46.0087 68.3195 45.3207 68.0315 44.5527C67.7435 43.7687 67.4555 42.9607 67.1675 42.1287C66.8795 41.2967 66.6155 40.4967 66.3755 39.7287C66.1355 38.9607 65.9435 38.2887 65.7995 37.7127C66.0075 37.5047 66.2715 37.3287 66.5915 37.1847C66.9275 37.0247 67.2875 36.9447 67.6715 36.9447C68.1675 36.9447 68.5755 37.0487 68.8955 37.2567C69.2155 37.4647 69.4475 37.8567 69.5915 38.4327L70.6715 42.2487C70.7995 42.6967 70.9275 43.1447 71.0555 43.5927C71.1995 44.0407 71.3275 44.4567 71.4395 44.8407C71.5515 45.2247 71.6475 45.5527 71.7275 45.8247H71.8235C72.2075 44.5287 72.5915 43.1447 72.9755 41.6727C73.3755 40.1847 73.7275 38.7367 74.0315 37.3287C74.5115 37.0727 75.0635 36.9447 75.6875 36.9447ZM80.9757 44.6247L80.8317 42.2247L86.7837 41.2887C86.7517 40.8407 86.5597 40.4247 86.2077 40.0407C85.8557 39.6567 85.3357 39.4647 84.6477 39.4647C83.9277 39.4647 83.3277 39.7127 82.8477 40.2087C82.3677 40.6887 82.1117 41.3767 82.0797 42.2727L82.1997 43.9287C82.3437 44.8087 82.7197 45.4407 83.3277 45.8247C83.9357 46.1927 84.6557 46.3767 85.4877 46.3767C86.1597 46.3767 86.7917 46.2807 87.3837 46.0887C87.9757 45.8967 88.4557 45.6967 88.8237 45.4887C89.0637 45.6327 89.2557 45.8327 89.3997 46.0887C89.5597 46.3447 89.6397 46.6167 89.6397 46.9047C89.6397 47.3847 89.4477 47.7847 89.0637 48.1047C88.6957 48.4247 88.1757 48.6647 87.5037 48.8247C86.8477 48.9847 86.0957 49.0647 85.2477 49.0647C84.0157 49.0647 82.9037 48.8327 81.9117 48.3687C80.9357 47.9047 80.1677 47.2087 79.6077 46.2807C79.0477 45.3527 78.7677 44.1927 78.7677 42.8007C78.7677 41.7767 78.9277 40.8887 79.2477 40.1367C79.5837 39.3847 80.0237 38.7687 80.5677 38.2887C81.1277 37.7927 81.7517 37.4247 82.4397 37.1847C83.1437 36.9447 83.8717 36.8247 84.6237 36.8247C85.7277 36.8247 86.6877 37.0487 87.5037 37.4967C88.3357 37.9287 88.9837 38.5207 89.4477 39.2727C89.9117 40.0247 90.1437 40.8967 90.1437 41.8887C90.1437 42.3847 90.0077 42.7607 89.7357 43.0167C89.4637 43.2727 89.0877 43.4327 88.6077 43.4967L80.9757 44.6247ZM103.344 41.2407V43.4967H99.7675V41.3607C99.7675 40.7687 99.5915 40.3367 99.2395 40.0647C98.9035 39.7767 98.4555 39.6327 97.8955 39.6327C97.4955 39.6327 97.1275 39.6887 96.7915 39.8007C96.4555 39.8967 96.1515 40.0167 95.8795 40.1607V43.4967H92.3275V39.7527C92.3275 39.3527 92.4075 39.0247 92.5675 38.7687C92.7435 38.4967 92.9915 38.2567 93.3115 38.0487C93.8235 37.6967 94.4795 37.4087 95.2795 37.1847C96.0795 36.9447 96.9595 36.8247 97.9195 36.8247C99.6475 36.8247 100.984 37.2087 101.928 37.9767C102.872 38.7287 103.344 39.8167 103.344 41.2407ZM92.3275 42.3927H95.8795V48.6807C95.7195 48.7287 95.4955 48.7687 95.2075 48.8007C94.9195 48.8487 94.6075 48.8727 94.2715 48.8727C93.5995 48.8727 93.1035 48.7527 92.7835 48.5127C92.4795 48.2727 92.3275 47.8407 92.3275 47.2167V42.3927ZM99.7675 42.3927H103.344V48.6807C103.184 48.7287 102.96 48.7687 102.672 48.8007C102.384 48.8487 102.072 48.8727 101.736 48.8727C101.064 48.8727 100.568 48.7527 100.248 48.5127C99.9275 48.2727 99.7675 47.8407 99.7675 47.2167V42.3927ZM106.156 42.3687H109.684V44.9367C109.684 45.3847 109.828 45.7127 110.116 45.9207C110.404 46.1287 110.812 46.2327 111.34 46.2327C111.58 46.2327 111.836 46.2087 112.108 46.1607C112.396 46.0967 112.636 46.0247 112.828 45.9447C112.956 46.0887 113.068 46.2647 113.164 46.4727C113.276 46.6807 113.332 46.9207 113.332 47.1927C113.332 47.7367 113.108 48.1847 112.66 48.5367C112.212 48.8887 111.46 49.0647 110.404 49.0647C109.06 49.0647 108.012 48.7607 107.26 48.1527C106.524 47.5447 106.156 46.5527 106.156 45.1767V42.3687ZM108.412 40.1847V37.4487H113.02C113.1 37.5767 113.18 37.7607 113.26 38.0007C113.34 38.2407 113.38 38.5047 113.38 38.7927C113.38 39.2727 113.268 39.6247 113.044 39.8487C112.836 40.0727 112.548 40.1847 112.18 40.1847H108.412ZM109.684 42.9687H106.156V34.3527C106.316 34.3047 106.54 34.2567 106.828 34.2087C107.116 34.1447 107.42 34.1127 107.74 34.1127C108.428 34.1127 108.924 34.2327 109.228 34.4727C109.532 34.7127 109.684 35.1527 109.684 35.7927V42.9687ZM127.007 42.9447C127.007 44.1927 126.751 45.2807 126.239 46.2087C125.743 47.1207 125.039 47.8247 124.127 48.3207C123.215 48.8167 122.143 49.0647 120.911 49.0647C119.695 49.0647 118.623 48.8247 117.695 48.3447C116.783 47.8487 116.071 47.1447 115.559 46.2327C115.063 45.3047 114.815 44.2087 114.815 42.9447C114.815 41.6807 115.071 40.6007 115.583 39.7047C116.095 38.7927 116.807 38.0887 117.719 37.5927C118.647 37.0807 119.711 36.8247 120.911 36.8247C122.127 36.8247 123.191 37.0807 124.103 37.5927C125.015 38.0887 125.727 38.8007 126.239 39.7287C126.751 40.6407 127.007 41.7127 127.007 42.9447ZM120.911 39.6327C120.159 39.6327 119.559 39.9207 119.111 40.4967C118.679 41.0727 118.463 41.8887 118.463 42.9447C118.463 44.0167 118.679 44.8407 119.111 45.4167C119.543 45.9767 120.143 46.2567 120.911 46.2567C121.679 46.2567 122.279 45.9687 122.711 45.3927C123.143 44.8167 123.359 44.0007 123.359 42.9447C123.359 41.9047 123.143 41.0967 122.711 40.5207C122.279 39.9287 121.679 39.6327 120.911 39.6327ZM132.794 40.2807V43.2807H129.242V39.8487C129.242 39.4007 129.346 39.0247 129.554 38.7207C129.778 38.4007 130.082 38.1207 130.466 37.8807C130.994 37.5607 131.626 37.3127 132.362 37.1367C133.114 36.9447 133.898 36.8487 134.714 36.8487C136.346 36.8487 137.162 37.3927 137.162 38.4807C137.162 38.7367 137.122 38.9767 137.042 39.2007C136.978 39.4247 136.898 39.6167 136.802 39.7767C136.642 39.7447 136.442 39.7207 136.202 39.7047C135.978 39.6727 135.73 39.6567 135.458 39.6567C134.978 39.6567 134.498 39.7127 134.018 39.8247C133.538 39.9367 133.13 40.0887 132.794 40.2807ZM129.242 42.3687L132.794 42.4407V48.6807C132.634 48.7287 132.41 48.7687 132.122 48.8007C131.834 48.8487 131.522 48.8727 131.186 48.8727C130.514 48.8727 130.018 48.7527 129.698 48.5127C129.394 48.2727 129.242 47.8407 129.242 47.2167V42.3687ZM141.24 45.8487C140.984 45.3207 140.704 44.6807 140.4 43.9287C140.112 43.1767 139.808 42.2887 139.488 41.2647C139.168 40.2407 138.824 39.0567 138.456 37.7127C138.664 37.5047 138.928 37.3287 139.248 37.1847C139.584 37.0247 139.944 36.9447 140.328 36.9447C140.824 36.9447 141.232 37.0487 141.552 37.2567C141.872 37.4647 142.112 37.8567 142.272 38.4327C142.64 39.6007 143.008 40.7607 143.376 41.9127C143.744 43.0647 144.12 44.2247 144.504 45.3927H144.6C144.872 44.6727 145.144 43.8567 145.416 42.9447C145.704 42.0327 145.968 41.0967 146.208 40.1367C146.448 39.1607 146.656 38.2247 146.832 37.3287C147.056 37.2167 147.296 37.1287 147.552 37.0647C147.808 36.9847 148.072 36.9447 148.344 36.9447C148.84 36.9447 149.264 37.0567 149.616 37.2807C149.984 37.4887 150.168 37.8487 150.168 38.3607C150.168 38.8087 150.096 39.3607 149.952 40.0167C149.824 40.6727 149.648 41.3847 149.424 42.1527C149.2 42.9047 148.936 43.6807 148.632 44.4807C148.328 45.2647 148.008 46.0247 147.672 46.7607C147.352 47.4967 147.024 48.1607 146.688 48.7527C145.824 50.2567 145.024 51.3767 144.288 52.1127C143.568 52.8647 142.848 53.2407 142.128 53.2407C141.552 53.2407 141.072 53.0647 140.688 52.7127C140.32 52.3607 140.096 51.9127 140.016 51.3687C140.368 51.0807 140.728 50.7447 141.096 50.3607C141.464 49.9927 141.816 49.5927 142.152 49.1607C142.488 48.7447 142.784 48.3287 143.04 47.9127C142.768 47.8327 142.488 47.6567 142.2 47.3847C141.912 47.1127 141.592 46.6007 141.24 45.8487Z" fill="white"/>
<g clip-path="url(#clip2_8912_94535)">
<g clip-path="url(#clip3_8912_94535)">
<path d="M163.836 39.6093C164.236 39.0802 165.031 39.0802 165.431 39.6093L168.563 43.7515C169.062 44.4102 168.592 45.3547 167.766 45.3547H161.5C160.674 45.3547 160.205 44.4102 160.703 43.7515L163.836 39.6093Z" fill="#5EFF5A"/>
<path d="M174.945 43.5627H172.859V39.1807L171.375 39.7127C171.235 39.6287 171.099 39.512 170.969 39.3627C170.847 39.2134 170.787 39.008 170.787 38.7467C170.787 38.252 171.085 37.9067 171.683 37.7107L173.349 37.0947H173.811C174.156 37.0947 174.431 37.1974 174.637 37.4027C174.842 37.608 174.945 37.8834 174.945 38.2287V43.5627ZM172.859 42.0087H174.945V45.6907C174.851 45.7187 174.721 45.7467 174.553 45.7747C174.385 45.8027 174.203 45.8167 174.007 45.8167C173.615 45.8167 173.325 45.7467 173.139 45.6067C172.952 45.4667 172.859 45.21 172.859 44.8367V42.0087ZM181.76 41.4487C181.76 40.8327 181.695 40.3194 181.564 39.9087C181.433 39.4887 181.251 39.176 181.018 38.9707C180.785 38.7654 180.509 38.6627 180.192 38.6627C179.884 38.6627 179.613 38.77 179.38 38.9847C179.147 39.19 178.965 39.498 178.834 39.9087C178.713 40.3194 178.652 40.8327 178.652 41.4487C178.652 42.382 178.787 43.082 179.058 43.5487C179.329 44.0154 179.707 44.2487 180.192 44.2487C180.696 44.2487 181.083 44.0154 181.354 43.5487C181.625 43.082 181.76 42.382 181.76 41.4487ZM180.206 45.9147C179.487 45.9147 178.853 45.7514 178.302 45.4247C177.761 45.0887 177.336 44.5894 177.028 43.9267C176.72 43.264 176.566 42.438 176.566 41.4487C176.566 40.4594 176.725 39.638 177.042 38.9847C177.359 38.322 177.789 37.8274 178.33 37.5007C178.881 37.1647 179.506 36.9967 180.206 36.9967C180.897 36.9967 181.517 37.1647 182.068 37.5007C182.619 37.8274 183.053 38.322 183.37 38.9847C183.697 39.6474 183.86 40.4687 183.86 41.4487C183.86 42.438 183.701 43.264 183.384 43.9267C183.076 44.5894 182.647 45.0887 182.096 45.4247C181.545 45.7514 180.915 45.9147 180.206 45.9147ZM189.258 39.2367C189.258 39.9087 189.053 40.4407 188.642 40.8327C188.232 41.2154 187.709 41.4067 187.074 41.4067C186.44 41.4067 185.917 41.2154 185.506 40.8327C185.096 40.4407 184.89 39.9087 184.89 39.2367C184.89 38.5647 185.096 38.0374 185.506 37.6547C185.917 37.272 186.44 37.0807 187.074 37.0807C187.709 37.0807 188.232 37.272 188.642 37.6547C189.053 38.0374 189.258 38.5647 189.258 39.2367ZM186.416 39.2367C186.416 39.5354 186.477 39.764 186.598 39.9227C186.729 40.072 186.888 40.1467 187.074 40.1467C187.261 40.1467 187.415 40.072 187.536 39.9227C187.667 39.764 187.732 39.5354 187.732 39.2367C187.732 38.9474 187.667 38.728 187.536 38.5787C187.415 38.4294 187.261 38.3547 187.074 38.3547C186.888 38.3547 186.729 38.4294 186.598 38.5787C186.477 38.728 186.416 38.9474 186.416 39.2367ZM187.116 44.2627L192.03 37.0667C192.32 37.1134 192.576 37.1927 192.8 37.3047C193.034 37.4167 193.15 37.5707 193.15 37.7667C193.15 37.9067 193.113 38.0467 193.038 38.1867C192.973 38.3267 192.889 38.4714 192.786 38.6207L187.872 45.8027C187.546 45.7747 187.275 45.7 187.06 45.5787C186.855 45.448 186.752 45.2894 186.752 45.1027C186.752 44.972 186.785 44.8367 186.85 44.6967C186.916 44.5567 187.004 44.412 187.116 44.2627ZM195.012 43.6467C195.012 44.3187 194.807 44.8507 194.396 45.2427C193.986 45.6254 193.463 45.8167 192.828 45.8167C192.194 45.8167 191.666 45.6254 191.246 45.2427C190.836 44.8507 190.63 44.3187 190.63 43.6467C190.63 42.9747 190.836 42.4474 191.246 42.0647C191.666 41.682 192.194 41.4907 192.828 41.4907C193.463 41.4907 193.986 41.682 194.396 42.0647C194.807 42.4474 195.012 42.9747 195.012 43.6467ZM192.156 43.6467C192.156 43.9454 192.217 44.174 192.338 44.3327C192.469 44.482 192.632 44.5567 192.828 44.5567C193.015 44.5567 193.169 44.482 193.29 44.3327C193.421 44.174 193.486 43.9454 193.486 43.6467C193.486 43.3574 193.421 43.138 193.29 42.9887C193.169 42.8394 193.015 42.7647 192.828 42.7647C192.632 42.7647 192.469 42.8394 192.338 42.9887C192.217 43.138 192.156 43.3574 192.156 43.6467Z" fill="#5EFF5A"/>
</g>
</g>
</g>
<path opacity="0.6" d="M52.2623 74.7047L51.0426 71.5606H47.0718L45.8589 74.7047H44.6934L48.5693 64.7573H49.6061L53.4549 74.7047H52.2623ZM50.697 70.5374L49.5383 67.4136C49.5112 67.3323 49.466 67.199 49.4028 67.0138C49.3441 66.8286 49.2831 66.6366 49.2198 66.4378C49.1566 66.239 49.1046 66.0787 49.064 65.9567C49.0188 66.1419 48.9691 66.3271 48.9149 66.5123C48.8652 66.693 48.8155 66.8625 48.7658 67.0206C48.7161 67.1742 48.6732 67.3052 48.6371 67.4136L47.458 70.5374H50.697ZM57.1972 78.0386C56.2214 78.0386 55.4692 77.8556 54.9407 77.4897C54.4122 77.1283 54.1479 76.6201 54.1479 75.9651C54.1479 75.4998 54.2947 75.1022 54.5883 74.7725C54.8865 74.4427 55.2976 74.2236 55.8216 74.1152C55.6274 74.0248 55.4602 73.8893 55.3202 73.7086C55.1846 73.5279 55.1169 73.3201 55.1169 73.0852C55.1169 72.8142 55.1914 72.577 55.3405 72.3737C55.4941 72.1659 55.7267 71.9671 56.0384 71.7774C55.6499 71.6193 55.3337 71.3528 55.0898 70.9778C54.8504 70.5984 54.7306 70.1579 54.7306 69.6565C54.7306 69.1234 54.8413 68.6694 55.0627 68.2945C55.284 67.915 55.6048 67.6259 56.0249 67.4271C56.445 67.2284 56.9532 67.129 57.5495 67.129C57.6805 67.129 57.8115 67.1358 57.9425 67.1493C58.0781 67.1583 58.2068 67.1742 58.3288 67.1967C58.4507 67.2148 58.5569 67.2374 58.6473 67.2645H61.1951V67.9895L59.8263 68.159C59.9618 68.3351 60.0748 68.5475 60.1651 68.7959C60.2555 69.0444 60.3006 69.3199 60.3006 69.6226C60.3006 70.3635 60.0499 70.953 59.5485 71.3912C59.047 71.8248 58.3581 72.0417 57.4818 72.0417C57.274 72.0417 57.0616 72.0236 56.8448 71.9875C56.6234 72.1094 56.454 72.245 56.3366 72.394C56.2237 72.5431 56.1672 72.7148 56.1672 72.909C56.1672 73.0536 56.2101 73.1688 56.2959 73.2546C56.3863 73.3404 56.515 73.4037 56.6822 73.4443C56.8493 73.4805 57.0503 73.4986 57.2852 73.4986H58.593C59.4017 73.4986 60.0206 73.668 60.4497 74.0068C60.8834 74.3456 61.1002 74.8402 61.1002 75.4907C61.1002 76.3129 60.7659 76.9431 60.0973 77.3813C59.4288 77.8195 58.462 78.0386 57.1972 78.0386ZM57.231 77.1577C57.8454 77.1577 58.3536 77.0944 58.7557 76.9679C59.1622 76.846 59.4649 76.6675 59.6637 76.4326C59.867 76.2022 59.9686 75.9267 59.9686 75.6059C59.9686 75.3078 59.9008 75.0819 59.7653 74.9283C59.6298 74.7792 59.431 74.6799 59.169 74.6302C58.907 74.576 58.5863 74.5489 58.2068 74.5489H56.9193C56.585 74.5489 56.2937 74.6008 56.0452 74.7047C55.7968 74.8086 55.6048 74.9622 55.4692 75.1655C55.3382 75.3688 55.2727 75.6218 55.2727 75.9244C55.2727 76.3265 55.4421 76.6314 55.7809 76.8392C56.1198 77.0515 56.6031 77.1577 57.231 77.1577ZM57.5224 71.2218C58.06 71.2218 58.4643 71.0862 58.7353 70.8152C59.0064 70.5442 59.1419 70.1489 59.1419 69.6294C59.1419 69.0737 59.0041 68.6581 58.7286 68.3826C58.453 68.1025 58.0464 67.9624 57.5089 67.9624C56.9939 67.9624 56.5963 68.107 56.3163 68.3961C56.0407 68.6807 55.9029 69.0986 55.9029 69.6497C55.9029 70.1557 56.043 70.5442 56.323 70.8152C56.6031 71.0862 57.0029 71.2218 57.5224 71.2218ZM64.2462 67.2781V74.7047H63.1213V67.2781H64.2462ZM63.6973 64.4998C63.8825 64.4998 64.0406 64.5608 64.1716 64.6828C64.3071 64.8002 64.3749 64.9855 64.3749 65.2384C64.3749 65.4869 64.3071 65.6721 64.1716 65.7941C64.0406 65.916 63.8825 65.977 63.6973 65.977C63.503 65.977 63.3404 65.916 63.2094 65.7941C63.0829 65.6721 63.0197 65.4869 63.0197 65.2384C63.0197 64.9855 63.0829 64.8002 63.2094 64.6828C63.3404 64.5608 63.503 64.4998 63.6973 64.4998ZM70.6108 67.1425C71.4917 67.1425 72.158 67.3594 72.6097 67.793C73.0615 68.2222 73.2873 68.9134 73.2873 69.8665V74.7047H72.1761V69.9411C72.1761 69.3222 72.0338 68.8592 71.7492 68.552C71.4691 68.2448 71.0377 68.0912 70.4549 68.0912C69.6327 68.0912 69.0545 68.3238 68.7202 68.7891C68.3859 69.2544 68.2188 69.9298 68.2188 70.8152V74.7047H67.0939V67.2781H68.002L68.1714 68.3487H68.2323C68.3904 68.0867 68.5915 67.8676 68.8354 67.6914C69.0794 67.5107 69.3527 67.3752 69.6553 67.2848C69.958 67.19 70.2765 67.1425 70.6108 67.1425ZM78.1409 78.0386C77.1651 78.0386 76.413 77.8556 75.8844 77.4897C75.3559 77.1283 75.0916 76.6201 75.0916 75.9651C75.0916 75.4998 75.2384 75.1022 75.5321 74.7725C75.8302 74.4427 76.2413 74.2236 76.7653 74.1152C76.5711 74.0248 76.4039 73.8893 76.2639 73.7086C76.1284 73.5279 76.0606 73.3201 76.0606 73.0852C76.0606 72.8142 76.1351 72.577 76.2842 72.3737C76.4378 72.1659 76.6705 71.9671 76.9822 71.7774C76.5937 71.6193 76.2774 71.3528 76.0335 70.9778C75.7941 70.5984 75.6744 70.1579 75.6744 69.6565C75.6744 69.1234 75.785 68.6694 76.0064 68.2945C76.2277 67.915 76.5485 67.6259 76.9686 67.4271C77.3887 67.2284 77.8969 67.129 78.4932 67.129C78.6242 67.129 78.7552 67.1358 78.8863 67.1493C79.0218 67.1583 79.1505 67.1742 79.2725 67.1967C79.3945 67.2148 79.5006 67.2374 79.591 67.2645H82.1388V67.9895L80.77 68.159C80.9055 68.3351 81.0185 68.5475 81.1088 68.7959C81.1992 69.0444 81.2444 69.3199 81.2444 69.6226C81.2444 70.3635 80.9936 70.953 80.4922 71.3912C79.9908 71.8248 79.3019 72.0417 78.4255 72.0417C78.2177 72.0417 78.0054 72.0236 77.7885 71.9875C77.5672 72.1094 77.3978 72.245 77.2803 72.394C77.1674 72.5431 77.1109 72.7148 77.1109 72.909C77.1109 73.0536 77.1538 73.1688 77.2396 73.2546C77.33 73.3404 77.4587 73.4037 77.6259 73.4443C77.793 73.4805 77.9941 73.4986 78.229 73.4986H79.5368C80.3454 73.4986 80.9643 73.668 81.3934 74.0068C81.8271 74.3456 82.0439 74.8402 82.0439 75.4907C82.0439 76.3129 81.7096 76.9431 81.0411 77.3813C80.3725 77.8195 79.4058 78.0386 78.1409 78.0386ZM78.1748 77.1577C78.7891 77.1577 79.2973 77.0944 79.6994 76.9679C80.106 76.846 80.4086 76.6675 80.6074 76.4326C80.8107 76.2022 80.9123 75.9267 80.9123 75.6059C80.9123 75.3078 80.8446 75.0819 80.709 74.9283C80.5735 74.7792 80.3747 74.6799 80.1127 74.6302C79.8507 74.576 79.53 74.5489 79.1505 74.5489H77.8631C77.5288 74.5489 77.2374 74.6008 76.9889 74.7047C76.7405 74.8086 76.5485 74.9622 76.413 75.1655C76.282 75.3688 76.2164 75.6218 76.2164 75.9244C76.2164 76.3265 76.3859 76.6314 76.7247 76.8392C77.0635 77.0515 77.5468 77.1577 78.1748 77.1577ZM78.4661 71.2218C79.0037 71.2218 79.408 71.0862 79.6791 70.8152C79.9501 70.5442 80.0856 70.1489 80.0856 69.6294C80.0856 69.0737 79.9478 68.6581 79.6723 68.3826C79.3967 68.1025 78.9902 67.9624 78.4526 67.9624C77.9376 67.9624 77.5401 68.107 77.26 68.3961C76.9844 68.6807 76.8466 69.0986 76.8466 69.6497C76.8466 70.1557 76.9867 70.5442 77.2668 70.8152C77.5468 71.0862 77.9466 71.2218 78.4661 71.2218ZM94.5157 74.7047L93.296 71.5606H89.3251L88.1122 74.7047H86.9467L90.8227 64.7573H91.8594L95.7083 74.7047H94.5157ZM92.9504 70.5374L91.7917 67.4136C91.7645 67.3323 91.7194 67.199 91.6561 67.0138C91.5974 66.8286 91.5364 66.6366 91.4732 66.4378C91.4099 66.239 91.358 66.0787 91.3173 65.9567C91.2721 66.1419 91.2225 66.3271 91.1682 66.5123C91.1186 66.693 91.0689 66.8625 91.0192 67.0206C90.9695 67.1742 90.9266 67.3052 90.8904 67.4136L89.7114 70.5374H92.9504ZM100.894 67.1425C101.775 67.1425 102.441 67.3594 102.893 67.793C103.345 68.2222 103.57 68.9134 103.57 69.8665V74.7047H102.459V69.9411C102.459 69.3222 102.317 68.8592 102.032 68.552C101.752 68.2448 101.321 68.0912 100.738 68.0912C99.9158 68.0912 99.3376 68.3238 99.0033 68.7891C98.669 69.2544 98.5018 69.9298 98.5018 70.8152V74.7047H97.377V67.2781H98.285L98.4544 68.3487H98.5154C98.6735 68.0867 98.8745 67.8676 99.1185 67.6914C99.3624 67.5107 99.6357 67.3752 99.9384 67.2848C100.241 67.19 100.56 67.1425 100.894 67.1425ZM109.129 67.1561C110.014 67.1561 110.671 67.3549 111.101 67.7524C111.53 68.1499 111.744 68.7846 111.744 69.6565V74.7047H110.924L110.707 73.607H110.653C110.445 73.878 110.229 74.1062 110.003 74.2914C109.777 74.4721 109.515 74.6098 109.217 74.7047C108.923 74.7951 108.562 74.8402 108.133 74.8402C107.681 74.8402 107.279 74.7612 106.926 74.6031C106.579 74.445 106.303 74.2055 106.1 73.8848C105.901 73.5641 105.802 73.1575 105.802 72.6651C105.802 71.9242 106.095 71.355 106.682 70.9575C107.27 70.56 108.164 70.3431 109.366 70.307L110.647 70.2528V69.7988C110.647 69.1573 110.509 68.7078 110.233 68.4503C109.958 68.1928 109.569 68.0641 109.068 68.0641C108.679 68.0641 108.309 68.1206 107.956 68.2335C107.604 68.3464 107.27 68.4797 106.954 68.6333L106.608 67.7795C106.942 67.6078 107.326 67.461 107.76 67.339C108.194 67.2171 108.65 67.1561 109.129 67.1561ZM110.633 71.0456L109.501 71.093C108.575 71.1292 107.922 71.2805 107.543 71.547C107.164 71.8136 106.974 72.1908 106.974 72.6786C106.974 73.1033 107.103 73.4172 107.36 73.6205C107.618 73.8238 107.959 73.9255 108.383 73.9255C109.043 73.9255 109.583 73.7425 110.003 73.3766C110.423 73.0107 110.633 72.4618 110.633 71.73V71.0456ZM115.656 74.7047H114.524V64.161H115.656V74.7047ZM117.325 67.2781H118.531L120.171 71.5877C120.265 71.8407 120.354 72.0846 120.435 72.3195C120.516 72.5499 120.588 72.7713 120.652 72.9836C120.715 73.1959 120.765 73.4014 120.801 73.6002H120.848C120.911 73.3743 121.002 73.0784 121.119 72.7125C121.237 72.3421 121.363 71.9649 121.499 71.5809L123.05 67.2781H124.263L121.031 75.7957C120.86 76.2519 120.658 76.6495 120.428 76.9883C120.202 77.3271 119.927 77.5868 119.601 77.7675C119.276 77.9527 118.883 78.0454 118.422 78.0454C118.21 78.0454 118.023 78.0318 117.86 78.0047C117.697 77.9821 117.557 77.955 117.44 77.9234V77.0222C117.539 77.0447 117.659 77.0651 117.799 77.0831C117.944 77.1012 118.093 77.1102 118.246 77.1102C118.526 77.1102 118.768 77.056 118.971 76.9476C119.179 76.8437 119.357 76.6901 119.507 76.4868C119.656 76.2836 119.784 76.0419 119.893 75.7618L120.299 74.7183L117.325 67.2781ZM130.716 72.6719C130.716 73.1462 130.596 73.546 130.357 73.8712C130.122 74.192 129.783 74.4337 129.341 74.5963C128.902 74.7589 128.378 74.8402 127.768 74.8402C127.249 74.8402 126.799 74.7996 126.42 74.7183C126.041 74.637 125.709 74.5218 125.424 74.3727V73.3359C125.727 73.485 126.088 73.6205 126.508 73.7425C126.928 73.8645 127.357 73.9255 127.796 73.9255C128.437 73.9255 128.902 73.8216 129.191 73.6138C129.481 73.406 129.625 73.1236 129.625 72.7667C129.625 72.5634 129.566 72.385 129.449 72.2314C129.336 72.0733 129.144 71.922 128.873 71.7774C128.602 71.6283 128.227 71.4657 127.748 71.2895C127.274 71.1088 126.863 70.9304 126.515 70.7542C126.172 70.5735 125.905 70.3544 125.715 70.0969C125.53 69.8394 125.437 69.5051 125.437 69.0941C125.437 68.4661 125.69 67.985 126.196 67.6507C126.707 67.3119 127.375 67.1425 128.202 67.1425C128.649 67.1425 129.067 67.1877 129.456 67.2781C129.849 67.3639 130.215 67.4813 130.553 67.6304L130.174 68.5316C129.867 68.4006 129.539 68.29 129.191 68.1996C128.844 68.1093 128.489 68.0641 128.128 68.0641C127.608 68.0641 127.208 68.1499 126.928 68.3216C126.653 68.4932 126.515 68.7281 126.515 69.0263C126.515 69.2567 126.578 69.4464 126.705 69.5955C126.836 69.7446 127.043 69.8846 127.328 70.0156C127.613 70.1466 127.988 70.3002 128.453 70.4764C128.918 70.6481 129.32 70.8265 129.659 71.0117C129.998 71.1924 130.258 71.4138 130.438 71.6758C130.623 71.9333 130.716 72.2653 130.716 72.6719ZM134.113 67.2781V74.7047H132.988V67.2781H134.113ZM133.564 64.4998C133.749 64.4998 133.907 64.5608 134.038 64.6828C134.174 64.8002 134.242 64.9855 134.242 65.2384C134.242 65.4869 134.174 65.6721 134.038 65.7941C133.907 65.916 133.749 65.977 133.564 65.977C133.37 65.977 133.207 65.916 133.076 65.7941C132.95 65.6721 132.886 65.4869 132.886 65.2384C132.886 64.9855 132.95 64.8002 133.076 64.6828C133.207 64.5608 133.37 64.4998 133.564 64.4998ZM141.765 72.6719C141.765 73.1462 141.645 73.546 141.406 73.8712C141.171 74.192 140.832 74.4337 140.389 74.5963C139.951 74.7589 139.427 74.8402 138.817 74.8402C138.298 74.8402 137.848 74.7996 137.469 74.7183C137.089 74.637 136.757 74.5218 136.473 74.3727V73.3359C136.775 73.485 137.137 73.6205 137.557 73.7425C137.977 73.8645 138.406 73.9255 138.844 73.9255C139.486 73.9255 139.951 73.8216 140.24 73.6138C140.529 73.406 140.674 73.1236 140.674 72.7667C140.674 72.5634 140.615 72.385 140.498 72.2314C140.385 72.0733 140.193 71.922 139.922 71.7774C139.651 71.6283 139.276 71.4657 138.797 71.2895C138.323 71.1088 137.911 70.9304 137.564 70.7542C137.22 70.5735 136.954 70.3544 136.764 70.0969C136.579 69.8394 136.486 69.5051 136.486 69.0941C136.486 68.4661 136.739 67.985 137.245 67.6507C137.756 67.3119 138.424 67.1425 139.251 67.1425C139.698 67.1425 140.116 67.1877 140.504 67.2781C140.897 67.3639 141.263 67.4813 141.602 67.6304L141.223 68.5316C140.916 68.4006 140.588 68.29 140.24 68.1996C139.892 68.1093 139.538 68.0641 139.176 68.0641C138.657 68.0641 138.257 68.1499 137.977 68.3216C137.701 68.4932 137.564 68.7281 137.564 69.0263C137.564 69.2567 137.627 69.4464 137.753 69.5955C137.884 69.7446 138.092 69.8846 138.377 70.0156C138.661 70.1466 139.036 70.3002 139.502 70.4764C139.967 70.6481 140.369 70.8265 140.708 71.0117C141.047 71.1924 141.306 71.4138 141.487 71.6758C141.672 71.9333 141.765 72.2653 141.765 72.6719Z" fill="white"/>
</g>
<circle cx="327" cy="83.5754" r="15" fill="#505A78"/>
<circle cx="186" cy="262.575" r="15" fill="#505A78"/>
<defs>
<filter id="filter0_d_8912_94535" x="232.789" y="27.9333" width="319.421" height="319.421" filterUnits="userSpaceOnUse" color-interpolation-filters="sRGB">
<feFlood flood-opacity="0" result="BackgroundImageFix"/>
<feColorMatrix in="SourceAlpha" type="matrix" values="0 0 0 0 0 0 0 0 0 0 0 0 0 0 0 0 0 0 127 0" result="hardAlpha"/>
<feOffset dy="32.5684"/>
<feGaussianBlur stdDeviation="50.1053"/>
<feColorMatrix type="matrix" values="0 0 0 0 0.909804 0 0 0 0 0.278431 0 0 0 0 0.657255 0 0 0 0.51 0"/>
<feBlend mode="normal" in2="BackgroundImageFix" result="effect1_dropShadow_8912_94535"/>
<feBlend mode="normal" in="SourceGraphic" in2="effect1_dropShadow_8912_94535" result="shape"/>
</filter>
<filter id="filter1_d_8912_94535" x="62.4737" y="12.4702" width="416.053" height="416.053" filterUnits="userSpaceOnUse" color-interpolation-filters="sRGB">
<feFlood flood-opacity="0" result="BackgroundImageFix"/>
<feColorMatrix in="SourceAlpha" type="matrix" values="0 0 0 0 0 0 0 0 0 0 0 0 0 0 0 0 0 0 127 0" result="hardAlpha"/>
<feOffset dy="42.4211"/>
<feGaussianBlur stdDeviation="65.2632"/>
<feColorMatrix type="matrix" values="0 0 0 0 0.909804 0 0 0 0 0.808784 0 0 0 0 0.278431 0 0 0 0.51 0"/>
<feBlend mode="normal" in2="BackgroundImageFix" result="effect1_dropShadow_8912_94535"/>
<feBlend mode="normal" in="SourceGraphic" in2="effect1_dropShadow_8912_94535" result="shape"/>
</filter>
<filter id="filter2_d_8912_94535" x="408" y="122.575" width="255" height="255" filterUnits="userSpaceOnUse" color-interpolation-filters="sRGB">
<feFlood flood-opacity="0" result="BackgroundImageFix"/>
<feColorMatrix in="SourceAlpha" type="matrix" values="0 0 0 0 0 0 0 0 0 0 0 0 0 0 0 0 0 0 127 0" result="hardAlpha"/>
<feOffset dy="26"/>
<feGaussianBlur stdDeviation="40"/>
<feColorMatrix type="matrix" values="0 0 0 0 0.909804 0 0 0 0 0.278431 0 0 0 0 0.360784 0 0 0 0.51 0"/>
<feBlend mode="normal" in2="BackgroundImageFix" result="effect1_dropShadow_8912_94535"/>
<feBlend mode="normal" in="SourceGraphic" in2="effect1_dropShadow_8912_94535" result="shape"/>
</filter>
<filter id="filter3_d_8912_94535" x="0.526321" y="59.4807" width="297.947" height="297.947" filterUnits="userSpaceOnUse" color-interpolation-filters="sRGB">
<feFlood flood-opacity="0" result="BackgroundImageFix"/>
<feColorMatrix in="SourceAlpha" type="matrix" values="0 0 0 0 0 0 0 0 0 0 0 0 0 0 0 0 0 0 127 0" result="hardAlpha"/>
<feOffset dy="30.3789"/>
<feGaussianBlur stdDeviation="46.7368"/>
<feColorMatrix type="matrix" values="0 0 0 0 0.301961 0 0 0 0 1 0 0 0 0 0.874353 0 0 0 0.31 0"/>
<feBlend mode="normal" in2="BackgroundImageFix" result="effect1_dropShadow_8912_94535"/>
<feBlend mode="normal" in="SourceGraphic" in2="effect1_dropShadow_8912_94535" result="shape"/>
</filter>
<linearGradient id="paint0_linear_8912_94535" x1="447.616" y1="195.786" x2="341.142" y2="95.5754" gradientUnits="userSpaceOnUse">
<stop stop-color="#F4223D"/>
<stop offset="1" stop-color="#F46D22"/>
</linearGradient>
<linearGradient id="paint1_linear_8912_94535" x1="343.412" y1="93.0963" x2="433.158" y2="214.575" gradientUnits="userSpaceOnUse">
<stop stop-color="#FF7B85"/>
<stop offset="1" stop-color="#FF3C4A"/>
</linearGradient>
<linearGradient id="paint2_linear_8912_94535" x1="220" y1="91.4578" x2="304.747" y2="260.78" gradientUnits="userSpaceOnUse">
<stop stop-color="#FFD81F"/>
<stop offset="1" stop-color="#FFC01F"/>
</linearGradient>
<linearGradient id="paint3_linear_8912_94535" x1="579.5" y1="256.575" x2="494.5" y2="176.575" gradientUnits="userSpaceOnUse">
<stop stop-color="#F4223D"/>
<stop offset="1" stop-color="#F46D22"/>
</linearGradient>
<linearGradient id="paint4_linear_8912_94535" x1="113" y1="130.144" x2="168.273" y2="233.161" gradientUnits="userSpaceOnUse">
<stop stop-color="#00B897"/>
<stop offset="1" stop-color="#03A5AF"/>
</linearGradient>
<clipPath id="clip0_8912_94535">
<rect width="150.939" height="55" fill="white" transform="translate(44.6934 23.7047)"/>
</clipPath>
<clipPath id="clip1_8912_94535">
<rect width="150.939" height="36" fill="white" transform="translate(44.6934 23.7047)"/>
</clipPath>
<clipPath id="clip2_8912_94535">
<rect width="37" height="14" fill="white" transform="translate(158.633 34.7047)"/>
</clipPath>
<clipPath id="clip3_8912_94535">
<rect width="37" height="14" fill="white" transform="translate(158.633 34.7047)"/>
</clipPath>
</defs>
</svg>
