<svg width="177" height="32" viewBox="0 0 177 32" fill="none" xmlns="http://www.w3.org/2000/svg">
<path opacity="0.1" d="M1.177 59.7029C13.0859 59.7029 16.2685 41.1458 26.078 41.1458C35.8875 41.1458 37.6648 43.355 47.5523 43.355C69.3488 43.355 65.7346 1.82233 87.531 1.82233C109.328 1.82233 108.912 38.0529 130.708 38.0529C152.505 38.0529 153.688 56.314 175.484 56.314" stroke="url(#paint0_linear_10023_6313)" stroke-width="2.21622" stroke-linecap="round"/>
<path opacity="0.1" d="M1.177 60.6083C13.0859 60.6083 9.81385 51.1123 23.5543 51.1123C37.2947 51.1123 34.154 19.0067 51.4277 19.0067C73.2242 19.0067 68.1045 37.9987 89.9009 37.9987C111.697 37.9987 111.1 57.2194 126.019 57.2194C142.475 57.2194 149.516 49.1489 161.744 54.3914C165.712 56.0927 170.144 57.2194 175.484 57.2194" stroke="url(#paint1_linear_10023_6313)" stroke-width="2.21622" stroke-linecap="round"/>
<path d="M1.177 60.5931C13.0859 60.5931 9.81385 51.0971 23.5543 51.0971C37.2947 51.0971 36.1029 27.3327 53.3766 27.3327C75.173 27.3327 70.852 14.1818 92.6484 14.1818C114.445 14.1818 123.07 34.8107 175.617 27.3327" stroke="#4832A6" stroke-width="2.21622" stroke-linecap="round"/>
<defs>
<linearGradient id="paint0_linear_10023_6313" x1="175.484" y1="16.2923" x2="5.5234" y2="16.7298" gradientUnits="userSpaceOnUse">
<stop stop-color="white"/>
<stop offset="1" stop-color="#B9B9B9"/>
</linearGradient>
<linearGradient id="paint1_linear_10023_6313" x1="175.484" y1="29.407" x2="5.52445" y2="30.0156" gradientUnits="userSpaceOnUse">
<stop stop-color="white"/>
<stop offset="1" stop-color="#B9B9B9"/>
</linearGradient>
</defs>
</svg>
