<svg width="23" height="24" viewBox="0 0 23 24" fill="none" xmlns="http://www.w3.org/2000/svg">
<path fill-rule="evenodd" clip-rule="evenodd" d="M7.42717 7.5C7.42717 5.15279 9.25067 3.25 11.5001 3.25C13.7495 3.25 15.573 5.15279 15.573 7.5C15.573 9.84721 13.7495 11.75 11.5001 11.75C9.25067 11.75 7.42717 9.84721 7.42717 7.5ZM11.5001 4.75C10.0446 4.75 8.86467 5.98122 8.86467 7.5C8.86467 9.01878 10.0446 10.25 11.5001 10.25C12.9556 10.25 14.1355 9.01878 14.1355 7.5C14.1355 5.98122 12.9556 4.75 11.5001 4.75Z" fill="#C2C8D7"/>
<path fill-rule="evenodd" clip-rule="evenodd" d="M7.66675 14.75C6.47588 14.75 5.5105 15.7574 5.5105 17V18.1883C5.5105 18.2064 5.52306 18.2218 5.54018 18.2247C9.48732 18.8972 13.5128 18.8972 17.46 18.2247C17.4771 18.2218 17.4897 18.2064 17.4897 18.1883V17C17.4897 15.7574 16.5243 14.75 15.3334 14.75H15.0068C14.9815 14.75 14.9564 14.7542 14.9324 14.7623L14.1029 15.045C12.4116 15.6212 10.5885 15.6212 8.89723 15.045L8.06778 14.7623C8.04377 14.7542 8.01867 14.75 7.99341 14.75H7.66675ZM4.073 17C4.073 14.9289 5.68197 13.25 7.66675 13.25H7.99341C8.17022 13.25 8.34591 13.2792 8.51398 13.3364L9.34344 13.6191C10.7448 14.0965 12.2554 14.0965 13.6567 13.6191L14.4862 13.3364C14.6543 13.2792 14.8299 13.25 15.0068 13.25H15.3334C17.3182 13.25 18.9272 14.9289 18.9272 17V18.1883C18.9272 18.9415 18.404 19.5837 17.6916 19.7051C13.5911 20.4037 9.40909 20.4037 5.30855 19.7051C4.59614 19.5837 4.073 18.9415 4.073 18.1883V17Z" fill="#C2C8D7"/>
</svg>
