<svg width="16" height="13" viewBox="0 0 16 13" fill="none" xmlns="http://www.w3.org/2000/svg">
<path fill-rule="evenodd" clip-rule="evenodd" d="M0.708984 4.35816C0.708984 2.10775 2.68327 0.375 5.00065 0.375C6.19521 0.375 7.24635 0.935116 8.00065 1.65986C8.75495 0.935116 9.80609 0.375 11.0007 0.375C13.318 0.375 15.2923 2.10775 15.2923 4.35816C15.2923 5.89972 14.6349 7.25537 13.7241 8.40128C12.8149 9.54522 11.6256 10.5161 10.4869 11.305C10.0519 11.6063 9.61192 11.8843 9.20921 12.0893C8.83107 12.2819 8.39627 12.4583 8.00065 12.4583C7.60503 12.4583 7.17023 12.2819 6.79209 12.0893C6.38938 11.8843 5.94937 11.6063 5.51443 11.305C4.37569 10.5161 3.18638 9.54522 2.27717 8.40128C1.36638 7.25537 0.708984 5.89972 0.708984 4.35816ZM5.00065 1.625C3.26794 1.625 1.95898 2.89925 1.95898 4.35816C1.95898 5.52774 2.45547 6.61667 3.25573 7.62351C4.05755 8.63234 5.13642 9.52244 6.22627 10.2775C6.63867 10.5632 7.0271 10.8063 7.35936 10.9755C7.71619 11.1572 7.92287 11.2083 8.00065 11.2083C8.07843 11.2083 8.28511 11.1572 8.64194 10.9755C8.9742 10.8063 9.36264 10.5632 9.77503 10.2775C10.8649 9.52244 11.9437 8.63234 12.7456 7.62351C13.5458 6.61667 14.0423 5.52774 14.0423 4.35816C14.0423 2.89925 12.7334 1.625 11.0007 1.625C10.0055 1.625 9.07631 2.21952 8.49612 2.9741C8.37782 3.12797 8.19474 3.21814 8.00065 3.21814C7.80656 3.21814 7.62349 3.12797 7.50518 2.9741C6.92499 2.21952 5.99578 1.625 5.00065 1.625Z" fill="white"/>
</svg>
