<svg width="18" height="16" viewBox="0 0 18 16" fill="none" xmlns="http://www.w3.org/2000/svg">
<path fillRule="evenodd" clipRule="evenodd" d="M0.25 5.5298C0.25 2.8293 2.61914 0.75 5.4 0.75C6.83347 0.75 8.09484 1.42214 9 2.29183C9.90516 1.42214 11.1665 0.75 12.6 0.75C15.3809 0.75 17.75 2.8293 17.75 5.5298C17.75 7.37967 16.9611 9.00644 15.8682 10.3815C14.7771 11.7543 13.35 12.9193 11.9835 13.866C11.4615 14.2276 10.9335 14.5611 10.4503 14.8072C9.99651 15.0383 9.47474 15.25 9 15.25C8.52526 15.25 8.00349 15.0383 7.54973 14.8072C7.06648 14.5611 6.53846 14.2276 6.01653 13.866C4.65005 12.9193 3.22287 11.7543 2.13182 10.3815C1.03888 9.00644 0.25 7.37967 0.25 5.5298ZM5.4 2.25C3.32075 2.25 1.75 3.7791 1.75 5.5298C1.75 6.93329 2.34579 8.24 3.30609 9.44822C4.26828 10.6588 5.56292 11.7269 6.87074 12.633C7.36562 12.9758 7.83174 13.2675 8.23045 13.4706C8.65865 13.6886 8.90666 13.75 9 13.75C9.09334 13.75 9.34135 13.6886 9.76955 13.4706C10.1683 13.2675 10.6344 12.9758 11.1293 12.633C12.4371 11.7269 13.7317 10.6588 14.6939 9.44822C15.6542 8.24 16.25 6.93329 16.25 5.5298C16.25 3.7791 14.6792 2.25 12.6 2.25C11.4058 2.25 10.2908 2.96342 9.59457 3.86892C9.4526 4.05356 9.23291 4.16176 9 4.16176C8.76709 4.16176 8.5474 4.05356 8.40544 3.86892C7.7092 2.96342 6.59415 2.25 5.4 2.25Z" fill="white"/>
</svg>
