<svg width="47" height="29" viewBox="0 0 47 29" fill="none" xmlns="http://www.w3.org/2000/svg">
<rect x="0.166016" width="46" height="29" rx="5" fill="#0D102C"/>
<g clip-path="url(#clip0_6532_91807)">
<path d="M11.0328 17.5H10.3833V13.3221C10.3833 12.9746 10.394 12.6458 10.4154 12.3357C10.3592 12.3918 10.2964 12.4507 10.2269 12.5121C10.1574 12.5736 9.83933 12.8342 9.27265 13.294L8.91981 12.8369L10.4715 11.6381H11.0328V17.5ZM21.4365 17.5H20.7629L19.5801 13.5747C19.524 13.4009 19.4612 13.1817 19.3917 12.9171C19.3222 12.6525 19.2861 12.4934 19.2834 12.44C19.2246 12.7928 19.131 13.1791 19.0027 13.5987L17.856 17.5H17.1824L15.6227 11.6381H16.3444L17.2706 15.2587C17.3989 15.7665 17.4925 16.2263 17.5513 16.6379C17.6234 16.1488 17.7304 15.6703 17.872 15.2025L18.9225 11.6381H19.6443L20.7469 15.2346C20.8752 15.6489 20.9834 16.1167 21.0717 16.6379C21.1224 16.2584 21.2187 15.7959 21.3603 15.2506L22.2825 11.6381H23.0042L21.4365 17.5ZM25.9367 17.5802C25.2871 17.5802 24.7739 17.3824 24.397 16.9868C24.0228 16.5912 23.8357 16.0419 23.8357 15.3389C23.8357 14.6305 24.0094 14.0678 24.3569 13.6508C24.7071 13.2338 25.1762 13.0254 25.7643 13.0254C26.3149 13.0254 26.7506 13.2071 27.0714 13.5707C27.3922 13.9315 27.5525 14.4086 27.5525 15.0021V15.4231H24.5253C24.5387 15.939 24.6683 16.3306 24.9143 16.5979C25.1628 16.8652 25.5117 16.9988 25.9607 16.9988C26.4339 16.9988 26.9017 16.8999 27.3641 16.7021V17.2955C27.1289 17.3971 26.9057 17.4693 26.6945 17.512C26.486 17.5575 26.2334 17.5802 25.9367 17.5802ZM25.7563 13.5827C25.4034 13.5827 25.1214 13.6976 24.9102 13.9275C24.7018 14.1574 24.5788 14.4755 24.5414 14.8818H26.8388C26.8388 14.4621 26.7453 14.1413 26.5582 13.9195C26.3711 13.6949 26.1038 13.5827 25.7563 13.5827ZM30.8057 17.5802C30.1562 17.5802 29.643 17.3824 29.2661 16.9868C28.8918 16.5912 28.7047 16.0419 28.7047 15.3389C28.7047 14.6305 28.8785 14.0678 29.226 13.6508C29.5761 13.2338 30.0453 13.0254 30.6333 13.0254C31.184 13.0254 31.6197 13.2071 31.9404 13.5707C32.2612 13.9315 32.4216 14.4086 32.4216 15.0021V15.4231H29.3944C29.4077 15.939 29.5374 16.3306 29.7833 16.5979C30.0319 16.8652 30.3807 16.9988 30.8298 16.9988C31.3029 16.9988 31.7707 16.8999 32.2331 16.7021V17.2955C31.9979 17.3971 31.7747 17.4693 31.5635 17.512C31.355 17.5575 31.1024 17.5802 30.8057 17.5802ZM30.6253 13.5827C30.2725 13.5827 29.9905 13.6976 29.7793 13.9275C29.5708 14.1574 29.4478 14.4755 29.4104 14.8818H31.7079C31.7079 14.4621 31.6143 14.1413 31.4272 13.9195C31.2401 13.6949 30.9728 13.5827 30.6253 13.5827ZM34.4759 15.2506C34.5909 15.0876 34.766 14.8738 35.0012 14.6091L36.4206 13.1055H37.2104L35.4302 14.978L37.3347 17.5H36.5288L34.9771 15.4231L34.4759 15.8561V17.5H33.8184V11.2612H34.4759V14.569C34.4759 14.716 34.4652 14.9432 34.4439 15.2506H34.4759Z" fill="#FC9905"/>
</g>
<defs>
<clipPath id="clip0_6532_91807">
<rect width="30" height="22.875" fill="white" transform="translate(8.16602 3.0625)"/>
</clipPath>
</defs>
</svg>
