<svg width="55" height="29" viewBox="0 0 55 29" fill="none" xmlns="http://www.w3.org/2000/svg">
<rect x="0.496094" width="54.0076" height="29" rx="5" fill="#0D102C"/>
<path d="M45.3093 13.3095H33.4584V6.17796C33.4584 5.52258 32.9271 4.98743 32.2678 4.98743H22.763C22.1076 4.98743 21.5725 5.51871 21.5725 6.17796V10.9594L9.68662 10.9323C9.03125 10.9323 8.49609 11.4636 8.49609 12.1228V22.822C8.49609 23.4774 9.02737 24.0126 9.68662 24.0126H45.3132C45.9686 24.0126 46.5037 23.4813 46.5037 22.822V14.5C46.4998 13.8446 45.9686 13.3095 45.3093 13.3095ZM16.7832 18.0522V19.2543H12.1724C12.184 18.7735 12.2887 18.3314 12.4826 17.932C12.6726 17.4821 13.1186 17.3037 13.8205 16.8035C14.4293 16.3653 14.8249 16.3537 15.0033 16.1636C15.2786 15.8689 15.4182 15.7332 15.4182 15.3842C15.4182 15.1011 15.3406 14.8645 15.1817 14.6745C15.0227 14.4845 14.7977 14.3914 14.503 14.3914C14.0997 14.3914 13.8283 14.5427 13.6809 14.8413C13.5956 15.0158 13.549 15.2911 13.5335 15.6673H12.2461C12.2693 15.0933 12.3701 14.6319 12.5563 14.279C12.9092 13.6081 13.5374 13.2707 14.4371 13.2707C15.1506 13.2707 15.7168 13.4685 16.1395 13.864C16.5622 14.2596 16.8104 14.7792 16.8104 15.4307C16.8104 15.931 16.663 16.1869 16.3644 16.5747C16.1705 16.8345 15.8099 16.819 15.3639 17.137L14.8326 17.5132C14.4759 17.6101 14.2975 17.7342 13.8438 18.0561L16.7832 18.0522ZM28.7389 14.5H27.4941V10.9323H26.3191L26.2803 9.69524C26.6952 9.67585 26.6914 9.64871 26.8581 9.60993C27.1257 9.55176 27.1528 9.61768 27.3196 9.44317C27.432 9.32296 27.5212 9.16008 27.5794 8.96231C27.6143 8.84209 27.6298 8.60166 27.6298 8.5435H28.7389V14.5ZM42.4164 21.077C42.0208 21.5074 41.3267 21.6509 40.555 21.6509C39.601 21.6509 38.8293 21.4144 38.457 20.7939C38.2631 20.4643 38.1545 20.3634 38.1313 19.8283H39.4692C39.4692 20.0959 39.5118 20.2083 39.601 20.3867C39.7251 20.4875 40.1284 20.5418 40.5511 20.5418C40.8109 20.5418 41.1483 20.4526 41.3422 20.2742C41.5361 20.0959 41.633 19.9524 41.633 19.6189C41.633 19.1768 41.4547 19.2892 41.0979 19.1419C40.8924 19.0566 40.9815 19.0178 40.5433 19.0178V18.1453C40.9738 18.1375 40.8613 18.0987 41.032 18.0212C41.3267 17.8893 41.4702 17.9979 41.4702 17.6023C41.4702 17.3464 41.3965 17.2495 41.2452 17.0866C41.094 16.9237 40.7721 16.8461 40.5007 16.8461C40.1904 16.8461 39.8492 16.947 39.7018 17.1447C39.5545 17.3425 39.4847 17.1603 39.4924 17.4938H38.2592C38.2709 17.1603 38.329 17.1758 38.4299 16.8772C38.5385 16.6135 38.7091 16.3692 38.9379 16.1481C39.1124 15.9891 39.4265 15.8689 39.6669 15.7875C39.9035 15.7022 40.1982 15.6634 40.5433 15.6634C41.1871 15.6634 42.0014 15.7565 42.397 16.09C42.7925 16.4235 42.9903 16.8694 42.9903 17.4278C42.9903 17.8234 42.7615 17.8622 42.525 18.1336C42.3776 18.3043 42.1488 18.4206 41.9859 18.4826C42.1061 18.4826 42.2807 18.5137 42.5056 18.7192C42.843 19.0333 43.0136 19.0527 43.0136 19.5917C43.0058 20.1463 42.8081 20.6465 42.4164 21.077Z" fill="white"/>
</svg>
