<svg width="51" height="29" viewBox="0 0 51 29" fill="none" xmlns="http://www.w3.org/2000/svg">
<rect x="0.833984" width="50" height="29" rx="5" fill="#0D102C"/>
<g clip-path="url(#clip0_6532_91899)">
<rect x="8.92773" y="19.2051" width="11.1753" height="1.15698" rx="0.578488" transform="rotate(-90 8.92773 19.2051)" fill="#505A78"/>
<rect x="8.63867" y="19.1387" width="9.3817" height="1.73547" rx="0.867733" transform="rotate(-90 8.63867 19.1387)" fill="#17D74D"/>
<rect x="12.9238" y="19.2051" width="11.1753" height="1.15698" rx="0.578488" transform="rotate(-90 12.9238 19.2051)" fill="#505A78"/>
<rect x="12.6348" y="19.1387" width="7.45017" height="1.73547" rx="0.867733" transform="rotate(-90 12.6348 19.1387)" fill="#FF6A2A"/>
<rect x="16.916" y="19.2051" width="11.1753" height="1.15698" rx="0.578488" transform="rotate(-90 16.916 19.2051)" fill="#505A78"/>
<rect x="16.627" y="19.1387" width="6.34644" height="1.73547" rx="0.867733" transform="rotate(-90 16.627 19.1387)" fill="#AE2AFF"/>
<rect x="20.9121" y="19.2051" width="11.1753" height="1.15698" rx="0.578488" transform="rotate(-90 20.9121 19.2051)" fill="#505A78"/>
<rect x="20.623" y="19.2051" width="8.31648" height="1.73547" rx="0.867733" transform="rotate(-90 20.623 19.2051)" fill="#20DFB1"/>
<rect x="24.9121" y="19.2051" width="11.1753" height="1.15698" rx="0.578488" transform="rotate(-90 24.9121 19.2051)" fill="#505A78"/>
<rect x="24.623" y="19.1387" width="3.58712" height="1.73547" rx="0.867733" transform="rotate(-90 24.623 19.1387)" fill="#FF2AB7"/>
<rect x="28.9082" y="19.2051" width="11.1753" height="1.15698" rx="0.578488" transform="rotate(-90 28.9082 19.2051)" fill="#505A78"/>
<rect x="28.6191" y="19.2051" width="8.31648" height="1.73547" rx="0.867733" transform="rotate(-90 28.6191 19.2051)" fill="#FFC32A"/>
<rect x="32.9004" y="19.2051" width="11.1753" height="1.15698" rx="0.578488" transform="rotate(-90 32.9004 19.2051)" fill="#505A78"/>
<rect x="32.6113" y="19.1387" width="3.58712" height="1.73547" rx="0.867733" transform="rotate(-90 32.6113 19.1387)" fill="#967BE1"/>
<rect x="36.8887" y="19.2051" width="11.1753" height="1.15698" rx="0.578488" transform="rotate(-90 36.8887 19.2051)" fill="#505A78"/>
<rect x="36.5996" y="19.1387" width="3.58712" height="1.73547" rx="0.867733" transform="rotate(-90 36.5996 19.1387)" fill="#0050C9"/>
<rect x="40.8887" y="19.2051" width="11.1753" height="1.15698" rx="0.578488" transform="rotate(-90 40.8887 19.2051)" fill="#505A78"/>
<rect x="40.5996" y="19.2051" width="8.31648" height="1.73547" rx="0.867733" transform="rotate(-90 40.5996 19.2051)" fill="white"/>
<rect x="8.92773" y="20.2812" width="11.1753" height="1.15698" rx="0.578488" transform="rotate(-90 8.92773 20.2812)" fill="#505A78"/>
<rect x="8.63867" y="20.2148" width="9.3817" height="1.73547" rx="0.867733" transform="rotate(-90 8.63867 20.2148)" fill="#17D74D"/>
<rect x="12.9238" y="20.2812" width="11.1753" height="1.15698" rx="0.578488" transform="rotate(-90 12.9238 20.2812)" fill="#505A78"/>
<rect x="12.6348" y="20.2148" width="7.45017" height="1.73547" rx="0.867733" transform="rotate(-90 12.6348 20.2148)" fill="#FF6A2A"/>
<rect x="16.916" y="20.2812" width="11.1753" height="1.15698" rx="0.578488" transform="rotate(-90 16.916 20.2812)" fill="#505A78"/>
<rect x="16.627" y="20.2148" width="6.34644" height="1.73547" rx="0.867733" transform="rotate(-90 16.627 20.2148)" fill="#AE2AFF"/>
<rect x="20.9121" y="20.2812" width="11.1753" height="1.15698" rx="0.578488" transform="rotate(-90 20.9121 20.2812)" fill="#505A78"/>
<rect x="20.623" y="20.2812" width="8.31648" height="1.73547" rx="0.867733" transform="rotate(-90 20.623 20.2812)" fill="#20DFB1"/>
<rect x="24.9121" y="20.2812" width="11.1753" height="1.15698" rx="0.578488" transform="rotate(-90 24.9121 20.2812)" fill="#505A78"/>
<rect x="24.623" y="20.2148" width="3.58712" height="1.73547" rx="0.867733" transform="rotate(-90 24.623 20.2148)" fill="#FF2AB7"/>
<rect x="28.9082" y="20.2812" width="11.1753" height="1.15698" rx="0.578488" transform="rotate(-90 28.9082 20.2812)" fill="#505A78"/>
<rect x="28.6191" y="20.2812" width="8.31648" height="1.73547" rx="0.867733" transform="rotate(-90 28.6191 20.2812)" fill="#FFC32A"/>
<rect x="32.9004" y="20.2812" width="11.1753" height="1.15698" rx="0.578488" transform="rotate(-90 32.9004 20.2812)" fill="#505A78"/>
<rect x="32.6113" y="20.2148" width="3.58712" height="1.73547" rx="0.867733" transform="rotate(-90 32.6113 20.2148)" fill="#967BE1"/>
<rect x="36.8887" y="20.2812" width="11.1753" height="1.15698" rx="0.578488" transform="rotate(-90 36.8887 20.2812)" fill="#505A78"/>
<rect x="36.5996" y="20.2148" width="3.58712" height="1.73547" rx="0.867733" transform="rotate(-90 36.5996 20.2148)" fill="#0050C9"/>
<rect x="40.8887" y="20.2812" width="11.1753" height="1.15698" rx="0.578488" transform="rotate(-90 40.8887 20.2812)" fill="#505A78"/>
<rect x="40.5996" y="20.2812" width="8.31648" height="1.73547" rx="0.867733" transform="rotate(-90 40.5996 20.2812)" fill="white"/>
</g>
<defs>
<clipPath id="clip0_6532_91899">
<rect width="34" height="22.875" fill="white" transform="translate(8.83398 3.0625)"/>
</clipPath>
</defs>
</svg>
