<svg width="57" height="29" viewBox="0 0 57 29" fill="none" xmlns="http://www.w3.org/2000/svg">
<rect x="0.5" width="56" height="29" rx="5" fill="#0D102C"/>
<path d="M8.5 23.8711C11.2329 23.8711 11.9632 17.7682 14.2143 17.7682C16.4654 17.7682 16.8732 18.4947 19.1422 18.4947C24.1441 18.4947 23.3147 4.83582 28.3165 4.83582C33.3184 4.83582 33.2229 16.751 38.2248 16.751C43.2266 16.751 43.4981 22.7566 48.5 22.7566" stroke="#F2C94C" strokeWidth="1.47" strokeLinecap="round"/>
<path d="M8.5 24.1639C11.2329 24.1639 10.482 21.0221 13.6351 21.0221C16.7883 21.0221 16.0676 10.3999 20.0315 10.3999C25.0334 10.3999 23.8585 16.6835 28.8604 16.6835C33.8622 16.6835 33.7252 23.0427 37.1486 23.0427C40.925 23.0427 42.5409 20.3725 45.3468 22.107C46.2575 22.6699 47.2745 23.0427 48.5 23.0427" stroke="#EB5757" strokeWidth="1.47" stroke-linecap="round"/>
<path d="M8.5 24.164C11.2308 24.164 10.4805 21.0482 13.6312 21.0482C16.782 21.0482 16.5087 13.2508 20.4696 13.2508C25.4677 13.2508 24.4768 8.93579 29.4749 8.93579C34.4729 8.93579 36.4507 15.7044 48.5 13.2508" stroke="#6FCF97" strokeWidth="1.47" strokeLinecap="round"/>
</svg>
