<svg width="55" height="29" viewBox="0 0 55 29" fill="none" xmlns="http://www.w3.org/2000/svg">
<rect x="0.5" width="54" height="29" rx="5" fill="#0D102C"/>
<path fillRule="evenodd" clipRule="evenodd" d="M22.0354 5.75C21.4503 5.75 20.9039 6.04243 20.5793 6.52927L16.9901 11.9131C16.7704 12.2427 16.7441 12.6648 16.9212 13.0191C18.8853 16.9473 21.6149 20.4432 24.9494 23.3014L26.7002 24.8021C27.1605 25.1967 27.8399 25.1967 28.3003 24.8021L30.051 23.3014C33.3855 20.4432 36.1151 16.9473 38.0792 13.0191C38.2563 12.6648 38.2301 12.2427 38.0103 11.9131L34.4211 6.52927C34.0965 6.04243 33.5501 5.75 32.965 5.75H22.0354ZM21.8274 7.36132C21.8737 7.29178 21.9518 7.25 22.0354 7.25H24.3752L22.4601 11.8463C22.416 11.9522 22.3827 12.0614 22.3602 12.1722C21.6564 12.1199 20.9532 12.0567 20.2508 11.9828L18.8451 11.8348L21.8274 7.36132ZM18.7789 13.3361C20.5723 16.6261 22.9404 19.5714 25.7734 22.0312L22.648 13.6967C21.7956 13.6381 20.9441 13.564 20.0938 13.4745L18.7789 13.3361ZM24.285 13.7902L27.5002 22.364L30.7154 13.7902C28.5731 13.8876 26.4274 13.8876 24.285 13.7902ZM32.3525 13.6967L29.227 22.0312C32.06 19.5714 34.4282 16.6261 36.2216 13.3361L34.9067 13.4745C34.0563 13.564 33.2048 13.6381 32.3525 13.6967ZM36.1553 11.8348L34.7496 11.9828C34.0472 12.0567 33.344 12.1199 32.6402 12.1722C32.6178 12.0613 32.5845 11.9522 32.5403 11.8463L30.6252 7.25H32.965C33.0486 7.25 33.1267 7.29178 33.173 7.36133L36.1553 11.8348ZM31.0919 12.2701C28.6991 12.3943 26.3014 12.3943 23.9085 12.2701L26.0002 7.25H29.0002L31.0919 12.2701Z" fill="white"/>
</svg>
