<svg width="18" height="18" viewBox="0 0 18 18" fill="none" xmlns="http://www.w3.org/2000/svg">
<path d="M8.79297 7.59741C9.20718 7.59741 9.54297 7.9332 9.54297 8.34741V13.3474C9.54297 13.7616 9.20718 14.0974 8.79297 14.0974C8.37876 14.0974 8.04297 13.7616 8.04297 13.3474V8.34741C8.04297 7.9332 8.37876 7.59741 8.79297 7.59741Z" fill="#E5E8EF"/>
<path d="M8.79297 5.84741C9.34525 5.84741 9.79297 5.3997 9.79297 4.84741C9.79297 4.29513 9.34525 3.84741 8.79297 3.84741C8.24068 3.84741 7.79297 4.29513 7.79297 4.84741C7.79297 5.3997 8.24068 5.84741 8.79297 5.84741Z" fill="#E5E8EF"/>
<path fill-rule="evenodd" clip-rule="evenodd" d="M0.0429688 8.84741C0.0429688 4.01492 3.96048 0.0974121 8.79297 0.0974121C13.6255 0.0974121 17.543 4.01492 17.543 8.84741C17.543 13.6799 13.6255 17.5974 8.79297 17.5974C3.96048 17.5974 0.0429688 13.6799 0.0429688 8.84741ZM8.79297 1.59741C4.7889 1.59741 1.54297 4.84335 1.54297 8.84741C1.54297 12.8515 4.7889 16.0974 8.79297 16.0974C12.797 16.0974 16.043 12.8515 16.043 8.84741C16.043 4.84335 12.797 1.59741 8.79297 1.59741Z" fill="#E5E8EF"/>
</svg>
