<svg width="23" height="24" viewBox="0 0 23 24" fill="none" xmlns="http://www.w3.org/2000/svg">
<g id="AdornmentStart">
<g id="Icon">
<path d="M6.70842 10C5.64987 10 4.79175 10.8954 4.79175 12C4.79175 13.1046 5.64987 14 6.70842 14C7.76696 14 8.62508 13.1046 8.62508 12C8.62508 10.8954 7.76696 10 6.70842 10Z" fill="#C2C8D7"/>
<path fill-rule="evenodd" clip-rule="evenodd" d="M6.70842 6.25C3.6651 6.25 1.198 8.82436 1.198 12C1.198 15.1756 3.6651 17.75 6.70842 17.75C8.79813 17.75 10.6148 16.5363 11.5488 14.75H14.6147V17C14.6147 17.4142 14.9365 17.75 15.3334 17.75H18.6876C19.0845 17.75 19.4063 17.4142 19.4063 17V14.75H21.0834C21.4804 14.75 21.8022 14.4142 21.8022 14V11C21.8022 10.0335 21.0513 9.25 20.1251 9.25H11.5488C10.6148 7.46371 8.79813 6.25 6.70842 6.25ZM2.6355 12C2.6355 9.65279 4.45901 7.75 6.70842 7.75C8.37745 7.75 9.81359 8.79769 10.4427 10.3003C10.5571 10.5734 10.8157 10.75 11.1014 10.75H20.1251C20.2574 10.75 20.3647 10.8619 20.3647 11V13.25H18.6876C18.2906 13.25 17.9688 13.5858 17.9688 14V16.25H16.0522V14C16.0522 13.5858 15.7304 13.25 15.3334 13.25H11.1014C10.8157 13.25 10.5571 13.4266 10.4427 13.6997C9.81359 15.2023 8.37745 16.25 6.70842 16.25C4.45901 16.25 2.6355 14.3472 2.6355 12Z" fill="#C2C8D7"/>
</g>
</g>
</svg>
