<svg width="48" height="48" viewBox="0 0 48 48" fill="none" xmlns="http://www.w3.org/2000/svg">
<rect x="0.827637" y="0.827637" width="46.3448" height="46.3448" rx="23.1724" fill="#6043DD"/>
<path fill-rule="evenodd" clip-rule="evenodd" d="M22.9557 27.8294C22.3155 27.8294 21.7814 27.3401 21.7255 26.7023C21.6086 25.3689 21.579 24.0294 21.6369 22.6926C21.5671 22.688 21.4973 22.6831 21.4275 22.678L20.1948 22.5881C19.4069 22.5307 18.9664 21.6522 19.3918 20.9865C20.299 19.5667 21.9618 17.9777 23.3302 16.9948C23.7306 16.7071 24.2699 16.7071 24.6703 16.9948C26.0387 17.9777 27.7015 19.5667 28.6087 20.9865C29.034 21.6522 28.5936 22.5307 27.8057 22.5881L26.5729 22.678C26.5032 22.6831 26.4334 22.688 26.3636 22.6926C26.4214 24.0294 26.3918 25.3689 26.2749 26.7023C26.219 27.3401 25.685 27.8294 25.0448 27.8294H22.9557ZM22.909 22.1483C22.8149 23.6273 22.8325 25.1115 22.9616 26.588H25.0388C25.168 25.1115 25.1855 23.6273 25.0914 22.1483C25.0809 21.9824 25.1373 21.8193 25.2479 21.6954C25.3586 21.5715 25.5144 21.4971 25.6803 21.4889C25.9479 21.4757 26.2154 21.4594 26.4827 21.4399L27.378 21.3746C26.5839 20.205 25.5895 19.1836 24.4399 18.3578L24.0002 18.0419L23.5605 18.3578C22.4109 19.1836 21.4166 20.205 20.6225 21.3746L21.5178 21.4399C21.7851 21.4594 22.0525 21.4757 22.3201 21.4889C22.4861 21.4971 22.6418 21.5715 22.7525 21.6954C22.8632 21.8193 22.9196 21.9824 22.909 22.1483Z" fill="white"/>
<path d="M18.8278 28.1379C18.8278 27.7951 18.5499 27.5172 18.2071 27.5172C17.8643 27.5172 17.5864 27.7951 17.5864 28.1379V29.7931C17.5864 30.5929 18.2348 31.2413 19.0347 31.2413H28.9657C29.7656 31.2413 30.414 30.5929 30.414 29.7931V28.1379C30.414 27.7951 30.1361 27.5172 29.7933 27.5172C29.4505 27.5172 29.1726 27.7951 29.1726 28.1379V29.7931C29.1726 29.9073 29.08 29.9999 28.9657 29.9999H19.0347C18.9204 29.9999 18.8278 29.9073 18.8278 29.7931V28.1379Z" fill="white"/>
</svg>
