<svg width="10" height="8" viewBox="0 0 10 8" fill="none" xmlns="http://www.w3.org/2000/svg">
<path d="M2.43886 1.84996C2.34201 1.79782 2.22488 1.80042 2.13045 1.85682C2.03603 1.91323 1.9782 2.01512 1.9782 2.12511V6.08344C1.9782 6.25603 2.11811 6.39594 2.2907 6.39594C2.46329 6.39594 2.6032 6.25603 2.6032 6.08344V2.6483L4.85088 3.85859C4.94337 3.90839 5.0547 3.90839 5.14719 3.85859L7.39487 2.6483V6.08344C7.39487 6.25603 7.53478 6.39594 7.70737 6.39594C7.87996 6.39594 8.01987 6.25603 8.01987 6.08344V2.12511C8.01987 2.01512 7.96204 1.91323 7.86761 1.85682C7.77318 1.80042 7.65606 1.79782 7.55921 1.84996L4.99903 3.22852L2.43886 1.84996Z" fill="#907BE7"/>
<path fill-rule="evenodd" clip-rule="evenodd" d="M7.21178 0.550874C5.73956 0.41924 4.25852 0.41924 2.7863 0.550874L2.15407 0.607403C1.4759 0.668039 0.927949 1.18613 0.829453 1.85985C0.621953 3.27914 0.621953 4.72107 0.829453 6.14037C0.927949 6.81409 1.4759 7.33218 2.15407 7.39282L2.7863 7.44934C4.25852 7.58098 5.73956 7.58098 7.21178 7.44934L7.84401 7.39282C8.52218 7.33218 9.07013 6.81409 9.16862 6.14037C9.37612 4.72107 9.37612 3.27914 9.16862 1.85985C9.07013 1.18613 8.52218 0.668039 7.84401 0.607403L7.21178 0.550874ZM2.84196 1.17339C4.27715 1.04507 5.72093 1.04507 7.15612 1.17339L7.78835 1.22992C8.1784 1.26479 8.49355 1.56277 8.5502 1.95026C8.74893 3.3096 8.74893 4.69062 8.5502 6.04996C8.49355 6.43744 8.1784 6.73542 7.78835 6.7703L7.15612 6.82683C5.72093 6.95515 4.27715 6.95515 2.84196 6.82683L2.20973 6.7703C1.81968 6.73542 1.50453 6.43744 1.44788 6.04996C1.24914 4.69062 1.24914 3.3096 1.44788 1.95026C1.50453 1.56277 1.81968 1.26479 2.20973 1.22992L2.84196 1.17339Z" fill="#907BE7"/>
</svg>
