<svg width="124" height="34" viewBox="0 0 124 34" fill="none" xmlns="http://www.w3.org/2000/svg">
<path d="M5.25 17C5.25 16.5858 5.58579 16.25 6 16.25C6.41421 16.25 6.75 16.5858 6.75 17C6.75 17.4142 6.41421 17.75 6 17.75C5.58579 17.75 5.25 17.4142 5.25 17ZM11.25 17C11.25 16.5858 11.5858 16.25 12 16.25C12.4142 16.25 12.75 16.5858 12.75 17C12.75 17.4142 12.4142 17.75 12 17.75C11.5858 17.75 11.25 17.4142 11.25 17ZM17.25 17C17.25 16.5858 17.5858 16.25 18 16.25C18.4142 16.25 18.75 16.5858 18.75 17C18.75 17.4142 18.4142 17.75 18 17.75C17.5858 17.75 17.25 17.4142 17.25 17Z" fill="white" stroke="white" stroke-width="1.5"/>
<g clip-path="url(#clip0_13209_14386)">
<path d="M105.124 27.3176C105.124 27.7487 105.059 28.1264 104.931 28.4507C104.802 28.7749 104.616 29.0457 104.384 29.2595C104.148 29.4769 103.866 29.6372 103.533 29.7441C103.201 29.851 102.829 29.9044 102.425 29.9044C102.332 29.9044 102.229 29.9044 102.111 29.8973C101.993 29.8902 101.875 29.8831 101.754 29.8688C101.632 29.8545 101.507 29.8367 101.385 29.8118C101.26 29.7868 101.146 29.7583 101.046 29.7191C100.764 29.6158 100.624 29.4341 100.624 29.1704V25.3186C100.624 25.2117 100.653 25.1262 100.71 25.0692C100.767 25.0086 100.849 24.9623 100.957 24.9231C101.178 24.8518 101.414 24.8055 101.664 24.7841C101.914 24.7628 102.139 24.7521 102.347 24.7521C102.765 24.7521 103.144 24.802 103.483 24.9053C103.823 25.0086 104.116 25.1654 104.359 25.3792C104.602 25.593 104.791 25.8602 104.927 26.1809C105.063 26.5016 105.131 26.8793 105.131 27.3176H105.124ZM103.808 27.3318C103.808 26.808 103.68 26.4196 103.422 26.1631C103.165 25.9065 102.829 25.7783 102.418 25.7783C102.322 25.7783 102.229 25.7783 102.143 25.7854C102.057 25.789 101.972 25.7996 101.882 25.8175V28.8284C101.954 28.8426 102.036 28.8569 102.136 28.864C102.236 28.8711 102.332 28.8747 102.425 28.8747C102.847 28.8747 103.183 28.7464 103.433 28.4899C103.683 28.2333 103.805 27.8449 103.805 27.3283L103.808 27.3318Z" fill="#D6DBE8"/>
<path d="M110.302 28.7107H108.712C108.651 28.9031 108.597 29.0955 108.544 29.2844C108.494 29.4732 108.447 29.6407 108.408 29.7868C108.336 29.8082 108.265 29.826 108.19 29.8438C108.115 29.8581 108.022 29.8688 107.915 29.8688C107.675 29.8688 107.497 29.826 107.375 29.744C107.254 29.6621 107.193 29.5409 107.193 29.3842C107.193 29.3093 107.204 29.2345 107.225 29.1668C107.246 29.0955 107.271 29.0172 107.3 28.9245C107.339 28.7784 107.393 28.5967 107.461 28.3829C107.532 28.1656 107.607 27.9339 107.693 27.6845C107.775 27.4351 107.865 27.175 107.958 26.9113C108.051 26.6476 108.14 26.3947 108.226 26.1559C108.311 25.9172 108.39 25.6963 108.462 25.4967C108.533 25.2972 108.59 25.1368 108.64 25.0193C108.722 24.9694 108.848 24.9266 109.019 24.8803C109.191 24.8375 109.359 24.8162 109.527 24.8162C109.77 24.8162 109.984 24.8482 110.173 24.9159C110.359 24.9836 110.481 25.0941 110.534 25.2509C110.638 25.5359 110.749 25.8673 110.867 26.245C110.985 26.6227 111.106 27.0111 111.228 27.4102C111.349 27.8092 111.467 28.2047 111.581 28.5931C111.696 28.9815 111.796 29.3307 111.882 29.6371C111.821 29.7084 111.735 29.7654 111.617 29.8082C111.499 29.8509 111.363 29.8723 111.199 29.8723C110.967 29.8723 110.802 29.8331 110.709 29.7512C110.613 29.6692 110.545 29.5445 110.502 29.3699L110.306 28.7143L110.302 28.7107ZM109.516 25.9421C109.441 26.1844 109.348 26.4624 109.237 26.7723C109.126 27.0823 109.023 27.3995 108.926 27.7237H110.088C109.995 27.3852 109.902 27.0574 109.809 26.7474C109.712 26.4374 109.634 26.1702 109.569 25.9421H109.519H109.516Z" fill="#D6DBE8"/>
<path d="M116.206 25.8993V29.776C116.145 29.7903 116.063 29.8081 115.952 29.8188C115.845 29.833 115.731 29.8402 115.613 29.8402C115.359 29.8402 115.18 29.7974 115.077 29.7119C114.973 29.6264 114.923 29.4696 114.923 29.2416V25.8993H113.647C113.615 25.8458 113.583 25.7746 113.554 25.6891C113.526 25.6035 113.511 25.5073 113.511 25.404C113.511 25.2223 113.551 25.0869 113.633 25.0049C113.715 24.9194 113.826 24.8802 113.965 24.8802H117.514C117.553 24.9337 117.585 25.0049 117.61 25.0904C117.635 25.176 117.65 25.2722 117.65 25.3719C117.65 25.5501 117.61 25.6819 117.528 25.7674C117.446 25.853 117.335 25.8957 117.196 25.8957H116.206V25.8993Z" fill="#D6DBE8"/>
<path d="M122.424 28.7107H120.834C120.773 28.9031 120.72 29.0955 120.666 29.2844C120.616 29.4732 120.57 29.6407 120.53 29.7868C120.459 29.8082 120.387 29.826 120.312 29.8438C120.237 29.8581 120.144 29.8688 120.037 29.8688C119.798 29.8688 119.619 29.826 119.497 29.744C119.376 29.6621 119.315 29.5409 119.315 29.3842C119.315 29.3093 119.326 29.2345 119.347 29.1668C119.369 29.0955 119.394 29.0172 119.422 28.9245C119.462 28.7784 119.515 28.5967 119.583 28.3829C119.655 28.1656 119.73 27.9339 119.816 27.6845C119.898 27.4351 119.987 27.175 120.08 26.9113C120.173 26.6476 120.262 26.3947 120.348 26.1559C120.434 25.9172 120.512 25.6963 120.584 25.4967C120.655 25.2972 120.713 25.1368 120.763 25.0193C120.845 24.9694 120.97 24.9266 121.141 24.8803C121.313 24.8375 121.481 24.8162 121.649 24.8162C121.892 24.8162 122.106 24.8482 122.296 24.9159C122.482 24.9836 122.603 25.0941 122.657 25.2509C122.76 25.5359 122.871 25.8673 122.989 26.245C123.107 26.6227 123.228 27.0111 123.35 27.4102C123.471 27.8092 123.589 28.2047 123.704 28.5931C123.818 28.9815 123.918 29.3307 124.004 29.6371C123.943 29.7084 123.857 29.7654 123.74 29.8082C123.622 29.8509 123.486 29.8723 123.321 29.8723C123.089 29.8723 122.925 29.8331 122.832 29.7512C122.735 29.6692 122.667 29.5445 122.625 29.3699L122.428 28.7143L122.424 28.7107ZM121.638 25.9421C121.563 26.1844 121.47 26.4624 121.359 26.7723C121.249 27.0823 121.145 27.3995 121.048 27.7237H122.21C122.117 27.3852 122.024 27.0574 121.931 26.7474C121.835 26.4374 121.756 26.1702 121.692 25.9421H121.642H121.638Z" fill="#D6DBE8"/>
<path d="M52.6825 20.308C52.4752 20.365 52.2 20.4149 51.8569 20.4648C51.5174 20.5111 51.1386 20.536 50.7204 20.536C49.8699 20.536 49.2588 20.3971 48.8871 20.1263C48.519 19.8519 48.3332 19.3174 48.3332 18.5264V11.4998C48.3332 10.8762 48.1616 10.4202 47.8221 10.128C47.4826 9.8358 47.018 9.68971 46.4319 9.68971C46.0531 9.68971 45.6993 9.75741 45.3669 9.88925C45.0345 10.0211 44.7379 10.1921 44.4735 10.3988C44.4913 10.495 44.5056 10.5876 44.5164 10.6803C44.5271 10.7765 44.5306 10.8691 44.5306 10.9618V20.308C44.3234 20.365 44.0482 20.4149 43.7051 20.4648C43.3656 20.5111 42.9868 20.536 42.5686 20.536C41.7181 20.536 41.107 20.3971 40.7353 20.1263C40.3672 19.8519 40.1813 19.3174 40.1813 18.5264V11.4998C40.1813 10.8762 39.9919 10.4202 39.6131 10.128C39.2343 9.8358 38.7697 9.68971 38.2229 9.68971C37.8262 9.68971 37.4653 9.75028 37.1436 9.875C36.822 9.99971 36.5575 10.1173 36.3467 10.2278V20.3116C36.1573 20.3686 35.8928 20.4184 35.5497 20.4683C35.2102 20.5147 34.8314 20.5396 34.4133 20.5396C33.5627 20.5396 32.9444 20.4006 32.5656 20.1298C32.1868 19.8555 31.9974 19.321 31.9974 18.53V9.77166C31.9974 9.27994 32.101 8.88443 32.3083 8.58156C32.5156 8.27869 32.8086 7.9972 33.1874 7.73352C33.8129 7.29882 34.5848 6.94962 35.5033 6.68595C36.4217 6.42227 37.3831 6.29044 38.3873 6.29044C39.1843 6.29044 39.9348 6.40089 40.6459 6.61469C41.3571 6.83204 42.004 7.16698 42.5937 7.6195C43.1619 7.2418 43.8052 6.92468 44.5235 6.6717C45.2418 6.41515 46.096 6.29044 47.0788 6.29044C47.8185 6.29044 48.5226 6.37952 49.1944 6.56124C49.8663 6.7394 50.4596 7.03514 50.9706 7.43778C51.4817 7.84398 51.8926 8.37133 52.2071 9.0234C52.5181 9.67546 52.6753 10.4629 52.6753 11.3893V20.3116L52.6825 20.308Z" fill="#6043DD"/>
<path d="M59.5869 15.323C59.8513 16.1176 60.3159 16.677 60.9806 17.0084C61.6418 17.3398 62.4101 17.5037 63.2821 17.5037C64.0791 17.5037 64.826 17.3968 65.5265 17.1794C66.2269 16.9621 66.7952 16.7233 67.2312 16.4561C67.5135 16.645 67.753 16.8908 67.9424 17.1937C68.1318 17.4966 68.2247 17.8279 68.2247 18.1842C68.2247 18.619 68.0925 18.9967 67.828 19.3173C67.5635 19.638 67.199 19.9088 66.7344 20.1262C66.2698 20.3435 65.7195 20.5039 65.0869 20.6072C64.4508 20.7105 63.7575 20.764 62.9998 20.764C61.8812 20.764 60.852 20.6072 59.9013 20.2972C58.9507 19.9872 58.1395 19.524 57.4569 18.9111C56.7743 18.2983 56.2382 17.5286 55.8522 16.6022C55.4627 15.6758 55.2697 14.5926 55.2697 13.3454C55.2697 12.0983 55.4627 11.09 55.8522 10.2027C56.2418 9.31549 56.76 8.57791 57.414 7.99355C58.068 7.40919 58.8149 6.97805 59.6583 6.70368C60.5017 6.42932 61.3666 6.29391 62.2565 6.29391C63.2214 6.29391 64.1077 6.44001 64.9118 6.73219C65.7159 7.02437 66.4092 7.43413 66.9846 7.96505C67.5635 8.4924 68.0103 9.12664 68.3355 9.86422C68.6571 10.6018 68.8179 11.4035 68.8179 12.2729C68.8179 12.8787 68.6571 13.3312 68.3355 13.6341C68.0138 13.9369 67.56 14.1329 66.9703 14.2291L59.5833 15.3337L59.5869 15.323ZM62.2851 9.48652C61.4702 9.48652 60.7948 9.73595 60.2551 10.2384C59.7155 10.7372 59.3974 11.4605 59.3045 12.4048L64.7295 11.5282C64.6902 11.0365 64.4722 10.5733 64.0755 10.1421C63.6788 9.70744 63.082 9.49009 62.2851 9.49009V9.48652Z" fill="#6043DD"/>
<path d="M75.6655 20.308C75.4761 20.3651 75.2116 20.4149 74.8686 20.4648C74.5291 20.5111 74.1502 20.5361 73.7321 20.5361C72.8815 20.5361 72.2633 20.3971 71.8845 20.1263C71.5056 19.852 71.3162 19.3175 71.3162 18.5265V9.88574C71.3162 9.35839 71.4485 8.90587 71.7129 8.52461C71.9774 8.14691 72.349 7.81554 72.8208 7.53404C73.4462 7.15635 74.1967 6.8606 75.0794 6.64325C75.9586 6.4259 76.8842 6.319 77.8491 6.319C79.8183 6.319 80.8046 6.98175 80.8046 8.30013C80.8046 8.62082 80.7582 8.913 80.6617 9.17667C80.5652 9.44035 80.4615 9.66839 80.3508 9.85724C79.9148 9.7646 79.3858 9.71471 78.7604 9.71471C78.2101 9.71471 77.6633 9.78241 77.1129 9.91425C76.5625 10.0461 76.0801 10.2242 75.6655 10.4523V20.308Z" fill="#6043DD"/>
<path d="M103.563 15.323C103.827 16.1176 104.292 16.677 104.956 17.0084C105.617 17.3398 106.386 17.5037 107.258 17.5037C108.055 17.5037 108.802 17.3968 109.502 17.1794C110.203 16.9621 110.771 16.7233 111.207 16.4561C111.489 16.645 111.729 16.8908 111.918 17.1937C112.107 17.4966 112.2 17.8279 112.2 18.1842C112.2 18.619 112.068 18.9967 111.804 19.3173C111.539 19.638 111.175 19.9088 110.71 20.1262C110.246 20.3435 109.695 20.5039 109.063 20.6072C108.426 20.7105 107.733 20.764 106.976 20.764C105.857 20.764 104.828 20.6072 103.877 20.2972C102.926 19.9872 102.115 19.524 101.433 18.9111C100.75 18.2983 100.214 17.5286 99.8279 16.6022C99.4384 15.6758 99.2454 14.5926 99.2454 13.3454C99.2454 12.0983 99.4384 11.09 99.8279 10.2027C100.217 9.31549 100.736 8.57791 101.39 7.99355C102.044 7.40919 102.791 6.97805 103.634 6.70368C104.477 6.42932 105.342 6.29391 106.232 6.29391C107.197 6.29391 108.083 6.44001 108.887 6.73219C109.692 7.02437 110.385 7.43413 110.96 7.96505C111.539 8.4924 111.986 9.12664 112.311 9.86422C112.633 10.6018 112.794 11.4035 112.794 12.2729C112.794 12.8787 112.633 13.3312 112.311 13.6341C111.99 13.9369 111.536 14.1329 110.946 14.2291L103.559 15.3337L103.563 15.323ZM106.261 9.48652C105.446 9.48652 104.77 9.73595 104.231 10.2384C103.691 10.7372 103.373 11.4605 103.28 12.4048L108.705 11.5282C108.666 11.0365 108.448 10.5733 108.051 10.1421C107.655 9.70744 107.058 9.49009 106.261 9.49009V9.48652Z" fill="#6043DD"/>
<path d="M123.05 19.0079H115.052C114.635 19.0079 114.298 19.3445 114.298 19.7597V19.7847C114.298 20.1999 114.635 20.5365 115.052 20.5365H123.05C123.466 20.5365 123.804 20.1999 123.804 19.7847V19.7597C123.804 19.3445 123.466 19.0079 123.05 19.0079Z" fill="url(#paint0_linear_13209_14386)"/>
<path d="M97.387 25.6355C97.387 29.9185 93.8918 33.4033 89.5961 33.4033C86.5155 33.4033 83.8495 31.6145 82.5879 29.017C82.5808 28.9992 82.5701 28.9814 82.5629 28.9671C82.5307 28.8994 82.4986 28.8246 82.47 28.7533C82.4628 28.7391 82.4557 28.7212 82.4521 28.707C82.3842 28.5181 82.3449 28.3186 82.3449 28.1084C82.3449 27.9124 82.3735 27.7271 82.4307 27.5525C82.4879 27.3744 82.5736 27.2105 82.6808 27.0608H85.6578C85.7114 27.1321 85.7543 27.2105 85.7972 27.2888C85.8151 27.3316 85.8329 27.3708 85.8544 27.4136C85.8579 27.4171 85.8579 27.4207 85.8579 27.4242C86.5262 28.8103 87.9522 29.7724 89.5925 29.7724C91.8833 29.7724 93.7417 27.916 93.7417 25.6355C93.7417 23.3551 91.8798 21.4987 89.5925 21.4987V18.3916C89.5925 18.2134 89.5747 18.0388 89.5389 17.8678H89.5925C93.8882 17.8678 97.3834 21.3526 97.3834 25.6355H97.387Z" fill="url(#paint1_linear_13209_14386)"/>
<path d="M89.596 21.4948C85.3003 21.4948 81.8052 18.01 81.8052 13.7271C81.8052 9.44411 85.3003 5.95932 89.596 5.95932C93.8917 5.95932 97.3869 9.44411 97.3869 13.7271C97.3869 18.01 93.8917 21.4948 89.596 21.4948ZM89.596 9.58664C87.3088 9.58664 85.4469 11.4431 85.4469 13.7271C85.4469 16.0111 87.3088 17.8639 89.596 17.8639C91.8833 17.8639 93.7488 16.0075 93.7488 13.7271C93.7488 11.4466 91.8868 9.58664 89.596 9.58664Z" fill="url(#paint2_linear_13209_14386)"/>
<path opacity="0.52" d="M89.8963 17.8534C89.8963 17.8534 92.9769 17.8249 94.5958 19.6813C94.5958 19.6813 96.9402 17.4259 97.1654 15.5766L93.7488 14.1584C93.7488 14.1584 93.5308 17.4686 89.8963 17.8534Z" fill="url(#paint3_linear_13209_14386)"/>
<path d="M82.2269 25.4677C83.2572 25.4677 84.0924 24.635 84.0924 23.6078C84.0924 22.5805 83.2572 21.7478 82.2269 21.7478C81.1966 21.7478 80.3614 22.5805 80.3614 23.6078C80.3614 24.635 81.1966 25.4677 82.2269 25.4677Z" fill="#1BE2C5"/>
<path d="M85.9972 28.1082C85.9972 29.1094 85.1788 29.9254 84.171 29.9254C83.4991 29.9254 82.913 29.562 82.5914 29.0168C82.5843 28.999 82.5735 28.9812 82.5664 28.9669C82.5342 28.8992 82.5021 28.8244 82.4735 28.7531C82.4663 28.7389 82.4592 28.7211 82.4556 28.7068C82.3877 28.518 82.3484 28.3184 82.3484 28.1082C82.3484 27.9122 82.377 27.7269 82.4342 27.5523C82.4913 27.3706 82.5771 27.2067 82.6843 27.0535C83.0167 26.5867 83.5599 26.2838 84.171 26.2838C84.7821 26.2838 85.3289 26.5867 85.6613 27.0535C85.6613 27.0571 85.6649 27.0571 85.6649 27.0606C85.7185 27.1319 85.7614 27.2103 85.8042 27.2887C85.8257 27.3279 85.8436 27.3671 85.8614 27.4134C85.865 27.4169 85.865 27.4205 85.865 27.4241C85.9508 27.6343 86.0008 27.8623 86.0008 28.1082H85.9972Z" fill="#1BE2C5"/>
<path d="M97.5263 3.81801C98.4184 3.81801 99.1417 3.09694 99.1417 2.20745C99.1417 1.31796 98.4184 0.596893 97.5263 0.596893C96.6342 0.596893 95.9109 1.31796 95.9109 2.20745C95.9109 3.09694 96.6342 3.81801 97.5263 3.81801Z" fill="#6043DD"/>
<path d="M87.7449 6.18023C87.7449 6.18023 91.3223 5.7669 93.3915 3.92473C93.9455 3.43302 94.7567 3.36175 95.375 3.76439C96.3327 4.39151 96.3542 5.77403 95.4286 6.4439C94.3707 7.20999 92.9019 8.02596 91.2365 8.26469L87.7485 6.17666L87.7449 6.18023Z" fill="#6043DD"/>
</g>
<defs>
<linearGradient id="paint0_linear_13209_14386" x1="115.323" y1="19.7704" x2="124.097" y2="19.7704" gradientUnits="userSpaceOnUse">
<stop stop-color="#6043DD"/>
<stop offset="1" stop-color="#1BE2C5"/>
</linearGradient>
<linearGradient id="paint1_linear_13209_14386" x1="87.7235" y1="15.8902" x2="89.653" y2="25.5736" gradientUnits="userSpaceOnUse">
<stop stop-color="#6043DD"/>
<stop offset="1" stop-color="#1BE2C5"/>
</linearGradient>
<linearGradient id="paint2_linear_13209_14386" x1="89.907" y1="15.2842" x2="91.8578" y2="25.0602" gradientUnits="userSpaceOnUse">
<stop stop-color="#6043DD"/>
<stop offset="1" stop-color="#1BE2C5"/>
</linearGradient>
<linearGradient id="paint3_linear_13209_14386" x1="94.5387" y1="14.9744" x2="92.1021" y2="19.7585" gradientUnits="userSpaceOnUse">
<stop stop-opacity="0"/>
<stop offset="1"/>
</linearGradient>
<clipPath id="clip0_13209_14386">
<rect width="92" height="32.8062" fill="white" transform="translate(32 0.596893)"/>
</clipPath>
</defs>
</svg>
