<svg width="35" height="60" viewBox="0 0 35 60" fill="none" xmlns="http://www.w3.org/2000/svg">
<path d="M31.1383 45.7934C31.1383 53.6265 24.746 60 16.8895 60C11.2553 60 6.3793 56.7285 4.07203 51.9778C4.05896 51.9452 4.03934 51.9126 4.02627 51.8866C3.96745 51.7627 3.90862 51.6259 3.85633 51.4956C3.84326 51.4695 3.83019 51.4369 3.82365 51.4108C3.69946 51.0654 3.62756 50.7005 3.62756 50.316C3.62756 49.9576 3.67986 49.6187 3.78444 49.2994C3.88901 48.9736 4.04588 48.6738 4.24197 48.4001H9.6866C9.78465 48.5304 9.86308 48.6738 9.94151 48.8172C9.9742 48.8954 10.0069 48.967 10.0461 49.0452C10.0526 49.0518 10.0526 49.0583 10.0526 49.0648C11.2749 51.5998 13.8828 53.3594 16.8829 53.3594C21.0726 53.3594 24.4714 49.9641 24.4714 45.7934C24.4714 41.6226 21.0661 38.2274 16.8829 38.2274V32.5448C16.8829 32.2189 16.8503 31.8996 16.7849 31.5868H16.8829C24.7394 31.5868 31.1318 37.9602 31.1318 45.7934H31.1383Z" fill="url(#paint0_linear_23_3940)"/>
<path d="M16.8895 38.2209C9.03301 38.2209 2.64062 31.8475 2.64062 24.0143C2.64062 16.1811 9.03301 9.80774 16.8895 9.80774C24.746 9.80774 31.1384 16.1811 31.1384 24.0143C31.1384 31.8475 24.746 38.2209 16.8895 38.2209ZM16.8895 16.4418C12.7063 16.4418 9.30099 19.8371 9.30099 24.0143C9.30099 28.1916 12.7063 31.5803 16.8895 31.5803C21.0727 31.5803 24.4845 28.1851 24.4845 24.0143C24.4845 19.8436 21.0792 16.4418 16.8895 16.4418Z" fill="url(#paint1_linear_23_3940)"/>
<path opacity="0.52" d="M17.4385 31.5608C17.4385 31.5608 23.0727 31.5086 26.0336 34.9039C26.0336 34.9039 30.3213 30.7787 30.7331 27.3965L24.4845 24.8029C24.4845 24.8029 24.0858 30.8569 17.4385 31.5608Z" fill="url(#paint2_linear_23_3940)"/>
<path d="M3.41188 45.4871C5.29621 45.4871 6.82376 43.9641 6.82376 42.0854C6.82376 40.2066 5.29621 38.6836 3.41188 38.6836C1.52754 38.6836 0 40.2066 0 42.0854C0 43.9641 1.52754 45.4871 3.41188 45.4871Z" fill="#1BE2C5"/>
<path d="M10.3075 50.3161C10.3075 52.1473 8.81074 53.6396 6.96754 53.6396C5.73874 53.6396 4.66681 52.9749 4.07855 51.9779C4.06548 51.9453 4.04587 51.9127 4.0328 51.8866C3.97398 51.7628 3.91514 51.626 3.86285 51.4956C3.84978 51.4696 3.83671 51.437 3.83017 51.4109C3.70598 51.0655 3.63409 50.7006 3.63409 50.3161C3.63409 49.9577 3.68638 49.6188 3.79096 49.2995C3.89554 48.9671 4.05241 48.6673 4.2485 48.3871C4.85636 47.5334 5.84985 46.9795 6.96754 46.9795C8.08523 46.9795 9.08526 47.5334 9.69313 48.3871C9.69313 48.3936 9.69967 48.3936 9.69967 48.4002C9.79771 48.5305 9.87614 48.6739 9.95458 48.8172C9.9938 48.8889 10.0265 48.9606 10.0592 49.0453C10.0657 49.0518 10.0657 49.0583 10.0657 49.0649C10.2226 49.4494 10.3141 49.8664 10.3141 50.3161H10.3075Z" fill="#1BE2C5"/>
<path d="M31.3933 5.89117C33.0249 5.89117 34.3476 4.57239 34.3476 2.94558C34.3476 1.31878 33.0249 0 31.3933 0C29.7616 0 28.4389 1.31878 28.4389 2.94558C28.4389 4.57239 29.7616 5.89117 31.3933 5.89117Z" fill="#6043DD"/>
<path d="M13.5037 10.2118C13.5037 10.2118 20.0464 9.45586 23.8309 6.08668C24.844 5.18737 26.3277 5.05703 27.4585 5.79343C29.2102 6.94038 29.2494 9.46889 27.5565 10.694C25.6218 12.0952 22.9354 13.5875 19.8896 14.0241L13.5103 10.2053L13.5037 10.2118Z" fill="#6043DD"/>
<defs>
<linearGradient id="paint0_linear_23_3940" x1="13.4645" y1="27.97" x2="16.9934" y2="45.6801" gradientUnits="userSpaceOnUse">
<stop stop-color="#6043DD"/>
<stop offset="1" stop-color="#1BE2C5"/>
</linearGradient>
<linearGradient id="paint1_linear_23_3940" x1="17.4581" y1="26.8622" x2="21.0261" y2="44.7418" gradientUnits="userSpaceOnUse">
<stop stop-color="#6043DD"/>
<stop offset="1" stop-color="#1BE2C5"/>
</linearGradient>
<linearGradient id="paint2_linear_23_3940" x1="25.929" y1="26.2952" x2="21.4728" y2="35.0449" gradientUnits="userSpaceOnUse">
<stop stop-opacity="0"/>
<stop offset="1"/>
</linearGradient>
</defs>
</svg>
