<svg width="132" height="47" viewBox="0 0 132 47" fill="none" xmlns="http://www.w3.org/2000/svg">
<g clip-path="url(#clip0_22_666)">
<path d="M29.6735 28.2398C29.3761 28.3215 28.9812 28.3929 28.489 28.4644C28.0019 28.5308 27.4583 28.5665 26.8584 28.5665C25.638 28.5665 24.7612 28.3674 24.2279 27.9795C23.6998 27.5864 23.4332 26.8207 23.4332 25.6874V15.6207C23.4332 14.7274 23.187 14.0739 22.6999 13.6554C22.2128 13.2368 21.5462 13.0275 20.7053 13.0275C20.1618 13.0275 19.6541 13.1245 19.1773 13.3133C18.7004 13.5022 18.2748 13.7472 17.8954 14.0433C17.921 14.1811 17.9415 14.3139 17.9569 14.4466C17.9723 14.5844 17.9774 14.7172 17.9774 14.8499V28.2398C17.68 28.3215 17.2852 28.3929 16.7929 28.4644C16.3058 28.5308 15.7623 28.5665 15.1623 28.5665C13.942 28.5665 13.0651 28.3674 12.5319 27.9795C12.0037 27.5864 11.7371 26.8207 11.7371 25.6874V15.6207C11.7371 14.7274 11.4653 14.0739 10.9218 13.6554C10.3783 13.2368 9.71169 13.0275 8.92717 13.0275C8.358 13.0275 7.84011 13.1142 7.37863 13.2929C6.91714 13.4716 6.5377 13.64 6.23517 13.7983V28.2449C5.96341 28.3266 5.58397 28.3981 5.09172 28.4695C4.60459 28.5359 4.06107 28.5716 3.46114 28.5716C2.24077 28.5716 1.35369 28.3725 0.810163 27.9846C0.266636 27.5915 -0.00512695 26.8258 -0.00512695 25.6925V13.1449C-0.00512695 12.4404 0.143574 11.8738 0.440975 11.4399C0.738376 11.006 1.15884 10.6027 1.70237 10.2249C2.5997 9.60213 3.70726 9.10186 5.02506 8.72411C6.34285 8.34635 7.72218 8.15747 9.16304 8.15747C10.3065 8.15747 11.3833 8.31572 12.4037 8.62201C13.4241 8.9334 14.3522 9.41325 15.1982 10.0616C16.0135 9.52046 16.9365 9.06613 17.9671 8.70369C18.9978 8.33614 20.2233 8.15747 21.6334 8.15747C22.6948 8.15747 23.7049 8.28509 24.6689 8.54544C25.6329 8.80068 26.4841 9.22438 27.2173 9.80122C27.9506 10.3832 28.5403 11.1387 28.9915 12.0729C29.4376 13.007 29.6632 14.1352 29.6632 15.4625V28.2449L29.6735 28.2398Z" fill="#6043DD"/>
<path d="M39.5799 21.0982C39.9593 22.2366 40.6259 23.038 41.5797 23.5128C42.5283 23.9875 43.6307 24.2223 44.8818 24.2223C46.0253 24.2223 47.097 24.0692 48.102 23.7578C49.107 23.4464 49.9223 23.1044 50.5478 22.7215C50.9529 22.9921 51.2965 23.3443 51.5682 23.7782C51.84 24.2121 51.9733 24.6869 51.9733 25.1974C51.9733 25.8201 51.7836 26.3613 51.4042 26.8207C51.0247 27.2801 50.5017 27.6681 49.8351 27.9795C49.1685 28.2909 48.3789 28.5206 47.4713 28.6686C46.5586 28.8167 45.5638 28.8932 44.4768 28.8932C42.8718 28.8932 41.3951 28.6686 40.0311 28.2245C38.6672 27.7804 37.5032 27.1168 36.5238 26.2387C35.5445 25.3607 34.7753 24.2581 34.2215 22.9308C33.6626 21.6036 33.3857 20.0517 33.3857 18.265C33.3857 16.4783 33.6626 15.0337 34.2215 13.7626C34.7805 12.4915 35.524 11.4348 36.4623 10.5976C37.4007 9.7604 38.4723 9.14272 39.6824 8.74965C40.8926 8.35658 42.1334 8.1626 43.4102 8.1626C44.7947 8.1626 46.0663 8.37189 47.22 8.79049C48.3737 9.20908 49.3685 9.79614 50.194 10.5568C51.0247 11.3123 51.6657 12.2209 52.1323 13.2776C52.5938 14.3343 52.8245 15.4829 52.8245 16.7285C52.8245 17.5963 52.5938 18.2446 52.1323 18.6785C51.6708 19.1124 51.0196 19.3932 50.1735 19.531L39.5748 21.1135L39.5799 21.0982ZM43.4512 12.7365C42.2821 12.7365 41.313 13.0938 40.5388 13.8136C39.7645 14.5283 39.3081 15.5646 39.1748 16.9173L46.9585 15.6616C46.9021 14.9571 46.5893 14.2935 46.0202 13.6758C45.451 13.053 44.5947 12.7416 43.4512 12.7416V12.7365Z" fill="#6043DD"/>
<path d="M62.649 28.2399C62.3772 28.3215 61.9978 28.393 61.5055 28.4645C61.0184 28.5308 60.4749 28.5666 59.875 28.5666C58.6546 28.5666 57.7675 28.3675 57.224 27.9795C56.6805 27.5864 56.4087 26.8207 56.4087 25.6874V13.3083C56.4087 12.5528 56.5984 11.9045 56.9779 11.3582C57.3573 10.8171 57.8906 10.3424 58.5674 9.9391C59.4647 9.39799 60.5415 8.9743 61.8081 8.6629C63.0695 8.35151 64.3975 8.19836 65.782 8.19836C68.6073 8.19836 70.0225 9.14786 70.0225 11.0366C70.0225 11.4961 69.9558 11.9147 69.8174 12.2924C69.6789 12.6702 69.5302 12.9969 69.3713 13.2674C68.7457 13.1347 67.9868 13.0632 67.0895 13.0632C66.2998 13.0632 65.5153 13.1602 64.7257 13.3491C63.936 13.538 63.2438 13.7932 62.649 14.1199V28.2399Z" fill="#6043DD"/>
<path d="M102.675 21.0982C103.055 22.2366 103.721 23.038 104.675 23.5128C105.623 23.9875 106.726 24.2223 107.977 24.2223C109.121 24.2223 110.192 24.0692 111.197 23.7578C112.202 23.4464 113.017 23.1044 113.643 22.7215C114.048 22.9921 114.392 23.3443 114.663 23.7782C114.935 24.2121 115.069 24.6869 115.069 25.1974C115.069 25.8201 114.879 26.3613 114.499 26.8207C114.12 27.2801 113.597 27.6681 112.93 27.9795C112.264 28.2909 111.474 28.5206 110.566 28.6686C109.654 28.8167 108.659 28.8932 107.572 28.8932C105.967 28.8932 104.49 28.6686 103.126 28.2245C101.762 27.7804 100.598 27.1168 99.6191 26.2387C98.6397 25.3607 97.8705 24.2581 97.3168 22.9308C96.7578 21.6036 96.481 20.0517 96.481 18.265C96.481 16.4783 96.7578 15.0337 97.3168 13.7626C97.8757 12.4915 98.6192 11.4348 99.5575 10.5976C100.496 9.7604 101.568 9.14272 102.778 8.74965C103.988 8.35658 105.229 8.1626 106.505 8.1626C107.89 8.1626 109.162 8.37189 110.315 8.79049C111.469 9.20908 112.464 9.79614 113.289 10.5568C114.12 11.3123 114.761 12.2209 115.227 13.2776C115.689 14.3343 115.92 15.4829 115.92 16.7285C115.92 17.5963 115.689 18.2446 115.227 18.6785C114.766 19.1124 114.115 19.3932 113.269 19.531L102.67 21.1135L102.675 21.0982ZM106.546 12.7365C105.377 12.7365 104.408 13.0938 103.634 13.8136C102.86 14.5283 102.403 15.5646 102.27 16.9173L110.054 15.6616C109.997 14.9571 109.685 14.2935 109.115 13.6758C108.546 13.053 107.69 12.7416 106.546 12.7416V12.7365Z" fill="#6043DD"/>
<path d="M130.636 26.3766H119.161C118.563 26.3766 118.079 26.8588 118.079 27.4537V27.4894C118.079 28.0843 118.563 28.5666 119.161 28.5666H130.636C131.234 28.5666 131.718 28.0843 131.718 27.4894V27.4537C131.718 26.8588 131.234 26.3766 130.636 26.3766Z" fill="url(#paint0_linear_22_666)"/>
<path d="M93.8145 35.8715C93.8145 42.0075 88.7997 47 82.6363 47C78.2163 47 74.3911 44.4374 72.5811 40.716C72.5708 40.6905 72.5555 40.6649 72.5452 40.6445C72.4991 40.5475 72.4529 40.4403 72.4119 40.3382C72.4016 40.3178 72.3914 40.2923 72.3863 40.2719C72.2888 40.0013 72.2324 39.7155 72.2324 39.4143C72.2324 39.1335 72.2734 38.8681 72.3555 38.6179C72.4375 38.3627 72.5606 38.1279 72.7144 37.9135H76.9857C77.0626 38.0155 77.1242 38.1279 77.1857 38.2402C77.2113 38.3014 77.237 38.3576 77.2677 38.4188C77.2729 38.4239 77.2729 38.429 77.2729 38.4341C78.2317 40.4199 80.2776 41.7982 82.6312 41.7982C85.918 41.7982 88.5844 39.1386 88.5844 35.8715C88.5844 32.6044 85.9129 29.9448 82.6312 29.9448V25.4934C82.6312 25.2382 82.6056 24.9881 82.5543 24.743H82.6312C88.7946 24.743 93.8094 29.7355 93.8094 35.8715H93.8145Z" fill="url(#paint1_linear_22_666)"/>
<path d="M82.6364 29.9397C76.4731 29.9397 71.4583 24.9472 71.4583 18.8112C71.4583 12.6752 76.4731 7.68274 82.6364 7.68274C88.7998 7.68274 93.8146 12.6752 93.8146 18.8112C93.8146 24.9472 88.7998 29.9397 82.6364 29.9397ZM82.6364 12.8794C79.3548 12.8794 76.6833 15.539 76.6833 18.8112C76.6833 22.0834 79.3548 24.7379 82.6364 24.7379C85.9181 24.7379 88.5947 22.0783 88.5947 18.8112C88.5947 15.5441 85.9232 12.8794 82.6364 12.8794Z" fill="url(#paint2_linear_22_666)"/>
<path opacity="0.52" d="M83.0671 24.7226C83.0671 24.7226 87.4871 24.6818 89.8099 27.3414C89.8099 27.3414 93.1736 24.1101 93.4967 21.4607L88.5947 19.429C88.5947 19.429 88.2819 24.1713 83.0671 24.7226Z" fill="url(#paint3_linear_22_666)"/>
<path d="M72.0633 35.6315C73.5416 35.6315 74.7399 34.4385 74.7399 32.9668C74.7399 31.4952 73.5416 30.3021 72.0633 30.3021C70.5851 30.3021 69.3867 31.4952 69.3867 32.9668C69.3867 34.4385 70.5851 35.6315 72.0633 35.6315Z" fill="#1BE2C5"/>
<path d="M77.4731 39.4142C77.4731 40.8487 76.2989 42.0177 74.8529 42.0177C73.8889 42.0177 73.048 41.497 72.5865 40.7159C72.5762 40.6904 72.5608 40.6649 72.5506 40.6445C72.5044 40.5475 72.4583 40.4403 72.4173 40.3382C72.407 40.3178 72.3967 40.2922 72.3916 40.2718C72.2942 40.0013 72.2378 39.7154 72.2378 39.4142C72.2378 39.1334 72.2788 38.868 72.3609 38.6179C72.4429 38.3575 72.566 38.1227 72.7198 37.9032C73.1967 37.2344 73.976 36.8005 74.8529 36.8005C75.7297 36.8005 76.5142 37.2344 76.9911 37.9032C76.9911 37.9083 76.9962 37.9083 76.9962 37.9134C77.0731 38.0155 77.1347 38.1278 77.1962 38.2401C77.227 38.2963 77.2526 38.3524 77.2782 38.4188C77.2834 38.4239 77.2834 38.429 77.2834 38.4341C77.4064 38.7353 77.4782 39.062 77.4782 39.4142H77.4731Z" fill="#1BE2C5"/>
<path d="M94.0147 4.61475C95.2947 4.61475 96.3324 3.5817 96.3324 2.30737C96.3324 1.03305 95.2947 0 94.0147 0C92.7347 0 91.697 1.03305 91.697 2.30737C91.697 3.5817 92.7347 4.61475 94.0147 4.61475Z" fill="#6043DD"/>
<path d="M79.9805 7.99928C79.9805 7.99928 85.1132 7.40712 88.0821 4.76793C88.8769 4.06347 90.0408 3.96137 90.9279 4.53822C92.3021 5.43666 92.3329 7.41733 91.0048 8.37704C89.4871 9.47457 87.3796 10.6436 84.9901 10.9856L79.9856 7.99417L79.9805 7.99928Z" fill="#6043DD"/>
</g>
<defs>
<linearGradient id="paint0_linear_22_666" x1="119.55" y1="27.469" x2="132.139" y2="27.469" gradientUnits="userSpaceOnUse">
<stop stop-color="#6043DD"/>
<stop offset="1" stop-color="#1BE2C5"/>
</linearGradient>
<linearGradient id="paint1_linear_22_666" x1="79.9495" y1="21.9099" x2="82.71" y2="35.7844" gradientUnits="userSpaceOnUse">
<stop stop-color="#6043DD"/>
<stop offset="1" stop-color="#1BE2C5"/>
</linearGradient>
<linearGradient id="paint2_linear_22_666" x1="83.0825" y1="21.042" x2="85.8736" y2="35.0493" gradientUnits="userSpaceOnUse">
<stop stop-color="#6043DD"/>
<stop offset="1" stop-color="#1BE2C5"/>
</linearGradient>
<linearGradient id="paint3_linear_22_666" x1="89.7279" y1="20.598" x2="86.2402" y2="27.4561" gradientUnits="userSpaceOnUse">
<stop stop-opacity="0"/>
<stop offset="1"/>
</linearGradient>
<clipPath id="clip0_22_666">
<rect width="132" height="47" fill="white"/>
</clipPath>
</defs>
</svg>
