<svg width="58" height="58" viewBox="0 0 58 58" fill="none" xmlns="http://www.w3.org/2000/svg">
<rect width="58" height="58" rx="29" fill="#0D102C"/>
<rect x="1" y="1" width="56" height="56" rx="28" fill="#6043DD"/>
<path d="M25 26.5C24.3096 26.5 23.75 27.0597 23.75 27.75C23.75 28.4404 24.3096 29 25 29C25.6904 29 26.25 28.4404 26.25 27.75C26.25 27.0597 25.6904 26.5 25 26.5Z" fill="white"/>
<path d="M29 26.5C28.3096 26.5 27.75 27.0597 27.75 27.75C27.75 28.4404 28.3096 29 29 29C29.6904 29 30.25 28.4404 30.25 27.75C30.25 27.0597 29.6904 26.5 29 26.5Z" fill="white"/>
<path d="M31.75 27.75C31.75 27.0597 32.3096 26.5 33 26.5C33.6904 26.5 34.25 27.0597 34.25 27.75C34.25 28.4404 33.6904 29 33 29C32.3096 29 31.75 28.4404 31.75 27.75Z" fill="white"/>
<path fill-rule="evenodd" clip-rule="evenodd" d="M33.1007 21.5928C30.4065 21.3631 27.6983 21.3497 25.0019 21.553L24.8087 21.5675C22.2374 21.7613 20.25 23.9041 20.25 26.4827V35C20.25 35.2639 20.3887 35.5084 20.6151 35.6438C20.8416 35.7792 21.1226 35.7856 21.355 35.6607L25.2658 33.559C25.4477 33.4612 25.651 33.41 25.8576 33.41H34.834C35.9661 33.41 36.9362 32.6006 37.1392 31.4869C37.5505 29.2297 37.5829 26.9197 37.2353 24.6518L37.1329 23.9835C36.9464 22.7667 35.951 21.8359 34.7245 21.7313L33.1007 21.5928ZM25.1147 23.0487C27.731 22.8515 30.359 22.8645 32.9733 23.0874L34.597 23.2259C35.1334 23.2716 35.5686 23.6787 35.6502 24.2107L35.7526 24.8791C36.075 26.9823 36.0449 29.1246 35.6635 31.218C35.5904 31.6188 35.2413 31.91 34.834 31.91H25.8576C25.4032 31.91 24.956 32.0226 24.5558 32.2377L21.75 33.7455V26.4827C21.75 24.6888 23.1326 23.1981 24.9214 23.0633L25.1147 23.0487Z" fill="white"/>
</svg>
