<svg width="12" height="12" viewBox="0 0 12 12" fill="none" xmlns="http://www.w3.org/2000/svg">
<path fill-rule="evenodd" clip-rule="evenodd" d="M2.66752 0.166626C2.94366 0.166626 3.16752 0.390484 3.16752 0.666626V1.77838C5.05268 1.61049 6.94903 1.61049 8.83419 1.77838V0.666626C8.83419 0.390484 9.05805 0.166626 9.33419 0.166626C9.61033 0.166626 9.83419 0.390484 9.83419 0.666626V1.87758C10.8296 2.01832 11.6159 2.8056 11.749 3.80985L11.8067 4.24515C12.0494 6.07604 12.0284 7.93225 11.7445 9.75719C11.6038 10.6612 10.8694 11.3556 9.95887 11.4454L9.16353 11.5238C7.06017 11.7312 4.9415 11.7312 2.83814 11.5238L2.0428 11.4454C1.13231 11.3556 0.397869 10.6612 0.257195 9.75719C-0.0267766 7.93225 -0.047737 6.07604 0.194953 4.24515L0.252654 3.80985C0.385772 2.80559 1.17214 2.0183 2.16752 1.87758V0.666626C2.16752 0.390484 2.39138 0.166626 2.66752 0.166626ZM2.9643 2.80183C4.98376 2.60268 7.01791 2.60268 9.03737 2.80183L9.64101 2.86136C10.2188 2.91834 10.6814 3.36565 10.7577 3.94125L10.8154 4.37655C10.8355 4.52863 10.8538 4.68089 10.8701 4.83329H1.13156C1.14788 4.68089 1.16612 4.52863 1.18628 4.37656L1.24398 3.94125C1.32028 3.36565 1.78283 2.91834 2.36066 2.86136L2.9643 2.80183ZM1.05208 5.83329C0.986622 7.09201 1.05111 8.35544 1.2453 9.60344C1.31586 10.0569 1.68425 10.4052 2.14094 10.4502L2.93628 10.5286C4.97437 10.7296 7.0273 10.7296 9.06539 10.5286L9.86073 10.4502C10.3174 10.4052 10.6858 10.0569 10.7564 9.60344C10.9506 8.35544 11.015 7.09201 10.9496 5.83329H1.05208Z" fill="#8B93A9"/>
</svg>
