<svg width="60" height="20" viewBox="0 0 60 20" fill="none" xmlns="http://www.w3.org/2000/svg">
<g clipPath="url(#clip0_31_2781)">
<path d="M7.77289 5.01855C3.6452 5.01855 0.304443 8.35931 0.304443 12.487C0.304443 16.6147 3.6452 19.9555 7.77289 19.9555C11.9006 19.9555 15.2413 16.6147 15.2413 12.487C15.2413 8.35931 11.9006 5.01855 7.77289 5.01855ZM7.77289 16.2287C5.70905 16.2287 4.03124 14.5508 4.03124 12.487C4.03124 10.4232 5.70905 8.74536 7.77289 8.74536C9.83674 8.74536 11.5145 10.4232 11.5145 12.487C11.5145 14.5508 9.83674 16.2287 7.77289 16.2287Z" fill="#505A78"/>
<path d="M20.8983 14.9963C20.8983 14.4024 21.611 14.1203 22.0268 14.536C23.8976 16.4365 26.9859 19.703 27.0008 19.7179C27.0453 19.7624 27.0899 19.8367 27.268 19.8961C27.3423 19.9258 27.4611 19.9258 27.5947 19.9258H30.9651C31.5739 19.9258 31.7521 19.2279 31.47 18.8716L25.8872 13.1552L25.5902 12.8582C24.9518 12.101 25.026 11.804 25.7536 11.0319L30.1782 6.0876C30.4603 5.73126 30.2821 5.04826 29.6585 5.04826H26.5999C26.4811 5.04826 26.392 5.04826 26.3029 5.07795C26.1248 5.13734 26.0505 5.19673 26.006 5.25612C25.9911 5.27097 23.5412 7.91388 22.0268 9.53229C21.611 9.97773 20.8686 9.68077 20.8686 9.07201V0.593912C20.8686 0.163326 20.5123 0 20.2302 0H17.7357C17.3052 0 17.0973 0.282108 17.0973 0.534521V19.3318C17.0973 19.7624 17.4536 19.8812 17.7506 19.8812H20.245C20.6311 19.8812 20.8835 19.5991 20.8835 19.317V19.124V14.9963H20.8983Z" fill="#505A78"/>
<path d="M41.2696 19.2428L41.0023 16.7483C40.9726 16.4068 40.646 16.1693 40.3045 16.2287C40.1114 16.2584 39.9184 16.2732 39.7254 16.2732C37.7358 16.2732 36.1174 14.7142 35.9986 12.7394C35.9986 12.68 35.9986 12.6058 35.9986 12.5316V9.4729C35.9986 9.07201 36.2956 8.74536 36.6965 8.74536H40.0372C40.2748 8.74536 40.6311 8.53749 40.6311 8.1069V5.7461C40.6311 5.28582 40.3342 5.04826 40.0669 5.04826H36.6965C36.3104 5.04826 35.9986 4.76615 35.9838 4.3801V0.593912C35.9838 0.356347 35.8056 0 35.3453 0H32.8657C32.5539 0 32.257 0.193022 32.257 0.579065C32.257 0.579065 32.257 12.68 32.257 12.7394C32.3609 16.778 35.672 20 39.7254 20C40.0669 20 40.3936 19.9703 40.7202 19.9258C41.0766 19.8812 41.3141 19.5843 41.2696 19.2428Z" fill="#505A78"/>
<path d="M59.2651 16.1098C57.1567 16.1098 56.83 15.3526 56.83 12.5167C56.83 12.5018 56.83 12.5018 56.83 12.487V5.67181C56.83 5.43425 56.6519 5.03336 56.1767 5.03336H53.6823C53.3705 5.03336 53.029 5.28577 53.029 5.67181V5.98362C51.9451 5.36001 50.683 5.00366 49.3467 5.00366C45.2191 5.00366 41.8783 8.34442 41.8783 12.4721C41.8783 16.5998 45.2191 19.9406 49.3467 19.9406C51.2027 19.9406 52.8954 19.2576 54.202 18.144C54.8998 19.213 56.0283 19.9257 57.7952 19.9406C58.0921 19.9406 59.6957 20 59.6957 19.2427V16.585C59.6957 16.3622 59.5175 16.1098 59.2651 16.1098ZM49.3616 16.2286C47.2977 16.2286 45.6199 14.5508 45.6199 12.487C45.6199 10.4231 47.2977 8.74531 49.3616 8.74531C51.4254 8.74531 53.1032 10.4231 53.1032 12.487C53.0884 14.5508 51.4106 16.2286 49.3616 16.2286Z" fill="#505A78"/>
</g>
<defs>
<clipPath id="clip0_31_2781">
<rect width="59.3912" height="20" fill="white" transform="translate(0.304443)"/>
</clipPath>
</defs>
</svg>
