<svg width="23" height="24" viewBox="0 0 23 24" fill="none" xmlns="http://www.w3.org/2000/svg">
<path fill-rule="evenodd" clip-rule="evenodd" d="M5.59681 9.85641C7.30966 13.7483 10.3576 16.8425 14.1466 18.5191L14.1586 18.5244L14.8906 18.8648C15.8227 19.2982 16.9183 18.9904 17.5159 18.1273L18.7372 16.3636C18.8118 16.2558 18.7926 16.106 18.6934 16.0226L16.5614 14.2278C16.4554 14.1385 16.2995 14.1593 16.2185 14.2735L15.3887 15.4419C15.1872 15.7256 14.8232 15.8242 14.5149 15.6786C11.6816 14.3407 9.40493 11.965 8.12274 9.00857C7.9832 8.68681 8.07769 8.30705 8.34961 8.09677L9.46931 7.23091C9.57872 7.14631 9.59863 6.98368 9.51313 6.87308L7.79288 4.64804C7.71293 4.54462 7.56942 4.52454 7.46618 4.60231L5.76677 5.88247C4.93418 6.50966 4.64097 7.6625 5.06596 8.63795L5.59624 9.85511C5.59643 9.85555 5.59662 9.85598 5.59681 9.85641ZM13.5794 19.8974C9.46238 18.0738 6.15099 14.7108 4.28986 10.481L4.28874 10.4785L3.75734 9.25874C3.04904 7.63299 3.53772 5.71158 4.92537 4.66627L6.62477 3.38611C7.34747 2.8417 8.35203 2.98231 8.91169 3.7062L10.6319 5.93125C11.2305 6.70542 11.0911 7.84381 10.3252 8.43605L9.6836 8.93221C10.7674 11.1266 12.4851 12.919 14.588 14.0499L15.0635 13.3804C15.6311 12.5812 16.7221 12.4358 17.464 13.0603L19.596 14.8551C20.29 15.4393 20.4245 16.4879 19.9024 17.242L18.6811 19.0058C17.6851 20.4443 15.8591 20.9572 14.3056 20.235L13.5794 19.8974Z" fill="#C2C8D7"/>
</svg>
