<svg width="8" height="8" viewBox="0 0 8 8" fill="none" xmlns="http://www.w3.org/2000/svg">
<path fill-rule="evenodd" clip-rule="evenodd" d="M1.43414 3.1069C2.17885 4.72852 3.50406 6.01776 5.15146 6.71634L5.15666 6.71854L5.47492 6.8604C5.88018 7.04096 6.35652 6.91272 6.61636 6.5531L7.14735 5.81821C7.17978 5.77332 7.17142 5.7109 7.12832 5.67613L6.20134 4.9283C6.15526 4.89112 6.0875 4.89978 6.05225 4.94735L5.69147 5.43418C5.60385 5.55241 5.44562 5.59349 5.31155 5.53282C4.07972 4.97534 3.08984 3.98547 2.53237 2.75363C2.4717 2.61956 2.51278 2.46133 2.63101 2.37372L3.11783 2.01294C3.1654 1.97769 3.17406 1.90993 3.13689 1.86385L2.38895 0.936744C2.35419 0.893655 2.2918 0.885285 2.24691 0.917691L1.50804 1.45109C1.14604 1.71242 1.01856 2.19277 1.20333 2.59921L1.43389 3.10636C1.43398 3.10654 1.43406 3.10672 1.43414 3.1069ZM4.90483 7.29063C3.11482 6.5308 1.67509 5.12954 0.8659 3.36715L0.865413 3.36608L0.63437 2.85787C0.326412 2.18048 0.538882 1.37989 1.14221 0.94434L1.88108 0.410941C2.1953 0.184105 2.63206 0.24269 2.87539 0.544312L3.62332 1.47141C3.88356 1.79398 3.82294 2.26832 3.48996 2.51508L3.211 2.72181C3.68222 3.63614 4.42904 4.38297 5.34337 4.85419L5.55011 4.57522C5.79687 4.24224 6.27121 4.18163 6.59378 4.44186L7.52075 5.18969C7.82246 5.4331 7.88098 5.87003 7.65394 6.18424L7.12296 6.91914C6.6899 7.5185 5.89599 7.73223 5.22056 7.4313L4.90483 7.29063Z" fill="#907BE7"/>
</svg>
