<svg width="16" height="17" viewBox="0 0 16 17" fill="none" xmlns="http://www.w3.org/2000/svg">
<path fill-rule="evenodd" clip-rule="evenodd" d="M5.04619 5.17378C5.04619 3.58059 6.28391 2.28906 7.81071 2.28906C9.33751 2.28906 10.5752 3.58059 10.5752 5.17378C10.5752 6.76696 9.33751 8.05849 7.81071 8.05849C6.28391 8.05849 5.04619 6.76696 5.04619 5.17378ZM7.81071 3.3072C6.82278 3.3072 6.02191 4.14289 6.02191 5.17378C6.02191 6.20466 6.82278 7.04036 7.81071 7.04036C8.79864 7.04036 9.59952 6.20466 9.59952 5.17378C9.59952 4.14289 8.79864 3.3072 7.81071 3.3072Z" fill="#E5E8EF"/>
<path fill-rule="evenodd" clip-rule="evenodd" d="M5.20881 10.0948C4.40051 10.0948 3.74524 10.7785 3.74524 11.622V12.4285C3.74524 12.4408 3.75377 12.4513 3.76539 12.4532C6.44454 12.9097 9.17689 12.9097 11.856 12.4532C11.8677 12.4513 11.8762 12.4408 11.8762 12.4285V11.622C11.8762 10.7785 11.2209 10.0948 10.4126 10.0948H10.1909C10.1737 10.0948 10.1567 10.0976 10.1404 10.1031L9.57741 10.295C8.42944 10.6861 7.19199 10.6861 6.04401 10.295L5.48102 10.1031C5.46472 10.0976 5.44768 10.0948 5.43054 10.0948H5.20881ZM2.76953 11.622C2.76953 10.2162 3.86163 9.07663 5.20881 9.07663H5.43054C5.55055 9.07663 5.6698 9.09643 5.78388 9.1353L6.34687 9.32713C7.29805 9.65122 8.32337 9.65122 9.27455 9.32713L9.83755 9.1353C9.95163 9.09643 10.0709 9.07663 10.1909 9.07663H10.4126C11.7598 9.07663 12.8519 10.2162 12.8519 11.622V12.4285C12.8519 12.9398 12.4968 13.3757 12.0133 13.4581C9.22998 13.9322 6.39144 13.9322 3.60817 13.4581C3.12461 13.3757 2.76953 12.9398 2.76953 12.4285V11.622Z" fill="#E5E8EF"/>
</svg>
