<svg width="19" height="18" viewBox="0 0 19 18" fill="none" xmlns="http://www.w3.org/2000/svg">
<path fill-rule="evenodd" clip-rule="evenodd" d="M3.4694 4.5C3.4694 2.15279 5.29291 0.25 7.54232 0.25C9.79173 0.25 11.6152 2.15279 11.6152 4.5C11.6152 6.84721 9.79173 8.75 7.54232 8.75C5.29291 8.75 3.4694 6.84721 3.4694 4.5ZM7.54232 1.75C6.08682 1.75 4.9069 2.98122 4.9069 4.5C4.9069 6.01878 6.08682 7.25 7.54232 7.25C8.99782 7.25 10.1777 6.01878 10.1777 4.5C10.1777 2.98122 8.99782 1.75 7.54232 1.75Z" fill="#E5E8EF"/>
<path fill-rule="evenodd" clip-rule="evenodd" d="M0.115234 14C0.115234 11.9289 1.72421 10.25 3.70898 10.25H4.03565C4.21246 10.25 4.38815 10.2792 4.55622 10.3364L5.38567 10.6191C6.78703 11.0965 8.29761 11.0965 9.69896 10.6191L10.5284 10.3364C10.6965 10.2792 10.8722 10.25 11.049 10.25H11.3757C13.3604 10.25 14.9694 11.9289 14.9694 14V15.1883C14.9694 15.9415 14.4463 16.5837 13.7338 16.7051C9.63331 17.4037 5.45133 17.4037 1.35079 16.7051C0.638373 16.5837 0.115234 15.9415 0.115234 15.1883V14ZM3.70898 11.75C2.51812 11.75 1.55273 12.7574 1.55273 14V15.1883C1.55273 15.2064 1.5653 15.2218 1.58241 15.2247C5.52955 15.8972 9.55508 15.8972 13.5022 15.2247C13.5193 15.2218 13.5319 15.2064 13.5319 15.1883V14C13.5319 12.7574 12.5665 11.75 11.3757 11.75H11.049C11.0237 11.75 10.9986 11.7542 10.9746 11.7623L10.1452 12.045C8.45387 12.6212 6.63076 12.6212 4.93947 12.045L4.11002 11.7623C4.08601 11.7542 4.06091 11.75 4.03565 11.75H3.70898Z" fill="#E5E8EF"/>
<path d="M15.6882 3.25C16.0851 3.25 16.4069 3.58579 16.4069 4V5.75H18.084C18.4809 5.75 18.8027 6.08579 18.8027 6.5C18.8027 6.91421 18.4809 7.25 18.084 7.25H16.4069V9C16.4069 9.41421 16.0851 9.75 15.6882 9.75C15.2912 9.75 14.9694 9.41421 14.9694 9V7.25H13.2923C12.8954 7.25 12.5736 6.91421 12.5736 6.5C12.5736 6.08579 12.8954 5.75 13.2923 5.75H14.9694V4C14.9694 3.58579 15.2912 3.25 15.6882 3.25Z" fill="#E5E8EF"/>
</svg>
