<svg xmlns="http://www.w3.org/2000/svg" width="12" height="12" viewBox="0 0 12 12" fill="none">
<path d="M5.99114 11.9999C2.66117 11.985 -0.0184024 9.28801 -0.00015146 5.96883C0.0180995 2.65462 2.71675 -0.0149923 6.03262 -5.97303e-05C9.3294 0.0148729 12.014 2.71684 11.9998 6.00533C11.9857 9.32535 9.29041 12.0149 5.99114 11.9999ZM1.41679 5.98791C1.4143 8.52147 3.46172 10.578 5.99114 10.5822C8.52055 10.5863 10.5796 8.53392 10.5829 6.00533C10.5862 3.48006 8.53466 1.41937 6.01354 1.41605C3.47997 1.41273 1.41927 3.46264 1.41679 5.98791Z" fill="#E5E8EF"/>
<path d="M1.41675 5.98788C1.41924 3.46262 3.47994 1.4127 6.0135 1.41602C8.53462 1.41934 10.5862 3.48004 10.5829 6.0053C10.5796 8.53389 8.52052 10.5863 5.9911 10.5821C3.46252 10.578 1.41509 8.52145 1.41675 5.98788ZM5.99027 9.52774C7.93815 9.53354 9.51934 7.96313 9.52847 6.0136C9.53759 4.06241 7.96386 2.47789 6.00935 2.47043C4.05982 2.46296 2.47447 4.04167 2.47116 5.99452C2.46784 7.94156 4.04157 9.52193 5.99027 9.52774Z" fill="#3E4761"/>
<path d="M1.41675 5.98788C1.41924 3.46262 3.47994 1.4127 6.0135 1.41602C8.53462 1.41934 10.5862 3.48004 10.5829 6.0053C10.5796 8.53389 8.52052 10.5863 5.9911 10.5821C3.46252 10.578 1.41509 8.52145 1.41675 5.98788ZM5.99027 9.52774C7.93815 9.53354 9.51934 7.96313 9.52847 6.0136C9.53759 4.06241 7.96386 2.47789 6.00935 2.47043C4.05982 2.46296 2.47447 4.04167 2.47116 5.99452C2.46784 7.94156 4.04157 9.52193 5.99027 9.52774Z" fill="black" fill-opacity="0.2"/>
<path d="M5.99031 9.5278C4.04161 9.52199 2.46705 7.94162 2.4712 5.99458C2.47452 4.04173 4.05986 2.46302 6.0094 2.47049C7.96391 2.47795 9.53764 4.06247 9.52851 6.01366C9.51939 7.96319 7.93819 9.5336 5.99031 9.5278ZM8.1124 5.99375C8.11074 4.83232 7.16335 3.88659 6.00193 3.88659C4.83553 3.88659 3.88565 4.83481 3.88648 6.00039C3.88814 7.16762 4.8347 8.11335 6.00276 8.11252C7.16833 8.11252 8.11406 7.16181 8.1124 5.99458V5.99375Z" fill="#3E4761"/>
<path d="M5.99031 9.5278C4.04161 9.52199 2.46705 7.94162 2.4712 5.99458C2.47452 4.04173 4.05986 2.46302 6.0094 2.47049C7.96391 2.47795 9.53764 4.06247 9.52851 6.01366C9.51939 7.96319 7.93819 9.5336 5.99031 9.5278ZM8.1124 5.99375C8.11074 4.83232 7.16335 3.88659 6.00193 3.88659C4.83553 3.88659 3.88565 4.83481 3.88648 6.00039C3.88814 7.16762 4.8347 8.11335 6.00276 8.11252C7.16833 8.11252 8.11406 7.16181 8.1124 5.99458V5.99375Z" fill="black" fill-opacity="0.2"/>
<path d="M8.1124 5.99373C8.11406 7.16179 7.16833 8.11167 6.00276 8.11167C4.83553 8.11167 3.88814 7.16677 3.88648 5.99953C3.88482 4.83479 4.83553 3.88574 6.00193 3.88574C7.16335 3.88574 8.11074 4.8323 8.1124 5.9929V5.99373ZM5.99446 6.97845C6.5395 6.98094 6.97504 6.54955 6.97835 6.00451C6.98167 5.45947 6.54946 5.02311 6.00442 5.02145C5.45689 5.01979 5.02301 5.44869 5.02135 5.99456C5.0197 6.54126 5.44942 6.97596 5.99446 6.97845Z" fill="#3E4761"/>
<path d="M8.1124 5.99373C8.11406 7.16179 7.16833 8.11167 6.00276 8.11167C4.83553 8.11167 3.88814 7.16677 3.88648 5.99953C3.88482 4.83479 4.83553 3.88574 6.00193 3.88574C7.16335 3.88574 8.11074 4.8323 8.1124 5.9929V5.99373ZM5.99446 6.97845C6.5395 6.98094 6.97504 6.54955 6.97835 6.00451C6.98167 5.45947 6.54946 5.02311 6.00442 5.02145C5.45689 5.01979 5.02301 5.44869 5.02135 5.99456C5.0197 6.54126 5.44942 6.97596 5.99446 6.97845Z" fill="black" fill-opacity="0.2"/>
<path d="M5.98896 7.99998C4.87495 7.99489 3.99662 7.10639 4.00001 5.98897C4.0034 4.87495 4.89021 3.99662 6.00931 4.00001C7.12163 4.0034 8.00674 4.8953 7.99996 6.00932C7.99318 7.12334 7.10298 8.00506 5.98896 7.99998Z" fill="#E5E8EF"/>
</svg>