<svg width="18" height="19" viewBox="0 0 18 19" fill="none" xmlns="http://www.w3.org/2000/svg">
<path d="M3.54616 5.16277C3.33094 5.10599 3.15206 4.95655 3.0579 4.75486C2.96374 4.55318 2.96402 4.32009 3.05868 4.11863L4.71944 0.584243C4.8432 0.320857 5.10815 0.15284 5.39916 0.153199C5.69018 0.153559 5.95471 0.322232 6.07782 0.585923L6.81045 2.15516C6.83664 2.14486 6.86368 2.13594 6.89151 2.12848C11.2389 0.963611 15.7074 3.54352 16.8723 7.89087C18.0371 12.2382 15.4572 16.7068 11.1099 17.8716C6.76253 19.0365 2.29399 16.4566 1.12912 12.1092C0.758702 10.7268 0.767035 9.32991 1.09147 8.03117C1.19186 7.62931 1.59901 7.38492 2.00088 7.4853C2.40274 7.58569 2.64714 7.99285 2.54675 8.39471C2.28245 9.45271 2.27517 10.5908 2.57801 11.721C3.52847 15.2682 7.1745 17.3732 10.7216 16.4227C14.2688 15.4723 16.3738 11.8262 15.4234 8.2791C14.4885 4.78995 10.9454 2.69613 7.4538 3.53319L8.193 5.11649C8.3161 5.38018 8.27556 5.69128 8.08898 5.91462C7.9024 6.13795 7.60347 6.23319 7.32209 6.15895L3.54616 5.16277Z" fill="#E5E8EF"/>
</svg>
