<svg width="139" height="48" viewBox="0 0 139 48" fill="none" xmlns="http://www.w3.org/2000/svg">
<path d="M4.44 14.56H5.74C6.40667 14.56 6.94 14.4133 7.34 14.12C7.75333 13.8133 7.96 13.3667 7.96 12.78C7.96 12.2067 7.76667 11.7733 7.38 11.48C6.99333 11.1733 6.4 11.02 5.6 11.02C5.37333 11.02 5.16667 11.0267 4.98 11.04C4.79333 11.0533 4.61333 11.08 4.44 11.12V14.56ZM6.02 16.92H1.42V9.94C1.42 9.68667 1.49333 9.48667 1.64 9.34C1.78667 9.19333 1.98 9.08 2.22 9C2.66 8.84 3.17333 8.72667 3.76 8.66C4.36 8.59333 4.98 8.56 5.62 8.56C7.42 8.56 8.77333 8.94 9.68 9.7C10.5867 10.4467 11.04 11.4667 11.04 12.76C11.04 13.56 10.82 14.28 10.38 14.92C9.95333 15.5467 9.36 16.04 8.6 16.4C7.85333 16.7467 6.99333 16.92 6.02 16.92ZM5.46 16.2L8.18 15.56C8.48667 15.9867 8.8 16.4067 9.12 16.82C9.45333 17.2333 9.76667 17.6333 10.06 18.02C10.3667 18.4067 10.64 18.7667 10.88 19.1C11.12 19.42 11.3133 19.6933 11.46 19.92C11.34 20.32 11.1267 20.6333 10.82 20.86C10.5133 21.0733 10.1667 21.18 9.78 21.18C9.28667 21.18 8.90667 21.0733 8.64 20.86C8.38667 20.6333 8.14667 20.34 7.92 19.98L5.46 16.2ZM1.42 15.78H4.46V20.98C4.34 21.02 4.14667 21.0533 3.88 21.08C3.61333 21.12 3.34 21.14 3.06 21.14C2.46 21.14 2.03333 21.0333 1.78 20.82C1.54 20.6067 1.42 20.2333 1.42 19.7V15.78ZM14.3369 17.6L14.2169 15.6L19.1769 14.82C19.1502 14.4467 18.9902 14.1 18.6969 13.78C18.4035 13.46 17.9702 13.3 17.3969 13.3C16.7969 13.3 16.2969 13.5067 15.8969 13.92C15.4969 14.32 15.2835 14.8933 15.2569 15.64L15.3569 17.02C15.4769 17.7533 15.7902 18.28 16.2969 18.6C16.8035 18.9067 17.4035 19.06 18.0969 19.06C18.6569 19.06 19.1835 18.98 19.6769 18.82C20.1702 18.66 20.5702 18.4933 20.8769 18.32C21.0769 18.44 21.2369 18.6067 21.3569 18.82C21.4902 19.0333 21.5569 19.26 21.5569 19.5C21.5569 19.9 21.3969 20.2333 21.0769 20.5C20.7702 20.7667 20.3369 20.9667 19.7769 21.1C19.2302 21.2333 18.6035 21.3 17.8969 21.3C16.8702 21.3 15.9435 21.1067 15.1169 20.72C14.3035 20.3333 13.6635 19.7533 13.1969 18.98C12.7302 18.2067 12.4969 17.24 12.4969 16.08C12.4969 15.2267 12.6302 14.4867 12.8969 13.86C13.1769 13.2333 13.5435 12.72 13.9969 12.32C14.4635 11.9067 14.9835 11.6 15.5569 11.4C16.1435 11.2 16.7502 11.1 17.3769 11.1C18.2969 11.1 19.0969 11.2867 19.7769 11.66C20.4702 12.02 21.0102 12.5133 21.3969 13.14C21.7835 13.7667 21.9769 14.4933 21.9769 15.32C21.9769 15.7333 21.8635 16.0467 21.6369 16.26C21.4102 16.4733 21.0969 16.6067 20.6969 16.66L14.3369 17.6ZM25.3186 18.62C25.1053 18.18 24.8719 17.6467 24.6186 17.02C24.3786 16.3933 24.1253 15.6533 23.8586 14.8C23.5919 13.9467 23.3053 12.96 22.9986 11.84C23.1719 11.6667 23.3919 11.52 23.6586 11.4C23.9386 11.2667 24.2386 11.2 24.5586 11.2C24.9719 11.2 25.3119 11.2867 25.5786 11.46C25.8453 11.6333 26.0453 11.96 26.1786 12.44C26.4853 13.4133 26.7919 14.38 27.0986 15.34C27.4053 16.3 27.7186 17.2667 28.0386 18.24H28.1186C28.3453 17.64 28.5719 16.96 28.7986 16.2C29.0386 15.44 29.2586 14.66 29.4586 13.86C29.6586 13.0467 29.8319 12.2667 29.9786 11.52C30.1653 11.4267 30.3653 11.3533 30.5786 11.3C30.7919 11.2333 31.0119 11.2 31.2386 11.2C31.6519 11.2 32.0053 11.2933 32.2986 11.48C32.6053 11.6533 32.7586 11.9533 32.7586 12.38C32.7586 12.7533 32.6986 13.2133 32.5786 13.76C32.4719 14.3067 32.3253 14.9 32.1386 15.54C31.9519 16.1667 31.7319 16.8133 31.4786 17.48C31.2253 18.1333 30.9586 18.7667 30.6786 19.38C30.4119 19.9933 30.1386 20.5467 29.8586 21.04C29.1386 22.2933 28.4719 23.2267 27.8586 23.84C27.2586 24.4667 26.6586 24.78 26.0586 24.78C25.5786 24.78 25.1786 24.6333 24.8586 24.34C24.5519 24.0467 24.3653 23.6733 24.2986 23.22C24.5919 22.98 24.8919 22.7 25.1986 22.38C25.5053 22.0733 25.7986 21.74 26.0786 21.38C26.3586 21.0333 26.6053 20.6867 26.8186 20.34C26.5919 20.2733 26.3586 20.1267 26.1186 19.9C25.8786 19.6733 25.6119 19.2467 25.3186 18.62ZM43.4845 14.78V16.66H40.5045V14.88C40.5045 14.3867 40.3579 14.0267 40.0645 13.8C39.7845 13.56 39.4112 13.44 38.9445 13.44C38.6112 13.44 38.3045 13.4867 38.0245 13.58C37.7445 13.66 37.4912 13.76 37.2645 13.88V16.66H34.3045V13.54C34.3045 13.2067 34.3712 12.9333 34.5045 12.72C34.6512 12.4933 34.8579 12.2933 35.1245 12.12C35.5512 11.8267 36.0979 11.5867 36.7645 11.4C37.4312 11.2 38.1645 11.1 38.9645 11.1C40.4045 11.1 41.5179 11.42 42.3045 12.06C43.0912 12.6867 43.4845 13.5933 43.4845 14.78ZM34.3045 15.74H37.2645V20.98C37.1312 21.02 36.9445 21.0533 36.7045 21.08C36.4645 21.12 36.2045 21.14 35.9245 21.14C35.3645 21.14 34.9512 21.04 34.6845 20.84C34.4312 20.64 34.3045 20.28 34.3045 19.76V15.74ZM40.5045 15.74H43.4845V20.98C43.3512 21.02 43.1645 21.0533 42.9245 21.08C42.6845 21.12 42.4245 21.14 42.1445 21.14C41.5845 21.14 41.1712 21.04 40.9045 20.84C40.6379 20.64 40.5045 20.28 40.5045 19.76V15.74ZM55.5084 16.2C55.5084 17.24 55.2951 18.1467 54.8684 18.92C54.4551 19.68 53.8684 20.2667 53.1084 20.68C52.3484 21.0933 51.4551 21.3 50.4284 21.3C49.4151 21.3 48.5218 21.1 47.7484 20.7C46.9884 20.2867 46.3951 19.7 45.9684 18.94C45.5551 18.1667 45.3484 17.2533 45.3484 16.2C45.3484 15.1467 45.5618 14.2467 45.9884 13.5C46.4151 12.74 47.0084 12.1533 47.7684 11.74C48.5418 11.3133 49.4284 11.1 50.4284 11.1C51.4418 11.1 52.3284 11.3133 53.0884 11.74C53.8484 12.1533 54.4418 12.7467 54.8684 13.52C55.2951 14.28 55.5084 15.1733 55.5084 16.2ZM50.4284 13.44C49.8018 13.44 49.3018 13.68 48.9284 14.16C48.5684 14.64 48.3884 15.32 48.3884 16.2C48.3884 17.0933 48.5684 17.78 48.9284 18.26C49.2884 18.7267 49.7884 18.96 50.4284 18.96C51.0684 18.96 51.5684 18.72 51.9284 18.24C52.2884 17.76 52.4684 17.08 52.4684 16.2C52.4684 15.3333 52.2884 14.66 51.9284 14.18C51.5684 13.6867 51.0684 13.44 50.4284 13.44ZM57.4709 15.72L60.4509 15.78V20.98C60.3176 21.02 60.1309 21.0533 59.8909 21.08C59.6509 21.12 59.3909 21.14 59.1109 21.14C58.5509 21.14 58.1376 21.04 57.8709 20.84C57.6043 20.64 57.4709 20.28 57.4709 19.76V15.72ZM60.4509 17.32L57.4709 17.26V7.98C57.6043 7.94 57.7909 7.9 58.0309 7.86C58.2709 7.82 58.5309 7.8 58.8109 7.8C59.3843 7.8 59.7976 7.9 60.0509 8.1C60.3176 8.3 60.4509 8.66667 60.4509 9.2V17.32ZM69.0988 18.62V12.6H72.0588V19C72.0588 19.32 71.9921 19.5933 71.8588 19.82C71.7254 20.0333 71.5121 20.2267 71.2188 20.4C70.8588 20.64 70.3854 20.8467 69.7988 21.02C69.2254 21.2067 68.5588 21.3 67.7988 21.3C66.6921 21.3 65.7321 21.1133 64.9188 20.74C64.1188 20.3667 63.4988 19.8067 63.0588 19.06C62.6321 18.3 62.4188 17.36 62.4188 16.24C62.4188 15.0667 62.6388 14.1067 63.0788 13.36C63.5321 12.6 64.1388 12.0333 64.8988 11.66C65.6588 11.2867 66.4988 11.1 67.4188 11.1C67.8988 11.1 68.3254 11.1533 68.6988 11.26C69.0721 11.3667 69.3788 11.4933 69.6188 11.64V14.08C69.4321 13.92 69.1854 13.7733 68.8788 13.64C68.5721 13.5067 68.2188 13.44 67.8188 13.44C67.3521 13.44 66.9388 13.54 66.5788 13.74C66.2188 13.94 65.9388 14.2467 65.7388 14.66C65.5388 15.0733 65.4388 15.6 65.4388 16.24C65.4388 17.1733 65.6454 17.86 66.0588 18.3C66.4854 18.74 67.0588 18.96 67.7788 18.96C68.0721 18.96 68.3321 18.9267 68.5588 18.86C68.7854 18.78 68.9654 18.7 69.0988 18.62ZM72.0588 13.18L69.0988 13.2V7.98C69.2188 7.94 69.3988 7.9 69.6388 7.86C69.8788 7.82 70.1388 7.8 70.4188 7.8C71.0054 7.8 71.4254 7.9 71.6788 8.1C71.9321 8.3 72.0588 8.66667 72.0588 9.2V13.18ZM82.2017 18.2C82.2017 19.1733 81.8351 19.94 81.1017 20.5C80.3684 21.0467 79.3017 21.32 77.9017 21.32C76.8084 21.32 75.9084 21.16 75.2017 20.84C74.4951 20.52 74.1417 20.0467 74.1417 19.42C74.1417 19.14 74.2017 18.9 74.3217 18.7C74.4417 18.4867 74.5951 18.32 74.7817 18.2C75.1551 18.4133 75.5884 18.6133 76.0817 18.8C76.5884 18.9733 77.1617 19.06 77.8017 19.06C78.7751 19.06 79.2617 18.78 79.2617 18.22C79.2617 17.98 79.1751 17.7933 79.0017 17.66C78.8284 17.5133 78.5417 17.4067 78.1417 17.34L77.3017 17.14C76.2351 16.9133 75.4351 16.5667 74.9017 16.1C74.3817 15.62 74.1217 14.9667 74.1217 14.14C74.1217 13.2067 74.4951 12.4667 75.2417 11.92C76.0017 11.36 77.0217 11.08 78.3017 11.08C78.9417 11.08 79.5217 11.1467 80.0417 11.28C80.5751 11.4 80.9951 11.5933 81.3017 11.86C81.6084 12.1133 81.7617 12.4333 81.7617 12.82C81.7617 13.0867 81.7084 13.32 81.6017 13.52C81.4951 13.72 81.3551 13.8867 81.1817 14.02C81.0351 13.9267 80.8084 13.8267 80.5017 13.72C80.2084 13.6133 79.8817 13.5267 79.5217 13.46C79.1751 13.3933 78.8484 13.36 78.5417 13.36C78.0617 13.36 77.6884 13.4267 77.4217 13.56C77.1551 13.68 77.0217 13.8733 77.0217 14.14C77.0217 14.3133 77.0951 14.4667 77.2417 14.6C77.4017 14.72 77.6751 14.82 78.0617 14.9L78.8617 15.1C80.0484 15.3667 80.9017 15.7533 81.4217 16.26C81.9417 16.7533 82.2017 17.4 82.2017 18.2ZM97.7545 18.74L96.6345 19.76C96.1012 20.3067 95.4612 20.7067 94.7145 20.96C93.9679 21.2 93.2212 21.32 92.4745 21.32C91.4612 21.32 90.5945 21.1467 89.8745 20.8C89.1679 20.44 88.6212 19.96 88.2345 19.36C87.8612 18.7467 87.6745 18.06 87.6745 17.3C87.6745 16.62 87.8079 16.0333 88.0745 15.54C88.3545 15.0467 88.7079 14.6333 89.1345 14.3C89.5745 13.9667 90.0479 13.7133 90.5545 13.54L91.9145 15.34C91.6612 15.42 91.4212 15.5467 91.1945 15.72C90.9812 15.88 90.8079 16.08 90.6745 16.32C90.5545 16.5467 90.4945 16.8133 90.4945 17.12C90.4945 17.6667 90.6745 18.12 91.0345 18.48C91.4079 18.84 91.9412 19.02 92.6345 19.02C92.9145 19.02 93.2812 18.96 93.7345 18.84C94.1879 18.7067 94.6212 18.4267 95.0345 18L95.9345 16.64C96.1079 16.2 96.2212 15.7 96.2745 15.14C96.3279 14.58 96.3545 14.0533 96.3545 13.56C96.5812 13.4667 96.7945 13.4 96.9945 13.36C97.1945 13.3067 97.3945 13.28 97.5945 13.28C98.1279 13.28 98.4879 13.4333 98.6745 13.74C98.8612 14.0333 98.9545 14.4267 98.9545 14.92C98.9545 15.52 98.8545 16.16 98.6545 16.84C98.4679 17.5067 98.1679 18.14 97.7545 18.74ZM98.2145 21.28C97.7479 21.28 97.2879 21.0533 96.8345 20.6L91.0945 14.78L90.5545 14C90.0745 13.4667 89.7612 13.0067 89.6145 12.62C89.4812 12.2333 89.4145 11.8667 89.4145 11.52C89.4145 10.9733 89.5545 10.4733 89.8345 10.02C90.1145 9.56667 90.5212 9.20667 91.0545 8.94C91.6012 8.67333 92.2545 8.54 93.0145 8.54C93.8279 8.54 94.4079 8.68 94.7545 8.96C95.1145 9.24 95.2945 9.59333 95.2945 10.02C95.2945 10.22 95.2479 10.42 95.1545 10.62C95.0745 10.82 94.9545 10.9933 94.7945 11.14C94.6345 11.06 94.4412 10.9933 94.2145 10.94C94.0012 10.8867 93.7812 10.86 93.5545 10.86C93.1679 10.86 92.8479 10.9533 92.5945 11.14C92.3545 11.3133 92.2345 11.5667 92.2345 11.9C92.2345 12.1533 92.3145 12.3933 92.4745 12.62C92.6479 12.8333 92.9012 13.1 93.2345 13.42L99.6745 19.76C99.6479 20.2 99.4945 20.5667 99.2145 20.86C98.9345 21.14 98.6012 21.28 98.2145 21.28ZM109.336 19.56C109.336 19.0667 109.489 18.6533 109.796 18.32C110.116 17.9733 110.542 17.8 111.076 17.8C111.596 17.8 112.016 17.9733 112.336 18.32C112.656 18.6533 112.816 19.0667 112.816 19.56C112.816 20.0533 112.656 20.4733 112.336 20.82C112.016 21.1533 111.596 21.32 111.076 21.32C110.542 21.32 110.116 21.1533 109.796 20.82C109.489 20.4733 109.336 20.0533 109.336 19.56ZM104.956 19.56C104.956 19.0667 105.109 18.6533 105.416 18.32C105.736 17.9733 106.162 17.8 106.696 17.8C107.229 17.8 107.649 17.9733 107.956 18.32C108.276 18.6533 108.436 19.0667 108.436 19.56C108.436 20.0533 108.276 20.4733 107.956 20.82C107.649 21.1533 107.229 21.32 106.696 21.32C106.162 21.32 105.736 21.1533 105.416 20.82C105.109 20.4733 104.956 20.0533 104.956 19.56ZM100.596 19.56C100.596 19.0667 100.749 18.6533 101.056 18.32C101.376 17.9733 101.796 17.8 102.316 17.8C102.849 17.8 103.269 17.9733 103.576 18.32C103.896 18.6533 104.056 19.0667 104.056 19.56C104.056 20.0533 103.896 20.4733 103.576 20.82C103.269 21.1533 102.849 21.32 102.316 21.32C101.796 21.32 101.376 21.1533 101.056 20.82C100.749 20.4733 100.596 20.0533 100.596 19.56Z" fill="#F0F2F5"/>
<path opacity="0.6" d="M1.05 34.324C1.086 34.324 1.192 34.324 1.368 34.324C1.544 34.324 1.752 34.324 1.992 34.324C2.236 34.324 2.482 34.326 2.73 34.33C2.982 34.33 3.2 34.332 3.384 34.336C4.44 34.356 5.298 34.538 5.958 34.882C6.622 35.222 7.108 35.708 7.416 36.34C7.728 36.968 7.884 37.726 7.884 38.614C7.884 39.542 7.718 40.332 7.386 40.984C7.058 41.636 6.554 42.136 5.874 42.484C5.198 42.828 4.338 43 3.294 43H1.05V34.324ZM2.532 35.53V41.794H3.318C3.914 41.794 4.44 41.692 4.896 41.488C5.352 41.28 5.708 40.944 5.964 40.48C6.224 40.016 6.354 39.396 6.354 38.62C6.354 37.868 6.234 37.266 5.994 36.814C5.754 36.362 5.41 36.036 4.962 35.836C4.514 35.632 3.978 35.53 3.354 35.53H2.532ZM11.5461 43V34.324H13.6341L15.9081 40.954L18.2061 34.324H20.2821V43H18.8001V36.196L16.5141 43H15.2961L13.0281 36.238V43H11.5461ZM27.5059 43.12C27.0859 43.12 26.6759 43.068 26.2759 42.964C25.8759 42.856 25.5119 42.698 25.1839 42.49C24.8599 42.278 24.5899 42.016 24.3739 41.704C24.1579 41.388 24.0259 41.02 23.9779 40.6H25.4899C25.5539 40.892 25.6799 41.138 25.8679 41.338C26.0559 41.538 26.2899 41.69 26.5699 41.794C26.8539 41.898 27.1639 41.95 27.4999 41.95C27.8599 41.95 28.1839 41.902 28.4719 41.806C28.7639 41.71 28.9939 41.57 29.1619 41.386C29.3339 41.202 29.4199 40.976 29.4199 40.708C29.4199 40.472 29.3579 40.272 29.2339 40.108C29.1099 39.944 28.9359 39.81 28.7119 39.706C28.4919 39.598 28.2339 39.512 27.9379 39.448L26.3419 39.1C25.6979 38.968 25.1879 38.712 24.8119 38.332C24.4359 37.952 24.2439 37.446 24.2359 36.814C24.2319 36.29 24.3699 35.834 24.6499 35.446C24.9339 35.054 25.3199 34.752 25.8079 34.54C26.2959 34.324 26.8479 34.216 27.4639 34.216C28.1839 34.216 28.7899 34.334 29.2819 34.57C29.7779 34.802 30.1519 35.114 30.4039 35.506C30.6599 35.898 30.7899 36.328 30.7939 36.796H29.3179C29.2819 36.452 29.1779 36.178 29.0059 35.974C28.8379 35.77 28.6219 35.624 28.3579 35.536C28.0939 35.448 27.8019 35.404 27.4819 35.404C27.2419 35.404 27.0179 35.432 26.8099 35.488C26.6019 35.544 26.4199 35.626 26.2639 35.734C26.1079 35.842 25.9859 35.974 25.8979 36.13C25.8139 36.282 25.7719 36.456 25.7719 36.652C25.7719 36.932 25.8639 37.16 26.0479 37.336C26.2359 37.508 26.5859 37.654 27.0979 37.774L28.6579 38.122C29.1419 38.218 29.5319 38.362 29.8279 38.554C30.1239 38.746 30.3499 38.966 30.5059 39.214C30.6619 39.458 30.7659 39.708 30.8179 39.964C30.8699 40.22 30.8959 40.464 30.8959 40.696C30.8959 41.148 30.7559 41.558 30.4759 41.926C30.1999 42.294 29.8079 42.586 29.2999 42.802C28.7959 43.014 28.1979 43.12 27.5059 43.12Z" fill="#E5E8EF"/>
</svg>
