<svg width="159" height="24" viewBox="0 0 159 24" fill="none" xmlns="http://www.w3.org/2000/svg">
<g clip-path="url(#clip0_2126_120281)">
<g clip-path="url(#clip1_2126_120281)">
<path d="M39.2227 16.774V16.4088H39.7209V6.75658H39.2227V6.39136H43.1298C46.1191 6.39136 46.5911 7.95658 46.5911 8.66093C46.5911 10.6957 44.808 11.087 43.3395 11.2174V11.2435C45.1227 11.687 46.3551 12.3392 46.1978 14.7914C46.1453 15.5479 46.2502 16.2261 46.5911 16.3827C46.8795 16.5914 47.4564 16.487 47.9809 16.3044V16.6957C47.4564 16.8783 46.9844 16.9827 46.5911 16.9827C45.4898 17.0088 44.8604 16.4088 44.6507 15.6783C44.572 15.3914 44.4671 14.1392 44.3622 13.2001C44.2835 12.4957 44.1524 11.3218 42.1858 11.3218H41.2418V16.3827H42.4742V16.7479L39.2227 16.774ZM41.2418 10.9827H42.0809C43.7853 10.9827 44.8867 10.8522 44.8867 8.7131C44.8867 7.20006 44.2311 6.73049 42.7364 6.73049H41.268L41.2418 10.9827Z" fill="white"/>
<path d="M53.5398 14.8435C53.2251 16.2783 52.1762 16.9566 50.7865 16.9566C49.1869 16.9566 47.666 15.6783 47.666 13.9566C47.666 12.1305 48.8722 10.4348 50.734 10.4348C52.3336 10.4348 53.5398 11.5044 53.5398 13.2H49.1345V13.8261C49.1345 15.3652 49.3442 16.6174 51.0487 16.6174C51.9402 16.6174 52.9891 15.8348 53.1989 14.8174H53.5398V14.8435ZM52.1238 12.7826V12.2609C52.1238 11.1392 51.4682 10.8 50.6816 10.8C49.7376 10.8 49.318 11.6609 49.2918 11.7913C49.1869 12.0783 49.1607 12.4174 49.1345 12.8087L52.1238 12.7826Z" fill="white"/>
<path d="M58.9171 10.9826L56.426 17.8174C55.8753 19.3044 55.4295 20.2957 54.4331 20.2957C54.0922 20.2957 53.6726 19.9826 53.6726 19.6174C53.6726 19.2 53.9611 18.9392 54.302 18.9392C54.9313 18.9392 54.9313 19.5131 55.1149 19.5131C55.3509 19.5131 55.5082 19.1218 55.718 18.574C55.8491 18.287 56.0326 17.8696 56.3997 16.774L54.0135 10.9826H53.2793V10.6174H56.2686V10.9826H55.2722L57.0029 15.1566L58.4713 10.9826H57.4749V10.6174H59.6775V10.9826H58.9171V10.9826Z" fill="white"/>
<path d="M61.1974 10.9827H60.332V10.6175H60.6729C60.9614 10.6175 61.276 10.6175 61.5383 10.5914C61.8267 10.5653 62.1414 10.5392 62.4036 10.4609V12.1044H62.4298C62.8756 11.1131 63.4787 10.4609 64.6063 10.4609C65.1569 10.4609 66.468 10.5914 66.468 12.0001V16.3827H67.3071V16.7479H64.4751V16.3827H65.288V12.2088C65.288 11.0609 64.9209 10.9044 64.2916 10.9044C63.2165 10.9044 62.4298 12.3392 62.4298 13.5131V16.4088H63.2689V16.774H60.3583V16.4088H61.2236L61.1974 10.9827Z" fill="white"/>
<path d="M73.3651 13.6957C73.3651 15.574 72.0015 16.9566 70.3495 16.9566C68.7238 16.9566 67.334 15.574 67.334 13.6957C67.334 11.8175 68.6975 10.4609 70.3495 10.4609C72.0015 10.4609 73.3651 11.8175 73.3651 13.6957ZM68.75 13.6957C68.75 15.0001 68.7762 16.6435 70.3495 16.6435C71.9229 16.6435 71.9491 15.0001 71.9491 13.6957C71.9491 12.4175 71.9229 10.774 70.3495 10.774C68.7762 10.774 68.75 12.4175 68.75 13.6957Z" fill="white"/>
<path d="M73.1016 16.7741V16.4089H74.3078V6.44365H73.1016V6.07843H73.7833C74.3602 6.07843 74.9633 6.05235 75.5402 5.948V16.4349H76.7464V16.8002H73.1016V16.7741Z" fill="white"/>
<path d="M83.4601 16.4086V16.7738C82.7783 16.7738 82.0965 16.7999 81.4147 16.9042V15.8608H81.3885C80.9427 16.6173 80.2347 16.9825 79.3432 16.9825C77.7698 16.9825 76.5898 15.4695 76.5898 13.6955C76.5898 11.9477 77.6387 10.4608 79.5005 10.4608C79.9987 10.4608 80.8903 10.6955 81.3623 11.6347H81.3885V6.41728H80.3396V6.05207H80.8641C81.441 6.05207 82.0441 6.02598 82.621 5.92163V16.4086H83.4601ZM79.5005 10.7738C78.0583 10.7738 78.0058 12.3651 78.0058 13.4608C78.0058 15.8608 78.2943 16.6434 79.5792 16.6434C79.9725 16.6434 80.4445 16.3825 80.6543 16.226C81.2574 15.7042 81.441 15.3912 81.441 13.7738C81.441 13.4347 81.4147 12.7042 81.3361 12.4173C81.2574 12.1825 80.9165 10.7738 79.5005 10.7738Z" fill="white"/>
<path d="M88.2332 10.6175V12.3653H87.8924C87.6564 11.4523 87.1319 10.8262 86.1879 10.774C84.903 10.7479 84.7195 11.7131 84.7195 11.9218C84.7195 12.3653 84.8506 12.6001 87.2368 13.0958C88.443 13.3566 88.8626 13.8784 88.8626 14.8697C88.8626 16.2001 87.8399 16.9827 86.6075 16.9827C85.9519 16.9827 85.2701 16.7218 84.8244 16.2262L84.4835 16.774H84.1426V14.7392H84.5097C84.7981 15.861 85.5848 16.6697 86.7124 16.6697C87.4204 16.6697 88.2332 16.1479 88.2332 15.3392C88.2332 14.7392 87.3679 14.4523 86.083 14.1392C85.0604 13.8784 84.1426 13.7479 84.1426 12.3914C84.1426 11.7392 84.5359 10.4871 86.2404 10.4871C86.7124 10.4871 87.2106 10.6697 87.6826 11.061L87.971 10.6436L88.2332 10.6175Z" fill="white"/>
<path d="M102.367 16.774V16.4088H103.573V6.75658H102.367V6.39136H106.956C109.945 6.39136 110.417 7.95658 110.417 8.66093C110.417 10.6957 108.634 11.087 107.166 11.2174V11.2435C108.949 11.687 110.181 12.3392 110.024 14.7914C109.972 15.5479 110.077 16.2261 110.417 16.3827C110.706 16.5914 111.283 16.487 111.807 16.3044V16.6957C111.283 16.8783 110.811 16.9827 110.417 16.9827C109.316 17.0088 108.687 16.4088 108.477 15.6783C108.398 15.3914 108.293 14.1392 108.189 13.2001C108.11 12.4957 107.979 11.3218 106.012 11.3218H105.068V16.3827H106.301V16.7479L102.367 16.774ZM105.068 11.0088H105.907C107.612 11.0088 108.713 10.8783 108.713 8.73918C108.713 7.22614 108.057 6.75658 106.563 6.75658H105.094L105.068 11.0088Z" fill="white"/>
<path d="M117.366 14.8435C117.051 16.2783 116.002 16.9566 114.613 16.9566C113.013 16.9566 111.492 15.6783 111.492 13.9566C111.492 12.1305 112.698 10.4348 114.56 10.4348C116.16 10.4348 117.366 11.5044 117.366 13.2H112.961V13.8261C112.961 15.3652 113.17 16.6174 114.875 16.6174C115.766 16.6174 116.815 15.8348 117.025 14.8174H117.366V14.8435ZM115.95 12.7826V12.2609C115.95 11.1392 115.294 10.8 114.508 10.8C113.564 10.8 113.144 11.6609 113.118 11.7913C113.013 12.0783 112.987 12.4174 112.961 12.8087L115.95 12.7826Z" fill="white"/>
<path d="M122.741 10.9826L120.25 17.8174C119.7 19.3044 119.254 20.2957 118.257 20.2957C117.916 20.2957 117.497 19.9826 117.497 19.6174C117.497 19.2 117.785 18.9392 118.126 18.9392C118.756 18.9392 118.756 19.5131 118.939 19.5131C119.175 19.5131 119.332 19.1218 119.542 18.574C119.673 18.287 119.857 17.8696 120.224 16.774L117.838 10.9826H117.104V10.6174H120.093V10.9826H119.096L120.827 15.1566L122.296 10.9826H121.299V10.6174H123.502V10.9826H122.741Z" fill="white"/>
<path d="M125.022 10.9827H124.156V10.6175H124.497C124.786 10.6175 125.1 10.6175 125.362 10.5914C125.651 10.5653 125.966 10.5392 126.228 10.4609V12.1044H126.254C126.7 11.1131 127.303 10.4609 128.43 10.4609C128.981 10.4609 130.292 10.5914 130.292 12.0001V16.3827H131.131V16.7479H128.273V16.3827H129.086V12.1827C129.086 11.0349 128.719 10.8783 128.09 10.8783C127.014 10.8783 126.228 12.3131 126.228 13.487V16.3827H127.067V16.7479H124.156V16.3827H125.022V10.9827Z" fill="white"/>
<path d="M137.189 13.7218C137.189 15.6001 135.826 16.9827 134.174 16.9827C132.522 16.9827 131.158 15.6001 131.158 13.7218C131.158 11.8436 132.522 10.4871 134.174 10.4871C135.8 10.4871 137.189 11.8436 137.189 13.7218ZM132.574 13.7218C132.574 15.0262 132.6 16.6697 134.174 16.6697C135.747 16.6697 135.773 15.0262 135.773 13.7218C135.773 12.4436 135.747 10.8001 134.174 10.8001C132.6 10.8001 132.574 12.4436 132.574 13.7218Z" fill="white"/>
<path d="M136.928 16.7741V16.4089H138.134V6.44365H136.928V6.07843H137.61C138.186 6.07843 138.79 6.05235 139.366 5.948V16.4349H140.573V16.8002H136.928V16.7741Z" fill="white"/>
<path d="M147.284 16.4086V16.7738C146.603 16.7738 145.921 16.7999 145.239 16.9042V15.8608H145.213C144.767 16.6173 144.059 16.9825 143.167 16.9825C141.594 16.9825 140.414 15.4695 140.414 13.6955C140.414 11.9477 141.463 10.4608 143.325 10.4608C143.823 10.4608 144.715 10.6955 145.187 11.6347H145.213V6.41728H144.164V6.05207H144.688C145.265 6.05207 145.868 6.02598 146.445 5.92163V16.4086H147.284ZM143.325 10.7999C141.883 10.7999 141.83 12.3912 141.83 13.4868C141.83 15.8868 142.119 16.6695 143.403 16.6695C143.797 16.6695 144.269 16.4086 144.479 16.2521C145.082 15.7303 145.265 15.4173 145.265 13.7999C145.265 13.4608 145.239 12.7303 145.16 12.4434C145.108 12.1825 144.741 10.7999 143.325 10.7999Z" fill="white"/>
<path d="M152.057 10.6434V12.3912H151.717C151.481 11.4782 150.956 10.8521 150.012 10.7999C148.727 10.7738 148.544 11.739 148.544 11.9477C148.544 12.3912 148.675 12.626 151.061 13.1216C152.267 13.3825 152.687 13.9042 152.687 14.8955C152.687 16.226 151.664 17.0086 150.432 17.0086C149.776 17.0086 149.094 16.7477 148.649 16.2521L148.308 16.7999H147.967V14.7651H148.334C148.622 15.8868 149.409 16.6955 150.537 16.6955C151.245 16.6955 152.057 16.1738 152.057 15.3651C152.057 14.7651 151.192 14.4782 149.907 14.1651C148.885 13.9042 147.967 13.7738 147.967 12.4173C147.967 11.7651 148.36 10.5129 150.065 10.5129C150.537 10.5129 151.035 10.6955 151.507 11.0868L151.795 10.6695L152.057 10.6434Z" fill="white"/>
<path d="M97.3047 14.5044C97.9603 13.3305 98.2487 12.1826 98.3012 10.8261H97.3047V10.4609H99.4812V10.8261H98.5372C98.4585 12.2609 98.1701 13.7479 97.4359 14.8435L98.1176 16.4348H99.0878V16.8H97.0687L96.6754 15.9131C96.1247 16.5913 95.2332 17.0348 94.5252 17.0348C92.7683 17.0348 92.1914 15.2609 92.1914 13.8C92.1914 12.8609 92.6372 11.4783 94.3678 10.5131C94.0794 9.80874 93.7385 9.05222 93.7385 8.24352C93.7385 6.86091 94.6301 6.20874 95.4954 6.20874C96.3083 6.20874 97.1736 6.887 97.1736 8.13917C97.1736 8.71309 96.9638 9.57396 95.4954 10.3566L97.3047 14.5044ZM96.3607 7.90439C96.3607 7.14787 96.0461 6.54787 95.4954 6.54787C94.9972 6.54787 94.5514 6.99135 94.5514 7.77396C94.5514 8.45222 95.0759 9.49569 95.3381 10.0435C96.1247 9.57395 96.3607 9.07831 96.3607 7.90439ZM94.499 10.8261C93.8434 11.1913 93.1878 11.687 93.1878 12.8348C93.1878 14.1131 93.9483 16.4348 94.971 16.4348C95.5741 16.4348 96.0199 16.0696 96.5181 15.574L94.499 10.8261Z" fill="white"/>
<path d="M153.736 14.7652C153.736 13.5391 154.707 12.5217 155.939 12.5217C157.171 12.5217 158.168 13.4869 158.168 14.7391C158.168 15.9913 157.171 16.9826 155.939 16.9826C154.733 16.9826 153.736 15.9652 153.736 14.7652ZM157.932 14.7652C157.932 13.6435 157.067 12.7565 155.939 12.7565C154.838 12.7565 153.946 13.6435 153.946 14.7652C153.946 15.8348 154.838 16.7478 155.913 16.7478C157.014 16.7478 157.932 15.8869 157.932 14.7652ZM155.624 15.8087H156.044V15.887H154.68V15.8087H155.1V13.5913H154.68V13.513H156.07C156.516 13.513 157.067 13.5391 157.067 14.0609C157.067 14.4783 156.568 14.6087 156.175 14.6348C156.831 14.713 156.962 15.0261 156.962 15.6C156.962 15.7304 156.988 15.8609 157.381 15.8087V15.887C157.276 15.913 157.145 15.9391 157.014 15.9391C156.595 15.9391 156.385 15.7565 156.385 15.3913C156.385 14.8174 156.28 14.6609 155.598 14.6609L155.624 15.8087ZM155.624 14.5565C156.096 14.5565 156.49 14.6087 156.49 14.0869C156.49 13.513 156.149 13.6174 155.624 13.5913V14.5565Z" fill="white"/>
<path d="M1.01754 7.56518H17.7735C17.8522 7.74779 18.0358 7.90432 18.2455 7.90432H30.2291C30.5175 7.90432 30.7535 7.66954 30.7535 7.38258C30.7535 7.09562 30.5175 6.86084 30.2291 6.86084H18.2455C18.0358 6.86084 17.8522 6.99127 17.7735 7.19997H1.01754C0.912651 7.19997 0.833984 7.27823 0.833984 7.38258C0.833984 7.48693 0.912651 7.56518 1.01754 7.56518Z" fill="white"/>
<path d="M1.01754 9.88704H16.5411C16.6198 10.0696 16.8033 10.2262 17.0131 10.2262H29.0229C29.3113 10.2262 29.5473 9.99138 29.5473 9.73051C29.5473 9.44356 29.3113 9.23486 29.0229 9.23486H17.0131C16.8033 9.23486 16.6198 9.36529 16.5411 9.57399H1.01754C0.912651 9.57399 0.833984 9.65225 0.833984 9.7566C0.833984 9.80878 0.912651 9.88704 1.01754 9.88704Z" fill="white"/>
<path d="M1.01754 12.1827H14.3384C14.4171 12.3653 14.6006 12.5218 14.8104 12.5218H26.8202C27.1087 12.5218 27.3184 12.287 27.3184 12.0262C27.3184 11.7392 27.0824 11.5305 26.8202 11.5305H14.8104C14.6006 11.5305 14.4171 11.6609 14.3384 11.8696H1.01754C0.912651 11.8696 0.833984 11.9479 0.833984 12.0523C0.833984 12.1044 0.912651 12.1827 1.01754 12.1827Z" fill="white"/>
<path d="M1.01754 14.3739H15.8331C15.9118 14.5565 16.0953 14.713 16.3051 14.713H28.2887C28.5771 14.713 28.8131 14.4782 28.8131 14.2173C28.8131 13.9304 28.5771 13.7217 28.2887 13.7217H16.3051C16.0953 13.7217 15.9118 13.8521 15.8331 14.0608H1.01754C0.912651 14.0608 0.833984 14.1391 0.833984 14.2434C0.833984 14.2956 0.912651 14.3739 1.01754 14.3739Z" fill="white"/>
<path d="M1.01754 16.6434H17.4327C17.5113 16.826 17.6949 16.9825 17.9047 16.9825H29.9144C30.2029 16.9825 30.4389 16.7477 30.4389 16.4868C30.4389 16.1999 30.2029 15.9651 29.9144 15.9651H17.9047C17.6949 15.9651 17.5113 16.0955 17.4327 16.3042H1.01754C0.912651 16.3042 0.833984 16.3825 0.833984 16.4868C0.833984 16.5651 0.912651 16.6434 1.01754 16.6434Z" fill="white"/>
<path d="M1.01754 18.9651H17.6424C17.7211 19.1477 17.9046 19.3043 18.1144 19.3043H30.1242C30.4127 19.3043 30.6224 19.0695 30.6224 18.7825C30.6224 18.4956 30.3864 18.2869 30.1242 18.2869H18.0882C17.8784 18.2869 17.6949 18.4173 17.6162 18.626H1.01754C0.912651 18.626 0.833984 18.7043 0.833984 18.8086C0.833984 18.8869 0.912651 18.9651 1.01754 18.9651Z" fill="white"/>
<path d="M1.01754 21.3392H17.8784C17.9571 21.5218 18.1407 21.6783 18.3504 21.6783H30.3602C30.6486 21.6783 30.8584 21.4435 30.8584 21.1826C30.8584 20.8957 30.6224 20.6609 30.3602 20.6609H18.3504C18.1407 20.6609 17.9571 20.7913 17.8784 21H1.01754C0.912651 21 0.833984 21.0783 0.833984 21.1826C0.833984 21.2348 0.912651 21.3392 1.01754 21.3392Z" fill="white"/>
<path d="M31.4878 22.9565H19.478C19.2682 22.9565 19.0847 23.087 19.006 23.2957H1.01754C0.912651 23.2957 0.833984 23.3739 0.833984 23.4783C0.833984 23.5826 0.912651 23.6609 1.01754 23.6609H19.006C19.0847 23.8435 19.2682 24 19.478 24H31.4878C31.7762 24 32.0122 23.7652 32.0122 23.5044C31.986 23.1913 31.7762 22.9565 31.4878 22.9565Z" fill="white"/>
<path d="M1.01754 0.704351H12.7389C12.8175 0.88696 13.0011 1.0174 13.2109 1.0174H25.4567C25.7451 1.0174 25.9549 0.782609 25.9549 0.521739C25.9549 0.234783 25.7189 0 25.4567 0H13.1847C12.9749 0 12.7913 0.13044 12.7127 0.339135H1.01754C0.912651 0.339135 0.833984 0.417391 0.833984 0.521739C0.833984 0.626087 0.912651 0.704351 1.01754 0.704351Z" fill="white"/>
<path d="M1.01754 2.86942H15.9642C16.0429 3.05203 16.2264 3.20855 16.4362 3.20855H27.7904C28.0789 3.20855 28.2887 2.97377 28.2887 2.68681C28.2887 2.39986 28.0527 2.19116 27.7904 2.19116H16.41C16.2002 2.19116 16.0167 2.32159 15.938 2.53029H1.01754C0.912651 2.53029 0.833984 2.60855 0.833984 2.7129C0.833984 2.79116 0.912651 2.86942 1.01754 2.86942Z" fill="white"/>
<path d="M1.01754 5.21736H17.4851C17.5638 5.39997 17.7473 5.55649 17.9571 5.55649H29.5473C29.8358 5.55649 30.0718 5.32171 30.0718 5.06084C30.0718 4.77389 29.8358 4.56519 29.5473 4.56519H17.9571C17.7473 4.56519 17.5638 4.69563 17.4851 4.90432H1.01754C0.912651 4.90432 0.833984 4.98258 0.833984 5.08692C0.833984 5.1391 0.912651 5.21736 1.01754 5.21736Z" fill="white"/>
</g>
</g>
<defs>
<clipPath id="clip0_2126_120281">
<rect width="157.333" height="24" fill="white" transform="translate(0.833984)"/>
</clipPath>
<clipPath id="clip1_2126_120281">
<rect width="157.333" height="24" fill="white" transform="translate(0.833984)"/>
</clipPath>
</defs>
</svg>
