<svg width="118" height="48" viewBox="0 0 118 48" fill="none" xmlns="http://www.w3.org/2000/svg">
<g clip-path="url(#clip0_8698_43693)">
<path d="M28.793 27.5804V27.3065H29.1666V20.0674H28.793V19.7935H31.7233C33.9653 19.7935 34.3193 20.9674 34.3193 21.4956C34.3193 23.0217 32.982 23.3152 31.8806 23.413V23.4326C33.218 23.7652 34.1423 24.2543 34.0243 26.0935C33.985 26.6609 34.0636 27.1695 34.3193 27.2869C34.5356 27.4435 34.9683 27.3652 35.3616 27.2282V27.5217C34.9683 27.6587 34.6143 27.7369 34.3193 27.7369C33.4933 27.7565 33.0213 27.3065 32.864 26.7587C32.805 26.5435 32.7263 25.6043 32.6476 24.9C32.5886 24.3717 32.4903 23.4913 31.0153 23.4913H30.3073V27.2869H31.2316V27.5609L28.793 27.5804ZM30.3073 23.2369H30.9366C32.215 23.2369 33.041 23.1391 33.041 21.5348C33.041 20.4 32.5493 20.0478 31.4283 20.0478H30.327L30.3073 23.2369Z" fill="white"/>
<path d="M39.5303 26.1327C39.2943 27.2088 38.5077 27.7175 37.4653 27.7175C36.2657 27.7175 35.125 26.7588 35.125 25.4675C35.125 24.0979 36.0297 22.8262 37.426 22.8262C38.6257 22.8262 39.5303 23.6283 39.5303 24.9001H36.2263V25.3697C36.2263 26.524 36.3837 27.4631 37.662 27.4631C38.3307 27.4631 39.1173 26.8762 39.2747 26.1131H39.5303V26.1327ZM38.4683 24.587V24.1957C38.4683 23.3544 37.9767 23.1001 37.3867 23.1001C36.6787 23.1001 36.364 23.7457 36.3443 23.8436C36.2657 24.0588 36.246 24.3131 36.2263 24.6066L38.4683 24.587Z" fill="white"/>
<path d="M43.5623 23.237L41.694 28.3631C41.281 29.4784 40.9466 30.2218 40.1993 30.2218C39.9436 30.2218 39.629 29.987 39.629 29.7131C39.629 29.4001 39.8453 29.2044 40.101 29.2044C40.573 29.2044 40.573 29.6349 40.7107 29.6349C40.8877 29.6349 41.0057 29.3414 41.163 28.9305C41.2613 28.7153 41.399 28.4023 41.6743 27.5805L39.8847 23.237H39.334V22.9631H41.576V23.237H40.8286L42.1267 26.3675L43.228 23.237H42.4807V22.9631H44.1326V23.237H43.5623Z" fill="white"/>
<path d="M45.272 23.237H44.623V22.9631H44.8787C45.095 22.9631 45.331 22.9631 45.5277 22.9435C45.744 22.924 45.98 22.9044 46.1767 22.8457V24.0783H46.1964C46.5307 23.3348 46.983 22.8457 47.8287 22.8457C48.2417 22.8457 49.225 22.9435 49.225 24V27.287H49.8544V27.5609H47.7304V27.287H48.34V24.1566C48.34 23.2957 48.0647 23.1783 47.5927 23.1783C46.7864 23.1783 46.1964 24.2544 46.1964 25.1348V27.3066H46.8257V27.5805H44.6427V27.3066H45.2917L45.272 23.237Z" fill="white"/>
<path d="M54.3983 25.2718C54.3983 26.6805 53.3757 27.7174 52.1367 27.7174C50.9173 27.7174 49.875 26.6805 49.875 25.2718C49.875 23.8631 50.8977 22.8457 52.1367 22.8457C53.3757 22.8457 54.3983 23.8631 54.3983 25.2718ZM50.937 25.2718C50.937 26.25 50.9567 27.4827 52.1367 27.4827C53.3167 27.4827 53.3363 26.25 53.3363 25.2718C53.3363 24.3131 53.3167 23.0805 52.1367 23.0805C50.9567 23.0805 50.937 24.3131 50.937 25.2718Z" fill="white"/>
<path d="M54.2012 27.5805V27.3066H55.1058V19.8327H54.2012V19.5588H54.7125C55.1452 19.5588 55.5975 19.5392 56.0302 19.4609V27.3262H56.9348V27.6001H54.2012V27.5805Z" fill="white"/>
<path d="M61.9691 27.3066V27.5805C61.4577 27.5805 60.9464 27.6001 60.4351 27.6784V26.8958H60.4154C60.0811 27.4631 59.5501 27.7371 58.8814 27.7371C57.7014 27.7371 56.8164 26.6023 56.8164 25.2718C56.8164 23.961 57.6031 22.8458 58.9994 22.8458C59.3731 22.8458 60.0417 23.0218 60.3957 23.7262H60.4154V19.8131H59.6287V19.5392H60.0221C60.4547 19.5392 60.9071 19.5197 61.3397 19.4414V27.3066H61.9691ZM58.9994 23.0805C57.9177 23.0805 57.8784 24.274 57.8784 25.0958C57.8784 26.8958 58.0947 27.4827 59.0584 27.4827C59.3534 27.4827 59.7074 27.2871 59.8647 27.1697C60.3171 26.7784 60.4547 26.5436 60.4547 25.3305C60.4547 25.0762 60.4351 24.5284 60.3761 24.3131C60.3171 24.1371 60.0614 23.0805 58.9994 23.0805Z" fill="white"/>
<path d="M65.5485 22.9631V24.2739H65.2928C65.1158 23.5891 64.7225 23.1196 64.0145 23.0805C63.0508 23.0609 62.9131 23.7848 62.9131 23.9413C62.9131 24.2739 63.0115 24.45 64.8011 24.8218C65.7058 25.0174 66.0205 25.4087 66.0205 26.1522C66.0205 27.15 65.2535 27.737 64.3291 27.737C63.8375 27.737 63.3261 27.5413 62.9918 27.1696L62.7361 27.5805H62.4805V26.0544H62.7558C62.9721 26.8957 63.5621 27.5022 64.4078 27.5022C64.9388 27.5022 65.5485 27.1109 65.5485 26.5044C65.5485 26.0544 64.8995 25.8391 63.9358 25.6044C63.1688 25.4087 62.4805 25.3109 62.4805 24.2935C62.4805 23.8044 62.7755 22.8652 64.0538 22.8652C64.4078 22.8652 64.7815 23.0022 65.1355 23.2957L65.3518 22.9826L65.5485 22.9631Z" fill="white"/>
<path d="M76.1484 27.5804V27.3065H77.0531V20.0674H76.1484V19.7935H79.5901C81.8321 19.7935 82.1861 20.9674 82.1861 21.4956C82.1861 23.0217 80.8488 23.3152 79.7474 23.413V23.4326C81.0848 23.7652 82.0091 24.2543 81.8911 26.0935C81.8518 26.6609 81.9304 27.1695 82.1861 27.2869C82.4024 27.4435 82.8351 27.3652 83.2284 27.2282V27.5217C82.8351 27.6587 82.4811 27.7369 82.1861 27.7369C81.3601 27.7565 80.8881 27.3065 80.7308 26.7587C80.6718 26.5435 80.5931 25.6043 80.5144 24.9C80.4554 24.3717 80.3571 23.4913 78.8821 23.4913H78.1741V27.2869H79.0984V27.5609L76.1484 27.5804ZM78.1741 23.2565H78.8034C80.0818 23.2565 80.9078 23.1587 80.9078 21.5543C80.9078 20.4195 80.4161 20.0674 79.2951 20.0674H78.1938L78.1741 23.2565Z" fill="white"/>
<path d="M87.3995 26.1327C87.1635 27.2088 86.3768 27.7175 85.3345 27.7175C84.1348 27.7175 82.9941 26.7588 82.9941 25.4675C82.9941 24.0979 83.8988 22.8262 85.2951 22.8262C86.4948 22.8262 87.3995 23.6283 87.3995 24.9001H84.0955V25.3697C84.0955 26.524 84.2528 27.4631 85.5311 27.4631C86.1998 27.4631 86.9865 26.8762 87.1438 26.1131H87.3995V26.1327ZM86.3375 24.587V24.1957C86.3375 23.3544 85.8458 23.1001 85.2558 23.1001C84.5478 23.1001 84.2331 23.7457 84.2135 23.8436C84.1348 24.0588 84.1151 24.3131 84.0955 24.6066L86.3375 24.587Z" fill="white"/>
<path d="M91.4295 23.237L89.5612 28.3631C89.1482 29.4784 88.8138 30.2218 88.0665 30.2218C87.8108 30.2218 87.4962 29.987 87.4962 29.7131C87.4962 29.4001 87.7125 29.2044 87.9682 29.2044C88.4402 29.2044 88.4402 29.6349 88.5778 29.6349C88.7548 29.6349 88.8728 29.3414 89.0302 28.9305C89.1285 28.7153 89.2662 28.4023 89.5415 27.5805L87.7518 23.237H87.2012V22.9631H89.4432V23.237H88.6958L89.9938 26.3675L91.0952 23.237H90.3478V22.9631H91.9998V23.237H91.4295Z" fill="white"/>
<path d="M93.1412 23.237H92.4922V22.9631H92.7479C92.9642 22.9631 93.2002 22.9631 93.3969 22.9435C93.6132 22.924 93.8492 22.9044 94.0459 22.8457V24.0783H94.0655C94.3999 23.3348 94.8522 22.8457 95.6979 22.8457C96.1109 22.8457 97.0942 22.9435 97.0942 24V27.287H97.7235V27.5609H95.5799V27.287H96.1895V24.137C96.1895 23.2761 95.9142 23.1587 95.4422 23.1587C94.6359 23.1587 94.0459 24.2348 94.0459 25.1153V27.287H94.6752V27.5609H92.4922V27.287H93.1412V23.237Z" fill="white"/>
<path d="M102.267 25.2913C102.267 26.7 101.245 27.737 100.006 27.737C98.7668 27.737 97.7441 26.7 97.7441 25.2913C97.7441 23.8826 98.7668 22.8652 100.006 22.8652C101.225 22.8652 102.267 23.8826 102.267 25.2913ZM98.8061 25.2913C98.8061 26.2696 98.8258 27.5022 100.006 27.5022C101.186 27.5022 101.205 26.2696 101.205 25.2913C101.205 24.3326 101.186 23.1 100.006 23.1C98.8258 23.1 98.8061 24.3326 98.8061 25.2913Z" fill="white"/>
<path d="M102.07 27.5805V27.3066H102.975V19.8327H102.07V19.5588H102.582C103.014 19.5588 103.467 19.5392 103.899 19.4609V27.3262H104.804V27.6001H102.07V27.5805Z" fill="white"/>
<path d="M109.838 27.3066V27.5805C109.327 27.5805 108.816 27.6001 108.304 27.6784V26.8958H108.285C107.95 27.4631 107.419 27.7371 106.751 27.7371C105.571 27.7371 104.686 26.6023 104.686 25.2718C104.686 23.961 105.472 22.8458 106.869 22.8458C107.242 22.8458 107.911 23.0218 108.265 23.7262H108.285V19.8131H107.498V19.5392H107.891C108.324 19.5392 108.776 19.5197 109.209 19.4414V27.3066H109.838ZM106.869 23.1001C105.787 23.1001 105.748 24.2936 105.748 25.1153C105.748 26.9153 105.964 27.5023 106.928 27.5023C107.223 27.5023 107.577 27.3066 107.734 27.1892C108.186 26.7979 108.324 26.5631 108.324 25.3501C108.324 25.0958 108.304 24.5479 108.245 24.3327C108.206 24.1371 107.931 23.1001 106.869 23.1001Z" fill="white"/>
<path d="M113.418 22.9826V24.2935H113.162C112.985 23.6087 112.592 23.1391 111.884 23.1C110.92 23.0804 110.782 23.8043 110.782 23.9609C110.782 24.2935 110.881 24.4695 112.67 24.8413C113.575 25.0369 113.89 25.4282 113.89 26.1717C113.89 27.1695 113.123 27.7565 112.198 27.7565C111.707 27.7565 111.195 27.5609 110.861 27.1891L110.605 27.6H110.35V26.0739H110.625C110.841 26.9152 111.431 27.5217 112.277 27.5217C112.808 27.5217 113.418 27.1304 113.418 26.5239C113.418 26.0739 112.769 25.8587 111.805 25.6239C111.038 25.4282 110.35 25.3304 110.35 24.313C110.35 23.8239 110.645 22.8848 111.923 22.8848C112.277 22.8848 112.651 23.0217 113.005 23.3152L113.221 23.0022L113.418 22.9826Z" fill="white"/>
<path d="M72.3545 25.8782C72.8462 24.9978 73.0625 24.1369 73.1019 23.1195H72.3545V22.8456H73.9869V23.1195H73.2789C73.2199 24.1956 73.0035 25.3108 72.4529 26.1326L72.9642 27.3261H73.6919V27.6H72.1775L71.8825 26.9348C71.4695 27.4434 70.8009 27.7761 70.2699 27.7761C68.9522 27.7761 68.5195 26.4456 68.5195 25.35C68.5195 24.6456 68.8539 23.6087 70.1519 22.8848C69.9355 22.3565 69.6799 21.7891 69.6799 21.1826C69.6799 20.1456 70.3485 19.6565 70.9975 19.6565C71.6072 19.6565 72.2562 20.1652 72.2562 21.1043C72.2562 21.5348 72.0989 22.1804 70.9975 22.7674L72.3545 25.8782ZM71.6465 20.9282C71.6465 20.3608 71.4105 19.9108 70.9975 19.9108C70.6239 19.9108 70.2895 20.2435 70.2895 20.8304C70.2895 21.3391 70.6829 22.1217 70.8795 22.5326C71.4695 22.1804 71.6465 21.8087 71.6465 20.9282ZM70.2502 23.1195C69.7585 23.3934 69.2669 23.7652 69.2669 24.6261C69.2669 25.5848 69.8372 27.3261 70.6042 27.3261C71.0565 27.3261 71.3909 27.0521 71.7645 26.6804L70.2502 23.1195Z" fill="white"/>
<path d="M114.676 26.074C114.676 25.1544 115.403 24.3914 116.328 24.3914C117.252 24.3914 117.999 25.1153 117.999 26.0544C117.999 26.9935 117.252 27.737 116.328 27.737C115.423 27.737 114.676 26.974 114.676 26.074ZM117.822 26.074C117.822 25.2327 117.173 24.5674 116.328 24.5674C115.502 24.5674 114.833 25.2327 114.833 26.074C114.833 26.8761 115.502 27.5609 116.308 27.5609C117.134 27.5609 117.822 26.9153 117.822 26.074ZM116.092 26.8566H116.406V26.9153H115.384V26.8566H115.698V25.1935H115.384V25.1348H116.426C116.76 25.1348 117.173 25.1544 117.173 25.5457C117.173 25.8588 116.8 25.9566 116.505 25.9761C116.996 26.0348 117.095 26.2696 117.095 26.7001C117.095 26.7979 117.114 26.8957 117.409 26.8566V26.9153C117.331 26.9348 117.232 26.9544 117.134 26.9544C116.819 26.9544 116.662 26.8174 116.662 26.5435C116.662 26.1131 116.583 25.9957 116.072 25.9957L116.092 26.8566ZM116.092 25.9174C116.446 25.9174 116.741 25.9566 116.741 25.5653C116.741 25.1348 116.485 25.2131 116.092 25.1935V25.9174Z" fill="white"/>
<path d="M0.137667 20.674H12.7047C12.7637 20.811 12.9013 20.9284 13.0587 20.9284H22.0463C22.2627 20.9284 22.4397 20.7523 22.4397 20.5371C22.4397 20.3218 22.2627 20.1458 22.0463 20.1458H13.0587C12.9013 20.1458 12.7637 20.2436 12.7047 20.4001H0.137667C0.0590001 20.4001 0 20.4588 0 20.5371C0 20.6153 0.0590001 20.674 0.137667 20.674Z" fill="white"/>
<path d="M0.137667 22.4152H11.7803C11.8393 22.5521 11.977 22.6695 12.1343 22.6695H21.1417C21.358 22.6695 21.535 22.4934 21.535 22.2978C21.535 22.0825 21.358 21.926 21.1417 21.926H12.1343C11.977 21.926 11.8393 22.0238 11.7803 22.1804H0.137667C0.0590001 22.1804 0 22.2391 0 22.3173C0 22.3565 0.0590001 22.4152 0.137667 22.4152Z" fill="white"/>
<path d="M0.137667 24.1371H10.1283C10.1873 24.274 10.325 24.3914 10.4823 24.3914H19.4897C19.706 24.3914 19.8633 24.2153 19.8633 24.0197C19.8633 23.8045 19.6863 23.6479 19.4897 23.6479H10.4823C10.325 23.6479 10.1873 23.7458 10.1283 23.9023H0.137667C0.0590001 23.9023 0 23.961 0 24.0393C0 24.0784 0.0590001 24.1371 0.137667 24.1371Z" fill="white"/>
<path d="M0.137667 25.7804H11.2493C11.3083 25.9173 11.446 26.0347 11.6033 26.0347H20.591C20.8073 26.0347 20.9843 25.8586 20.9843 25.663C20.9843 25.4478 20.8073 25.2913 20.591 25.2913H11.6033C11.446 25.2913 11.3083 25.3891 11.2493 25.5456H0.137667C0.0590001 25.5456 0 25.6043 0 25.6826C0 25.7217 0.0590001 25.7804 0.137667 25.7804Z" fill="white"/>
<path d="M0.137667 27.4826H12.449C12.508 27.6195 12.6457 27.7369 12.803 27.7369H21.8103C22.0267 27.7369 22.2037 27.5608 22.2037 27.3652C22.2037 27.15 22.0267 26.9739 21.8103 26.9739H12.803C12.6457 26.9739 12.508 27.0717 12.449 27.2282H0.137667C0.0590001 27.2282 0 27.2869 0 27.3652C0 27.4239 0.0590001 27.4826 0.137667 27.4826Z" fill="white"/>
<path d="M0.137667 29.224H12.6063C12.6653 29.361 12.803 29.4784 12.9603 29.4784H21.9677C22.184 29.4784 22.3413 29.3023 22.3413 29.0871C22.3413 28.8719 22.1643 28.7153 21.9677 28.7153H12.9407C12.7833 28.7153 12.6457 28.8132 12.5867 28.9697H0.137667C0.0590001 28.9697 0 29.0284 0 29.1066C0 29.1653 0.0590001 29.224 0.137667 29.224Z" fill="white"/>
<path d="M0.137667 31.0043H12.7833C12.8423 31.1413 12.98 31.2586 13.1373 31.2586H22.1447C22.361 31.2586 22.5183 31.0826 22.5183 30.8869C22.5183 30.6717 22.3413 30.4956 22.1447 30.4956H13.1373C12.98 30.4956 12.8423 30.5934 12.7833 30.75H0.137667C0.0590001 30.75 0 30.8086 0 30.8869C0 30.926 0.0590001 31.0043 0.137667 31.0043Z" fill="white"/>
<path d="M22.9903 32.2173H13.983C13.8257 32.2173 13.688 32.3151 13.629 32.4716H0.137667C0.0590001 32.4716 0 32.5303 0 32.6086C0 32.6869 0.0590001 32.7455 0.137667 32.7455H13.629C13.688 32.8825 13.8257 32.9999 13.983 32.9999H22.9903C23.2067 32.9999 23.3837 32.8238 23.3837 32.6282C23.364 32.3934 23.2067 32.2173 22.9903 32.2173Z" fill="white"/>
<path d="M0.137667 15.5283H8.92867C8.98767 15.6652 9.12533 15.763 9.28267 15.763H18.467C18.6833 15.763 18.8407 15.587 18.8407 15.3913C18.8407 15.1761 18.6637 15 18.467 15H9.263C9.10567 15 8.968 15.0978 8.909 15.2544H0.137667C0.0590001 15.2544 0 15.313 0 15.3913C0 15.4696 0.0590001 15.5283 0.137667 15.5283Z" fill="white"/>
<path d="M0.137667 17.1522H11.3477C11.4067 17.2892 11.5443 17.4066 11.7017 17.4066H20.2173C20.4337 17.4066 20.591 17.2305 20.591 17.0153C20.591 16.8001 20.414 16.6436 20.2173 16.6436H11.682C11.5247 16.6436 11.387 16.7414 11.328 16.8979H0.137667C0.0590001 16.8979 0 16.9566 0 17.0349C0 17.0936 0.0590001 17.1522 0.137667 17.1522Z" fill="white"/>
<path d="M0.137667 18.913H12.4883C12.5473 19.0499 12.685 19.1673 12.8423 19.1673H21.535C21.7513 19.1673 21.9283 18.9912 21.9283 18.7956C21.9283 18.5804 21.7513 18.4238 21.535 18.4238H12.8423C12.685 18.4238 12.5473 18.5217 12.4883 18.6782H0.137667C0.0590001 18.6782 0 18.7369 0 18.8151C0 18.8543 0.0590001 18.913 0.137667 18.913Z" fill="white"/>
</g>
<defs>
<clipPath id="clip0_8698_43693">
<rect width="118" height="18" fill="white" transform="translate(0 15)"/>
</clipPath>
</defs>
</svg>
