<svg width="19" height="17" viewBox="0 0 19 17" fill="none" xmlns="http://www.w3.org/2000/svg">
<path fill-rule="evenodd" clip-rule="evenodd" d="M18.75 8.5C18.75 8.77238 18.6023 9.02334 18.3642 9.15562L16.0819 10.4236C11.5705 12.9299 6.81474 14.9687 1.88879 16.508L1.22371 16.7159C0.995977 16.787 0.747976 16.7456 0.555747 16.6043C0.363519 16.4629 0.249999 16.2386 0.249999 16L0.25 10.25C0.25 9.85898 0.550415 9.53357 0.940191 9.50239L1.16752 9.48421C3.31898 9.31209 5.45387 8.98288 7.5552 8.49969C5.42436 8.00979 3.25902 7.67824 1.0769 7.50827L0.941755 7.49774C0.551315 7.46732 0.25 7.14163 0.25 6.75L0.25 1.00001C0.25 0.761416 0.36352 0.537062 0.555748 0.395737C0.747976 0.254412 0.995977 0.21298 1.22371 0.284145L1.88878 0.491981C6.81474 2.03134 11.5705 4.07008 16.0819 6.57643L18.3642 7.84439C18.6023 7.97666 18.75 8.22763 18.75 8.5ZM16.4557 8.5L15.3534 7.88766C11.0256 5.48333 6.46847 3.51801 1.75 2.02089L1.75 6.05957C4.68008 6.32384 7.57829 6.87016 10.4043 7.69119L10.7092 7.77978C11.0299 7.87294 11.2503 8.16684 11.25 8.50073C11.2497 8.83463 11.0287 9.1281 10.7078 9.22063L10.3173 9.33328C7.51882 10.1404 4.65003 10.6784 1.75 10.94L1.75 14.9791C6.46846 13.482 11.0256 11.5167 15.3534 9.11235L16.4557 8.5Z" fill="#F0F2F5"/>
</svg>
