<svg width="15" height="17" viewBox="0 0 15 17" fill="none" xmlns="http://www.w3.org/2000/svg">
<path fill-rule="evenodd" clip-rule="evenodd" d="M8.83851 3.059C8.83851 1.58624 10.0026 0.392334 11.4385 0.392334C12.8745 0.392334 14.0385 1.58624 14.0385 3.059C14.0385 4.53176 12.8745 5.72567 11.4385 5.72567C10.6708 5.72567 9.98082 5.38441 9.50489 4.84173L7.33104 6.05787L4.89863 7.48346C5.11493 7.87246 5.23851 8.32272 5.23851 8.80259C5.23851 9.04575 5.20678 9.28131 5.14733 9.50514L9.50489 11.9429C9.98083 11.4003 10.6708 11.059 11.4385 11.059C12.8745 11.059 14.0385 12.2529 14.0385 13.7257C14.0385 15.1984 12.8745 16.3923 11.4385 16.3923C10.0026 16.3923 8.83851 15.1984 8.83851 13.7257C8.83851 13.4825 8.87025 13.2469 8.9297 13.0231L4.57215 10.5853C4.09621 11.128 3.40622 11.4693 2.63851 11.4693C1.20257 11.4693 0.0385132 10.2753 0.0385132 8.80259C0.0385132 7.32983 1.20257 6.13592 2.63851 6.13592C3.15906 6.13592 3.64387 6.29282 4.05045 6.56302L6.74599 4.98321L8.92969 3.76156C8.87025 3.53772 8.83851 3.30216 8.83851 3.059ZM11.4385 1.6231C10.6653 1.6231 10.0385 2.26598 10.0385 3.059C10.0385 3.85203 10.6653 4.4949 11.4385 4.4949C12.2117 4.4949 12.8385 3.85203 12.8385 3.059C12.8385 2.26598 12.2117 1.6231 11.4385 1.6231ZM2.63851 7.36669C1.86531 7.36669 1.23851 8.00957 1.23851 8.80259C1.23851 9.59561 1.86531 10.2385 2.63851 10.2385C3.41171 10.2385 4.03851 9.59561 4.03851 8.80259C4.03851 8.00957 3.41171 7.36669 2.63851 7.36669ZM10.0385 13.7257C10.0385 12.9326 10.6653 12.2898 11.4385 12.2898C12.2117 12.2898 12.8385 12.9326 12.8385 13.7257C12.8385 14.5187 12.2117 15.1616 11.4385 15.1616C10.6653 15.1616 10.0385 14.5187 10.0385 13.7257Z" fill="#D6DBE8"/>
</svg>
