<svg width="722" height="522" viewBox="0 0 722 522" fill="none" xmlns="http://www.w3.org/2000/svg">
<g clip-path="url(#clip0_51_963)">
<path opacity="0.2" d="M-22.0566 361.915C31.1055 361.915 45.3128 296.179 89.103 296.179C132.893 296.179 140.827 304.005 184.965 304.005C282.266 304.005 266.132 156.881 363.433 156.881C460.733 156.881 458.877 285.223 556.177 285.223C653.478 285.223 658.76 349.91 756.061 349.91" stroke="url(#paint0_linear_51_963)" stroke-width="3" stroke-linecap="round"/>
<path opacity="0.2" d="M-12.785 361.915C40.0627 356.141 23.4259 338.358 84.4011 331.696C145.376 325.033 124.284 261.07 200.938 252.694C297.663 242.126 279.177 283.347 375.902 272.778C472.627 262.209 474.261 301.704 540.463 294.47C613.489 286.491 642.939 266.615 698.368 271.38C716.357 272.926 736.274 273.075 759.974 270.486" stroke="url(#paint1_linear_51_963)" stroke-width="3" stroke-linecap="round"/>
<path d="M-22.0566 390.531C31.1055 390.531 16.4987 346.494 77.8368 346.494C139.175 346.494 133.854 236.288 210.965 236.288C308.266 236.288 288.976 175.301 386.277 175.301C483.578 175.301 522.082 270.966 756.654 236.288" stroke="url(#paint2_linear_51_963)" stroke-width="3" stroke-linecap="round"/>
</g>
<defs>
<linearGradient id="paint0_linear_51_963" x1="756.061" y1="208.139" x2="-2.65113" y2="210.6" gradientUnits="userSpaceOnUse">
<stop stop-color="white"/>
<stop offset="1" stop-color="#B9B9B9"/>
</linearGradient>
<linearGradient id="paint1_linear_51_963" x1="753.775" y1="213.756" x2="0.231827" y2="302.037" gradientUnits="userSpaceOnUse">
<stop stop-color="white"/>
<stop offset="1" stop-color="#B9B9B9"/>
</linearGradient>
<linearGradient id="paint2_linear_51_963" x1="756.654" y1="175.301" x2="6.33387" y2="175.301" gradientUnits="userSpaceOnUse">
<stop stop-color="#1BE2C5"/>
<stop offset="1" stop-color="#FF29C3"/>
</linearGradient>
<clipPath id="clip0_51_963">
<rect width="721" height="522" fill="white" transform="translate(0.729492)"/>
</clipPath>
</defs>
</svg>
