<svg width="34" height="34" viewBox="0 0 34 34" fill="none" xmlns="http://www.w3.org/2000/svg">
<path fill-rule="evenodd" clip-rule="evenodd" d="M11.8232 10C10.7187 10 9.82324 10.8954 9.82324 12V22C9.82324 23.1046 10.7187 24 11.8232 24H14.0455C15.15 24 16.0455 23.1046 16.0455 22V12C16.0455 10.8954 15.15 10 14.0455 10H11.8232ZM19.1566 11.5556H22.2677V22.4444H19.1566V11.5556ZM17.601 11.5556C17.601 10.6964 18.2975 10 19.1566 10H22.2677C23.1268 10 23.8232 10.6964 23.8232 11.5556V22.4444C23.8232 23.3036 23.1268 24 22.2677 24H19.1566C18.2975 24 17.601 23.3036 17.601 22.4444V11.5556Z" fill="#E5E8EF"/>
</svg>
