<svg width="32" height="33" viewBox="0 0 32 33" fill="none" xmlns="http://www.w3.org/2000/svg">
<rect y="0.898438" width="32" height="32" rx="3" fill="url(#paint0_linear_4430_313740)"/>
<rect y="0.898438" width="32" height="32" rx="3" fill="url(#paint1_linear_4430_313740)"/>
<path d="M13.4909 25.6768H19.8906V24.6302H13.4909V25.6768Z" fill="#AB9EC7"/>
<path d="M12.7493 24.9785H20.5859V23.4518H12.7493V24.9785Z" fill="#DECFF6"/>
<path d="M23.9409 8.25612L7.71755 9.37478C7.14867 9.414 6.71936 9.90786 6.75866 10.4778L7.64227 23.2924C7.68157 23.8623 8.1746 24.2926 8.74348 24.2534L24.9668 23.1347C25.5357 23.0955 25.965 22.6016 25.9257 22.0316L25.0421 9.21713C25.0028 8.64715 24.5098 8.21689 23.9409 8.25612Z" fill="url(#paint2_linear_4430_313740)"/>
<path d="M9.01005 12.1698L6.59933 12.3361C6.03318 12.3751 5.60293 12.8232 5.63835 13.3369L6.16811 21.0197C6.20353 21.5334 6.69121 21.9182 7.25736 21.8792L9.66808 21.7129C10.2342 21.6739 10.6645 21.2258 10.6291 20.7121L10.0993 13.0293C10.0639 12.5156 9.57621 12.1308 9.01005 12.1698Z" fill="#DECFF6"/>
<path d="M6.74761 13.7823L5.22227 13.8875C5.07578 13.8976 4.96524 14.0247 4.97536 14.1715L5.40743 20.4377C5.41755 20.5845 5.54451 20.6953 5.691 20.6852L7.21633 20.58C7.36282 20.5699 7.47337 20.4427 7.46325 20.296L7.03117 14.0298C7.02105 13.883 6.89409 13.7722 6.74761 13.7823Z" fill="#AB9EC7"/>
<path d="M6.10083 14.7977L2.36328 15.0554L2.38827 15.4178L6.12582 15.1601L6.10083 14.7977Z" fill="white"/>
<path d="M25.4085 11.0392L22.9978 11.2054C22.4316 11.2445 22.0014 11.6926 22.0368 12.2063L22.5666 19.8891C22.602 20.4028 23.0896 20.7876 23.6558 20.7485L26.0665 20.5823C26.6327 20.5433 27.0629 20.0952 27.0275 19.5815L26.4977 11.8987C26.4623 11.385 25.9746 11.0002 25.4085 11.0392Z" fill="#DECFF6"/>
<path d="M27.0914 12.3795L25.566 12.4846C25.4195 12.4947 25.309 12.6219 25.3191 12.7687L25.7512 19.0349C25.7613 19.1817 25.8883 19.2925 26.0347 19.2823L27.5601 19.1772C27.7066 19.1671 27.8171 19.0399 27.807 18.8931L27.3749 12.6269C27.3648 12.4802 27.2378 12.3694 27.0914 12.3795Z" fill="#AB9EC7"/>
<path d="M29.4912 13.1848L26.5977 13.3843L26.6226 13.7467L29.5162 13.5472L29.4912 13.1848Z" fill="white"/>
<path d="M23.1699 8.30936L9.09255 9.28005C8.52367 9.31927 8.09436 9.81313 8.13366 10.3831L9.01727 23.1976C9.05657 23.7676 9.5496 24.1979 10.1185 24.1586L24.1959 23.188C24.7648 23.1487 25.1941 22.6549 25.1548 22.0849L24.2712 9.27038C24.2319 8.7004 23.7388 8.27014 23.1699 8.30936Z" fill="url(#paint3_linear_4430_313740)"/>
<path d="M21.179 11.9895L11.5652 12.6524C10.9963 12.6916 10.567 13.1854 10.6063 13.7554L11.0036 19.5177C11.0429 20.0876 11.536 20.5179 12.1049 20.4787L21.7187 19.8158C22.2876 19.7765 22.7169 19.2827 22.6776 18.7127L22.2803 12.9505C22.241 12.3805 21.7479 11.9502 21.179 11.9895Z" fill="url(#paint4_linear_4430_313740)"/>
<path d="M21.179 11.9895L11.5652 12.6524C10.9963 12.6916 10.567 13.1854 10.6063 13.7554L11.0036 19.5177C11.0429 20.0876 11.536 20.5179 12.1049 20.4787L21.7187 19.8158C22.2876 19.7765 22.7169 19.2827 22.6776 18.7127L22.2803 12.9505C22.241 12.3805 21.7479 11.9502 21.179 11.9895Z" fill="url(#paint5_linear_4430_313740)"/>
<path d="M20.9618 16.3263C20.9094 15.566 20.2338 14.7233 19.475 14.7757C18.7162 14.828 18.1626 15.7554 18.215 16.5157C18.2674 17.276 18.8867 17.3009 19.6455 17.2486C20.4043 17.1963 21.0142 17.0866 20.9618 16.3263Z" fill="url(#paint6_linear_4430_313740)"/>
<path d="M15.5548 16.6991C15.5024 15.9388 14.8275 15.1074 14.0687 15.1597C13.3099 15.212 12.7556 16.1282 12.808 16.8885C12.8604 17.6487 13.4838 17.734 14.2426 17.6816C15.0014 17.6293 15.6072 17.4593 15.5548 16.6991Z" fill="url(#paint7_linear_4430_313740)"/>
<path style="mix-blend-mode:screen" d="M21.5722 19.8225L12.0442 20.4795C12.0442 20.4795 11.439 20.4586 11.0744 20.1732L2.18834 12.6546L30.3762 10.1295L22.6497 19.1891C22.6497 19.1891 22.5207 19.8197 21.5722 19.8225Z" fill="url(#paint8_linear_4430_313740)"/>
<defs>
<linearGradient id="paint0_linear_4430_313740" x1="32" y1="8.89836" x2="0.797744" y2="8.92503" gradientUnits="userSpaceOnUse">
<stop stop-color="#E323FF"/>
<stop offset="1" stop-color="#7517F8"/>
</linearGradient>
<linearGradient id="paint1_linear_4430_313740" x1="32" y1="0.898437" x2="1.16667" y2="0.898437" gradientUnits="userSpaceOnUse">
<stop stop-color="#20D6B5"/>
<stop offset="1" stop-color="#2E83E2"/>
</linearGradient>
<linearGradient id="paint2_linear_4430_313740" x1="7.20047" y1="16.8851" x2="25.4839" y2="15.6244" gradientUnits="userSpaceOnUse">
<stop stop-color="#F2EBFF"/>
<stop offset="0.04" stop-color="#F5F0FF"/>
<stop offset="0.14" stop-color="#FCFBFF"/>
<stop offset="0.25" stop-color="white"/>
</linearGradient>
<linearGradient id="paint3_linear_4430_313740" x1="8.57547" y1="16.7904" x2="24.713" y2="15.6776" gradientUnits="userSpaceOnUse">
<stop stop-color="#EAE1FC"/>
<stop offset="1" stop-color="#E6E5FD"/>
</linearGradient>
<linearGradient id="paint4_linear_4430_313740" x1="10.805" y1="16.6365" x2="22.4789" y2="15.8316" gradientUnits="userSpaceOnUse">
<stop stop-color="#2A5DE6"/>
<stop offset="1" stop-color="#3A2AE6"/>
</linearGradient>
<linearGradient id="paint5_linear_4430_313740" x1="22.48" y1="15.8319" x2="10.8061" y2="16.6369" gradientUnits="userSpaceOnUse">
<stop stop-color="#23AA92"/>
<stop offset="1" stop-color="#7A4BD8"/>
</linearGradient>
<linearGradient id="paint6_linear_4430_313740" x1="18.2239" y1="16.6447" x2="20.9707" y2="16.4553" gradientUnits="userSpaceOnUse">
<stop stop-color="#F2EBFF"/>
<stop offset="1" stop-color="#F7F5FF"/>
</linearGradient>
<linearGradient id="paint7_linear_4430_313740" x1="12.7991" y1="16.7595" x2="15.5459" y2="16.5701" gradientUnits="userSpaceOnUse">
<stop stop-color="#F2EBFF"/>
<stop offset="1" stop-color="#F7F5FF"/>
</linearGradient>
<linearGradient id="paint8_linear_4430_313740" x1="16.2756" y1="11.4065" x2="16.9922" y2="20.1056" gradientUnits="userSpaceOnUse">
<stop/>
<stop offset="1" stop-color="#6BCAFF"/>
</linearGradient>
</defs>
</svg>
