<svg width="11" height="12" viewBox="0 0 11 12" fill="none" xmlns="http://www.w3.org/2000/svg">
<path fill-rule="evenodd" clip-rule="evenodd" d="M0.6875 3.66659C0.6875 2.1363 1.92804 0.895752 3.45833 0.895752H9.29167C9.85546 0.895752 10.3125 1.35279 10.3125 1.91659V10.6666C10.3125 11.2304 9.85546 11.6874 9.29167 11.6874H2.875C1.66688 11.6874 0.6875 10.708 0.6875 9.49992V3.66659ZM9.4375 1.91659V7.31242H2.875C2.38255 7.31242 1.9281 7.47514 1.5625 7.74976V3.66659C1.5625 2.61955 2.41129 1.77075 3.45833 1.77075H5.32961C5.17602 2.92665 5.18982 4.09959 5.37134 5.25326L5.40773 5.48458C5.4338 5.65026 5.55229 5.78646 5.71278 5.8352C5.87326 5.88394 6.04748 5.83665 6.16129 5.71344L6.95834 4.85059L7.75539 5.71344C7.86919 5.83665 8.04341 5.88394 8.2039 5.8352C8.36438 5.78646 8.48287 5.65026 8.50894 5.48458L8.54534 5.25326C8.72686 4.09959 8.74065 2.92665 8.58707 1.77075H9.29167C9.37221 1.77075 9.4375 1.83604 9.4375 1.91659ZM7.70377 1.77075H6.21291C6.08624 2.65403 6.06513 3.54887 6.14976 4.4364L6.52984 4.02493C6.7608 3.77491 7.15587 3.77491 7.38683 4.02493L7.76692 4.4364C7.85155 3.54887 7.83044 2.65403 7.70377 1.77075ZM2.875 8.18742H9.4375V10.6666C9.4375 10.7471 9.37221 10.8124 9.29167 10.8124H2.875C2.15013 10.8124 1.5625 10.2248 1.5625 9.49992C1.5625 8.77505 2.15013 8.18742 2.875 8.18742Z" fill="#A6ACBD"/>
</svg>
