<svg width="11" height="12" viewBox="0 0 11 12" fill="none" xmlns="http://www.w3.org/2000/svg">
<path fill-rule="evenodd" clip-rule="evenodd" d="M0.6875 3.67147C0.6875 2.14118 1.92804 0.900635 3.45833 0.900635H9.29167C9.85546 0.900635 10.3125 1.35768 10.3125 1.92147V10.6715C10.3125 11.2353 9.85546 11.6923 9.29167 11.6923H2.875C1.66688 11.6923 0.6875 10.7129 0.6875 9.5048V3.67147ZM9.4375 1.92147V7.3173H2.875C2.38255 7.3173 1.9281 7.48003 1.5625 7.75464V3.67147C1.5625 2.62443 2.41129 1.77563 3.45833 1.77563H5.32961C5.17602 2.93153 5.18982 4.10447 5.37134 5.25814L5.40773 5.48947C5.4338 5.65515 5.55229 5.79134 5.71278 5.84009C5.87326 5.88882 6.04748 5.84153 6.16129 5.71833L6.95834 4.85547L7.75539 5.71833C7.86919 5.84153 8.04341 5.88882 8.2039 5.84009C8.36438 5.79134 8.48287 5.65515 8.50894 5.48947L8.54534 5.25814C8.72686 4.10447 8.74065 2.93153 8.58707 1.77563H9.29167C9.37221 1.77563 9.4375 1.84093 9.4375 1.92147ZM7.70377 1.77563H6.21291C6.08624 2.65891 6.06513 3.55375 6.14976 4.44128L6.52984 4.02982C6.7608 3.77979 7.15587 3.77979 7.38683 4.02981L7.76692 4.44128C7.85155 3.55375 7.83044 2.65891 7.70377 1.77563ZM2.875 8.1923H9.4375V10.6715C9.4375 10.752 9.37221 10.8173 9.29167 10.8173H2.875C2.15013 10.8173 1.5625 10.2297 1.5625 9.5048C1.5625 8.77993 2.15013 8.1923 2.875 8.1923Z" fill="white"/>
</svg>
