<svg width="32" height="32" viewBox="0 0 32 32" fill="none" xmlns="http://www.w3.org/2000/svg">
<path d="M6.9441 16.0327C6.9441 15.4849 7.38821 15.0407 7.93605 15.0407C8.48389 15.0407 8.92801 15.4849 8.92801 16.0327C8.92801 16.5805 8.48389 17.0246 7.93605 17.0246C7.38821 17.0246 6.9441 16.5805 6.9441 16.0327ZM14.8797 16.0327C14.8797 15.4849 15.3238 15.0407 15.8717 15.0407C16.4195 15.0407 16.8636 15.4849 16.8636 16.0327C16.8636 16.5805 16.4195 17.0246 15.8717 17.0246C15.3238 17.0246 14.8797 16.5805 14.8797 16.0327ZM22.8153 16.0327C22.8153 15.4849 23.2595 15.0407 23.8073 15.0407C24.3551 15.0407 24.7993 15.4849 24.7993 16.0327C24.7993 16.5805 24.3551 17.0246 23.8073 17.0246C23.2595 17.0246 22.8153 16.5805 22.8153 16.0327Z" fill="white" stroke="white" strokeWidth="1.98391"/>
</svg>
