<svg width="70" height="14" viewBox="0 0 70 14" fill="none" xmlns="http://www.w3.org/2000/svg">
<g clipPath="url(#clip0_4430_313878)">
<path d="M4.66797 6.99984C4.66797 7.61868 4.9138 8.21217 5.35139 8.64975C5.78897 9.08734 6.38246 9.33317 7.0013 9.33317C7.62014 9.33317 8.21363 9.08734 8.65122 8.64975C9.0888 8.21217 9.33464 7.61868 9.33464 6.99984C9.33464 6.381 9.0888 5.78751 8.65122 5.34992C8.21363 4.91234 7.62014 4.6665 7.0013 4.6665C6.38246 4.6665 5.78897 4.91234 5.35139 5.34992C4.9138 5.78751 4.66797 6.381 4.66797 6.99984Z" stroke="#CFC7F5" strokeWidth="1.16667" strokeLinecap="round" strokeLinejoin="round"/>
<path d="M9.33333 6.99991V7.87491C9.33333 8.26168 9.48698 8.63262 9.76047 8.90611C10.034 9.1796 10.4049 9.33324 10.7917 9.33324C11.1784 9.33324 11.5494 9.1796 11.8229 8.90611C12.0964 8.63262 12.25 8.26168 12.25 7.87491V6.99991C12.2514 5.8718 11.8895 4.77323 11.2177 3.86694C10.546 2.96064 9.60016 2.29483 8.52039 1.96814C7.44063 1.64144 6.28435 1.67123 5.22284 2.05311C4.16133 2.43498 3.25106 3.14862 2.62687 4.08831C2.00268 5.02799 1.69778 6.14375 1.75732 7.27028C1.81687 8.39682 2.2377 9.47421 2.95747 10.3429C3.67725 11.2115 4.65768 11.8252 5.75353 12.093C6.84938 12.3609 8.00236 12.2686 9.04167 11.8299" stroke="#CFC7F5" strokeWidth="1.16667" strokeLinecap="round" strokeLinejoin="round"/>
</g>
<g clipPath="url(#clip1_4430_313878)">
<path d="M29.75 7C29.75 7.68944 29.8858 8.37213 30.1496 9.00909C30.4135 9.64605 30.8002 10.2248 31.2877 10.7123C31.7752 11.1998 32.354 11.5865 32.9909 11.8504C33.6279 12.1142 34.3106 12.25 35 12.25C35.6894 12.25 36.3721 12.1142 37.0091 11.8504C37.646 11.5865 38.2248 11.1998 38.7123 10.7123C39.1998 10.2248 39.5865 9.64605 39.8504 9.00909C40.1142 8.37213 40.25 7.68944 40.25 7C40.25 6.31056 40.1142 5.62787 39.8504 4.99091C39.5865 4.35395 39.1998 3.7752 38.7123 3.28769C38.2248 2.80018 37.646 2.41347 37.0091 2.14963C36.3721 1.8858 35.6894 1.75 35 1.75C34.3106 1.75 33.6279 1.8858 32.9909 2.14963C32.354 2.41347 31.7752 2.80018 31.2877 3.28769C30.8002 3.7752 30.4135 4.35395 30.1496 4.99091C29.8858 5.62787 29.75 6.31056 29.75 7Z" stroke="#CFC7F5" strokeWidth="1.16667" strokeLinecap="round" strokeLinejoin="round"/>
<path d="M33.25 5.83325H33.2558" stroke="#CFC7F5" strokeWidth="1.16667" strokeLinecap="round" strokeLinejoin="round"/>
<path d="M36.75 5.83325H36.7558" stroke="#CFC7F5" strokeWidth="1.16667" strokeLinecap="round" strokeLinejoin="round"/>
<path d="M33.543 8.75C33.7331 8.94402 33.96 9.09815 34.2104 9.20337C34.4608 9.3086 34.7297 9.3628 35.0013 9.3628C35.2729 9.3628 35.5418 9.3086 35.7922 9.20337C36.0426 9.09815 36.2695 8.94402 36.4596 8.75" stroke="#CFC7F5" strokeWidth="1.16667" strokeLinecap="round" strokeLinejoin="round"/>
</g>
<g clipPath="url(#clip2_4430_313878)">
<path d="M64.7501 4.08327L60.9584 7.87494C60.7263 8.107 60.596 8.42175 60.596 8.74994C60.596 9.07813 60.7263 9.39287 60.9584 9.62494C61.1905 9.857 61.5052 9.98738 61.8334 9.98738C62.1616 9.98738 62.4763 9.857 62.7084 9.62494L66.5001 5.83327C66.9642 5.36914 67.2249 4.73965 67.2249 4.08327C67.2249 3.42689 66.9642 2.7974 66.5001 2.33327C66.0359 1.86914 65.4064 1.6084 64.7501 1.6084C64.0937 1.6084 63.4642 1.86914 63.0001 2.33327L59.2084 6.12494C58.5122 6.82113 58.1211 7.76537 58.1211 8.74994C58.1211 9.7345 58.5122 10.6787 59.2084 11.3749C59.9046 12.0711 60.8488 12.4622 61.8334 12.4622C62.818 12.4622 63.7622 12.0711 64.4584 11.3749L68.2501 7.58327" stroke="#CFC7F5" strokeWidth="1.16667" strokeLinecap="round" strokeLinejoin="round"/>
</g>
<defs>
<clipPath id="clip0_4430_313878">
<rect width="14" height="14" fill="white"/>
</clipPath>
<clipPath id="clip1_4430_313878">
<rect width="14" height="14" fill="white" transform="translate(28)"/>
</clipPath>
<clipPath id="clip2_4430_313878">
<rect width="14" height="14" fill="white" transform="translate(56)"/>
</clipPath>
</defs>
</svg>
