<svg width="10" height="12" viewBox="0 0 10 12" fill="none" xmlns="http://www.w3.org/2000/svg">
<path fillRule="evenodd" clipRule="evenodd" d="M4.13573 1.5C4.02491 1.5 3.92262 1.55946 3.86776 1.65575L1.63711 5.57123C1.34142 6.09026 1.21733 6.68946 1.28258 7.28324L1.51801 9.42568C1.5599 9.80687 1.85915 10.1088 2.23994 10.1541L3.65131 10.322C4.58302 10.4328 5.52771 10.3368 6.41803 10.0406C6.85772 9.89439 7.2099 9.56066 7.37958 9.12946L8.51563 6.24242C8.54341 6.17183 8.56261 6.09817 8.57281 6.02301C8.65897 5.38826 8.10332 4.85283 7.47221 4.96244L5.195 5.35796C4.47567 5.48289 3.8544 4.8481 3.99479 4.13163L4.43839 1.86772C4.47572 1.67721 4.32987 1.5 4.13573 1.5ZM2.99887 1.16074C3.23159 0.752241 3.66559 0.500004 4.13572 0.5C4.95932 0.499993 5.5781 1.25178 5.41973 2.06001L4.97613 4.32392C4.97423 4.33362 4.97524 4.33954 4.97658 4.34379C4.97823 4.34903 4.98161 4.35517 4.98718 4.36087C4.99275 4.36656 4.99881 4.37007 5.00402 4.37183C5.00824 4.37325 5.01414 4.3744 5.02388 4.37271L7.30109 3.97719C8.59854 3.75185 9.74085 4.8526 9.56372 6.15752C9.54274 6.31204 9.50328 6.46348 9.44618 6.60859L8.31012 9.49564C8.03194 10.2026 7.45453 10.7497 6.73364 10.9895C5.70374 11.3321 4.61096 11.4432 3.53319 11.315L2.12182 11.1471C1.27902 11.0469 0.616703 10.3786 0.523994 9.53491L0.288566 7.39247C0.200289 6.58913 0.368168 5.77844 0.768219 5.07623L2.99887 1.16074Z" fill="white"/>
</svg>
