<svg width="9" height="10" viewBox="0 0 9 10" fill="none" xmlns="http://www.w3.org/2000/svg">
<path fillRule="evenodd" clipRule="evenodd" d="M5.464 8.31271C5.55543 8.31271 5.63983 8.26366 5.68509 8.18421L7.52546 4.9538C7.76941 4.52558 7.87179 4.03122 7.81796 3.54133L7.62372 1.77374C7.58916 1.45925 7.34227 1.21014 7.0281 1.17276L5.86367 1.03425C5.09498 0.942804 4.31558 1.02207 3.58103 1.26639C3.21827 1.38704 2.9277 1.66238 2.78772 2.01813L1.85043 4.40004C1.82751 4.45828 1.81168 4.51906 1.80326 4.58107C1.73217 5.10475 2.1906 5.54651 2.71129 5.45607L4.59007 5.12976C5.18354 5.02668 5.69612 5.55041 5.58029 6.14153L5.2143 8.00933C5.1835 8.16651 5.30384 8.31271 5.464 8.31271ZM6.40196 8.59261C6.20995 8.92964 5.85189 9.13774 5.46401 9.13775C4.78452 9.13775 4.274 8.5175 4.40466 7.85068L4.77065 5.98288C4.77222 5.97488 4.77138 5.96999 4.77027 5.96648C4.76892 5.96216 4.76613 5.95709 4.76153 5.95239C4.75694 5.9477 4.75193 5.9448 4.74764 5.94335C4.74415 5.94217 4.73929 5.94123 4.73125 5.94262L2.85248 6.26894C1.78203 6.45486 0.839581 5.54669 0.985722 4.47009C1.00303 4.34261 1.03559 4.21766 1.0827 4.09794L2.01998 1.71603C2.2495 1.13276 2.72588 0.68134 3.32064 0.483518C4.17034 0.200899 5.07193 0.109209 5.96113 0.214985L7.12555 0.353503C7.8209 0.436219 8.36733 0.987566 8.44382 1.68362L8.63805 3.45122C8.71089 4.114 8.57238 4.78284 8.24232 5.3622L6.40196 8.59261Z" fill="white"/>
</svg>
