<svg width="9" height="10" viewBox="0 0 9 10" fill="none" xmlns="http://www.w3.org/2000/svg">
<path fillRule="evenodd" clipRule="evenodd" d="M3.53868 0.887902C3.44725 0.887903 3.36285 0.936956 3.31759 1.0164L1.47723 4.24681C1.23327 4.67503 1.1309 5.16939 1.18473 5.65928L1.37897 7.42687C1.41352 7.74137 1.66042 7.99048 1.97459 8.02785L3.13901 8.16637C3.90771 8.25781 4.68711 8.17854 5.42166 7.93423C5.78442 7.81357 6.07498 7.53823 6.21497 7.18248L7.15225 4.80057C7.17517 4.74233 7.19101 4.68155 7.19943 4.61954C7.27051 4.09586 6.81208 3.65411 6.29139 3.74454L4.41262 4.07085C3.81914 4.17393 3.30657 3.65021 3.4224 3.05909L3.78838 1.19128C3.81918 1.0341 3.69885 0.8879 3.53868 0.887902ZM2.60073 0.608C2.79273 0.270974 3.15079 0.0628697 3.53867 0.0628662C4.21817 0.0628601 4.72868 0.683115 4.59802 1.34993L4.23203 3.21773C4.23047 3.22574 4.23131 3.23062 4.23241 3.23413C4.23377 3.23846 4.23655 3.24352 4.24115 3.24822C4.24575 3.25291 4.25075 3.25581 4.25504 3.25726C4.25853 3.25844 4.2634 3.25938 4.27143 3.25799L6.15021 2.93167C7.22066 2.74576 8.1631 3.65392 8.01696 4.73052C7.99966 4.858 7.9671 4.98295 7.91999 5.10267L6.9827 7.48459C6.75319 8.06785 6.2768 8.51927 5.68205 8.71709C4.83234 8.99971 3.93076 9.0914 3.04156 8.98563L1.87713 8.84711C1.18179 8.76439 0.635355 8.21305 0.558867 7.51699L0.36463 5.7494C0.291799 5.08661 0.430305 4.41777 0.760361 3.83842L2.60073 0.608Z" fill="white"/>
</svg>
