<svg width="50" height="50" viewBox="0 0 50 50" fill="none" xmlns="http://www.w3.org/2000/svg">
<path fill-rule="evenodd" clip-rule="evenodd" d="M16.1459 15.6249C16.1459 10.7349 20.1101 6.77075 25.0001 6.77075C29.8901 6.77075 33.8542 10.7349 33.8542 15.6249C33.8542 20.5149 29.8901 24.4791 25.0001 24.4791C20.1101 24.4791 16.1459 20.5149 16.1459 15.6249ZM25.0001 9.89575C21.8359 9.89575 19.2709 12.4608 19.2709 15.6249C19.2709 18.789 21.8359 21.3541 25.0001 21.3541C28.1642 21.3541 30.7292 18.789 30.7292 15.6249C30.7292 12.4608 28.1642 9.89575 25.0001 9.89575Z" fill="#8B93A9"/>
<path fill-rule="evenodd" clip-rule="evenodd" d="M16.6667 30.7291C14.0779 30.7291 11.9792 32.8278 11.9792 35.4166V37.8922C11.9792 37.9299 12.0066 37.962 12.0438 37.9681C20.6245 39.369 29.3757 39.369 37.9564 37.9681C37.9936 37.962 38.0209 37.9299 38.0209 37.8922V35.4166C38.0209 32.8277 35.9222 30.7291 33.3334 30.7291H32.6233C32.5684 30.7291 32.5138 30.7378 32.4616 30.7548L30.6584 31.3436C26.9817 32.5442 23.0184 32.5442 19.3417 31.3436L17.5386 30.7548C17.4864 30.7378 17.4318 30.7291 17.3769 30.7291H16.6667ZM8.85425 35.4166C8.85425 31.1019 12.352 27.6041 16.6667 27.6041H17.3769C17.7612 27.6041 18.1432 27.6649 18.5086 27.7842L20.3117 28.373C23.3581 29.3677 26.642 29.3677 29.6884 28.373L31.4916 27.7842C31.857 27.6649 32.2389 27.6041 32.6233 27.6041H33.3334C37.6481 27.6041 41.1459 31.1019 41.1459 35.4166V37.8922C41.1459 39.4614 40.0087 40.7994 38.4599 41.0522C29.5457 42.5076 20.4545 42.5076 11.5402 41.0522C9.99151 40.7994 8.85425 39.4614 8.85425 37.8922V35.4166Z" fill="#8B93A9"/>
</svg>
