<svg width="159" height="24" viewBox="0 0 159 24" fill="none" xmlns="http://www.w3.org/2000/svg">
<g clipPath="url(#clip0_2126_120296)">
<path d="M24.9997 0.239548C24.4378 0.243762 23.9 0.483484 23.5028 0.906849C23.1055 1.33021 22.8807 1.90318 22.877 2.50177C22.877 3.70347 23.8062 4.78723 25.0005 4.78723C25.5658 4.78158 26.106 4.53821 26.5036 4.11014C26.9012 3.68206 27.1239 3.10397 27.1232 2.50177C27.125 2.20416 27.0713 1.90914 26.9652 1.63382C26.8591 1.35849 26.7028 1.10835 26.5052 0.897906C26.3077 0.687459 26.0729 0.520897 25.8144 0.407882C25.556 0.294867 25.2791 0.237649 24.9997 0.239548Z" fill="#5BB8DC"/>
<path d="M27.1786 6.60352H22.7663C22.1238 6.60352 21.7246 7.06543 21.7246 7.80968C21.7246 9.12306 23.5446 19.2057 24.4973 22.8081C24.6726 23.4728 24.8873 23.572 25.0005 23.572H25.0114H25.0223C25.1263 23.5577 25.3243 23.4433 25.4744 22.8394C26.3525 19.2986 28.0316 9.18381 28.0316 7.80968C28.0316 7.05828 27.7129 6.60352 27.1786 6.60352Z" fill="#5BB8DC"/>
<path d="M70.9119 6.40063C66.3301 6.40063 62.7422 10.2237 62.7422 15.1038C62.7422 20.0919 66.331 23.999 70.9119 23.999C75.4928 23.999 79.0782 20.0919 79.0782 15.1038C79.0782 10.2237 75.4928 6.40063 70.9119 6.40063ZM70.9119 21.8574C67.5085 21.8574 64.8431 18.8911 64.8431 15.1038C64.8431 11.4245 67.5093 8.54225 70.9119 8.54225C74.3145 8.54225 76.9815 11.4245 76.9815 15.1038C76.9815 18.8911 74.3153 21.8574 70.9119 21.8574Z" fill="white"/>
<path d="M122.786 6.40063C118.204 6.40063 114.615 10.2237 114.615 15.1038C114.615 20.0919 118.204 23.999 122.786 23.999C127.368 23.999 130.955 20.0919 130.955 15.1038C130.955 10.2237 127.367 6.40063 122.786 6.40063ZM128.855 15.1038C128.855 18.8902 126.188 21.8574 122.786 21.8574C119.383 21.8574 116.716 18.8911 116.716 15.1038C116.716 11.4245 119.382 8.54225 122.786 8.54225C126.189 8.54225 128.855 11.4245 128.855 15.1038Z" fill="white"/>
<path d="M55.3868 10.5177C52.9235 9.33928 50.7958 8.32164 50.7958 5.85481C50.7958 4.0813 52.1871 2.17288 55.2408 2.17288C57.2604 2.17288 58.9663 3.15568 58.9663 4.31717V4.94259C58.9663 4.95153 58.9663 4.96046 58.9663 4.96939C58.9663 4.97833 58.9663 4.98726 58.9663 4.9962V5.05874H58.9722C58.9889 5.34006 59.1057 5.60401 59.2986 5.79691C59.4916 5.98981 59.7463 6.09717 60.0109 6.09717C60.2755 6.09717 60.5302 5.98981 60.7231 5.79691C60.9161 5.60401 61.0328 5.34006 61.0496 5.05874L61.0605 4.78177V3.9991C61.063 1.065 57.5556 0 55.2131 0C52.0395 0 48.6655 2.06299 48.6655 5.88697C48.6655 9.73508 51.7158 11.2146 54.4072 12.52C56.9073 13.7324 59.2716 14.8787 59.2716 17.6645C59.2716 20.0366 57.4265 21.8262 54.9741 21.8262C52.3683 21.8262 50.5358 20.1706 49.9009 19.5032L49.8958 19.5086C49.7987 19.391 49.6792 19.2968 49.5454 19.2321C49.4115 19.1674 49.2662 19.1337 49.1192 19.1333C48.909 19.134 48.7037 19.2019 48.5301 19.3282C48.3565 19.4545 48.2224 19.6335 48.1454 19.8419C48.0683 20.0503 48.0517 20.2785 48.0978 20.4971C48.1439 20.7156 48.2505 20.9144 48.4038 21.0677C49.2486 21.9978 50.2609 22.7369 51.38 23.2408C52.4991 23.7446 53.7021 24.0028 54.9171 24C58.6761 24 61.4052 21.3089 61.4052 17.6011C61.4002 13.3938 58.2056 11.866 55.3868 10.5177Z" fill="white"/>
<path d="M19.4477 2.87508C19.5526 2.5722 19.7077 2.47213 20.0348 2.44175C20.3053 2.42545 20.5592 2.2976 20.7428 2.08529C20.9263 1.87298 21.0251 1.59289 21.0181 1.30436C21.0111 1.01583 20.899 0.741525 20.7054 0.539565C20.5118 0.337605 20.2521 0.223854 19.9811 0.222412C19.9652 0.222412 19.9493 0.222412 19.9333 0.227773C18.4002 0.317118 17.85 0.853191 17.2998 2.44711V2.45426L11.4022 19.0189C11.2395 19.4969 11.0608 20.0794 10.9099 20.5905C10.758 20.0785 10.5794 19.4942 10.415 19.0144L4.55005 2.45426C3.99987 0.860339 3.44969 0.321586 1.91908 0.23492C1.90314 0.23492 1.88804 0.22956 1.87127 0.22956C1.60034 0.231002 1.34058 0.344753 1.14702 0.546713C0.953458 0.748673 0.841309 1.02298 0.834331 1.31151C0.827352 1.60004 0.926093 1.88013 1.10963 2.09244C1.29317 2.30475 1.54709 2.4326 1.81759 2.4489C2.14552 2.47838 2.30068 2.57845 2.40468 2.88223L9.79271 22.9921C9.81304 23.0493 9.8448 23.1012 9.88581 23.144C10.1648 23.4218 10.5305 23.5797 10.9124 23.5871C11.2953 23.5785 11.6634 23.4285 11.954 23.1628C12.0005 23.1177 12.0364 23.0617 12.0589 22.9993L19.4477 2.88133V2.87508Z" fill="white"/>
<path d="M112.972 22.0443V18.9243H112.967V8.96767C112.967 7.41842 112.296 6.69383 110.839 6.69383H104.743V3.10393C104.743 2.81412 104.635 2.53619 104.443 2.33127C104.25 2.12635 103.989 2.01123 103.717 2.01123C103.445 2.01123 103.184 2.12635 102.992 2.33127C102.8 2.53619 102.692 2.81412 102.692 3.10393C102.692 3.13698 102.697 3.63464 102.702 3.66859V6.69472H101.444C101.428 6.69472 101.413 6.68936 101.397 6.68936C101.381 6.68936 101.361 6.69472 101.345 6.69472H101.272V6.70544C101.04 6.73662 100.826 6.85693 100.672 7.0438C100.517 7.23067 100.432 7.47126 100.432 7.72041C100.432 7.96955 100.517 8.21014 100.672 8.39701C100.826 8.58388 101.04 8.70419 101.272 8.73537V8.74073H101.334C101.355 8.74073 101.376 8.74609 101.396 8.74609C101.416 8.74609 101.432 8.74073 101.453 8.74073H102.704V17.4072C102.704 23.1253 106.311 23.7409 107.871 23.7409L108.271 23.7356C108.529 23.7311 108.775 23.6183 108.956 23.4216C109.137 23.2249 109.238 22.9602 109.237 22.6849C109.237 22.549 109.212 22.4144 109.163 22.2888C109.115 22.1632 109.043 22.0491 108.953 21.9531C108.863 21.857 108.755 21.7809 108.637 21.7291C108.52 21.6773 108.393 21.6508 108.266 21.6511L107.923 21.6681C106.733 21.6681 104.736 21.0981 104.736 17.3143V8.73716H110.652C110.875 8.73716 110.922 8.79255 110.922 9.02485V20.9971L110.927 21.2071V22.5866C110.927 22.5973 110.922 22.5973 110.922 22.6089C110.923 22.7891 110.965 22.9662 111.046 23.1247C111.126 23.2833 111.242 23.4185 111.382 23.5184C111.523 23.6183 111.685 23.6799 111.853 23.6978C112.021 23.7158 112.191 23.6895 112.348 23.6212C112.532 23.5348 112.689 23.3931 112.8 23.2135C112.911 23.0338 112.97 22.8238 112.971 22.6089C112.978 22.5696 112.972 22.0773 112.972 22.0443Z" fill="white"/>
<path d="M83.2281 3.09209C83.2291 3.05508 83.2274 3.01803 83.223 2.9813C83.1982 2.7182 83.0845 2.47364 82.9032 2.29305C82.7219 2.11246 82.4852 2.00811 82.2371 1.99938C81.9891 1.99064 81.7464 2.07812 81.5543 2.24557C81.3622 2.41301 81.2337 2.64904 81.1926 2.90983C81.1823 2.96877 81.177 3.02857 81.1766 3.08852C81.1766 3.12157 81.1817 3.61923 81.1867 3.65318L81.1758 22.5194C81.1757 22.6632 81.2022 22.8057 81.2538 22.9387C81.3055 23.0716 81.3812 23.1924 81.4767 23.2942C81.5722 23.3959 81.6856 23.4766 81.8104 23.5316C81.9352 23.5866 82.069 23.6149 82.204 23.6147C82.3322 23.6146 82.4592 23.5883 82.5781 23.537H82.5831C82.774 23.456 82.9376 23.3156 83.0525 23.134C83.1674 22.9525 83.2283 22.7383 83.2272 22.5194C83.2272 22.4863 83.2222 21.9887 83.2172 21.9556L83.2281 3.09209Z" fill="white"/>
<path d="M153.183 14.0012C151.215 13.2042 149.517 12.5136 149.517 10.8812C149.517 8.94511 151.413 8.54127 153.001 8.54127C153.884 8.54127 155.525 8.96745 155.525 9.98509V10.422H155.535C155.531 10.567 155.554 10.7114 155.604 10.8465C155.653 10.9817 155.727 11.105 155.822 11.209C155.917 11.313 156.031 11.3957 156.156 11.4522C156.282 11.5087 156.416 11.5378 156.552 11.5378C156.689 11.5378 156.823 11.5087 156.949 11.4522C157.074 11.3957 157.188 11.313 157.283 11.209C157.378 11.105 157.452 10.9817 157.501 10.8465C157.551 10.7114 157.574 10.567 157.57 10.422C157.568 10.4147 157.566 10.4072 157.565 10.3997V9.53658C157.565 7.25201 154.73 6.39966 152.944 6.39966C149.532 6.39966 147.414 8.15351 147.414 10.9741C147.414 13.9949 150.056 15.068 152.388 16.0195C154.361 16.8236 156.07 17.5187 156.07 19.1225C156.07 20.2839 154.917 21.4294 154.506 21.4294H146.107C145.889 21.4294 145.837 21.374 145.837 21.1417V13.055C145.837 9.95739 145.23 6.40055 140.489 6.40055C139.338 6.38987 138.202 6.67078 137.174 7.22009C136.145 7.7694 135.254 8.57137 134.574 9.55981V8.96119L134.569 8.8781V7.70053C134.569 7.55665 134.543 7.41416 134.491 7.28121C134.439 7.14826 134.364 7.02746 134.268 6.92572C134.173 6.82398 134.059 6.7433 133.934 6.68829C133.81 6.63329 133.676 6.60504 133.541 6.60515C133.41 6.60382 133.281 6.63215 133.162 6.68824C132.97 6.76692 132.806 6.90604 132.691 7.08696C132.576 7.26788 132.515 7.48197 132.518 7.70053C132.518 7.73359 132.523 8.23124 132.528 8.26519V22.6248H132.533C132.543 22.9091 132.657 23.1779 132.85 23.3749C133.042 23.572 133.299 23.6821 133.566 23.6821C133.833 23.6821 134.09 23.572 134.282 23.3749C134.475 23.1779 134.589 22.9091 134.599 22.6248L134.594 22.3818L134.589 15.3396C134.589 14.5149 134.646 13.8957 134.797 13.3257C135.508 10.5104 137.851 8.54038 140.489 8.54038C143.256 8.54038 143.796 10.3711 143.796 13.5357V21.2024C143.796 22.8008 144.513 23.6085 145.931 23.6085H154.512C155.562 23.6085 156.475 23.017 157.124 22.1593C157.773 21.3016 158.168 20.1794 158.168 19.1198C158.168 16.0311 155.52 14.9527 153.183 14.0012Z" fill="white"/>
<path d="M99.1225 21.9557V7.79981L99.1125 7.57287C99.0887 7.29306 98.9643 7.03388 98.7653 6.84947C98.5663 6.66506 98.3082 6.5697 98.0448 6.58331C97.7813 6.59692 97.533 6.71845 97.3517 6.9225C97.1705 7.12656 97.0702 7.39735 97.0719 7.6783C97.0719 7.72297 97.077 8.30371 97.082 8.34749V15.01C97.082 18.3792 94.9274 21.8583 91.3126 21.8583C88.55 21.8583 88.0099 20.0276 88.0099 16.8684V7.70063C88.01 7.55675 87.9835 7.41426 87.9318 7.28131C87.8802 7.14836 87.8045 7.02756 87.709 6.92582C87.6135 6.82408 87.5001 6.7434 87.3753 6.6884C87.2505 6.63339 87.1167 6.60514 86.9816 6.60526C86.8008 6.60488 86.6232 6.65642 86.4675 6.75446C86.3114 6.85006 86.1818 6.98793 86.0918 7.15409C86.0018 7.32025 85.9546 7.5088 85.9551 7.70063C85.9551 7.73369 85.9601 8.23134 85.9651 8.2653V17.3419C85.9651 21.9441 87.6115 23.9963 91.3084 23.9963C92.4361 24.0004 93.5484 23.7168 94.5521 23.1692C95.5558 22.6215 96.4218 21.8259 97.0778 20.8487V22.5195C97.0777 22.6633 97.1042 22.8058 97.1559 22.9388C97.2075 23.0717 97.2832 23.1925 97.3787 23.2943C97.4742 23.396 97.5876 23.4767 97.7124 23.5317C97.8372 23.5867 97.971 23.615 98.106 23.6148C98.232 23.6141 98.3569 23.5899 98.4751 23.5434H98.4801C98.6719 23.4614 98.8362 23.3202 98.9519 23.1379C99.0676 22.9555 99.1294 22.7404 99.1292 22.5204C99.1318 22.4864 99.1225 21.9888 99.1225 21.9557Z" fill="white"/>
<path d="M44.716 22.0682V13.1042C44.716 10.0066 44.1088 6.44976 39.3677 6.44976C38.2174 6.43898 37.0812 6.71975 36.0528 7.2689C35.0245 7.81806 34.1334 8.61985 33.4532 9.60812V9.0104L33.4482 8.92731V7.75063C33.4483 7.60675 33.4218 7.46426 33.3702 7.33131C33.3185 7.19836 33.2428 7.07756 33.1473 6.97582C33.0518 6.87408 32.9384 6.7934 32.8136 6.7384C32.6888 6.68339 32.555 6.65514 32.42 6.65526C32.2904 6.65402 32.1621 6.68204 32.0434 6.73745C31.852 6.81613 31.6877 6.95525 31.5726 7.13617C31.4574 7.31709 31.397 7.53118 31.3993 7.74974C31.3993 7.7828 31.4043 8.28045 31.4093 8.3144V11.429V18.9519H31.3984V22.6311C31.3983 22.775 31.4248 22.9175 31.4765 23.0504C31.5281 23.1834 31.6039 23.3042 31.6994 23.4059C31.7949 23.5077 31.9083 23.5883 32.0331 23.6434C32.1579 23.6984 32.2916 23.7266 32.4267 23.7265C32.5068 23.7255 32.5866 23.7138 32.664 23.6917C32.8866 23.642 33.0875 23.5152 33.2353 23.3311C33.383 23.147 33.4694 22.9159 33.4809 22.674L33.4759 22.431L33.4708 15.3888C33.4708 14.5641 33.5279 13.945 33.6788 13.3749C34.3901 10.5597 36.7325 8.58959 39.3702 8.58959C42.1379 8.58959 42.678 10.4203 42.678 13.5849V22.6293C42.6779 22.7732 42.7044 22.9157 42.756 23.0487C42.8077 23.1816 42.8834 23.3024 42.9789 23.4041C43.0744 23.5059 43.1878 23.5866 43.3126 23.6416C43.4374 23.6966 43.5712 23.7248 43.7062 23.7247C43.8367 23.7261 43.966 23.6977 44.0853 23.6416C44.1214 23.6246 44.1583 23.6086 44.1893 23.5916C44.3531 23.4988 44.49 23.3601 44.5851 23.1906C44.6803 23.021 44.7302 22.8269 44.7294 22.6293C44.7269 22.5963 44.7219 22.0986 44.716 22.0682Z" fill="white"/>
</g>
<defs>
<clipPath id="clip0_2126_120296">
<rect width="157.333" height="24" fill="white" transform="translate(0.833984)"/>
</clipPath>
</defs>
</svg>
